<svg id="Layer_1" data-name="Layer 1" xmlns="http://www.w3.org/2000/svg" viewBox="0 0 1500 1661.86"><path d="M1464.75,1172.15c-10.29-7.33-20.41-15.21-31.59-20.94-27.63-14.16-56.34-26.25-83.61-41-19.66-10.66-37-25.71-59.57-30.67a14,14,0,0,1-3.24-1.46l-53.38-27.64-10.5-7.23c.8-2.77.73-6.49,2.54-8.14,8.91-8.11,9.76-19.36,13.76-29.65,6.25-16,16.22-30.66,24.61-45.88.67-5.17,1.65-10.33,2-15.53.72-12.74,7.89-26.33,16.19-27.18,12.21-1.24,17.59-9.35,22.63-18.72,11-20.38,23.06-40,39.83-56.3a59.59,59.59,0,0,0,4.43-5.41h0l2.2-5.46c2.24-4.09,4.1-8.47,6.79-12.24,6.14-8.57,13-16.65,18.94-25.35,2.86-4.2,4.3-9.36,6.38-14.09h0q1.76-26,3.52-52,1.09-16,2.23-32c0-10.39.48-20.8-.1-31.16-.5-9.08-2.17-18.1-3.33-27.15h0c2.87-8.8,7.78-17.51,8.17-26.43.74-16.64.38-33.19,7.42-48.79.52-3.16,1.46-6.32,1.49-9.49.15-16.82.19-33.65,0-50.48,0-4.33-1-8.66-1.57-13l-3.6-32.16-1-1,1,1a67.36,67.36,0,0,0-3.21-7.95c-3.52-6.4-7.31-12.66-11-19h0l.09-23.08-7.65-13.13,7.65,13.13q-5.35-16.06-10.69-32.13c-1.07-10.21-1.93-20.46-3.34-30.63-.51-3.65-2.36-7.1-3.6-10.65v0c1.09-12.7.09-24.52-10.65-33.76-2.48-2.13-2.73-6.88-4-10.42l-1.77.22h0l1.77-.22c-.67-2.21-.76-4.9-2.11-6.55-9.3-11.32-19.06-22.26-28.27-33.65-7.29-9-14-18.51-21-27.79q-8.13-11.52-16.27-23.05c-6.34-9.72-12.66-19.45-19-29.13-.45-.67-1.43-1-2.17-1.47-11-14.25-21.47-29-33.3-42.54-5.35-6.13-13.44-9.87-20.29-14.7-9.87-9.38-19.54-19-29.72-28-3.59-3.19-8.42-5-12.69-7.44q-28.45-20.26-56.93-40.49a9.18,9.18,0,0,0-4.05-1.71c-12.51-1.36-25-2.57-37.55-3.83l-62.37-16.27c-7.66-1.72-15.25-4-23-5-8.49-1.06-17.66.82-25.63-1.57C931.67-1.72,906.81-1,881.65,2.67c-22.31,3.22-44.56,7.56-67,9-18.76,1.19-36.11,3.57-53.55,12.11-24.1,11.81-50.11,19.65-75,29.9-15.23,6.27-29.91,13.87-44.84,20.87-3.42,1.58-7.67,2.35-10.14,4.87-16.15,16.44-32.62,32.35-54.18,41.72-10.41,9.58-20.45,19.6-31.32,28.63A173.33,173.33,0,0,0,502,204c-11,21.26-20.79,43.12-31,64.75a75.63,75.63,0,0,0-2.65,7.45C457,297.64,445.6,319,434.45,340.52c-1.72,3.31-2.42,7.14-3.59,10.73-18.15,13.12-14.17,35.42-21.84,52.89-.77,1.75-.12,4.11-.13,6.19,0,6.52.49,13.1-.18,19.55-.44,4.19-2.3,8.33-4,12.26-2.93,6.67-6.27,13.16-9.43,19.73-.59,5.48-1.52,11-1.71,16.46-.39,12-.42,12.81-12.66,11.83-12.53-1-23,2.3-32.18,10.64-15.07,5.74-25.15,15.95-28.68,32h0c-2.37,8.07-6.44,16.06-6.78,24.21-.89,21.75-.18,43.56-.11,65.35q1.77,13.35,3.53,26.71c2.67,17.12,4.76,34.37,8.26,51.33,1.81,8.79,6.1,17.08,9.27,25.59,4.39,13.36,8.47,26.83,13.24,40,6.33,17.59,16.82,33.87,15.84,53.7-.13,2.56,2.13,5.24,3.28,7.87l3.54,14.09c.51,2.29.33,5.14,1.65,6.79,9.13,11.41,12.83,26.7,25.64,35.51,5.11,3.51,5.57,8.07,1.26,12.8L393,900.29c-1.74,1.28-3.53,2.49-5.22,3.85-4.25,3.41-8.45,6.88-12.68,10.32-14.85,8.61-29.3,18-44.65,25.63-23.84,11.81-48.11,22.81-72.52,33.38-33.57,14.53-69.77,23.22-98.82,47.5-14.72,12.31-30.64,23.24-46.55,34a196.28,196.28,0,0,1-29.24,16.07c-12.13,5.48-24.8,9.79-37.26,14.53-17.4,6.61-27,21.7-38.22,35.05-11.64,13.88-10.93,14.66,6.17,20.76,23.67,8.43,49.67,9.28,71.79,22.75,11.09,6.75,23,12.13,34.16,18.77,7.86,4.68,14.89,10.71,22.6,15.67,9.73,6.25,19.41,12.78,29.77,17.83,13.5,6.58,27.2,13.49,41.61,17.23,17.64,4.58,35.09,8,48.2,22.2,6,6.51,12.9,12.23,19.62,18.05,8.5,7.36,17.27,14.42,25.85,21.69,3.84,3.25,7.94,6.32,11.16,10.12,7.7,9,14.71,18.67,22.42,27.7,13.84,16.24,29.65,30.64,50,37.48,26.09,8.74,43.71,27.53,61.37,46.77,13.68,21.29,27.31,42.62,41.12,63.83,1,1.57,3.28,2.34,5,3.48l48.1,23.82,7.06,3.19h0l26.88,14.47,8.83,3.72c11.36,5.8,23.36,10.62,34,17.58,40.29,26.5,82.29,49.54,127.62,66.23,15.18,5.59,28.12,13.76,36.39,28.28,1.14,2,4,3.62,6.31,4.26,9.14,2.48,18.4,4.49,27.62,6.68h0l16.53,8.67,29.7-.1,37.41-3.52,12.77.09c6.49,0,13,.42,19.47.05,13-.74,25.43-3.54,36-11.74l3.46-2.31,8.56-5.55c-.87-2.43-2.12-4.86-3.15-7.29,1,2.43,2.28,4.86,3.15,7.29,14.81-9.72,29.37-19.86,44.49-29,24.08-14.64,46.36-31.29,64.31-53.25h0c11.16-9.72,23.17-18.64,33.24-29.38,9.27-9.9,18.41-19.65,31.22-24.29,10.35-3.75,16.09-10.12,21.46-19.87,8.52-15.43,19.93-29.38,31-43.28,6.56-8.26,14.73-15.25,22.23-22.75,3.13-3.13,9-6,9.19-9.14.6-11.92,10.6-14.85,17.46-20.58,14.56-12.15,28.69-25.1,44.52-35.38,29.11-18.94,57.49-38.44,83.72-61.49,26.45-23.24,55.63-43.35,83.2-65.34,10.21-8.15,19.25-17.75,28.61-26.49C1487,1188.7,1476,1180.18,1464.75,1172.15Z"/></svg>