<svg id="Layer_1" data-name="Layer 1" xmlns="http://www.w3.org/2000/svg" viewBox="0 0 1500 1661.86"><defs><style>.cls-1{fill:#1d1d1d;}.cls-2{fill:#e3e3e3;}.cls-3{fill:#838383;}.cls-4{fill:#656565;}.cls-5{fill:#5b5b5b;}.cls-6{fill:#313131;}.cls-7{fill:#ababab;}.cls-8{fill:#797979;}.cls-9{fill:#7b7b7b;}.cls-10{fill:#3e3e3e;}.cls-11{fill:#1c1c1c;}.cls-12{fill:#7c7c7c;}.cls-13{fill:#bfbfbf;}.cls-14{fill:#9d9d9d;}.cls-15{fill:#d6d6d6;}.cls-16{fill:#484848;}.cls-17{fill:#444;}.cls-18{fill:#292929;}.cls-19{fill:#3a3a3a;}.cls-20{fill:#404040;}.cls-21{fill:#494949;}.cls-22{fill:#949494;}.cls-23{fill:#efefef;}.cls-24{fill:#898989;}.cls-25{fill:#414141;}.cls-26{fill:#c5c5c5;}.cls-27{fill:#7f7f7f;}.cls-28{fill:#c6c6c6;}.cls-29{fill:#a7a7a7;}.cls-30{fill:#232323;}.cls-31{fill:silver;}.cls-32{fill:#8a8a8a;}.cls-33{fill:#b3b3b3;}.cls-34{fill:#cecece;}.cls-35{fill:#616161;}.cls-36{fill:#626262;}.cls-37{fill:#2c2c2c;}.cls-38{fill:#d1d1d1;}.cls-39{fill:#525252;}.cls-40{fill:#eee;}.cls-41{fill:#5f5f5f;}.cls-42{fill:#363636;}.cls-43{fill:#686868;}.cls-44{fill:#a4a4a4;}.cls-45{fill:#8e8e8e;}.cls-46{fill:#3f3f3f;}.cls-47{fill:#4c4c4c;}.cls-48{fill:#676767;}.cls-49{fill:#bdbdbd;}.cls-50{fill:#cfcfcf;}.cls-51{fill:#6a6a6a;}.cls-52{fill:#4a4a4a;}.cls-53{fill:#939393;}.cls-54{fill:#a5a5a5;}.cls-55{fill:#333;}.cls-56{fill:#5d5d5d;}.cls-57{fill:#606060;}.cls-58{fill:#646464;}.cls-59{fill:#131313;}.cls-60{fill:#e4e4e4;}.cls-61{fill:#dbdbdb;}.cls-62{fill:#a9a9a9;}.cls-63{fill:#8d8d8d;}.cls-64{fill:#c1c1c1;}.cls-65{fill:#8f8f8f;}.cls-66{fill:#bbb;}.cls-67{fill:#6b6b6b;}.cls-68{fill:#585858;}.cls-69{fill:#383838;}.cls-70{fill:#cbcbcb;}.cls-71{fill:#595959;}.cls-72{fill:#787878;}.cls-73{fill:#e1e1e1;}.cls-74{fill:#9a9a9a;}.cls-75{fill:#9e9e9e;}.cls-76{fill:#bebebe;}.cls-77{fill:#202020;}.cls-78{fill:#c3c3c3;}.cls-79{fill:#4f4f4f;}.cls-80{fill:#999;}.cls-81{fill:#a2a2a2;}.cls-82{fill:#6e6e6e;}.cls-83{fill:#aaa;}.cls-84{fill:#878787;}.cls-85{fill:#b2b2b2;}.cls-86{fill:#a8a8a8;}.cls-87{fill:#929292;}.cls-88{fill:#afafaf;}.cls-89{fill:#b4b4b4;}.cls-90{fill:#e0e0e0;}.cls-91{fill:#171717;}.cls-92{fill:#dadada;}.cls-93{fill:#515151;}.cls-94{fill:#adadad;}.cls-95{fill:#cacaca;}.cls-96{fill:#767676;}.cls-97{fill:#b8b8b8;}.cls-98{fill:#e6e6e6;}.cls-99{fill:#d2d2d2;}.cls-100{fill:#979797;}</style></defs><path class="cls-1" d="M452.61,1417.65c-17.66-19.24-35.28-38-61.37-46.77-20.39-6.84-36.2-21.24-50-37.48-7.71-9-14.72-18.66-22.41-27.7-3.23-3.8-7.33-6.87-11.17-10.12-8.58-7.27-17.35-14.33-25.85-21.69-6.72-5.82-13.62-11.54-19.62-18.05-13.11-14.22-30.56-17.62-48.2-22.2-14.41-3.74-28.11-10.65-41.61-17.23-10.36-5.05-20-11.58-29.77-17.83-7.71-5-14.74-11-22.6-15.67-11.15-6.64-23.07-12-34.16-18.77-22.12-13.47-48.12-14.32-71.79-22.75-17.1-6.1-17.81-6.88-6.17-20.76,11.19-13.35,20.82-28.44,38.22-35.05,12.46-4.74,25.13-9,37.26-14.53A196.28,196.28,0,0,0,112.57,1055c15.91-10.77,31.83-21.7,46.55-34,29-24.28,65.25-33,98.82-47.5,24.41-10.57,48.68-21.57,72.52-33.38,15.35-7.6,29.8-17,44.65-25.63.72,3.69,2.11,7.4,2.05,11.07-.3,17.43-1.56,34.86-1.32,52.28.14,10.47,2.4,20.91,3.71,31.36.69,3.42,1.57,6.81,2,10.26,1.51,11.32,2.09,22.82,4.47,33.94,3.62,17,8.46,33.64,12.78,50.45.49,3.19.45,6.58,1.56,9.55,11.18,30,20.94,60.62,34.18,89.67,36.25,79.46,64.33,162.08,96.24,243.21,9.2,19.85,11.82,41.39,16,62.53L498.69,1485l-37.47-92.43-2.58.52Z"/><path class="cls-1" d="M1233.36,1050.39l53.38,27.64a14,14,0,0,0,3.24,1.46c22.61,5,39.91,20,59.57,30.67,27.27,14.8,56,26.89,83.61,41,11.18,5.73,21.3,13.61,31.59,20.94,11.28,8,22.2,16.55,35.25,26.34-9.36,8.74-18.4,18.34-28.61,26.49-27.57,22-56.75,42.1-83.2,65.34-26.23,23-54.61,42.55-83.72,61.49-15.83,10.28-30,23.23-44.52,35.38-6.86,5.73-16.86,8.66-17.46,20.58-.16,3.19-6.06,6-9.19,9.14-7.5,7.5-15.67,14.49-22.23,22.75-11,13.9-22.44,27.85-31,43.28-5.37,9.75-11.11,16.12-21.46,19.87-12.81,4.64-22,14.39-31.22,24.29-10.07,10.74-22.08,19.66-33.24,29.38a22.86,22.86,0,0,1-1.55-4.09q-10.82-59.3-21.53-118.59c-2.11-14.92-4.33-29.83-6.32-44.77-2.1-15.83-5.76-31.72-5.57-47.55.34-28.09,3.06-56.15,4.79-84.22l27-35.57c3.87-2.71,8.7-4.69,11.43-8.27,6.69-8.79,12.41-18.32,18.52-27.54,6.81-8.11,14.46-15.67,20.3-24.44,19.21-28.8,38.33-57.69,56.32-87.26C1206.19,1060.1,1219.09,1054.74,1233.36,1050.39Z"/><path class="cls-2" d="M1071.11,1433.8q10.76,59.29,21.53,118.59a22.86,22.86,0,0,0,1.55,4.09c-18,22-40.23,38.61-64.31,53.25-15.12,9.19-29.68,19.33-44.49,29-1.75-4.85-5-9.73-4.93-14.56.14-10.72,1.95-21.43,3.08-32.14l2.4-38.68c1-9.94,2.53-19.85,2.92-29.81.13-3.59-1.28-8.73-3.86-10.68-14.32-10.86-29.23-21-43.93-31.31-17.15-12.49-34.16-25.15-51.59-37.23-2.15-1.49-7-.88-9.71.53-12.53,6.58-24.74,13.77-37.06,20.75a2.91,2.91,0,0,0-1.64.3l-18.26,10.45c-9.86,5.36-19.91,10.42-29.45,16.29-2.61,1.61-5.69,6.12-5.16,8.54,3.34,15.22,7.64,30.22,11.63,45.29q3.46,15,6.94,30.08,3.88,15,7.78,30.11c-.85,3.49-3.11,7.36-2.29,10.4,2.3,8.51,6.2,16.59,8.79,25,1,3.4.32,7.34.4,11-9.22-2.19-18.48-4.2-27.62-6.68-2.35-.64-5.17-2.26-6.31-4.26-8.27-14.52-21.21-22.69-36.39-28.28-45.33-16.69-87.33-39.73-127.62-66.23-10.59-7-22.59-11.78-34-17.58.55-1.68,1.57-3.35,1.58-5,.12-25.51.32-51-.12-76.53-.06-3-3.16-7-6-8.77-8.82-5.42-18.15-10-27.36-14.8-2.63-1.36-5.55-2.14-9.56-3.63.69,3.59.82,5.36,1.38,7,7.45,21.59,15.23,43.07,22.35,64.76,3.57,10.9,6,22.19,8.88,33.3L553.85,1512c-1.31-8.91-1.64-18.11-4.17-26.65-3.73-12.61-9-24.76-13.65-37.1-3.95-12.1-7.86-24.21-11.85-36.29-5.74-17.38-14-34.07-14.26-52.92-.08-5.28,0-10.56,0-15.84l2.5-.5,29.93,41.13,2.68-.73c0-3.39-.16-6.78,0-10.16.81-14.48-1-29.81,3.18-43.26,8-25.7,19.49-50.32,29.41-75.44,2.29-5.79,5.37-5.14,9.48-2,6.63,5,13.42,9.8,20.12,14.71q100.78,74,201.68,147.91c3,2.17,7.82,3.63,11.29,2.92,14.79-3,29.4-7,44.07-10.6,16.12-4.07,32.36-7.72,48.3-12.42,6-1.77,12.3-4.91,16.59-9.27,17.45-17.75,34.19-36.2,51.11-54.47,1-1.13,1.4-2.9,2.08-4.39l-8.36-3.51c2.35-4,4.27-7.25,6.2-10.51,4.86-9.52,11-5.79,17.14-1.06l11.21-9.7,14.43,7.3c1.91,5.49,3.39,11.19,5.81,16.45,7.39,16,15.13,31.83,22.74,47.73l3.12-1.22-3.12-22.16c1.14,3,2.68,5.87,3.35,8.94C1060.38,1383.8,1065.72,1408.81,1071.11,1433.8Zm-30.91,147c5.06-13.67.63-187.15-5.88-203.79-5,12-10.75,24.18-12.75,36.89-4,25.42-5.36,51.24-8.93,76.74-2.71,19.31-2.79,37.45,8.7,54.54,5.75,8.54,9.44,18.46,14.15,27.71C1036.75,1575.39,1038.33,1577.7,1040.2,1580.82Z"/><path class="cls-3" d="M1262.08,167.34c.74.48,1.72.8,2.17,1.47,6.39,9.68,12.71,19.41,19,29.13a11.07,11.07,0,0,0-.2,1.71l-9.07-7c.2,3.37.3,5.19.4,7-2.59-2.42-5.71-4.48-7.67-7.34-5.61-8.18-13.19-13.09-22.32-16.85-58.22-24-116.41-48-174.29-72.77-11.71-5-21.53-7.06-31.5,2.45-2.52,2.4-6.17,3.58-9,5.72-5,3.78-9.23,2.62-13.59-1.11-11.73-10-23.77-19.69-35.28-29.95-6.2-5.51-11.41-7-18.67-1.43-21.37,16.42-44.84,28.85-71,36.17-8.23,2.3-16.6,5.38-23.79,9.88q-48,30-95.19,61.17c-17.86,11.78-35,24.46-56.8,28.56-12.22,2.3-24,6.77-36.09,9.86-6.32,1.62-8.16,4.79-6.27,11,3.36,11.09,6,22.4,9.51,33.43,2.2,6.87,1.17,12.52-2.87,18.42-12.25,17.9-24.16,36-36.17,54.1-1.69,2.56-3.16,5.27-4.74,7.9l1.59,1.92,41.35-20.51c.36,3.24-.33,4.77-1.37,6-12.74,15.26-25.42,30.57-38.39,45.64-5.08,5.91-6.22,10.51,2,14.44,7,3.38,6.9,9.7,6.06,16.14-1.15,8.83-2.3,17.65-3.53,26.47-1.66,11.84-3.4,23.66-5.1,35.5-2.6-2.79-3.44-5.56-4.24-8.34C626.94,431,627,431,596.59,410.66c-3.75-2.52-7.62-4.86-13.74-8.75,1.39,6.42,2,10.11,3,13.68,2.1,7.43,4.55,14.77,6.62,22.21,2.48,8.94.83,10.66-8.48,9.21-7-1.11-14.16-1.95-21.08-3.58-7.16-1.7-9.24,1.4-8.95,7.8.59,13,1.12,26.07,1.68,39.1-2.68-1.2-5.55-2.11-8-3.65-16.11-10-32.05-20.31-48.29-30.11-2.61-1.58-6.45-1.11-9.73-1.59q-1.72-3.68-3.46-7.37c0-23.17,1.4-46.45-.35-69.49-1.72-22.66-6.6-45.08-10.1-67.61l2.77-1.07c8.11,9.22,16.85,18,24.12,27.81,5.22,7.05,9.77,6.9,16.43,2.9,14.5-8.71,29.3-16.93,43.86-25.56a23.86,23.86,0,0,0,7.19-6.4c35.89-50.62,71.52-101.42,107.62-151.9a34.35,34.35,0,0,1,14.82-11.71q54.59-20.52,109.7-39.64c15.92-5.5,32.17-10.85,48.72-13.57C876,87.24,900.62,83.32,921,66.19A86.21,86.21,0,0,1,939.6,54.11c4-1.88,10-3,13.77-1.33a115.76,115.76,0,0,0,55.45,9.73c10.94-.76,22-.37,33,0a62.29,62.29,0,0,1,15.74,2.28c24.18,7.22,48.32,14.61,72.34,22.37,9,2.89,18.18,5.91,26.19,10.69,24.73,14.75,48.73,30.72,73.43,45.52,10.72,6.42,19.72,13.89,25.91,24.86,2.7,4.79,6.63,8.87,10,13.27l1.06-.89Z"/><path class="cls-4" d="M393,900.29l5.63-3.47c7.5-1.6,5.32-7.45,5.4-12.31q1.59,4.83,3.19,9.66l2.13.06V882.6l-7.1.26-3.4-2.1c-7.62-9.74-3.57-17.37,3.42-25.66,12.4-14.73,23.88-30.25,35.75-45.43,3.13-4.89,6.93-9.48,9.21-14.74s3.06-11.45,4.69-17.15c14.4-50.31,25.76-101.13,29.12-153.58,2.19-34.29,2.74-34.26,27.44-59,3.36-3.36,6.65-6.8,10.11-10,1.57-1.46,3.47-2.56,7.27-5.3-1.11,23.24-1.92,44.18-3.16,65.11-1.05,17.77-3.66,35.71,6,52.12,10.45,17.65,12.29,36.83,10.93,56.7a39.49,39.49,0,0,0,0,7.13c4.62,40-3.63,77-25.82,110.9a25.3,25.3,0,0,0-4.19,11.57c-1.58,22.47-3.66,45-3.64,67.47,0,26.35,2,52.71,3.13,79.07.19,4.56,0,9.15,0,13.72l-2.63.6-37.05-75.64c-17.77,8.27-18.79,10.31-13.25,26.43,9.93,28.93,19.79,57.89,30.36,86.59,1.41,3.82,6.37,7.81,10.43,8.87,10.88,2.84,22.22,3.85,33.24,6.18,4.18.89,8.9,2.52,11.82,5.38a159,159,0,0,1,18.51,21.56,32.75,32.75,0,0,1,5.57,15.15c1.65,17.39,2.52,34.87,3.46,52.32.34,6.24.06,12.5.06,21-3.34-3.12-4.79-4.15-5.83-5.5-29.7-38.54-60.19-76.5-88.79-115.84-28.4-39-57.78-77.86-70.22-126-.87-3.39-4.08-6.17-6.21-9.24l-1.89-5.27,9.5-21.36ZM434.29,899c2.65,33.65-1.52,68.77,21.74,98Q445.16,948,434.29,899Z"/><path class="cls-5" d="M1262.08,167.34l4.38,13.24-1.06.89c-3.38-4.4-7.31-8.48-10-13.27-6.19-11-15.19-18.44-25.91-24.86-24.7-14.8-48.7-30.77-73.43-45.52-8-4.78-17.22-7.8-26.19-10.69-24-7.76-48.16-15.15-72.34-22.37a62.29,62.29,0,0,0-15.74-2.28c-11-.34-22-.73-33,0a115.76,115.76,0,0,1-55.45-9.73c-3.76-1.64-9.76-.55-13.77,1.33A86.21,86.21,0,0,0,921,66.19c-20.33,17.13-45,21-70.05,25.18-16.55,2.72-32.8,8.07-48.72,13.57Q747.06,124,692.48,144.58a34.35,34.35,0,0,0-14.82,11.71c-36.1,50.48-71.73,101.28-107.62,151.9a23.86,23.86,0,0,1-7.19,6.4c-14.56,8.63-29.36,16.85-43.86,25.56-6.66,4-11.21,4.15-16.43-2.9-7.27-9.84-16-18.59-24.12-27.81l-2.77,1.07c3.5,22.53,8.38,44.95,10.1,67.61,1.75,23,.36,46.32.35,69.49l-1.77-1.82c-6.72-15.85-13.72-31.59-20.07-47.58-3.91-9.84-8.91-19.91-9.71-30.17-1.23-15.56.56-31.39,1.55-47.07a18.85,18.85,0,0,1,4-9.66c22.59-29.07,45.19-58.14,68.36-86.74,3.33-4.12,9.4-7.22,14.7-8.3a376.65,376.65,0,0,1,42.28-6.12c14.31-1.25,25.7-6.23,35.44-17.38,17.17-19.66,35.24-38.56,53.53-57.19,16.43-16.73,33.78-32.55,50.52-49,15.79-15.5,15.77-15.73,33.38-2.42,5.19,3.92,9.88,5.71,16.29,2.6,21.9-10.65,43.89-21.14,66-31.23,13.17-6,26.29-13.77,40.21-16.11,30.95-5.2,62.47-7,93.6-11.23,12.86-1.77,24.68.38,36.78,3.55,25,6.56,50,13.09,75.14,19.2,18.3,4.46,36.77,8.24,55.16,12.32l1.13-2.17c-4.15-3-8.14-6.36-12.48-9.11-6.33-4-12.77-7.91-19.44-11.31a82.57,82.57,0,0,0-16.5-6.68c-8.77-2.3-17.78-3.66-26.69-5.41,12.52,1.26,25,2.47,37.55,3.83a9.18,9.18,0,0,1,4.05,1.71q28.5,20.19,56.93,40.49l-18.35-8.28-.75.85,86.94,73.1c.83-.87,1.65-1.75,2.48-2.63l-27.91-27.57c6.85,4.83,14.94,8.57,20.29,14.7C1240.61,138.34,1251.07,153.09,1262.08,167.34Z"/><path class="cls-6" d="M1067.55,28.6c8.91,1.75,17.92,3.11,26.69,5.41a82.57,82.57,0,0,1,16.5,6.68c6.67,3.4,13.11,7.3,19.44,11.31,4.34,2.75,8.33,6.06,12.48,9.11l-1.13,2.17c-18.39-4.08-36.86-7.86-55.16-12.32-25.12-6.11-50.14-12.64-75.14-19.2-12.1-3.17-23.92-5.32-36.78-3.55-31.13,4.27-62.65,6-93.6,11.23-13.92,2.34-27,10.11-40.21,16.11-22.16,10.09-44.15,20.58-66,31.23-6.41,3.11-11.1,1.32-16.29-2.6-17.61-13.31-17.59-13.08-33.38,2.42-16.74,16.43-34.09,32.25-50.52,49-18.29,18.63-36.36,37.53-53.53,57.19-9.74,11.15-21.13,16.13-35.44,17.38a376.65,376.65,0,0,0-42.28,6.12c-5.3,1.08-11.37,4.18-14.7,8.3-23.17,28.6-45.77,57.67-68.36,86.74a18.85,18.85,0,0,0-4,9.66c-1,15.68-2.78,31.51-1.55,47.07.8,10.26,5.8,20.33,9.71,30.17,6.35,16,13.35,31.73,20.07,47.58-9.73-7.6-19.52-15.15-29.2-22.83-7-5.55-8.76-5.28-11.91,2.76-3.65,9.32-7,18.75-10.55,28.12-2.67,7.09-1.34,11.62,7.27,11.63L395.48,481.3c0-2.23,0-4.47.07-6.7,2.7-8.36,3.88-17.72,8.53-24.79s7-13.93,7.05-22.19c.09-12.55-2.37-25.53,5.6-37,1.23-1.77,1.46-4.63,1.28-6.9-.74-8.93,2.14-16,8.72-22.24,2.42-2.3,2.81-6.75,4.13-10.22,1.17-3.59,1.87-7.42,3.59-10.73,11.15-21.5,22.51-42.88,33.81-64.3,1.85-.29,4.4.1,5.43-1,11.72-12.15,24.55-23.53,34.48-37,22.47-30.55,43.94-61.88,64.69-93.63,4-6.1,2.85-15.55,4.07-23.46,21.56-9.37,38-25.28,54.18-41.72,2.47-2.52,6.72-3.29,10.14-4.87L624.09,89.36l2.12,2.69c9-1.61,17.9-3.45,26.9-4.8C680.89,83.09,707.24,76,731.59,60.6c23.92-15.15,48.08-30.71,77.2-35.41,14.62-2.36,28.89-6.87,43.38-10.11C867.5,11.65,882.9,6,898.29,5.91c25.1-.07,50.19,3.82,75.31,5.66,10.49.76,21,.54,31.58.76Z"/><path class="cls-7" d="M404,884.51c-.08,4.86,2.1,10.71-5.4,12.31,4.31-4.73,3.85-9.29-1.26-12.8-12.81-8.81-16.51-24.1-25.64-35.51-1.32-1.65-1.14-4.5-1.65-6.79l3.75,6.85,3.5-2.6-10.55-31.53-1.63.39q.69,6.4,1.39,12.8c-1.15-2.63-3.41-5.31-3.28-7.87,1-19.83-9.51-36.11-15.84-53.7-4.77-13.22-8.85-26.69-13.24-40l6.47,5.53c-3.62-16.7-6.9-32-10.26-47.34s-6.77-30.46-10.59-47.66c-1.45,5.76-2.3,9.16-3.15,12.55q-1.77-13.35-3.53-26.71a12.55,12.55,0,0,1,1.61.26l2.65,4.56c9-31.24,17.67-61.62,26.39-92l3.33.43v85.9l2.66.55c6.52-10.16,15.48-19.54,19-30.65,7.37-23.09,11.87-47.09,17.55-70.72l6.85-21.78,5.37,16.45a221,221,0,0,0,20.25,68.77c5.6,11.45,11.92,22.91,15.1,35.1,6.05,23.18,9.27,47.09,15.17,70.31s4.59,45.55-1.46,68.42c-4.31,16.29-6.52,33.14-9.66,49.74-17.39,14.26-34.92,28.37-52,43-2.16,1.85-3.73,7.59-2.48,9.64,4.39,7.24,10.13,13.66,15.36,20.4l3.4,2.1Zm-9.16-77.12,2.16.35c4.72-25.26,9.67-50.48,13.94-75.82.78-4.6-1.26-9.68-2-14.53l-2.52.37Q400.67,762.57,394.88,807.39Z"/><path class="cls-8" d="M1263.77,959.49c-8.39,15.22-18.36,29.83-24.61,45.88-4,10.29-4.85,21.54-13.76,29.65-1.81,1.65-1.74,5.37-2.54,8.14-6.2-2.49-9.31,1.43-12.2,5.87-13.56,20.85-26.93,41.84-40.76,62.51-11.19,16.71-22.94,33-34.44,49.55.84-2.19,1.36-4.59,2.57-6.56,20.83-33.86,42-67.5,62.55-101.53,17-28.15,35.4-55.68,43.56-88.22,8.27-21.55,16.71-43,24.67-64.69,2-5.43,2.81-11.37,3.53-17.16s0-11.7,1.07-17.34-.43-7.94-6.05-7.65c-1.07-6.08-2.3-12.13-3.17-18.24-.77-5.45-3.56-6.84-8.61-5.32-8.46,2.53-16.91,5.13-25.5,7.12-3.49.81-7.33.1-11,.08l-10.75-3.64q.11-.74.24-1.47l10.5-.21,3.71-1.66c1.94.45,4.48,1.91,5.72,1.18,8.32-4.95,16.36-10.36,24.49-15.62l35.35-15.57v47.52l2.19.13c3-11.09,6.12-22.15,9-33.27,5.41-20.93,10.68-41.9,16-62.85,2.6-9,10-12.71,17.64-16.28-11.93,35.68-24,71.32-35.72,107-5.1,15.48-9.77,31.1-14.25,46.77-.69,2.39.71,5.38,1.14,8.1l4.21-1.59,21.18-26.68-5,16.38-19.35,24.56c-9.38-1.13-16.08,2.85-17.81,11.94C1265.49,937.25,1265,948.44,1263.77,959.49Z"/><path class="cls-9" d="M917.86,1658.33l-12.77-.09-5.21-5a30.6,30.6,0,0,0-3.34-4.13c-13.94-12.38-28.15-24.47-41.78-37.17-3.14-2.93-6.07-7.82-6.24-11.93-1.14-27.22-1.52-54.47-2.06-81.72,0-2.37.56-4.75,1.13-9.3,18.7,22.51,36.12,43,52.84,64,3,3.83,3.6,9.86,4.64,15,4.43,21.78,8.6,43.61,12.86,65.43C917.91,1655.05,917.89,1656.69,917.86,1658.33Z"/><path class="cls-10" d="M1333.15,739.84c-7.6,3.57-15,7.3-17.64,16.28-4.16,8.45-6.43,19-12.89,24.93-13.58,12.56-29.37,22.74-44.26,33.9,15.13-16.61,30.53-33,45.22-50a43.17,43.17,0,0,0,9.25-17.39c5.79-24.18,10.5-48.62,15.85-72.91,4.18-18.94,4.16-18.7-14.73-22.09-16.83-3-33.5-7-50.24-10.59,2.08,0,4.3-.38,6.21.2,22.94,7,45.06.75,67.48-3.42,15-2.79,30.41-3.76,45.64-5.55.8,1.23,1.6,2.45,2.39,3.68,1.16,9.05,2.83,18.07,3.33,27.15.58,10.36.11,20.77.1,31.16l-5.53,9.09-27-23.94c-2.85,8.27-4.93,14.34-7,20.41Z"/><path class="cls-11" d="M1005.18,12.33c-10.53-.22-21.09,0-31.58-.76-25.12-1.84-50.21-5.73-75.31-5.66-15.39,0-30.79,5.74-46.12,9.17-14.49,3.24-28.76,7.75-43.38,10.11-29.12,4.7-53.28,20.26-77.2,35.41C707.24,76,680.89,83.09,653.11,87.25c-9,1.35-17.94,3.19-26.9,4.8l-2.12-2.69,17.16-14.83c14.93-7,29.61-14.6,44.84-20.87,24.91-10.25,50.92-18.09,75-29.9,17.44-8.54,34.79-10.92,53.55-12.11,22.43-1.42,44.68-5.76,67-9,25.16-3.63,50-4.39,74.89,3.07,8,2.39,17.14.51,25.63,1.57C989.93,8.29,997.52,10.61,1005.18,12.33Z"/><path class="cls-1" d="M917.86,1658.33c0-1.64,0-3.28.07-4.92,2-.45,4-1,6-1.31,5.7-.85,14.49.26,16.37-2.84,2.44-4-.6-11.41-1.28-17.34,1.72-3,2.75-6.93,5.31-8.67,7.23-5,9.86-11.33,9.11-19.79-1.34-15.34-3.15-30.69-3.43-46.06-.44-23.79-4-46.8-16.53-67.26-6.22-10.15-13.66-20.22-26.63-23.28-4.52-1.07-9.47-1.35-13.46-3.44-7.38-3.86-14.32-3.59-22.2-1.71-9.29,2.22-19,2.7-28.49,3.94,12.32-7,24.53-14.17,37.06-20.75,2.69-1.41,7.56-2,9.71-.53,17.43,12.08,34.44,24.74,51.59,37.23,8.26,16.76,15.66,34,25,50.17,11.52,19.88,11.81,40.84,10.09,62.6-1.38,17.39-1.9,34.85-2.8,52.27-10.61,8.2-23,11-36,11.74C930.86,1658.75,924.35,1658.37,917.86,1658.33Z"/><path class="cls-12" d="M386.35,520.71c-5.68,23.63-10.18,47.63-17.55,70.72-3.55,11.11-12.51,20.49-19,30.65l-2.66-.55v-85.9l-3.33-.43c-8.72,30.38-17.43,60.76-26.39,92l-2.65-4.56.36-.57c1-4,2.76-7.87,3-11.88,1.53-22.58,2.79-45.17,3.93-67.76.14-2.82-.91-5.71-1.41-8.56l-.63-1c3.53-16.07,13.61-26.28,28.68-32l7.43-1.29c-2.21,1.23-4.35,2.59-6.63,3.66-10.65,5-17.55,13.68-24.42,22.41l1.17,2.06L339.89,526Z"/><path class="cls-13" d="M1400.94,488.72c.55,4.34,1.53,8.67,1.57,13,.19,16.83.15,33.66,0,50.48,0,3.17-1,6.33-1.49,9.49l-.9-15.7-1.77,0-1,3q-13.1,30.09-26.2,60.17l-2-.51V552.9a74.16,74.16,0,0,0,1.6-7.73c1.73-16.76,3.79-33.49,4.85-50.29.93-14.69,2.55-29.7.57-44.12-3.8-27.83-9.95-55.34-15.06-83-1-5.52-1.74-11.09-2.6-16.64l2.17-.44q4.55,15.29,9.1,30.58l1.8-.23c.34-2.2.69-4.4,1-6.6q5.34,16.06,10.69,32.13l-7.65-13.13-3,1.16,10.56,35.05c3.69,6.31,7.48,12.57,11,19a67.36,67.36,0,0,1,3.21,7.95l-9.64-9.27c6.4,27.93.88,55,13.24,79.51Z"/><path class="cls-11" d="M576.93,121.12c-1.22,7.91-.08,17.36-4.07,23.46-20.75,31.75-42.22,63.08-64.69,93.63-9.93,13.51-22.76,24.89-34.48,37-1,1.07-3.58.68-5.43,1a76.38,76.38,0,0,1,2.65-7.44C481.17,247.15,491,225.29,502,204a173.33,173.33,0,0,1,43.65-54.28C556.48,140.72,566.52,130.7,576.93,121.12Z"/><path class="cls-14" d="M1372.53,374.43c-.34,2.2-.69,4.4-1,6.6l-1.8.23q-4.54-15.3-9.1-30.58l-2.17.44c.86,5.55,1.58,11.12,2.6,16.64,5.11,27.66,11.26,55.17,15.06,83,2,14.42.36,29.43-.57,44.12-1.06,16.8-3.12,33.53-4.85,50.29a74.16,74.16,0,0,1-1.6,7.73c-1.86-43.21-3.57-86.43-5.66-129.63-.52-10.91-1.19-22-3.59-32.6-4.19-18.5-9.81-36.68-14.75-55-4.44-16.5-8.78-33-13.55-51l5.3,2.45,8.91,10.69q6.19,8.08,12.4,16.15,1.83,11.54,3.68,23.07c.84,1.85,1.67,3.69,2.51,5.53l1.27-.41v-9c1.24,3.55,3.09,7,3.6,10.65C1370.6,354,1371.46,364.22,1372.53,374.43Z"/><path class="cls-15" d="M580.73,1526.44c-2.92-11.11-5.31-22.4-8.88-33.3-7.12-21.69-14.9-43.17-22.35-64.76-.56-1.62-.69-3.39-1.38-7,4,1.49,6.93,2.27,9.56,3.63,9.21,4.76,18.54,9.38,27.36,14.8,2.82,1.73,5.92,5.75,6,8.77.44,25.5.24,51,.12,76.53,0,1.68-1,3.35-1.58,5Z"/><path class="cls-16" d="M899.88,1653.19l5.21,5-37.41,3.52-26.79-8.39-12.44-23.23c5.26-4.33,5.08-8.94,1.91-14.75-4.65-8.53-8.4-17.55-12.53-26.35l8.79,7.81c-5.83-15.89-10.89-29.68-16-43.48q-2.61-9-5.23-18c10.06,8.57,17.49,18.45,21.8,31.51,8.65,26.18,19.13,51.75,28.45,77.72,2.69,7.49,6.62,11.27,15,10.4C880.35,1654,890.13,1653.77,899.88,1653.19Z"/><path class="cls-17" d="M973.37,1646.64c.9-17.42,1.42-34.88,2.8-52.27,1.72-21.76,1.43-42.72-10.09-62.6-9.35-16.14-16.75-33.41-25-50.17,14.7,10.35,29.61,20.45,43.93,31.31,2.58,1.95,4,7.09,3.86,10.68-.39,10-1.87,19.87-2.92,29.81q-2.13,5.43-4.25,10.85c-1,1-2.92,1.89-3,2.88-.75,25.73-1.32,51.47-1.91,77.2Z"/><path class="cls-12" d="M1383.33,704.31l5.53-9.09q-1.11,16-2.23,32-1.77,26-3.52,52l-18.87,25.43-2.36-1q1-13,2-26.07l12.3-46.22Q1379.77,717.82,1383.33,704.31Z"/><path class="cls-18" d="M452.61,1417.65l6-24.6,2.58-.52L498.69,1485c-1.68-1.14-3.94-1.91-5-3.48C479.92,1460.27,466.29,1438.94,452.61,1417.65Z"/><path class="cls-19" d="M393,900.29l13.28-1.35-9.5,21.36-5-7.61-1.92.36v28.23l-10.33-6.76v74.65c-1.31-10.45-3.57-20.89-3.71-31.36-.24-17.42,1-34.85,1.32-52.28.06-3.67-1.33-7.38-2.05-11.07,4.23-3.44,8.43-6.91,12.68-10.32C389.48,902.78,391.27,901.57,393,900.29Z"/><path class="cls-20" d="M1135.46,1161.09c11.5-16.5,23.25-32.84,34.44-49.55,13.83-20.67,27.2-41.66,40.76-62.51,2.89-4.44,6-8.36,12.2-5.87l10.5,7.23c-14.27,4.35-27.17,9.71-35.74,23.79-18,29.57-37.11,58.46-56.32,87.26-5.84,8.77-13.49,16.33-20.3,24.44Z"/><path class="cls-21" d="M1208.49,110.1l27.91,27.57c-.83.88-1.65,1.76-2.48,2.63L1147,67.2l.75-.85,18.35,8.28c4.27,2.44,9.1,4.25,12.69,7.44C1189,91.11,1198.62,100.72,1208.49,110.1Z"/><path class="cls-9" d="M316.66,649.09c.85-3.39,1.7-6.79,3.15-12.55,3.82,17.2,7.24,32.42,10.59,47.66s6.64,30.64,10.26,47.34L334.19,726c-3.17-8.51-7.46-16.8-9.27-25.59C321.42,683.46,319.33,666.22,316.66,649.09Z"/><path class="cls-22" d="M1263.77,959.49c1.2-11,1.72-22.24,3.8-33.12,1.73-9.09,8.43-13.07,17.8-11.93,9.27-6,16-14,19.36-24.57l5-16.37q11.7-15,23.38-30l15.71-7.17a59.59,59.59,0,0,1-4.43,5.41c-16.77,16.3-28.86,35.92-39.83,56.3-5,9.37-10.42,17.48-22.63,18.72-8.3.85-15.47,14.44-16.19,27.18C1265.42,949.16,1264.44,954.32,1263.77,959.49Z"/><path class="cls-23" d="M828.45,1630.14l12.44,23.23c1.65,3.73,1.28,6.76-2.91,8.49l-16.53-8.67c-.08-3.7.64-7.64-.4-11-2.59-8.45-6.49-16.53-8.79-25-.82-3,1.44-6.91,2.29-10.4Z"/><path class="cls-24" d="M1400.94,488.72V526.8c-12.36-24.54-6.84-51.58-13.24-79.51l9.64,9.27Z"/><path class="cls-25" d="M536,1448.22c4.62,12.34,9.92,24.49,13.65,37.1,2.53,8.54,2.86,17.74,4.17,26.65l-7.06-3.19c-4.16-21.14-6.78-42.68-16-62.53l3.66,1.76C535,1448.1,535.5,1448.17,536,1448.22Z"/><path class="cls-26" d="M1363.9,777.55q-1,13-2,26.07l2.36,1,18.87-25.43c-2.08,4.73-3.52,9.89-6.38,14.09-5.94,8.7-12.8,16.77-18.94,25.35-2.69,3.77-4.55,8.15-6.79,12.24-1.13-2.29-2.27-4.59-3.4-6.89,0-.64,0-1.29-.08-1.94,2.57-4.37,6-8.47,7.53-13.18C1358.49,798.6,1361,788,1363.9,777.55Z"/><path class="cls-27" d="M430.86,351.25c-1.32,3.47-1.71,7.92-4.13,10.22-6.58,6.24-9.46,13.31-8.72,22.24.18,2.27-.05,5.13-1.28,6.9-8,11.48-5.51,24.46-5.6,37-.06,8.26-2.33,15-7.05,22.19s-5.83,16.43-8.53,24.79l-.3-12.73c3.16-6.57,6.5-13.06,9.43-19.73,1.73-3.93,3.59-8.07,4-12.26.67-6.45.18-13,.18-19.55,0-2.08-.64-4.44.13-6.19C416.69,386.67,412.71,364.37,430.86,351.25Z"/><path class="cls-28" d="M976.83,1644.33c.59-25.73,1.16-51.47,1.91-77.2,0-1,1.92-1.92,3-2.88q.91,13.92,1.85,27.83c-1.13,10.71-2.94,21.42-3.08,32.14-.07,4.83,3.18,9.71,4.93,14.56Z"/><path class="cls-29" d="M1299.57,221c7,9.28,13.69,18.77,21,27.79,9.21,11.39,19,22.33,28.27,33.65,1.35,1.65,1.44,4.34,2.11,6.55l-1.77.22-1.73-2.1-21.29-25-3.61-3.56c-2.43-3.25-4.23-7.4-7.39-9.6-9.93-6.9-14.1-17.07-17.55-27.85Z"/><path class="cls-24" d="M1397.3,549l1-3,1.77,0,.9,15.7c-7,15.6-6.68,32.15-7.42,48.79-.39,8.92-5.3,17.63-8.17,26.43-.79-1.23-1.59-2.45-2.39-3.68,6.78-7.39,9.13-16.25,9.09-26.07-.05-14.75-1.19-29.54,4.7-43.82C1398.53,559.2,1397.22,553.82,1397.3,549Z"/><path class="cls-8" d="M1349.16,289.2l1.77-.22c1.28,3.54,1.53,8.29,4,10.42,10.74,9.24,11.74,21.06,10.65,33.76v9l-1.27.41c-.84-1.84-1.67-3.68-2.51-5.53.49-6.58,1.23-13.17,1.23-19.75,0-1.11-3.19-2.21-4.91-3.32q-6.21-8.07-12.4-16.15Q1347.44,293.5,1349.16,289.2Z"/><path class="cls-12" d="M314.74,622.64a12.55,12.55,0,0,0-1.61-.26c-.07-21.79-.78-43.6.11-65.35.34-8.15,4.41-16.14,6.78-24.21l.63,1c-1.89,9.54-5,19-5.41,28.62-.81,19.83-.18,39.73-.14,59.59Z"/><path class="cls-30" d="M838,1661.86c4.19-1.73,4.56-4.76,2.91-8.49l26.79,8.39Z"/><path class="cls-14" d="M1383.13,429.64l-10.56-35.05,3-1.16,7.65,13.13Z"/><path class="cls-31" d="M395.25,461.87l.3,12.73c0,2.23,0,4.47-.07,6.7,1.06,9.18-3.45,12.16-12,11a60.53,60.53,0,0,0-8,0l-19.39,7.22-7.43,1.29c9.14-8.34,19.65-11.64,32.18-10.64,12.24,1,12.27.15,12.66-11.83C393.73,472.83,394.66,467.35,395.25,461.87Z"/><path class="cls-32" d="M366.55,827.63l-1.39-12.8,1.63-.39L377.34,846l-3.5,2.6-3.75-6.85Z"/><path class="cls-24" d="M1347.6,824c1.13,2.3,2.27,4.6,3.4,6.89l-2.2,5.46-15.71,7.17Q1340.35,833.77,1347.6,824Z"/><path class="cls-33" d="M1299.57,221l-2,.11-14.49-21.45a11.07,11.07,0,0,1,.2-1.71Z"/><path class="cls-34" d="M536,1448.22c-.53,0-1-.12-1.56-.21q-28.83-76.56-57.68-153.1c-6.82-18-14.1-35.8-21.17-53.69.64-2.15,2.36-4.67,1.76-6.39-10.9-31.06-21.94-62.09-33.37-93-1.56-4.22-5.34-7.62-8.09-11.4l-2.36,1.51c7.3,18.06,14.81,36,21.81,54.21,4.76,12.37,8.79,25,13.15,37.55a15.73,15.73,0,0,1-2-2.89q-18.21-44.17-36.3-88.4c-3.89-9.51-7.6-19.09-11.39-28.63-4.32-16.81-9.16-33.5-12.78-50.45-2.38-11.12-3-22.62-4.47-33.94-.46-3.45-1.34-6.84-2-10.26V934.52l10.33,6.76V913.05l1.92-.36,5,7.61,1.89,5.27c16.24,47.29,30.51,95.49,62.48,135.53,1.36,2.62,2.62,5.29,4.1,7.84,20.06,34.44,43.2,66.72,68.33,97.62,14,17.25,26.26,36.28,42,51.78,24.87,24.52,52,46.75,78.17,70,7.45,6.61,15.47,11.27,25.92,12.32,14.44,1.45,28.7,4.6,43.09,6.62,7.2,1,12.56,4,16.87,10,7.72,10.88,16.81,20.84,24,32,11.13,17.22,24.71,30.2,45,36.5,18.93,5.88,37.11,14.12,55.62,21.33-14.67,3.62-29.28,7.58-44.07,10.6-3.47.71-8.32-.75-11.29-2.92q-101-73.74-201.68-147.91c-6.7-4.91-13.49-9.7-20.12-14.71-4.11-3.11-7.19-3.76-9.48,2-9.92,25.12-21.41,49.74-29.41,75.44-4.18,13.45-2.37,28.78-3.18,43.26-.19,3.38,0,6.77,0,10.16l-2.68.73-29.93-41.13-2.5.5c0,5.28-.07,10.56,0,15.84.25,18.85,8.52,35.54,14.26,52.92C528.17,1424,532.08,1436.12,536,1448.22Z"/><path class="cls-35" d="M455.62,1241.22c7.07,17.89,14.35,35.7,21.17,53.69q29,76.48,57.68,153.1l-3.66-1.76c-31.91-81.13-60-163.75-96.24-243.21-13.24-29-23-59.69-34.18-89.67-1.11-3-1.07-6.36-1.56-9.55,3.79,9.54,7.5,19.12,11.39,28.63q18.07,44.22,36.3,88.4a15.73,15.73,0,0,0,2,2.89Z"/><path class="cls-29" d="M864.28,1407.12c-18.51-7.21-36.69-15.45-55.62-21.33-20.29-6.3-33.87-19.28-45-36.5-7.23-11.19-16.32-21.15-24-32-4.31-6.06-9.67-9-16.87-10-14.39-2-28.65-5.17-43.09-6.62-10.45-1-18.47-5.71-25.92-12.32-26.17-23.2-53.3-45.43-78.17-70-15.72-15.5-27.94-34.53-42-51.78-25.13-30.9-48.27-63.18-68.33-97.62-1.48-2.55-2.74-5.22-4.1-7.84,1.78,1.55,3.85,2.87,5.32,4.67q57.69,70.59,115.28,141.26c5.2,6.37,10.58,12.59,15.88,18.88l2.2-1.35c-.74-3.38-1.46-6.77-2.21-10.14-9.56-42.78-24.39-84.41-26.93-128.72-1.44-25.12-5.28-50.16-5.75-75.28-.65-34.68.76-69.41,1.48-104.11,1.1-53.07,3.05-106.14,3.23-159.22a248.51,248.51,0,0,1,9.11-67.58c4.19-14.84,7.35-30,10.89-45,2.18-9.23,1.25-10.54-8.37-10.29-8.88.24-17.75,1.6-26.59,1.34-2.65-.08-7.19-3.72-7.47-6.12q-4.35-37.51-7.3-75.18c-.29-3.61,2.13-7.43,3.3-11.14L586,554.6,615.54,571l27.84,15.49-16.84-5.92c.12,2.74.27,4.18.25,5.62-.64,32.56,2.84,65.19-3.76,97.63-5.27,25.89-6.38,20.7,17.05,29.87,11,4.31,12.06,3.4,11.89-8.83-.44-33.51-1.08-67-1.64-100.53.63,3.1,1.75,6.18,1.8,9.29q.5,27.46.54,54.94c0,13.37,2.79,25.75,11.57,36.3,3.21,3.85,6.18,7.89,9.27,11.84-2.72,7.41,2,11.14,7.26,14.55l5,8.9,16.5,26.47C690.18,761,678,755.53,666,749.64c-6.14-3-8.49-.66-10.12,5.09-4.38,15.43-9.69,30.62-13.39,46.21-1.85,7.82-2.52,16.57-1.08,24.42,6.85,37.39,14.75,74.58,21.87,111.93a34.24,34.24,0,0,1-.72,16.51c-5.73,17.18-12.88,33.88-18.59,51.06-4.53,13.66-10,27.6-11,41.7-1.49,20.61,1.06,41.48,1,62.24a31.24,31.24,0,0,0,7.58,21.07c39.36,47.92,78.53,96,118,143.86a22.13,22.13,0,0,0,10.17,6.5c13,4,26.27,7.53,39.5,10.91,27.54,7,55.59,2.4,83.41,3.11,2.56.07,6.1-3.41,7.69-6.11q18.09-30.71,35.46-61.82c3.79-6.81,6.94-7,11.64-1.07,10.66,13.52,21.63,26.79,32.23,40.36,1.59,2,1.89,5.08,2.79,7.66,4.88-4.85,6.26-6.42,7.07-8.25,12.42-27.94,25-55.83,37-83.94,2.91-6.8,6.86-10.39,14.26-11.35,11.47-1.49,22.79-5,34.26-5.51,21.09-.84,34.14-11.7,45.77-28.43,22.32-32.09,49.86-60.58,65.8-97,12.92-29.53,36.56-50.73,57.55-74-8.17,32.54-26.59,60.07-43.57,88.22-20.54,34-41.72,67.67-62.55,101.53-1.21,2-1.73,4.37-2.57,6.56L1121,1185.88c-6.11,9.22-11.83,18.75-18.52,27.54-2.73,3.58-7.56,5.56-11.43,8.27-19.71,7.86-39.92,14.49-57.49,27.08-8.34,6-17.73,10.52-26.64,15.71-14.33,8.94-29.29,17-42.82,27.08-13.06,9.68-27.49,11.59-42.71,12.14-23.33,1.26-46.67,2.39-70,3.88-5.85.38-13.09.07-17.15,3.28-12.67,10-24.13,21.61-36,32.64-.18.17.28,1,.71,2.46,2.69-.39,5.54-.67,8.33-1.22,19.19-3.78,38.46-7.25,57.53-11.58,9.2-2.09,17.21-3.64,20.77,7.92l5.43,10.67c4.28,11.08,8.57,22.15,13.31,34.39l58.09-62.81,17.79-10.78c-1.93,3.26-3.85,6.52-6.2,10.51l8.36,3.51c-.68,1.49-1,3.26-2.08,4.39-16.92,18.27-33.66,36.72-51.11,54.47-4.29,4.36-10.63,7.5-16.59,9.27C896.64,1399.4,880.4,1403.05,864.28,1407.12ZM610.72,1132.77c-.73,3.35-1.47,5-1.4,6.65.6,12.73,1.25,25.47,2.15,38.19a16.87,16.87,0,0,0,2.38,6.65c14.5,25.91,28.83,51.93,43.89,77.51a28.15,28.15,0,0,0,13.06,10.89c23.73,9.44,47.79,18.06,71.73,26.95,4.57,1.7,9.19,3.28,16.27,5.81ZM600.66,1070c.44-1.56,1.29-3.18,1.29-4.8.08-32.63.14-65.27-.1-97.9,0-2.81-2.17-5.6-3.33-8.4-2.79,2.69-3.4,4.59-3.66,6.54-3.72,27.59-7.32,55.21-11.1,82.8C581.69,1063.24,584.63,1067.3,600.66,1070Z"/><path class="cls-4" d="M921.39,1303.7c15.22-.55,29.65-2.46,42.71-12.14,13.53-10,28.49-18.14,42.82-27.08l57.09-7.22c-1.73,28.07-4.45,56.13-4.79,84.22-.19,15.83,3.47,31.72,5.57,47.55,2,14.94,4.21,29.85,6.32,44.77-5.39-25-10.73-50-16.23-75-.67-3.07-2.21-6-3.35-8.94-3.74-14.79-7.49-29.58-11.38-44.93l-17.17,4.13-14.43-7.3-11.21,9.7c-6.16-4.73-12.28-8.46-17.14,1.06l-17.79,10.78c-20.7,3-38.22,13.93-56.61,22.74-4.75,2.27-9.85,3.8-14.79,5.68l-5.43-10.67c-1.92-10.68,2.8-20.81,12.17-25.65C905.57,1311.4,913.51,1307.6,921.39,1303.7Z"/><path class="cls-14" d="M1064,1257.26l-57.09,7.22c8.91-5.19,18.3-9.73,26.64-15.71,17.57-12.59,37.78-19.22,57.49-27.08Z"/><path class="cls-36" d="M899.88,1653.19c-9.75.58-19.53.83-29.24,1.84-8.34.87-12.27-2.91-15-10.4-9.32-26-19.8-51.54-28.45-77.72-4.31-13.06-11.74-22.94-21.8-31.5q-.06-8.82-.1-17.63c1.28-4.4,1.88-9.17,4-13.14,4-7.48,9-14.41,13.13-21.79.95-1.68.29-4.28.36-6.45L841.07,1466c3.95,7.71-6,6.88-7.46,12.47,4.4,4,9.09,8.33,13.84,12.58,20.92,18.73,42,37.3,62.68,56.26a28.9,28.9,0,0,1,8,12.17c7.3,24.06,14,48.31,20.86,72.49.68,5.93,3.72,13.29,1.28,17.34-1.88,3.1-10.67,2-16.37,2.84-2,.31-4,.86-6,1.31-4.26-21.82-8.43-43.65-12.86-65.43-1-5.15-1.6-11.18-4.64-15-16.72-21-34.14-41.52-52.84-64-.57,4.55-1.17,6.93-1.13,9.3.54,27.25.92,54.5,2.06,81.72.17,4.11,3.1,9,6.24,11.93,13.63,12.7,27.84,24.79,41.78,37.17A30.6,30.6,0,0,1,899.88,1653.19Z"/><path class="cls-37" d="M939,1631.92c-6.89-24.18-13.56-48.43-20.86-72.49a28.9,28.9,0,0,0-8-12.17c-20.7-19-41.76-37.53-62.68-56.26-4.75-4.25-9.44-8.57-13.84-12.58,1.51-5.59,11.41-4.76,7.46-12.47a2.91,2.91,0,0,1,1.64-.3c9.51-1.24,19.2-1.72,28.49-3.94,7.88-1.88,14.82-2.15,22.2,1.71,4,2.09,8.94,2.37,13.46,3.44,13,3.06,20.41,13.13,26.63,23.28,12.54,20.46,16.09,43.47,16.53,67.26.28,15.37,2.09,30.72,3.43,46.06.75,8.46-1.88,14.84-9.11,19.79C941.78,1625,940.75,1629,939,1631.92Z"/><path class="cls-38" d="M1040.2,1580.82c-1.87-3.12-3.45-5.43-4.71-7.91-4.71-9.25-8.4-19.17-14.15-27.71-11.49-17.09-11.41-35.23-8.7-54.54,3.57-25.5,4.93-51.32,8.93-76.74,2-12.71,7.75-24.84,12.75-36.89C1040.83,1393.67,1045.26,1567.15,1040.2,1580.82Z"/><path class="cls-39" d="M822.81,1476.4c-.07,2.17.59,4.77-.36,6.45-4.17,7.38-9.17,14.31-13.13,21.79-2.11,4-2.71,8.74-4,13.14q-2.76,14.37-5.5,28.74c-4-15.07-8.29-30.07-11.63-45.29-.53-2.42,2.55-6.93,5.16-8.54C802.9,1486.82,813,1481.76,822.81,1476.4Z"/><path class="cls-40" d="M1023,1309.09l17.17-4.13c3.89,15.35,7.64,30.14,11.38,44.93l3.12,22.16-3.12,1.22c-7.61-15.9-15.35-31.73-22.74-47.73C1026.37,1320.28,1024.89,1314.58,1023,1309.09Z"/><path class="cls-41" d="M828.45,1630.14l-13.9-23.43q-3.88-15.06-7.78-30.11l5.7,3.5,5.36,8.94c4.13,8.8,7.88,17.82,12.53,26.35C833.53,1621.2,833.71,1625.81,828.45,1630.14Z"/><path class="cls-42" d="M812.47,1580.1l-5.7-3.5q-3.48-15-6.94-30.08,2.74-14.37,5.5-28.74,0,8.82.1,17.63,2.61,9,5.23,18c-1.09,2.44-3.4,5.09-3,7.3C808.67,1567.24,810.78,1573.63,812.47,1580.1Z"/><path class="cls-43" d="M983.54,1592.08q-.93-13.9-1.85-27.83,2.12-5.43,4.25-10.85Z"/><path class="cls-44" d="M555.63,490.33c-.56-13-1.09-26.06-1.68-39.1-.29-6.4,1.79-9.5,8.95-7.8,6.92,1.63,14,2.47,21.08,3.58,9.31,1.45,11-.27,8.48-9.21-2.07-7.44-4.52-14.78-6.62-22.21-1-3.57-1.6-7.26-3-13.68,6.12,3.89,10,6.23,13.74,8.75C627,431,626.94,431,637,466.16c.8,2.78,1.64,5.55,4.24,8.34,1.7-11.84,3.44-23.66,5.1-35.5,1.23-8.82,2.38-17.64,3.53-26.47.84-6.44,1-12.76-6.06-16.14-8.17-3.93-7-8.53-2-14.44,13-15.07,25.65-30.38,38.39-45.64,1-1.24,1.73-2.77,1.37-6L640.3,350.81l-1.59-1.92c1.58-2.63,3-5.34,4.74-7.9,12-18.07,23.92-36.2,36.17-54.1,4-5.9,5.07-11.55,2.87-18.42-3.51-11-6.15-22.34-9.51-33.43-1.89-6.23-.05-9.4,6.27-11,12.08-3.09,23.87-7.56,36.09-9.86,21.84-4.1,38.94-16.78,56.8-28.56q47.22-31.14,95.19-61.17c7.19-4.5,15.56-7.58,23.79-9.88,26.15-7.32,49.62-19.75,71-36.17,7.26-5.57,12.47-4.08,18.67,1.43,11.51,10.26,23.55,19.93,35.28,30,4.36,3.73,8.6,4.89,13.59,1.11,2.83-2.14,6.48-3.32,9-5.72,10-9.51,19.79-7.45,31.5-2.45,57.88,24.76,116.07,48.81,174.29,72.77,9.13,3.76,16.71,8.67,22.32,16.85,2,2.86,5.08,4.92,7.67,7.34,5,6.27,9.73,12.76,15,18.73,4.18,4.69,4.12,9.18,2.06,14.72-3.09,8.32-7.22,16.8-7.76,25.4-1.58,25.15-1.81,50.39-2,75.6,0,4.39,2,9.27,4.37,13.12,10.46,16.92,21.57,33.44,32,50.37a33,33,0,0,1,4.27,13.22c2.28,20,3.78,40.14,6.13,60.15,4.3,36.81,9.29,73.53,13.44,110.36,2.91,25.9,7.14,22.49-20.8,29.27-35.08,8.52-69.56,20.94-106.65,17.13-8-.82-16-2.26-23.92-1.68-44,3.23-88,7-132,10.57-11.85,3-23.09.63-34.4-3.2-3.05-1-7,.65-10.58,1.08l.51-4.88c39.8,0,79.39-1,118.44-10.6,25-6.14,25.64-5,35.16-28.5,3.18-7.88,7.29-8.46,14.24-6.95,20,4.37,40.1,8.44,60.2,12.37,3,.59,7.53,1.09,9.23-.56,10.3-10,20-20.6,30.79-32-13.17-9.24-24.75-17.44-36.41-25.51-11.45-7.92-11.76-8-6-20.69q13.8-30.41,28.33-60.48c5-10.27,6-19.85,3.41-31.55-4.6-20.78-12.46-38.52-29.29-52.19-3-2.46-4.55-9-4-13.22,1.43-10.85,4.91-21.42,6.55-32.26.57-3.78-.47-9.74-3.06-11.76-28.34-22-55.5-45.44-87.13-63.09-20.06-11.19-42.38-19.73-58-37.54-12.64-14.45-28.1-22.88-46-28.73-10.41-3.4-19.69-4.27-30.06-.07-22.51,9.14-45.89,13.5-70.44,11.78-14.19-1-28.52.21-42.76-.33-7.81-.29-12.56,2.57-16.68,9.1-8.24,13-17.2,25.65-26,38.3a35.44,35.44,0,0,1-7.28,7.69c-12.48,9.56-24.51,20-37.92,28C806,289,803.5,300.16,805.69,314c.28,1.76,1,3.54.91,5.25-.94,11.36.77,24-3.63,33.83-18.7,41.94-44.27,79.73-73.8,115C717.72,481.72,717,481.3,733,489c2.13,1,4.07,2.45,6.16,3.57,17.44,9.4,34,20.45,54.66,22.64,19.16,2,38.06,6.33,57.19,8.76,9.18,1.16,12.42,5.29,11.47,14-.83,7.65-1.08,15.37-1.87,23-.68,6.56,1.28,11.62,7.17,14.91-3.6-1.22-7.44-2-10.76-3.73-38.49-20.38-80.07-27.22-123-28.32-2-.63-3.88-1.69-5.86-1.81-11.83-.72-23.72-.72-35.48-2a203,203,0,0,1-31.3-5.48c-22.3-6-44.37-12.8-66.53-19.28l-26.69-12.59Z"/><path class="cls-37" d="M568.21,502.81,594.9,515.4c7.3,3.92,14.46,8.14,21.94,11.68,11,5.19,21.78,12.56,33.36,14.28,30.7,4.54,61.77,6.55,92.69,9.57,11.94,1.83,24.1,2.77,35.77,5.66,24.66,6.1,49.93,11.08,73.36,20.48,27.59,11,53.49,26.29,80.13,39.71l15.47,7.68c11,6.46,21.84,13.07,32.93,19.3,3.81,2.14,8.32,5.09,12.2,4.68,20.22-2.13,40.35-5.23,60.51-8,11.73-1.36,23.43-3,35.18-4,19.42-1.8,38.84-3.9,58.3-4.71,17-.71,34.21-1,51.12.65,22.05,2.14,43.91,6.34,65.85,9.65,16.74,3.57,33.41,7.56,50.24,10.59,18.89,3.39,18.91,3.15,14.73,22.09-5.35,24.29-10.06,48.73-15.85,72.91a43.17,43.17,0,0,1-9.25,17.39c-14.69,17-30.09,33.36-45.22,50l-5.38,5.21c-8.13,5.26-16.17,10.67-24.49,15.62-1.24.73-3.78-.73-5.72-1.18L1246,802.54c8.11-6.71,16.33-13.3,24.3-20.18,3.91-3.38,7.94-6.89,10.89-11.06,6.63-9.41.55-16.87-4.71-24.26,1.33-3.27,2.16-6.9,4.11-9.75,3.24-4.72,2.7-8.2-2-11.15-10-6.25-16.4-14.89-18.54-26.68-.84-4.64-2.85-9.06-3.87-13.68-1.72-7.81-5.24-13.71-13.91-14.92-2.73-1.07-5.37-2.48-8.2-3.14-28.2-6.58-56.49-12.83-84.65-19.61-20.15-4.84-39.55-3.59-58.42,5.09-.67,2.19-1.35,4.39-2,6.58-5.65,7.15-10.74,14.85-17.07,21.33-11.78,12.07-24.41,23.29-36.34,35.23-1.88,1.89-3.4,6.24-2.54,8.46,6.42,16.51,13.49,32.78,20.35,49.13q5.46,15.15,10.91,30.31c.46,3.54.91,7.08,1.37,10.62-1.95-2.19-3.86-4.42-5.87-6.55q-9.43-10.08-18.94-20.09c-1.7-3.07-3.6-6-5-9.21-3.17-6.94-6-14-9.18-21-1.19-2.62-2.84-4.74-3.77.24-2.94-11.94-5.56-24-8.93-35.79-2.31-8.11-5.65-15.92-8.53-23.86L987.1,674.86c-2.93,1.16-7.52,4.56-9.42,3.43-6.57-3.89-9.51.52-12.38,4.25-4.92,6.38-9.16,13.27-13.69,20-2.6-7.68-5-.82-6.38.47-13.42,12.47-26.58,25.21-39.87,37.83-3.72,3.53-7.51,7.31-12.93,2.55l7.2-33.74c4.68-4.77,12.78-9.22,13.27-14.4.82-8.58,5.66-13.88,9.59-20,9.53-14.93,9.72-14.81-4.9-25.06l-1.44-1c.58-3.76.48-7.81,1.89-11.24,3.17-7.74-.15-11.77-7-14-18.5-6-37.06-11.73-55.6-17.58-14-4-27.92-9-42.23-11.64-10.68-1.94-21.94-.74-32.95-.93l-24.56-1.9c-5,.15-12.63-1.62-14.36.83-4.86,6.83-11.61,7.79-18.33,9.82-6.65.89-13.29,1.81-19.94,2.66-5.77.73-9.09,3.54-8.54,9.77-8.38,5.26-8.71,13.28-8.84,22.2-.18,11.65-.66,23.68-3.84,34.74-1.83,6.37-4.33,11.71-1.5,18.1l-6.9,26.75.09,0c-3.09-3.95-6.06-8-9.27-11.84-8.78-10.55-11.55-22.93-11.57-36.3q-.06-27.46-.54-54.94c0-3.11-1.17-6.19-1.8-9.29q-2-8.49-4-17c-2.24-2.56-4-6-6.81-7.55-14.9-8.44-30.26-16.09-45.1-24.64-26.07-15-51.86-30.51-77.81-45.74a64,64,0,0,0-7.18-3.16c-16-12.57-32.12-24.88-47.78-37.82-7-5.77-13.65-7.7-21.65-2.95-8.62,0-10-4.54-7.28-11.63,3.53-9.37,6.9-18.8,10.55-28.12,3.15-8,4.91-8.31,11.91-2.76,9.68,7.68,19.47,15.23,29.2,22.83l1.77,1.82q1.74,3.69,3.46,7.37c1.33,8.41,6.36,13.21,14.05,16.71,11.83,5.37,23,12.06,34.73,17.75C548.16,494.22,558.25,498.38,568.21,502.81Z"/><path class="cls-8" d="M1263.71,642c-21.94-3.31-43.8-7.51-65.85-9.65-16.91-1.63-34.11-1.36-51.12-.65-19.46.81-38.88,2.91-58.3,4.71-11.75,1.09-23.45,2.68-35.18,4l5.37-3.83c44-3.58,88-7.34,132-10.57,7.89-.58,16,.86,23.92,1.68,37.09,3.81,71.57-8.61,106.65-17.13,27.94-6.78,23.71-3.37,20.8-29.27-4.15-36.83-9.14-73.55-13.44-110.36-2.35-20-3.85-40.13-6.13-60.15a33,33,0,0,0-4.27-13.22c-10.43-16.93-21.54-33.45-32-50.37-2.37-3.85-4.4-8.73-4.37-13.12.19-25.21.42-50.45,2-75.6.54-8.6,4.67-17.08,7.76-25.4,2.06-5.54,2.12-10-2.06-14.72-5.32-6-10.06-12.46-15-18.73-.1-1.83-.2-3.65-.4-7l9.07,7,14.49,21.45c3.45,10.78,7.62,21,17.55,27.85,3.16,2.2,5,6.35,7.39,9.6L1319,257l-1.11,1.16q9.47,14.5,19,29l-5.3-2.45c4.77,18,9.11,34.5,13.55,51,4.94,18.34,10.56,36.52,14.75,55,2.4,10.6,3.07,21.69,3.59,32.6,2.09,43.2,3.8,86.42,5.66,129.63v55.77l2,.51q13.1-30.07,26.2-60.17c-.08,4.81,1.23,10.19-.47,14.33-5.89,14.28-4.75,29.07-4.7,43.82,0,9.82-2.31,18.68-9.09,26.07-15.23,1.79-30.61,2.76-45.64,5.55-22.42,4.17-44.54,10.44-67.48,3.42C1268,641.62,1265.79,642,1263.71,642Z"/><path class="cls-45" d="M568.21,502.81c-10-4.43-20.05-8.59-29.85-13.37-11.68-5.69-22.9-12.38-34.73-17.75-7.69-3.5-12.72-8.3-14.05-16.71,3.28.48,7.12,0,9.73,1.59,16.24,9.8,32.18,20.1,48.29,30.11,2.48,1.54,5.35,2.45,8,3.65Z"/><path class="cls-12" d="M543.23,533.11c-1.17,3.71-3.59,7.53-3.3,11.14q3,37.63,7.3,75.18c.28,2.4,4.82,6,7.47,6.12,8.84.26,17.71-1.1,26.59-1.34,9.62-.25,10.55,1.06,8.37,10.29-3.54,15-6.7,30.17-10.89,45a248.51,248.51,0,0,0-9.11,67.58c-.18,53.08-2.13,106.15-3.23,159.22-.72,34.7-2.13,69.43-1.48,104.11.47,25.12,4.31,50.16,5.75,75.28,2.54,44.31,17.37,85.94,26.93,128.72.75,3.37,1.47,6.76,2.21,10.14l-2.2,1.35c-5.3-6.29-10.68-12.51-15.88-18.88q-57.66-70.62-115.28-141.26c-1.47-1.8-3.54-3.12-5.32-4.67-32-40-46.24-88.24-62.48-135.53,2.13,3.07,5.34,5.85,6.21,9.24,12.44,48.13,41.82,86.94,70.22,126,28.6,39.34,59.09,77.3,88.79,115.84,1,1.35,2.49,2.38,5.83,5.5,0-8.51.28-14.77-.06-21-.94-17.45-1.81-34.93-3.46-52.32a32.75,32.75,0,0,0-5.57-15.15,159,159,0,0,0-18.51-21.56c-2.92-2.86-7.64-4.49-11.82-5.38-11-2.33-22.36-3.34-33.24-6.18-4.06-1.06-9-5-10.43-8.87-10.57-28.7-20.43-57.66-30.36-86.59-5.54-16.12-4.52-18.16,13.25-26.43l37.05,75.64,2.63-.6c0-4.57.16-9.16,0-13.72-1.09-26.36-3.11-52.72-3.13-79.07,0-22.49,2.06-45,3.64-67.47a25.3,25.3,0,0,1,4.19-11.57C536.07,808,544.32,771,539.7,731a39.49,39.49,0,0,1,0-7.13c1.36-19.87-.48-39.05-10.93-56.7-9.71-16.41-7.1-34.35-6-52.12,1.24-20.93,2-41.87,3.16-65.11-3.8,2.74-5.7,3.84-7.27,5.3-3.46,3.25-6.75,6.69-10.11,10-24.7,24.69-25.25,24.66-27.44,59-3.36,52.45-14.72,103.27-29.12,153.58-1.63,5.7-2.36,11.77-4.69,17.15s-6.08,9.85-9.21,14.74l-.06-1.95c3.14-16.6,5.35-33.45,9.66-49.74,6.05-22.87,7.35-45.23,1.46-68.42s-9.12-47.13-15.17-70.31c-3.18-12.19-9.5-23.65-15.1-35.1a220.68,220.68,0,0,1-20.24-68.77c7,7.33,22.27,6.3,29.76-2.13,7.84-8.83,15.72-17.65,23.31-26.7,4.75-5.67,9.08-7.12,15.75-2.32,15.61,11.24,31.56,22,47.67,32.54C524.14,522.69,533.82,527.69,543.23,533.11ZM558.4,857.06l-3.5-.45-12.3,125,2.87.49c10.39-8,19.26-16.25,17.64-31.9-1.8-17.37-1.36-35-2.16-52.46C560.32,884.17,559.27,870.62,558.4,857.06Z"/><path class="cls-12" d="M438,807.72l.06,1.95c-11.87,15.18-23.35,30.7-35.75,45.43-7,8.29-11,15.92-3.42,25.66-5.23-6.74-11-13.16-15.36-20.4-1.25-2.05.32-7.79,2.48-9.64C403.05,836.09,420.58,822,438,807.72Z"/><path class="cls-46" d="M434.29,899q10.88,49,21.74,98C432.77,967.74,436.94,932.62,434.29,899Z"/><path class="cls-47" d="M404,884.51l-1.78-1.65,7.1-.26v11.63l-2.13-.06Q405.63,889.34,404,884.51Z"/><path class="cls-48" d="M543.23,533.11c-9.41-5.42-19.09-10.42-28.16-16.34C499,506.26,483,495.47,467.4,484.23c-6.67-4.8-11-3.35-15.75,2.32-7.59,9.05-15.47,17.87-23.31,26.7-7.49,8.43-22.76,9.46-29.76,2.13-1.52-4.63-3-9.26-5.38-16.45l-6.85,21.78L339.89,526c5.78-5,11.76-9.84,17.3-15.11,6.31-6,12.24-12.4,18.33-18.62a60.53,60.53,0,0,1,8,0c8.54,1.14,13.05-1.84,12-11L440,465.47c8-4.75,14.68-2.82,21.66,2.95,15.66,12.94,31.82,25.25,47.78,37.82,11.09,7.7,21.92,15.83,33.34,23,14.17,8.87,28.84,16.95,43.29,25.37Z"/><path class="cls-49" d="M394.88,807.39q5.79-44.82,11.59-89.63l2.52-.37c.73,4.85,2.77,9.93,2,14.53-4.27,25.34-9.22,50.56-13.94,75.82Z"/><path class="cls-26" d="M951.61,702.49c4.53-6.68,8.77-13.57,13.69-20,2.87-3.73,5.81-8.14,12.38-4.25,1.9,1.13,6.49-2.27,9.42-3.43l18.21,23.78c.22,7.91,1.72,16.05.45,23.71-7.25,43.54-16.27,86.82-13.26,131.42.86,12.7.15,25.5.15,38.25,0,16.42,0,16.42-16,19.29-22.06,4.75-44.07,9.82-66.24,14-5.08,1-11.16,0-16-2-7.87-3.17-15.12-7.88-22.63-11.94a7.39,7.39,0,0,0,2.55,5.34c16,14.18,32.05,28.23,47.93,42.5,11.44,10.28,23.45,18.42,39.7,19.72a383.15,383.15,0,0,1,49.28,7.37c8,1.71,15.79,6,23,10.26,6.72,4,12.54,9.5,18.75,14.35a164,164,0,0,0-12.87-31.25c-6.09-11-9.31-22.23-8.34-34.87.4-5.18-1-10.5-1.57-15.75-.61-20.09-1.39-40.18-1.64-60.28,0-3.43,1.44-9.35,3.47-10,14.75-4.39,28.49-13.53,45.08-10.1,18.24,3.78,36.56,7.16,54.84,10.71l19.24,3.94c17.15,4.92,34.21,7.5,52.29,4,21.11-4.13,42.6-6.35,63.93-9.41,5.62-.29,7.13,2,6.05,7.65s-.36,11.6-1.07,17.34-1.53,11.73-3.53,17.16c-8,21.66-16.4,43.14-24.67,64.69-21,23.26-44.62,44.46-57.54,74-15.94,36.44-43.48,64.93-65.8,97-11.63,16.73-24.68,27.59-45.77,28.43-11.47.46-22.79,4-34.26,5.51-7.4,1-11.35,4.55-14.26,11.35-12,28.11-24.59,56-37,83.94-.81,1.83-2.19,3.4-7.07,8.25-.9-2.58-1.2-5.63-2.79-7.66-10.6-13.57-21.57-26.84-32.23-40.36-4.7-6-7.85-5.74-11.64,1.07q-17.32,31.14-35.46,61.82c-1.59,2.7-5.13,6.18-7.69,6.11-27.82-.71-55.87,3.94-83.41-3.11-13.23-3.38-26.45-6.9-39.5-10.91a22.13,22.13,0,0,1-10.17-6.5c-39.44-47.86-78.61-95.94-118-143.86A31.24,31.24,0,0,1,634,1108.8c0-20.76-2.54-41.63-1-62.24,1-14.1,6.48-28,11-41.7,5.71-17.18,12.86-33.88,18.59-51.06a34.24,34.24,0,0,0,.72-16.51c-7.12-37.35-15-74.54-21.87-111.93-1.44-7.85-.77-16.6,1.08-24.42,3.7-15.59,9-30.78,13.39-46.21,1.63-5.75,4-8.11,10.12-5.09,12,5.89,24.2,11.33,36.31,17l21,9.16,30.09,12.84c8.52,5.53,17.09,9.87,28,7,6.47-1.7,13.41-1.56,20.14-2.25l37.79-5.23c11.41-1.32,22.92-2.14,34.2-4.2a25.63,25.63,0,0,0,12.76-6.81c7.88-7.94,14.9-16.75,22.27-25.21Q930.1,727.22,951.61,702.49Zm28.46,363.84-21.32-3.47c-4-1.21-7.83-2.69-11.85-3.59-33.9-7.6-68-14.5-101.7-22.8-27.38-6.75-54.43-14.92-81.48-23-7.76-2.31-12.2-1.15-14.7,7-2.34,7.65-4.78,15.49-8.7,22.38-6.16,10.84-2.6,18.56,4.91,26.85,14.95,16.46,28.93,33.8,43.9,50.24,7.12,7.82,12.09,18.15,25.14,19.48q43.38,4.42,86.54,10.78a49.34,49.34,0,0,0,33.09-6.1c16-9.05,32.64-16.88,48.94-25.37,1.75-.91,3-2.79,4.47-4.21,10.72-5.67,21.28-11.66,32.22-16.87,6.34-3,7-6.76,4.58-12.73-5.41-13.12-10.39-26.42-15.68-39.59-.7-1.74-2.21-3.15-4.22-5.93ZM926.72,752l-2.67-.62c-1.53,2.82-3.17,5.58-4.57,8.46-8.43,17.37-16.48,34.94-25.43,52a28.37,28.37,0,0,1-11.47,11.48c-17.19,8.76-34.88,16.55-52.32,24.83-6.79,3.23-13.43,6.79-20.63,10.45,10.13,9.2,22.43,14.24,28.78,11.9,23.42-8.63,46.86-17.19,70-26.45,3.26-1.3,6.6-6,7.24-9.62,2.85-16.06,4.8-32.28,6.93-48.46C924.1,774.67,925.36,763.32,926.72,752Zm82.13,432.37,2.85-.73q3.13-37.27,6.28-74.55l-2.67-.46c-7.48,13.77-15.15,27.45-22.29,41.4-1.3,2.54-1.73,6.87-.43,9.15C997.53,1167.83,1003.35,1176,1008.85,1184.35ZM721.6,1123.67l2.45-1v-52c-7.18,4.68-12.59,7.91-17.6,11.69-1.2.91-2,4-1.36,5.45C710.38,1099.89,716.05,1111.76,721.6,1123.67Zm207.59-206.3,2.24,1c6.67-11.71,12.93-23.67,20.13-35,6.27-9.89,1.83-18.19-.81-27l-2.39-.2Zm154.47-34.15,2.31.83c3.9-5.46,8.09-10.75,11.53-16.48,1-1.75.94-6.19-.18-6.88a27.17,27.17,0,0,0-10.7-3.28c-.75-.09-2.71,3.57-2.82,5.56C1083.44,869.7,1083.66,876.47,1083.66,883.22Z"/><path class="cls-26" d="M1053.3,773.93c-6.86-16.35-13.93-32.62-20.35-49.13-.86-2.22.66-6.57,2.54-8.46,11.93-11.94,24.56-23.16,36.34-35.23,6.33-6.48,11.42-14.18,17.07-21.33,4-4.37,8.44-5.18,14.35-3.65,13.48,3.5,27.2,6.1,40.79,9.18a55.93,55.93,0,0,1,6.65,2.35,64,64,0,0,1-19.44,4.15c-6.39.45-8.49,3.62-8.53,9.81-.07,9.16-1.35,18.31-1.42,27.47-.08,10.93-2.06,22.82,1.45,32.61,7.27,20.27,17.64,39.42,26.73,59,3.1,1.18,6.19,3.36,9.31,3.4q33.59.45,67.17,0c3.11,0,6.19-2.22,9.29-3.4v0c-.34,2.8,0,6-1.16,8.34-4.73,9.19-10,18.12-15,27.15l-10.5.21-105.49-1.77-7.24-1.77c.68-1.83,2.49-4.45,1.85-5.36q-19-26.93-38.57-53.41c-.51-.69-2.63-.21-4-.28Z"/><path class="cls-50" d="M1347.6,824q-7.26,9.76-14.51,19.52-11.68,15-23.38,30l-21.18,26.67c-.06-3.37-1-7,0-10.08,15.63-48.15,31.61-96.18,47.28-144.32,4.85-14.89,9-30,13.52-45,2.09-6.07,4.17-12.14,7-20.41l27,23.94q-3.57,13.5-7.13,27c-2.26.67-5.23.65-6.67,2.12-11,11.19-21.87,22.51-32.38,34.15a36.79,36.79,0,0,0-7.12,12c-10,27.91-19.58,55.93-29.27,83.94-2.14,6.19-4.07,12.45-6.09,18.68l2.45,1.22q4.67-5.66,9.33-11.31,20.55-25,41.07-50.06C1347.55,822.71,1347.57,823.36,1347.6,824Z"/><path class="cls-51" d="M1267.36,857.94c-21.33,3.06-42.82,5.28-63.93,9.41-18.08,3.55-35.14,1-52.29-4l25.06-5.75,7.26-5.22L1194.3,849c3.6-.17,7.45.39,10.74-.7,4.89-1.62,9.38-4.43,14-6.73,3.68,0,7.52.73,11-.08,8.59-2,17-4.59,25.5-7.12,5.05-1.52,7.84-.13,8.61,5.32C1265.06,845.81,1266.29,851.86,1267.36,857.94Z"/><path class="cls-52" d="M1253,820.16l5.38-5.21c14.89-11.16,30.68-21.34,44.26-33.9,6.46-6,8.73-16.48,12.89-24.93-5.32,21-10.59,41.92-16,62.85-2.87,11.12-6,22.18-9,33.27l-2.19-.13V804.59Z"/><path class="cls-53" d="M1349.28,700.78c-4.49,15-8.67,30.1-13.52,45-15.67,48.14-31.65,96.17-47.28,144.32-1,3,0,6.71,0,10.08l-4.21,1.59c-.43-2.72-1.83-5.71-1.14-8.1,4.48-15.67,9.15-31.29,14.25-46.77,11.76-35.73,23.79-71.37,35.72-107Q1341.21,720.31,1349.28,700.78Z"/><path class="cls-54" d="M1219.06,836.26c5-9,10.29-18,15-27.15,1.21-2.35.82-5.54,1.16-8.34,11.72-19.95,23.43-39.89,36.33-61.83,1.66,4.68,2.32,6.52,3,8.36-6.21,10.72-12.74,21.27-18.53,32.22-3.9,7.38-6.74,15.32-10.06,23l-23.19,32.06Z"/><path class="cls-54" d="M1103.07,834.7l105.49,1.77q-.13.74-.24,1.47l-5.13,2.1-67.29-2.71-.12,2.16,12,2.24,0,1.95c-13.43-2-26.87-4-40.28-6.19C1105.89,837.23,1104.53,835.66,1103.07,834.7Z"/><path class="cls-55" d="M1203.19,840l5.13-2.1,10.75,3.64c-4.65,2.3-9.14,5.11-14,6.73-3.29,1.09-7.14.53-10.74.7l1.84-1.86Z"/><path class="cls-56" d="M1304.73,889.87c-3.41,10.59-10.09,18.6-19.36,24.57Z"/><path class="cls-19" d="M375.52,492.29c-6.09,6.22-12,12.62-18.33,18.62-5.54,5.27-11.52,10.09-17.3,15.11l-13.64,1.62-1.17-2.06c6.87-8.73,13.77-17.41,24.42-22.41,2.28-1.07,4.42-2.43,6.63-3.66Z"/><path class="cls-5" d="M315.1,622.07c0-19.86-.67-39.76.14-59.59.4-9.6,3.52-19.08,5.41-28.62.5,2.86,1.55,5.75,1.41,8.57-1.14,22.59-2.4,45.18-3.93,67.76C317.86,614.2,316.15,618.11,315.1,622.07Z"/><path class="cls-57" d="M1336.82,287.1q-9.48-14.49-19-29L1319,257l3.55,1.6,3.61,3.56,21.29,25,1.73,2.1q-1.73,4.31-3.43,8.59Z"/><path class="cls-58" d="M1358.13,313.94c1.72,1.11,4.91,2.21,4.91,3.32,0,6.58-.74,13.17-1.23,19.75Q1360,325.48,1358.13,313.94Z"/><path class="cls-59" d="M812.47,1580.1c-1.69-6.47-3.8-12.86-4.85-19.43-.36-2.21,2-4.86,3-7.3,5.07,13.8,10.13,27.59,16,43.48l-8.79-7.81Z"/><path class="cls-60" d="M1347.52,822.07q-20.54,25-41.07,50.06-4.65,5.67-9.33,11.31l-2.45-1.22c2-6.23,3.95-12.49,6.09-18.68,9.69-28,19.32-56,29.27-83.94a36.79,36.79,0,0,1,7.12-12c10.51-11.64,21.38-23,32.38-34.15,1.44-1.47,4.41-1.45,6.67-2.12l-12.3,46.22c-2.89,10.46-5.41,21.05-8.85,31.33C1353.47,813.59,1350.09,817.69,1347.52,822.07Z"/><path class="cls-8" d="M1347.43,287.1l-21.29-25Z"/><path class="cls-61" d="M455.62,1241.22l-7.1-17.48c-4.36-12.52-8.39-25.18-13.15-37.55-7-18.17-14.51-36.15-21.81-54.21l2.36-1.51c2.75,3.78,6.53,7.18,8.09,11.4,11.43,30.87,22.47,61.9,33.37,93C458,1236.55,456.26,1239.07,455.62,1241.22Z"/><path class="cls-62" d="M855.42,606.26c18.53,5.85,37.09,11.63,55.59,17.58,6.88,2.22,10.2,6.25,7,14-1.41,3.43-1.31,7.48-1.89,11.24-12.45-7.87-12.45-7.87-18.78,2.26l-10.76-6.39c2.31,7.06,5.58,13,8.82,18.94,5,9.11,3.51,16.38-4.39,22.67-2.54,2-4.83,4.39-7.44,6.33-6.37,4.74-12.92,13.28-19.28,13.17-14.74-.23-31.5.27-43.05-10.72-13.35-12.7-24.67-12.73-41.46-5.46-25.62,11.08-46.72,26.19-63.07,48.42-2.08,2.83-3.88,5.86-5.82,8.79l-30.15-15.85c-5.31-3.41-10-7.14-7.26-14.55l-.09,0c7.42,9.75,10.31,9.88,16.11-.46,2.62-4.66,3.56-10.27,5.26-15.45,6.66-10.44,12.92-21.17,20.26-31.11,1.71-2.32,7.39-3.27,10.73-2.53,10.64,2.36,21.05,5.82,31.55,8.86,2.63,1.87,5.73,3.33,7.81,5.68,4.2,4.76,8.83,5.14,14.39,3.12,20.77-7.56,41.62-14.93,62.37-22.55,5.1-1.88,12.28-3.25,10.68-10.65-1.63-7.55-8.64-3.76-13.52-4.17l-26.65-8.92c-17.59-7.54-35-15.51-52.84-22.43-8.28-3.22-12.57-8.22-13.18-16.8,10.28,3.71,20.37,8.17,30.9,11,15.48,4.09,31.27,7,46.94,10.38,9.86,2.13,20,3.42,29.53,6.55,9.8,3.22,19,8.23,30,13.13-8.38-13.11-11.13-29.72-30.57-30.39-1.67,0-3.31-1.16-5-1.79Z"/><path class="cls-63" d="M610.72,1132.77,758.8,1305.42c-7.08-2.53-11.7-4.11-16.27-5.81-23.94-8.89-48-17.51-71.73-26.95a28.15,28.15,0,0,1-13.06-10.89c-15.06-25.58-29.39-51.6-43.89-77.51a16.87,16.87,0,0,1-2.38-6.65c-.9-12.72-1.55-25.46-2.15-38.19C609.25,1137.79,610,1136.12,610.72,1132.77Z"/><path class="cls-64" d="M646.3,587.33q2,8.49,4,17c.56,33.51,1.2,67,1.64,100.53.17,12.23-.89,13.14-11.89,8.83-23.43-9.17-22.32-4-17.05-29.87,6.6-32.44,3.12-65.07,3.76-97.63,0-1.44-.13-2.88-.25-5.62l16.84,5.92Z"/><path class="cls-65" d="M921.39,1303.7c-7.88,3.9-15.82,7.7-23.64,11.73-9.37,4.84-14.09,15-12.17,25.65-3.56-11.56-11.57-10-20.77-7.92-19.07,4.33-38.34,7.8-57.53,11.58-2.79.55-5.64.83-8.33,1.22-.43-1.43-.89-2.29-.71-2.46,11.88-11,23.34-22.6,36-32.64,4.06-3.21,11.3-2.9,17.15-3.28C874.72,1306.09,898.06,1305,921.39,1303.7Z"/><path class="cls-3" d="M891,1351.75c4.94-1.88,10-3.41,14.79-5.68,18.39-8.81,35.91-19.72,56.61-22.74l-58.09,62.81C899.58,1373.9,895.29,1362.83,891,1351.75Z"/><path class="cls-66" d="M600.66,1070c-16-2.65-19-6.71-16.9-21.76,3.78-27.59,7.38-55.21,11.1-82.8.26-1.95.87-3.85,3.66-6.54,1.16,2.8,3.31,5.59,3.33,8.4.24,32.63.18,65.27.1,97.9C602,1066.77,601.1,1068.39,600.66,1070Z"/><path class="cls-67" d="M680.77,731.23l30.15,15.85c11.13,4.13,22.42,7.77,28.69,19.43,1.15,2.14,5.55,3.86,8.27,3.63,13.47-1.17,25.8,2.47,37.93,7.55-.84,1.17-1.59,3.27-2.54,3.36-10.75,1.09-21.53,1.88-34.25,2.9l4.64,2.47-.24,2.18-30.09-12.84c-.62-2.06-.58-4.81-1.94-6.07-10.6-9.86-21.44-19.46-32.3-29-.7-.63-2.18-.38-3.3-.53Z"/><path class="cls-68" d="M646.3,587.33l-2.92-.86L615.54,571,586,554.6c-14.45-8.42-29.12-16.5-43.29-25.37-11.42-7.16-22.25-15.29-33.34-23a64,64,0,0,1,7.18,3.16c25.95,15.23,51.74,30.72,77.81,45.74,14.84,8.55,30.2,16.2,45.1,24.64C642.29,581.36,644.06,584.77,646.3,587.33Z"/><path class="cls-69" d="M685.79,740.13c1.12.15,2.6-.1,3.3.53,10.86,9.57,21.7,19.17,32.3,29,1.36,1.26,1.32,4,1.94,6.07l-21-9.16Z"/><path class="cls-70" d="M867.81,576c-5.89-3.29-7.85-8.35-7.17-14.91.79-7.66,1-15.38,1.87-23,1-8.76-2.29-12.89-11.47-14-19.13-2.43-38-6.74-57.19-8.76C773.16,513,756.63,502,739.19,492.59c-2.09-1.12-4-2.55-6.16-3.57-16-7.72-15.31-7.3-3.86-21,29.53-35.22,55.1-73,73.8-114.95,4.4-9.86,2.69-22.47,3.63-33.83.14-1.71-.63-3.49-.91-5.25-2.19-13.87.26-25,13.84-33.16,13.41-8.06,25.44-18.46,37.92-28a35.44,35.44,0,0,0,7.28-7.69c8.85-12.65,17.81-25.25,26-38.3,4.12-6.53,8.87-9.39,16.68-9.1,14.24.54,28.57-.66,42.76.33,24.55,1.72,47.93-2.64,70.44-11.78,10.37-4.2,19.65-3.33,30.06.07,17.87,5.85,33.33,14.28,46,28.73,15.58,17.81,37.9,26.35,58,37.54,31.63,17.65,58.79,41.13,87.13,63.09,2.59,2,3.63,8,3.06,11.76-1.64,10.84-5.12,21.41-6.55,32.26-.56,4.26,1,10.76,4,13.22,16.83,13.67,24.69,31.41,29.29,52.19,2.6,11.7,1.56,21.28-3.41,31.55q-14.55,30-28.33,60.48c-5.78,12.71-5.47,12.77,6,20.69,11.66,8.07,23.24,16.27,36.41,25.51-10.81,11.38-20.49,22-30.79,32-1.7,1.65-6.22,1.15-9.23.56-20.1-3.93-40.19-8-60.2-12.37-7-1.51-11.06-.93-14.24,6.95-9.52,23.52-10.21,22.36-35.16,28.5-39,9.61-78.64,10.64-118.44,10.6.87-7.74-2.63-11.68-10.11-14-23.71-7.47-47.21-15.6-70.82-23.4-3.55-1.17-7.23-1.92-10.85-2.87-.28.73-.57,1.47-.86,2.2l83.6,40c-18.07.35-36.13.64-51.64-11l-10.86-5.22c-4.87-2.79-9.65-5.76-14.63-8.35Q897.95,591.37,867.81,576Z"/><path class="cls-71" d="M867.81,576q30.11,15.46,60.18,31c5,2.59,9.76,5.56,14.63,8.35l-10.47,1.49c-26.64-13.42-52.54-28.66-80.13-39.71-23.43-9.4-48.7-14.38-73.36-20.48-11.67-2.89-23.83-3.83-35.77-5.66l-8.82-7c42.91,1.1,84.49,7.94,123,28.32C860.37,574,864.21,574.76,867.81,576Z"/><path class="cls-24" d="M953.48,620.51c15.51,11.67,33.57,11.38,51.64,11l8.53,3c3.55-.43,7.53-2.11,10.58-1.08,11.31,3.83,22.55,6.18,34.4,3.2l-5.37,3.83c-20.16,2.76-40.29,5.86-60.51,8-3.88.41-8.39-2.54-12.2-4.68-11.09-6.23-22-12.84-32.92-19.3Z"/><path class="cls-72" d="M734.07,543.93l8.82,7c-30.92-3-62-5-92.69-9.57-11.58-1.72-22.39-9.09-33.36-14.28-7.48-3.54-14.64-7.76-21.94-11.68,22.16,6.48,44.23,13.3,66.53,19.28a203,203,0,0,0,31.3,5.48c11.76,1.24,23.65,1.24,35.48,2C730.19,542.24,732.12,543.3,734.07,543.93Z"/><path class="cls-73" d="M1013.65,634.5l-8.53-3-83.6-40c.29-.73.58-1.47.86-2.2,3.62.95,7.3,1.7,10.85,2.87,23.61,7.8,47.11,15.93,70.82,23.4,7.48,2.35,11,6.29,10.11,14Z"/><path class="cls-74" d="M1274.55,747.3c-.66-1.84-1.32-3.68-3-8.36-12.9,21.94-24.61,41.88-36.33,61.83v0c-3.78.57-7.55,1.63-11.33,1.66q-30.66.24-61.33,0c-4.37,0-8.74-1.08-13.11-1.66-9.09-19.62-19.46-38.77-26.73-59-3.51-9.79-1.53-21.68-1.45-32.61.07-9.16,1.35-18.31,1.42-27.47,0-6.19,2.14-9.36,8.53-9.81a64,64,0,0,0,19.44-4.15,55.93,55.93,0,0,0-6.65-2.35c-13.59-3.08-27.31-5.68-40.79-9.18-5.91-1.53-10.36-.72-14.35,3.65.68-2.19,1.36-4.39,2-6.58,5.54-.2,11.1-.19,16.62-.65,5.34-.45,10.87-2.77,15.91-1.9,29,5,57.8,10.71,86.69,16.18,8.37,7.8,16.64,15.71,25.16,23.35,4,3.61,8.48,6.7,12.74,10l1.42-1.42-14.35-28.07,7.08.15c8.67,1.21,12.19,7.11,13.91,14.92,1,4.62,3,9,3.87,13.68,2.14,11.79,8.54,20.43,18.54,26.68,4.73,3,5.27,6.43,2,11.15-2,2.85-2.78,6.48-4.11,9.75Zm-41.65,30.3,2.17-1.26q-16.18-44.83-32.35-89.67l-2.52.39c-1.46,10.09-2.14,20.38-4.56,30.23-2.83,11.49-.59,20.56,7.84,28.92C1213.65,756.31,1223.12,767.1,1232.9,777.6Z"/><path class="cls-13" d="M785.81,777.7c-12.13-5.09-24.46-8.73-37.93-7.56-2.72.23-7.12-1.49-8.27-3.63-6.27-11.66-17.56-15.3-28.69-19.43,1.94-2.93,3.74-6,5.82-8.79,16.35-22.23,37.45-37.34,63.07-48.42,16.79-7.27,28.11-7.24,41.46,5.46,11.55,11,28.31,10.49,43.05,10.72,6.36.11,12.91-8.43,19.28-13.17,2.61-1.94,4.9-4.31,7.44-6.33,7.9-6.29,9.35-13.56,4.39-22.67-3.24-6-6.51-11.88-8.82-18.94l10.76,6.39c6.33-10.13,6.33-10.13,18.78-2.26l1.44,1c14.62,10.25,14.43,10.13,4.9,25.06-3.93,6.16-8.77,11.46-9.59,20-.49,5.18-8.59,9.63-13.27,14.4-1.65,3.89-3.36,7.76-4.92,11.68-1.31,3.34-2.44,6.76-3.65,10.14l1.65-13.93-2.79-1.33-36.38,31-23.08,21.25c-6.19,1.91-12.77,6.17-18.48,5.21C802.33,772,793.93,772.26,785.81,777.7Z"/><path class="cls-75" d="M1131.9,859.46c-18.28-3.55-36.6-6.93-54.84-10.71-16.59-3.43-30.33,5.71-45.08,10.1-2,.61-3.51,6.53-3.47,10,.25,20.1,1,40.19,1.64,60.28-10,12.93-18.34,27.32-38.59,26.37-15.5-.73-31.13,1.22-44.31,1.87,12.82-12.42,19.27-30.5,29.38-46,16-2.87,16-2.87,16-19.29,0-12.75.71-25.55-.15-38.25-3-44.6,6-87.88,13.26-131.42,1.27-7.66-.23-15.8-.45-23.71,2.88,7.94,6.22,15.75,8.53,23.86,3.37,11.82,6,23.85,8.93,35.79,3.87,17,8.84,33.8,11.28,51,1.87,13.26,8.16,20,20.71,22l26.35,9.61-15.53-26c-.46-3.54-.91-7.08-1.37-10.62l3.33,0C1073,815,1074.3,828.9,1089,832.71c-6,1.14-2.56,3.5-.77,5.73,8.92,11.11,22.12,13.63,34.73,17.34Z"/><path class="cls-9" d="M757.33,676c-10.5-3-20.91-6.5-31.55-8.86-3.34-.74-9,.21-10.73,2.53-7.34,9.94-13.6,20.67-20.26,31.11-2.11-1-4.46-1.78-6.27-3.2-2.92-2.31-5.49-5.07-8.2-7.64-2.83-6.39-.33-11.73,1.5-18.1,3.18-11.06,3.66-23.09,3.84-34.74.13-8.92.46-16.94,8.84-22.2,1.16.76,2.54,2.39,3.45,2.15q14.89-3.78,29.63-8.19c1.26-.38,2-2.49,3.82-5L723,602.44c6.72-2,13.47-3,18.33-9.82,1.73-2.45,9.4-.68,14.36-.83-2.65.25-5.77-.24-7.78,1-1.33.83-1.06,4.2-1.5,6.43.61,8.58,4.9,13.58,13.18,16.8,17.83,6.92,35.25,14.89,52.84,22.43-3.12-.77-6.3-1.39-9.37-2.33-12.88-4-25.74-8-38.61-12-9.43-.75-18.85-1.86-28.3-2.13-6.69-.19-7.53,3.79-5.32,9.44,4.15,10.66,8,21.43,12,32.16l19.74,12.34Z"/><path class="cls-76" d="M746.39,599.25c.44-2.23.17-5.6,1.5-6.43,2-1.27,5.13-.78,7.78-1l24.56,1.9c7.24,1.12,14.57,1.86,21.7,3.44,15.47,3.42,30.85,7.27,46.26,11,1.66.63,3.3,1.74,5,1.79,19.44.67,22.19,17.28,30.57,30.39-11-4.9-20.17-9.91-30-13.13-9.53-3.13-19.67-4.42-29.53-6.55-15.67-3.38-31.46-6.29-46.94-10.38C766.76,607.42,756.67,603,746.39,599.25Z"/><path class="cls-12" d="M891.06,731.42c1.21-3.38,2.34-6.8,3.65-10.14,1.56-3.92,3.27-7.79,4.92-11.68l-7.2,33.75c-3.94,5.35-7,11.77-12,15.79-7.82,6.27-17.12,10.65-25.45,16.33-5.51,3.77-10.41,8.42-15.59,12.67l-37.79,5.23-47.9-7L749,784c12.72-1,23.5-1.81,34.25-2.9,1-.09,1.7-2.19,2.54-3.36,8.12-5.43,16.52-5.66,26.17-4,5.71,1,12.29-3.3,18.48-5.21,7.11,0,14.25.51,21.31-.05,3.15-.25,7.22-1.72,9-4.06,5.31-7.05,9.69-14.81,14.44-22.29Z"/><path class="cls-77" d="M839.35,788.14c5.18-4.25,10.08-8.9,15.59-12.67,8.33-5.68,17.63-10.06,25.45-16.33,5-4,8.1-10.44,12-15.79,5.42,4.75,9.21,1,12.93-2.56,13.29-12.62,26.45-25.36,39.87-37.83,1.39-1.29,3.78-8.15,6.38-.47q-21.51,24.72-43,49.43c-7.37,8.46-14.39,17.27-22.27,25.21a25.63,25.63,0,0,1-12.76,6.81C862.27,786,850.76,786.82,839.35,788.14Z"/><path class="cls-30" d="M1054.76,831.22c-12.55-2-18.84-8.69-20.71-22-2.44-17.18-7.41-34-11.28-51,.93-5,2.58-2.86,3.77-.24,3.15,6.94,6,14,9.18,21,1.45,3.17,3.35,6.14,5,9.21,5,11.07,10.19,22,14.66,33.3C1056.5,824.24,1055.05,828,1054.76,831.22Z"/><path class="cls-78" d="M1274.55,747.3l1.89-.26c5.26,7.39,11.34,14.85,4.71,24.26-3,4.17-7,7.68-10.89,11.06-8,6.88-16.19,13.47-24.3,20.18,3.32-7.7,6.16-15.64,10.06-23C1261.81,768.57,1268.34,758,1274.55,747.3Z"/><path class="cls-79" d="M1242.2,670.86l-7.08-.15-25-3.88c-28.89-5.47-57.73-11.17-86.69-16.18-5-.87-10.57,1.45-15.91,1.9-5.52.46-11.08.45-16.62.65,18.87-8.68,38.27-9.93,58.42-5.09,28.16,6.78,56.45,13,84.65,19.61C1236.83,668.38,1239.47,669.79,1242.2,670.86Z"/><path class="cls-69" d="M1054.76,831.22c.29-3.26,1.74-7,.67-9.7-4.47-11.27-9.71-22.23-14.66-33.3q9.48,10,18.94,20.09c2,2.13,3.92,4.36,5.87,6.55l15.53,26Z"/><path class="cls-29" d="M680.32,689.91c2.71,2.57,5.28,5.33,8.2,7.64,1.81,1.42,4.16,2.16,6.27,3.2-1.7,5.18-2.64,10.79-5.26,15.45-5.8,10.34-8.69,10.21-16.11.46Z"/><path class="cls-80" d="M848.19,608.08c-15.41-3.68-30.79-7.53-46.26-11-7.13-1.58-14.46-2.32-21.7-3.44,11,.19,22.27-1,32.95.93,14.31,2.6,28.18,7.65,42.23,11.64Z"/><path class="cls-74" d="M723,602.44l8.42,1.42c-1.83,2.48-2.56,4.59-3.82,5Q712.87,613.27,698,617c-.91.24-2.29-1.39-3.45-2.15-.55-6.23,2.77-9,8.54-9.77C709.69,604.25,716.33,603.33,723,602.44Z"/><path class="cls-81" d="M1067.54,804.26l-3.33,0q-5.45-15.15-10.91-30.31l1.81,0Z"/><path class="cls-82" d="M953.48,620.51l-5.85,4-15.48-7.68,10.47-1.49Z"/><path class="cls-5" d="M558.4,857.06c.87,13.56,1.92,27.11,2.55,40.68.8,17.49.36,35.09,2.16,52.46,1.62,15.65-7.25,23.87-17.64,31.9l-2.87-.49,12.3-125Z"/><path class="cls-83" d="M987.31,1114.59c-1.48,1.42-2.72,3.3-4.47,4.21-16.3,8.49-33,16.32-48.94,25.37a49.34,49.34,0,0,1-33.09,6.1q-43.14-6.29-86.54-10.78c-13-1.33-18-11.66-25.14-19.48-15-16.44-29-33.78-43.9-50.24-7.51-8.29-11.07-16-4.91-26.85,3.92-6.89,6.36-14.73,8.7-22.38,2.5-8.17,6.94-9.33,14.7-7,27,8,54.1,16.2,81.48,23,33.73,8.3,67.8,15.2,101.7,22.8,4,.9,7.9,2.38,11.85,3.59-2.66-.12-5.35,0-8-.4-50-6.79-99.37-16.51-147.52-32-13.64-4.39-27.65-7.63-41.49-11.4l-1,1.86,9,8h0c1.14,2,1.93,4.4,3.47,6.08,8.8,9.63,17.36,19.55,26.88,28.42a30.83,30.83,0,0,0,15.43,7.45c17.27,2.7,34.81,3.66,52.06,6.45,15.09,2.45,30.46,5,44.74,10.14,20.61,7.44,40.27,17.49,60.54,25.94,3.7,1.54,8.36.79,12.58,1.1Z"/><path class="cls-84" d="M769.81,1028.93l-9-8,1-1.86c13.84,3.77,27.85,7,41.49,11.4,48.15,15.49,97.51,25.21,147.52,32,2.64.36,5.33.28,8,.4l21.32,3.47c5.68,1.72,7.62,5.65,7.26,11.39-.75,12.25-1.25,24.52-1.85,36.78-4.22-.31-8.88.44-12.58-1.1-20.27-8.45-39.93-18.5-60.54-25.94-14.28-5.16-29.65-7.69-44.74-10.14-17.25-2.79-34.79-3.75-52.06-6.45a30.83,30.83,0,0,1-15.43-7.45c-9.52-8.87-18.08-18.79-26.88-28.42-1.54-1.68-2.33-4-3.47-6.08,4.86,2.16,9.76,4.25,14.58,6.51,9.12,4.26,17.85,9.72,27.36,12.73,29.38,9.32,59,17.71,88.59,26.48,4.25,1.27,8.49,2.62,12.73,3.93l1.2-3c-13.47-7.16-26.25-16.52-40.55-21-31.06-9.8-62.88-17.17-94.44-25.35C776.28,1028.43,773,1029,769.81,1028.93Z"/><path class="cls-85" d="M976.63,911.31c-10.11,15.52-16.56,33.6-29.38,46,13.18-.65,28.81-2.6,44.31-1.87,20.25.95,28.59-13.44,38.59-26.37.57,5.25,2,10.57,1.57,15.75-1,12.64,2.25,23.86,8.34,34.87a164,164,0,0,1,12.87,31.25c-6.21-4.85-12-10.36-18.75-14.35-7.19-4.27-14.93-8.55-23-10.26A383.15,383.15,0,0,0,961.92,979c-16.25-1.3-28.26-9.44-39.7-19.72-15.88-14.27-32-28.32-47.93-42.5a7.39,7.39,0,0,1-2.55-5.34c7.51,4.06,14.76,8.77,22.63,11.94,4.86,1.95,10.94,2.93,16,2C932.56,921.13,954.57,916.06,976.63,911.31Z"/><path class="cls-86" d="M926.72,752c-1.36,11.34-2.62,22.69-4.11,34-2.13,16.18-4.08,32.4-6.93,48.46-.64,3.61-4,8.32-7.24,9.62-23.17,9.26-46.61,17.82-70,26.45-6.35,2.34-18.65-2.7-28.78-11.9,7.2-3.66,13.84-7.22,20.63-10.45,17.44-8.28,35.13-16.07,52.32-24.83a28.37,28.37,0,0,0,11.47-11.48c9-17.1,17-34.67,25.43-52,1.4-2.88,3-5.64,4.57-8.46Z"/><path class="cls-87" d="M985.48,1114.5c.6-12.26,1.1-24.53,1.85-36.78.36-5.74-1.58-9.67-7.26-11.39l24.14-26.86c2,2.78,3.52,4.19,4.22,5.93,5.29,13.17,10.27,26.47,15.68,39.59,2.47,6,1.76,9.72-4.58,12.73-10.94,5.21-21.5,11.2-32.22,16.87Z"/><path class="cls-88" d="M1008.85,1184.35c-5.5-8.35-11.32-16.52-16.26-25.19-1.3-2.28-.87-6.61.43-9.15,7.14-14,14.81-27.63,22.29-41.4l2.67.46q-3.13,37.28-6.28,74.55Z"/><path class="cls-89" d="M721.6,1123.67c-5.55-11.91-11.22-23.78-16.51-35.81-.62-1.41.16-4.54,1.36-5.45,5-3.78,10.42-7,17.6-11.69v52Z"/><path class="cls-90" d="M929.19,917.37l19.17-61.18,2.39.2c2.64,8.77,7.08,17.07.81,27-7.2,11.37-13.46,23.33-20.13,35Z"/><path class="cls-91" d="M1131.9,859.46l-9-3.68c1-1.09,2-3.14,3-3.12q24.36.54,48.71,1.69c.55,0,1,2.15,1.5,3.3l-25.06,5.75Z"/><path class="cls-92" d="M1083.66,883.22c0-6.75-.22-13.52.14-20.25.11-2,2.07-5.65,2.82-5.56a27.17,27.17,0,0,1,10.7,3.28c1.12.69,1.23,5.13.18,6.88-3.44,5.73-7.63,11-11.53,16.48Z"/><path class="cls-52" d="M753.66,786.42l47.9,7c-6.73.69-13.67.55-20.14,2.25-10.91,2.85-19.48-1.49-28-7Z"/><path class="cls-93" d="M1176.2,857.65c-.5-1.15-1-3.28-1.5-3.3q-24.35-1.11-48.71-1.69c-1,0-2,2-3,3.12-12.61-3.71-25.81-6.23-34.73-17.34-1.79-2.23-5.18-4.59.77-5.73l6.85.22,7.24,1.77c1.46,1,2.82,2.53,4.4,2.79,13.41,2.2,26.85,4.16,40.28,6.19l35.71,8.75Z"/><path class="cls-92" d="M1095.83,832.93l-6.85-.22c-14.68-3.81-16-17.68-21.44-28.45l-12.43-30.37c1.37.06,3.49-.42,4,.27q19.53,26.54,38.57,53.41C1098.32,828.48,1096.51,831.1,1095.83,832.93Z"/><path class="cls-54" d="M1149.48,800.74c4.37.58,8.74,1.62,13.11,1.66q30.66.27,61.33,0c3.78,0,7.55-1.09,11.33-1.66-3.1,1.18-6.18,3.36-9.29,3.4q-33.59.45-67.17,0C1155.67,804.1,1152.58,801.92,1149.48,800.74Z"/><path class="cls-94" d="M1183.46,852.43l-35.71-8.75c0-.65,0-1.3,0-1.95l48.34,5.42L1194.3,849Z"/><path class="cls-95" d="M1196.14,847.15l-48.34-5.42-12-2.24.12-2.16,67.29,2.71Z"/><path class="cls-5" d="M764.43,624.1c12.87,4,25.73,8.09,38.61,12,3.07.94,6.25,1.56,9.37,2.33l26.65,8.92,5.18,1.82c-1.16,1.23-2.11,3.11-3.53,3.59-24.81,8.4-49.68,16.62-74.53,24.88l-3.64-1.78L742.8,663.57c2.06-1.57,5-2.69,6-4.77C754.3,647.36,759.29,635.69,764.43,624.1Z"/><path class="cls-29" d="M762.54,675.91l3.64,1.78c4,.69,8.53,3,11.87,1.81,21.85-7.66,43.45-16,65.1-24.25,3.38-1.28,5.47-3.17,1.09-6l-5.18-1.82c4.88.41,11.89-3.38,13.52,4.17,1.6,7.4-5.58,8.77-10.68,10.65-20.75,7.62-41.6,15-62.37,22.55-5.56,2-10.19,1.64-14.39-3.12-2.08-2.35-5.18-3.81-7.81-5.68Z"/><path class="cls-96" d="M1232.9,777.6c-9.78-10.5-19.25-21.29-29.42-31.39-8.43-8.36-10.67-17.43-7.84-28.92,2.42-9.85,3.1-20.14,4.56-30.23l2.52-.39q16.17,44.83,32.35,89.67Z"/><path class="cls-97" d="M1210.15,666.83l25,3.88,14.35,28.07-1.42,1.42c-4.26-3.32-8.73-6.41-12.74-10C1226.79,682.54,1218.52,674.63,1210.15,666.83Z"/><path class="cls-98" d="M875.19,742c-4.75,7.48-9.13,15.24-14.44,22.29-1.76,2.34-5.83,3.81-9,4.06-7.06.56-14.2.1-21.31.05l23.08-21.25Z"/><path class="cls-99" d="M875.19,742l-21.65,5.15,36.38-31,2.79,1.33-1.65,13.93Z"/><path class="cls-42" d="M764.43,624.1c-5.14,11.59-10.13,23.26-15.59,34.7-1,2.08-4,3.2-6,4.77-4-10.73-7.84-21.5-12-32.16-2.21-5.65-1.37-9.63,5.32-9.44C745.58,622.24,755,623.35,764.43,624.1Z"/><path class="cls-57" d="M769.81,1028.93c3.15.06,6.47-.5,9.44.27,31.56,8.18,63.38,15.55,94.44,25.35,14.3,4.51,27.08,13.87,40.55,21l-1.2,3c-4.24-1.31-8.48-2.66-12.73-3.93-29.55-8.77-59.21-17.16-88.59-26.48-9.51-3-18.24-8.47-27.36-12.73-4.82-2.26-9.72-4.35-14.58-6.51Z"/><path class="cls-100" d="M844.24,649.22c4.38,2.86,2.29,4.75-1.09,6-21.65,8.22-43.25,16.59-65.1,24.25-3.34,1.17-7.88-1.12-11.87-1.81,24.85-8.26,49.72-16.48,74.53-24.88C842.13,652.33,843.08,650.45,844.24,649.22Z"/></svg>