<svg id="Layer_1" data-name="Layer 1" xmlns="http://www.w3.org/2000/svg" viewBox="0 0 1500 1353.81"><defs><style>.cls-1{fill:#2b2b2b;}.cls-2{fill:#6b6b6b;}.cls-3{fill:#999;}.cls-4{fill:#484848;}.cls-5{fill:#6a6a6a;}.cls-6{fill:#919191;}.cls-7{fill:#434343;}.cls-8{fill:#828282;}.cls-9{fill:#6e6e6e;}.cls-10{fill:#7a7a7a;}.cls-11{fill:#787878;}.cls-12{fill:#727272;}.cls-13{fill:#8e8e8e;}.cls-14{fill:#cbcbcb;}.cls-15{fill:#686868;}.cls-16{fill:#616161;}.cls-17{fill:#575757;}.cls-18{fill:#595959;}.cls-19{fill:#5e5e5e;}.cls-20{fill:#bfbfbf;}.cls-21{fill:#9e9e9e;}.cls-22{fill:#5f5f5f;}.cls-23{fill:#5d5d5d;}.cls-24{fill:#646464;}.cls-25{fill:#5a5a5a;}.cls-26{fill:#535353;}.cls-27{fill:#737373;}.cls-28{fill:#858585;}.cls-29{fill:#494949;}.cls-30{fill:#606060;}.cls-31{fill:#949494;}.cls-32{fill:#5b5b5b;}.cls-33{fill:#4a4a4a;}.cls-34{fill:#8d8d8d;}.cls-35{fill:#7c7c7c;}.cls-36{fill:#6d6d6d;}.cls-37{fill:#6c6c6c;}.cls-38{fill:#717171;}.cls-39{fill:#7d7d7d;}.cls-40{fill:#7f7f7f;}.cls-41{fill:#0f0f0f;}.cls-42{fill:#656565;}.cls-43{fill:#3c3c3c;}.cls-44{fill:#5c5c5c;}.cls-45{fill:#939393;}.cls-46{fill:#4b4b4b;}.cls-47{fill:#474747;}.cls-48{fill:#797979;}.cls-49{fill:#525252;}.cls-50{fill:#818181;}.cls-51{fill:#3b3b3b;}.cls-52{fill:#515151;}.cls-53{fill:#393939;}.cls-54{fill:#868686;}.cls-55{fill:#a3a3a3;}.cls-56{fill:#767676;}</style></defs><path class="cls-1" d="M644.32,1351.18l-30.82,1.6c-10.33,1.68-8.38-8.35-12.26-14.26l-7.36,15.29c-47.62-.35-95.25-.16-142.86-1.23-37.44-.84-74.91-2.46-112.25-5.26-19.4-1.45-38.58-6-57.79-9.52-30.84-5.67-60.89-14.37-90.61-24.24-.05-2.8.5-5.8-.33-8.35-.78-2.39-3-4.31-4.62-6.44-1.9,2.15-4.06,4.14-5.57,6.53-.67,1,0,2.93,0,4.44a6,6,0,0,1-1.9.15c-10.92-2.87-21.75-6.14-32.78-8.56a40.46,40.46,0,0,1-18.47-9.63c-3.44-3-8.28-4.8-12.8-6-9.41-2.59-19-4.44-28.55-6.6,7.86-8.51,15.8-17,23.55-25.56,2.7-3,4.94-6.42,7.38-9.65a20.89,20.89,0,0,1,2.53-1.9q18.78-10.1,37.58-20.13c4.13-1.72,8.33-3.26,12.36-5.18q28.22-13.46,56.34-27.06l44.05-18.19c1.82-.53,3.68-1,5.47-1.59,8.41-2.93,16.64-6.53,25.23-8.71,10.34-2.63,16.14-9.77,21.63-18,3.88-5.78,5.69-11.4,2.67-18a3.87,3.87,0,0,1,.07-3.15c6.77-10.68-5-22.52,2.09-33.21.46-.69-.3-2.58-1-3.57-2.39-3.46-1.21-6.08.89-9.32,2.47-3.8,7.25-7.32,3.88-13l-2.58-10.31c-4.69-9.53-9.49-19-14-28.6-2.12-4.47-3.78-9.15-5.64-13.73-9.14-11.63-10.49-26.7-17.38-39.26-4.3-7.85-10.25-14.8-14.49-22.68a238.46,238.46,0,0,1-11.6-26.14c-2.32-5.9-3.7-12.16-5.5-18.26l-7.71-22.05c-.11-1.5.17-3.17-.39-4.47-7.25-16.61-9.81-34.42-13.6-51.93-1.09-5-3.7-9.82-6.14-14.44-4.51-8.56-4.21-17.4-3.55-26.73.89-12.65.08-25.41.42-38.1.69-25.88.77-51.82,2.82-77.6,1.42-17.82,5.07-35.55,8.95-53,2.65-12,7.42-23.47,11.25-35.18,2.28-5.28,6.59-6.72,11.9-6.25,6.32.55,7.4-3,6.76-8.51l-12.16-1.28c1.09-2.53,1.81-4.2,2.52-5.88,1.77-3.47,4.52-6.79,5.09-10.45,1.16-7.38.88-15,1.65-22.44,1.35-13.17,3.05-26.3,4.61-39.45,0-.21.18-.43.15-.62-2.45-17.09,7-31.44,10.8-47.1,1.59-2.24,3.11-4.54,4.79-6.72,8.14-10.6,3.52-25,10.81-35.87,4.6-9.35,5.74-18.61.18-28.16a9,9,0,0,1-.17-7.13c2.9-6.51,2.52-11.87-3.35-16.53-3.69-2.92-2.9-5.54.84-8.15a33.79,33.79,0,0,0,7.44-7.08c.89-1.16,1-4.56.15-5.13-4.17-2.91-5-6.66-4.3-11.29.61-4.18,1-8.41,1.43-12.62l.31-2.24c3.23-3.09,6.21-6.5,9.73-9.2,4.61-3.53,9.33-8.29,14.59-9.24,5.56-1,7.05-2.66,6.63-7.55h0c4.08-3.8,7.67-8.45,12.37-11.16,5.28-3,6.84-6.66,5.72-12.14,1.13-11.5,1.08-23.29,3.71-34.43,3.21-13.61,8.69-26.68,13.14-40,.61-1.83.93-3.75,1.39-5.62,3.54-4.82,7.3-9.51,10.56-14.51,2.74-4.2,5.67-8.53,7.11-13.24,1.73-5.65,2-11.76,2.86-17.67-.3-2.2-.59-4.4-.89-6.59-2.15-.29-5.2-1.63-6.31-.69-12.21,10.38-25.68,19.74-31.61,35.7-3.93,6.6-6.8,14.29-12.11,19.49-5,4.94-12.59,7.31-19.13,10.63-.58.3-2.12-.51-2.72-1.22-2.81-3.39-5.44-6.92-8.18-10.46,4.35-3.39,8.67-6.07,6.11-12l-7.67-2.1c.51-7.47,9.85-15.6-3.21-21.25,2-3.63,3.62-7.37,5.9-10.68,11.36-16.47,22.76-32.92,34.44-49.18,3.56-5,7.2-10.66,12.22-13.62,12.22-7.2,25.26-13,38-19.32A32.62,32.62,0,0,1,397.2,40a5.53,5.53,0,0,1-1.95,3c-7.56,7.84-16.35,14.86-22.35,23.76-9.11,13.51-16.34,28.29-24.24,42.61-2.26,4.08-4.1,8.4-6.13,12.62,5.09-3.78,9.08-8.23,13.1-12.64,13-14.29,26-28.68,39.21-42.78a45.59,45.59,0,0,1,11.54-9.07c13.11-7,26.5-13.46,39.83-20,2.88-1.41,5.88-3,9-3.5,22.05-3.71,44.15-7.19,66.25-10.65,1.66-.26,3.44.28,6.8.61-2.93,2.28-4.38,3.51-5.92,4.6C505.85,40.25,489.2,51.75,473,63.83A38.2,38.2,0,0,0,462.9,75.92c-5,9-9.11,18.54-13.46,27.91-2.19,4.69-4.08,9.52-6.11,14.29l1,.52,45.07-50.55c2.12,10.06-2,16.28-7.6,22l1.47,1.05,5.8-3.44,29.82-15.46c9.07-3.89,18.46-7.17,27.11-11.81,12.44-6.68,25.56-9.69,39.46-10.11A54.53,54.53,0,0,1,592,51L569.37,97.08l1.71,1.55C579,94.09,587,89.75,594.73,85c6.54-4,13.69-7.7,18.93-13.12,11.79-12.18,22.51-25.39,33.84-38,1.29-1.43,3.75-2.76,5.55-2.62,11.55.87,23.07,2.24,34.62,3.27,3.83.34,5.65,1.85,6.14,5.9.21,1.82,2.31,4.15,4.12,4.92,9.09,3.85,18.07,7.63,28.61,5.16,6.53-1.53,13.55-1,20.35-1.34,8.68-1.53,8.69-1.53,8.71,7.72,0,7.33.27,14.67-.08,22-.26,5.44,1.58,8.76,6.67,11.09a198.79,198.79,0,0,1,21.71,11.45c11.87,7.35,23.74,11.59,37.33,4.41,3.56-1.88,7.7-2.75,11.66-3.79a22.74,22.74,0,0,1,7-.82c33.47,2,66.92,4.49,100.41,5.86a487.71,487.71,0,0,0,78.62-3.35c15.68-1.89,31.67-1.4,47.53-1.6,7.29-.09,14.58.81,21.88,1.13,2.38.1,4.78-.23,8.66-.44-5.93-6.81-11.09-12-15.39-17.86-3.83-5.21-8.41-6.7-14.53-6q-14.08,1.55-28.26,2.35c-6.47.35-13,.06-19.8.06,1-.44,1.95-.91,2.91-1.21,15-4.66,30.16-9,45-14.07,9-3.11,17.3-4.06,25.59,1.85,3.1,2.21,7,3.25,10.52,4.9,11.44,5.4,23.6,9.79,30.17,21.92,3.27,6,8.86,8.26,15.26,9.57,10.34,2.11,20.65,4.41,30.86,7.08,3.61.94,6.89,3.17,10.33,4.81-1.59,2.07-2.56,2.62-3.51,2.58-10.95-.52-21.89-1.39-32.85-1.66-17.79-.43-35.6-.76-53.39-.58-8.32.09-16.62,1.46-24.93,2.25-4.58.67-9.14,1.69-13.74,1.94-6,.33-12.06-.53-18,.17-7.67.91-11,7-8.5,14.16,6.48,18.66,12.92,37.32,19.54,55.93,1.33,3.72,3.43,7.18,5.18,10.75l.24,3.69c-.89,20.37-1.6,40.75-2.87,61.1-.19,3.13-2.32,6.76-4.67,9-3.28,3.1-5,5.78-2.44,9.95,7,11.75,13.75,23.74,21.28,35.17,3.87,5.87,5.78,11.66,5.52,18.65-.69,18.46-.74,36.95-1.56,55.41-.21,4.58-2.24,9.11-3.64,13.6-1.14,3.65-3.71,4.34-7.13,2.93-2.78-1.14-5.62-2.15-8.46-3.16-5.14-1.84-10.3-3.65-16.06-5.68-2.08,16.19,0,30.69,4.16,45-1.47-.47-3.24-.57-4.37-1.47-7.7-6.18-15.56-12.21-22.76-18.95-3.2-3-5.55-7.27-7.27-11.38-2.16-5.18-3.28-10.8-4.84-16.22l-1.83-.12c-4.35,9.27-8.83,18.48-12.89,27.88-.44,1,1.26,4.2,2.48,4.53,18.08,5,35.68,11,51.68,21,2,9.09,3.93,18.17,6.13,28.32,2.59-1.56,4.38-2.5,6-3.63,6.3-4.31,12.56-8.69,18.83-13l.36,6.29q-.12,20.35-.24,40.71c-.06,8.13-.34,8.43-8.33,8.46-11.1,0-22.19,0-33.81,0l29.62,18.19c-3.52,1.93-5.48,3.26-7.62,4.13-29.11,11.8-58.2,23.69-87.44,35.17-5.6,2.2-9.31,5.25-12,10.67-8,16-16.63,31.64-24.85,47.5-1.88,3.63-4.17,5-8.28,4-6.37-1.51-7.27-3.34-6.18-12.83.95-8.32,2-16.67,2.11-25,0-2.43-2.42-5.56-4.61-7.24-5.9-4.54-12.14-2.54-18.18.24-.08-3.82-.15-7.63-.22-11.45,6-20.92,11.25-42,11.49-63.88.06-5.83-.41-12.16-2.61-17.43-6.19-14.85-14-29-20.06-43.91-8.21-20.32-15-41.24-23.1-61.59-3.54-8.83-9-16.88-13.6-25.29l2.9-4.52-10.65-7.13L821.76,346.3c-9-6.4-18-12.86-27.12-19.16a13.42,13.42,0,0,0-5.78-2.58q-28.85-3-57.73-5.62c-18.63-1.67-37.26-3.36-55.92-4.62-19.31-1.3-38.67-3.07-58-2.85-21.66.25-43.31,2.4-65,3.91-9,.62-18,1.72-26.93,2.6-18,1.9-35.89,3.92-53.86,5.6a20.53,20.53,0,0,1-9.87-1.39c-18.46-8.29-36.75-16.94-55.13-25.43-1.53-.71-3.69-2-4.78-1.42-5.59,2.82-10-.68-14.76-2.18-3.4-1.07-6.78-2.21-11.14-3.64-1.47,9.74-3.71,18.59-3.71,27.44,0,3.75.21,6.31-2.58,8.84-1,.89-1.5,2.34-2.48,3.95,7.7,2.62,6.29,6.93,3.49,12.22-4.14,7.79-7.67,15.89-11.37,23.91a23.5,23.5,0,0,0-1,4.52L404,373a39.83,39.83,0,0,1-2.53,4.7c-6.64,8.47-13.53,16.75-19.89,25.41-1.87,2.55-3.57,6.34-3.15,9.25,1.21,8.5,3.59,16.82,5.39,25.24.83,3.89,3,4.63,6.61,3.75,6.48-1.56,13-2.76,19.59-4.12l5.32-1.44c4-.21,5.22,2,5.18,5.62-.08,8-.37,16,.23,23.88.21,2.65,2.34,5.84,4.55,7.53,5.19,4,11.15,5.16,17.64,2.66,3.19-1.23,6.7-1.57,10-2.6,5-1.59,7.45-.53,7.87,5.39.69,9.69,6.44,14.52,16,14.33,8.58-.17,17.28-1.6,25.69-.58,18.42,2.23,36.62,3.73,55-.17,11.26-2.38,22.1-3.6,33.25,3.76,11.91,7.86,25.57,13.17,38.77,18.87,6.68,2.89,12.76,5.79,16.58,12.38s9.49,10,17.49,9.91c5.88-.1,11.47,1.63,15.63,6.32l-.08,0c-2,3.27-4.21,6.44-6,9.82-2.84,5.36-6.41,6.26-12.12,3.92-9.25-3.79-18.88-6.65-28.35-9.9l-16.88-6.42-36.32-1.91c-.15.86-.29,1.71-.44,2.57l34.23,13.55c36,23.3,67.53,51.91,98.73,80.9l-1.09,1.55-54.84-6.35-19.63-12.9,6.6-3.79,13.6,3.67,1.05-2.27c-9.48-6.4-19-12.77-28.42-19.19-7.65-5.19-15.24-10.47-22.91-15.63-1.48-1-4-3.69-3.63,1.21-2-.42-4.18-.49-6-1.33-5.67-2.61-11.09-5.8-16.86-8.17a14.5,14.5,0,0,0-8.54-.8c-11.59,3-22.52,9.93-35.4,4.09l-.78,2.42L568,600.2l-3.34,6.54,22.85,16.35c-11.46,7-22.37,7.71-33.69,5.93-13.58-2.12-26.94-2.91-39.15,5.29-1.75,1.18-4,1.53-5.93,2.53-3.5,1.83-5.8,1-8.19-2.21q-17.36-23.28-35.19-46.21a15.17,15.17,0,0,0-7-5.1c-19.8-6-39.75-11.41-59.55-17.38-5.45-1.64-11.4-3.43-15.63-6.94-15.07-12.48-29.6-25.61-44.11-38.72-9.65-8.72-9.67-9.16-20.13-1.56-4.34,3.15-12,4.27-11.16,11.68.92,8.41,9,8,14.83,10.1,16.3,6,33,11.14,48.75,18.45,11.81,5.49,22.07,14.22,33.43,20.8,14.67,8.51,29.76,16.31,44.66,24.43,1.57.85,3.1,1.77,4.65,2.66a68.27,68.27,0,0,1-19,4.59c-6.53.56-10.14,3.41-11.56,9.85-.92,4.17-2.82,8.13-4.27,12.18l-24.55,51.77c-7,8.09-13.93,16.21-20.95,24.27-3.9,4.48-7.84,8.7-2.43,14.87,1.17,1.35.81,4,1.15,6.1-4.55,7.81-4.53,7.78,3.46,12,3.72,2,7.36,4.12,11,6.19,7,10.85,14.45,20.72,29.75,16.81,4.62,1.66,9.13,4,13.9,4.87,16,3,32.13,5.43,48.2,8.09L502,791.34h0c-1.62,1.4-3.25,2.8-4.86,4.22C485.44,805.91,474.29,817,458.76,822c-7.21,2.32-14.07,5.74-21.08,8.66,2.14,1.74,4,1.7,5.73,2.12,9,2.22,18.82-.55,27.45,5.3,13,8.79,26.53,16.79,39.91,25,4.89,3,10,5.64,15,8.45-2.9,0-5.27-1-7.72-1.74-5.32-1.58-10.8-4.64-16-4.23-16,1.28-32,3.91-47.93,6h-2.53c-7.79,2.21-15.82,3.82-23.31,6.81-6.75,2.69-12.42,2.71-18.73-1.14-4.27-2.61-9.44-5.28-14.18-5.24-8,.06-16.07,2.25-24.1,3.54-3.4-1.27-7.07-2.08-10.16-3.88-8.77-5.11-15.65,0-23,4.52l5.95.61c1.61,1.55,3,4,4.87,4.5a418.73,418.73,0,0,0,100.63,12.26c6.21,0,12.43.33,18.61.9,13.87,1.27,27.71,2.78,41.57,4.2h6.44c9,.44,18,1.09,27,1.28,10.53.22,10.53,0,10.54-10.73,0-6.25,0-12.51,0-19.82,6.84,3,11.8,5.58,17.05,7.31a41.7,41.7,0,0,1,23.94,19.2c8.84,14.93,18.31,29.49,27.52,44.21l-.07,2.45c-4.49-.39-9-.53-13.46-1.2-11-1.65-21.93-3.53-32.89-5.32-2.69-1.11-5.3-2.92-8.07-3.17-3.74-.35-7.6.48-11.41.81-16.12.41-32.25.51-48.36,1.3-33.13,1.63-65.52-5-98.24-8.08-4.05-.38-8.35,1.85-12.54,2.88-2.33-.08-4.69,0-7-.26-9.7-1.26-9.69-1.31-9.83,8.62,0,.64,0,1.27-.05,1.91l-14.12,11c1.23.8,1.72,1.37,2.28,1.45,24.29,3.54,47.7,13,73,9.71,14.22-1.87,28.75-1.39,43-3.31,7.43-1,11,.69,12.4,7.79,1.62,8.3,7,12.72,14.94,14.93,3.38.93,6.37,3.29,9.53,5l5.23,5.14c1.39,2.41,2.82,4.81,4.17,7.24,2.77,5,1.85,8.35-3.18,11.78-5.52,3.77-10.75,1.65-16.1,1.09-12.36-1.3-24.83-4.79-37-3.91-19.2,1.38-38.2,5.64-57.29,8.64-4.22.66-7.07,2.18-7.44,7.18a72.26,72.26,0,0,1-2.63,14.56c-1.85,6.42.89,8.77,6.72,10.44,8.83,2.52,17.41,5.93,26.09,9-1.17,7.21-2.24,14.43-3.54,21.62-.8,4.44.1,7.47,4.93,8.89,3.91,1.14,7.61,3,11.4,4.52l32.37,24.57,1.27,1.28c5.62,7.22,12.47,11.34,22.17,10.4,5.06-.5,10.26.66,15.41.94,11.87.65,23.5,1.27,33.69-7.26,5.71-4.79,12.81-7.89,19.18-11.92,12.13-7.67,24.81-14.49,33.84-26.35,8.31-10.91,17-21.69,31.65-24.88,1.47-.32,2.85-3.51,3.3-5.58,1.49-6.92,2.55-13.94,3.77-20.92l2.79-11.29c5.66,4.53,11.62,8.72,16.85,13.69,3.65,3.46,6.32,3.93,10.55,1,17.42-11.91,35.2-23.25,55.17-30.61l1.42-1.22c12.66-7.27,25.54-14.17,37.9-21.91,11-6.89,21.8-13.7,34.79-16.37,4.34-.89,8.44-3.12,12.55-5C835.12,955.28,845.1,946,849.75,931c2.64-8.49,6.59-17.12,15.59-21.32,13.94-6.52,21.53-17,21.5-32.67a2.06,2.06,0,0,1,.33-1.24c2.15-2.62,3.88-6,6.65-7.61,4.51-2.61,9.71-4.06,16.6-6.78-7.39-2.63-5.7-6.62-4.55-10.73,4.25-15.13,7.39-30.66,12.8-45.36,4.93-13.41,3.05-23-9.72-29.91-.38-.2-.91-.48-1-.81-.4-1.9-1.42-4.09-.84-5.68.92-2.56,2.83-4.8,4.49-7,2.13-2.9,4.29-3.06,6.73-.07Q927.56,773,937,784c2.91,3.35,3.85,6.19.69,10.15-2.81,3.52-2.48,7.58.61,11.25a48.3,48.3,0,0,1,3.47,5.44c3.05,4.79,7.61,9.22,8.85,14.43,3.06,12.88,4.87,26.07,6.63,39.21.77,5.77.18,11.73.21,17.6-.12-2.46-.23-4.93-.41-8.74-2.49,2.09-4,3.2-5.28,4.46-9.3,8.83-18.74,17.54-27.79,26.62-4.69,4.7-8.67,10.1-13,15.18a25.67,25.67,0,0,1-3.46,3.8c-19.54,14.41-38.82,29.2-58.79,43-20.52,14.16-41.21,28.21-62.76,40.69-19.91,11.54-41.11,20.83-61.62,31.35-4.94,2.53-9.41,6-14.1,9a30.9,30.9,0,0,0-5.28,2.31c-25,17.12-50.16,34.13-75,51.59-8.58,6-16.36,13.2-24.5,19.85-11.44,6.86-23.28,13.13-34.21,20.72-18.55,12.87-36.65,26.42-54.69,40-6.82,5.14-13.79,10.5-19.2,17-12.78,15.37-24.69,31.46-36.89,47.31-6.11,7.94-12.06,16-19.28,25.58,11.06-4,8.8,6,13.29,9.29a29.06,29.06,0,0,0,3.77-3.16c7.48-8.72,13.66-18.91,26-22,1.29-.32,2.46-1.7,3.37-2.84,6.7-8.41,13.26-16.92,20-25.31,7.11-8.88,14.35-17.65,21.53-26.47a43.65,43.65,0,0,0,4.6-2.27c19.77-12.68,39.65-25.19,59.15-38.26,5.61-3.77,10.12-9.2,15.13-13.86,16.58-6.78,29.24-18.44,40.17-32.25l9-5.22c-2.2,2.84-4.62,5.53-6.52,8.55-1.29,2-1.84,4.54-2.72,6.83,3,.11,4.22,1.07,4.55,4.59.54,5.71,2.37,11.29,3.83,17.66,3.69-1.68,5.86-2.52,7.9-3.62,9.6-5.17,19.09-10.57,28.8-15.53,2.47-1.26,5.61-1.21,8.44-1.76l6.55,9.7c1.51-7,2.63-12.06,3.74-17.16l24.92-11.48-19.93-10.68c4-10.7,13.37-15.93,22-21.94l25.22-9.78c-1-3.3-8.15.26-4.57-5.81l7.35-5.68-.87-1.69-33.44,10.83-.71-2.12c3.74-2.44,7.32-5.2,11.25-7.28,24.92-13.19,49.92-26.22,74.88-39.36a59.84,59.84,0,0,0,8.22-5c38.63-29.11,77.48-58,115.65-87.65,11.65-9.07,26.89-14.93,32.26-30.69,1.17-3.44,2.28-7.24,2-10.78-.73-10.48-2.34-20.9-3.16-31.37-.16-2.07,1.67-4.28,2.58-6.43,2.88,4.28,7.41,8.23,8.32,12.89,2.66,13.71,10.15,25.27,14.91,38,3.84,10.26,8.14,20.44,8.15,32.11,0,11.44,2.69,22.88,4.17,34.32a50.87,50.87,0,0,1,.64,6.38c0,16.16-.35,32.32.12,48.47.42,14.55,1.58,29,11.73,41,4.65,5.5,8.1,12,12.26,18,5.71,8.17,14.29,9.78,23,7.81,9-2,15.81,1.86,22,6.41,16.91,12.47,35.77,18.07,56.45,20.15,15.1,1.52,30,5.4,44.91,8.24,17.27,3.28,34.56,6.49,51.8,9.9,8.77,1.73,17.44,3.93,26.19,5.75,13.38,2.78,26.75,5.65,40.21,8.06,18.22,3.26,36.66,5.41,54.72,9.35,19.42,4.24,38.51,10,57.74,15.09,4.81.84,9.66,1.47,14.41,2.55,9,2,9.58,3.1,8.25,12-.06.36.28.78.81,2.16,5,.48,10.46,1.25,16,1.48,12.7.52,14.74,2.09,17.73,14.61-14.59,17-34.34,26.23-54,35.54a16.37,16.37,0,0,0-3,1.26c-19.76,14.67-44.15,14.56-66.53,20.86-10.12,2.85-20.3,5.49-30.45,8.23-1-3.9-2.54-7.78-2.73-11.72-.43-8.85-8-17.85-17.9-19.65l-5.67,37.21c-3.27,2.19-7,3.92-9.7,6.67-3.22,3.3-6.46,4.64-10.9,3.53a73.24,73.24,0,0,0-9.48-1.88,36.92,36.92,0,0,0-18.74,2.73c-12.68,5.14-22.05,14.61-32.87,22.19-.93.64-2.39.61-3.62.74-8.12.88-16.35,1.15-24.34,2.68-27,5.15-54.36,7.72-80.9,15.88-13.23,4.07-28.19,2.26-42.3,3.75-20.69,2.19-41.35,3.54-61.92,8.19-21.87,5-44.7,6-67.18,7.86-28.31,2.28-56.67,3.89-85,5.22-23.44,1.1-46.93,1.44-70.4,2-16.73.41-33.77-1.17-50.14,1.45-16.68,2.67-33-1-49.43,1-.81-6.5-4.34-9.59-11.79-10.33-2.68,9.25-2.68,9.24-13.58,10.48A21.37,21.37,0,0,0,644.32,1351.18ZM935.41,1091.4c4-4.39,7.67-9.16,12.09-13.06,5.74-5.07,8.79-15.24,5.64-23.54l-6.13,6.83c-2.06,1-4.44,1.66-6.12,3.12-5.81,5-11.24,10.55-17.09,15.56-4.45,3.81-6.16,8.06-3.94,13.63l-16,20.06.76.71,17.74-12.86,2.6,8.37C929.06,1102.87,932.24,1097.14,935.41,1091.4ZM314.66,607.6c9.37,3.7,18.75,7.37,28.11,11.11,13.92,5.55,14.13,5.42,14.4-9.73l18.32,1.16.72-1.61c-6.48-4.36-12.9-8.81-19.49-13-1.08-.68-3-.41-4.39-.17-16.49,2.85-33,5.78-51.18,9ZM529.33,90.36q17.67-15,35.33-30.1c-.09-.17-.17-.35-.26-.52L495.73,97.52l7.4,5.79c-2.17,4-4.35,8-6.37,11.74a2.69,2.69,0,0,0,1-.31c7.91-4.49,7.84-4.47,11.3,3.56,2,4.62,4.29,9.12,7.14,15.14.82-1.76,1.17-2.31,1.35-2.91Q523.47,110.45,529.33,90.36ZM307.05,677.23l2.1-.1c2.18,5,4,10.17,6.69,14.9,1.09,1.94,4.1,4.33,5.89,4.07a206.22,206.22,0,0,0,22.71-4.85c1.82-.48,4.39-2.17,4.7-3.69,2-10,4.73-20.2,4.7-30.31,0-7.22-.2-13.56,4.73-19.2,3.18-3.65,2.48-6.19-2.37-7.27l-74.8-16.63c-.87,2.29-2,4.81-2.79,7.43-4.11,13.49-9.72,26.19-18.83,37.14-1.79,2.14-4,4.3-4.76,6.82-.78,2.68-1.22,6.82.27,8.56,12.29,14.47,20.46,31.24,28.06,48.38.9,2,2.18,3.86,4.16,7.3C294.44,711.13,300.74,694.18,307.05,677.23ZM984.73,916.87l-1-1.11c-1.63.75-3.34,1.38-4.88,2.28q-8.37,4.9-16.63,10c-15.43,9.42-31.56,17.89-46,28.58-17.27,12.74-32.89,27.68-49.73,41-5.41,4.29-6.33,8.21-4.37,14.3,5.37,16.59,10.4,33.29,15.45,50,1.13,3.73,3.22,5.35,7.14,4.63s7.17-1.92,6.72-6.87c-.7-7.7-1.39-15.4-2-23.1-.56-6.78-1-13.55-1.52-20.33l1.26-.13q10,23.91,20,47.82l1.61-.51L897,1000.76l1.29-.39,19.65,39.12,2-.66v-21.77c0-12.37,0-12.56,12.52-10.36,4.38.77,6.62-.52,8.8-4.27q11.52-19.78,23.71-39.19c3.3-5.22,6.39-10,4.54-16.69-.61-2.24.9-5.42,2.21-7.75C975.83,931.38,980.35,924.17,984.73,916.87Zm275.92,237.45c-7.18,7.37-20.23,46.65-18.46,55.25l64.6-24.06c-.12-.59-.24-1.18-.35-1.76-9.41-3-18.74-6.18-28.25-8.78-4.72-1.28-8-3.37-10.16-7.92C1266,1162.67,1263.2,1158.65,1260.65,1154.32ZM433.49,1254.69c-2.44-28.78-47.52-113.14-63.54-119.14C387.72,1177,407.83,1216.93,433.49,1254.69ZM791.92,1058.5l.59.7c18.3-8,36.63-16,54.84-24.19,1.6-.73,3.62-3.31,3.43-4.76-.81-6.06-2.39-12-4.1-19.91Zm77.44,56.09,1.38-.42v-41.33c0-9-11.58-26.93-20.93-31.47C856.43,1066.19,862.9,1090.39,869.36,1114.59Zm-21.59,44-46.15,6.32-.06,1.74c10.42,5.46,20.79,11,31.33,16.24,1.15.57,4.22-.22,4.7-1.21C841,1174.61,844,1167.36,847.77,1158.55ZM637.09,116.24c-4.19-6.78-7.34-11.79-10.4-16.86-2-3.27-4.54-4-8.21-2.94-5,1.37-10.1,2.12-15.14,3.23-7.82,1.72-15.63,3.52-23.44,5.29,0,.6.07,1.2.11,1.8Zm412.84,226.6c-1,.14-1.64,0-1.78.26-5.74,8.79-11.5,17.56-17,26.48-.54.87-.09,3.43.66,3.85,5.63,3.17,11.44,6,18.15,9.4ZM348.76,482.18l-21.95-16.61L324.65,467c1.55,8.59,3.11,17.19,4.94,27.32ZM324.6,916.1l-1.9.67-4.42,21.83,1.84,1.17,16.85-8.6Zm94.17,145.7h-1.89q-4.58,19.37-9.16,38.74c5.15-6.52,8.67-13.63,12.75-20.4S422,1067.58,418.77,1061.8ZM301.38,900.28,335.85,882C320.49,879.9,308.89,884.87,301.38,900.28ZM639.08,70.61,645,90.94C649.7,82.64,648.43,78,639.08,70.61ZM601.21,195.46l-1.37,1.84c2.77,5.92,8.82,6.54,13.62,9.2l1.06-1.66Z"/><path class="cls-2" d="M895.53,594.57c6-2.78,12.28-4.78,18.18-.24,2.19,1.68,4.65,4.81,4.61,7.24-.12,8.35-1.16,16.7-2.11,25-1.09,9.49-.19,11.32,6.18,12.83,4.11,1,6.4-.39,8.28-4,8.22-15.86,16.84-31.53,24.85-47.5,2.72-5.42,6.43-8.47,12-10.67,29.24-11.48,58.33-23.37,87.44-35.17,2.14-.87,4.1-2.2,7.62-4.13L1033,519.74c11.62,0,22.71,0,33.81,0,8,0,8.27-.33,8.33-8.46q.13-20.36.24-40.71l5,18.12c-3.57,2.1-3.66,4.75-.56,7.09,2.49,1.87,5.47,3.07,8.23,4.57v2.59c-10.06,2.7-12.19,6.32-7.66,13-1,2.33-1.64,5-3.13,6.94-9.22,12.19-18.36,24.46-28.14,36.18-2.93,3.52-7.52,6.14-11.86,7.86-7,2.76-14.42,4.37-21.62,6.59-2.67.82-6.39,2.07-3.94,5.61,5.74,8.28,11.21,17.14,18.55,23.84,7.85,7.16,11.48,16.29,16.5,24.88a219.74,219.74,0,0,1-14.31-18.12c-2.07-2.84-4.2-4.44-8.12-3.05-13.6,4.82-27.31,9.34-41,14l-2.62,1.27c0-1.93-.65-4.29.22-5.7,5-8.05,10.39-15.82,15.51-23.78,2.94-4.56,5.59-9.31,8.37-14A198.33,198.33,0,0,0,971.23,587a14.16,14.16,0,0,0-7.49,6.78c-7.31,16.06-13.49,32.63-21.16,48.5-7.49,15.5-11.15,31.31-9.87,48.54,1,14.13.69,28.36,1.54,42.51a163.57,163.57,0,0,0,3.38,23.48c1.85,8.84,4.56,17.49,6.66,26.28.52,2.19.14,4.6.17,6.91-7.05,6.57-7.37,9-2.36,17.91-.1,1-.19,1.94-.29,2.91a48.3,48.3,0,0,0-3.47-5.44c-3.09-3.67-3.42-7.73-.61-11.25,3.16-4,2.22-6.8-.69-10.15q-9.51-11-18.69-22.21c-2.44-3-4.6-2.83-6.73.07-1.66,2.25-3.57,4.49-4.49,7-.58,1.59.44,3.78.84,5.68.07.33.6.61,1,.81,12.77,6.89,14.65,16.5,9.72,29.91-5.41,14.7-8.55,30.23-12.8,45.36-1.15,4.11-2.84,8.1,4.55,10.73-6.89,2.72-12.09,4.17-16.6,6.78-2.77,1.6-4.5,5-6.65,7.61a2.06,2.06,0,0,0-.33,1.24c0,15.63-7.56,26.15-21.5,32.67-9,4.2-13,12.83-15.59,21.32-4.65,15-14.63,24.27-28.31,30.43-4.11,1.85-8.21,4.08-12.55,5-13,2.67-23.8,9.48-34.79,16.37-12.36,7.74-25.24,14.64-37.9,21.91,2.3-4.13,4.68-8.22,6.88-12.41,11.27-21.48,23.42-42.13,47.54-51.83a10.91,10.91,0,0,0,1.62-1.05c5.73-3.83,6-6.4,1.39-12.58a24,24,0,0,0-2.58,1.77c-11.27,9.94-22,20.58-33.95,29.65-9,6.79-12.75,15.81-15.86,25.67-2.3,7.29-4.32,14.66-6.46,22-20,7.36-37.75,18.7-55.17,30.61-4.23,2.9-6.9,2.43-10.55-1-5.23-5-11.19-9.16-16.85-13.69,5.09-11,4.09-21-4.58-30.12-3.22-3.38-5.38-7.75-8.14-11.58a16,16,0,0,0-2.87-2.46l-1.32.77q7.07,27.33,14.12,54.68c-1.22,7-2.28,14-3.77,20.92-.45,2.07-1.83,5.26-3.3,5.58-14.67,3.19-23.34,14-31.65,24.88-9,11.86-21.71,18.68-33.84,26.35-6.37,4-13.47,7.13-19.18,11.92-10.19,8.53-21.82,7.91-33.69,7.26-5.15-.28-10.35-1.44-15.41-.94-9.7.94-16.55-3.18-22.17-10.4,11.49,1.53,23,3.26,34.5,4.5,6.09.66,13,2.27,18.29.27,14.87-5.57,29.08-12.88,43.63-19.32,4.33-1.91,6-4.75,6-9.49.06-7.48.73-15,1.37-22.42.65-7.67,1.73-15.29,2.33-23,.39-5.13-2.16-6-6.42-3.76-3.7,1.92-7.5,3.63-13,6.25,1.11-13.49-1.26-25.39,5-36.16,5.7-9.87,11.66-19.6,18-29.1,3.25-4.89,2.64-8.88-.09-13.66-6.91-12.14-13.42-24.5-20.09-36.78,11,1.79,21.91,3.67,32.89,5.32,4.45.67,9,.81,13.46,1.2v30.54l1.77.3,21.3-26.33c2.28,9,4,15.88,5.38,21.18l19.76-34.63c.61.32,1.23.63,1.85.94-5.16,15-10.28,30.09-15.48,45.12-3.55,10.25,1.61,19.34,3.81,28.81a3.7,3.7,0,0,0,2.39,2c5.3,1.46,10.66,2.74,17.91,4.56-2.55-5.95-4.26-10.23-6.21-14.39s-1.68-7.65,2-10.94c6.46-5.68,13.07-11.29,18.85-17.64,8.79-9.66,19-16.29,32.19-17.18,10.88-.73,17.82-6.86,24.4-14.76,21.47-25.73,41.81-52.58,69.26-72.63-.52,2.3-.69,4.76-1.63,6.88-6.56,14.83-6.5,30.48-6,46.19.08,2.22.43,4.43.79,8,4.68-3.91,8-7.13,11.82-9.77,5.82-4.06,7.58-9.41,6.64-16.21-1.07-7.64-1.53-15.36-2.68-23-.95-6.28-2.53-12.46-3.83-18.68,3.52-4.88,6.69-10,10.64-14.55,5.38-6.11,8.26-12.56,7.81-21-.64-12.21-1-24.56,3.9-36.3,1.74-4.16,3.47-8.52,4-12.93.77-6.13,1.7-12.77.07-18.48-.93-3.25-6.66-5.39-10.53-7.46-4.28-2.28-4.33-4.89-1.63-8.23a118.21,118.21,0,0,1,7.89-9.38c4.54-4.56,6.08-9.26,2-14.84-5-6.86-4.91-13.85-.85-21.14,1.35-2.42,2.08-5.19,3.13-7.79,3.15-7.79,6.23-15.61,9.5-23.35,2.43-5.74,8.1-6,13.06-6.39.77,0,2.76,5.88,2.81,9.07.28,17.89.11,35.78.15,53.67,0,2.48.3,5,.56,8.81,7-4.25,12.7-5,16.14,4.58,5.44-10.12,10.45-18.37,14.31-27.13,1.67-3.77,1.75-8.69,1.18-12.9-1.23-8.9-3.7-17.62-5.05-26.51-2.24-14.87-4-29.82-6-44.73C898.37,614.12,896.92,604.35,895.53,594.57ZM875.67,834.7c8.85-1.6,17.72-3.18,26.57-4.82,5.14-1,4.21-4.28,3.12-7.88-1.2-4-3.3-4.56-6.71-2.59-4.37,2.54-8.82,5-14.39,8.05.71-2.73,1-4.13,1.43-5.44,3.09-8.49,6.25-16.94,9.34-25.42,2.47-6.82-1.17-20-7-24.39-1.91,15.34-3.66,30.44-5.73,45.51C881.48,823.64,882.61,830.62,875.67,834.7Zm4.12-79.05-2.22-1.07c-6.27,8.27-12.59,16.51-18.73,24.87a4.18,4.18,0,0,0-.24,3.68c3.16,5.93,6.56,11.73,9.88,17.57l1.8-.43Z"/><path class="cls-2" d="M1074.94,118.71c8.31-.79,16.61-2.16,24.93-2.25,17.79-.18,35.6.15,53.39.58,11,.27,21.9,1.14,32.85,1.66,1,0,1.92-.51,3.51-2.58-3.44-1.64-6.72-3.87-10.33-4.81-10.21-2.67-20.52-5-30.86-7.08-6.4-1.31-12-3.56-15.26-9.57-6.57-12.13-18.73-16.52-30.17-21.92-3.5-1.65-7.42-2.69-10.52-4.9-8.29-5.91-16.54-5-25.59-1.85-14.86,5.11-30,9.41-45,14.07-1,.3-1.86.77-2.91,1.21,6.83,0,13.33.29,19.8-.06q14.16-.78,28.26-2.35c6.12-.68,10.7.81,14.53,6,4.3,5.84,9.46,11.05,15.39,17.86-3.88.21-6.28.54-8.66.44-7.3-.32-14.59-1.22-21.88-1.13-15.86.2-31.85-.29-47.53,1.6A487.71,487.71,0,0,1,940.25,107c-33.49-1.37-66.94-3.91-100.41-5.86a22.74,22.74,0,0,0-7,.82c-4,1-8.1,1.91-11.66,3.79-13.59,7.18-25.46,2.94-37.33-4.41a198.79,198.79,0,0,0-21.71-11.45c-5.09-2.33-6.93-5.65-6.67-11.09.35-7.31.1-14.65.08-22,0-9.25,0-9.25-8.71-7.72l-2.19-.41c9.32-5.18,18.75-5.38,29.26-3.14,13,2.77,26,.44,38.41-4.76,2.59-1.08,5.87-1.83,8.51-1.27,10.75,2.32,21.15,3.07,31.44-2.1,2.21-1.11,5.36-.4,8.07-.42,7.85-.06,15.69.08,23.53-.12,9.39-.23,18.76-.71,28.14-1.12,6.42-.28,12.83-.68,19.25-.94a72.35,72.35,0,0,1,8.2,0c1.91.14,3.78,1,5.68,1.09,25.34,1,50.68,1.67,76,2.82,4.53.21,9,1.94,13.47,3.21,2.68.77,5.13,2.5,7.83,3,13.85,2.36,27.82,4.06,41.59,6.77,11.29,2.23,22.37,5.55,33.54,8.4,5.4,1.39,10.72,3.65,16.2,4.07,27,2.07,53.38,7.22,79.59,13.6.65,15.09-2.47,12.52,13.58,19,3.19,1.29,6.55,2.25,9.54,3.88,6.8,3.7,13.75,4,21.15,2.31,8.59-1.92,17.32-3.18,25.91-5.07,3.48-.76,6.77-2.41,10.15-3.66,18.07,4.59,36.07,9.47,54.24,13.63,7.66,1.75,15.77,1.53,23.51,3.06,5.31,1,10.21,4,15.5,5.28,4.7,1.09,9.7,1.18,14.57,1.27,9.94.18,11.44,1.55,12,13-12.82,0-25.61-.14-38.4.07-4.7.08-9.6.28-14,1.63-17.41,5.31-34.64,3.86-52.26,1-11.09-1.84-22.62-.93-33.92-1.66a170.13,170.13,0,0,1-18.36-2.51c-5.48-.95-10.85-3.07-16.33-3.35-17.19-.87-34.44-.67-51.61-1.72-17-1-34-3.09-50.94-4.69-1.28-.12-2.57-.33-3.85-.33q-27.45,0-54.9,0Zm-70-48.19c-.19-.61-.38-1.22-.58-1.84-10,2.36-20,4.55-29.93,7.15-4.18,1.1-6.88.52-8.94-3.57-3.11-6.14-6.88-11.93-9.93-18.1-2.12-4.29-4.3-5.27-8.41-2.35-9.1,6.48-18.59,12.42-27.54,19.09-8.7,6.48-16.92,13.59-26.38,21.26,2.87.39,4.26.69,5.68.76,9.87.45,19.74,1.1,29.61,1.2S949.2,96.21,958,93C974.28,87.21,989.39,78.21,1005,70.52ZM832.7,43.86c18.07,10.59,36.67,6.56,56.69,2.64C869.85,40.29,851.51,38.79,832.7,43.86Z"/><path class="cls-3" d="M983.31,620.64c13.67-4.63,27.38-9.15,41-14,3.92-1.39,6,.21,8.12,3.05a219.74,219.74,0,0,0,14.31,18.12c-5-8.59-8.65-17.72-16.5-24.88-7.34-6.7-12.81-15.56-18.55-23.84-2.45-3.54,1.27-4.79,3.94-5.61,7.2-2.22,14.64-3.83,21.62-6.59,4.34-1.72,8.93-4.34,11.86-7.86,9.78-11.72,18.92-24,28.14-36.18,1.49-2,2.11-4.61,3.13-6.94l7.66-13v-2.59q-3.82-5.83-7.67-11.66l-5-18.12-.36-6.29q.78-7.17,1.57-14.34c0,4.49-.21,9,.24,13.47.31,3.06,1.6,6,2.46,9,.06.19.27.34.34.54,2.8,8.16,3.79,16.73,9.33,24.25,2.92,4,.7,10.51-3.15,15.43-2.3,3-2.9,7.25-4.26,10.94-4.72,6.8-9.48,13.59-14.12,20.44a5.92,5.92,0,0,0-1.15,3.59c.74,6.58-3.07,10.63-7.28,14.87-8.53,8.61-8.51,13.26-.74,23.25,2.27,14.31,4.68,28.6,6.68,42.94.44,3.14-.33,6.53-1,9.7a39.14,39.14,0,0,1-2.91,8.92c-4.09,8.53-8.45,16.94-12.7,25.39-1,.84-2.49,1.46-3,2.54-7.47,16.59-13.33,33.92-24.06,49-7.46,10.45-14.18,21.44-21.22,32.2-8.18,12.29-16.48,24.5-24.39,37-1,1.65-.11,4.57-.08,6.91-4-.37-8.15-.32-12.05-1.23-2.93-.68-6.52-1.88-8.17-4.08-3-4-6.34-5.36-10.91-5,0-2.31.35-4.72-.17-6.91-2.1-8.79-4.81-17.44-6.66-26.28a163.57,163.57,0,0,1-3.38-23.48c-.85-14.15-.49-28.38-1.54-42.51-1.28-17.23,2.38-33,9.87-48.54,7.67-15.87,13.85-32.44,21.16-48.5a14.16,14.16,0,0,1,7.49-6.78,198.33,198.33,0,0,1,33.56-8.55c-2.78,4.66-5.43,9.41-8.37,14-5.12,8-10.54,15.73-15.51,23.78-.87,1.41-.18,3.77-.22,5.7a212.14,212.14,0,0,0,25.87,33.67,15.09,15.09,0,0,0-3.12-7.58C996.78,638.85,990,629.76,983.31,620.64Zm15.38,54-35.17,38.41,1.39,1.52c19-10.4,38-20.74,56.85-31.32,1-.58,1.84-3.67,1.24-4.63-3.94-6.18-8.3-12.09-13-18.74-.49,1.72-.71,2.51-.93,3.29Z"/><path class="cls-3" d="M941.81,810.83c.1-1,.19-1.94.29-2.91,4.42,5.77,8.29,12.07,13.39,17.16,6.13,6.11,13.3,11.19,20,16.72-.91,2.15-2.74,4.36-2.58,6.43.82,10.47,2.43,20.89,3.16,31.37.25,3.54-.86,7.34-2,10.78-5.37,15.76-20.61,21.62-32.26,30.69-38.17,29.7-77,58.54-115.65,87.65a59.84,59.84,0,0,1-8.22,5c-25,13.14-50,26.17-74.88,39.36-3.93,2.08-7.51,4.84-11.25,7.28l.71,2.12L766,1051.68l.87,1.69-7.35,5.68-20.65,15.59c-8.64,6-18.05,11.24-22,21.94q-2.49,11.09-5,22.16c-1.11,5.1-2.23,10.21-3.74,17.16l-6.55-9.7c-1.92-3.56-3.38-7.51-5.93-10.54-1.54-1.83-5.15-3.61-7.18-3.05-13.57,3.73-27,8.09-40.41,12.25.88-2.29,1.43-4.79,2.72-6.83,1.9-3,4.32-5.71,6.52-8.55q11.46-13.86,22.91-27.74l-1.6-1.36c-4.31,4.61-8.73,9.12-12.89,13.86-5.91,6.73-11.61,13.63-17.4,20.46-10.93,13.81-23.59,25.47-40.17,32.25-15.55,7.8-30.77,16.4-46.76,23.17-15.11,6.39-23.69,18.49-32.12,31.22-7.18,8.82-14.42,17.59-21.53,26.47-6.72,8.39-13.28,16.9-20,25.31-.91,1.14-2.08,2.52-3.37,2.84-12.33,3.06-18.51,13.25-26,22a29.06,29.06,0,0,1-3.77,3.16c-4.49-3.26-2.23-13.28-13.29-9.29,7.22-9.59,13.17-17.64,19.28-25.58,12.2-15.85,24.11-31.94,36.89-47.31,5.41-6.5,12.38-11.86,19.2-17,18-13.6,36.14-27.15,54.69-40,10.93-7.59,22.77-13.86,34.21-20.72,18.13-10.93,37-20.9,54.22-33.07,17.64-12.43,33.75-27,50.53-40.68,4.69-3,9.16-6.47,14.1-9,20.51-10.52,41.71-19.81,61.62-31.35,21.55-12.48,42.24-26.53,62.76-40.69,20-13.79,39.25-28.58,58.79-43a25.67,25.67,0,0,0,3.46-3.8c1.58-1.06,3.26-2,4.73-3.21q20.9-17.11,41.73-34.31c0-5.87.56-11.83-.21-17.6-1.76-13.14-3.57-26.33-6.63-39.21C949.42,820.05,944.86,815.62,941.81,810.83Z"/><path class="cls-2" d="M744.7,48.69l2.19.41c-6.8.37-13.82-.19-20.35,1.34C716,52.91,707,49.13,697.93,45.28c-1.81-.77-3.91-3.1-4.12-4.92-.49-4-2.31-5.56-6.14-5.9-11.55-1-23.07-2.4-34.62-3.27-1.8-.14-4.26,1.19-5.55,2.62-11.33,12.64-22,25.85-33.84,38-5.24,5.42-12.39,9.08-18.93,13.12C587,89.75,579,94.09,571.08,98.63l-1.71-1.55L592,51a54.53,54.53,0,0,0-6.58-.62c-13.9.42-27,3.43-39.46,10.11-8.65,4.64-18,7.92-27.11,11.81,3.58-4.16,7.65-8,10.6-12.55,4.3-6.66,7.92-13.79,11.54-20.86.81-1.58.41-3.78.57-5.7-1.87.66-4.21.81-5.52,2-7,6.66-13.86,13.51-20.6,20.46-7.77,8-15.49,16.09-22.93,24.42-1.78,2-2.35,5.06-3.48,7.64l-5.8,3.44-1.47-1.05c5.62-5.73,9.72-11.95,7.6-22l-45.07,50.55-1-.52c2-4.77,3.92-9.6,6.11-14.29,4.35-9.37,8.5-18.87,13.46-27.91A38.2,38.2,0,0,1,473,63.83c16.22-12.08,32.87-23.58,49.35-35.31,1.54-1.09,3-2.32,5.92-4.6-3.36-.33-5.14-.87-6.8-.61-22.1,3.46-44.2,6.94-66.25,10.65-3.11.53-6.11,2.09-9,3.5-13.33,6.57-26.72,13-39.83,20a45.59,45.59,0,0,0-11.54,9.07c-13.24,14.1-26.17,28.49-39.21,42.78-4,4.41-8,8.86-13.1,12.64,2-4.22,3.87-8.54,6.13-12.62,7.9-14.32,15.13-29.1,24.24-42.61,6-8.9,14.79-15.92,22.35-23.76a5.53,5.53,0,0,0,1.95-3A32.62,32.62,0,0,0,393,41.41c-12.74,6.32-25.78,12.12-38,19.32-5,3-8.66,8.66-12.22,13.62-11.68,16.26-23.08,32.71-34.44,49.18-2.28,3.31-3.92,7.05-5.9,10.68,13.06,5.65,3.72,13.78,3.21,21.25l7.67,2.1-1.85.19H302.6c2.12-6.86,3.9-12.61,5.87-19-8.74-1-8.86-4.21-5.6-10.8,1.84-3.71-.21-9.48-.89-14.27s-1.85-9.59-2.8-14.37c2.82-1.52,6.58-2.35,8.3-4.69C314,85.83,319.77,76.46,326,67.4c1.55-2.27,3.29-4.87,5.6-6.06,10.12-5.24,20.48-10,30.76-15l-24.29,15a3.93,3.93,0,0,0,3.55-.13L468.39,3.9l28.84-1.58C512.42,1.48,527.61.14,542.8,0c10-.09,20,1.71,30.06,2.32,3.6.22,7.27-.89,10.88-.74,2.83.12,5.65,1.15,8.41,2,4.2,1.26,8.33,3.74,12.53,3.83,11.87.23,23.68,0,34.49,6.05a2.72,2.72,0,0,0,1.86.4c17.2-5.52,33,5.22,49.86,4.2a11.69,11.69,0,0,1,6.78,1.46c13,8.62,25.82,17.6,38.85,26.23C738.87,47.28,742,47.73,744.7,48.69Z"/><path class="cls-4" d="M362.34,46.37c-10.28,5-20.64,9.73-30.76,15-2.31,1.19-4.05,3.79-5.6,6.06-6.21,9.06-12,18.43-18.5,27.26-1.72,2.34-5.48,3.17-8.3,4.69-2-2-3.68-5-6.1-5.86C280,88.69,266.9,84.05,253.6,80c-14.1-4.25-28.42-7.74-42.65-11.56-3.66-1.59-7.18-3.87-11-4.67C159,55.27,118.18,46.5,78.52,33c-8-2.71-16-5.24-24-7.86,0-.58.1-1.16.16-1.74l37.5-10.92c-.84,11-.84,11,8.81,13.77,4.35,1.24,8.73,2.37,13.1,3.54,19.14,5.12,38,11.59,57.47,15,23.25,4.08,47.1,4.67,70.42,8.45,13.41,2.18,22.22-4.88,32.44-11.51l-38.59-11a38.09,38.09,0,0,1,10.55-.86q28.36,1,56.71,2.2c8.39,1.29,16.88,2.09,25.13,4,10.88,2.49,20.95,3.53,31.67-2.07,10.08-5.28,21.39-8.2,32.15-12.16.48,2.61.95,5.23,1.43,7.85Z"/><path class="cls-5" d="M303.06,32q-28.35-1.11-56.71-2.2a38.09,38.09,0,0,0-10.55.86l38.59,11c-10.22,6.63-19,13.69-32.44,11.51-23.32-3.78-47.17-4.37-70.42-8.45-19.43-3.41-38.33-9.88-57.47-15-4.37-1.17-8.75-2.3-13.1-3.54-9.65-2.76-9.65-2.79-8.81-13.77L54.65,23.4c-.06.58-.11,1.16-.16,1.74,8,2.62,16.05,5.15,24,7.86C118.18,46.5,159,55.27,199.94,63.8c3.83.8,7.35,3.08,11,4.67-17.88-3.79-35.73-7.73-53.65-11.32-34-6.8-68-13.15-101.89-20.21-15.24-3.17-30.23-7.55-45.28-11.56-1.72-.46-4.05-1.84-4.52-3.3-2-6.39-3.5-13-5.61-21.22,10.68.87,19.36,1.29,28,2.36S44.85,6.56,53.38,7.3c27.85,2.44,55.8,4,83.62,6.72,20.53,2,40.86,6.07,61.39,8.12C228,25.09,257.61,27,287.21,29.5,292.53,30,297.78,31.16,303.06,32Z"/><path class="cls-2" d="M1076.58,449.93q-.8,7.17-1.57,14.34c-6.27,4.34-12.53,8.72-18.83,13-1.65,1.13-3.44,2.07-6,3.63-2.2-10.15-4.16-19.23-6.13-28.32-.06-1.77-.13-3.54-.2-5.31-4.17-14.32-6.24-28.82-4.16-45,5.76,2,10.92,3.84,16.06,5.68,2.84,1,5.68,2,8.46,3.16,3.42,1.41,6,.72,7.13-2.93,1.4-4.49,3.43-9,3.64-13.6.82-18.46.87-37,1.56-55.41.26-7-1.65-12.78-5.52-18.65-7.53-11.43-14.23-23.42-21.28-35.17-2.51-4.17-.84-6.85,2.44-9.95,2.35-2.21,4.48-5.84,4.67-9,1.27-20.35,2-40.73,2.87-61.1,1,4.56,2,9.11,3,13.67,3.57,16,7.74,31.85,10.53,48,2,11.57,2.18,23.45,3.18,35.2.23,2.77-.45,6.15.89,8.21,5.5,8.47,4.19,17.77,4.26,26.94s-.28,18.11.08,27.14c.63,15.64,3.28,31.4,2,46.85C1082.62,424.19,1084.69,438.17,1076.58,449.93Z"/><path class="cls-6" d="M1293.75,94.22c-3.38,1.25-6.67,2.9-10.15,3.66-8.59,1.89-17.32,3.15-25.91,5.07-7.4,1.66-14.35,1.39-21.15-2.31-3-1.63-6.35-2.59-9.54-3.88-16-6.48-12.93-3.91-13.58-19,14.82-.4,28.36,5.83,42.66,8.23C1268.74,88.12,1281.2,91.43,1293.75,94.22Z"/><path class="cls-7" d="M975.59,800.28c0-2.34-1-5.26.08-6.91,7.91-12.47,16.21-24.68,24.39-37,7.4-6.31,14.65-12.81,22.32-18.77,1.93-1.5,5.21-1.27,7.86-1.83-1,5.3-3.08,9.3-8.67,11.66-4.91,2.08-7.41,6.31-9.15,12.13-2,6.68-7.27,12.53-11.71,18.29C993.77,786.87,986.69,795.87,975.59,800.28Z"/><path class="cls-8" d="M362.34,46.37l31.1-16.76,16.68-10.25c10.85-3.83,22-6.54,31.24-14.5,2.95-2.56,9-2,13.61-2.1,4.46-.11,8.94.72,13.42,1.14L341.6,61.26a3.93,3.93,0,0,1-3.55.13Z"/><path class="cls-9" d="M1470,1196.49c-3-12.52-5-14.09-17.73-14.61-5.49-.23-11-1-16-1.48-.53-1.38-.87-1.8-.81-2.16,1.33-8.91.71-10-8.25-12-4.75-1.08-9.6-1.71-14.41-2.55,8.79-.06,17.1.47,25.71,4.07,8.89,3.72,19.24,3.85,28.85,6,8.09,1.81,16,4.26,24,6.44,2.67.73,5.33,1.49,8.57,2.39C1487.81,1183.38,1478.68,1189.5,1470,1196.49Z"/><path class="cls-2" d="M311.49,157.75l1.85-.19c2.56,5.9-1.76,8.58-6.11,12,2.74,3.54,5.37,7.07,8.18,10.46.6.71,2.14,1.52,2.72,1.22,6.54-3.32,14.1-5.69,19.13-10.63,5.31-5.2,8.18-12.89,12.11-19.49.05.93.1,1.86.14,2.79q-7.41,20.35-14.82,40.71c-1.71,4.71-3.37,9.43-6.37,13.83l-3.94-14-8.49,9.83c-2.23-8.4-4.52-17.22-7-26a9.08,9.08,0,0,0-2.4-3.72c-5.32-5.27-5.22-5.8,1.87-9.35C311.48,163.61,314.13,161.76,311.49,157.75Z"/><path class="cls-2" d="M1289.71,1268.22l5.67-37.21c9.92,1.8,17.47,10.8,17.9,19.65.19,3.94,1.78,7.82,2.73,11.72Z"/><path class="cls-2" d="M1030.24,735.8c-2.65.56-5.93.33-7.86,1.83-7.67,6-14.92,12.46-22.32,18.77,7-10.76,13.76-21.75,21.22-32.2,10.73-15.05,16.59-32.38,24.06-49,.49-1.08,2-1.7,3-2.54-3.76,12.77-7.58,25.52-11.26,38.31C1034.69,719.24,1032.51,727.54,1030.24,735.8Z"/><path class="cls-10" d="M1074.94,118.71l4,.08c-5.69,4.08-11.63,5.45-18.74,3.65-4.66-1.17-9.86-.85-14.73-.38-5.92.57-7.56,4.8-3.71,9.31,3.15,3.7,3.2,7.29,2.44,11.9-.66,4.07.72,8.5,1.41,12.74.19,1.21,1.34,2.24,1.69,3.45q6.12,21.07,12.12,42.2c-1.75-3.57-3.85-7-5.18-10.75-6.62-18.61-13.06-37.27-19.54-55.93-2.49-7.16.83-13.25,8.5-14.16,5.91-.7,12,.16,18-.17C1065.8,120.4,1070.36,119.38,1074.94,118.71Z"/><path class="cls-11" d="M116.31,1243.85c-2.44,3.23-4.68,6.65-7.38,9.65-7.75,8.61-15.69,17-23.55,25.56l-16.59-7.2,7.59-4.69c2.93-1.06,6.15-1.65,8.74-3.25C95.62,1257.4,105.93,1250.57,116.31,1243.85Z"/><path class="cls-12" d="M300.06,299.66c-.47,4.21-.82,8.44-1.43,12.62-.68,4.63.13,8.38,4.3,11.29.82.57.74,4-.15,5.13a33.79,33.79,0,0,1-7.44,7.08c-3.74,2.61-4.53,5.23-.84,8.15,5.87,4.66,6.25,10,3.35,16.53a9,9,0,0,0,.17,7.13c5.56,9.55,4.42,18.81-.19,28.16-.06-.93-.13-1.86-.2-2.78.74-4.85,1.5-9.7,2.2-14.55a4.37,4.37,0,0,0-.09-2.55c-4.18-7.05-6.37-14.18-2.65-22.27.46-1-1.35-3.59-2.69-4.8-5.69-5.08-4.54-10.69-2.64-17.13,2.2-7.44,3-15.29,4.71-22.88C297.2,305.64,298.83,302.7,300.06,299.66Z"/><path class="cls-13" d="M349.51,153.88c0-.93-.09-1.86-.14-2.79,5.93-16,19.4-25.32,31.61-35.7,1.11-.94,4.16.4,6.31.69l-1.47.41c-7,1.28-14.73,9.39-15.76,16.51h0c-1.46,2.29-3.22,4.45-4.32,6.91-2,4.41-4.42,7.68-10,6.88-.75-.11-1.68,1.06-2.53,1.64Z"/><path class="cls-14" d="M1058.25,585.74c-7.77-10-7.79-14.64.74-23.25,4.21-4.24,8-8.29,7.28-14.87a5.92,5.92,0,0,1,1.15-3.59c4.64-6.85,9.4-13.64,14.12-20.44-2.82,6.08-5.67,12.16-8.45,18.26-1.54,3.38-2.92,6.82-4.47,10.19-1.38,3-2.32,6.46-4.43,8.85-5.43,6.16-13.19,11.26-6.15,21C1058.66,582.8,1058.21,584.45,1058.25,585.74Z"/><path class="cls-15" d="M156.42,1221.82c0-.39.05-.79.08-1.19l64.78-31.07,3.84,0q-28.17,13.55-56.34,27.06C164.75,1218.56,160.55,1220.1,156.42,1221.82Z"/><path class="cls-16" d="M644.32,1351.18a21.37,21.37,0,0,1,3.06-.83c10.9-1.24,10.9-1.23,13.58-10.48,7.45.74,11,3.83,11.79,10.33Z"/><path class="cls-17" d="M179.88,1309.74c0-1.51-.7-3.39,0-4.44,1.51-2.39,3.67-4.38,5.57-6.53,1.6,2.13,3.84,4,4.62,6.44.83,2.55.28,5.55.33,8.35Z"/><path class="cls-18" d="M593.88,1353.81l7.36-15.29c3.88,5.91,1.93,15.94,12.26,14.26Z"/><path class="cls-19" d="M410.12,19.36,393.44,29.61c-.48-2.62-.95-5.24-1.43-7.85C397.58,17.46,403.93,19,410.12,19.36Z"/><path class="cls-20" d="M370.06,133c1-7.12,8.77-15.23,15.76-16.51Z"/><path class="cls-21" d="M895.53,594.57c1.39,9.78,2.84,19.55,4.16,29.33,2,14.91,3.73,29.86,6,44.73,1.35,8.89,3.82,17.61,5.05,26.51.57,4.21.49,9.13-1.18,12.9-3.86,8.76-8.87,17-14.31,27.13-3.44-9.55-9.18-8.83-16.14-4.58-.26-3.85-.55-6.33-.56-8.81,0-17.89.13-35.78-.15-53.67,0-3.19-2-9.12-2.81-9.07-5,.34-10.63.65-13.06,6.39-3.27,7.74-6.35,15.56-9.5,23.35-1,2.6-1.78,5.37-3.13,7.79-4.06,7.29-4.19,14.28.85,21.14,4.11,5.58,2.57,10.28-2,14.84a118.21,118.21,0,0,0-7.89,9.38c-2.7,3.34-2.65,6,1.63,8.23,3.87,2.07,9.6,4.21,10.53,7.46,1.63,5.71.7,12.35-.07,18.48-.56,4.41-2.29,8.77-4,12.93-4.94,11.74-4.54,24.09-3.9,36.3.45,8.46-2.43,14.91-7.81,21-4,4.5-7.12,9.67-10.64,14.55l-5.11,6.59c-27.45,20-47.79,46.9-69.26,72.63-6.58,7.9-13.52,14-24.4,14.76-13.17.89-23.4,7.52-32.19,17.18-5.78,6.35-12.39,12-18.85,17.64-3.73,3.29-4,6.72-2,10.94s3.66,8.44,6.21,14.39c-7.25-1.82-12.61-3.1-17.91-4.56a3.7,3.7,0,0,1-2.39-2c-2.2-9.47-7.36-18.56-3.81-28.81,5.2-15,10.32-30.08,15.48-45.12-.62-.31-1.24-.62-1.85-.94l-19.76,34.63c-1.35-5.3-3.1-12.2-5.38-21.18L624,973.39l-1.77-.3V942.55c0-.82,0-1.63.07-2.45,1.66-21.25-5.22-39.72-18.13-56.31-4.76-6.11-8.87-12.73-13.84-18.65a24.56,24.56,0,0,0-9.45-7c-10.43-4-21-7.77-31.78-10.74a68.85,68.85,0,0,0-18.83-2.15c-10.52.11-21,1.27-31.53,1.56-1.8.05-5.17-1.91-5.25-3.12-.77-10.58-4.08-21.18.95-31.76,3.12-6.57,5.1-13.68,7.6-20.55h0l2.34-4,10.53-27.22a20.06,20.06,0,0,1,1.4-4.28C520,749.71,518,746.1,512,742.6c-15.66-9-30.93-18.74-46.38-28.13a15,15,0,0,0-3.09-1.06c6.5,8.39,13.56,15.87,20.55,23.41,1.59,1.72,3.68,3.45,4.28,5.54,3.19,11.18,6,22.45,8.9,33.72.86,3.4-.52,4.92-4.1,4.36-4.45-.71-8.92-1.32-13.38-2-16.07-2.66-32.18-5.12-48.2-8.09-4.77-.89-9.28-3.21-13.9-4.87L386.9,748.7c-3.67-2.07-7.31-4.21-11-6.19-8-4.26-8-4.23-3.46-12,6.84-13,13.72-26.06,20.46-39.15.95-1.84,1.19-4.05,1.77-6.09q12.27-25.89,24.55-51.77l41.55-10V650l16.79-13.61a46,46,0,0,1,3.09,4.81c3.89,8.39,7.9,16.74,11.46,25.27,2.15,5.14,4.63,8.71,11,8.9,8.71.27,17.4,1.51,27.59,2.47-3.09,7.69-5.73,14.15-8.27,20.66-.69,1.77-2.09,4.54-1.39,5.37,5.6,6.73.7,13.6.83,20.35.06,3.31-.12,7.36,1.63,9.76,3.88,5.33,8.91,9.82,13.47,14.66,10.71,12.53,21.38,25.09,32.23,37.51.82.94,3.55,1.62,4.26,1,5.19-4.24,10.08-8.83,15-13.23l-14-13.66c-8.76-23.39-17.12-46.91-21.74-71.82a18.76,18.76,0,0,1,7.43,4.12c4.69,4.59,8.91,4.14,14.33.7,12.55-8,25.43-15.41,38.38-22.7,6.69-3.77,13.58-7.56,20.84-9.86,9.41-3,19.29-4.47,29-6.66,6.36-1.45,12.71-3,19.06-4.51l0-1.72-45.88-17.72.44-1.11,19.82,1.75,54.84,6.35,1.09-1.55c-31.2-29-62.73-57.6-98.73-80.9-8.37-8.24-8.21-9.14,2.53-14.21l16.88,6.42a56,56,0,0,0,5.64,3c22,8.7,43.84,17.63,62.4,32.86,1.66,1.37,3.76,2.21,6.9,4-5.31-18.7-12.6-34-28.46-43.65l.08,0a49.8,49.8,0,0,0-4.71-5.85c-3.76-3.49-8.76-6-11.49-10.15-10.92-16.42-26.12-26.85-44-34.36-4.13-1.74-7.78-5.19-11-8.52-4.89-5.12-9.15-10.84-13.77-16.23-3.47-4.06-6.89-6.07-11.78-1.26-6.58,6.47-13.93,12.16-20.62,18.54-3.08,2.94-5.72,3.09-9.16,1.08-9.67-5.64-19.43-11.14-29.12-16.76-.64-.37-1-1.3-1.76-2.43,7-8.27,14.08-16.35,20.81-24.69,1.64-2,3.21-5,3-7.46-.43-6.74-1.8-13.42-3-21.54-11.07,7.24-21,13.59-30.69,20.2-1.19.8-2,2.89-2.09,4.45-1,11.35-1.87,22.71-2.78,34.06-.15,1.92-.38,3.84-.58,5.76a27.06,27.06,0,0,1-3.06-11.45c-.2-6.31-3.29-6.51-8.07-4.66-4.25,1.64-8.62,3-14.09,4.82,1.26-16.17,16-21.87,21.16-33.76-4.3-3-8.66-5.43-12.3-8.68-4.5-4-7.45-3.51-10.86,1.35-4.77,6.79-10.12,13.17-15.22,19.72l-1.53-.37-2.52-28-1.39-.21q-9.3,19.56-18.58,39.12a9.66,9.66,0,0,1-.24-7.18c6-16.14,3-30.45-7.58-43.88-4.47-5.65-10.57-12.3.63-19.43-7.25-3.73-12.85-7.47-19-9.59-10-3.42-13.53-10-11.37-19.71a31.52,31.52,0,0,1,5.18-11.36c3.76-5.21,8.64-9.61,12.49-14.76,2.68-3.59,5.16-3.78,8.77-1.83,5.31,2.86,10.92,5.2,16.14,8.2,5.46,3.13,9.08,2.26,13.27-2.71,2.89-3.45,7.73-5.71,12.14-7.31,3.94-1.43,8.49-1.14,12.74-1.78,14-2.1,28-4.27,42-6.42,9-.88,17.93-2,26.93-2.6,21.64-1.51,43.29-3.66,65-3.91,19.32-.22,38.68,1.55,58,2.85,18.66,1.26,37.29,2.95,55.92,4.62q28.88,2.61,57.73,5.62a13.42,13.42,0,0,1,5.78,2.58c9.09,6.3,18.09,12.76,27.12,19.16-2.28,2.14-3.39,4.31-.18,6.6,6.76,9.71,13.38,19.51,20.3,29.1,8.1,11.25,14.58,22.9,16.89,37.05,2.41,14.71,4.67,29.8,14.45,42.27,1.57,2,1.44,5.81,1.17,8.69-.71,7.48-1.84,14.92-3,22.35-1.28,8.22-.66,8.86,7.17,11.39,3.6,1.16,8,3,9.82,5.89,7.67,12.58,9,26.09,6.47,40.87-1.8,10.54.16,21.72.45,32.61C895.38,586.94,895.45,590.75,895.53,594.57Zm-369.1-208,2.64-1.67c0-11.56.09-23.12-.18-34.67,0-.95-3.11-2.95-3.7-2.6-7.71,4.43-15.22,9.2-24.35,14.86Z"/><path class="cls-13" d="M575.88,936c6.67,12.28,13.18,24.64,20.09,36.78,2.73,4.78,3.34,8.77.09,13.66-6.3,9.5-12.26,19.23-18,29.1-6.22,10.77-3.85,22.67-5,36.16,5.47-2.62,9.27-4.33,13-6.25,4.26-2.2,6.81-1.37,6.42,3.76-.6,7.67-1.68,15.29-2.33,23-.64,7.46-1.31,14.94-1.37,22.42,0,4.74-1.67,7.58-6,9.49-14.55,6.44-28.76,13.75-43.63,19.32-5.33,2-12.2.39-18.29-.27-11.53-1.24-23-3-34.5-4.5l-1.27-1.28c-5.82-14.74-17.14-22.23-32.37-24.57-3.79-1.53-7.49-3.38-11.4-4.52-4.83-1.42-5.73-4.45-4.93-8.89,1.3-7.19,2.37-14.41,3.54-21.62.84-3.75,1.44-7.59,2.62-11.23.82-2.52,1.93-5.36,3.81-7,7.52-6.7,15.54-12.86,23.09-19.53,4.54-4,9-5.34,14.45-2.11,2.39,1.41,5.28,2,7.6,3.48,11.23,7.21,22.58,5.68,34.46,1.65,10.27-3.48,20.92-5.84,33.44-9.26l-32.8-21.93-5.23-5.14c2.33-8.5,4.6-17,7-25.48,2.55-9,2.25-9.68-7.13-9.41-23.81.69-47.62,2.1-71.43,2.34-21.69.22-43.38-.75-65.07-1.09-4.18-.07-5.94-2-5.54-6,.23-2.34.74-4.65,1.13-7,0-.64,0-1.27.05-1.91.14-9.93.13-9.88,9.83-8.62,2.31.3,4.67.18,7,.26a45.9,45.9,0,0,0,5.6,1.22c14.51,1.42,29,2.9,43.57,4.08,26.64,2.16,53.18,7.09,80.07,2.48,9.9-1.7,19.93-2.61,29.9-3.88,3.81-.33,7.67-1.16,11.41-.81C570.58,933.11,573.19,934.92,575.88,936Z"/><path class="cls-15" d="M656.09,630.81l-19.82-1.75-.44,1.11,45.88,17.72,0,1.72c-6.35,1.51-12.7,3.06-19.06,4.51-9.67,2.19-19.55,3.67-29,6.66-7.26,2.3-14.15,6.09-20.84,9.86-13,7.29-25.83,14.74-38.38,22.7-5.42,3.44-9.64,3.89-14.33-.7a18.76,18.76,0,0,0-7.43-4.12c4.62,24.91,13,48.43,21.74,71.82-3.25-2.78-6.58-5.46-9.73-8.35q-12.78-11.72-25.43-23.58c-3.16-2.95-6.19-6-9.71-9.49-3.48,7.45-3.6,13.11.83,18.75,2.62,3.34,4.42,7.32,6.59,11-4.56-4.84-9.59-9.33-13.47-14.66-1.75-2.4-1.57-6.45-1.63-9.76-.13-6.75,4.77-13.62-.83-20.35-.7-.83.7-3.6,1.39-5.37,2.54-6.51,5.18-13,8.27-20.66-10.19-1-18.88-2.2-27.59-2.47-6.4-.19-8.88-3.76-11-8.9-3.56-8.53-7.57-16.88-11.46-25.27a46,46,0,0,0-3.09-4.81L460.74,650v-26.6l-41.55,10c1.45-4.05,3.35-8,4.27-12.18,1.42-6.44,5-9.29,11.56-9.85a68.27,68.27,0,0,0,19-4.59c-1.55-.89-3.08-1.81-4.65-2.66-14.9-8.12-30-15.92-44.66-24.43-11.36-6.58-21.62-15.31-33.43-20.8-15.71-7.31-32.45-12.41-48.75-18.45-5.82-2.15-13.91-1.69-14.83-10.1-.81-7.41,6.82-8.53,11.16-11.68,10.46-7.6,10.48-7.16,20.13,1.56,14.51,13.11,29,26.24,44.11,38.72,4.23,3.51,10.18,5.3,15.63,6.94,19.8,6,39.75,11.43,59.55,17.38a15.17,15.17,0,0,1,7,5.1q17.83,22.92,35.19,46.21c2.39,3.2,4.69,4,8.19,2.21,1.9-1,4.18-1.35,5.93-2.53,12.21-8.2,25.57-7.41,39.15-5.29,11.32,1.78,22.23,1,33.69-5.93l-22.85-16.35L568,600.2l-32.79-22.08.78-2.42c12.88,5.84,23.81-1.11,35.4-4.09a14.5,14.5,0,0,1,8.54.8c5.77,2.37,11.19,5.56,16.86,8.17,1.82.84,4,.91,6,1.33,1.36,2.18,3.09,4.22,4,6.57,5.94,14.81,17.19,22.34,32.64,24.38a18.83,18.83,0,0,1,3.63,1.26l-6.6,3.79Zm-119.4,11.67c-.2.74-.39,1.48-.59,2.23l37.21,13.84,1.59-2.09c-2.1-2.58-3.77-6.78-6.36-7.47C558.08,646.23,547.33,644.56,536.69,642.48ZM468.27,601.2c-2.39-7-36.92-17.38-53.42-17.08Z"/><path class="cls-2" d="M525.34,318c-14,2.15-28,4.32-42,6.42-4.25.64-8.8.35-12.74,1.78-4.41,1.6-9.25,3.86-12.14,7.31-4.19,5-7.81,5.84-13.27,2.71-5.22-3-10.83-5.34-16.14-8.2-3.61-1.95-6.09-1.76-8.77,1.83-3.85,5.15-8.73,9.55-12.49,14.76A31.52,31.52,0,0,0,402.6,356c-2.16,9.73,1.42,16.29,11.37,19.71,6.16,2.12,11.76,5.86,19,9.59-11.2,7.13-5.1,13.78-.63,19.43,10.61,13.43,13.6,27.74,7.58,43.88a9.66,9.66,0,0,0,.24,7.18q9.29-19.56,18.58-39.12l1.39.21,2.52,28,1.53.37c5.1-6.55,10.45-12.93,15.22-19.72,3.41-4.86,6.36-5.36,10.86-1.35,3.64,3.25,8,5.7,12.3,8.68-5.11,11.89-19.9,17.59-21.16,33.76,5.47-1.86,9.84-3.18,14.09-4.82,4.78-1.85,7.87-1.65,8.07,4.66a27.06,27.06,0,0,0,3.06,11.45c.2-1.92.43-3.84.58-5.76.91-11.35,1.74-22.71,2.78-34.06.14-1.56.9-3.65,2.09-4.45,9.73-6.61,19.62-13,30.69-20.2,1.22,8.12,2.59,14.8,3,21.54.16,2.43-1.41,5.42-3,7.46C536,450.75,529,458.83,521.93,467.1c.8,1.13,1.12,2.06,1.76,2.43,9.69,5.62,19.45,11.12,29.12,16.76,3.44,2,6.08,1.86,9.16-1.08,6.69-6.38,14-12.07,20.62-18.54,4.89-4.81,8.31-2.8,11.78,1.26,4.62,5.39,8.88,11.11,13.77,16.23,3.18,3.33,6.83,6.78,11,8.52,17.84,7.51,33,17.94,44,34.36,2.73,4.11,7.73,6.66,11.49,10.15a49.8,49.8,0,0,1,4.71,5.85c-4.16-4.69-9.75-6.42-15.63-6.32-8,.13-13.66-3.33-17.49-9.91s-9.9-9.49-16.58-12.38c-13.2-5.7-26.86-11-38.77-18.87-11.15-7.36-22-6.14-33.25-3.76-18.42,3.9-36.62,2.4-55,.17-8.41-1-17.11.41-25.69.58-9.53.19-15.28-4.64-16-14.33-.42-5.92-2.82-7-7.87-5.39-3.29,1-6.8,1.37-10,2.6-6.49,2.5-12.45,1.29-17.64-2.66-2.21-1.69-4.34-4.88-4.55-7.53-.6-7.92-.31-15.92-.23-23.88,0-3.64-1.19-5.83-5.18-5.62,4.94-4.75,10-9.37,14.71-14.33,1.11-1.17,1.87-4.71,1.31-5.12-5-3.64-10.33-6.82-16.45-10.71-1.83,11.8-3.36,21.7-4.89,31.6-6.54,1.36-13.11,2.56-19.59,4.12-3.65.88-5.78.14-6.61-3.75-1.8-8.42-4.18-16.74-5.39-25.24-.42-2.91,1.28-6.7,3.15-9.25,6.36-8.66,13.25-16.94,19.89-25.41A39.83,39.83,0,0,0,404,373l-45.87-2.55a23.5,23.5,0,0,1,1-4.52c3.7-8,7.23-16.12,11.37-23.91,2.8-5.29,4.21-9.6-3.49-12.22,1-1.61,1.48-3.06,2.48-3.95,2.79-2.53,2.58-5.09,2.58-8.84,0-8.85,2.24-17.7,3.71-27.44,4.36,1.43,7.74,2.57,11.14,3.64,4.78,1.5,9.17,5,14.76,2.18,1.09-.54,3.25.71,4.78,1.42,18.38,8.49,36.67,17.14,55.13,25.43a20.53,20.53,0,0,0,9.87,1.39C489.45,321.9,507.39,319.88,525.34,318Z"/><path class="cls-22" d="M307.05,677.23c-6.31,16.95-12.61,33.9-19.54,52.55-2-3.44-3.26-5.28-4.16-7.3-7.6-17.14-15.77-33.91-28.06-48.38-1.49-1.74-1-5.88-.27-8.56.73-2.52,3-4.68,4.76-6.82,9.11-11,14.72-23.65,18.83-37.14.79-2.62,1.92-5.14,2.79-7.43l74.8,16.63c4.85,1.08,5.55,3.62,2.37,7.27-4.93,5.64-4.75,12-4.73,19.2,0,10.11-2.7,20.26-4.7,30.31-.31,1.52-2.88,3.21-4.7,3.69a206.22,206.22,0,0,1-22.71,4.85c-1.79.26-4.8-2.13-5.89-4.07-2.65-4.73-4.51-9.9-6.69-14.9Zm-11.34-54.55-1.71.63c.14,3.25-.35,6.7.58,9.71,1.5,4.9,3.93,9.51,6,14.24,4.66,10.69,4.67,10.69,13.63,3a9.9,9.9,0,0,1,1-.79c3-1.92,2.65-4,.43-6.32-5.14-5.47-10.15-11.07-15.3-16.53A51.14,51.14,0,0,0,295.71,622.68Z"/><path class="cls-19" d="M984.73,916.87c-4.38,7.3-8.9,14.51-13.06,21.93-1.31,2.33-2.82,5.51-2.21,7.75,1.85,6.73-1.24,11.47-4.54,16.69q-12.24,19.37-23.71,39.19c-2.18,3.75-4.42,5-8.8,4.27-12.49-2.2-12.52-2-12.52,10.36v21.77l-2,.66-19.65-39.12-1.29.39,13.74,62.64-1.61.51q-10-23.91-20-47.82l-1.26.13c.5,6.78,1,13.55,1.52,20.33.63,7.7,1.32,15.4,2,23.1.45,4.95-2.82,6.14-6.72,6.87s-6-.9-7.14-4.63c-5-16.69-10.08-33.39-15.45-50-2-6.09-1-10,4.37-14.3,16.84-13.36,32.46-28.3,49.73-41,14.49-10.69,30.62-19.16,46-28.58q8.26-5.06,16.63-10c1.54-.9,3.25-1.53,4.88-2.28Z"/><path class="cls-23" d="M502,791.34c-2.5,6.87-4.48,14-7.6,20.55-5,10.58-1.72,21.18-.95,31.76.08,1.21,3.45,3.17,5.25,3.12,10.52-.29,21-1.45,31.53-1.56a68.85,68.85,0,0,1,18.83,2.15c10.77,3,21.35,6.71,31.78,10.74a24.56,24.56,0,0,1,9.45,7c5,5.92,9.08,12.54,13.84,18.65,12.91,16.59,19.79,35.06,18.13,56.31-9.21-14.72-18.68-29.28-27.52-44.21a41.7,41.7,0,0,0-23.94-19.2c-5.25-1.73-10.21-4.34-17.05-7.31,0,7.31,0,13.57,0,19.82,0,10.77,0,10.95-10.54,10.73-9-.19-18-.84-27-1.28L542,894.59c-16.43-12.92-34.12-18.87-54.08-19.35-11.27-.28-22.5-2.38-33.74-3.66,16-2.11,31.89-4.74,47.93-6,5.18-.41,10.66,2.65,16,4.23,2.45.74,4.82,1.73,7.72,1.74-5-2.81-10.15-5.44-15-8.45-13.38-8.21-26.91-16.21-39.91-25-8.63-5.85-18.4-3.08-27.45-5.3-1.73-.42-3.59-.38-5.73-2.12,7-2.92,13.87-6.34,21.08-8.66,15.53-5,26.68-16.09,38.42-26.44C498.79,794.14,500.42,792.74,502,791.34Z"/><path class="cls-24" d="M895.31,583.12c-.29-10.89-2.25-22.07-.45-32.61,2.52-14.78,1.2-28.29-6.47-40.87-1.77-2.91-6.22-4.73-9.82-5.89-7.83-2.53-8.45-3.17-7.17-11.39,1.15-7.43,2.28-14.87,3-22.35.27-2.88.4-6.69-1.17-8.69-9.78-12.47-12-27.56-14.45-42.27-2.31-14.15-8.79-25.8-16.89-37.05-6.92-9.59-13.54-19.39-20.3-29.1l7.8,2.52,18,15.6c4.59,8.41,10.06,16.46,13.6,25.29,8.15,20.35,14.89,41.27,23.1,61.59,6,14.9,13.87,29.06,20.06,43.91,2.2,5.27,2.67,11.6,2.61,17.43C906.56,541.13,901.27,562.2,895.31,583.12Z"/><path class="cls-22" d="M526.65,991.8l32.8,21.93c-12.52,3.42-23.17,5.78-33.44,9.26-11.88,4-23.23,5.56-34.46-1.65-2.32-1.49-5.21-2.07-7.6-3.48-5.48-3.23-9.91-1.89-14.45,2.11-7.55,6.67-15.57,12.83-23.09,19.53-1.88,1.69-3,4.53-3.81,7-1.18,3.64-1.78,7.48-2.62,11.23-8.68-3-17.26-6.44-26.09-9-5.83-1.67-8.57-4-6.72-10.44a72.26,72.26,0,0,0,2.63-14.56c.37-5,3.22-6.52,7.44-7.18,19.09-3,38.09-7.26,57.29-8.64,12.18-.88,24.65,2.61,37,3.91,5.35.56,10.58,2.68,16.1-1.09,5-3.43,6-6.82,3.18-11.78C529.47,996.61,528,994.21,526.65,991.8Z"/><path class="cls-25" d="M509.83,898.66c-13.86-1.42-27.7-2.93-41.57-4.2-6.18-.57-12.4-.89-18.61-.9A418.73,418.73,0,0,1,349,881.3c-1.88-.46-3.26-2.95-4.87-4.5L392,886.14l.43-1.55-21.08-9c8-1.29,16.06-3.48,24.1-3.54,4.74,0,9.91,2.63,14.18,5.24,6.31,3.85,12,3.83,18.73,1.14,7.49-3,15.52-4.6,23.31-6.81,1.78,1.38,3.36,3.19,5.36,4.07C474.57,883.41,492.21,891,509.83,898.66Z"/><path class="cls-18" d="M380.38,940c-.39,2.33-.9,4.64-1.13,7-.4,4,1.36,5.93,5.54,6,21.69.34,43.38,1.31,65.07,1.09,23.81-.24,47.62-1.65,71.43-2.34,9.38-.27,9.68.43,7.13,9.41-2.4,8.47-4.67,17-7,25.48-3.16-1.72-6.15-4.08-9.53-5-8-2.21-13.32-6.63-14.94-14.93-1.39-7.1-5-8.79-12.4-7.79-14.22,1.92-28.75,1.44-43,3.31-25.34,3.32-48.75-6.17-73-9.71-.56-.08-1.05-.65-2.28-1.45Z"/><path class="cls-26" d="M1260.65,1154.32c2.55,4.33,5.34,8.35,7.38,12.73,2.12,4.55,5.44,6.64,10.16,7.92,9.51,2.6,18.84,5.82,28.25,8.78.11.58.23,1.17.35,1.76l-64.6,24.06C1240.42,1201,1253.47,1161.69,1260.65,1154.32Z"/><path class="cls-27" d="M433.49,1254.69c-25.66-37.76-45.77-77.71-63.54-119.14C386,1141.55,431.05,1225.91,433.49,1254.69Z"/><path class="cls-28" d="M509.83,898.66c-17.62-7.65-35.26-15.25-52.82-23-2-.88-3.58-2.69-5.36-4.07h2.53c11.24,1.28,22.47,3.38,33.74,3.66,20,.48,37.65,6.43,54.08,19.35l-25.73,4.06Z"/><path class="cls-23" d="M504.38,787.39l-2.34,4-23.29-12.87c4.46.65,8.93,1.26,13.38,2,3.58.56,5-1,4.1-4.36-2.88-11.27-5.71-22.54-8.9-33.72-.6-2.09-2.69-3.82-4.28-5.54-7-7.54-14.05-15-20.55-23.41a15,15,0,0,1,3.09,1.06c15.45,9.39,30.72,19.1,46.38,28.13,6.07,3.5,8,7.11,4.34,13.29a20.06,20.06,0,0,0-1.4,4.28c-2.08-1.38-4.7-2.36-6.12-4.24-4.41-5.83-8.35-12-12.47-18l-1.87.87Z"/><path class="cls-29" d="M648,1124.86c13.45-4.16,26.84-8.52,40.41-12.25,2-.56,5.64,1.22,7.18,3.05,2.55,3,4,7,5.93,10.54-2.83.55-6,.5-8.44,1.76-9.71,5-19.2,10.36-28.8,15.53-2,1.1-4.21,1.94-7.9,3.62-1.46-6.37-3.29-11.95-3.83-17.66C652.23,1125.93,651,1125,648,1124.86Z"/><path class="cls-30" d="M791.92,1058.5l54.76-48.16c1.71,7.89,3.29,13.85,4.1,19.91.19,1.45-1.83,4-3.43,4.76-18.21,8.21-36.54,16.16-54.84,24.19Z"/><path class="cls-5" d="M1043.82,447.3c.07,1.77.14,3.54.2,5.31-16-10-33.6-16.08-51.68-21-1.22-.33-2.92-3.51-2.48-4.53,4.06-9.4,8.54-18.61,12.89-27.88l1.83.12c1.56,5.42,2.68,11,4.84,16.22,1.72,4.11,4.07,8.39,7.27,11.38,7.2,6.74,15.06,12.77,22.76,18.95C1040.58,446.73,1042.35,446.83,1043.82,447.3Z"/><path class="cls-22" d="M679.18,543.08c15.86,9.66,23.15,24.95,28.46,43.65-3.14-1.79-5.24-2.63-6.9-4-18.56-15.23-40.41-24.16-62.4-32.86a56,56,0,0,1-5.64-3c9.47,3.25,19.1,6.11,28.35,9.9,5.71,2.34,9.28,1.44,12.12-3.92C675,549.52,677.16,546.35,679.18,543.08Z"/><path class="cls-31" d="M489.05,87.71c1.13-2.58,1.7-5.65,3.48-7.64,7.44-8.33,15.16-16.4,22.93-24.42,6.74-6.95,13.59-13.8,20.6-20.46,1.31-1.24,3.65-1.39,5.52-2-.16,1.92.24,4.12-.57,5.7-3.62,7.07-7.24,14.2-11.54,20.86-3,4.56-7,8.39-10.6,12.55Z"/><path class="cls-32" d="M710.31,1047.42c-16.78,13.65-32.89,28.25-50.53,40.68-17.26,12.17-36.09,22.14-54.22,33.07,8.14-6.65,15.92-13.82,24.5-19.85,24.81-17.46,49.93-34.47,75-51.59A30.9,30.9,0,0,1,710.31,1047.42Z"/><path class="cls-33" d="M529.22,1201.34c8.43-12.73,17-24.83,32.12-31.22,16-6.77,31.21-15.37,46.76-23.17-5,4.66-9.52,10.09-15.13,13.86-19.5,13.07-39.38,25.58-59.15,38.26A43.65,43.65,0,0,1,529.22,1201.34Z"/><path class="cls-34" d="M503.13,103.31l-7.4-5.79L564.4,59.74c.09.17.17.35.26.52Q547,75.32,529.33,90.36l-21.85,19.16Z"/><path class="cls-35" d="M734.78,1005.91c2.14-7.34,4.16-14.71,6.46-22,3.11-9.86,6.91-18.88,15.86-25.67,11.93-9.07,22.68-19.71,33.95-29.65a24,24,0,0,1,2.58-1.77c4.66,6.18,4.34,8.75-1.39,12.58a10.91,10.91,0,0,1-1.62,1.05c-24.12,9.7-36.27,30.35-47.54,51.83-2.2,4.19-4.58,8.28-6.88,12.41Z"/><path class="cls-36" d="M869.36,1114.59c-6.46-24.2-12.93-48.4-19.55-73.22,9.35,4.54,20.92,22.45,20.93,31.47v41.33Z"/><path class="cls-24" d="M847.77,1158.55c-3.81,8.81-6.77,16.06-10.18,23.09-.48,1-3.55,1.78-4.7,1.21-10.54-5.23-20.91-10.78-31.33-16.24l.06-1.74Z"/><path class="cls-16" d="M556.4,933.67c-10,1.27-20,2.18-29.9,3.88-26.89,4.61-53.43-.32-80.07-2.48-14.54-1.18-29.06-2.66-43.57-4.08a45.9,45.9,0,0,1-5.6-1.22c4.19-1,8.49-3.26,12.54-2.88C442.52,930,474.91,936.6,508,935,524.15,934.18,540.28,934.08,556.4,933.67Z"/><path class="cls-37" d="M637.09,116.24,580,106.76c0-.6-.07-1.2-.11-1.8,7.81-1.77,15.62-3.57,23.44-5.29,5-1.11,10.17-1.86,15.14-3.23,3.67-1,6.23-.33,8.21,2.94C629.75,104.45,632.9,109.46,637.09,116.24Z"/><path class="cls-26" d="M314.66,607.6l-13.51-3.23c18.22-3.22,34.69-6.15,51.18-9,1.43-.24,3.31-.51,4.39.17,6.59,4.18,13,8.63,19.49,13l-.72,1.61L357.17,609c-3.82-.29-7.64-.75-11.46-.84C335.36,607.88,325,607.77,314.66,607.6Z"/><path class="cls-6" d="M643.06,614.12a18.83,18.83,0,0,0-3.63-1.26c-15.45-2-26.7-9.57-32.64-24.38-.94-2.35-2.67-4.39-4-6.57-.33-4.9,2.14-2.21,3.62-1.21,7.67,5.16,15.26,10.44,22.91,15.63,9.46,6.42,18.94,12.79,28.42,19.19l-1.05,2.27Z"/><path class="cls-38" d="M922.4,1101.85l-17.74,12.86-.76-.71,16-20.06L947,1061.63l6.13-6.83c3.15,8.3.1,18.47-5.64,23.54-4.42,3.9-8.09,8.67-12.09,13.06C928.77,1092,925.56,1096.9,922.4,1101.85Z"/><path class="cls-33" d="M1049.93,342.84v40c-6.71-3.41-12.52-6.23-18.15-9.4-.75-.42-1.2-3-.66-3.85,5.53-8.92,11.29-17.69,17-26.48C1048.29,342.88,1048.92,343,1049.93,342.84Z"/><path class="cls-39" d="M649.42,1033.09q-7-27.34-14.12-54.68l1.32-.77a16,16,0,0,1,2.87,2.46c2.76,3.83,4.92,8.2,8.14,11.58,8.67,9.11,9.67,19.07,4.58,30.12Z"/><path class="cls-40" d="M503.13,103.31l4.35,6.21,21.85-19.16q-5.88,20.08-11.77,40.17c-.18.6-.53,1.15-1.35,2.91-2.85-6-5.14-10.52-7.14-15.14-3.46-8-3.39-8-11.3-3.56a2.69,2.69,0,0,1-1,.31C498.78,111.32,501,107.32,503.13,103.31Z"/><path class="cls-28" d="M410.06,437.18c1.53-9.9,3.06-19.8,4.89-31.6,6.12,3.89,11.45,7.07,16.45,10.71.56.41-.2,3.95-1.31,5.12-4.7,5-9.77,9.58-14.71,14.33Z"/><path class="cls-35" d="M314.66,607.6c10.35.17,20.7.28,31,.54,3.82.09,7.64.55,11.46.84-.27,15.15-.48,15.28-14.4,9.73C333.41,615,324,611.3,314.66,607.6Z"/><path class="cls-18" d="M348.76,482.18l-19.17,12.17c-1.83-10.13-3.39-18.73-4.94-27.32l2.16-1.46Z"/><path class="cls-13" d="M371.33,875.55l21.08,9-.43,1.55-47.83-9.34-5.95-.61c7.32-4.52,14.2-9.63,23-4.52C364.26,873.47,367.93,874.28,371.33,875.55Z"/><path class="cls-41" d="M957.5,882.07q-20.87,17.16-41.73,34.31c-1.47,1.2-3.15,2.15-4.73,3.21,4.31-5.08,8.29-10.48,13-15.18,9.05-9.08,18.49-17.79,27.79-26.62,1.33-1.26,2.79-2.37,5.28-4.46C957.27,877.14,957.38,879.61,957.5,882.07Z"/><path class="cls-40" d="M394.64,685.23c-.58,2-.82,4.25-1.77,6.09-6.74,13.09-13.62,26.11-20.46,39.15-.34-2.07,0-4.75-1.15-6.1-5.41-6.17-1.47-10.39,2.43-14.87C380.71,701.44,387.66,693.32,394.64,685.23Z"/><path class="cls-11" d="M615.82,540.5c-10.74,5.07-10.9,6-2.53,14.21l-34.23-13.55c.15-.86.29-1.71.44-2.57Z"/><path class="cls-42" d="M711.82,1118.74q2.49-11.07,5-22.16l19.93,10.68Z"/><path class="cls-9" d="M324.6,916.1,337,931.17l-16.85,8.6-1.84-1.17,4.42-21.83Z"/><path class="cls-25" d="M418.77,1061.8c3.18,5.78,5.83,11.46,1.7,18.33s-7.6,13.88-12.75,20.4q4.59-19.37,9.16-38.74Z"/><path class="cls-2" d="M301.38,900.28c7.51-15.41,19.11-20.38,34.47-18.24Z"/><path class="cls-43" d="M947,1061.63l-27.15,32.31c-2.22-5.57-.51-9.82,3.94-13.63,5.85-5,11.28-10.51,17.09-15.56C942.57,1063.29,945,1062.65,947,1061.63Z"/><path class="cls-2" d="M452.77,1092.81c15.23,2.34,26.55,9.83,32.37,24.57Z"/><path class="cls-44" d="M386.9,748.7l29.75,16.81C401.35,769.42,393.85,759.55,386.9,748.7Z"/><path class="cls-25" d="M648.27,1114.7c5.79-6.83,11.49-13.73,17.4-20.46,4.16-4.74,8.58-9.25,12.89-13.86l1.6,1.36q-11.46,13.88-22.91,27.74Z"/><path class="cls-42" d="M738.82,1074.64l20.65-15.59c-3.58,6.07,3.52,2.51,4.57,5.81Z"/><path class="cls-45" d="M922.4,1101.85c3.16-4.95,6.37-9.84,13-10.45-3.17,5.74-6.35,11.47-10.41,18.82Z"/><path class="cls-46" d="M847.43,371l-18-15.6a44.28,44.28,0,0,0,5.75,3.43c1.35.57,3,.37,4.55.52l10.65,7.13Z"/><path class="cls-47" d="M639.08,70.61c9.35,7.41,10.62,12,5.94,20.33Z"/><path class="cls-48" d="M601.21,195.46l13.31,9.38-1.06,1.66c-4.8-2.66-10.85-3.28-13.62-9.2Z"/><path class="cls-40" d="M839.68,359.37c-1.53-.15-3.2.05-4.55-.52a44.28,44.28,0,0,1-5.75-3.43l-7.8-2.52c-3.21-2.29-2.1-4.46.18-6.6Z"/><path class="cls-49" d="M821.46,867.49l5.11-6.59c1.3,6.22,2.88,12.4,3.83,18.68,1.15,7.63,1.61,15.35,2.68,23,.94,6.8-.82,12.15-6.64,16.21-3.77,2.64-7.14,5.86-11.82,9.77-.36-3.56-.71-5.77-.79-8-.5-15.71-.56-31.36,6-46.19C820.77,872.25,820.94,869.79,821.46,867.49Z"/><path class="cls-50" d="M875.67,834.7c6.94-4.08,5.81-11.06,6.62-17,2.07-15.07,3.82-30.17,5.73-45.51,5.84,4.39,9.48,17.57,7,24.39-3.09,8.48-6.25,16.93-9.34,25.42-.47,1.31-.72,2.71-1.43,5.44,5.57-3.1,10-5.51,14.39-8.05,3.41-2,5.51-1.38,6.71,2.59,1.09,3.6,2,6.92-3.12,7.88C893.39,831.52,884.52,833.1,875.67,834.7Z"/><path class="cls-7" d="M879.79,755.65l-9.51,44.62-1.8.43c-3.32-5.84-6.72-11.64-9.88-17.57a4.18,4.18,0,0,1,.24-3.68c6.14-8.36,12.46-16.6,18.73-24.87Z"/><path class="cls-40" d="M983.31,620.64c6.72,9.12,13.47,18.21,20.13,27.36a15.09,15.09,0,0,1,3.12,7.58,212.14,212.14,0,0,1-25.87-33.67Z"/><path class="cls-2" d="M1088,502.93l-7.66,13C1075.83,509.25,1078,505.63,1088,502.93Z"/><path class="cls-2" d="M1080.35,488.68q3.84,5.82,7.67,11.66c-2.76-1.5-5.74-2.7-8.23-4.57C1076.69,493.43,1076.78,490.78,1080.35,488.68Z"/><path class="cls-33" d="M1005,70.52c-15.59,7.69-30.7,16.69-47,22.52-8.82,3.17-19.58,1.19-29.46,1.08s-19.74-.75-29.61-1.2c-1.42-.07-2.81-.37-5.68-.76,9.46-7.67,17.68-14.78,26.38-21.26,9-6.67,18.44-12.61,27.54-19.09,4.11-2.92,6.29-1.94,8.41,2.35,3,6.17,6.82,12,9.93,18.1,2.06,4.09,4.76,4.67,8.94,3.57,9.92-2.6,19.95-4.79,29.93-7.15C1004.6,69.3,1004.79,69.91,1005,70.52Z"/><path class="cls-51" d="M832.7,43.86c18.81-5.07,37.15-3.57,56.69,2.64C869.37,50.42,850.77,54.45,832.7,43.86Z"/><path class="cls-52" d="M1009.09,663.21c.22-.78.44-1.57.93-3.29,4.68,6.65,9,12.56,13,18.74.6,1-.22,4.05-1.24,4.63-18.87,10.58-37.87,20.92-56.85,31.32l-1.39-1.52q17.58-19.2,35.17-38.41c-.76,5.51-1.53,11-2.3,16.67C1005.14,684,1007.43,673.76,1009.09,663.21Z"/><path class="cls-15" d="M1009.09,663.21c-1.66,10.55-4,20.81-12.7,28.14.77-5.64,1.54-11.16,2.3-16.67Z"/><path class="cls-53" d="M537,748.68c-2.17-3.69-4-7.67-6.59-11-4.43-5.64-4.31-11.3-.83-18.75,3.52,3.45,6.55,6.54,9.71,9.49q12.68,11.85,25.43,23.58c3.15,2.89,6.48,5.57,9.73,8.35l14,13.66c-4.9,4.4-9.79,9-15,13.23-.71.58-3.44-.1-4.26-1C558.35,773.77,547.68,761.21,537,748.68Z"/><path class="cls-54" d="M526.43,386.54l-25.59-24.08C510,356.8,517.48,352,525.19,347.6c.59-.35,3.68,1.65,3.7,2.6.27,11.55.18,23.11.18,34.67Z"/><path class="cls-13" d="M504.38,787.39l-9.93-48.63,1.87-.87c4.12,6,8.06,12.21,12.47,18,1.42,1.88,4,2.86,6.12,4.24Z"/><path class="cls-53" d="M536.69,642.48c10.64,2.08,21.39,3.75,31.85,6.51,2.59.69,4.26,4.89,6.36,7.47l-1.59,2.09L536.1,644.71C536.3,644,536.49,643.22,536.69,642.48Z"/><path class="cls-55" d="M468.27,601.2l-53.42-17.08C431.35,583.82,465.88,594.18,468.27,601.2Z"/><path class="cls-56" d="M295.71,622.68a51.14,51.14,0,0,1,4.63,3.91c5.15,5.46,10.16,11.06,15.3,16.53,2.22,2.37,2.52,4.4-.43,6.32a9.9,9.9,0,0,0-1,.79c-9,7.72-9,7.72-13.63-3-2.05-4.73-4.48-9.34-6-14.24-.93-3-.44-6.46-.58-9.71Z"/></svg>