<svg id="Layer_1" data-name="Layer 1" xmlns="http://www.w3.org/2000/svg" viewBox="0 0 1500 1353.81"><path d="M1491.43,1180.18c-8-2.18-16-4.63-24-6.44-9.61-2.14-20-2.27-28.85-6-8.61-3.6-16.92-4.13-25.71-4.07-19.23-5.09-38.32-10.85-57.74-15.09-18.06-3.94-36.5-6.09-54.72-9.35-13.46-2.41-26.83-5.28-40.21-8.06-8.75-1.82-17.42-4-26.19-5.75-17.24-3.41-34.53-6.62-51.8-9.9-15-2.84-29.81-6.72-44.91-8.24-20.68-2.08-39.54-7.68-56.45-20.15-6.18-4.55-13-8.44-22-6.41-8.71,2-17.29.36-23-7.81-4.16-5.94-7.61-12.45-12.26-18-10.15-12-11.31-26.48-11.73-41-.47-16.15-.07-32.31-.12-48.47a50.87,50.87,0,0,0-.64-6.38c-1.48-11.44-4.17-22.88-4.17-34.32,0-11.67-4.31-21.85-8.15-32.11-4.76-12.7-12.25-24.26-14.91-38-.91-4.66-5.44-8.61-8.32-12.89-6.72-5.53-13.89-10.61-20-16.72-5.1-5.09-9-11.39-13.39-17.16-5-8.93-4.69-11.34,2.36-17.91,0-.58,0-1.16,0-1.74s0-1.17.07-1.76c0,.59,0,1.17-.07,1.76s0,1.16,0,1.74c4.57-.4,8,1,10.91,5,1.65,2.2,5.24,3.4,8.17,4.08,3.9.91,8,.86,12.05,1.23,0-.3,0-.6-.05-.9,0,.3,0,.6.05.9,11.1-4.41,18.18-13.41,25.12-22.4,4.44-5.76,9.72-11.61,11.71-18.29,1.74-5.82,4.24-10.05,9.15-12.13,5.59-2.36,7.69-6.36,8.67-11.66,2.27-8.26,4.45-16.56,6.82-24.8,3.68-12.79,7.5-25.54,11.26-38.31a8.83,8.83,0,0,1-.83.6,8.83,8.83,0,0,0,.83-.6c4.25-8.45,8.61-16.86,12.7-25.39a39.14,39.14,0,0,0,2.91-8.92c.67-3.17,1.44-6.56,1-9.7-2-14.34-4.41-28.63-6.68-42.94,0-1.29.41-2.94-.21-3.81-7-9.78.72-14.88,6.15-21,2.11-2.39,3-5.84,4.43-8.85,1.55-3.37,2.93-6.81,4.47-10.19,2.78-6.1,5.63-12.18,8.45-18.26h0c1.36-3.69,2-8,4.26-10.94,3.85-4.92,6.07-11.47,3.15-15.43-5.54-7.52-6.53-16.09-9.33-24.25-.07-.2-.28-.35-.34-.54-.86-3-2.15-6-2.46-9-.45-4.45-.2-9-.24-13.47,8.11-11.76,6-25.74,7.09-38.61,1.26-15.45-1.39-31.21-2-46.85-.36-9,0-18.09-.08-27.14s1.24-18.47-4.26-26.94c-1.34-2.06-.66-5.44-.89-8.21-1-11.75-1.18-23.63-3.18-35.2-2.79-16.11-7-32-10.53-48-1-4.56-2-9.11-3-13.67-.45,10.19-.85,20.37-1.29,30.56.44-10.19.84-20.37,1.29-30.56l-.24-3.69q-6-21.1-12.12-42.2c-.35-1.21-1.5-2.24-1.69-3.45-.69-4.24-2.07-8.67-1.41-12.74.76-4.61.71-8.2-2.44-11.9-3.85-4.51-2.21-8.74,3.71-9.31,4.88-.47,10.07-.79,14.73.38,7.11,1.8,13,.43,18.74-3.65q27.45,0,54.9,0c1.28,0,2.57.21,3.85.33,17,1.6,33.93,3.65,50.94,4.69,17.17,1.05,34.42.85,51.61,1.72,5.48.28,10.85,2.4,16.33,3.35a170.13,170.13,0,0,0,18.36,2.51c11.3.73,22.83-.18,33.92,1.66,17.62,2.91,34.85,4.36,52.26-1,4.44-1.35,9.34-1.55,14-1.63,12.79-.21,25.58-.07,38.4-.07-.57-11.43-2.07-12.8-12-13-4.87-.09-9.87-.18-14.57-1.27-5.29-1.23-10.19-4.24-15.5-5.28-7.74-1.53-15.85-1.31-23.51-3.06-18.17-4.16-36.17-9-54.24-13.63q-1.26.48-2.52,1,1.26-.51,2.52-1c-12.55-2.79-25-6.1-37.67-8.23-14.3-2.4-27.84-8.63-42.66-8.23-26.21-6.38-52.62-11.53-79.59-13.6-5.48-.42-10.8-2.68-16.2-4.07-11.17-2.85-22.25-6.17-33.54-8.4-13.77-2.71-27.74-4.41-41.59-6.77-2.7-.46-5.15-2.19-7.83-3-4.44-1.27-8.94-3-13.47-3.21-25.33-1.15-50.67-1.87-76-2.82-1.9-.07-3.77-1-5.68-1.09a72.35,72.35,0,0,0-8.2,0c-6.42.26-12.83.66-19.25.94-9.38.41-18.75.89-28.14,1.12-7.84.2-15.68.06-23.53.12-2.71,0-5.86-.69-8.07.42-10.29,5.17-20.69,4.42-31.44,2.1-2.64-.56-5.92.19-8.51,1.27C800,46,786.92,48.32,774,45.55c-10.51-2.24-19.94-2-29.26,3.14h0c-2.74-1-5.83-1.41-8.18-3-13-8.63-25.82-17.61-38.85-26.23A11.69,11.69,0,0,0,690.89,18c-16.83,1-32.66-9.72-49.86-4.2a2.72,2.72,0,0,1-1.86-.4c-10.81-6.06-22.62-5.82-34.49-6-4.2-.09-8.33-2.57-12.53-3.83-2.76-.82-5.58-1.85-8.41-2-3.61-.15-7.28,1-10.88.74-10-.61-20.05-2.41-30.06-2.32-15.19.14-30.38,1.48-45.57,2.32L468.39,3.9,341.6,61.26,468.39,3.9c-4.48-.42-9-1.25-13.42-1.14-4.64.12-10.66-.46-13.61,2.1-9.2,8-20.39,10.67-31.24,14.5-6.19-.33-12.54-1.9-18.11,2.4-10.76,4-22.07,6.88-32.15,12.16-10.72,5.6-20.79,4.56-31.67,2.07-8.25-1.88-16.74-2.68-25.13-4-5.28-.86-10.53-2.07-15.85-2.52C257.61,27,228,25.09,198.39,22.14,177.86,20.09,157.53,16.06,137,14,109.18,11.26,81.23,9.74,53.38,7.3c-8.53-.74-16.92-3-25.43-4.08S10.68,1.73,0,.86C2.11,9.11,3.57,15.69,5.61,22.08c.47,1.46,2.8,2.84,4.52,3.3,15.05,4,30,8.39,45.28,11.56C89.3,44,123.35,50.35,157.3,57.15c17.92,3.59,35.77,7.53,53.65,11.32C225.18,72.29,239.5,75.78,253.6,80c13.3,4,26.43,8.66,39.48,13.46,2.42.89,4.08,3.85,6.1,5.86.95,4.78,2.12,9.54,2.8,14.37s2.73,10.56.89,14.27c-3.26,6.59-3.14,9.78,5.6,10.8-2,6.35-3.75,12.1-5.87,19h8.89c2.64,4,0,5.86-3.12,7.42-7.09,3.55-7.19,4.08-1.87,9.35a9.08,9.08,0,0,1,2.4,3.72c2.47,8.77,4.76,17.59,7,26l8.49-9.83,3.94,14c3-4.4,4.66-9.12,6.37-13.83q7.4-20.35,14.82-40.71h0l3.72-5.44c.85-.58,1.78-1.75,2.53-1.64,5.56.8,8-2.47,10-6.88,1.1-2.46,2.86-4.62,4.32-6.91h0l15.76-16.51,1.47-.41c.3,2.19.59,4.39.89,6.59-.89,5.91-1.13,12-2.86,17.67-1.44,4.71-4.37,9-7.11,13.24-3.26,5-7,9.69-10.56,14.51-.46,1.87-.78,3.79-1.39,5.62-4.45,13.32-9.93,26.39-13.14,40-2.63,11.14-2.58,22.93-3.71,34.43,1.12,5.48-.44,9.09-5.72,12.14-4.7,2.71-8.29,7.36-12.37,11.16.42,4.88-1.08,6.54-6.63,7.54-5.26.95-10,5.71-14.59,9.24-3.52,2.7-6.5,6.11-9.73,9.2-.1.75-.21,1.5-.31,2.24-1.23,3-2.86,6-3.59,9.13-1.74,7.59-2.51,15.44-4.71,22.88-1.9,6.44-3.05,12.05,2.64,17.13,1.34,1.21,3.15,3.79,2.69,4.8-3.72,8.09-1.53,15.22,2.65,22.27a4.37,4.37,0,0,1,.09,2.55c-.7,4.85-1.46,9.7-2.2,14.55.07.92.14,1.85.2,2.78a34.41,34.41,0,0,0,3.91-14,25.74,25.74,0,0,0-.12-3.51,25.74,25.74,0,0,1,.12,3.51,34.55,34.55,0,0,1-3.9,14c-7.29,10.84-2.67,25.27-10.81,35.87-1.68,2.18-3.2,4.48-4.79,6.72-3.78,15.66-13.25,30-10.8,47.1,0,.19-.13.41-.15.62-1.56,13.15-3.26,26.28-4.61,39.45-.77,7.46-.49,15.06-1.65,22.44-.57,3.66-3.32,7-5.09,10.45l-2.52,5.88,12.16,1.28c.64,5.48-.44,9.06-6.76,8.51-5.31-.47-9.62,1-11.9,6.25-3.83,11.71-8.6,23.21-11.25,35.18-3.88,17.49-7.53,35.22-8.95,53-2.05,25.78-2.13,51.72-2.82,77.6-.34,12.69.47,25.45-.42,38.1-.66,9.33-1,18.17,3.55,26.73,2.44,4.62,5.05,9.41,6.14,14.44,3.79,17.51,6.35,35.32,13.6,51.93.56,1.3.28,3,.39,4.47l7.71,22.05c1.8,6.1,3.18,12.36,5.5,18.26A238.46,238.46,0,0,0,276,948.26c4.24,7.88,10.19,14.83,14.49,22.68,6.89,12.56,8.24,27.63,17.38,39.26,1.86,4.58,3.52,9.26,5.64,13.73,4.56,9.59,9.36,19.07,14,28.6l2.58,10.31c3.37,5.68-1.41,9.2-3.88,13-2.1,3.24-3.28,5.86-.89,9.32.69,1,1.45,2.88,1,3.57-7.1,10.69,4.68,22.53-2.09,33.21a3.87,3.87,0,0,0-.07,3.15c3,6.63,1.21,12.25-2.67,18-5.49,8.2-11.29,15.34-21.63,18-8.59,2.18-16.82,5.78-25.23,8.71-1.79.63-3.65,1.06-5.47,1.59l-44.05,18.19-3.84,0-64.78,31.07c0,.4-.05.8-.08,1.19q-18.79,10.07-37.58,20.13a20.89,20.89,0,0,0-2.53,1.9h0c-10.38,6.72-20.69,13.55-31.19,20.07-2.59,1.6-5.81,2.19-8.74,3.25l-7.59,4.69,16.59,7.2c9.53,2.16,19.14,4,28.55,6.6,4.52,1.24,9.36,3,12.8,6a40.46,40.46,0,0,0,18.47,9.63c11,2.42,21.86,5.69,32.78,8.56a6,6,0,0,0,1.9-.15l10.49,3.82c29.72,9.87,59.77,18.57,90.61,24.24,19.21,3.53,38.39,8.07,57.79,9.52,37.34,2.8,74.81,4.42,112.25,5.26,47.61,1.07,95.24.88,142.86,1.23h0l16.73-.88a11.8,11.8,0,0,0,2.89-.15l30.82-1.6,28.43-1c16.4-2,32.75,1.7,49.43-1,16.37-2.62,33.41-1,50.14-1.45,23.47-.56,47-.9,70.4-2,28.37-1.33,56.73-2.94,85-5.22,22.48-1.82,45.31-2.9,67.18-7.86,20.57-4.65,41.23-6,61.92-8.19,14.11-1.49,29.07.32,42.3-3.75,26.54-8.16,53.92-10.73,80.9-15.88,8-1.53,16.22-1.8,24.34-2.68,1.23-.13,2.69-.1,3.62-.75,10.82-7.57,20.19-17,32.87-22.18a36.92,36.92,0,0,1,18.74-2.73,73.24,73.24,0,0,1,9.48,1.88c4.44,1.11,7.68-.23,10.9-3.53,2.69-2.75,6.43-4.48,9.7-6.67l26.3-5.84c-.48-2-1.11-3.9-1.65-5.85-.27-1-.52-2-.71-2.93.19,1,.44,2,.71,2.93.54,2,1.17,3.9,1.65,5.85,10.15-2.74,20.33-5.38,30.45-8.23,22.38-6.3,46.77-6.19,66.53-20.86a16.37,16.37,0,0,1,3-1.26c19.68-9.31,39.43-18.51,54-35.54,8.71-7,17.84-13.11,30-13.92C1496.76,1181.67,1494.1,1180.91,1491.43,1180.18Z"/></svg>