<svg id="Layer_1" data-name="Layer 1" xmlns="http://www.w3.org/2000/svg" viewBox="0 0 1500 1848.34"><defs><style>.cls-1{fill:#c2c2c2;}.cls-2{fill:#121212;}.cls-3{fill:#686868;}.cls-4{fill:#3b3b3b;}.cls-5{fill:#949494;}.cls-6{fill:#313131;}.cls-7{fill:#454545;}.cls-8{fill:#474747;}.cls-9{fill:#b4b4b4;}.cls-10{fill:#212121;}.cls-11{fill:#565656;}.cls-12{fill:#dadada;}.cls-13{fill:#8c8c8c;}.cls-14{fill:#6b6b6b;}.cls-15{fill:#2b2b2b;}.cls-16{fill:#6e6e6e;}.cls-17{fill:#515151;}.cls-18{fill:#545454;}.cls-19{fill:#3a3a3a;}.cls-20{fill:#b9b9b9;}.cls-21{fill:#c3c3c3;}.cls-22{fill:#8f8f8f;}.cls-23{fill:#d1d1d1;}.cls-24{fill:#9b9b9b;}.cls-25{fill:#929292;}.cls-26{fill:#9f9f9f;}.cls-27{fill:#939393;}.cls-28{fill:#6d6d6d;}.cls-29{fill:#797979;}.cls-30{fill:#747474;}.cls-31{fill:#696969;}.cls-32{fill:#d9d9d9;}.cls-33{fill:#888;}.cls-34{fill:#aaa;}.cls-35{fill:#d8d8d8;}.cls-36{fill:#a0a0a0;}.cls-37{fill:#d6d6d6;}.cls-38{fill:#a9a9a9;}.cls-39{fill:#dbdbdb;}.cls-40{fill:#3e3e3e;}.cls-41{fill:#646464;}.cls-42{fill:#ccc;}.cls-43{fill:#5b5b5b;}.cls-44{fill:#e0e0e0;}.cls-45{fill:#ddd;}.cls-46{fill:#e3e3e3;}.cls-47{fill:#616161;}.cls-48{fill:#717171;}.cls-49{fill:#2f2f2f;}.cls-50{fill:#cecece;}.cls-51{fill:#8b8b8b;}.cls-52{fill:#aeaeae;}.cls-53{fill:#7b7b7b;}.cls-54{fill:#3c3c3c;}.cls-55{fill:#555;}.cls-56{fill:#7e7e7e;}.cls-57{fill:#2a2a2a;}.cls-58{fill:#4a4a4a;}.cls-59{fill:#8a8a8a;}.cls-60{fill:#353535;}.cls-61{fill:#292929;}.cls-62{fill:#303030;}.cls-63{fill:#444;}.cls-64{fill:#9e9e9e;}.cls-65{fill:#676767;}.cls-66{fill:#282828;}.cls-67{fill:#6f6f6f;}.cls-68{fill:#eaeaea;}.cls-69{fill:#bababa;}.cls-70{fill:#bebebe;}.cls-71{fill:#d5d5d5;}.cls-72{fill:#727272;}.cls-73{fill:#181818;}.cls-74{fill:#4e4e4e;}.cls-75{fill:#bdbdbd;}.cls-76{fill:#1d1d1d;}.cls-77{fill:#909090;}.cls-78{fill:#656565;}.cls-79{fill:#9a9a9a;}.cls-80{fill:#2c2c2c;}</style></defs><path class="cls-1" d="M1195.93,467.43c9,4.48,9.37,11.88,8.29,20.78-.66,5.52,1.89,11.36,2.25,17.11a86.7,86.7,0,0,1-.46,18.37c-.68,4.41-5.07,8.74-4.61,12.75,1.78,15.65,2.39,32.12,8,46.5,7.68,19.66,7.89,39.43,3.57,58.35-7.1,31.13-17.71,61.46-27.35,92-1.43,4.54-5.63,8.22-8.56,12.29,0-7.2,0-14.4,0-23.5-11,18.64-20.85,36.52-31.86,53.65-7.24,11.26-12.29,22.34-8.1,35.86-8.86-.14-17.75-.82-26.55-.19-4.87.35-13.55,2.66-13.67,4.5-.42,7,2,14.13,3.29,21.21-.8,7.27-2.19,14.53-2.27,21.81-.23,22.12.29,44.26,0,66.38-.09,6.45-1.64,13-3.19,19.28-2.87,11.74-2,21.55,8.23,30.3,8.62,7.37,15.34,16.94,22.91,25.54l-4.77,7.17c-1.56-2.51-3-5.1-4.72-7.5-3.39-4.74-6.93-9.38-10.41-14.06l-3.4,1.8q-3.62,16.89-7.24,33.77-2.34-16.3-4.7-32.61l-3.22-9.33-2.94.78c-.33,3.73-.9,7.45-1,11.19-.27,18.15-5.31,33.72-20.7,45.32-10.6,8-19.94,17.65-29.84,26.57l2.9,3.22,50.1-17.14c-1.5,3-2.21,7.45-4.62,8.77-25.13,13.64-49.85,28.38-76.09,39.52-18,7.63-38.14,10.05-57.33,14.79l61.62-43.7c-3.42-.26-6.47-.26-9.45-.75-15.38-2.53-31.94-.6-44.17-14.13-5.68-6.29-8.74-10.15,0-16.34,10.77-7.65,20.41-16.87,31-24.72,9.28-6.85,9.28-14.88,6-24l-109.43,43.25c8.09,7.5,14.3,15.39,22.34,20.27,16,9.69,20.49,22.91,16.55,40.22-1.35,5.92-1,13-4.18,17.55-6.7,9.46-15.11,17.75-23.2,26.15a22,22,0,0,1-9.63,6.09c-27,7-56.25-4.4-73.63-29l61.1-45c-17,0-32.72,2.8-46.9-.63-23-5.56-44.93-15.1-69.16-15.17-7.35,0-16.12,1.11-21.62-2.4-5.07-3.23-6.63-12-10.77-20.38-3.75,9-7,16.69-10.16,24.37-2.19,7.6-6,10.35-13,4.64-2.35-1.9-5.23-3.16-7.87-4.71-23.59-12.81-41.39-31.73-57.44-53.52,2.24-1.86,3.73-3.81,5.7-4.63,11.72-4.86,23.55-9.46,35.34-14.15l23.36-2.51h63.17q1.08-2.11,2.14-4.23c-9-11.89-17.72-24-27.23-35.51a20.57,20.57,0,0,0-11.74-6.56c-14.16-2.17-28.47-3.31-42.72-4.84l-17.2-2.5,10-7.15c18.6-5.27,37-11.55,55.88-15.49,15.44-3.22,31.46-3.65,47.22-5.32l35,9.32,87.73,44.11,2.64-3.11c-11.22-19.31-22.31-38.7-33.84-57.81-1.31-2.17-5.09-3.68-7.88-4-18.49-1.95-37-3.48-55.55-5.15L775.38,874q-.17-18.67-.33-37.36c-.12-16.26-1.36-17.27-17.7-14.73-11,1.72-21.49,2.27-29.74-7.91q-32.28-39.81-65.27-79c-6.19-7.39-6.82-14.78-4.15-23.84,7.58-25.66,16.89-51.1,14-78.67-.93-8.88-1.47-17.8-2.37-26.68-2.73-27.08,6.12-52.32,12.46-77.92,1.81-7.31,1.09-12.75-5.77-17-20.83-12.9-41.41-26.22-62.35-38.95a24.13,24.13,0,0,0-13.07-3.33c-14.33.79-28.62,2.43-42.91,3.86-16.86,1.7-16.86,1.75-16.93-14.9a90.91,90.91,0,0,1,0-9.34c1.86-18.16-1.49-34.43-14.22-48.67-3.06-3.42-3.24-11-2.25-16.16,2.31-12.17,8.19-23.93,8.94-36.08A283.07,283.07,0,0,1,560.14,243c1.9-4,4.58-9.09,8.2-10.68,26.29-11.51,49.21-32.61,80.92-29.24,2.13.23,4.43-1.19,6.65-1.84l49.22-2.32-.07,0,9.19-.34c30.07.9,59.07-4,86.7-16.18l37.27-7.21c.71,18.83,7.69,33.45,25.91,41.75a79.77,79.77,0,0,1,20.34,13.52c18.87,17.23,40.4,22.25,64.32,14.33,23.69-7.84,41.07.29,56,18.43,3.89,4.73,9.81,7.8,16.21,12.72,1.56-9.28,2.66-15.79,3.9-23.16,5.47,2.25,10.53,6.24,12.92,5,12-6.18,13.66,1.62,16.27,10,2.83,9.1,16.85,18.44,23.12,15.31,5.08-2.55,10.53-6.06,13.41-10.65,1.55-2.47-2.23-8.07-3.1-12.36-.34-1.71.67-3.7,1.07-5.57,5.49,5.4,10.38,11.66,16.6,16,11.12,7.81,13.31,13.21,9.56,26.47-1.13,4-1.83,10.87.36,12.65,12.19,10,11,23.11,10.53,36.3l-2.34.05,0-.09c-2.14-11.47-.68-23.69-11.38-32.93-3.09-2.67-2.48-11.74-1-17.17,3.45-12.57.08-18.95-14.15-22-.43,1.82-1.3,3.65-1.24,5.46.89,31.64.69,63.07-12.74,92.83-1.22,2.7.13,9.07,2.31,10.37,13,7.81,9.58,17.14,3.14,26.51-9.49,13.82-9.73,26.23,1.12,40,20.78,26.41,34.53,56,37.17,90.25.75,9.83,5.38,10.7,13.25,4,6.81-5.78,13.22-12.08,20.27-17.56,15.31-11.9,27-8.24,32.5,9.72,1,3.2,2.39,6.27,3.88,10.15C1205.53,518.76,1201.91,493.08,1195.93,467.43Zm-27.87,100.79,6.81,25.51c-.33,8.37.49,17-1.27,25.06-2.65,12.13-7.58,23.75-10.59,35.83-1.34,5.39-2.31,12.32-.06,16.89,6.49,13.2,3.94,24.51-3,36.42-8.27,14.28-15.64,29.08-23.41,43.65,34.83-32.49,59.67-70.43,64.82-119.26l3.17,1.24c.47,5.34.93,10.68,1.67,19.29,7-20.88,8.06-38.51,1.69-56.48v24.78l-19.32-24.68c-3.32-5.89-6.22-12.09-10.1-17.59-2.83-4-7-7.11-10.49-10.61,3.45-2.31,7.64-4,10.09-7.13,1.55-2,1.48-6.41.31-8.88-.73-1.55-6.21-2.93-7.25-1.94-13.47,12.71-26.53,25.87-39.69,38.91l2.22,2.39ZM819.37,579.88c3.59,2.91,7.62,8.7,10.7,8.24,14.31-2.15,29.09-4.5,38.41-17.83q-4.53-4.75-9.07-9.49l-8.13-13.61c.44-1.09.87-2.19,1.31-3.28,4.07,1.06,8.76,1.19,12.09,3.38,6.11,4,11.31,9.39,17.08,14,10.64,8.43,21.41,16.69,32.81,25.55,6.17-19,4.25-24-10.29-31.31-17-8.53-33.88-17.3-51.11-25.32a36.75,36.75,0,0,0-16.65-3.4c-9.63.45-19.18,2.49-28.77,3.87l-4.57.17-20.87,2.26c25.38-14,50.84-26.32,76.59-38,3.85-1.76,9.36-1.75,13.55-.58,21.84,6.13,42.67,14.25,58.55,31.7,3.85,4.23,9.2,7.1,13.86,10.59l2.89-2.28c-3.7-14.13-8.32-28.09-10.83-42.43-2.11-12-8.51-16.62-19.76-19-33.77-7.23-67.28-16-102.32-10.09L879.46,453c-21-20.27-97.52-14.66-127.12,10H815c-3.39.71-6.74,1.72-10.16,2.09-24.34,2.61-48.71,4.9-73,7.73-6.93.81-15,1.81-9.78,12.83,16.86,35.44,26.45,73,32.08,111.67.49,3.31,3.15,8.23,5.79,9,18.84,5.44,37.93,10,59.34,15.43-4.92-16.93-13.41-30.57-7-46.75l7.07,4.9ZM723.58,768.64c.08,1.1.16,2.2.25,3.3,51,14.06,100.36,34,144.48,41.21l-101-103.56c1.95-1.23,1.68-.43,1.86.26.7,2.63,1.49,5.23,2.34,7.81,7.9,23.9,8.66,20.47-13.6,32C746.32,755.67,735,762.29,723.58,768.64Zm94.33-553.89c-6.44-18-12-21.48-27.55-18.94-15.35,2.5-30.71,4.95-46,7.62-2.26.4-4.33,1.88-6.49,2.87.1,1.38.2,2.76.29,4.14C764.09,213.22,790.12,215.1,817.91,214.75Zm234.53,116-3.32-.25c-3.1,17.35-6.93,34.6-9,52.07-1.34,11,8.85,10.35,15.61,10.86,9,.68,6.72-6.47,5.88-11.48C1058.69,364.81,1055.51,347.77,1052.44,330.71Zm8.29,550.89-3.31-.27c-6.15,15.87-12.65,31.62-18.06,47.74-.72,2.16,3.75,8.42,6.33,8.74,3.7.46,11.09-2.41,11.33-4.5C1059,916.16,1059.67,898.86,1060.73,881.6Zm52-225.12c-4.3,25.16,7.63,44.71,27.25,44.48Z"/><path class="cls-2" d="M92.23,1259.71l28.24-8.86c18.42-2.17,36.82-4.45,55.26-6.47,15.34-1.69,30.74-2.87,46.07-4.71a57.78,57.78,0,0,0,14.43-4c16.5-6.66,29.32-22.18,49.35-20.41a6,6,0,0,0,3.3-1.1c15.8-9.68,33.18-12.14,51.33-12a14.59,14.59,0,0,0,9.59-4.27c7.31-7.76,13.94-16.15,20.83-24.3l13.93-7.09c5.53-1.26,11.72-1.35,16.46-4,9.72-5.45,18.06-13.62,28.07-18.28,20.49-9.51,36.63-23.87,50.5-41.08,9.67-12,17.89-25.19,28-36.8,8.58-9.9,11.41-8.43,15.63,4.34,8,24.31,16.51,48.46,24.81,72.68q2.34,27.83,4.69,55.63c-2.88,7-6.77,13.78-8.45,21.07-6.35,27.46-11.89,23.3,18.16,37.59a6.05,6.05,0,0,0,1.94.63c.37,3.35.73,6.7,1.25,11.45l90.13,9.18c8.75.09,17.7,1.4,26.2,0,17.13-2.82,34-7.12,53.08-11.26-2.57,15.48,5.71,20.17,17.33,22.18,2.1.37,3.76,3.3,5.62,5.05l-3.89,2.66c-20.72,7.39-47.3,5.75-53.85,35-7.64,3.12-8.13,8.38-4.27,14.76,2.77,4.58,5.74,9,8.63,13.54,3.46,9.77,7.2,19.46,10.32,29.34,3.23,10.26,8.44,17.65,20.48,17.15,3,6.71,6.19,7.36,10.35.75s8.66-12.9,13-19.33c8.92-7.52,17.35-15.74,26.86-22.42,17.47-12.28,33.11-25.63,39.39-47.2,1.85-6.37,5-12.37-8.28-13,27.26-6.3,51.41-12.38,75.79-17.34,14-2.84,25.13-9.53,35.48-18.87,10-9.06,20.84-17.26,31.32-25.83a382,382,0,0,1-24.46,49.77c-4.81,8.39-6.25,16.1-2.09,25.37a372.44,372.44,0,0,1,15,39.26c1.25,3.92,0,9.67-2.08,13.41-4.14,7.3-10.26,13.46-14.61,20.66-8.5,14.09-14,31-34.13,33a11.91,11.91,0,0,0-.46,2.73c10.16-1.51,20.07-3,30-4.45,16-2.33,19.1-.42,26.52,17.28-12.87,3.27-25.39,7.52-38.25,9.45-17.32,2.6-29.62,10.23-35.85,27.09-3.16,8.59-9.14,9.22-16.85,5-8.19-4.54-16.82-8.28-25.26-12.37,7.21,8.41,15.67,14.49,24.34,20.27,7.43,5,11.62,10.18,4.43,18.72-5.1,6.07-4.25,11,3.55,14.69,2.17,1,4.45,5.7,3.87,8-3.42,13.53-12.75,18.15-25.6,13.57-1.33-.48-2.85-.41-7.37-1,7.17,13.41,12.75,25.17,19.55,36.18,6.88,11.16,6.88,21.42.86,33-5.66,10.83-9.75,22.47-15.35,35.68l22.13,2-36.2,34c-13.24,16.91-26.61,33.71-39.57,50.83-1.91,2.52-1.89,6.49-2.77,9.79-3.18,6.26-6.39,12.49-9.52,18.77-1.36,2.71-3.73,5.54-3.65,8.26.51,18.18-11.39,29.46-22,41.66-4.24,4.86-7.47,10.6-11.16,15.93-14.39,14.06-33.86,10.43-51.13,13.83-5,1-11.47-4.75-17-7.85-5.3-3-9.91-8.4-15.47-9.5-21.16-4.21-42.61-6.93-63.87-10.64-4-.69-7.76-3-11.29-5.16-7.15-4.36-14.24-8.87-21-13.78a69.62,69.62,0,0,1-11-10.16c-4.6-5.16-8.49-11-13.09-16.13-6.19-7-12.66-13.7-19.21-20.33-13.77-13.94-27.39-28-41.62-41.5-7.41-7-15.86-12.37-11.23-25,2.6-7.12-.18-13.22-7.52-17.53a37.8,37.8,0,0,1-12.43-12.09c-11.61-18.58-28.26-26.54-49.72-25.58l-2.94-3.94c1.34-13.11,11-16.64,21.71-19.83,8.23-2.45,16-6.44,27.59-11.26-4.74-2.74-6.3-4-8.09-4.62-10.43-3.83-11.73-11.13-8.33-20.61,4.58-12.76,7.83-26.13,13.7-38.26,4.91-10.13,4.17-17.59-2-26.76-10.63-15.72-22.22-31.5-28.88-49-5.66-14.84-12.78-23-28.39-23.72-3.08-.14-6.12-1.51-9.18-1.54-2.53,0-6.44.26-7.39,1.82-8.64,14.34-16.77,29-25,43.54l2.64,2.43L377,1459.68l2,2.61c-4.58,10.21-8.85,20.58-13.87,30.57-3.56,7.09-2.59,11.19,5.05,14.56,25.69,11.36,39.69,45.68,19.45,71.44-1.95-3.57-3.17-7.56-5.76-10.18-6.43-6.48-12.54-14.89-20.51-17.84-11.33-4.19-24.22-4.07-36.41-6-3.34-.54-7.79-1-9.58-3.24-9.47-11.82-22.36-11.27-35.22-10.53-9.22.54-15.5-3.84-23-8.66a153.68,153.68,0,0,0-41-18.84c-13.18-3.7-26.05-5.77-36.12-16.5-3.78-4-10.6-5.36-16.22-7.41-3.2-1.16-7.46-.27-10.09-2-24.16-16.09-49.22-30.92-62.44-59.15-5-10.57-14.15-19.27-21.92-28.39-12.07-14.14-24.79-27.72-36.68-42-1.91-2.29-1.69-7.09-1.17-10.54,4.11-27.44,1.44-32.72-22.2-45.32-2.66-1.41-3.68-5.89-5.45-8.94,2.76-1.44,5.45-3.87,8.32-4.11a199.87,199.87,0,0,1,22.17-.19c7.86.23,14-1.22,18.26-9.26,4.79-9,12.74-11.09,23-7.51C81.72,1263.59,87.32,1260.66,92.23,1259.71Zm680.15,173c-3.39.36-6.9,1.48-10.14.94-9.76-1.64-17.88,0-25.23,7.45-7.82,7.89-16.75,14.69-25.19,22l-6.81,3-61.53,8.55c10.14,11.57,17,20,24.59,27.65,2.17,2.19,7.62,4,9.83,2.77,10.1-5.5,19.58-12.14,29.28-18.37,6.28-9.12,14.41-14.89,26-15,6.58-.07,13.28,0,19.69-1.23,13.06-2.47,27.61-2.95,38.57-9.34,19-11.07,35.79-25.87,53.24-39.45,3.1-2.4,4.9-6.47,7.31-9.76l28.37-55.53c-26.36,4.33-49.27,7.89-72.08,12-4.73.85-11.58,2.65-13.13,6-4.8,10.37-7.51,21.7-11,32.65Q778.25,1419.8,772.38,1432.66Zm-116.68,5c8.11-9.54,7.66-18.72-1.16-27.56-4.94-4.94-9.85-9.9-14.78-14.86-25.15-27.84-38.87-65.38-73.53-86.86-.47,3.41-1.37,6-1.08,8.41,5.52,44.89,14.47,89.11,28.36,132.14,3.49,10.82,10.49,20.5,15.88,30.7l4.44,9.47,10.55,6.59L647,1452.19l2-2.33Zm-160.11-38.33,4.45-1.61c10.14-44.55,9.46-89.82,8.59-135.84-10.08,7.81-18.81,15.9-25.58,25.4-3.84,5.4-6.66,13.27-6.14,19.73,1.93,23.93,4.85,47.83,8.71,71.53C486.8,1385.81,492.15,1392.41,495.59,1399.32Zm-42.26-3.73c8.87,7.61,16.44,13.9,23.73,20.5,2.42,2.19,4.14,5.16,6.17,7.77-3.13,1.85-6.16,5.05-9.4,5.29-9.19.68-18.5-.32-27.69.35-3,.22-8.59,4.43-8.31,5.29,5.4,16.62,11.5,33,17.46,49.45l4.18-.72c0-12.58.16-25.17-.06-37.75-.15-8.75,3.6-13.13,12.52-12.67l24.4,1.3c.33-5.78.61-10.58.93-16.09-12.59-7.25-26-15-39.49-22.68C457.25,1395.33,456.4,1395.59,453.33,1395.59Zm13.65,93c25.71-9.08,34.55-22.78,23.32-35.11C482.85,1464.64,475.61,1475.56,467,1488.54Zm425.13-101.75c13.35-11,18.23-22.37,12.84-30.8C900.32,1367.11,896.21,1377,892.11,1386.79Z"/><path class="cls-2" d="M1205.7,1110l7,11.31c5.55,5.89,12.17,11.1,16.41,17.82,9.85,15.57,17.9,32.35,37,39.21,2.82,1,4.62,5,6.76,7.73,8.61,10.94,9.4,28.94,28,30.93.63.07,1.1,1.17,1.78,1.44,7.31,2.9,14.65,5.74,22,8.6,15.1,9.86,30.16,19.79,45.35,29.52,1.87,1.2,4.54,1.09,6.64,2,13.27,6,28.35,9.8,39.11,18.79,8.27,6.92,15.62,9.9,25.49,10.72a20,20,0,0,1,11.29,5.09c13.52,12.86,26.69,26.1,39.64,39.54,2.07,2.16,4.22,7,3.19,8.92a242.66,242.66,0,0,1-16.55,26.29c-10.14,14.18-22.36,26.65-23.56,46-.78,12.68-1.32,28.59-21.53,27.83-2.05-.08-4.34,1.67-6.26,3q-22.38,15.06-44.63,30.3l-23.16,14.44c-15.12,10.53-30.66,20.51-45.23,31.75-14.88,11.49-24.57,29.37-43.72,35.71-20.58,2.09-41.18,3.93-61.71,6.43-5.37.66-11.73,2-15.45,5.43-7.55,6.92-13.69,6.68-21.68,1.1-5.22-3.64-11.74-5.41-17.68-8-4.8,1.12-10.09,1.3-14.28,3.56-6.55,3.51-12.35,8.43-18.67,12.9-7.1-14.2,5.69-33.7-16.92-43.52,3.16,14.32,5.44,25.66,8.22,36.87,1.72,6.93.13,11.36-6.06,15.71-7.49,5.26-13.7,12.33-20.47,18.62-9.1,3.4-18.22,6.76-27.31,10.21-4.25,1.62-8.36,3.67-12.68,5.06-17.11,5.53-35.36,8.51-48.61,22.41l-21.43-1.23-1.15-3.74c17.28-15.41,41.28-20.31,62.65-36.07l-62-4.53c-.3-.9-.59-1.81-.89-2.72,32-15.15,54.2-40.56,76.95-69.92H1003l6.7,15.15c-22.3-6.2-33-27.32-26.4-50.88l15.8,6.75c-4.87-12.84-8.18-22.72-12.34-32.22-3.92-9-2-15.86,3.74-23.6,10.6-14.36,19.79-29.75,29.89-44.49,5.65-8.26,2.21-11.7-6-13.81-5.88-1.52-11.6-3.64-17.38-5.49,9.94-1.05,19.13.44,28.37,1,3.36.23,9.81-1.62,9.83-2.59a84.35,84.35,0,0,0-2.29-20.45c-.33-1.35-5.32-2.6-7.92-2.23-10.4,1.47-20.75,3.42-31,5.55-7.25,1.51-11.26-.08-10.93-8.44,1-24.49,1.47-49,2.74-73.46a17.53,17.53,0,0,1,5.5-11c11.06-9.78,22.33-19.45,34.41-27.91,4.31-3,11.12-2.46,16.79-3.54l1.15,4.24-28.49,17.19c.31,1.1.63,2.21.95,3.31,4.77,1.29,9.57,2.5,14.31,3.9,4.56,1.34,9.06,2.87,15.83,5l-17.4,12.08c22.69-4.78,32.62-10.55,45.92-22.7,3-2.73,9.74-2.74,14.39-1.93,6.76,1.18,13.2,4.23,19.77,6.49a344.21,344.21,0,0,0-21.29-53.74c-4-8.17-3.44-14.45,2.66-21.18,9.39-10.37,18.3-21.19,27.22-32,5.42-6.55,9.64-15.22,20-13.6,8.12,1.26,16,4,25,6.32,1.89-12.25,4-26.76,6.39-41.21,2.62-15.49,5-16.4,18.18-7.66,1.29.85,2.45,1.91,3.67,2.88Zm25.92,126.41,1.45-4.23-66.51-32.46-1.94,2.86c3.35,6.5,6.17,13.36,10.24,19.38,2.64,3.89,6.75,8.69,10.81,9.36C1200.85,1233.85,1216.29,1234.84,1231.62,1236.41Zm-150.06,360.51,3.1.68c3-13.72,14.6-25.57,6.2-41.79Z"/><path class="cls-3" d="M693.28,1054.18c2.64,1.55,5.52,2.81,7.87,4.71,7.06,5.71,10.85,3,13-4.63,3.35,1.4,6.9,2.45,10,4.26,12.26,7.13,24.17,14.9,36.64,21.63,6.79,3.66,14.85,5,21.57,8.76,3.88,2.16,7.13,6.61,9.12,10.77,5.61,11.74-1.88,18.36-10.94,23.27-13.54,7.33-20.66,16.82-15.28,33.06,2.17,6.53,1.46,14,3.27,20.68,3.37,12.52,1.13,23.72-5.29,34.69-3.34,5.69-5.68,12-9.51,20.26,6.73-1.17,10.07-1.89,13.45-2.3,19.15-2.36,35.07-11.6,49.85-23.3-5.73,6.22-11.66,12.27-17.15,18.68-16.7,19.51-36.57,29.4-62.68,21.74a18.88,18.88,0,0,0-8.13-.34c-12.83,2.15-19.06-4.13-20.45-16.07-2.35-20.18-13.61-33.74-30.45-44.06-10-6.15-19.14-13.81-30.21-21.92-.78,5.68-1.19,8.66-1.61,11.64q-1.3,4.95-2.62,9.9l-11.38-9.69c-5.4-5.44-10.49-11.23-16.26-16.25-19.78-17.26-37.95-35.88-51.38-58.67,8,5.34,15.31,12.51,24.08,15.71,37.74,13.8,76.61,22.93,117.07,23.47,3,0,7.62-1,8.86-3.14,3.52-6-7-22-14.06-21.63-15.49.84-31,1.76-46.4,3.66-18.28,2.25-35.19-9.14-40.11-28.91,4-.26,7.78-1,11.53-.68,24.37,1.87,48.81,3.24,73.06,6.17,22.58,2.72,44.91,4.85,68.9-1.14-15.26-7-28.47-14.92-44.59-8.25-2.63,1.09-6.24.6-9.2,0-37.18-8.28-74.31-16.76-111.48-25.09-5.22-1.17-11.35-3.74-15.58-2-3,1.22-3.51,8.57-5.61,14.55-.81-5.84-2-10.41-2-15,0-5,1.64-10,1.5-15-.09-3.52-.91-8.19-3.25-10.2-4-3.45-34.82,4.44-38,9.42-6.28,9.8-15,14.28-26.46,13.73,13.28-4.7,22.16-13.51,27.85-26.63,5.78-13.31,5.29-20.59-6.4-29.33-27.11-20.28-48-46-59-77.56-5.72-16.45-17.59-33.41-9.3-53a6,6,0,0,0,0-4.59c-8.54-15.52-11.43-34.46-26.15-46.18-7.62-6.06-11.48-12.47-11.91-22.47-.33-7.75-4.15-15.35-6.42-23l2.58-.09,10.17,29.67,2.9.71c.66-4.88,2.75-10.07,1.76-14.59-8.3-38-18.11-75.66-25.42-113.82-3.1-16.15-13.89-24.37-24.61-33.62-.71-.61-4,1.83-6.17,2.85a8.63,8.63,0,0,1-1.31.5L379.84,643c1.84-9.09,3.28-18.28,5.64-27.22,1.84-7,7-8.83,13.72-6.32,4.08,1.53,8.11,3.21,12.16,4.83-4.07-15.17-9.89-28.16-16.35-40.84-1.05-2.07-5.58-4.46-7.28-3.75-9.24,3.84-11.4-3.44-15.05-8.6-1.53-4.32-4.28-8.61-4.39-13-.61-25-.4-50-1-75-.15-7.19-3.63-14.63-2.49-21.44,1.56-9.34,4.24-19.56,9.76-26.91,7.64-10.18,7.17-20.76,7.25-31.88l2.45.12.51,11.32c-3.9,12.74-6,26.41-12.13,38-8.6,16.25,1.22,31.19-.63,46.89,7.22-11.13,14.15-22.09,18.39-34,7.45-21,20.09-33.17,43.42-32.59,7,.17,11-3.94,12-11.61,1.35-10.79,3.71-21.47,5.9-32.14q9.59-46.87,19.37-93.71h0c16.21-17.71,32.84-35.07,48.49-53.27,11.32-13.17,10.46-15.85-3.54-26.18-1.52-1.12-3.47-1.65-5.22-2.46-4.24,2.44-9,4.31-12.61,7.45-8.52,7.35-16.51,15.32-24.71,23l-3.08-.24,22.58-42.69-1.39-.93q-16.17,19.46-32.35,38.89c2.08-15.57,10.41-27.13,22.54-36.7,7.28-5.74,13.74-12.54,20.5-18.94,3.4-3.22,5.42-6.34-1.53-7.53,8.49-2.35,17-4.58,25.46-7.08,4.77-1.41,9.39-3.3,14.1-4.91,13.38-4.59,26.48-10.86,40.25-13.24,15.06-2.62,24.65-10.3,30.83-23.13,4.42-9.16,9.45-16.85,20.78-17.4-4,4.67-8,9.46-12.19,14-12.4,13.34-11.51,20.1,3.94,29.29.85.51,1.34,1.61,2.63,3.23-8.79,1.12-16.8,3.13-24.72,2.85-7.51-.26-14.93-2.93-22.33-4.53,3.93,12.73,3.93,12.73-3.8,31.8-8,19.8-8,19.53,12.8,19.89,38.85.65,77.69,1.66,116.54,2.53l-49.22,2.32c-26,.76-52.06,1.46-78.09,2.4-3,.11-6.57.85-8.78,2.65-25.43,20.68-55.77,35.19-74.34,64.54-10.89,17.21-16,33.63-13,53.77,2.07,13.59,5.26,29.33.59,41.21-14.56,36.95-17.09,74.77-16,113.54.24,8.6,3.8,11.47,12.06,11.66,13.18.3,26.33,1.58,39.5,2.45-12.19,2.32-24.46,4.32-36.54,7.12-4.69,1.09-10.24,2.86-13.24,6.24-25.62,28.94-30.45,62-17,100.42,5.58-10,10.82-18.43,15.07-27.32,8-16.66,17.84-31,37.27-35.47-2.56,6.94-5.26,13.84-7.65,20.83-4.38,12.85-3.18,15.63,9.84,14.11,16.91-2,33.65-5.89,50.25-9.86,9.11-2.17,14.27.11,16.56,9.17a62,62,0,0,0,3.35,10c3.79,8.59.21,12-8.23,13.21-10.38,1.45-20.65,3.65-31,5.35-9.31,1.52-12.36,5.34-6.32,14,4.68,6.69,8.23,14.17,13.06,20.74,6.14,8.34,3.19,13.14-4.81,17.46-7.56,4.09-14.75,8.88-22.1,13.35l1.22,2.89c17.72-1.43,35.44-2.82,53.16-4.31,6.36-.54,11.84-.24,12.42,8.18.55,8-2,12.4-11,12.56-10.86.18-21.72,1.28-32.56,2.26S519.52,692.83,512,685c-10.69-11-23.06-12.15-37.42-8.75-15.7,3.73-16.59,2.11-15.87-13.43.17-3.66-2.17-7.69-4.22-11-.59-1-5.79-.74-6.12,0-1.37,3.39-2.6,7.28-2.28,10.85,1.9,21.19,6.34,41.4,22.5,57.17,4.68,4.58,8,10.55,12.07,15.74,4.54,5.76,4.21,11.32-2,14.83C468,756.4,469,764,473.54,773c3.49,7,5.52,14.77,9.76,21.16,4.5,6.78,9.86,13.94,16.6,18.07,14.24,8.73,14.79,8,7.1,22.94-5.41,10.5-11.05,20.87-15.24,28.77l37.85,23.7c6.88,4.32,9.61,10.33,9.45,18.64-.43,21.42.08,42.85-.23,64.27-.11,8,3.06,12.82,10.21,16.52,9.25,4.78,18.78,9.75,26.57,16.51,23.54,20.43,47,40,76.67,52.17C667.76,1062.11,679.91,1063.71,693.28,1054.18Zm-324-508c3.44,5,5.36,9.83,6.95,9.72,4.25-.27,8.35-2.67,12.51-4.22l-.84-3.4Z"/><path class="cls-4" d="M1190.8,1101.36c-1.22-1-2.38-2-3.67-2.88-13.21-8.74-15.56-7.83-18.18,7.66-2.44,14.45-4.5,29-6.39,41.21-9-2.33-16.86-5.06-25-6.32-10.39-1.62-14.61,7-20,13.6-8.92,10.79-17.83,21.61-27.22,32-6.1,6.73-6.64,13-2.66,21.18a344.21,344.21,0,0,1,21.29,53.74c-6.57-2.26-13-5.31-19.77-6.49-4.65-.81-11.4-.8-14.39,1.93-13.3,12.15-23.23,17.92-45.92,22.7l17.4-12.08c-6.77-2.17-11.27-3.7-15.83-5-4.74-1.4-9.54-2.61-14.31-3.9-.32-1.1-.64-2.21-.95-3.31l28.49-17.19-1.15-4.24c-5.67,1.08-12.48.52-16.79,3.54-12.08,8.46-23.35,18.13-34.41,27.91a17.53,17.53,0,0,0-5.5,11c-1.27,24.47-1.77,49-2.74,73.46-.33,8.36,3.68,10,10.93,8.44,10.29-2.13,20.64-4.08,31-5.55,2.6-.37,7.59.88,7.92,2.23a84.35,84.35,0,0,1,2.29,20.45c0,1-6.47,2.82-9.83,2.59-9.24-.61-18.43-2.1-28.37-1,5.78,1.85,11.5,4,17.38,5.49,8.18,2.11,11.62,5.55,6,13.81-10.1,14.74-19.29,30.13-29.89,44.49-5.7,7.74-7.66,14.64-3.74,23.6,4.16,9.5,7.47,19.38,12.34,32.22l-15.8-6.75c-6.6,23.56,4.1,44.68,26.4,50.88l-6.7-15.15h48.5c-22.75,29.36-44.92,54.77-76.95,69.92.3.91.59,1.82.89,2.72l62,4.53c-21.37,15.76-45.37,20.66-62.65,36.07l1.15,3.74,21.43,1.23a15.42,15.42,0,0,0-.25,2c-8,1.26-16.45,1.31-23.93,4-23.48,8.49-47.73,4.36-71.64,5.61a13.57,13.57,0,0,1-4.57-.76c-5.34-1.68-12.13-6.44-15.66-4.66-8.7,4.39-16,11.61-23.64,18-5.86,4.91-11.34,10.28-17,15.44l-9.71,1.89,36.2-34-22.13-2c5.6-13.21,9.69-24.85,15.35-35.68,6-11.53,6-21.79-.86-33-6.8-11-12.38-22.77-19.55-36.18,4.52.57,6,.5,7.37,1,12.85,4.58,22.18,0,25.6-13.57.58-2.29-1.7-6.95-3.87-8-7.8-3.72-8.65-8.62-3.55-14.69,7.19-8.54,3-13.76-4.43-18.72-8.67-5.78-17.13-11.86-24.34-20.27,8.44,4.09,17.07,7.83,25.26,12.37,7.71,4.27,13.69,3.64,16.85-5,6.23-16.86,18.53-24.49,35.85-27.09,12.86-1.93,25.38-6.18,38.25-9.45-7.42-17.7-10.56-19.61-26.52-17.28-9.91,1.45-19.82,2.94-30,4.45a11.91,11.91,0,0,1,.46-2.73c20.14-2,25.63-18.92,34.13-33,4.35-7.2,10.47-13.36,14.61-20.66,2.12-3.74,3.33-9.49,2.08-13.41a372.44,372.44,0,0,0-15-39.26c-4.16-9.27-2.72-17,2.09-25.37A382,382,0,0,0,959.3,1244c-10.48,8.57-21.29,16.77-31.32,25.83-10.35,9.34-21.53,16-35.48,18.87-24.38,5-48.53,11-75.79,17.34,13.28.65,10.13,6.65,8.28,13-6.28,21.57-21.92,34.92-39.39,47.2-9.51,6.68-17.94,14.9-26.86,22.42a330.64,330.64,0,0,0,43.54-84.52c1.86-5.42,8.19-9.3,12.46-13.89l16.38.83c12.07,5.08,23.17,6.3,30.4-7.72l18.66-7c15.18-14.85,32.13-28.33,45-45,10-12.94,18.77-28.37,18-46.45l4.87-4.46c5.7.52,11.84-.14,17,1.82,10.17,3.86,19.79,9.17,31.74,14.89,1.32-23.86,15.08-35,33.17-42.43q-12.52,16.29-25.07,32.57a12.45,12.45,0,0,0,6.92-3.87c20.25-22.1,43.9-37.69,74.79-39.82,2.67-.18,5.67-.6,7.83-2,2-1.26,4.1-3.88,4.32-6.08,1.25-12.32-7.87-19.46-19.66-15.81l9.41-13.83,34.69-35.48c17.83-14,4.5-35.42,12.08-52.87,6,3.07,11.1,6.78,16.76,8.29,10.09,2.68,12.9,9,13.88,18.65.74,7.15,2.73,16.11,7.57,20.54C1184.45,1075.22,1190.46,1086.63,1190.8,1101.36Z"/><path class="cls-5" d="M1088.58,254.57c-.4,1.87-1.41,3.86-1.07,5.57.87,4.29,4.65,9.89,3.1,12.36-2.88,4.59-8.33,8.1-13.41,10.65-6.27,3.13-20.29-6.21-23.12-15.31-2.61-8.4-4.28-16.2-16.27-10-2.39,1.23-7.45-2.76-12.92-5-1.24,7.37-2.34,13.88-3.9,23.16-6.4-4.92-12.32-8-16.21-12.72-14.92-18.14-32.3-26.27-56-18.43-23.92,7.92-45.45,2.9-64.32-14.33A79.77,79.77,0,0,0,864.13,217c-18.22-8.3-25.2-22.92-25.91-41.75L862,173.54l1-4.32c-4.92-5.14-9.39-10.85-14.86-15.32-10.84-8.83-22.23-17-33.4-25.42,13.82-4.58,26.46-5.14,39.25,4.73,14.4,11.11,30.21,20.47,45.87,29.81,3.46,2.07,10.89,2.92,13,.81,8.65-8.54,16-18.45,25.84-30.38l-23.44-2.53-46.6-9.56c-31.83-8.83-63.63-17.73-95.52-26.29-1.93-.52-6.26,1.21-6.63,2.64-3.8,14.68-7,29.52-10.49,44.73l56.43-13.86c.86,24.23-22.57,32.52-36.45,51.25l24.89,2.6c-27.63,12.21-56.63,17.08-86.7,16.18,11.7-10.13,23.18-20.53,35.19-30.28,6.07-4.94,6.79-8.22.15-13.38-18.42-14.35-36.85-28.2-60.25-34-4.86-1.21-8.49-7.35-12.69-11.22l.21-2.26q4.65-25.47,9.28-50.94,11.61-9.72,23.21-19.44c13.2-1.37,17.33-5.51,18.69-18.71C733.3,5.29,750.79-2.33,768.71.64l25,4.13c4,2.09,8,4.07,11.88,6.29,9.66,5.55,19.25,11.2,30,17.47l-11.38,9c2.53,13.56,26,15.83,16.31,34.3l23.4,15.95-1.38,2.6L840.75,89a434.57,434.57,0,0,0,58.64,23.3c3.6,1.16,9.38-.35,12.57-2.75,10.52-7.9,19.82-17.46,30.54-25.05,8.16-5.79,11.33-11.06.78-21.93l33,2.71c6.66,3.37,13.77,6.08,19.83,10.3,6.62,4.6,11.87,11.15,18.42,15.88,14.41,10.39,23,24.84,30.23,40.48.64,1.39,1.46,3.1,1.18,4.45-4.4,21,11.83,36.06,15.9,54.69,1.69,7.75,8.15,14.47,12.44,21.65v4.66c-2.74-2.12-5.28-5.67-8.26-6.1-9.88-1.42-21.32-5-29.49-1.49-7.69,3.29-12.19,14.35-17.73,22.25-3.7,5.29-1.24,9.22,4.42,10.22,20.82,3.67,41.71,6.91,62.57,10.31l2.43,0C1088.35,253.2,1088.48,253.88,1088.58,254.57ZM915.47,240c3.37-7.78,5.9-11.75,6.77-16.06,1.79-8.79,6.14-11.11,14.91-9.34,16.75,3.39,33.65,6.18,50.62,8.1,3.55.4,9.76-3.3,10.91-6.49s-1.66-9.4-4.69-11.68c-5.15-3.86-11.87-5.59-17.87-8.35-6.72-3.09-13.17-5.91-14.87-14.85-.5-2.6-7-5.81-10.67-5.74-24.28.42-48.49,7.8-75.66-1.75C888.91,196.7,901.18,216.71,915.47,240ZM734.86,28.31l-1.93-1.68c-13.22,14.29-26.56,28.49-39.52,43-1.4,1.57-1.77,5.63-.76,7.56,8,15.31,16.45,30.37,25.71,47.24,18.54-20.57,31.78-41.11,38.13-65.55.47-1.79-4-6.5-6.8-7.21-8-2-16.4-2.68-27.07-4.23Z"/><path class="cls-5" d="M1195.93,467.43c6,25.65,9.6,51.33.48,78.21-1.49-3.88-2.9-6.95-3.88-10.15-5.51-18-17.19-21.62-32.5-9.72-7,5.48-13.46,11.78-20.27,17.56-7.87,6.67-12.5,5.8-13.25-4-2.64-34.27-16.39-63.84-37.17-90.25-10.85-13.8-10.61-26.21-1.12-40,6.44-9.37,9.85-18.7-3.14-26.51-2.18-1.3-3.53-7.67-2.31-10.37,13.43-29.76,13.63-61.19,12.74-92.83-.06-1.81.81-3.64,1.24-5.46,14.23,3.07,17.6,9.45,14.15,22-1.49,5.43-2.1,14.5,1,17.17,10.7,9.24,9.24,21.46,11.38,32.93l-5.86-5c3.23,27.63,5.34,53.83,9.72,79.65,2.18,12.83,12.94,14.88,21.94,6,12.08-11.87,9.53-36.22-6.7-45.27-14.8-8.26-20.15-19.51-19.08-35.3l2.34-.05c-.83,13.05,5.38,22.39,15.87,29.15,10.26,6.61,18.22,14.15,17.66,27.85-.13,3.32,3.55,6.67,5,10.2,4.48,11,8.71,22.15,13,33.23-.5,13,12.18,14.29,18.77,21Z"/><path class="cls-6" d="M92.23,1259.71c-4.91,1-10.51,3.88-14.59,2.46-10.26-3.58-18.21-1.51-23,7.51-4.28,8-10.4,9.49-18.26,9.26a199.87,199.87,0,0,0-22.17.19c-2.87.24-5.56,2.67-8.32,4.11,1.77,3,2.79,7.53,5.45,8.94,23.64,12.6,26.31,17.88,22.2,45.32-.52,3.45-.74,8.25,1.17,10.54,11.89,14.28,24.61,27.86,36.68,42,7.77,9.12,17,17.82,21.92,28.39,13.22,28.23,38.28,43.06,62.44,59.15,2.63,1.76,6.89.87,10.09,2,5.62,2.05,12.44,3.39,16.22,7.41,10.07,10.73,22.94,12.8,36.12,16.5a153.68,153.68,0,0,1,41,18.84c7.48,4.82,13.76,9.2,23,8.66,12.86-.74,25.75-1.29,35.22,10.53,1.79,2.23,6.24,2.7,9.58,3.24,12.19,2,25.08,1.86,36.41,6,8,3,14.08,11.36,20.51,17.84,2.59,2.62,3.81,6.61,5.76,10.18,20.24-25.76,6.24-60.08-19.45-71.44-7.64-3.37-8.61-7.47-5.05-14.56,5-10,9.29-20.36,13.87-30.57l-2-2.61-34.92,17.64-2.64-2.43c8.27-14.55,16.4-29.2,25-43.54.95-1.56,4.86-1.84,7.39-1.82,3.06,0,6.1,1.4,9.18,1.54,15.61.73,22.73,8.88,28.39,23.72,6.66,17.48,18.25,33.26,28.88,49,6.2,9.17,6.94,16.63,2,26.76-5.87,12.13-9.12,25.5-13.7,38.26-3.4,9.48-2.1,16.78,8.33,20.61,1.79.65,3.35,1.88,8.09,4.62-11.6,4.82-19.36,8.81-27.59,11.26-10.72,3.19-20.37,6.72-21.71,19.83-2.25-7.63-6.94-15.47-6.31-22.86,2.58-30.46-22.14-53.79-54.9-55-11.44-.42-20.71-3-30-10-5.17-3.88-13.9-4.25-21-4.07-11.95.29-20.95-3.6-30.72-10.85-10.81-8-24.32-13.49-37.48-16.9-14.06-3.63-28.22-4.93-37.22-18.54-1.81-2.75-6.36-4.58-9.91-5.14-32.31-5.1-53.72-25.34-71.62-50.69-8-11.35-15.62-23-24.43-33.76-12.33-15-26-28.81-38.17-43.93-3.05-3.79-4.14-11-3.07-16,5-23.39,3.71-29.37-17.17-39.33-9.5-4.54-12.58-10-11.52-21.93,10.3,0,21,.91,31.49-.35,5.91-.71,13.48-3.5,16.66-8,7.43-10.41,16.88-11.3,27.77-10.06C81.49,1258.42,86.86,1259.08,92.23,1259.71Z"/><path class="cls-7" d="M513.06,1056.6c11.48.55,20.18-3.93,26.46-13.73,3.19-5,34-12.87,38-9.42,2.34,2,3.16,6.68,3.25,10.2.14,5-1.49,10-1.5,15,0,4.56,1.14,9.13,2,15,2.1-6,2.61-13.33,5.61-14.55,4.23-1.71,10.36.86,15.58,2,37.17,8.33,74.3,16.81,111.48,25.09,3,.65,6.57,1.14,9.2,0,16.12-6.67,29.33,1.29,44.59,8.25-24,6-46.32,3.86-68.9,1.14-24.25-2.93-48.69-4.3-73.06-6.17-3.75-.28-7.57.42-11.53.68,4.92,19.77,21.83,31.16,40.11,28.91,15.39-1.9,30.91-2.82,46.4-3.66,7.09-.38,17.58,15.64,14.06,21.63-1.24,2.1-5.83,3.18-8.86,3.14-40.46-.54-79.33-9.67-117.07-23.47-8.77-3.2-16.09-10.37-24.08-15.71l-21.13-28-2.9.44v9.16c-4.37,5.37-5.86,10.87-2.5,17.61,1.86,3.72,2.19,8.2,3.21,12.34q3.28,15.4,6.56,30.8c-8.3-24.22-16.77-48.37-24.81-72.68-4.22-12.77-7.05-14.24-15.63-4.34-10.08,11.61-18.3,24.81-28,36.8-13.87,17.21-30,31.57-50.5,41.08-10,4.66-18.35,12.83-28.07,18.28-4.74,2.66-10.93,2.75-16.46,4,23.93-15.52,49-29.6,71.4-47.07,14-10.89,23.8-27,35.77-40.57C498.54,1071.18,505.93,1064,513.06,1056.6Z"/><path class="cls-8" d="M676.86,107.46l-.21,2.26q-6.87,26.94-13.75,53.88l4.12,2.25c9.73-6.09,19.51-12.12,29.18-18.31,17.34-11.1,17-11,24.45,8.07,3.78,9.71,1,14.42-8.65,17-8,2.17-15.82,5.34-27.07,9.23,7.72,4.29,12.61,6.41,16.71,9.57,1.93,1.48,2.33,4.95,3.42,7.52l.07,0c-38.85-.87-77.69-1.88-116.54-2.53-20.82-.36-20.83-.09-12.8-19.89,7.73-19.07,7.73-19.07,3.8-31.8,7.4,1.6,14.82,4.27,22.33,4.53,7.92.28,15.93-1.73,24.72-2.85-1.29-1.62-1.78-2.72-2.63-3.23-15.45-9.19-16.34-15.95-3.94-29.29,4.21-4.53,8.14-9.32,12.19-14l11.73.35,9-2.52C661.52,99.57,672.53,95.38,676.86,107.46Z"/><path class="cls-9" d="M976.26,65.24l-33-2.71c10.55,10.87,7.38,16.14-.78,21.93-10.72,7.59-20,17.15-30.54,25.05-3.19,2.4-9,3.91-12.57,2.75A434.57,434.57,0,0,1,840.75,89l21.77,1.46,1.38-2.6L840.5,71.87c9.74-18.47-13.78-20.74-16.31-34.3l11.38-9c-10.76-6.27-20.35-11.92-30-17.47-3.89-2.22-7.91-4.2-11.88-6.29,12,2.48,23.53,4.85,34.13,12.88,10.92,8.27,24.4,13.29,37.07,19.05,14.36,6.54,28.76,13.24,43.71,18.13,10.43,3.42,21.79,4,32.78,5.68C953,62.23,964.63,63.67,976.26,65.24Z"/><path class="cls-10" d="M384.82,404.36q-.26-5.66-.5-11.32c.25-9-1.38-18.55,1.14-26.86,5.25-17.36,12.55-34.13,19.28-51,4.68-11.78,9.83-23.37,14.77-35a2.74,2.74,0,0,1,.3-2c1.1-9.56,2.83-19.1,3.16-28.68.54-15.58,6-20.24,23.42-17.7q-1.75,7.92-3.51,15.77l-2.65,6.93q-3.15,8.4-6.31,16.82c-7.41,18.06-8.92,37.12-6.95,56.08,2.73,26.34-6,48.77-19.75,70.18-4.45,6.91-8.12,14.32-12.83,22.7Z"/><path class="cls-11" d="M442.88,247.52q1.75-7.86,3.51-15.77c-17.37-2.54-22.88,2.12-23.42,17.7-.33,9.58-2.06,19.12-3.16,28.68-4.64-20.57-5.55-41,6.16-59.58,3.21-5.11,9-8.87,14.18-12.38,6.52-4.41,13.94-7.49,20.44-11.92,13.6-9.28,26.85-19.06,40.25-28.64,7,1.19,4.93,4.31,1.53,7.53-6.76,6.4-13.22,13.2-20.5,18.94-12.13,9.57-20.46,21.13-22.54,36.71Q451.11,238.15,442.88,247.52Z"/><path class="cls-12" d="M1137.11,811.57c-4.19-13.52.86-24.6,8.1-35.86,11-17.13,20.87-35,31.86-53.65,0,9.1,0,16.3,0,23.5-6.34,16.35-12.9,32.61-18.93,49.07-3.4,9.3-5.94,18.92-8.86,28.39-.35-2.78-.7-5.56-1.16-9.24l-8.2,6.6C1139,817.44,1138,814.51,1137.11,811.57Z"/><path class="cls-5" d="M1137.11,811.57c.93,2.94,1.86,5.87,2.8,8.81.15,3.34,1.7,7.67.18,9.82-4.11,5.79-9.53,10.66-14.43,15.89l-25.48-9c-1.33-7.08-3.71-14.23-3.29-21.21.12-1.84,8.8-4.15,13.67-4.5C1119.36,810.75,1128.25,811.43,1137.11,811.57Z"/><path class="cls-13" d="M372.68,561.08c3.65,5.16,5.81,12.44,15.05,8.6,1.7-.71,6.23,1.68,7.28,3.75,6.46,12.68,12.28,25.67,16.35,40.84-4.05-1.62-8.08-3.3-12.16-4.83-6.67-2.51-11.88-.64-13.72,6.32-2.36,8.94-3.8,18.13-5.64,27.22,1.12-10.76.57-22.06,3.8-32.15,3.87-12.14.19-21.52-5-31.67C375.83,573.56,374.62,567.14,372.68,561.08Z"/><path class="cls-14" d="M1190.8,1101.36c-.34-14.73-6.35-26.14-17.42-36.27-4.84-4.43-6.83-13.39-7.57-20.54-1-9.66-3.79-16-13.88-18.65-5.66-1.51-10.74-5.22-16.76-8.29-7.58,17.45,5.75,38.89-12.08,52.87.41-10.83-1.37-22.35,1.78-32.32,3.7-11.67,2-21-3.81-30.59l4.77-7.17c5.18,13.14,17.05,18.79,28.83,22.65,10.1,3.32,14.28,8.75,13.5,18.41-.87,10.68,2.18,18.57,11.86,24.28,4,2.38,8.71,7.15,9.26,11.34,1.73,13.14,7.42,23.71,16.42,32.92Z"/><path class="cls-15" d="M1086,1606c6.77-6.29,13-13.36,20.47-18.62,6.19-4.35,7.78-8.78,6.06-15.71-2.78-11.21-5.06-22.55-8.22-36.87,22.61,9.82,9.82,29.32,16.92,43.52,6.32-4.47,12.12-9.39,18.67-12.9,4.19-2.26,9.48-2.44,14.28-3.56l-42.07,28.22-23.69,16.11Z"/><path class="cls-16" d="M676.86,107.46c-4.33-12.08-15.34-7.89-23.85-9.78Q662.49,83.81,672,69.92l14.19-13.4Q681.5,82,676.86,107.46Z"/><path class="cls-17" d="M1324.48,1224.94q0,1.05.12,2.1c-7.33-2.86-14.67-5.7-22-8.6-.68-.27-1.15-1.37-1.78-1.44-18.56-2-19.35-20-28-30.93-2.14-2.72-3.94-6.72-6.76-7.73-19.15-6.86-27.2-23.64-37-39.21-4.24-6.72-10.86-11.93-16.41-17.82,3.88.22,7.77.71,11.63.59,6.28-.21,8.8,2.29,9.31,8.81,1.49,19.11,13.74,32.09,28.7,41.06,12.85,7.71,18.38,18.78,23,31.47.76,2.1,1.09,5.36,2.56,6C1300,1214.76,1312.24,1219.78,1324.48,1224.94Z"/><path class="cls-18" d="M424.35,773.77l-2.58.09c-1.34-2.79-3.4-5.45-3.89-8.38-3.44-20.48-12.65-36.94-30.31-48.86-3.5-2.36-5.1-9.46-5.29-14.47-.71-18.87-.48-37.78-.61-56.68A8.63,8.63,0,0,0,383,645a12.65,12.65,0,0,0,1.36.29q2.42,19.5,4.81,39c2,15.67,6.94,29.86,17,42.59,5.09,6.44,7.65,15,10.76,22.84,2.84,7.15,4.89,14.62,7.28,22C424.24,772.35,424.3,773.06,424.35,773.77Z"/><path class="cls-19" d="M419.51,280.11c-4.94,11.67-10.09,23.26-14.77,35-6.73,16.9-14,33.67-19.28,51-2.52,8.31-.89,17.87-1.14,26.86l-2.46-.12c-6.45-10.4-4.28-20.73.24-31q16.68-38.07,33.4-76.12C416.42,283.69,418.15,282,419.51,280.11Z"/><path class="cls-1" d="M1125.66,846.09c4.9-5.23,10.32-10.1,14.43-15.89,1.52-2.15,0-6.48-.18-9.82l8.2-6.6c.46,3.68.81,6.46,1.16,9.24C1145.56,835,1138.29,843.27,1125.66,846.09Z"/><path class="cls-1" d="M1088.2,252.51l-2.42,0-11.52-35.19v-4.66Q1081.24,232.61,1088.2,252.51Z"/><path class="cls-20" d="M672,69.92Q662.48,83.81,653,97.68l-9,2.52Z"/><path class="cls-20" d="M728,18.37c-1.36,13.2-5.49,17.34-18.69,18.71Z"/><path class="cls-21" d="M1196,467.43c-6.59-6.7-19.27-7.95-18.77-21Z"/><path class="cls-22" d="M693.28,1054.18c-13.37,9.53-25.52,7.93-41,1.61-29.69-12.13-53.13-31.74-76.67-52.17-7.79-6.76-17.32-11.73-26.57-16.51-7.15-3.7-10.32-8.47-10.21-16.52.31-21.42-.2-42.85.23-64.27.16-8.31-2.57-14.32-9.45-18.64L491.76,864c4.19-7.9,9.83-18.27,15.24-28.77,7.69-14.94,7.14-14.21-7.1-22.94-6.74-4.13-12.1-11.29-16.6-18.07C479.06,787.81,477,780,473.54,773c-4.57-9.08-5.52-16.64,5-22.57,6.24-3.51,6.57-9.07,2-14.83-4.1-5.19-7.39-11.16-12.07-15.74-16.16-15.77-20.6-36-22.5-57.17-.32-3.57.91-7.46,2.28-10.85.33-.79,5.53-1,6.12,0,2.05,3.33,4.39,7.36,4.22,11-.72,15.54.17,17.16,15.87,13.43,14.36-3.4,26.73-2.25,37.42,8.75,7.57,7.8,17.09,10.26,27.78,9.29s21.7-2.08,32.56-2.26c9-.16,11.51-4.52,11-12.56-.58-8.42-6.06-8.72-12.42-8.18-17.72,1.49-35.44,2.88-53.16,4.31l-1.22-2.89c7.35-4.47,14.54-9.26,22.1-13.35,8-4.32,11-9.12,4.81-17.46-4.83-6.57-8.38-14-13.06-20.74-6-8.65-3-12.47,6.32-14,10.35-1.7,20.62-3.9,31-5.35,8.44-1.19,12-4.62,8.23-13.21a62,62,0,0,1-3.35-10c-2.29-9.06-7.45-11.34-16.56-9.17-16.6,4-33.34,7.88-50.25,9.86-13,1.52-14.22-1.26-9.84-14.11,2.39-7,5.09-13.89,7.65-20.83l23.72-13.82-14.74,30.78c25.61-4.14,47.65-7.5,69.57-11.48,3.18-.57,5.83-4.09,8.72-6.24-3.28-2-6.34-5.09-9.9-5.89-15.47-3.49-31.09-6.32-46.65-9.39,27-.53,54.82-5.13,77.18,16.25l12.29,14.75c-6.86,5.81-15.38,9.82-18.15,16.29-2.7,6.29.49,15.11,1.1,22.81l-68,17.48a30.76,30.76,0,0,0,15.54,5.26c20,1.25,38.26-2.75,52.55-18.13,4.48,5.66,11.75,10.83,7,19.23-6.86,12.13-1.22,20.24,6.84,28.75,11.11,11.73,10.87,14.09-3.73,20.32-11.34,4.83-15.84,11.71-15,24.12,1.06,16.69.37,33.48.42,50.23Q591.58,772.6,581,799.44c-4.75,7.52-8.46,16-14.47,22.35-14,14.81-13.39,33.56-15.45,52.32l38.91-34.54c-2.83,10.47-8,19.11-12.21,28.16-4.75,10.09-11,20.25-12.46,30.94-2.14,15.64-1.06,31.81-.26,47.7.21,4.16,3.51,9.77,7.06,11.87a314.61,314.61,0,0,0,36.45,18.24c3.23,1.38,9.88.38,11.87-2.06,5.84-7.14,11.65-5.44,18.74-3.18,12.45,4,25.16,7.13,37.75,10.64-11.79,4.69-23.62,9.29-35.34,14.15-2,.82-3.46,2.77-5.7,4.63C651.89,1022.45,669.69,1041.37,693.28,1054.18Z"/><path class="cls-5" d="M517.91,493.44c-13.17-.87-26.32-2.15-39.5-2.45-8.26-.19-11.82-3.06-12.06-11.66-1.12-38.77,1.41-76.59,16-113.54,4.67-11.88,1.48-27.62-.59-41.21-3.06-20.14,2.08-36.56,13-53.77C513.27,241.46,543.61,227,569,206.27c2.21-1.8,5.8-2.54,8.78-2.65,26-.94,52.06-1.64,78.09-2.4-2.22.65-4.52,2.07-6.65,1.84-31.71-3.37-54.63,17.73-80.92,29.24-3.62,1.59-6.3,6.65-8.2,10.68a283.07,283.07,0,0,0-26.37,104.33c-.75,12.15-6.63,23.91-8.94,36.08-1,5.19-.81,12.74,2.25,16.16,12.73,14.24,16.08,30.51,14.22,48.67a90.91,90.91,0,0,0,0,9.34c.07,16.65.07,16.6,16.93,14.9,14.29-1.43,28.58-3.07,42.91-3.86a24.13,24.13,0,0,1,13.07,3.33c20.94,12.73,41.52,26.05,62.35,38.95,6.86,4.25,7.58,9.69,5.77,17-6.34,25.6-15.19,50.84-12.46,77.92.9,8.88,1.44,17.8,2.37,26.68,2.88,27.57-6.43,53-14,78.67-2.67,9.06-2,16.45,4.15,23.84q32.91,39.3,65.27,79c8.25,10.18,18.71,9.63,29.74,7.91,16.34-2.54,17.58-1.53,17.7,14.73q.15,18.69.33,37.36L711.9,860.29l-9.18-2.62c-2.38-3.68-6.18-7.11-6.87-11.08-2.26-13-2.7-26.34-5.26-39.26-1.05-5.31-4.59-11.6-9-14.51-16.17-10.79-32.84-20.94-50-30.17-10.65-5.75-10.86-11.71-5.45-21.38,6.42-11.45,13.65-23.26,16.34-35.81,7.75-36,13.76-72.48,19.55-108.9,1.28-8.09,1-17.78-2.33-25-10.25-22.2-22-43.74-34-65.09-2.2-3.92-8-7.89-12.39-8.16-24-1.47-48.15-1.8-72.23-2.53Z"/><path class="cls-14" d="M541.18,495.78c24.08.73,48.19,1.06,72.23,2.53,4.37.27,10.19,4.24,12.39,8.16,12,21.35,23.74,42.89,34,65.09,3.33,7.22,3.61,16.91,2.33,25-5.79,36.42-11.8,72.86-19.55,108.9-2.69,12.55-9.92,24.36-16.34,35.81-5.41,9.67-5.2,15.63,5.45,21.38,17.11,9.23,33.78,19.38,50,30.17,4.37,2.91,7.91,9.2,9,14.51,2.56,12.92,3,26.26,5.26,39.26.69,4,4.49,7.4,6.87,11.08-2.88,2.6-6.65,4.68-8.5,7.88-7.25,12.58-16.93,11-29.07,8-19.9-4.86-40.32-7.8-60.67-10.27-3.8-.46-9.94,4.12-12.21,8C585,883.67,579,896.82,572.65,909.71c-6.29,12.69-5.77,13.6,8.59,15.76l20.71,2.4c7.56-.2,15.58,1.15,22.55-1,8.77-2.68,17.06-7.61,24.9-12.62,21.29-13.61,44.07-21.07,69.56-18.89-10.86,2.71-21.64,5.87-32.61,8-9.14,1.78-13.16,5.85-9.72,15.2l-10,7.15,17.2,2.5c6.56,5.36,12.9,11,19.75,16,6.27,4.55,13.62,7.74,19.51,12.69,4.41,3.7,7.26,9.25,10.8,14-5.52,2.06-10.91,4.6-16.59,6s-11.38,1.67-17.09,2.43l-23.36,2.51c-12.59-3.51-25.3-6.67-37.75-10.64-7.09-2.26-12.9-4-18.74,3.18-2,2.44-8.64,3.44-11.87,2.06a314.61,314.61,0,0,1-36.45-18.24c-3.55-2.1-6.85-7.71-7.06-11.87-.8-15.89-1.88-32.06.26-47.7,1.45-10.69,7.71-20.85,12.46-30.94,4.26-9.05,9.38-17.69,12.21-28.16L551,874.11c2.06-18.76,1.43-37.51,15.45-52.32,6-6.33,9.72-14.83,14.47-22.35.54,1.42.69,3.64,1.68,4.13,5.74,2.79,42.78-16.28,41.69-22.08-2.92-15.53-7.57-30.73-11.53-46.06l-3.8.12q-3.39,5.1-6.79,10.2c-.05-16.75.64-33.54-.42-50.23-.8-12.41,3.7-19.29,15-24.12,14.6-6.23,14.84-8.59,3.73-20.32-8.06-8.51-13.7-16.62-6.84-28.75,4.75-8.4-2.52-13.57-7-19.23,0-1.54-.05-3.07-.07-4.61-.61-7.7-3.8-16.52-1.1-22.81,2.77-6.47,11.29-10.48,18.15-16.29L611.4,544.64c6.12,4.82,12.23,9.65,19.06,15.05-5,4.73-8.29,7.41-11,10.6-5.72,6.67-4.75,23.58,1.72,24.78,11.2,2.08,22.72,2.48,37.64,3.92-5.42-13.2-9.67-23-13.48-32.91C632.36,532.2,608,511.83,572.75,504,562.15,501.6,551.7,498.53,541.18,495.78ZM643.11,776.66l-38,61.54,2.67,2.47c18.77-8.92,37.64-17.64,56.15-27.07,1.77-.9,3-7.33,1.61-9.22C659.36,795.67,652.18,787.66,643.11,776.66Z"/><path class="cls-23" d="M1121.06,1007.57c5.84,9.63,7.51,18.92,3.81,30.59-3.15,10-1.37,21.49-1.78,32.32L1088.4,1106c-2.88,1.84-5.9,3.5-8.62,5.56-10.11,7.68-19.11,17.68-30.35,22.78-24.23,11-49.82,19-74.37,29.31-9.69,4.07-18.1,11.17-27.1,16.89l-4.87,4.46-4.52,4.69c-20.91,10.24-30.22,29.89-39.91,49.23l-18.48,37.52-18.66,7H820.75c0,1,0,2.06,0,3.09l10.32,4.63-16.38-.83L775,1278.78c4.38-7.53,8.41-15.29,13.22-22.53,5.58-8.41,11.71-16.46,17.86-24.47,2.56-3.32,5.8-6.12,8.73-9.16l39.74-35c12.49-9.76,25.09-19.37,37.43-29.3,18.74-15.09,37.31-30.41,55.94-45.63,19.19-4.74,39.37-7.16,57.33-14.79,26.24-11.14,51-25.88,76.09-39.52,2.41-1.32,3.12-5.77,4.62-8.77q3.46-11.8,6.92-23.62l2.43-4.38q3.63-16.89,7.24-33.77l3.4-1.8c3.48,4.68,7,9.32,10.41,14.06C1118.05,1002.47,1119.5,1005.06,1121.06,1007.57Z"/><path class="cls-24" d="M947.9,1112.66c-18.63,15.22-37.2,30.54-55.94,45.63-12.34,9.93-24.94,19.54-37.43,29.3l42.88-42.76-2.54-3-75.54,62-2.25,2.17c-14.78,11.7-30.7,20.94-49.85,23.3-3.38.41-6.72,1.13-13.45,2.3,3.83-8.28,6.17-14.57,9.51-20.26,6.42-11,8.66-22.17,5.29-34.69-1.81-6.7-1.1-14.15-3.27-20.68-5.38-16.24,1.74-25.73,15.28-33.06,9.06-4.91,16.55-11.53,10.94-23.27-2-4.16-5.24-8.61-9.12-10.77-6.72-3.75-14.78-5.1-21.57-8.76-12.47-6.73-24.38-14.5-36.64-21.63-3.11-1.81-6.66-2.86-10-4.26,3.21-7.69,6.41-15.38,10.16-24.38,4.14,8.4,5.7,17.15,10.77,20.38,5.5,3.51,14.27,2.38,21.62,2.4,24.23.07,46.19,9.61,69.16,15.17,14.18,3.43,29.88.63,46.9.63l-61.1,45c17.38,24.61,46.66,36,73.63,29a22,22,0,0,0,9.63-6.09c8.09-8.4,16.5-16.69,23.2-26.15,3.22-4.55,2.83-11.63,4.18-17.55,3.94-17.31-.59-30.53-16.55-40.22-8-4.88-14.25-12.77-22.34-20.27L992.88,989c3.31,9.16,3.31,17.19-6,24-10.63,7.85-20.27,17.07-31,24.72-8.71,6.19-5.65,10,0,16.34,12.23,13.53,28.79,11.6,44.17,14.13,3,.49,6,.49,9.45.75Z"/><path class="cls-25" d="M814.84,462.94c35-5.94,68.55,2.86,102.32,10.09,11.25,2.41,17.65,7,19.76,19,2.51,14.34,7.13,28.3,10.83,42.43l-2.89,2.28c-4.66-3.49-10-6.36-13.86-10.59-15.88-17.45-36.71-25.57-58.55-31.7-4.19-1.17-9.7-1.18-13.55.58-25.75,11.69-51.21,24-76.59,38l20.87-2.26-50,40.78c.61.94,1.23,1.88,1.85,2.82,12.21-1.48,24.54-4.75,36.57-3.85,9.32.7,22.69-5.8,27.68,9.3l-7.07-4.9c-6.45,16.18,2,29.82,7,46.75-21.41-5.44-40.5-10-59.34-15.43-2.64-.76-5.3-5.68-5.79-9-5.63-38.7-15.22-76.23-32.08-111.67-5.25-11,2.85-12,9.78-12.83,24.3-2.83,48.67-5.12,73-7.73,3.42-.37,6.77-1.38,10.16-2.09Zm44.06,1.11c-26.18,2.07-49.25,3.6-72.22,6-3.78.39-10.52,5.37-10.17,6.86,1.82,7.58-1,18.77,10.8,20.62A238.79,238.79,0,0,0,818.6,500c4,.09,9.31-.8,11.82-3.39C839.76,487,848.19,476.49,858.9,464.05Z"/><path class="cls-26" d="M723.58,768.64c11.44-6.35,22.74-13,34.36-19,22.26-11.53,21.5-8.1,13.6-32-.85-2.58-1.64-5.18-2.34-7.81-.18-.69.09-1.49-1.86-.26l101,103.56c-44.12-7.25-93.49-27.15-144.48-41.21C723.74,770.84,723.66,769.74,723.58,768.64Z"/><path class="cls-27" d="M1188.61,596.47l19.32,24.68V596.37c6.37,18,5.27,35.6-1.69,56.48-.74-8.61-1.2-14-1.67-19.29l-3.17-1.24c-5.15,48.83-30,86.77-64.82,119.26,7.77-14.57,15.14-29.37,23.41-43.65,6.9-11.91,9.45-23.22,3-36.42-2.25-4.57-1.28-11.5.06-16.89,3-12.08,7.94-23.7,10.59-35.83,1.76-8.06.94-16.69,1.27-25.06l21.89,35,3-1.16Q1194.2,612.05,1188.61,596.47Z"/><path class="cls-28" d="M705.06,199c-1.09-2.57-1.49-6-3.42-7.52-4.1-3.16-9-5.28-16.71-9.57,11.25-3.89,19-7.06,27.07-9.23,9.63-2.6,12.43-7.31,8.65-17-7.42-19.06-7.11-19.17-24.45-8.07-9.67,6.19-19.45,12.22-29.18,18.31l-4.12-2.25q6.89-26.94,13.75-53.88c4.2,3.87,7.83,10,12.69,11.22,23.4,5.81,41.83,19.66,60.25,34,6.64,5.16,5.92,8.44-.15,13.38-12,9.75-23.49,20.15-35.19,30.28Z"/><path class="cls-24" d="M807.75,530.64c9.59-1.38,19.14-3.42,28.77-3.87a36.75,36.75,0,0,1,16.65,3.4c17.23,8,34.11,16.79,51.11,25.32,14.54,7.3,16.46,12.28,10.29,31.31-11.4-8.86-22.17-17.12-32.81-25.55-5.77-4.57-11-9.94-17.08-14-3.33-2.19-8-2.32-12.09-3.38-.44,1.09-.87,2.19-1.31,3.28q4.07,6.81,8.12,13.61c-11.78-9.93-24.76-12.08-39.83-8.3-13.5,3.39-27.55,4.6-44.13,7.21Z"/><path class="cls-27" d="M807.82,881.15c18.52,1.67,37.06,3.2,55.55,5.15,2.79.3,6.57,1.81,7.88,4,11.53,19.11,22.62,38.5,33.84,57.81l-2.64,3.11-87.73-44.11h51.1Z"/><path class="cls-29" d="M814.77,128.48c11.17,8.43,22.56,16.59,33.4,25.42,5.47,4.47,9.94,10.18,14.86,15.32l-1,4.32-23.82,1.68L801,182.43l-24.89-2.6c13.88-18.73,37.31-27,36.45-51.25C813.26,128.54,814,128.5,814.77,128.48Z"/><path class="cls-30" d="M807.82,881.15l58,25.94h-51.1l-35-9.32-28.14-7,12.72-8.8L711.9,860.29,775.38,874Z"/><path class="cls-31" d="M807.75,530.64l-32.31,29.07c16.58-2.61,30.63-3.82,44.13-7.21,15.07-3.78,28-1.63,39.83,8.3q4.54,4.74,9.08,9.49l-49.11,9.59,0,0c-5-15.1-18.36-8.6-27.68-9.3-12-.9-24.36,2.37-36.57,3.85-.62-.94-1.24-1.88-1.85-2.82l50-40.78Z"/><path class="cls-32" d="M815,463H752.34c29.6-24.64,106.16-30.25,127.12-10l-64.62,9.95Z"/><path class="cls-33" d="M700.24,979.37c5.71-.76,11.54-1,17.09-2.43s11.07-4,16.59-6c-3.54-4.73-6.39-10.28-10.8-14-5.89-4.95-13.24-8.14-19.51-12.69-6.85-5-13.19-10.64-19.75-16,14.25,1.53,28.56,2.67,42.72,4.84a20.57,20.57,0,0,1,11.74,6.56c9.51,11.47,18.22,23.62,27.23,35.51q-1.06,2.11-2.14,4.23Z"/><path class="cls-34" d="M1092.86,1026q-3.46,11.82-6.92,23.62l-50.1,17.14-2.9-3.22c9.9-8.92,19.24-18.58,29.84-26.57,15.39-11.6,20.43-27.17,20.7-45.32,0-3.74.62-7.46,1-11.19l2.94-.78,3.22,9.33c-1.46.37-4.22.95-4.2,1.06C1088.41,1002,1090.64,1014,1092.86,1026Z"/><path class="cls-35" d="M817.91,214.75c-27.79.35-53.82-1.53-79.78-4.31-.09-1.38-.19-2.76-.29-4.14,2.16-1,4.23-2.47,6.49-2.87,15.32-2.67,30.68-5.12,46-7.62C805.9,193.27,811.47,196.71,817.91,214.75Z"/><path class="cls-36" d="M751.6,890.75l28.14,7c-15.76,1.67-31.78,2.1-47.22,5.32-18.88,3.94-37.28,10.22-55.88,15.49-3.45-9.35.57-13.42,9.71-15.2,11-2.14,21.75-5.3,32.61-8Z"/><path class="cls-37" d="M1052.44,330.71c3.07,17.06,6.25,34.1,9.12,51.2.84,5,3.12,12.16-5.88,11.48-6.76-.51-17,.1-15.61-10.86,2.12-17.47,6-34.72,9-52.07Z"/><path class="cls-38" d="M1060.73,881.6c-1.06,17.26-1.74,34.56-3.71,51.71-.24,2.09-7.63,5-11.33,4.5-2.58-.32-7-6.58-6.33-8.74,5.41-16.12,11.91-31.87,18.06-47.74Z"/><path class="cls-39" d="M1168.06,568.22l-34.36,23.4-2.22-2.39c13.16-13,26.22-26.2,39.69-38.91,1-1,6.52.39,7.25,1.94,1.17,2.47,1.24,6.92-.31,8.88-2.45,3.1-6.64,4.82-10.09,7.13Z"/><path class="cls-40" d="M1112.73,656.48,1140,701C1120.36,701.19,1108.43,681.64,1112.73,656.48Z"/><path class="cls-28" d="M1188.61,596.47q5.6,15.59,11.18,31.15l-3,1.16-21.89-35-6.81-25.51,0,0c3.54,3.5,7.66,6.6,10.49,10.61C1182.39,584.38,1185.29,590.58,1188.61,596.47Z"/><path class="cls-25" d="M819.37,579.88l49.11-9.59c-9.32,13.33-24.1,15.68-38.41,17.83C827,588.58,823,582.79,819.37,579.88Z"/><path class="cls-41" d="M1092.86,1026c-2.22-12-4.45-23.93-6.47-35.93,0-.11,2.74-.69,4.2-1.06q2.36,16.31,4.7,32.61Z"/><path class="cls-42" d="M541.44,1112.57c-1-4.14-1.35-8.62-3.21-12.34-3.36-6.74-1.87-12.24,2.5-17.61,3.83,4.33,8.9,8.08,11.23,13.1,4.88,10.52,8,21.81,12.47,32.55,1.86,4.5,4.16,10,7.92,12.32,19.73,12.26,40,23.65,60,35.33l11.38,9.69,9.51,9.1c3.58,4.55,7,9.22,10.76,13.64,12,14.17,24.12,28.24,36.19,42.36-3.83,2.62-7.41,5.73-11.53,7.74-6.81,3.31-13.57,5.64-14.83-6.13-.23-2.17-4.06-5.79-6-5.66-19.06,1.18-26.13-13.81-34.05-26.1-5.25-8.15-11.52-11-19.3-8.63-9.39,2.89-18.08,8.07-29,13.16l33.77,31.68-1.65,2.8c-14.29-3.1-28.62-6-42.86-9.38-7.25-1.7-10.29,1.08-10.39,8.1a6.05,6.05,0,0,1-1.94-.63c-2.58-3.84-4.38-8.81-7.93-11.25-5.38-3.69-7-6.91-4.67-13.27,2.56-7.11,3.63-14.76,5.35-22.18.79-13.16,1.35-26.35,2.43-39.49a136.1,136.1,0,0,0-12-68.07Z"/><path class="cls-30" d="M775,1278.78l39.76,11.51c-4.27,4.59-10.6,8.47-12.46,13.89a330.64,330.64,0,0,1-43.54,84.52c-4.36,6.43-8.89,12.75-13,19.33s-7.37,6-10.35-.75l-30.8-46.49c-2.89-4.51-5.86-9-8.63-13.54-3.86-6.38-3.37-11.64,4.27-14.76l53.85-35,3.9-2.66Z"/><path class="cls-43" d="M775,1278.78l-17,16.1c-1.87-1.75-3.53-4.68-5.63-5.05-11.62-2-19.9-6.7-17.33-22.18-19.07,4.14-36,8.44-53.08,11.26-8.5,1.41-17.45.1-26.2,0L712,1264.33l-11.8-13.62c-12.07-14.12-24.19-28.19-36.19-42.36-3.74-4.42-7.18-9.09-10.76-13.64l34.11,24.4,3-3.56-44-39.84c.42-3,.83-6,1.61-11.64,11.07,8.11,20.18,15.77,30.21,21.92,16.84,10.32,28.1,23.88,30.45,44.06,1.39,11.94,7.62,18.22,20.45,16.07a18.88,18.88,0,0,1,8.13.34c26.11,7.66,46-2.23,62.68-21.74,5.49-6.41,11.42-12.46,17.15-18.68l2.25-2.17c.73,2.33,2.61,5.07,1.95,6.9-1.51,4.19-4.25,7.93-6.49,11.85-2.93,3-6.17,5.84-8.73,9.16-6.15,8-12.28,16.06-17.86,24.47C783.39,1263.49,779.36,1271.25,775,1278.78Z"/><path class="cls-44" d="M700.24,1250.71l11.8,13.62-56.32,14.59-90.13-9.18c-.52-4.75-.88-8.1-1.25-11.45.1-7,3.14-9.8,10.39-8.1,14.24,3.34,28.57,6.28,42.86,9.38l1.65-2.8-33.77-31.68c10.93-5.09,19.62-10.27,29-13.16,7.78-2.39,14,.48,19.3,8.63,7.92,12.29,15,27.28,34.05,26.1,2-.13,5.82,3.49,6,5.66,1.26,11.77,8,9.44,14.83,6.13C692.83,1256.44,696.41,1253.33,700.24,1250.71Z"/><path class="cls-45" d="M784.1,1407c3.52-11,6.23-22.28,11-32.65,1.55-3.36,8.4-5.16,13.13-6,22.81-4.12,45.72-7.68,72.08-12L852,1411.81l-4.35.55-4.7,2.4c-9.88,4.11-21.07,6.5-29.33,12.76-10.5,8-19.33,11.68-29.49,2.83Z"/><path class="cls-46" d="M613.83,1489.09l-4.44-9.47c-2.75-8.42-5.92-16.73-8.19-25.28-8.47-32-16.64-64-24.92-96.07q.35-6.87.7-13.74l2.88-.34,10.53,23.36c4.71,14.74,10.38,29.26,13.8,44.28,2.27,10,6.55,14.8,16.66,15.53s20.29,2.41,29.78,3.59c-.67,7.73-1.15,13.32-1.63,18.91l-2,2.33c-4,4-8.31,7.77-12.05,12C627.72,1472.36,620.84,1480.78,613.83,1489.09Z"/><path class="cls-6" d="M495.59,1399.32c-3.44-6.91-8.79-13.51-10-20.79-3.86-23.7-6.78-47.6-8.71-71.53-.52-6.46,2.3-14.33,6.14-19.73,6.77-9.5,15.5-17.59,25.58-25.4.87,46,1.55,91.29-8.59,135.84Z"/><path class="cls-47" d="M576.28,1358.27c8.28,32,16.45,64.09,24.92,96.07,2.27,8.55,5.44,16.86,8.19,25.28-5.39-10.2-12.39-19.88-15.88-30.7-13.89-43-22.84-87.25-28.36-132.14-.29-2.42.61-5,1.08-8.41,34.66,21.48,48.38,59,73.53,86.86q-2.64,8.67-5.3,17.33l-9.34-9.71c-11-20.51-21.49-41.35-33.46-61.29-3.07-5.11-10.91-7.35-16.56-10.91l-3.69,2.37Q573.84,1345.65,576.28,1358.27Z"/><path class="cls-48" d="M847.62,1412.36l4.34-.55c-2.4,3.29-4.2,7.36-7.3,9.76-17.45,13.58-34.27,28.38-53.24,39.45-11,6.39-25.51,6.87-38.57,9.34-6.41,1.21-13.11,1.16-19.69,1.23-11.57.12-19.7,5.89-26,15-1.75-4.3-3.47-7.85-9.17-3.95-3.34,2.3-7.5,3.42-11.29,5.07l-1.22-2.4L705,1466l6.81-3-8.88,11.74c8.77-3.4,16.12-9.18,24.46-12.55,9.73-3.93,21.29-9.85,30.35-7.69,21.72,5.17,39.27,2,55.12-13.7,5.18-5.12,12.12-8.4,17.83-13C836.61,1423,842,1417.52,847.62,1412.36Z"/><path class="cls-7" d="M705,1466l-19.51,19.32,1.22,2.4c3.79-1.65,7.95-2.77,11.29-5.07,5.7-3.9,7.42-.35,9.17,3.95-9.7,6.23-19.18,12.87-29.28,18.37-2.21,1.21-7.66-.58-9.83-2.77-7.62-7.65-14.45-16.08-24.59-27.65Z"/><path class="cls-49" d="M453.33,1395.59c3.07,0,3.92-.26,4.44,0,13.47,7.69,26.9,15.43,39.49,22.68-.32,5.51-.6,10.31-.93,16.09l-24.4-1.3c-8.92-.46-12.67,3.92-12.52,12.67.22,12.58.06,25.17.06,37.75l-4.18.72c-6-16.44-12.06-32.83-17.46-49.45-.28-.86,5.29-5.07,8.31-5.29,9.19-.67,18.5.33,27.69-.35,3.24-.24,6.27-3.44,9.4-5.28-2-2.62-3.75-5.59-6.17-7.78C469.77,1409.49,462.2,1403.2,453.33,1395.59Z"/><path class="cls-50" d="M625.12,1402.85l9.34,9.71c7.53,8,21.12,10.84,21.24,25.09l-6.7,12.21c.48-5.59,1-11.18,1.63-18.91-9.49-1.18-19.6-2.85-29.78-3.59s-14.39-5.55-16.66-15.53c-3.42-15-9.09-29.54-13.8-44.28C598.2,1383,610.87,1393.71,625.12,1402.85Z"/><path class="cls-51" d="M847.62,1412.36c-5.62,5.16-11,10.6-16.92,15.4-5.71,4.65-12.65,7.93-17.83,13-15.85,15.66-33.4,18.87-55.12,13.7-9.06-2.16-20.62,3.76-30.35,7.69-8.34,3.37-15.69,9.15-24.46,12.55l8.88-11.74c8.44-7.27,17.37-14.07,25.19-22,7.35-7.41,15.47-9.09,25.23-7.45,3.24.54,6.75-.58,10.14-.93l-17.47,20.66c14.64-.82,28.32,2.09,37.83-2.92,18-9.48,33.59-23.51,50.18-35.65Z"/><path class="cls-52" d="M842.92,1414.76c-16.59,12.14-32.19,26.17-50.18,35.65-9.51,5-23.19,2.1-37.83,2.92l17.47-20.66q5.86-12.87,11.72-25.72v23.4c10.16,8.85,19,5.12,29.49-2.83C821.85,1421.26,833,1418.87,842.92,1414.76Z"/><path class="cls-53" d="M541.44,1112.57l4.19-9.17a136.1,136.1,0,0,1,12,68.07c-1.08,13.14-1.64,26.33-2.43,39.49l-2.46-12q-2.34-27.81-4.69-55.63Q544.71,1128,541.44,1112.57Z"/><path class="cls-54" d="M754.06,1297.54l-53.85,35C706.76,1303.29,733.34,1304.93,754.06,1297.54Z"/><path class="cls-55" d="M552.69,1199l2.46,12c-1.72,7.42-2.79,15.07-5.35,22.18-2.29,6.36-.71,9.58,4.67,13.27,3.55,2.44,5.35,7.41,7.93,11.25-30-14.29-24.51-10.13-18.16-37.59C545.92,1212.78,549.81,1206,552.69,1199Z"/><path class="cls-56" d="M655.7,1437.65c-.12-14.25-13.71-17.1-21.24-25.09q2.65-8.65,5.3-17.33c4.93,5,9.84,9.92,14.78,14.86C663.36,1418.93,663.81,1428.11,655.7,1437.65Z"/><path class="cls-57" d="M467,1488.54c8.63-13,15.87-23.9,23.32-35.11C501.53,1465.76,492.69,1479.46,467,1488.54Z"/><path class="cls-58" d="M704.57,1360.79l30.8,46.49c-12,.5-17.25-6.89-20.48-17.15C711.77,1380.25,708,1370.56,704.57,1360.79Z"/><path class="cls-59" d="M613.83,1489.09c7-8.31,13.89-16.73,21.07-24.89,3.74-4.24,8-8,12.05-12l-22.57,43.49Z"/><path class="cls-60" d="M892.11,1386.79c4.1-9.84,8.21-19.68,12.84-30.8C910.34,1364.42,905.46,1375.84,892.11,1386.79Z"/><path class="cls-61" d="M1231.62,1236.41c-15.33-1.57-30.77-2.56-45.95-5.09-4.06-.67-8.17-5.47-10.81-9.36-4.07-6-6.89-12.88-10.24-19.38l1.94-2.86,66.51,32.46Z"/><path class="cls-62" d="M1081.56,1596.92l9.3-41.11c8.4,16.22-3.17,28.07-6.2,41.79Z"/><path class="cls-63" d="M541.18,495.78c10.52,2.75,21,5.82,31.57,8.19,35.25,7.86,59.61,28.23,72.56,62.11,3.81,9.94,8.06,19.71,13.48,32.91-14.92-1.44-26.44-1.84-37.64-3.92-6.47-1.2-7.44-18.11-1.72-24.78,2.74-3.19,6.06-5.87,11-10.6-6.83-5.4-12.94-10.23-19.06-15.05-22.36-21.38-50.2-16.78-77.18-16.25l-7,2.22L503.5,544.43c-19.43,4.47-29.3,18.81-37.27,35.47-4.25,8.89-9.49,17.3-15.07,27.32-13.48-38.46-8.65-71.48,17-100.42,3-3.38,8.55-5.15,13.24-6.24,12.08-2.8,24.35-4.8,36.54-7.12ZM492,507.37c-15,4.72-23.71,26.48-21.34,52C478.21,541,484.83,524.88,492,507.37Z"/><path class="cls-19" d="M384.82,404.36l9.57,15.87c4.71-8.38,8.38-15.79,12.83-22.7C421,376.12,429.7,353.69,427,327.35c-2-19-.46-38,6.95-56.08v78l18.54-45.39,18.69-18.67q-9.7,46.84-19.37,93.71c-2.19,10.67-4.55,21.35-5.9,32.14-1,7.67-5,11.78-12,11.61-23.33-.58-36,11.62-43.42,32.59-4.24,11.93-11.17,22.89-18.39,34,1.85-15.7-8-30.64.63-46.89C378.8,430.77,380.92,417.1,384.82,404.36Z"/><path class="cls-2" d="M471.15,285.16l-18.69,18.67q10.55-35,21.11-70.08c8.2-7.72,16.19-15.69,24.71-23,3.64-3.14,8.37-5,12.61-7.45.4,4,2.46,8.83.93,11.82-9,17.53-18.69,34.71-28.46,51.82-3.62,6.35-8.11,12.2-12.2,18.27Z"/><path class="cls-19" d="M424.35,773.77c-.05-.71-.11-1.42-.15-2.14,1.44-1,4.23-2.09,4.13-2.83-1.91-14-2.14-28.66-6.78-41.74-8.88-25-20.22-49.22-30.79-73.64-1.33-3.07-4.24-5.45-6.42-8.16A12.65,12.65,0,0,1,383,645c2.12-1,5.46-3.46,6.17-2.85,10.72,9.25,21.51,17.47,24.61,33.62,7.31,38.16,17.12,75.84,25.42,113.82,1,4.52-1.1,9.71-1.76,14.59l-2.9-.71Z"/><path class="cls-64" d="M442.88,247.52q8.24-9.36,16.45-18.73l32.35-38.9,1.39.93q-11.29,21.35-22.57,42.69c-4.46,11-9.55,21.71-13.24,32.91-5.31,16.1-9.61,32.52-14.33,48.81l-2.7-.5V254.45Z"/><path class="cls-36" d="M632.4,1175.92c-20.07-11.68-40.32-23.07-60-35.33-3.76-2.34-6.06-7.82-7.92-12.32-4.43-10.74-7.59-22-12.47-32.55-2.33-5-7.4-8.77-11.23-13.1v-9.16l2.9-.44,21.13,28c13.43,22.79,31.6,41.41,51.38,58.67C621.91,1164.69,627,1170.48,632.4,1175.92Z"/><path class="cls-65" d="M440.23,254.45v60.28l2.7.5c4.72-16.29,9-32.71,14.33-48.81,3.69-11.2,8.78-22,13.24-32.91l3.07.24q-10.56,35-21.11,70.08l-18.54,45.39v-78Q437.07,262.86,440.23,254.45Z"/><path class="cls-54" d="M471.16,285.17c4.09-6.07,8.58-11.92,12.2-18.27,9.77-17.11,19.46-34.29,28.46-51.82,1.53-3-.53-7.83-.93-11.82,1.75.81,3.7,1.34,5.22,2.46,14,10.33,14.86,13,3.54,26.18C504,250.1,487.37,267.46,471.16,285.17Z"/><path class="cls-66" d="M646.4,1175.71l44,39.84-3,3.56-34.11-24.4-9.51-9.1Q645.1,1180.66,646.4,1175.71Z"/><path class="cls-8" d="M369.23,546.22l18.62,2.1.84,3.4c-4.16,1.55-8.26,3.95-12.51,4.22C374.59,556.05,372.67,551.23,369.23,546.22Z"/><path class="cls-67" d="M948,1180.5c9-5.72,17.41-12.82,27.1-16.89,24.55-10.34,50.14-18.31,74.37-29.31,11.24-5.1,20.24-15.1,30.35-22.78,2.72-2.06,5.74-3.72,8.62-5.56l-9.41,13.83-49.13,35c-18.09,7.4-31.85,18.57-33.17,42.43-12-5.72-21.57-11-31.74-14.89C959.8,1180.36,953.66,1181,948,1180.5Z"/><path class="cls-61" d="M1029.86,1154.78l49.13-35c11.79-3.65,20.91,3.49,19.66,15.81-.22,2.2-2.34,4.82-4.32,6.08-2.16,1.38-5.16,1.8-7.83,2-30.89,2.13-54.54,17.72-74.79,39.82a12.45,12.45,0,0,1-6.92,3.87Q1017.33,1171.06,1029.86,1154.78Z"/><path class="cls-67" d="M938.57,1189.65l4.52-4.69c.81,18.08-8,33.51-18,46.45-12.82,16.66-29.77,30.14-45,45q9.24-18.76,18.49-37.52Z"/><path class="cls-68" d="M831.12,1291.12l-10.32-4.63c0-1,0-2.06,0-3.09h40.77C854.29,1297.42,843.19,1296.2,831.12,1291.12Z"/><path class="cls-69" d="M915.47,240c-14.29-23.33-26.56-43.34-40.55-66.16,27.17,9.55,51.38,2.17,75.66,1.75,3.69-.07,10.17,3.14,10.67,5.74,1.7,8.94,8.15,11.76,14.87,14.85,6,2.76,12.72,4.49,17.87,8.35,3,2.28,5.79,8.61,4.69,11.68s-7.36,6.89-10.91,6.49c-17-1.92-33.87-4.71-50.62-8.1-8.77-1.77-13.12.55-14.91,9.34C921.37,228.29,918.84,232.26,915.47,240Z"/><path class="cls-70" d="M814.77,128.48c-.75,0-1.51.06-2.26.1l-56.43,13.86c3.47-15.21,6.69-30,10.49-44.73.37-1.43,4.7-3.16,6.63-2.64,31.89,8.56,63.69,17.46,95.52,26.29l-16.06-1.26c17.27,10.08,31.07,19.54,46.15,26.07,4.37,1.89,12.47-4.43,18.55-7.57.51-.26-1.31-5-2-7.68l23.44,2.53c-9.89,11.93-17.19,21.84-25.84,30.38-2.14,2.11-9.57,1.26-13-.81-15.66-9.34-31.47-18.7-45.87-29.81C841.23,123.34,828.59,123.9,814.77,128.48Z"/><path class="cls-20" d="M734.86,28.31,722.62,47.46c10.67,1.55,19,2.2,27.07,4.23,2.83.71,7.27,5.42,6.8,7.21-6.35,24.44-19.59,45-38.13,65.55-9.26-16.87-17.71-31.93-25.71-47.24-1-1.93-.64-6,.76-7.56,13-14.53,26.3-28.73,39.52-43Z"/><path class="cls-48" d="M1074.26,217.35l11.52,35.19c-20.87-3.4-41.76-6.64-62.58-10.31-5.66-1-8.12-4.93-4.42-10.22,5.54-7.9,10-19,17.73-22.25,8.17-3.5,19.61.07,29.49,1.49C1069,211.68,1071.52,215.23,1074.26,217.35Z"/><path class="cls-71" d="M915.32,130.92c.73,2.66,2.55,7.42,2,7.68-6.08,3.14-14.18,9.46-18.55,7.57-15.08-6.53-28.88-16-46.15-26.07l16.06,1.26Z"/><path class="cls-72" d="M1123.29,346.06c-1.07,15.79,4.28,27,19.08,35.3,16.23,9.05,18.78,33.4,6.7,45.27-9,8.86-19.76,6.81-21.94-6-4.38-25.82-6.49-52-9.72-79.65l5.86,5Z"/><path class="cls-73" d="M384.34,645.26c2.18,2.71,5.09,5.09,6.42,8.16,10.57,24.42,21.91,48.6,30.79,73.64,4.64,13.08,4.87,27.75,6.78,41.74.1.74-2.69,1.88-4.13,2.83-2.4-7.33-4.45-14.8-7.29-22-3.11-7.84-5.67-16.4-10.76-22.84-10.06-12.73-15-26.92-17-42.59Q386.72,664.75,384.34,645.26Z"/><path class="cls-74" d="M602.2,745.75q3.4-5.1,6.79-10.2l3.8-.12c4,15.33,8.61,30.53,11.53,46.06,1.09,5.8-36,24.87-41.69,22.08-1-.49-1.14-2.71-1.68-4.13Q591.57,772.59,602.2,745.75Z"/><path class="cls-75" d="M527.22,530.61l7-2.22c15.56,3.07,31.18,5.9,46.65,9.39,3.56.8,6.62,3.87,9.9,5.89-2.89,2.15-5.54,5.67-8.72,6.24-21.92,4-44,7.34-69.57,11.48Z"/><path class="cls-9" d="M606.64,598.49c0,1.54.05,3.07.07,4.61-14.29,15.38-32.57,19.38-52.55,18.13A30.76,30.76,0,0,1,538.62,616Z"/><path class="cls-63" d="M751.6,890.75,719,895.37c-25.49-2.18-48.27,5.28-69.56,18.89-7.84,5-16.13,9.94-24.9,12.62-7,2.14-15,.79-22.55,1,9-5.21,18.32-10.07,27-15.75s17.16-12.32,25.7-18.54c-.25-1.3-.5-2.61-.76-3.92-12.34-4-24.63-8.19-37.09-11.75-2-.56-5.77,1.05-7,2.83-9.79,14.75-19.16,29.78-28.66,44.73-14.36-2.16-14.88-3.07-8.59-15.76,6.39-12.89,12.37-26,19.62-38.43,2.27-3.89,8.41-8.47,12.21-8,20.35,2.47,40.77,5.41,60.67,10.27,12.14,3,21.82,4.59,29.07-8,1.85-3.2,5.62-5.28,8.5-7.88l9.18,2.62L764.32,882Z"/><path class="cls-76" d="M581.24,925.47c9.5-15,18.87-30,28.66-44.73,1.18-1.78,5-3.39,7-2.83,12.46,3.56,24.75,7.76,37.09,11.75.26,1.31.51,2.62.76,3.92-8.54,6.22-16.85,12.79-25.7,18.54s-18,10.54-27,15.75Z"/><path class="cls-4" d="M643.11,776.66c9.07,11,16.25,19,22.43,27.72,1.34,1.89.16,8.32-1.61,9.22-18.51,9.43-37.38,18.15-56.15,27.07l-2.67-2.47Z"/><path class="cls-3" d="M814.79,1222.62c2.24-3.92,5-7.66,6.49-11.85.66-1.83-1.22-4.57-1.95-6.9l75.54-62,2.54,3-42.88,42.76Z"/><path class="cls-77" d="M938.57,1189.65l-39.9,49.23C908.35,1219.54,917.66,1199.89,938.57,1189.65Z"/><path class="cls-78" d="M858.9,464.05c-10.71,12.44-19.14,22.95-28.48,32.57-2.51,2.59-7.83,3.48-11.82,3.39a238.79,238.79,0,0,1-31.29-2.48c-11.78-1.85-9-13-10.8-20.62-.35-1.49,6.39-6.47,10.17-6.86C809.65,467.65,832.72,466.12,858.9,464.05Z"/><path class="cls-79" d="M625.12,1402.85c-14.25-9.14-26.92-19.83-34.73-35.3l-10.53-23.36-2.88.34q-.35,6.87-.7,13.74-2.44-12.62-4.87-25.25l3.69-2.37c5.65,3.56,13.49,5.8,16.56,10.91C603.63,1361.5,614.09,1382.34,625.12,1402.85Z"/><path class="cls-80" d="M492,507.37c-7.19,17.51-13.81,33.66-21.34,52C468.31,533.85,477,512.09,492,507.37Z"/></svg>