<svg id="Layer_1" data-name="Layer 1" xmlns="http://www.w3.org/2000/svg" viewBox="0 0 1500 1848.34"><path d="M1492.12,1332.73c-12.95-13.44-26.12-26.68-39.64-39.54a20,20,0,0,0-11.29-5.09c-9.87-.82-17.22-3.8-25.49-10.72-10.76-9-25.84-12.84-39.11-18.79-2.1-.94-4.77-.83-6.64-2-15.19-9.73-30.25-19.66-45.35-29.52h0q-.09-1.05-.12-2.1c-12.24-5.16-24.53-10.18-36.61-15.68-1.47-.66-1.8-3.92-2.56-6-4.63-12.69-10.16-23.76-23-31.46-15-9-27.21-22-28.7-41.07-.51-6.52-3-9-9.31-8.81-3.86.12-7.75-.37-11.63-.59l-7-11.31c-9-9.21-14.69-19.78-16.42-32.92-.55-4.19-5.22-9-9.26-11.34-9.68-5.71-12.73-13.6-11.86-24.28.78-9.66-3.4-15.09-13.5-18.41-11.78-3.86-23.65-9.51-28.83-22.65-7.57-8.6-14.29-18.17-22.91-25.54-10.23-8.75-11.1-18.56-8.23-30.3,1.55-6.32,3.1-12.83,3.19-19.28.32-22.12-.2-44.26,0-66.38.08-7.28,1.47-14.54,2.27-21.81h0l25.48,9c12.63-2.82,19.9-11.12,23.61-23.07,2.92-9.47,5.46-19.09,8.86-28.39,6-16.46,12.59-32.72,18.93-49.07,0-2.7,0-5.4,0-8.2v8.2c2.92-4.07,7.12-7.75,8.55-12.29,9.64-30.51,20.25-60.85,27.35-92,4.32-18.92,4.11-38.69-3.57-58.35-5.61-14.38-6.22-30.85-8-46.5-.46-4,3.93-8.34,4.61-12.75a86.7,86.7,0,0,0,.46-18.37c-.36-5.75-2.91-11.59-2.25-17.11,1.08-8.9.68-16.3-8.29-20.78h0l-18.77-21h0c-4.33-11.08-8.56-22.2-13-33.23-1.44-3.53-5.12-6.88-5-10.2.56-13.7-7.4-21.24-17.66-27.85-10.49-6.76-16.7-16.1-15.87-29.15.42-13.19,1.66-26.33-10.53-36.3-2.19-1.79-1.49-8.64-.36-12.65,3.75-13.26,1.56-18.66-9.56-26.47-6.22-4.36-11.11-10.62-16.6-16-.1-.69-.23-1.37-.38-2.06l-2.43,0c-20.86-3.4-41.75-6.64-62.57-10.31,20.82,3.67,41.71,6.91,62.58,10.31l-11.52-35.19h0l11.52,35.19,2.42,0q-7-19.9-13.94-39.82v0c-4.29-7.18-10.75-13.9-12.44-21.65-4.07-18.63-20.3-33.69-15.9-54.69.28-1.35-.54-3.06-1.18-4.45-7.18-15.64-15.82-30.09-30.23-40.48-6.55-4.73-11.8-11.28-18.42-15.88-6.06-4.22-13.17-6.93-19.83-10.3-11.63-1.57-23.28-3-34.89-4.73-11-1.64-22.35-2.26-32.78-5.68-15-4.89-29.35-11.59-43.71-18.13-12.67-5.76-26.15-10.78-37.07-19.05-10.6-8-22.09-10.4-34.13-12.88l-25-4.13c-17.92-3-35.41,4.65-40.67,17.73l-18.69,18.7L686.14,56.52Q681.5,82,676.86,107.46q4.65-25.47,9.28-50.94L672,69.92Q662.48,83.8,653,97.68h0Q662.49,83.81,672,69.92l-28,30.27-11.73-.34h0c-11.33.55-16.36,8.24-20.78,17.4-6.18,12.83-15.77,20.51-30.83,23.13-13.77,2.38-26.87,8.65-40.25,13.24-4.71,1.61-9.33,3.5-14.1,4.91-8.44,2.5-17,4.73-25.46,7.08a11.36,11.36,0,0,1,3,.86,11.36,11.36,0,0,0-3-.86c-13.4,9.58-26.65,19.36-40.25,28.64-6.5,4.43-13.92,7.51-20.44,11.92-5.19,3.51-11,7.27-14.18,12.38-11.71,18.62-10.8,39-6.16,59.58a2.74,2.74,0,0,0-.3,2c-1.36,1.87-3.09,3.58-4,5.65q-16.8,38-33.4,76.12c-4.52,10.31-6.69,20.64-.24,31l2.46.12q.24,5.67.5,11.32L384.31,393l-2.45-.12c-.08,11.12.39,21.7-7.25,31.88-5.52,7.35-8.2,17.57-9.76,26.91-1.14,6.81,2.34,14.25,2.49,21.44.55,25,.34,50,1,75,.1,4.35,2.85,8.64,4.38,13,1.94,6.06,3.15,12.48,6,18.08,5.16,10.15,8.84,19.53,5,31.67-3.23,10.09-2.68,21.39-3.8,32.15l1.83,2.49c.13,18.9-.1,37.81.61,56.68.19,5,1.79,12.11,5.29,14.47,17.66,11.92,26.87,28.38,30.31,48.86.49,2.93,2.55,5.59,3.89,8.38,2.27,7.66,6.09,15.26,6.42,23,.43,10,4.29,16.41,11.91,22.47,14.72,11.72,17.61,30.66,26.15,46.18a6,6,0,0,1,0,4.59c-8.29,19.56,3.58,36.52,9.3,53,11,31.55,31.89,57.28,59,77.56,11.69,8.74,12.18,16,6.4,29.33-5.69,13.12-14.57,21.93-27.85,26.63-7.13,7.41-14.52,14.58-21.33,22.28-12,13.53-21.8,29.68-35.77,40.57-22.41,17.47-47.47,31.55-71.4,47.07l-13.93,7.09c-6.89,8.15-13.52,16.54-20.83,24.3a14.59,14.59,0,0,1-9.59,4.27c-18.15-.12-35.53,2.34-51.33,12a6,6,0,0,1-3.3,1.1c-20-1.77-32.85,13.75-49.35,20.41a57.78,57.78,0,0,1-14.43,4c-15.33,1.84-30.73,3-46.07,4.71-18.44,2-36.84,4.3-55.26,6.47l-28.24,8.86c-5.37-.63-10.74-1.29-16.11-1.9-10.89-1.24-20.34-.35-27.77,10.06-3.18,4.45-10.75,7.24-16.66,8-10.47,1.26-21.19.35-31.49.35-1.06,11.92,2,17.39,11.52,21.93,20.88,10,22.22,15.94,17.17,39.33-1.07,5,0,12.16,3.07,16,12.14,15.12,25.84,29,38.17,43.93,8.81,10.71,16.41,22.41,24.43,33.76,17.9,25.35,39.31,45.59,71.62,50.69,3.55.56,8.1,2.39,9.91,5.14,9,13.61,23.16,14.91,37.22,18.54,13.16,3.41,26.67,8.89,37.48,16.9,9.77,7.25,18.77,11.14,30.72,10.85,7.07-.18,15.8.19,21,4.07,9.34,7,18.61,9.56,30,10,32.76,1.22,57.48,24.55,54.9,55-.63,7.39,4.06,15.23,6.31,22.86l2.94,3.94c21.46-1,38.11,7,49.72,25.58a37.8,37.8,0,0,0,12.43,12.09c7.34,4.31,10.12,10.41,7.52,17.53-4.63,12.67,3.82,18,11.23,25,14.23,13.46,27.85,27.56,41.62,41.5,6.55,6.63,13,13.37,19.21,20.33,4.6,5.17,8.49,11,13.09,16.13a69.62,69.62,0,0,0,11,10.16c6.78,4.91,13.87,9.42,21,13.78,3.53,2.15,7.33,4.47,11.29,5.16,21.26,3.71,42.71,6.43,63.87,10.64,5.56,1.1,10.17,6.53,15.47,9.5,5.55,3.1,12,8.83,17,7.85,17.27-3.4,36.74.23,51.13-13.83,3.69-5.33,6.92-11.07,11.16-15.93,10.62-12.2,22.52-23.48,22-41.66-.08-2.72,2.29-5.55,3.65-8.26,3.13-6.28,6.34-12.51,9.52-18.77.88-3.3.86-7.27,2.77-9.79,13-17.12,26.33-33.92,39.57-50.83h0l9.71-1.89c5.65-5.16,11.13-10.53,17-15.44,7.62-6.38,14.94-13.6,23.64-18,3.53-1.78,10.32,3,15.66,4.66a13.57,13.57,0,0,0,4.57.76c23.91-1.25,48.16,2.88,71.64-5.61,7.48-2.7,15.93-2.75,23.93-4a15.42,15.42,0,0,1,.25-2h0c13.25-13.9,31.5-16.88,48.61-22.41,4.32-1.39,8.43-3.44,12.68-5.06,9.09-3.45,18.21-6.81,27.31-10.21l2.42.19,23.69-16.11,42.07-28.22c5.94,2.61,12.46,4.38,17.68,8,8,5.58,14.13,5.82,21.68-1.1,3.72-3.42,10.08-4.77,15.45-5.43,20.53-2.5,41.13-4.34,61.71-6.43,19.15-6.34,28.84-24.22,43.72-35.71,14.57-11.24,30.11-21.22,45.23-31.75l23.16-14.45c14.86-10.11,29.71-20.25,44.63-30.29,1.92-1.29,4.21-3,6.26-3,20.21.76,20.75-15.15,21.53-27.83,1.2-19.38,13.42-31.85,23.56-46a242.66,242.66,0,0,0,16.55-26.29C1496.34,1339.74,1494.19,1334.89,1492.12,1332.73Z"/></svg>