<svg id="Layer_1" data-name="Layer 1" xmlns="http://www.w3.org/2000/svg" viewBox="0 0 1500 1931.76"><path d="M1499.78,1545.64c-4.72,1.14-10.3,1.38-15,2.55,4.7-1.17,10.28-1.41,15-2.55q0-6.56,0-13.1c0-8.55-.82-17.1-.8-25.65,0-1.39-2-3.59-1.94-5-9.54-1.66-9.94-6.86-9.68-16.1.33-11.59-.95-21.65-7.77-33-8.15-13.58-18.56-29.1-13.64-47.63a9.18,9.18,0,0,0-.9-6.26c-5.59-10-11.67-19.74-17.22-29.76-4.21-7.61-8.16-15.38-11.75-23.3-4.62-10.21-8.61-20.71-13.18-30.94-2.69-6-6-11.75-9-17.61h0c.56-18.14-7.19-33.24-17.33-47.47v0c-1.9-1.8-5.33-3.52-5.44-5.43-.65-11.15-9-16.44-16.08-22.82l-4.19-8.49-32.46-32.55c-13.78-1.8-24.29-9.34-33.84-18.85-2.15-2.13-5.38-3.26-8.24-4.56-10.5-4.75-21-9.47-31.6-14-7.3-3.15-14.87-8.79-22.07-8.43-16,.79-26.17-7.05-35.83-17.53a38.19,38.19,0,0,0-4.12-3.45c-9-10.37-16.16-23.14-32.25-24.3-1.75-.13-3.74-2.21-4.94-3.87-17.9-24.89-47.3-36-68.3-57.21a8.88,8.88,0,0,0-2.8-1.56c-18.22-8-36.48-16-54.65-24.21-1.84-.83-3-3.16-4.72-4.3-15.41-9.93-21.48-26.86-30.62-41.37-5.21-8.27-8.71-17.64-12.81-26.59-7.55-16.52-12.39-34.3-27.84-46.51-12.31-15.86-38-12.1-38-12.1s-19.6,0-46.4-26.26c-6.92-11.1.89-22.7-1.56-33.51-3-13.35,3-22.06,12.18-29.61,6-4.88,12.61-12.51,19-12.53,13.67,0,22-6.62,30.24-15.53,4.61-5,9-10.47,14.49-14.42,7.23-5.24,9.34-11.6,9.66-20.21.2-5.5,3.81-10.93,6.19-16.26,1.28-2.88,3.59-5.34,4.71-8.26,5.08-13.32,9.72-26.81,14.92-40.08,1.81-4.64,3.72-10.39,7.43-12.92,10.23-7,9.64-16.8,9.5-26.91-.07-5-.09-10.06-.13-15.09l-4.42-.05c-.09,1.19-.18,2.38-.28,3.56.1-1.18.19-2.37.28-3.56l4.42.05c13.66-1.5,27.31-4,41-4.26,25.42-.41,34.49-8.89,34.49-34.62,0-10,.27-20.08,0-30.1-.11-3.83-.26-8.57-2.42-11.26-14.13-17.59-28.12-35.53-53.72-37-3-.18-5.77-5.48-8.64-8.41,3.13-2.69,5.89-6.83,9.48-7.74,5.77-1.46,12.09-.78,18.18-1,4.21-1.45,8.76-2.3,12.58-4.44,13.59-7.65,15.26-20.24,13.49-34.17-1.2-9.5-4-17.27-14.93-19.65-3.07-.66-5.44-4.22-8.31-6.17-3.16-2.15-6.63-5.8-9.78-5.62-10.62.61-19.39-2.75-27.31-9.31q-1.08-7.57-2.17-15.16c23.94-5.17,37.36-20.46,38.76-44.26.21-3.59.06-7.2.36-10.77,1.1-13.15-7.43-24.81-20.88-26.85-7.47-1.13-9.46-5-9.49-11.67-.07-14-.25-28-.64-42-.25-9.42-14-20.1-22.76-21.92-9.86-2-19.06-7.4-28.44-11.55-1-.44-1.17-2.5-1.89-3.71-3.55-6-6.55-12.42-10.9-17.75-6-7.31-15.36-12.42-12.21-24.43.43-1.64-2.42-4.05-3.58-6.2-2.1-3.92-4-7.95-6.12-11.87-2-3.65-3.48-7.76-6.22-10.71-9-9.69-18.18-19.3-27.88-28.29C884.6,88.55,876.66,73,858.3,71.65c-1.91-.15-4-3-5.32-5-8.78-13.83-24.9-19-37.77-23.38-12.27-4.17-26.92-3.56-39-11-3.63-2.24-7.76-4.37-10.25-7.62-7.12-9.35-13.86-17.48-27.76-16.46-14.19,1-29.23,3-41.3-8.13L587.12.09c-1.11,8.5-6.69,12.8-14.52,13.39-12.5.95-25.1.51-37.58,1.59-5.74.5-11.27,3.28-16.95,4.87-3.29.93-6.65,1.64-10,2.3-17.47,3.38-35.93,4.23-52.2,10.64C430.05,43,409.41,61.47,392.1,83.36c-6.66,8.42-14.05,16.26-21.1,24.37,6.65-6.5,13.41-12.9,20-19.44-6.61,6.54-13.37,12.94-20,19.44-13.35,2-23.27,13.64-23.91,27-.39,8.1-.49,16.8-3.54,24-4.65,11-11.87,20.9-17.75,31.41-3.64,6.5-9.5,13.17-9.73,19.92-.61,18.75-18.58,32.11-14.86,51.88.39,2.07-3.12,4.64-4.1,7.24-5.81,15.47-11.43,31-17,46.55-.35,1,0,2.15,0,3.23.07,14.38.59,28.78,0,43.14-.22,4.94-3.3,9.78-5.12,14.64s-4.83,9.46-5.27,14.36c-.8,8.91-.31,18,.12,26.94.16,3.44.53,8.39,2.72,9.95,9.4,6.67,8.16,16.05,8,25.34q-.29,16.18-.64,32.36l4.65-26.11c.24-10.86-1.2-20.13-6.44-30.28,5.24,10.15,6.68,19.42,6.44,30.28q-2.33,13.06-4.64,26.11c-2.13,9.63-4.3,19.27,2.43,28.14l13.25,12.64c8.16,2.83,17.82,3,22,12.72,12.25,8.09,21.39,17.86,19.13,34.15a50.7,50.7,0,0,0,0,9.7c.68,12.08-3.68,25.48,9.08,34.46.92.65,1.35,2.65,1.27,4-.67,10.76,6.85,16.78,13.32,23.43l2.14-1.83h0l-2.14,1.83c7.89,5.37,6.29,13.58,6.67,21.37.32,6.61-.89,16.29,2.81,19.19,10.79,8.45,9.34,19,9.89,30,.28,5.69,2.59,11.34,4.36,16.89,1.86,5.84,5.19,11.39,6.06,17.34,1.53,10.49,1.67,21.18,2.4,31.79,7.71,9.6,21.18,15.31,20.52,30.61-.05,1.14,1.28,2.54,2.28,3.51,11.71,11.37,24.33,21.95,35,34.23,10.19,11.71,26.4,19.16,28.22,37.44.24,2.34,3.51,4.29,5.1,6.61,2,2.88,5.21,6,5.19,9-.1,14.48,1.78,29.52-8.11,42.16h0c-4.38,12.63-13.69,21.4-23.28,30-2,1.79-3,4.69-4.44,7.08h0l-26,25.78,0,0h0c-4.79,4.59-13.27,8.91-13.64,13.83-1,13.15-11,18.34-18,26.32-4.64,5.3-9.17,10.67-13.76,16-7.45,3.13-15.18,5.74-22.3,9.51-10.11,5.35-19.74,11.63-29.67,17.34a8.82,8.82,0,0,1-5.19,1.09c-17.37-2.32-28.65,12.31-43.95,15.64-7.85,9.58-16,17.76-30.28,16.62-4.41-.35-9.94,3.38-13.67,6.68-9.1,8.06-17,17.47-26.27,25.32-5.69,4.83-13.26,7.37-19.47,11.69-5.8,4-10.72,9.28-16.39,13.5-3.22,2.38-7.19,3.75-10.81,5.58l-2.21,2.29c-1.39,3.12-2.08,6.88-4.27,9.26-20,21.77-44.64,39.72-56.25,68.4-9,7.34-15.51,15.63-13.52,28.48.46,3-2.25,6.52-3.69,9.71q-3.18,7.08-6.66,14c-1.7,3.38-3.6,6.66-5.44,10-1.68,3-3.46,6-5.08,9-2.39,4.52-5.11,8.93-6.9,13.68s-3.46,9.91-3.76,15c-.63,10.84,2.51,22.17-8.69,30.49-2.57,1.9-.94,8.84-2.28,13.14-1.81,5.77-4.75,11.17-6.95,16.82-1.73,4.41-3,9-4.6,13.46-2.12,6.08-4.2,12.17-6.5,18.17-1.13,2.94-3.38,5.56-4,8.55-2.53,13.08-9.39,19.75-20.61,24.58,0,9.22-2.24,18.42-2.21,27.64,2.7,3.19,5.46,6.34,8.18,9.51-2.72-3.17-5.48-6.32-8.18-9.51-.25,5.08.45,10.19.9,14.79,5,4.86,9.4,9.39,14,14.64,9.53,11,19.64,21.24,20.72,37.65.43,6.51,7.56,12.61,11.77,18.81,1.2,1.76,4.21,3.27,4.13,4.77-1,17.22,12.69,30.33,13.21,46.77.7,21.88-.34,43.82.26,65.71.14,5.08,3.78,10.09,6,15.06,1.39,3.17,3.12,6.18,4.62,9.31,6,12.52,8.72,26.2,13.08,39,8.07,23.69,26.81,41.69,45.56,58.56,8.24,7.42,16.11,15.29,23.68,23.4a17.75,17.75,0,0,1,4,9.53c.86,7.43,4.57,11.85,11.89,10.63,13.88-2.31,22.17,5.87,30,14.8,9.43,10.71,18.81,20.42,35.16,18.17,6.43-.88,11.42,1.07,11.51,7.42l5.94.06c67.62,0,133.3,3,200.92,3,0-2,.1-4,.14-6,7.23-9.94,15.51-17.21,26.5-19.61,1-.21,1.93-.38,2.93-.52s2-.23,3.06-.28c-1,0-2.06.15-3.06.28s-2,.31-2.93.52c-11,2.4-19.27,9.67-26.5,19.61l-.14,6c2.66-1.75,5.45-3.32,7.95-5.27,6.35-5,12-13.23,19-14.53,14-2.62,27.48-1.33,41.38-9.9,9-5.53,17.61-11,25.07-18.28,4.19-4.08,7.45-9.22,10.64-14.19,2.94-4.6,4.48-10.26,8-14.32,12.18-14.23,30.61-24.67,25-48.61-1-4.47,3-11.64,6.77-15.51,32.64-33.3,65.8-66.09,98.69-99.15,4.48-4.5,11-9.27,11.8-14.65,1.35-8.8,5.93-14.21,11.61-19.72,6.94-6.75,14.64-13,20.48-20.57,10.55-13.75,23.27-19.19,40.81-17.89,12.6.93,25.63-1.68,38.26-3.9,9.33-1.63,18.28-5.32,27.47-7.8,4.5-1.22,9.87-.62,13.63-2.87,14.26-8.52,29.78-6.93,45.14-7,12.59,0,25.19,0,37.77.26,3.89.08,8.44,0,11.52,1.91,13.65,8.4,28.8,8.58,43.86,8.79,27.69.39,55.44-.8,83.07.63,15.92.82,27.43-3.85,37.33-15.89,7-8.52,33.26-8.34,42-1.74,4.43,3.36,10.61,6.07,16,6.17,32.72.56,65.46.1,98.19.48,5,.06,10,2.48,14.94,4.2s9.45,5.5,14.22,5.6c31.63.65,63.28.72,94.91.46,3.75,0,8.26-2.39,11.08-5.08,10.38-9.91,19.73-21,30.46-30.44,4.6-4.06,11.54-5.65,17.61-7.81,4.89-1.74,10.2-2.29,15.08-4,5.47-2,10.48-5.51,16-6.8C1498.49,1553.09,1500.69,1551,1499.78,1545.64Z"/></svg>