<svg id="Layer_1" data-name="Layer 1" xmlns="http://www.w3.org/2000/svg" viewBox="0 0 1500 1931.76"><defs><style>.cls-1{fill:#fff;}.cls-2{fill:#191919;}.cls-3{fill:#aaa;}.cls-4{fill:#d4d4d4;}.cls-5{fill:#3a3a3a;}.cls-6{fill:#3d3d3d;}.cls-7{fill:#3b3b3b;}.cls-8{fill:#464646;}.cls-9{fill:#4d4d4d;}.cls-10{fill:#282828;}.cls-11{fill:#d6d6d6;}.cls-12{fill:#010101;}.cls-13{fill:#a5a5a5;}.cls-14{fill:#838383;}.cls-15{fill:#020202;}.cls-16{fill:#030303;}.cls-17{fill:#393939;}.cls-18{fill:#040404;}.cls-19{fill:#7f7f7f;}.cls-20{fill:#0e0e0e;}.cls-21{fill:#0c0c0c;}.cls-22{fill:#5d5d5d;}.cls-23{fill:#828282;}.cls-24{fill:#d3d3d3;}.cls-25{fill:#848484;}.cls-26{fill:#d1d1d1;}.cls-27{fill:#f5f5f5;}.cls-28{fill:#acacac;}.cls-29{fill:#ababab;}.cls-30{fill:#7e7e7e;}.cls-31{fill:#797979;}.cls-32{fill:#4f4f4f;}.cls-33{fill:#a8a8a8;}.cls-34{fill:#5e5e5e;}.cls-35{fill:#606060;}.cls-36{fill:#a9a9a9;}.cls-37{fill:#5c5c5c;}.cls-38{fill:#b1b1b1;}</style></defs><path class="cls-1" d="M875.29,852.42c-18.68,24.5-45.65,39.13-69.35,57.56C779.57,930.48,752,949.42,725,969c-13.33,10.25-26.78,20.34-40,30.79q-63.74,50.52-127.31,101.25c-7.59,6-14.71,12.75-22.73,18.14-9.7,6.52-12.74,16.25-16.76,26.41-10.5,26.55-8.94,52.15.37,78.68,5.1,14.56,8.06,29.54,18.47,41.88,5.27,6.25,7.82,7.56,13.69.58,24.51-29.11,49.6-57.73,74.48-86.53,9.67-11,19-22.4,29.1-33,22.71-24,45.8-47.56,68.74-71.3,20-20.64,39.37-41.83,60-61.74,19.61-18.89,40.48-36.48,60.9-54.51,1.78-1.57,4.41-2.19,6.64-3.25,18.71-15.91,38.35-30.89,55.71-48.16,7.51-7.48,10.31-19.69,15.25-29.75C921.57,878.49,890,863.29,875.29,852.42Zm-294.11,347.4c-13.51.83-27,1.71-40.53,2.48-8.26.48-10.19-3.45-7.32-10.71,1.32-3.33,1.76-7.25,3.83-10,1.46-1.93,5.7-3.89,7.48-3.1,12.67,5.68,25,12.06,37.47,18.22Zm-6.69-37.44c-12.73-8.51-25.41-17.08-40.2-27l75.34-52.83,2.06,2c-6.43,8.25-12.74,16.6-19.31,24.74-11.47,14.22-10.67,20.71,4,31.76,6,4.53,12,9.21,17.86,13.91.76.61,1.07,1.78,1.57,2.64C604.13,1169.12,587.42,1171,574.49,1162.38Z"/><path class="cls-2" d="M1499,1506.89c0,8.55.82,17.1.8,25.65-7.35-4.44-15-8.46-22-13.41-29.85-21.1-22.85-12.45-20-44.94.61-6.9-.83-15.25-4.42-21-7.4-11.82-16.75-22.44-25.57-33.34-7.39-9.14-13.25-18.45-12.33-31.12.52-7-.93-14.31-2-21.4-1.46-9.85-1.5-20.49-5.51-29.25-9-19.66-29.15-33.26-31-57.26-1.27,1.71-1.91,3.08-1.83,4.4,1.12,17.9,2,35.83,3.66,53.68,1.23,13.23-1,15.47-14.06,12.07l-21.59-5.63c1.32,4.39,1.67,6.12,2.34,7.72,2.08,5,4.85,9.74,6.32,14.88,6.36,22.22,19.81,34.54,44,33.68,7.26-.26,11.43,4.25,13.27,11.65,3.31,13.25,6.14,26.85,11.47,39.32,9.52,22.24-4.4,37.33-13.44,55.53l-25-19.48-2.85,1.34c1.88,12.51,4.27,25,5.55,37.56,2.56,25,10.61,26.65-19.52,35.39-8,2.34-10.84,7.34-8.64,15.59,2,7.63,3.43,15.44,5.1,23.17l-51.67.09c-.77-12.54-.42-25.29-2.73-37.55-1.51-8-6.86-15.35-10.49-23l-4.27,1.48c1.15,13.06,2.59,26.1,3.26,39.19.18,3.72-1.9,7.55-2.94,11.33-33.09-.08-66.18-.11-99.27-.29-10.86,0-22.37,2.51-30.52-8.51-1.43-1.93-6-2-9.12-2.12-6.45-.31-13.12-1.06-19.36.15-5.82,1.14-11.58,4-16.67,7.15-6.51,4.06-12.19,13.08-18.45,13.29-32.29,1.08-64.73,1.19-97-.78-16.63-1-32.79-9.29-49.42-10.41-48.27-3.25-96.26-2-141.7,18.42-6.37,2.85-14.2,4.86-21,4-22.91-2.85-41.51,3.29-54.94,22.52-9.22,13.21-28.86,18.6-29,38.69,0,1.38-2,2.86-3.26,4.1-33.27,33.06-66.4,66.25-100,99-9.55,9.32-20.79,17.48-16.29,33,3.67,12.68-3.2,20.3-11.35,27.69-5.3,4.8-11,9.19-16,14.23-2.07,2.07-3,5.31-4.26,8.12-2,4.62-2.8,10.28-6,13.78-8.24,9-15.09,20.56-29.63,21.08-1.5,0-2.8,2.2-4.41,2.87-5.68,2.39-11.78,7.06-17.13,6.36-18.61-2.44-30.7,6.23-40.75,20.06H254.39c-5-2.94-10.08-8.34-15.11-8.32-10.92,0-19.6-2.4-26.2-11.33a38.57,38.57,0,0,0-6.68-7c-7.75-6.28-12.83-16.88-25.73-14.8-9.2,1.49-15.56-1.55-14.95-12.65A9.81,9.81,0,0,0,163,1865c-8.44-8.19-18.14-15.27-25.65-24.21-13.14-15.65-35.23-24.67-37.23-48.83a2.46,2.46,0,0,0-1.11-1.78c-10.14-4.72-6.65-14.38-8.91-22.26-3.33-11.63-9.61-22.43-14.62-33.58-2.17-4.85-6-9.66-6.17-14.58-.68-23.63-.16-47.3-.54-70.94-.07-4-2.36-7.94-3.83-11.83-2.15-5.71-4.68-11.28-6.69-17-1.81-5.19-2.52-10.84-4.83-15.76-2.22-4.73-6.58-8.47-8.72-13.22-4.24-9.41-6.72-19.68-11.57-28.72-4.5-8.4-10.95-15.78-16.87-23.36-5.15-6.58-10.76-12.8-16.16-19.18,0-9.22,2.23-18.42,2.2-27.64,11.23-4.83,18.08-11.5,20.62-24.58.58-3,2.83-5.62,3.95-8.55,2.3-6,4.39-12.09,6.51-18.17,1.56-4.47,2.87-9,4.59-13.46,2.21-5.65,5.15-11,6.95-16.82,1.35-4.3-.28-11.24,2.29-13.14,11.2-8.32,8-19.65,8.69-30.49.3-5.06,2-10.17,3.76-15s4.5-9.16,6.9-13.68c1.62-3.05,3.4-6,5.08-9,1.84-3.31,3.74-6.59,5.43-10q3.48-6.93,6.67-14c1.44-3.19,4.15-6.73,3.69-9.71-2-12.85,4.51-21.14,13.52-28.48l2.48.47c-2.26,3.22-4.71,6.32-6.71,9.69-2.11,3.55-5.74,7.63-5.27,11,1.41,10,1.49,18.61-8.57,24.28a5,5,0,0,0-2,3.63c-.16,11.2-.09,22.41-.09,34.57,25.72-29,40.22-62.63,50-98.42,1.4-5.15-2.39-11.71-3.77-17.62,10.6-10.6,20.81-21.65,31.92-31.7,13.86-12.55,23.65-30.57,44.5-34.12,1.54-.27,2.93-2,4.19-3.22,10.42-10.29,20.35-21.13,31.39-30.7a33,33,0,0,1,17.45-7.49c8-.75,13.91-2.55,19.58-8.8,6.16-6.79,12.17-15.84,24-13.15q10.6,14.72,21.19,29.44l3.48-1.5c.45-4.73.5-9.54,1.43-14.17,3.93-19.71,5.39-26.31-20-18.46,3.4-2,7.23-6.24,10.13-5.67,16.17,3.15,25.5-12.11,39.91-13.87,6.34-.78,12.41-5.37,18.14-9,3-1.88,5-5.37,7.46-8.13l0,0c10.41-9.13,24.61-16.45,30.07-27.93,4.64-9.74,10.39-18.77,15.34-28.27l0,0,21.58-19.37c-6.7,27.92-12.78,56-20.38,83.68-3.75,13.65-2.75,24.87,8.2,36.28l12.28-37.85c-1.73,13.51-2.73,27.17-5.47,40.47a88.56,88.56,0,0,1-9.56,25.82c-20.34,35.52-41.58,70.53-62,106-4.76,8.27-7.58,17.65-11.3,26.52l-4.2,4.53q6.48-29.76,13-59.53l-4.18-1.84c-7.94,8.53-19.07,15.75-23.23,25.84-11.55,28-15.7,58.08-15.84,88.47,0,3.08,2.63,6.17,4,9.25-16.7,54.22-33.52,108.4-50,162.68-4.68,15.42-8.42,31.13-12.6,46.7q-9.61,34.59-19.25,69.19c-5.75,20.58-11.85,41.09-17.14,61.79-3.52,13.81-5.91,27.91-8.8,41.88q2.37-38.76,4.76-77.54c-13,18.08-35.53,143.12-31.22,165.72l19.77-36.5-10.68,92.62,5.09,2.12c6.72-9.64,14.43-18.77,19.88-29.08,5.14-9.71,7.89-20.67,11.69-31.08,3.08.36,6.34,1.57,9.2.94,17.15-3.76,27.05-16.94,36.59-29.95,3.35-4.57,5.13-10.88,5.94-16.63,2.39-17,.26-35.72,6.62-51,12.21-29.27,25.77-58.36,48-82.41,12.51-13.54,25-28.19,33.06-44.54,16-32.54,30.74-65.54,49.22-96.94,12.53-21.29,20.58-45.22,30.63-68l-3.37-1.8a38.73,38.73,0,0,0-3.9,4.53q-59.68,94.89-119.24,189.86c-9.66,15.45-18.84,31.2-28.24,46.81,1.9-4.24,3.4-8.71,5.74-12.69q42.35-71.94,85-143.74c13.57-22.79,27.61-45.29,41.44-67.93,17.8-25.64,36-51,53.31-77,40.12-60.1,85.94-115.64,134.2-169.27,2.28-1.69,4.86-3.1,6.81-5.13q34.62-36.08,69.07-72.33c4.17,1.84,8.53,5.52,12.47,5.12,7.06-.72,29.18-38.38,28.41-46.36L798.43,1010l-1.34,17.2,3,1.24q19.46-23.49,38.9-47l-2-2.16-6.15.68L863,951.73c21.86,2.68,42.18-11,47.43-32.07.14-.59-1.19-1.54-1.83-2.33,7.85-6.09,13.91-13.05,14.72-23.77.49-6.46.09-14.89,10.23-14.67,7.06.16,16.65-1.27,20.62,2.61,9.52,9.3,23.84,15.86,24.3,32.4.07,2.37,3.12,4.57,4.49,7,2,3.59,3.73,7.35,5.61,11s3.8,7.36,5.8,11c1.5,2.74,3.47,5.27,4.7,8.12,4.54,10.46,6.42,23.41,13.84,30.94,10.22,10.39,17.62,26.2,35.61,27,1.56.06,3.06,1.7,4.59,2.61,9.8,5.82,19,14.22,29.58,16.71,9.78,2.3,15.31,8.11,22.19,13.5,6.07,4.74,12.86,8.56,19.17,13,5.79,4.1,11.72,8.1,17,12.84,9.25,8.39,16.66,21.59,27.31,24.94,13.33,4.19,20.62,13.07,29.56,21.33,3,3,5.8,6.41,9.19,9,6.88,5.17,13.63,12.91,21.3,14.1,12.7,2,24.51,2.72,36.3,10.17,21.6,13.64,44.9,24.57,67.44,36.74,1.82,1,3.19,2.81,4.74,4.29l37.83,36.11c.12.62.26,1.22.41,1.83-.73,7.4-2.13,14.81-2,22.2.11,5.35.55,12.42,3.85,15.66,9.3,9.11,20.16,16.64,30.4,24.8,2.09,6.73,3.42,13.83,6.44,20.12,5,10.38,11.56,20,16.53,30.38,5.16,10.8,8.68,22.37,13.86,33.16,8.83,18.38,18.76,36.26,19.53,57.37.08,2,1.24,4.07,1.91,6.1,5.73,17.51,12.73,34.73,16.73,52.63C1484.76,1499.48,1488.44,1505.25,1499,1506.89ZM839.59,1262.26c1.67-3.6,3-5.71,3.66-8,9.19-33.3,20.33-65.75,35.57-97,13.35-27.34,11.8-56.17,1.7-84.63-2.48-7-5.94-7.45-13.08-5.6-29.46,7.62-51.91,23.35-64.85,51.47a22.64,22.64,0,0,1-3.6,5.37c-6.83,7.78-6.77,15.39-1.73,24.53,12.39,22.49,23,45.76,18.51,72.57C812.47,1240.74,825.05,1251.05,839.59,1262.26ZM924.35,1145c-46.86,48.85-63.13,110.43-82.87,170.32-.43,1.32,1,3.27,1.4,4.49,10.21-4.85,19.12-10.81,28.91-13.24,10.63-2.64,22.07-2.26,33.18-2.65,6.56-.23,9.42-2.65,10.4-9.4,3.79-26.32,7.75-52.62,12.46-78.79C932.06,1192.27,929.07,1169.47,924.35,1145ZM55.82,1467.27c0-10-.14-17.86,0-25.75.15-7.2-2.83-10.66-10.31-10.18-8.06.51-9.23,5.05-7.85,11.84,1.53,7.51.46,14-6.84,18.77-2.51,1.64-3.4,5.75-5.07,8.7-2.61,4.62-4.92,9.46-8,13.76-2.9,4-7.43,7.07-9.71,11.36-1.53,2.89-1.26,7.5-.08,10.7.51,1.38,5.47,1.8,8.26,1.46,3.5-.43,6.81-2.16,10.25-3.2C61.19,1494.22,55.2,1500.74,55.82,1467.27Zm945.49-365.91-3.82-2.73c-14.58,7.39-29.29,14.52-43.54,22.5-1.58.89-1.77,7.22-.41,9.93,6.91,13.74,14.45,27.18,22,40.61,2.26,4,5.22,7.66,7.85,11.47l3.24-.85C985.15,1154.2,984.68,1126.29,1001.31,1101.36ZM646.07,1174l-3.22-3-107.4,126.28,3.27,2.8C581.64,1264.19,616.21,1221.11,646.07,1174ZM251.68,1531.42l-5-1q-10.36,39.24-20.72,78.5l3.66,2.31c7.34-7.82,19.43-14.77,21-23.62C254,1569.4,251.68,1550.2,251.68,1531.42ZM314.49,1352l-2.91-.78c-12.05,22.12-33.61,104.42-29.43,121.57Zm-100.35,51.65c-6.09-16.67-11.37-31.15-17.62-48.27C185.83,1387.77,188.28,1394.55,214.14,1403.66Zm188.2-220.35,16.64-53.6C394.56,1154,390.09,1155.69,402.34,1183.31Z"/><path class="cls-3" d="M587.14.09,696.9,0c1.49,9.7,7.76,13,16.87,12.86s18,0,27,.06,14.17,5,17.76,14.68c-27.18,4-49.9-12.42-76.31-11.3,2.58,5.23,5.67,10,9.94,13.14,17.31,12.8,35.53,24.43,43.49,46.22,2.41,6.61,7.05,12.4,10.66,18.57l2.71-1Q748,72.87,746.93,52.53l3.31-1c10.5,13.49,21,27,31.44,40.51a5.91,5.91,0,0,1,1.2,4.07c-2.63,16.38-5.43,32.73-8.48,50.86-5.47-3.27-8.06-5.16-10.92-6.46-9.3-4.22-18.63-8.35-28.06-12.26-11.84-4.91-23.89-9.3-35.64-14.41-8-3.49-15.71-7.82-24.41-12.21-1,4-1.62,5.93-2,8-4.25,25.35,10.45,44.72,21.12,65.23,1.23,2.36,6,3.71,9.23,4.06,12.12,1.32,24.33,1.87,36.48,3,27.88,2.58,55.79,4.86,83.59,8.15,20.65,2.45,42.78-.08,59.68,16.85,7.07,7.07,15.31,13.1,23.55,18.84,6.41,4.48,8.75,10,8.08,17.46-.81,8.93-2.15,17.9-2,26.82.32,15.22,16.92,24.9,30.21,17.88,10.16-5.37,19.56-12.46,30.13-16.75,12.5-5.08,16.18-13.15,15.29-25.94-.59-8.49,1.65-17.18,2.62-25.78l5.17-1.61c4.32,5.92,11.17,11.34,12.45,17.86,3,15.36,3.92,31.21,4.52,46.91.26,6.84,2.84,8.92,8.73,11.18,7,2.7,13.18,7.63,19.72,11.6l-2,3.77c-5.85-1.29-11.66-2.81-17.55-3.82-9.48-1.61-21.21-7.08-28.1-3.48-16.9,8.83-31.58,21.89-47.09,33.32-.34.25,0,1.35,0,3.62,12.85,5.69,26,12.33,39.74,17.24,6.16,2.2,13.8,2.18,20.33.91,8.18-1.59,15.91-5.51,23.83-8.43l1.53,2.55-24.75,20.14q1.1,7.58,2.18,15.16c3,8.84,9.16,12.58,18.58,13.27,5.48.4,10.75,3.83,16.11,5.89l-1.38,4.75-18.26-2.51,3.3-2.93c-17.36-4.23-24.81-14.28-27.8-39.23l-50.18,24.83.59,3.21,7.22,3.53h0l43.23,13-44,19.88c.06,1.12.13,2.25.19,3.38l48.15,22c-28,2.17-55.23-2.31-82.16-9.05-4-1-9.71-5.17-10.27-8.59-3.06-18.72-4.81-37.66-6.92-56.53-1-8.62,2.71-12.26,11.71-12.32,9.48-.07,18.95-1.77,28.42-2.76-3.49-5.71-8-8.88-12.29-12.33-14.07-11.31-31.83-18.2-40.19-36.28-6.62-14.33-15.06-27.8-22.41-41.8-3.06-5.83-6.63-9-13.69-6.68s-7.84,7.09-6.74,13.58c4.57,26.9,9.23,53.8,13.06,80.81a328.36,328.36,0,0,1,2.7,40.76c0,2.81-4.18,5.69-6.44,8.53-2-2.14-4.89-3.93-6-6.48-4.55-10.17-8.56-20.58-12.78-30.9l2-8.47c.08-.63.18-1.25.29-1.87,2.64-3.13,8.08-6.95,7.51-9.29-6.87-28.09-1.65-60.75-29.55-81.21-1.65-1.21-2.38-3.62-3.89-5.11-7.12-7-14.35-13.93-21.55-20.87l-2.52,2.49q14,18,28.06,36.1L809.08,301.8c-4.4,18.22,2.64,35,6.7,52.1L822,386.52c-12.84-2.19-13.46-1.67-11,10.61,2.16,10.83,4.61,21.61,6.93,32.42q-19.18-17.19-38.37-34.36-9.88-8.82-19.81-17.58l-6.5-4.28-21.72-21.44c1.4.3,2.83.51,4.2.91,26,7.58,26.7,7.83,35.49-17.75A277.7,277.7,0,0,0,783,286.39c1.75-11.62-.47-12.15-12.15-9.85-27.09,5.34-54.2,10.62-81.38,15.51-12.14,2.19-24.46,3.38-36.71,5,2,3.66,4.19,5.55,6.68,6.33,13.31,4.19,23.82,12.06,34.14,21.5,11.35,10.39,21.17,23.83,37.92,27-10.74-.77-21.5-2.46-32.21-2.13-31,.94-59.41-8.86-87.89-19-5.85-2.09-6.51-5.28-4.32-10.8,8.91-22.45,20-42.25,47.52-45.18,3.14-.34,6.25-1.75,9.17-3.1,1.9-.88,3.42-2.56,6.4-4.87l-34.91-7.16c10.69-5.94,21.28-10.88,32.36-12.55,26.54-4,53.27-8.1,80-9,18.43-.62,37,4.17,55.57,6.28,3,.35,7.35.55,9.09-1.18,10.76-10.75,21-22.07,31.72-33.6-2.74-2.17-3.72-3.56-4.91-3.79-30.18-5.91-59.84-14.15-91.48-8.69-16.24,2.8-33.62,2.28-50,0-27.64-3.82-54.51-15.16-82.9-11.32-30.36,4.1-53.9-5.15-71.52-30-.62-.86-1.6-1.47-2.26-2.31-5.18-6.54-10.06-6.76-15.78-.25-10.18,11.61-20.8,22.83-31.23,34.21l-19.21,4.67c-2.76-.72-5.49-1.8-8.3-2.1-21.76-2.35-43.55-4.41-65.3-6.85-7.79-.87-15.49-2.52-23.24-3.82a16.38,16.38,0,0,1,6.13-6.8c13.69-9.67,28.57-18.06,40.76-29.35,17.36-16.07,36.18-26.77,59.73-31.27,26.83-5.13,53.2-7,80.06-1.59,7.88,1.57,12.27,4.7,11.69,13.49-.54,8.14-.11,16.35-.11,24.53a121.25,121.25,0,0,0,8-28.94,18.18,18.18,0,0,0-2.31-11.22c-8.66-14.5-18-28.61-26.85-43-3.85-6.23-8.12-7.07-14.27-3-10.81,7.11-21.85,13.88-33,20.49-3.23,1.91-7.08,2.77-10.65,4.11-1-4-3.08-8-2.8-11.89,1.14-15.82,3-31.58,4.67-48.18-3.28,1.17-7.43,3.89-11.6,3.93-14.54.15-27.08,4-40.57,10.57-20.2,9.87-34.33,25.17-49.23,40.47-8.65,8.88-17.7,17.38-26.58,26,7.06-8.11,14.44-16,21.1-24.37,17.32-21.89,38-40.32,63.77-50.48,16.27-6.41,34.73-7.26,52.2-10.64,3.36-.66,6.72-1.37,10-2.3,5.67-1.59,11.21-4.37,16.95-4.87,12.48-1.08,25.08-.64,37.58-1.59C580.45,12.89,586,8.59,587.14.09ZM940.54,297l.71,3.34c17.33-1.12,34.74-1.62,51.94-3.76,5-.63,10-5.46,14.06-9.31,1.86-1.76,2.73-6.29,1.8-8.69-.63-1.61-5.63-3-7.95-2.24C980.82,282.9,960.7,290,940.54,297Z"/><path class="cls-4" d="M1007.92,371.13,1032.67,351l-1.53-2.55c-7.92,2.92-15.65,6.84-23.83,8.43-6.53,1.27-14.17,1.29-20.33-.91-13.75-4.91-26.89-11.55-39.74-17.24,0-2.27-.29-3.37,0-3.62,15.51-11.43,30.19-24.49,47.09-33.32,6.89-3.6,18.62,1.87,28.1,3.48,5.89,1,11.7,2.53,17.55,3.82l2-3.77c-6.54-4-12.7-8.9-19.72-11.6-5.89-2.26-8.47-4.34-8.73-11.18-.6-15.7-1.51-31.55-4.52-46.91-1.28-6.52-8.13-11.94-12.45-17.86l-5.17,1.61c-1,8.6-3.21,17.29-2.62,25.78.89,12.79-2.79,20.86-15.29,25.94-10.57,4.29-20,11.38-30.13,16.75-13.29,7-29.89-2.66-30.21-17.88-.19-8.92,1.15-17.89,2-26.82.67-7.44-1.67-13-8.08-17.46-8.24-5.74-16.48-11.77-23.55-18.84-16.9-16.93-39-14.4-59.68-16.85-27.8-3.29-55.71-5.57-83.59-8.15-12.15-1.12-24.36-1.67-36.48-3-3.27-.35-8-1.7-9.23-4.06-10.67-20.51-25.37-39.88-21.12-65.23.34-2,1-4,2-8,8.7,4.39,16.38,8.72,24.41,12.21,11.75,5.11,23.8,9.5,35.64,14.41,9.43,3.91,18.76,8,28.06,12.26,2.86,1.3,5.45,3.19,10.92,6.46,3.05-18.13,5.85-34.48,8.48-50.86a5.91,5.91,0,0,0-1.2-4.07c-10.41-13.55-20.94-27-31.44-40.51l-3.31,1q1,20.34,2.08,40.68l-2.71,1c-3.61-6.17-8.25-12-10.66-18.57-8-21.79-26.18-33.42-43.49-46.22-4.27-3.16-7.36-7.91-9.94-13.14,26.41-1.12,49.13,15.34,76.31,11.3-3.59-9.73-8.78-14.59-17.76-14.68s-18-.2-27-.06S698.39,9.7,696.9,0C709,11.18,724,9.18,738.2,8.13c13.89-1,20.64,7.11,27.76,16.46,2.49,3.25,6.61,5.38,10.24,7.62,12.11,7.46,26.76,6.85,39,11,12.88,4.38,29,9.55,37.78,23.38,1.3,2,3.41,4.89,5.32,5C876.67,73,884.61,88.55,896,99.14c9.7,9,18.86,18.6,27.88,28.29,2.74,2.95,4.26,7.06,6.21,10.71,2.11,3.92,4,8,6.13,11.87,1.16,2.15,4,4.56,3.58,6.2-3.15,12,6.25,17.12,12.21,24.43,4.35,5.33,7.34,11.77,10.9,17.75.72,1.21.91,3.27,1.89,3.71,9.38,4.15,18.57,9.52,28.43,11.55,8.81,1.82,22.52,12.5,22.77,21.92q.57,21,.63,42c0,6.63,2,10.54,9.5,11.67,13.44,2,22,13.7,20.88,26.85-.3,3.57-.15,7.18-.36,10.77C1045.28,350.67,1031.86,366,1007.92,371.13ZM933.26,157.3c-5-9.7-7.6-20.61-14.44-26.73-21.3-19.06-35.51-46.65-65.3-55.7-9.33-13.59-25.35-17.61-38-26.5-7.43-5.23-12.67-3.22-15.38,5.29-3.13,9.87,2.76,11.5,10.35,13.07,8.63,1.79,18.48,2.64,25.28,7.46,29.57,21,59.08,42.29,77.84,74.66,1.43,2.48,3.29,4.72,4.85,7.13C922.6,162.3,927.31,162.22,933.26,157.3Zm-55.18,25c6-20.06-10.47-70.27-23.63-77.55-3.76,4.49-7.09,9.14-11.11,13.08-5.62,5.51-11.75,10.49-17.67,15.69-4.27,3.75-5.46,7.37,0,11.25C842.83,157,859.94,169.32,878.08,182.31Zm35.86,18.32c6.53,8.09,10.71,13.66,15.4,18.76,1,1.06,4.56,1.3,5.72.38,7.24-5.77,14.65-11.49,20.93-18.23,3.3-3.52,2.39-9.61-3.86-8.82C940.32,194.22,928.73,197.45,913.94,200.63Z"/><path class="cls-5" d="M1361.82,1601.7c-1.67-7.73-3.06-15.54-5.1-23.17-2.2-8.25.59-13.25,8.64-15.59,30.13-8.74,22.08-10.37,19.52-35.39-1.28-12.58-3.67-25-5.55-37.56l2.85-1.34,25,19.48c9-18.2,23-33.29,13.44-55.53-5.33-12.47-8.16-26.07-11.47-39.32-1.84-7.4-6-11.91-13.27-11.65-24.16.86-37.61-11.46-44-33.68-1.47-5.14-4.24-9.9-6.32-14.88-.67-1.6-1-3.33-2.34-7.72l21.59,5.63c13.1,3.4,15.29,1.16,14.06-12.07-1.65-17.85-2.54-35.78-3.66-53.68-.08-1.32.56-2.69,1.83-4.4,1.81,24,22,37.6,31,57.26,4,8.76,4,19.4,5.51,29.25,1.06,7.09,2.51,14.35,2,21.4-.92,12.67,4.94,22,12.33,31.12,8.82,10.9,18.17,21.52,25.57,33.34,3.59,5.74,5,14.09,4.42,21-2.86,32.49-9.86,23.84,20,44.94,7,4.95,14.65,9,22,13.41v13.1c-7.56,1.82-17.32,1.36-22.14,6-6.44,6.22-12.69,6.42-20.15,7.18-5,.5-11.08,1.84-14.34,5.12-11,11.12-20.84,23.42-31.52,34.9a13.78,13.78,0,0,1-9,4.07C1389,1602.92,1375.43,1602.18,1361.82,1601.7Z"/><path class="cls-4" d="M625.59,1185c-48.26,53.63-94.08,109.17-134.2,169.27-17.33,26-35.51,51.34-53.31,77l-4.69,1.68c2.39-4.4,4.46-9,7.24-13.16,15.39-23,31.6-45.45,46.26-68.89,13.28-21.21,18.33-46.05,16.87-70.05-1.34-22.15-10.3-43.83-15.9-65.72,18.11-4.18,18-4.13,9.64-21.2-8.2-16.72-16-33.62-24.29-50.32-5.75-11.65,1.88-20.64,5.78-30.3.46-1.13,4.37-1.66,6.39-1.2,3.06.7,5.87,2.51,8.79,3.84,4,3.08,7.83,6.29,11.9,9.22,6.54,4.73,12.16,3.36,18.39-1.65,50.87-40.91,102-81.52,152.93-122.35,3.52-2.81,6.22-6.64,9.3-10a6,6,0,0,0,1.66-.55l30.59-21.24,6-.33c-13.33,10.25-26.78,20.34-40,30.79q-63.74,50.52-127.31,101.25c-7.59,6-14.71,12.75-22.73,18.14-9.7,6.52-12.74,16.25-16.76,26.41-10.5,26.55-8.94,52.15.37,78.68,5.1,14.56,8.06,29.54,18.47,41.88,5.27,6.25,7.82,7.56,13.69.58,24.51-29.11,49.6-57.73,74.48-86.53l1.13,1Z"/><path class="cls-6" d="M1361.82,1601.7c13.61.48,27.21,1.22,40.81,1.23a13.78,13.78,0,0,0,9-4.07c10.68-11.48,20.5-23.78,31.52-34.9,3.26-3.28,9.37-4.62,14.34-5.12,7.46-.76,13.71-1,20.15-7.18,4.82-4.66,14.58-4.2,22.14-6,.91,5.32-1.29,7.45-6.67,8.69-5.57,1.29-10.58,4.84-16.05,6.8-4.88,1.74-10.19,2.29-15.08,4-6.07,2.16-13,3.75-17.61,7.81-10.73,9.49-20.08,20.53-30.46,30.44-2.82,2.69-7.33,5-11.08,5.08-31.64.26-63.28.19-94.91-.46-4.77-.1-9.4-3.9-14.23-5.6s-9.93-4.14-14.93-4.2c-32.73-.38-65.47.08-98.19-.48-5.44-.1-11.62-2.81-16.06-6.17-8.74-6.6-35-6.78-42,1.74-9.9,12-21.42,16.71-37.33,15.89-27.63-1.43-55.38-.24-83.08-.63-15-.21-30.21-.39-43.85-8.79-3.08-1.9-7.63-1.83-11.52-1.91-12.58-.28-25.18-.3-37.77-.26-15.37.05-30.89-1.54-45.14,7-3.76,2.25-9.14,1.65-13.63,2.87-9.2,2.48-18.15,6.17-27.47,7.8-12.63,2.22-25.66,4.83-38.27,3.9-17.53-1.3-30.25,4.14-40.8,17.89-5.84,7.61-13.54,13.82-20.48,20.57-5.68,5.51-10.26,10.92-11.62,19.72-.82,5.38-7.31,10.15-11.8,14.65-32.88,33.06-66,65.85-98.68,99.15-3.79,3.87-7.82,11-6.77,15.51,5.6,23.94-12.82,34.38-25,48.61-3.48,4.06-5,9.72-8,14.32-3.19,5-6.44,10.11-10.63,14.19-7.46,7.24-16.1,12.75-25.07,18.28-13.91,8.57-27.42,7.28-41.39,9.9-7,1.3-12.61,9.55-19,14.53-2.49,2-5.28,3.52-7.94,5.27.05-2,.09-4,.14-6,10.05-13.83,22.14-22.5,40.75-20.06,5.35.7,11.45-4,17.13-6.36,1.61-.67,2.91-2.82,4.41-2.87,14.54-.52,21.39-12,29.63-21.08,3.19-3.5,4-9.16,6-13.78,1.24-2.81,2.19-6,4.26-8.12,5-5,10.73-9.43,16-14.23,8.15-7.39,15-15,11.35-27.69-4.5-15.56,6.74-23.72,16.29-33,33.56-32.76,66.69-66,100-99,1.25-1.24,3.25-2.72,3.26-4.1.18-20.09,19.82-25.48,29-38.69,13.43-19.23,32-25.37,54.94-22.52,6.75.83,14.58-1.18,21-4,45.44-20.37,93.43-21.67,141.7-18.42,16.63,1.12,32.79,9.4,49.42,10.41,32.24,2,64.68,1.86,97,.78,6.26-.21,11.94-9.23,18.45-13.29,5.09-3.19,10.85-6,16.67-7.15,6.24-1.21,12.91-.46,19.36-.15,3.15.15,7.69.19,9.12,2.12,8.15,11,19.66,8.46,30.52,8.51,33.09.18,66.18.21,99.27.29l17.17,8.55Z"/><path class="cls-4" d="M1025.15,407.69l18.26,2.51,1.38-4.75c-5.36-2.06-10.63-5.49-16.11-5.89-9.42-.69-15.53-4.43-18.58-13.27,7.92,6.56,16.69,9.92,27.31,9.31,3.15-.18,6.62,3.47,9.77,5.62,2.88,1.95,5.25,5.51,8.32,6.17,10.93,2.38,13.73,10.15,14.93,19.65,1.77,13.93.1,26.52-13.49,34.17-3.82,2.14-8.37,3-12.58,4.44,16-9.17,24.74-22,19.05-41-1.18-3.93-4.56-8.54-8.1-10-2.77-1.14-8.42,1-10.94,3.59-11.84,11.94-23,24.53-34.46,36.88l-4,.17-48.15-22c-.06-1.13-.13-2.26-.19-3.38l44-19.88Z"/><path class="cls-4" d="M534.29,1135.35l75.34-52.83,2.06,2c-6.43,8.25-12.74,16.6-19.31,24.74-11.47,14.22-10.67,20.71,4,31.76,6,4.53,12,9.21,17.86,13.91.76.61,1.07,1.78,1.57,2.64-11.73,11.51-28.44,13.41-41.37,4.77C561.76,1153.87,549.08,1145.3,534.29,1135.35Z"/><path class="cls-7" d="M.09,1519.67c5.4,6.38,11,12.6,16.16,19.18,5.92,7.58,12.37,15,16.87,23.36,4.85,9,7.33,19.31,11.57,28.72,2.14,4.75,6.5,8.49,8.72,13.22,2.31,4.92,3,10.57,4.83,15.76,2,5.76,4.54,11.33,6.69,17,1.47,3.89,3.76,7.86,3.83,11.83.38,23.64-.14,47.31.54,70.94.14,4.92,4,9.73,6.17,14.58,5,11.15,11.29,22,14.62,33.58,2.26,7.88-1.23,17.54,8.91,22.26a2.46,2.46,0,0,1,1.11,1.78c2,24.16,24.09,33.18,37.23,48.83,7.51,8.94,17.21,16,25.65,24.21a9.81,9.81,0,0,1,2.73,6.7c-.61,11.1,5.75,14.14,14.95,12.65,12.9-2.08,18,8.52,25.73,14.8a38.57,38.57,0,0,1,6.68,7c6.6,8.93,15.28,11.36,26.2,11.33,5,0,10.07,5.38,15.11,8.32,0,2,2,1,2.06,3l-5.94-.06c-.09-6.35-5.08-8.3-11.51-7.42-16.35,2.25-25.73-7.46-35.16-18.17-7.86-8.93-16.16-17.11-30-14.8-7.33,1.22-11-3.2-11.89-10.63a17.69,17.69,0,0,0-4-9.53c-7.56-8.11-15.43-16-23.67-23.4-18.76-16.87-37.5-34.87-45.56-58.56-4.36-12.81-7.11-26.49-13.09-39-1.49-3.13-3.22-6.14-4.61-9.31-2.18-5-5.82-10-6-15.06-.6-21.89.44-43.83-.26-65.71-.53-16.44-14.23-29.55-13.22-46.77.09-1.5-2.92-3-4.12-4.77-4.22-6.2-11.34-12.3-11.77-18.81-1.08-16.41-11.19-26.66-20.72-37.65-4.56-5.25-9-9.78-14-14.64C.54,1529.86-.16,1524.75.09,1519.67Z"/><path class="cls-3" d="M1009.91,455.13c11.43-12.35,22.62-24.94,34.46-36.88,2.52-2.55,8.17-4.73,10.94-3.59,3.54,1.46,6.92,6.07,8.1,10,5.69,19-3,31.82-19.05,41-6.09.23-12.41-.45-18.19,1-3.58.91-6.34,5-9.47,7.74,2.87,2.93,5.61,8.23,8.64,8.41,25.6,1.49,39.58,19.43,53.72,37,2.16,2.69,2.31,7.43,2.42,11.26.29,10,0,20.07,0,30.1,0,25.73-9.08,34.21-34.5,34.62-13.68.22-27.33,2.76-41,4.26l-4.41-.05c3.12-2.84,5.85-6.49,9.48-8.3s8.06-1.68,12.15-2.41l28-.23,10.74.25c10.68-4.59,16.21-12.18,15.26-24.3-.58-7.48-1.13-15.22.13-22.53,2.41-14-3.62-24-12.6-33.39-11.69-12.19-25.08-20.56-42.61-21.2-2.6-.09-6-2.51-7.48-4.84-6.22-9.89-.38-20,11.81-21.15,18.62-1.76,24.73-4.54,28.36-12.57Z"/><path class="cls-8" d="M921.57,878.49c14.24-7.51,29.78-4.56,42.23,5.28,15.45,12.2,20.28,30,27.84,46.5,4.09,9,7.6,18.32,12.8,26.59,9.14,14.51,15.21,31.44,30.63,41.37,1.77,1.14,2.88,3.47,4.72,4.3,18.17,8.18,36.42,16.16,54.65,24.21a9.06,9.06,0,0,1,2.8,1.55c21,21.18,50.4,32.33,68.3,57.22,1.19,1.66,3.19,3.74,4.94,3.87,16.09,1.16,23.24,13.93,32.25,24.3l-4.89.25c-8.94-8.26-16.23-17.14-29.56-21.33-10.65-3.35-18.06-16.55-27.31-24.94-5.23-4.74-11.16-8.74-17-12.84-6.31-4.46-13.1-8.28-19.17-13-6.88-5.39-12.41-11.2-22.19-13.5-10.58-2.49-19.78-10.89-29.58-16.71-1.53-.91-3-2.55-4.59-2.61-18-.79-25.39-16.6-35.61-27-7.42-7.53-9.3-20.48-13.84-30.94-1.23-2.85-3.2-5.38-4.7-8.12-2-3.63-3.9-7.31-5.8-11s-3.6-7.43-5.61-11c-1.37-2.45-4.42-4.65-4.49-7-.46-16.54-14.78-23.1-24.3-32.4-4-3.88-13.56-2.45-20.62-2.61-10.14-.22-9.74,8.21-10.23,14.67-.81,10.72-6.87,17.68-14.72,23.78L863,951.73,830.85,980l-21.1,17.85-.92-1.14,41.78-40.28c18.71-15.91,38.35-30.89,55.71-48.16C913.83,900.76,916.63,888.55,921.57,878.49Z"/><path class="cls-9" d="M1375.05,1226.12c-.15-.61-.29-1.21-.41-1.83.15-.91.29-1.81.44-2.72,7.05,6.38,15.42,11.67,16.08,22.82.11,1.91,3.54,3.63,5.43,5.43l0,0c10.14,14.23,17.89,29.34,17.32,47.47h0c3,5.86,6.31,11.6,9,17.61,4.58,10.23,8.56,20.73,13.19,30.94,3.59,7.92,7.53,15.69,11.75,23.3,5.55,10,11.62,19.76,17.22,29.76a9.18,9.18,0,0,1,.9,6.26c-4.92,18.53,5.48,34,13.64,47.63,6.82,11.35,8.09,21.41,7.77,33-.26,9.24.14,14.44,9.68,16.1,0,1.38,2,3.58,1.94,5-10.57-1.64-14.25-7.41-16.69-18.35-4-17.9-11-35.12-16.73-52.63-.67-2-1.83-4.05-1.91-6.1-.77-21.11-10.7-39-19.53-57.37-5.18-10.79-8.7-22.36-13.86-33.16-5-10.38-11.55-20-16.53-30.38-3-6.29-4.35-13.39-6.44-20.12.74-8.62,2.74-17.1-6.63-23.47-5-3.37-11.14-9.22-11.43-14.26C1388.61,1239.66,1381.54,1233.37,1375.05,1226.12Z"/><path class="cls-10" d="M256.45,1928.76c0-2-2-1-2.06-3H457.51c-.05,2-.09,4-.14,6C389.75,1931.76,324.07,1928.77,256.45,1928.76Z"/><path class="cls-5" d="M100.94,1267c11.61-28.68,36.23-46.63,56.25-68.4,2.19-2.38,2.88-6.14,4.27-9.26.73-.77,1.47-1.53,2.2-2.29,3.63-1.83,7.6-3.2,10.81-5.58,5.68-4.22,10.6-9.48,16.4-13.5,6.21-4.32,13.78-6.86,19.47-11.69,9.26-7.85,17.16-17.26,26.26-25.32,3.74-3.3,9.27-7,13.68-6.67,14.26,1.13,22.43-7,30.28-16.63,15.3-3.33,26.58-18,43.95-15.64a8.83,8.83,0,0,0,5.19-1.09c9.93-5.71,19.56-12,29.67-17.34,7.12-3.77,14.85-6.38,22.31-9.51-2.45,2.76-4.45,6.25-7.46,8.13-5.73,3.6-11.8,8.19-18.14,9-14.41,1.76-23.74,17-39.91,13.87-2.9-.57-6.73,3.66-10.12,5.67l-6.12,4.69c-11.81-2.69-17.82,6.36-24,13.15-5.67,6.25-11.61,8-19.58,8.8a33,33,0,0,0-17.45,7.49c-11,9.57-21,20.41-31.39,30.7-1.26,1.24-2.65,3-4.19,3.22-20.85,3.55-30.64,21.57-44.5,34.12-11.11,10.05-21.32,21.1-31.92,31.7-5.17,7.84-10.21,15.76-15.56,23.47-2.33,3.36-5.27,6.29-7.94,9.41Z"/><path class="cls-4" d="M850.61,956.4l-41.78,40.28a102.34,102.34,0,0,0-8.29,6.74c-29.55,29.41-59.28,58.64-88.45,88.42-28.89,29.49-57.19,59.56-85.75,89.38l-1.13-1c9.67-11,19-22.4,29.1-33,22.71-24,45.8-47.56,68.74-71.3,20-20.64,39.37-41.83,60-61.74,19.61-18.89,40.48-36.48,60.9-54.51C845.75,958.08,848.38,957.46,850.61,956.4Z"/><path class="cls-7" d="M1375.08,1221.57c-.15.91-.29,1.81-.44,2.72l-37.83-36.11c-1.55-1.48-2.92-3.31-4.74-4.29-22.54-12.17-45.84-23.1-67.44-36.74-11.79-7.45-23.6-8.18-36.3-10.17-7.67-1.19-14.42-8.93-21.3-14.1-3.39-2.54-6.15-5.94-9.19-9l4.89-.25a40.24,40.24,0,0,1,4.12,3.45c9.66,10.48,19.88,18.32,35.83,17.53,7.2-.36,14.76,5.28,22.07,8.43,10.58,4.56,21.1,9.28,31.59,14,2.87,1.3,6.1,2.43,8.24,4.56,9.56,9.51,20.06,17,33.85,18.85l32.46,32.55Q1373,1217.33,1375.08,1221.57Z"/><path class="cls-11" d="M581.18,1199.82c-13.51.83-27,1.71-40.53,2.48-8.26.48-10.19-3.45-7.32-10.71,1.32-3.33,1.76-7.25,3.82-10,1.47-1.93,5.71-3.89,7.49-3.1,12.67,5.68,25,12.06,37.47,18.22Z"/><path class="cls-5" d="M839.59,1262.26c-14.54-11.21-27.12-21.52-23.82-41.27,4.47-26.81-6.12-50.08-18.51-72.57-5-9.14-5.1-16.75,1.73-24.53a22.64,22.64,0,0,0,3.6-5.37c12.94-28.12,35.39-43.85,64.85-51.47,7.14-1.85,10.6-1.37,13.08,5.6,10.1,28.46,11.65,57.29-1.7,84.63-15.24,31.21-26.38,63.66-35.57,97C842.62,1256.55,841.26,1258.66,839.59,1262.26Z"/><path class="cls-12" d="M305.94,1655.62c9.4-15.61,18.58-31.36,28.24-46.81q59.49-95,119.24-189.86a38.73,38.73,0,0,1,3.9-4.53l3.37,1.8c-10.05,22.74-18.1,46.67-30.63,68-18.48,31.4-33.24,64.4-49.22,96.94-8,16.35-20.55,31-33.06,44.54-22.22,24-35.78,53.14-48,82.41-6.36,15.24-4.23,33.93-6.62,51-.81,5.75-2.59,12.06-5.94,16.63-9.54,13-19.44,26.19-36.59,29.95-2.86.63-6.12-.58-9.2-.94l21.78-58.22c3.64-7.35,7.43-14.63,10.87-22.08,9.31-20.1,18.46-40.27,27.68-60.41Z"/><path class="cls-5" d="M924.35,1145c4.72,24.49,7.71,47.29,3.48,70.73-4.71,26.17-8.67,52.47-12.46,78.79-1,6.75-3.84,9.17-10.4,9.4-11.11.39-22.55,0-33.18,2.65-9.79,2.43-18.7,8.39-28.91,13.24-.41-1.22-1.83-3.17-1.4-4.49C861.22,1255.41,877.49,1193.83,924.35,1145Z"/><path class="cls-13" d="M305.94,1655.62l-4.17,8.34-38.85,77.86c-10.07,22.93-20,45.93-30.27,68.76-4,8.92-8.9,17.46-13.39,26.17l-3.35-1c-1.39-20.85,2.87-41.32,5.88-61.86-.83,15.49-1.66,31-2.5,46.59l7.51-7.39c5.94-16.33,11.32-32.89,17.94-48.94,7.77-18.83-3.79-32.24-11.17-50-3.56,16.42-6.46,29.78-9.37,43.14q7.47-45.39,14.93-90.76l18.24,34.92,4.38-.25c-4.54-42.37,3.68-79.5,41.56-105.27-2.67,16.78-5.28,33.11-7.89,49.44a19.7,19.7,0,0,0,8.83-8.1c19.84-32,39.54-64.13,59.44-96.12,13.07-21,26.39-41.86,39.59-62.78l30.11-45.37,4.69-1.68c-13.83,22.64-27.87,45.14-41.44,67.93q-42.7,71.73-85,143.74C309.34,1646.91,307.84,1651.38,305.94,1655.62Z"/><path class="cls-14" d="M248.09,1614.74q9.63-34.6,19.25-69.19c14.37-41,29.36-81.73,42.93-123,13.69-41.61,26-83.68,38.87-125.55l.73.69c-4.5,19.09-8.79,38.22-13.54,57.25s-9.92,37.89-14.91,56.82c-16.06,50.56-31.81,101.23-48.31,151.64-9.91,30.26-21,60.14-31.56,90.18Z"/><path class="cls-15" d="M215.46,1770.09l-19.77,36.5c-4.31-22.6,18.21-147.64,31.22-165.72q-2.39,38.78-4.76,77.54Z"/><path class="cls-16" d="M103.42,1267.43c2.67-3.12,5.61-6,7.94-9.41,5.35-7.71,10.39-15.63,15.56-23.47,1.38,5.91,5.17,12.47,3.77,17.62-9.73,35.79-24.23,69.39-49.95,98.42,0-12.16-.07-23.37.09-34.57a5,5,0,0,1,2-3.63c10.06-5.67,10-14.32,8.57-24.28-.47-3.36,3.16-7.44,5.27-11C98.71,1273.75,101.16,1270.65,103.42,1267.43Z"/><path class="cls-12" d="M55.82,1467.27c-.62,33.47,5.37,27-29.31,37.46-3.44,1-6.75,2.77-10.25,3.2-2.79.34-7.75-.08-8.26-1.46-1.18-3.2-1.45-7.81.08-10.7,2.28-4.29,6.81-7.32,9.71-11.36,3.08-4.3,5.39-9.14,8-13.76,1.67-3,2.56-7.06,5.07-8.7,7.3-4.77,8.37-11.26,6.84-18.77-1.38-6.79-.21-11.33,7.85-11.84,7.48-.48,10.46,3,10.31,10.18C55.68,1449.41,55.82,1457.3,55.82,1467.27Z"/><path class="cls-12" d="M330,1336.17c-1.42-3.08-4.07-6.17-4-9.25.14-30.39,4.29-60.43,15.84-88.47,4.16-10.09,15.29-17.31,23.23-25.84l4.18,1.84q-6.5,29.76-13,59.53-3.42,8.41-6.82,16.83Z"/><path class="cls-7" d="M215.46,1770.09l6.69-51.68c2.89-14,5.28-28.07,8.8-41.88,5.29-20.7,11.39-41.21,17.14-61.79l-6.54,38.88q-1.22,6.42-2.42,12.85-7.45,45.38-14.93,90.76-1.06,7.55-2.15,15.11a2.43,2.43,0,0,0-.26,1.52c-3,20.54-7.27,41-5.88,61.86l3.35,1c4.49-8.71,9.37-17.25,13.39-26.17,10.29-22.83,20.2-45.83,30.27-68.76l.3,4.63-21.78,58.22c-3.8,10.41-6.55,21.37-11.69,31.08-5.45,10.31-13.16,19.44-19.88,29.08l-5.09-2.12Z"/><path class="cls-15" d="M448.71,1070.63l-12.28,37.85c-10.95-11.41-11.95-22.63-8.2-36.28,7.6-27.67,13.68-55.76,20.38-83.68l4.44-6.43,0,0,4.36-2.17c.73,4.51,2.17,9,2.06,13.55-.35,14.24-1.28,28.47-2,42.7Z"/><path class="cls-17" d="M1001.31,1101.36c-16.63,24.93-16.16,52.84-14.69,80.93l-3.24.85c-2.63-3.81-5.59-7.45-7.85-11.47-7.54-13.43-15.08-26.87-22-40.61-1.36-2.71-1.17-9,.41-9.93,14.25-8,29-15.11,43.54-22.5Z"/><path class="cls-17" d="M448.71,1070.63l8.76-34.44c.65-.07,1.3-.13,2-.17-.55,4.59-.53,9.33-1.75,13.74-9.18,33-10.69,66.85-11,100.82-.07,1.4-.13,2.81-.2,4.21-13.67,14.5-27.49,28.86-40.94,43.57-5.45,6-10.08,12.71-15.08,19.1-1.71,2.72-3.52,5.39-5.11,8.18q-12.52,21.88-25,43.81c3.72-8.87,6.54-18.25,11.3-26.52,20.42-35.48,41.66-70.49,62-106a88.56,88.56,0,0,0,9.56-25.82C446,1097.8,447,1084.14,448.71,1070.63Z"/><path class="cls-7" d="M330,1336.17l19.4-45.36c-.07,2.08-.14,4.15-.22,6.23-12.9,41.87-25.18,83.94-38.87,125.55-13.57,41.23-28.56,82-42.93,123,4.18-15.57,7.92-31.28,12.6-46.7C296.44,1444.57,313.26,1390.39,330,1336.17Z"/><path class="cls-18" d="M646.07,1174c-29.86,47.16-64.43,90.24-107.35,126.09l-3.27-2.8L642.85,1171Z"/><path class="cls-15" d="M251.68,1531.42c0,18.78,2.31,38-1,56.16-1.61,8.85-13.7,15.8-21,23.62l-3.66-2.31q10.37-39.26,20.72-78.5Z"/><path class="cls-7" d="M1375.05,1226.12c6.49,7.25,13.56,13.54,14.21,24.93.29,5,6.48,10.89,11.43,14.26,9.37,6.37,7.37,14.85,6.63,23.47-10.24-8.16-21.1-15.69-30.4-24.8-3.3-3.24-3.74-10.31-3.85-15.66C1372.92,1240.93,1374.32,1233.52,1375.05,1226.12Z"/><path class="cls-8" d="M626.34,1181.22c28.56-29.82,56.86-59.89,85.75-89.38,29.17-29.78,58.9-59,88.45-88.42a102.34,102.34,0,0,1,8.29-6.74l.92,1.14L798.43,1010l-56.08,56.31q-20.43,20.63-40.88,41.24-34.51,36.2-69.07,72.33c-1.95,2-4.53,3.44-6.81,5.13Z"/><path class="cls-16" d="M314.49,1352,282.15,1472.8c-4.18-17.15,17.38-99.45,29.43-121.57Z"/><path class="cls-19" d="M349.14,1297c.08-2.08.15-4.15.22-6.23q3.4-8.41,6.82-16.83l4.2-4.53q12.48-21.9,25-43.81c1.59-2.79,3.4-5.46,5.11-8.18l51.9-47.45c-2.86,6-4.61,13-8.84,17.78-6.29,7.15-13.93,13.32-21.71,18.91-23.57,16.92-37.2,40.6-47.1,67q-1.21,2.05-2.42,4.13l-12.41,19.88Z"/><path class="cls-7" d="M1310.15,1601.79l-17.17-8.55c1-3.78,3.12-7.61,2.94-11.33-.67-13.09-2.11-26.13-3.26-39.19l4.27-1.48c3.63,7.65,9,15,10.49,23C1309.73,1576.5,1309.38,1589.25,1310.15,1601.79Z"/><path class="cls-15" d="M299.93,1105.37l6.12-4.69c25.37-7.85,23.91-1.25,20,18.46-.93,4.63-1,9.44-1.43,14.17l-3.48,1.5Q310.53,1120.1,299.93,1105.37Z"/><path class="cls-20" d="M798.43,1010l11.32-12.18L830.85,980l6.15-.69,2,2.16q-19.44,23.5-38.9,47l-3-1.24Q797.76,1018.59,798.43,1010Z"/><path class="cls-21" d="M701.47,1107.55q20.44-20.62,40.88-41.24c.77,8-21.35,45.64-28.41,46.36C710,1113.07,705.64,1109.39,701.47,1107.55Z"/><path class="cls-16" d="M863,951.73l45.6-34.39c.64.78,2,1.73,1.83,2.32C905.15,940.73,884.83,954.41,863,951.73Z"/><path class="cls-15" d="M214.14,1403.66c-25.86-9.11-28.31-15.89-17.62-48.27C202.77,1372.51,208.05,1387,214.14,1403.66Z"/><path class="cls-15" d="M402.34,1183.31c-12.25-27.62-7.78-29.32,16.64-53.6Z"/><path class="cls-5" d="M381.65,1064.07c4.59-5.35,9.13-10.74,13.78-16,7-8,17-13.17,18-26.32.36-4.92,8.85-9.24,13.64-13.84-4.95,9.5-10.7,18.53-15.34,28.27C406.26,1047.62,392.06,1054.94,381.65,1064.07Z"/><path class="cls-5" d="M453.05,982.09l-4.44,6.43L427,1007.89Z"/><path class="cls-14" d="M731.47,351.89l21.72,21.44-34.41-13.11c-10.22-2.82-20.45-8.07-30.66-8-37.12.19-73.88-1.55-110.36-9-36.88-7.58-74.72-11.27-108.85-29.06-3.49-1.83-7.16-3.33-10.75-5l.63-3.2c39.51,2.88,78.16.19,116.85-16.83-43.9.44-85.81.52-130.33-7.94C457.15,271,466.25,263,475.59,255.33a13.3,13.3,0,0,1,6.9-2.6c10.71-1,21.47-1.42,32.17-2.52,12.08-1.25,24.52-1.57,36.07-4.87C566.21,240.9,581.26,234.61,596,228c14.91-6.75,29.19-14.91,43.74-22.45l-1.08-2.74c-4.27,0-8.58.35-12.81-.06-25.29-2.44-50.62-4.56-75.82-7.76-18.7-2.37-36.58-10.84-56.07-7.5,10.43-11.38,21.05-22.6,31.23-34.21,5.72-6.51,10.6-6.29,15.78.25.66.84,1.64,1.45,2.26,2.31,17.62,24.85,41.16,34.1,71.52,30,28.39-3.84,55.26,7.5,82.9,11.32,16.42,2.27,33.8,2.79,50,0,31.64-5.46,61.3,2.78,91.48,8.69,1.19.23,2.17,1.62,4.91,3.79-10.76,11.53-21,22.85-31.72,33.6-1.74,1.73-6.07,1.53-9.09,1.18-18.55-2.11-37.14-6.9-55.57-6.28-26.76.89-53.49,5-80,9-11.08,1.67-21.67,6.61-32.36,12.55l34.91,7.16c-3,2.31-4.5,4-6.4,4.87-2.92,1.35-6,2.76-9.17,3.1-27.47,2.93-38.61,22.73-47.52,45.18-2.19,5.52-1.53,8.71,4.32,10.8,28.48,10.13,56.93,19.93,87.89,19,10.71-.33,21.47,1.36,32.21,2.13Zm-257.7-77.05c39.39,12.57,78.32,9.15,117.07.49,3.32-.74,8.42-5.23,8.28-7.72-.56-9.71-2.89-19.31-5-31.18C555,257.87,518.33,278.79,473.77,274.84Z"/><path class="cls-22" d="M493.93,187.44c19.49-3.34,37.37,5.13,56.07,7.5,25.2,3.2,50.53,5.32,75.82,7.76,4.23.41,8.54.06,12.81.06l1.08,2.74C625.16,213,610.88,221.2,596,228c-14.71,6.66-29.76,13-45.24,17.39-11.55,3.3-24,3.62-36.07,4.87-10.7,1.1-21.46,1.51-32.17,2.52a13.3,13.3,0,0,0-6.9,2.6c-9.34,7.69-18.44,15.68-30.28,25.83,44.52,8.46,86.43,8.38,130.33,7.94-38.69,17-77.34,19.71-116.85,16.83l-.63,3.2c3.59,1.64,7.26,3.14,10.75,5,34.13,17.79,72,21.48,108.85,29.06,36.48,7.49,73.24,9.23,110.36,9,10.21-.05,20.44,5.2,30.66,8l-.36.5-4.1-.32c-29.56-8.3-58.1-3.41-86.24,6.63-8.21,2.3-16.39,4.77-24.65,6.86-7.45,1.88-10.26,6.45-10.08,14,.3,13.16,0,26.32,0,39.48L574,420.85c-3.73-2.66-7.24-5.77-11.3-7.73-1.19-.57-3.95,2.14-6,3.34-9.6,1.46-13.95,6.64-13.65,16.74.21,6.71-1.71,13.47-2.52,20.22q-6,50.68-12,101.38c-1.72-8.08-4.49-16.1-4.86-24.23-.35-7.74,1.81-15.58,2.86-23.38l10.65-73.36c5.66-19,2.06-35.66-13.14-48.75-6.3-5.43-13.28-10.8-20.9-13.8-13.67-5.38-28.36-8.18-42.05-13.54a73.36,73.36,0,0,1-23.25-14.37c-7.38-7-15.13-15.31-18.29-24.57-3.6-10.51-2.11-22.71-3.18-34.14-.76-8.11,2.49-13.7,9.08-18.1,11.07-7.38,22.76-14.13,32.67-22.87,13.79-12.14,29.67-13.24,45.55-9.51,24.52,5.77,40.11-6.17,55.77-24.45-12.52-1.61-23.69-3.64-34.95-4.32-12.79-.76-25.86-1.85-38.44-.13-49.82,6.81-97.11,26.71-147.87,28.93-8,.35-11.77,5.39-14.89,12.06-6.54,14-12.08,28.77-20.84,41.26-10.56,15.09-21.54,29.07-17.64,49-.11-9.82-2.76-20.5.24-29.25,4.74-13.87,16-25.78,19.39-39.76,3.23-13.24,3.52-27,12.54-38.22,3.58-4.46,6.38-10,10.86-13.21,6.37-4.53,14.37-6.7,21-11,17.18-11.2,35.06-14,55.23-9.33,23.63,5.43,47.61,6.51,70.71-3.64Z"/><path class="cls-14" d="M474.72,192.11c-23.1,10.15-47.08,9.07-70.71,3.64-20.17-4.63-38.05-1.87-55.23,9.33-6.59,4.29-14.59,6.46-21,11-4.48,3.19-7.28,8.75-10.86,13.21-9,11.25-9.31,25-12.54,38.22-3.41,14-14.65,25.89-19.39,39.76-3,8.75-.35,19.43-.24,29.25h0c0,4.67.51,9.43-.21,14-1.74,10.94-3.86,21.14-9.07,31.91-5.75,11.88-6.47,31.82,0,42.5,7.28,11.94,9.2,22.28,8.93,34.69l-4.65,26.11q.33-16.17.64-32.36c.16-9.29,1.4-18.67-8-25.34-2.19-1.56-2.56-6.51-2.73-9.95-.43-9-.91-18-.11-26.94.44-4.9,3.46-9.57,5.26-14.36s4.9-9.7,5.12-14.64c.64-14.36.11-28.76.05-43.14,0-1.08-.33-2.27,0-3.22,5.6-15.55,11.22-31.09,17-46.56,1-2.6,4.48-5.17,4.09-7.24-3.71-19.77,14.25-33.13,14.87-51.88.22-6.75,6.08-13.42,9.73-19.92,5.88-10.51,13.1-20.4,17.74-31.41,3.06-7.24,3.16-15.94,3.55-24,.63-13.35,10.55-25,23.91-27,8.87-8.66,17.92-17.16,26.57-26,14.9-15.3,29-30.6,49.23-40.47,13.49-6.6,26-10.42,40.57-10.57,4.17,0,8.32-2.76,11.6-3.93-1.68,16.6-3.53,32.36-4.67,48.18-.28,3.88,1.8,7.92,2.8,11.89,3.57-1.34,7.42-2.2,10.65-4.11,11.12-6.61,22.16-13.38,33-20.49,6.15-4,10.42-3.21,14.27,3,8.89,14.37,18.19,28.48,26.85,43a18.18,18.18,0,0,1,2.31,11.22,121.25,121.25,0,0,1-8,28.94c0-8.18-.43-16.39.11-24.53.58-8.79-3.81-11.92-11.69-13.49-26.86-5.36-53.23-3.54-80.06,1.59-23.55,4.5-42.37,15.2-59.73,31.27-12.19,11.29-27.07,19.68-40.76,29.35a16.38,16.38,0,0,0-6.13,6.8c7.75,1.3,15.45,2.95,23.24,3.82,21.75,2.44,43.54,4.5,65.3,6.85C469.23,190.31,472,191.39,474.72,192.11ZM418.87,65.68c.44.84.88,1.68,1.33,2.51L477.68,39c-.67-1.28-1.35-2.56-2-3.84C453.29,38.88,434,48.28,418.87,65.68Z"/><path class="cls-23" d="M1009.91,455.13l45-5.78c-3.63,8-9.74,10.81-28.36,12.57-12.19,1.15-18,11.26-11.81,21.15,1.47,2.33,4.88,4.75,7.48,4.84,17.53.64,30.92,9,42.61,21.2,9,9.37,15,19.43,12.6,33.39-1.26,7.31-.71,15-.13,22.53,1,12.12-4.58,19.71-15.26,24.3,12.37-10.23,14.55-23.77,12.93-38.75-.54-5,0-10.05-.07-15.08-.17-13-2.66-14.65-13.42-7.69-8.07,5.22-13,3.94-18.56-3.86-9-12.45-19.37-23.87-28.82-36a21.26,21.26,0,0,1-3.8-9.73c-1.76-12.31-2.68-13.48-13.72-8.19-10.33,4.94-18.95,4.1-28-2.67C953.32,456,936.26,451,917,453c-9.6,1-19.42-.29-29.09.31-9.09.57-14.64-2.58-18.41-11.14C858.4,417,846.65,392.06,835.14,367l6.69,8.23c4.22,10.32,8.23,20.73,12.78,30.9,1.14,2.55,4,4.34,6,6.48,2.26-2.84,6.49-5.72,6.44-8.53a328.36,328.36,0,0,0-2.7-40.76c-3.83-27-8.49-53.91-13.06-80.81-1.1-6.49-.39-11.21,6.74-13.58s10.63.85,13.69,6.68c7.35,14,15.79,27.47,22.41,41.8,8.36,18.08,26.12,25,40.19,36.28,4.29,3.45,8.8,6.62,12.29,12.33-9.47,1-18.94,2.69-28.42,2.76-9,.06-12.67,3.7-11.71,12.32,2.11,18.87,3.86,37.81,6.92,56.53.56,3.42,6.24,7.59,10.27,8.59,26.93,6.74,54.2,11.22,82.16,9.05Z"/><path class="cls-22" d="M835.14,367c11.51,25,23.26,50,34.38,75.16,3.77,8.56,9.32,11.71,18.41,11.14,9.67-.6,19.49.7,29.09-.31,19.24-2,36.3,3,51.52,14.35,9.05,6.77,17.67,7.61,28,2.67,11-5.29,12-4.12,13.72,8.19a21.26,21.26,0,0,0,3.8,9.73c9.45,12.12,19.84,23.54,28.82,36,5.61,7.8,10.49,9.08,18.56,3.86,10.76-7,13.25-5.27,13.42,7.69.06,5-.47,10.11.07,15.08,1.62,15-.56,28.52-12.93,38.75l-10.74-.25c-.44-15.19-1.25-15.93-16.07-17.24-4.16-.37-8.25-1.6-12.37-2.44,2.84-2.41,8.23-5,8.1-7.19-.79-13.07-.79-26.8-5.07-38.89-4.57-12.93-13.17-24.58-20.89-36.2-2.42-3.64-7.52-7.29-11.68-7.66-23.14-2.07-46.37-3.13-69.58-4.54l-32.19-2.07c-19.24-3.63-22.11-.87-19,18.49.39,2.45,1.17,4.84,1.76,7.26q0,3.18,0,6.36c.75,9.64,1.24,19.32,2.39,28.91a16.43,16.43,0,0,0,3.91,8.56c11.07,12.23,22.61,24,33.68,36.27,5.27,5.84,10.41,6.11,17.15,2.57,9.43-5,19.32-9.06,29-13.53l-2.49,32.49-6.11-2.38c.52-5.74,1-11.48,1.72-18.87L926,589.33c-8.27-3.08-16.43-6.47-24.83-9.16C886.24,575.41,879,565.48,876.42,550a172.78,172.78,0,0,0-32.36-75.37l-6.57-10.8-.24-23.73c0-1.36,0-2.74,0-4.11,3.87-30.24-11-55.58-21.42-82.1-4.06-17.13-11.1-33.88-6.7-52.1l17.36,15.53q3.22,16.23,6.44,32.45Q834,358.41,835.14,367Z"/><path class="cls-23" d="M837.25,440.11l.24,23.73c-2,.73-4,1.84-6.07,2.13-48.66,6.81-92.93,26.8-136.8,47.11-20.33,9.41-38.4,10.7-57.71-.1-3.71-2.07-8.09-2.9-12.11-4.44-25.8-9.85-25.81-9.86-30.46-36.76-.55-3.18-.59-6.44-1.21-9.6-3-15.33-1.47-32.79-19.15-41.33l19.39,6.51q3.32,8.56,6.65,17.14c2.82,10.39,4.73,21.14,8.8,31a26.78,26.78,0,0,0,12.41,13c13,6,27.08,9.68,40.24,15.42,10.09,4.41,18.5,2.93,27.42-2.65,11.87-7.44,24.31-14,36.31-21.2,12.7-7.65,25.16-15.69,40.5-25.3l-44.85-21L710,422.94c6-2,11.84-5.12,17.94-5.69,7.2-.68,16.6,3.86,21.38.66,5.51-3.68,7-13.35,10.23-20.42.74-1.62,1.44-3.25,2.15-4.88v-.05l-2-14.95q9.9,8.79,19.81,17.58,19.2,17.16,38.37,34.36l4.52,4.34Z"/><path class="cls-4" d="M731.52,351.85c-16.75-3.12-26.57-16.56-37.92-27-10.32-9.44-20.83-17.31-34.14-21.5-2.49-.78-4.64-2.67-6.68-6.33,12.25-1.64,24.57-2.83,36.71-5,27.18-4.89,54.29-10.17,81.38-15.51,11.68-2.3,13.9-1.77,12.15,9.85a277.7,277.7,0,0,1-11.86,48.66c-8.79,25.58-9.5,25.33-35.49,17.75-1.37-.4-2.8-.61-4.2-.91Z"/><path class="cls-24" d="M835.14,367q-1.12-8.62-2.26-17.25c.06-12.5-.34-25,.33-37.49.57-10.56-2.9-18.77-11-25.26h0q-14-18.06-28.06-36.1l2.52-2.49c7.2,6.94,14.43,13.84,21.55,20.87,1.51,1.49,2.24,3.9,3.89,5.11,27.9,20.46,22.68,53.12,29.55,81.21.57,2.34-4.87,6.16-7.51,9.29l-2.4-54-5.77.48q3.93,27.71,7.88,55.41l-2,8.47Z"/><path class="cls-14" d="M1025.15,407.69l-23.65,2.37-43.23-13,43-3.42c-1.38-8.42-2.38-14.53-3.78-23.06-14,8.13-26.27,15.22-38.44,22.52-.78.47-.56,2.6-.8,4l-7.22-3.53-.59-3.21,50.18-24.83c3,25,10.44,35,27.8,39.23Z"/><path class="cls-25" d="M940.54,297c20.16-6.95,40.28-14.06,60.56-20.66,2.32-.75,7.32.63,7.95,2.24.93,2.4.06,6.93-1.8,8.69-4.09,3.85-9,8.68-14.06,9.31-17.2,2.14-34.61,2.64-51.94,3.76Z"/><path class="cls-23" d="M815.78,353.9c10.39,26.52,25.29,51.86,21.42,82.1q-7.43-22.71-14.86-45.43c-.13-1.35-.25-2.7-.38-4.05Z"/><path class="cls-26" d="M822,386.52c.13,1.35.25,2.7.38,4.05q0,21.66,0,43.32l-4.52-4.34c-2.32-10.81-4.77-21.59-6.93-32.42C808.5,384.85,809.12,384.33,822,386.52Z"/><path class="cls-22" d="M759.69,377.61l2,14.95c-2.93-3.59-5.24-8.12-8.92-10.6-11.16-7.5-22.85-14.22-34.33-21.24l.36-.5,34.41,13.11Z"/><path class="cls-25" d="M826.44,317.33,809.08,301.8,822.19,287h0Z"/><path class="cls-27" d="M843.84,366.79q-3.95-27.71-7.88-55.41l5.77-.48,2.4,54C844,365.54,843.92,366.16,843.84,366.79Z"/><path class="cls-28" d="M933.26,157.3c-6,4.92-10.66,5-14.77-1.32-1.56-2.41-3.42-4.65-4.85-7.13-18.76-32.37-48.27-53.71-77.84-74.66-6.8-4.82-16.65-5.67-25.28-7.46-7.59-1.57-13.48-3.2-10.35-13.07,2.71-8.51,8-10.52,15.38-5.29,12.62,8.89,28.64,12.91,38,26.5,29.79,9,44,36.64,65.3,55.7C925.66,136.69,928.22,147.6,933.26,157.3Z"/><path class="cls-29" d="M878.08,182.31c-18.14-13-35.25-25.31-52.42-37.53-5.45-3.88-4.26-7.5,0-11.25,5.92-5.2,12.05-10.18,17.67-15.69,4-3.94,7.35-8.59,11.11-13.08C867.61,112,884.11,162.25,878.08,182.31Z"/><path class="cls-29" d="M913.94,200.63c14.79-3.18,26.38-6.41,38.19-7.91,6.25-.79,7.16,5.3,3.86,8.82-6.28,6.74-13.69,12.46-20.93,18.23-1.16.92-4.75.68-5.72-.38C924.65,214.29,920.47,208.72,913.94,200.63Z"/><path class="cls-5" d="M480.75,945c9.89-12.64,8-27.68,8.11-42.16,0-3-3.22-6.07-5.19-9-1.59-2.32-4.87-4.27-5.1-6.61-1.82-18.28-18-25.72-28.22-37.44-10.68-12.28-23.29-22.86-35-34.23-1-1-2.33-2.37-2.28-3.51.66-15.3-12.8-21-20.51-30.61l.18-6.67c3.25,2.75,7,5.12,9.65,8.34,10.35,12.38,22,24.07,30.13,37.82,11.3,19.07,27,23.31,47.17,21,11-1.25,13.76-2.93,11.76-13.86-4.62-25.39-9.43-50.76-15.18-75.9-1.3-5.68-6.13-11-10.36-15.45-4.5-4.78-10.21-8.43-15.39-12.57.25-1.31.51-2.62.76-3.93,23.79-1.17,47.58-3.4,71.35-3.22,27.25.21,54.49,2.57,81.74,4q-.12,1-.21,1.92l-43,2.3-26.38,11.84a251.17,251.17,0,0,0,43.2,17c8.22,2.47,11.35,7,11.34,15.57,0,22.1.3,22.1-19.57,29h0c-12.46,1.56-25,2.74-37.32,5-2.5.46-6.58,6.52-6.07,7.24,10.63,14.85,19.16,33.27,33.52,42.92,22.67,15.23,47.62,29.7,78.16,22.65,18.1-4.18,38.51-.16,52.74-16.8a121.77,121.77,0,0,1,15.46-15c8.55-7,16.76-15.17,26.57-19.67,14.62-6.71,30.53-10.58,45.84-15.8,6-2.05,11.22-2.12,15.05,4,3.72,5.95.5,9.79-3.28,14.17-27,31.2-55,61.6-80.18,94.24-14.75,19.17-32.41,39.6-21.9,67.89a3.24,3.24,0,0,1,0,1.08,6,6,0,0,1-1.66.55c-15.51,11.33-31.16,22.49-46.5,34.05-17.89,13.49-35.52,27.33-53.26,41,12.56-17,25-34.08,37.76-50.94,4.57-6,5.3-11.29-.3-17.1-5.22-5.41-10-11.2-14.91-16.94-5.72-6.75-5.58-11.37,3.87-15.1,5.48-2.16,13.41-7,13.9-11.31,1.68-14.86,11.4-22.27,21.83-30.09s20.26-16.14,30.37-24.24l-1.29-3.28c-25.95,2-52.1,2.7-77.83,6.33-44.06,6.23-45.36,6.69-82.9-15.91-5.25-3.16-10.93-5.61-16.63-8.5-1.25,3-1.85,3.93-2,5-3.11,17.49-5.83,35.07-9.52,52.43-.74,3.48-5.15,6.17-7.86,9.23Z"/><path class="cls-22" d="M688.35,990.61a3.24,3.24,0,0,0,0-1.08c-10.51-28.29,7.15-48.72,21.9-67.89,25.13-32.64,53.19-63,80.18-94.24,3.78-4.38,7-8.22,3.28-14.17-3.83-6.14-9-6.07-15.05-4-15.31,5.22-31.22,9.09-45.84,15.8-9.81,4.5-18,12.67-26.57,19.67a121.77,121.77,0,0,0-15.46,15c-14.23,16.64-34.64,12.62-52.74,16.8-30.54,7-55.49-7.42-78.16-22.65-14.36-9.65-22.89-28.07-33.52-42.92-.51-.72,3.57-6.78,6.07-7.24,12.34-2.23,24.86-3.41,37.32-5,1.23,7.07,1.9,14.31,3.94,21.14a19.16,19.16,0,0,0,7.09,10c13.58,8.79,27.34,17.39,41.63,24.91a21.5,21.5,0,0,0,15.9.93c13-5,26.1-10.59,38.07-17.76,55.16-33,110-66.69,164.81-100.26,2.58-1.58,5.58-4.3,6.19-7,3.53-15.39,6.38-30.93,9.47-46.41h0c.93-2.27,2.49-4.5,2.67-6.83.81-10.47,6.55-13.75,16.41-12.7,10.89,1.15,21.85,1.64,32.78,2.41l-41.09,36.53c-8.25,5.09-11.11,12.64-10.59,22.05.32,5.73.64,11.62-.3,17.23-4.78,28.54-.17,56.61,3.65,84.73.39,2.83,1.67,5.53,2.54,8.29l3.51,0c1.17-4.87,3.7-9.85,3.28-14.58-1.77-19.72-.41-37.73,18.91-49.36,2.9-1.74,4.63-5.41,6.9-8.19,15.49-.84,30.08-3.9,40.94-16.37.41-.48,1.3-.54,2-.79-7,10.3-14.55,19-29,18.27-4.47-.21-9.23,4.14-13.7,6.67-1.49.84-2.34,2.77-3.78,3.75-15,10.18-21,23.89-18.19,42,2,13.56-4,23.48-16.86,28.87-1.46-3.78-4-7.52-4.18-11.34-.53-13.63.59-27.36-.52-40.92-.84-10.24-4.14-20.28-6.34-30.41l-3.69.06c-3.82,6.37-8,12.57-11.39,19.13-22.44,42.89-45.07,85.68-66.88,128.89-7.5,14.87-10.57,32.21-25.93,42.18l-19,15.49Z"/><path class="cls-1" d="M433.39,1432.94l-30.11,45.38c-.15-3.46-1.17-7.15-.31-10.33,6.2-22.79,12.92-45.45,19.16-68.23,2-7.25,5.51-11.84,13.29-13.6,3.33-.75,7.05-3.81,8.8-6.85,7.15-12.43,13.67-25.21,20.25-38,1.15-2.21,1.44-4.86,2.84-9.85l-42.42,20.71c1.58-8.39,2.2-13.52,3.52-18.47,6.9-25.82,10.25-52.73,27.21-75.19,9.68-12.81,17.09-27.34,25.52-41.09l6.72-2.34c5.6,21.89,14.56,43.57,15.9,65.72,1.46,24-3.59,48.84-16.87,70.05-14.66,23.44-30.87,45.9-46.26,68.89C437.85,1423.92,435.78,1428.54,433.39,1432.94Z"/><path class="cls-3" d="M487.86,1215.12l-6.72,2.34c-8.77-1.65-17.48-3.84-26.33-4.71-4.58-.46-10.41,0-13.92,2.51-15.1,10.78-29.55,22.49-44.25,33.84q-16,12.33-31.94,24.62c9.9-26.42,23.53-50.1,47.1-67,7.78-5.59,15.42-11.76,21.71-18.91,4.23-4.79,6-11.77,8.84-17.78l4.53-8.44c14.84-25.65,23.94-52.24,17.69-82.74-1.92-9.39.78-19.73,1.36-29.63l15.25,47.35,4,9.07,6.34,4.29a6,6,0,0,0,.6,1.63l2.07,4.4c-2.92-1.33-5.73-3.14-8.79-3.84-2-.46-5.93.07-6.39,1.2-3.9,9.66-11.53,18.65-5.78,30.3,8.25,16.7,16.09,33.6,24.29,50.32C505.87,1211,506,1210.94,487.86,1215.12Z"/><path class="cls-30" d="M494.17,1115.94l-2.07-4.4c18.27,10.73,18.27,10.73,30.37.41l64.46-45.73c17.74-13.68,35.37-27.52,53.26-41,15.34-11.56,31-22.72,46.5-34.05-3.08,3.36-5.78,7.19-9.3,10-50.94,40.83-102.06,81.44-152.93,122.35-6.23,5-11.85,6.38-18.39,1.65C502,1122.23,498.13,1119,494.17,1115.94Z"/><path class="cls-5" d="M938.42,746.68c-.67.25-1.56.31-2,.79C925.59,759.94,911,763,895.51,763.84c2.87-3.09,5.41-6.61,8.68-9.2,12.39-9.8,24.8-19.6,37.66-28.77,6.88-4.92,8.73-10.73,7.13-18.59s-2.27-15.65-4-23.34c-2-8.88-4.74-17.6-7.57-27.86l-16,10.72,13.16-21.43c14.93-4.74,18.8-16.46,19.15-30.39.8-2.12,1.61-4.23,2.41-6.35v21.21c2.52-1.68,3.52-2.08,4.16-2.8,24.85-28.11,32.65-63.28,40.32-98.4.68-3.1-1.15-8.16-3.58-10.3-15.83-14-31-29-52.54-34.57-7.21-1.88-13.87-5.84-20.78-8.85,23.21,1.41,46.44,2.47,69.58,4.54,4.16.37,9.26,4,11.68,7.66,7.72,11.62,16.32,23.27,20.89,36.2,4.28,12.09,4.28,25.82,5.07,38.89.13,2.23-5.26,4.78-8.09,7.19-1.19,2.62-3.51,5.34-3.29,7.84.35,4.1,2.36,8.06,3.68,12.07-4.09.73-8.58.64-12.15,2.41s-6.36,5.46-9.48,8.3q-1.26,16.11-2.5,32.23C987.55,636,981.68,645,978,655.71c-4.34,12.5-8.13,25.2-12.44,37.71-.63,1.84-2.93,3.05-4.2,4.74-1.69,2.24-4.55,4.72-4.44,7a51.09,51.09,0,0,1-9.55,32.74Z"/><path class="cls-23" d="M738,953.88c15.36-10,18.43-27.31,25.93-42.18,21.81-43.21,44.44-86,66.88-128.89,3.43-6.56,7.57-12.76,11.39-19.13l3.69-.06c2.2,10.13,5.5,20.17,6.34,30.41,1.11,13.56,0,27.29.52,40.92.15,3.82,2.72,7.56,4.18,11.34l-15,9.09V814.49l-3-.91c-1.93,2.19-4.18,4.17-5.73,6.6C826,831.4,819.5,843,811.93,854c-6.39,9.23-7.89,18.09-2.1,28,4.66,8,3.38,14.87-4.17,20.74-20.7,16.09-41.22,32.41-61.89,48.55C742.14,952.52,739.91,953,738,953.88Z"/><path class="cls-22" d="M947.34,737.88a51.09,51.09,0,0,0,9.55-32.74c-.11-2.26,2.75-4.74,4.44-7,1.27-1.69,3.57-2.9,4.2-4.74,4.31-12.51,8.1-25.21,12.44-37.71,3.71-10.68,9.58-19.7,21.12-23.46C982.88,647.87,977,668.83,969.54,689c-1.44,3.9-3.4,7.6-4.91,11.48-2.23,5.72-5.92,11.48-6,17.28C958.43,727.08,955.3,733.52,947.34,737.88Z"/><path class="cls-5" d="M526.51,507.19c-1,7.8-3.21,15.64-2.86,23.38.37,8.13,3.14,16.15,4.86,24.23l0,0q4.46,10.83,8.89,21.66c6.12,14.81,13.36,28.19,31.49,31.3,4.14.71,7.69,4.85,11.51,7.41l-.19,14.9c-21.56,13-38.65,29.85-49.72,56.15l110.12,11.27,13.16,8.39L641,718.79c1.9-9.45-2.68-14.26-11.58-15-13.41-1.07-26.86-1.55-40.29-2.28l-38.84-2.15c-32.53-6.07-65-8.2-97.58,4.93.22-4.07,0-5.24.37-6.13,9-20.76,9.06-20.77-8.13-36.09-1.87-1.67-4-3-5.93-4.65-10.56-9.24-20.59-18.58-25.39-32.67-11.43-33.5-28.13-64.39-47.91-93.73-3-4.5-4.45-10.47-5.3-16-2.64-17.15-4.65-34.41-6.9-51.62a176.73,176.73,0,0,0-16.09,31c-2.73,6.53-6.53,8.7-13.44,6.1-9.42-3.53-19.14-6.25-28.6-9.67-7.83-2.84-9.48.33-10.77,7.77-2.19,12.62,9.39,16.87,13.42,25.56l-2.46,2.29-13.26-12.64q1.25-26,2.48-52c9.74-5.26,19.28-11,29.3-15.65,7.79-3.63,10.43-8.72,8.89-17.05-4.42-23.9-8.24-47.9-12.75-71.77-4.1-21.74-4.36-21.69-25.39-20.9h0c-3.9-19.91,7.08-33.89,17.64-49,8.76-12.49,14.3-27.29,20.84-41.26,3.12-6.67,6.93-11.71,14.89-12.06,50.76-2.22,98-22.12,147.87-28.93,12.58-1.72,25.65-.63,38.44.13,11.26.68,22.43,2.71,34.95,4.32C543.76,228,528.17,240,503.65,234.18c-15.88-3.73-31.76-2.63-45.55,9.51-9.91,8.74-21.6,15.49-32.67,22.87-6.59,4.4-9.84,10-9.08,18.1,1.07,11.43-.42,23.63,3.18,34.14,3.16,9.26,10.91,17.59,18.29,24.57a73.36,73.36,0,0,0,23.25,14.37c13.69,5.36,28.38,8.16,42.05,13.54,7.62,3,14.6,8.37,20.9,13.8,15.2,13.09,18.8,29.79,13.14,48.75-9-15.95-17.56-32.15-27.21-47.68-2.89-4.66-8.22-9.15-13.37-10.81-22.55-7.28-45.42-13.6-68.23-20.08-35-9.95-34.94-9.89-44.43-44.88-2.17-8-4.66-15.92-7-23.88l-3.53.38c-18.57,34.61-37.81,69-27.53,111.21,2,8.28.46,18.1,4.31,25.16,11.8,21.65,25.31,42.38,38.41,63.31,4.18,6.68,10.11,7.81,17.77,5.07q39.07-14,78.49-27c28.73-9.54,24.3-11.83,32.44,18C519.57,491.06,523.39,499,526.51,507.19Zm-136,12.48c7.7,13.64,14.86,25.54,21.2,37.86,4.25,8.28,10.33,11,19.25,10.09,11.4-1.14,22.9-1.3,34.32-2.35,6.17-.57,12.25-2.13,18.68-3.3C460.59,530.61,428.77,520.93,390.47,519.67Zm110,44.79-3.3,1.18c-.31,3.4-.87,6.8-.9,10.2-.1,12.92-.2,25.85,0,38.77.48,32.52-5.38,28.27,30.77,28.64,6.43.06,9.31-2.81,11.59-8.72,5-13,6.12-24.12-5.58-34.92S511.29,576.25,500.5,564.46ZM323.15,320l3.33,1.62c9.5-6.91,19.12-13.67,28.37-20.89,1.51-1.18,2.54-4.87,1.84-6.64-4.59-11.68-9.4-23.32-14.82-34.64-2.4-5-7.61-4.52-8.59.49C329.35,279.88,326.44,300,323.15,320Z"/><path class="cls-5" d="M295.54,526.5l2.46-2.29c5.44,1.15,12.42.56,16.05,3.77,14.2,12.51,29.52,24.91,28.11,47a14.64,14.64,0,0,0,1,5.26c6.77,20.86,6,44,19.38,62.87l-2.15,1.83c-6.46-6.65-14-12.67-13.32-23.43.09-1.33-.34-3.33-1.27-4-12.75-9-8.39-22.38-9.07-34.46a50.7,50.7,0,0,1,0-9.7c2.26-16.29-6.88-26.06-19.14-34.15C313.36,529.55,303.7,529.33,295.54,526.5Z"/><path class="cls-31" d="M284.76,461.89q-1.25,26-2.48,52c-6.72-8.87-4.55-18.51-2.42-28.14q2.31-13.05,4.64-26.1C284.59,460.37,284.67,461.13,284.76,461.89Z"/><path class="cls-32" d="M360.35,644.94l2.15-1.83c8,2.23,8.53,8.56,8.69,15.33.19,8.19-2.5,19.78,1.79,23.88,11.48,11,8.14,23.47,9,35.91.26,3.65,2.19,7.22,3.55,10.75,2.32,6,6.09,11.75,6.88,17.91,1.18,9.17.31,18.61.3,27.93l-.18,6.67c-.73-10.61-.88-21.3-2.41-31.79-.86-6-4.19-11.5-6.05-17.34-1.77-5.55-4.08-11.2-4.37-16.89-.55-11,.91-21.52-9.88-30-3.71-2.9-2.49-12.58-2.81-19.19C366.64,658.52,368.25,650.31,360.35,644.94Z"/><path class="cls-5" d="M457.39,979.94,453,982.11c1.45-2.39,2.45-5.29,4.44-7.08,9.58-8.63,18.89-17.4,23.28-30l.64.75c-2.24,6.15-3.31,13.15-7,18.23C469.88,970.15,463.15,974.69,457.39,979.94Z"/><path class="cls-23" d="M1023.22,589.31c-1.32-4-3.33-8-3.68-12.07-.22-2.5,2.1-5.22,3.29-7.84,4.11.84,8.2,2.07,12.36,2.44,14.82,1.31,15.63,2,16.07,17.24Z"/><path class="cls-2" d="M263.22,1746.45l-.3-4.63L301.77,1664c-9.22,20.14-18.37,40.31-27.68,60.41C270.65,1731.82,266.86,1739.1,263.22,1746.45Z"/><path class="cls-4" d="M364.7,1273.72q16-12.32,31.94-24.62c14.7-11.35,29.15-23.06,44.25-33.84,3.51-2.51,9.34-3,13.92-2.51,8.85.87,17.56,3.06,26.33,4.71-8.43,13.75-15.84,28.28-25.52,41.09-17,22.46-20.31,49.37-27.21,75.19-1.32,5-1.94,10.08-3.52,18.47l42.42-20.71c-1.4,5-1.69,7.64-2.84,9.85-6.58,12.75-13.1,25.53-20.25,38-1.75,3-5.47,6.1-8.8,6.85-7.78,1.76-11.31,6.35-13.29,13.6-6.24,22.78-13,45.44-19.16,68.23-.86,3.18.16,6.87.31,10.33-13.2,20.91-26.52,41.76-39.59,62.77-19.9,32-39.6,64.1-59.44,96.12a19.7,19.7,0,0,1-8.83,8.1c2.61-16.33,5.22-32.66,7.89-49.44-37.88,25.77-46.1,62.9-41.56,105.27l-4.38.25-18.24-34.92q1.22-6.42,2.42-12.85c10.56-30,21.65-59.92,31.56-90.18,16.5-50.41,32.25-101.08,48.31-151.64,12.73-21.62,24.94-43.58,38.42-64.73,5.86-9.19,7.63-18.08,6.31-28.51-1.7-13.52-2.62-27.13-3.87-40.71Q363.48,1275.78,364.7,1273.72Zm60.58,25.65-3-.44c-12.59,16.33-7.62,35.85-8.38,54.35Q419.6,1326.32,425.28,1299.37ZM383.69,1434c-2.79,17.44-14.75,34-6.37,52.39,3.1-13.83,4.82-27.82,6.32-41.82A100.69,100.69,0,0,0,383.69,1434Z"/><path class="cls-24" d="M222.05,1772.34q1.08-7.56,2.15-15.11c2.91-13.36,5.81-26.72,9.37-43.14,7.38,17.79,18.94,31.2,11.17,50-6.62,16.05-12,32.61-17.94,48.94Q224.43,1792.71,222.05,1772.34Z"/><path class="cls-33" d="M222.05,1772.34q2.37,20.37,4.75,40.72l-7.51,7.39c.84-15.61,1.67-31.1,2.5-46.59A2.43,2.43,0,0,1,222.05,1772.34Z"/><path class="cls-3" d="M362.28,1277.85c1.25,13.58,2.17,27.19,3.87,40.71,1.32,10.43-.45,19.32-6.31,28.51-13.48,21.15-25.69,43.11-38.42,64.73,5-18.93,10.18-37.82,14.91-56.82s9-38.16,13.54-57.25Z"/><path class="cls-2" d="M457.39,979.94c5.76-5.25,12.49-9.79,17-16,3.71-5.08,4.78-12.08,7-18.23,2.71-3.06,7.12-5.75,7.86-9.23,3.69-17.36,6.41-34.94,9.52-52.43.18-1,.78-2,2-5,5.7,2.89,11.38,5.34,16.63,8.5,37.54,22.6,38.84,22.14,82.9,15.91,25.73-3.63,51.88-4.32,77.83-6.33l1.29,3.28c-10.11,8.1-20,16.47-30.37,24.24S628.93,940,627.25,954.83c-.49,4.34-8.42,9.15-13.9,11.31-9.45,3.73-9.59,8.35-3.87,15.1,4.86,5.74,9.69,11.53,14.91,16.94,5.6,5.81,4.87,11.05.3,17.1-12.75,16.86-25.2,34-37.76,50.94L522.46,1112l-26.26-2.53-13.86-64.9-3.43.59v10.55q-1-26-2.08-52.07c-.2-4.74-.45-9.49-.67-14.23l-3.29-.44q-4.47,15-8.95,30-2.25,8.56-4.49,17.12c-.66,0-1.31.11-2,.18.7-14.23,1.63-28.46,2-42.7C459.56,989,458.12,984.45,457.39,979.94Zm54.47,101.57c25.89-1.71,57.23-28.15,62.63-52.6-13.34,6.1-25.64,12.79-38.68,17.43C519.1,1052.29,515.83,1066.08,511.86,1081.51Z"/><path class="cls-14" d="M465.93,1049.2c-.58,9.9-3.28,20.24-1.36,29.63,6.25,30.5-2.85,57.09-17.69,82.74-.14-2.26-.27-4.52-.41-6.78.07-1.4.13-2.81.2-4.21,2.87-19.85,5.66-39.71,8.64-59.54,2.29-15.31,4.81-30.58,7.23-45.86l2.3.17C465.21,1046.64,465.57,1047.92,465.93,1049.2Z"/><path class="cls-34" d="M465.93,1049.2l-1.09-3.85-2.3-.17c-2.42,15.28-4.94,30.55-7.23,45.86-3,19.83-5.77,39.69-8.64,59.54.32-34,1.83-67.8,11-100.82,1.22-4.41,1.2-9.15,1.75-13.74q2.25-8.57,4.49-17.13c1.33.88,3.63,1.58,3.83,2.67,4.62,25,9,50,13.43,75Z"/><path class="cls-34" d="M446.47,1154.79c.14,2.26.27,4.52.41,6.78l-4.53,8.44-51.9,47.45c5-6.39,9.63-13.13,15.08-19.1C419,1183.65,432.8,1169.29,446.47,1154.79Z"/><path class="cls-3" d="M473.77,274.84c44.56,4,81.27-17,120.4-38.41,2.06,11.87,4.39,21.47,5,31.18.14,2.49-5,7-8.28,7.72C552.09,284,513.16,287.41,473.77,274.84Z"/><path class="cls-23" d="M653.81,705.86l-13.16-8.39c-5.1-1.46-10.12-3.53-15.32-4.26-13.8-1.93-27.68-3.29-41.52-4.88-13.18-1.52-14.78-3.53-12.25-16.26,2.79-14,5.79-28,8.69-42q.09-7.44.19-14.9c-2.74-19.39-11.18-34.61-29.44-44-8.14-4.19-15-10.83-22.45-16.36l0,0q6-50.7,12-101.38c.81-6.75,2.73-13.51,2.52-20.22-.3-10.1,4.05-15.28,13.65-16.74C549,455.22,541,493.91,534.09,532.79c-1,5.65,1.67,13.82,5.6,18.09,8.95,9.7,19.33,18.25,30,26.08,3.84,2.82,10.58,3.94,15.28,2.83,10.44-2.49,20.21-7.8,30.66-10.09,5-1.1,12.36.36,16.32,3.54,14.24,11.47,27.56,24.08,41,36.47,2.21,2,3.43,5.16,5.1,7.78-2.61,1.48-5.11,4-7.85,4.28-21,2.35-42,4.73-63,6.09-7.88.52-11.88,3.11-13.23,10.8-1.61,9.2-3.64,18.34-5.76,27.44-1.58,6.78,1.43,8.67,7.73,9.54,36.4,5,66.85-9.18,95-29.71,14.47-10.56,27.61-22.93,41.32-34.52,5.71-4.83,11.72-8.72,16.38.61,7.39,14.79,17.88,18,32.26,10.28,2.15-1.15,5.39-.65,7.17-2.09,14.06-11.37,33.68-20.36,40.49-35.18,11.9-25.93,20.29-54.66,17.35-84.65-.84-8.56-1.24-17.16-1.85-25.74A172.78,172.78,0,0,1,876.42,550c2.56,15.47,9.82,25.4,24.71,30.16,8.4,2.69,16.56,6.08,24.83,9.15-4.65,2.63-11.09,4.11-13.64,8.09C900.63,615.62,890,634.53,879,653.19l2.33,2.25c19.94-5.06,43.24-1.79,56.1-24.47,1.67-2.94,5.21-4.82,7.89-7.19q-5.4,10.79-10.79,21.59L921.4,666.8l.11,0-12.81.36c-10.93-.77-21.89-1.26-32.78-2.41-9.86-1.05-15.6,2.23-16.41,12.7-.18,2.33-1.74,4.56-2.67,6.83C856.77,668.55,843,662.68,836,652l-3.43,1.32c2,14.73,4,29.45,6.23,46.47l18.05-15.53c-3.09,15.48-5.94,31-9.47,46.41-.61,2.69-3.61,5.41-6.19,7-54.84,33.57-109.65,67.21-164.81,100.26-12,7.17-25,12.74-38.07,17.76a21.5,21.5,0,0,1-15.9-.93c-14.29-7.52-28-16.12-41.63-24.91a19.16,19.16,0,0,1-7.09-10c-2-6.83-2.71-14.07-3.94-21.14h0l118.64-7C673.72,785.35,661,780.55,649,774.43c-26.58-13.51-52.87-27.61-79.15-41.7-3.29-1.77-5.84-4.93-8.73-7.44l43-2.3,79.09,3.43ZM657,830.59c.31-.9.63-1.8.94-2.69-7.15-5.81-14.16-11.8-21.54-17.29-2-1.52-5.62-2.72-7.82-2-10.7,3.46-21.16,7.63-31.71,11.55l.36,2.89Z"/><path class="cls-3" d="M844.06,474.64c.61,8.58,1,17.18,1.85,25.74,2.94,30-5.45,58.72-17.35,84.65-6.81,14.82-26.43,23.81-40.49,35.18-1.78,1.44-5,.94-7.17,2.09C766.52,630,756,626.81,748.64,612c-4.66-9.33-10.67-5.44-16.38-.61-13.71,11.59-26.85,24-41.32,34.52-28.13,20.53-58.58,34.75-95,29.71-6.3-.87-9.31-2.76-7.73-9.54,2.12-9.1,4.15-18.24,5.76-27.44,1.35-7.69,5.35-10.28,13.23-10.8,21-1.36,42-3.74,63-6.09,2.74-.31,5.24-2.8,7.85-4.28-1.67-2.62-2.89-5.74-5.1-7.78-13.48-12.39-26.8-25-41-36.47-4-3.18-11.28-4.64-16.32-3.54-10.45,2.29-20.22,7.6-30.66,10.09-4.7,1.11-11.44,0-15.28-2.83-10.67-7.83-21.05-16.38-30-26.08-3.93-4.27-6.6-12.44-5.6-18.09,6.9-38.88,14.93-77.57,22.59-116.33,2.05-1.2,4.81-3.91,6-3.34,4.06,2,7.57,5.07,11.3,7.73,17.68,8.54,16.15,26,19.15,41.33.62,3.16.66,6.42,1.21,9.6,4.65,26.9,4.66,26.91,30.46,36.76,4,1.54,8.4,2.37,12.11,4.44,19.31,10.8,37.38,9.51,57.71.1,43.87-20.31,88.14-40.3,136.8-47.11,2.08-.29,4.05-1.4,6.07-2.13Zm-39.78,14L802.84,485c-5.89.29-12.48-1-17.52,1.17-15.78,6.91-31.27,14.63-46.33,23-18,10.05-27.42,29.67-24.88,47.52,1.12,7.89,4.18,9,10.68,5.71C737,556.2,749.28,550.3,761.4,544c5.37-2.79,12.18-5,15.27-9.59C786.64,519.68,795.18,504,804.28,488.63Z"/><path class="cls-2" d="M526.51,507.19c-3.12-8.16-6.94-16.13-9.23-24.52-8.14-29.86-3.71-27.57-32.44-18q-39.39,13.08-78.49,27c-7.66,2.74-13.59,1.61-17.77-5.07-13.1-20.93-26.61-41.66-38.41-63.31-3.85-7.06-2.29-16.88-4.31-25.16-10.28-42.22,9-76.6,27.53-111.21l3.53-.38c2.34,8,4.83,15.88,7,23.88,9.49,35,9.47,34.93,44.43,44.88,22.81,6.48,45.68,12.8,68.23,20.08,5.15,1.66,10.48,6.15,13.37,10.81,9.65,15.53,18.23,31.73,27.21,47.68Zm-111.09-118c22.73,25.75,53.18,36.59,83.77,47.86a189.26,189.26,0,0,0-19.59-25.26c-4.24-4.67-8.6-11-14-12.51C449.15,394.88,432.18,392.45,415.42,389.23Z"/><path class="cls-2" d="M628.08,367c28.14-10,56.68-14.93,86.24-6.63l29.54,27.41c-19.45,1-36.18,2.13-52.93,2.76-18.57.71-28.7,14.63-43.36,24.25L723,440.22l2.15,2.16c1.23,2.19,2.47,4.38,4.51,8l-38-5.32c-19-2.66-18.68-2.52-26.87,14.61-1.53,3.2-7.27,7.5-9.51,6.74-17.24-5.92-34.1-13-51.07-19.65h0c-6.44-15-4.52-29,4-42.89C615.47,392,621.5,379.34,628.08,367Z"/><path class="cls-5" d="M723,440.22l-75.43-25.4c14.66-9.62,24.79-23.54,43.36-24.25,16.75-.63,33.48-1.73,52.93-2.76L714.32,360.4l4.1.32c11.48,7,23.17,13.74,34.33,21.24,3.68,2.48,6,7,8.92,10.6v.05c-14.54,1.42-29,3.22-43.62,4.11-9.31.58-10.43,4.8-8.37,12.71,1.1,4.24.26,9,.29,13.51l10.87,10.78C721.57,435.89,722.28,438.06,723,440.22Z"/><path class="cls-5" d="M628.08,367c-6.58,12.31-12.61,25-19.89,36.83-8.52,13.9-10.44,27.87-4,42.89L600,444.5q-3.33-8.56-6.65-17.14c0-13.16.28-26.32,0-39.48-.18-7.54,2.63-12.11,10.08-14C611.69,371.8,619.87,369.33,628.08,367Z"/><path class="cls-22" d="M284.76,461.89c-.09-.76-.17-1.52-.26-2.27.27-12.42-1.65-22.76-8.93-34.7-6.51-10.68-5.79-30.62,0-42.5,5.21-10.77,7.33-21,9.07-31.91.72-4.56.18-9.32.21-14,21-.79,21.29-.84,25.39,20.9,4.51,23.87,8.33,47.87,12.75,71.77,1.54,8.33-1.1,13.42-8.89,17.05C304,450.92,294.5,456.63,284.76,461.89Z"/><path class="cls-35" d="M418.87,65.68c15.08-17.4,34.42-26.8,56.78-30.54.68,1.28,1.36,2.56,2,3.84L420.2,68.19C419.75,67.36,419.31,66.52,418.87,65.68Z"/><path class="cls-2" d="M923.7,474.92c6.91,3,13.57,7,20.78,8.85,21.52,5.62,36.71,20.6,52.54,34.57,2.43,2.14,4.26,7.2,3.58,10.3-7.67,35.12-15.47,70.29-40.32,98.4-.64.72-1.64,1.12-4.16,2.8V608.63c.58-2.8,1.17-5.6,1.75-8.4l2.49-32.49c-5.81-4.25-11.11-9.59-17.52-12.54-21-9.66-43.51-16.68-57.29-37.49C882.44,513,878,509.19,874.21,505q0-3.18,0-6.36l17.29-25.75Z"/><path class="cls-3" d="M945.35,623.78c-2.68,2.37-6.22,4.25-7.89,7.19-12.86,22.68-36.16,19.41-56.1,24.47L879,653.19c11-18.66,21.6-37.57,33.29-55.78,2.55-4,9-5.46,13.64-8.09L953.48,579c-.67,7.39-1.2,13.13-1.72,18.87l-4.32,23.72C946.74,622.3,946.05,623,945.35,623.78Z"/><path class="cls-5" d="M874.21,505c3.82,4.23,8.23,8.06,11.34,12.75,13.78,20.81,36.28,27.83,57.29,37.49,6.41,2.95,11.71,8.29,17.52,12.54-9.7,4.47-19.59,8.57-29,13.53-6.74,3.54-11.88,3.27-17.15-2.57-11.07-12.23-22.61-24-33.68-36.27a16.43,16.43,0,0,1-3.91-8.56C875.45,524.28,875,514.6,874.21,505Z"/><path class="cls-36" d="M822.39,433.89q0-21.66,0-43.32Q829.76,413.3,837.2,436c0,1.37,0,2.75,0,4.11Z"/><path class="cls-3" d="M826.44,317.33,822.21,287c8.1,6.49,11.57,14.7,11,25.26-.67,12.47-.27,25-.33,37.49Q829.66,333.55,826.44,317.33Z"/><path class="cls-5" d="M891.51,472.85,874.22,498.6c-.59-2.42-1.37-4.81-1.76-7.26C869.4,472,872.27,469.22,891.51,472.85Z"/><path class="cls-25" d="M947.44,621.57l4.32-23.72,6.11,2.38c-.58,2.8-1.17,5.6-1.75,8.4-.8,2.12-1.61,4.23-2.41,6.35Z"/><path class="cls-22" d="M600,444.5l4.17,2.25h0a19.13,19.13,0,0,0,1.09,3c12.54,22.32,34.87,33.64,54.54,47.82,1.63,1.17,8.4-1,9.23-3.1,6.07-15.1,19-18,32.8-20.56,13.22-2.47,26.18-6.28,39.26-9.5.6-1.31,1.21-2.61,1.82-3.92l-17.79-18.14L723,440.22c-.72-2.16-1.43-4.33-2.15-6.5l44.85,21c-15.34,9.61-27.8,17.65-40.5,25.3-12,7.24-24.44,13.76-36.31,21.2-8.92,5.58-17.33,7.06-27.42,2.65-13.16-5.74-27.21-9.45-40.24-15.42a26.78,26.78,0,0,1-12.41-13C604.75,465.64,602.84,454.89,600,444.5Z"/><path class="cls-37" d="M710,422.94c0-4.52.81-9.27-.29-13.51-2.06-7.91-.94-12.13,8.37-12.71,14.57-.89,29.08-2.69,43.62-4.11-.71,1.63-1.41,3.26-2.15,4.88-3.23,7.07-4.72,16.74-10.23,20.42-4.78,3.2-14.18-1.34-21.38-.66C721.82,417.82,716,420.94,710,422.94Z"/><path class="cls-34" d="M958.28,397.1c.24-1.36,0-3.49.8-4,12.17-7.3,24.47-14.39,38.44-22.52,1.4,8.53,2.4,14.64,3.78,23.06l-43,3.42Z"/><path class="cls-2" d="M392.73,774.82c0-9.32.88-18.76-.3-27.93-.79-6.16-4.56-11.92-6.88-17.91-1.36-3.53-3.29-7.1-3.55-10.75-.88-12.44,2.46-25-9-35.91-4.29-4.1-1.6-15.69-1.79-23.88-.16-6.77-.69-13.1-8.69-15.33-13.37-18.83-12.61-42-19.38-62.87a14.64,14.64,0,0,1-1-5.26c1.41-22.09-13.91-34.49-28.11-47-3.63-3.21-10.61-2.62-16.05-3.77-4-8.69-15.61-12.94-13.42-25.56,1.29-7.44,2.94-10.61,10.77-7.77,9.46,3.42,19.18,6.14,28.6,9.67,6.91,2.6,10.71.43,13.44-6.1a176.73,176.73,0,0,1,16.09-31c2.25,17.21,4.26,34.47,6.9,51.62.85,5.5,2.27,11.47,5.3,16,19.78,29.34,36.48,60.23,47.91,93.73,4.8,14.09,14.83,23.43,25.39,32.67,1.89,1.65,4.06,3,5.93,4.65,17.19,15.32,17.17,15.33,8.13,36.09-.39.89-.15,2.06-.37,6.13,32.59-13.13,65.05-11,97.58-4.93l-34.81,3.65c6.27,4.75,10.16,10.21,14.26,10.38,21.58.87,43.21.41,64.73.41.15-1.82.5-2.67.22-3.16-1.77-3.09-3.69-6.1-5.56-9.13,13.43.73,26.88,1.21,40.29,2.28,8.9.7,13.48,5.51,11.58,15l-36.6,2.28c-27.25-1.43-54.49-3.79-81.74-4-23.77-.18-47.56,2-71.35,3.22-.25,1.31-.51,2.62-.76,3.93,5.18,4.14,10.89,7.79,15.39,12.57,4.23,4.5,9.06,9.77,10.36,15.45,5.75,25.14,10.56,50.51,15.18,75.9,2,10.93-.72,12.61-11.76,13.86-20.13,2.29-35.87-2-47.17-21-8.13-13.75-19.78-25.44-30.13-37.82C399.69,779.94,396,777.57,392.73,774.82Z"/><path class="cls-22" d="M561.12,725.29c2.89,2.51,5.44,5.67,8.73,7.44,26.28,14.09,52.57,28.19,79.15,41.7,12,6.12,24.72,10.92,39.35,17.29l-118.64,7c19.87-6.92,19.54-6.92,19.57-29,0-8.61-3.12-13.1-11.34-15.57a251.17,251.17,0,0,1-43.2-17Z"/><path class="cls-34" d="M604.36,721.07l36.6-2.28,12.85-12.93,29.43,20.56L604.15,723Q604.24,722,604.36,721.07Z"/><path class="cls-2" d="M921.4,666.8l16-10.72c2.83,10.26,5.56,19,7.57,27.86,1.75,7.69,2.45,15.61,4,23.34s-.25,13.67-7.13,18.59c-12.86,9.17-25.27,19-37.66,28.77-3.27,2.59-5.81,6.11-8.68,9.2-2.27,2.78-4,6.45-6.9,8.19-19.32,11.63-20.68,29.64-18.91,49.36.42,4.73-2.11,9.71-3.28,14.58l-3.51,0c-.87-2.76-2.15-5.46-2.54-8.29-3.82-28.12-8.43-56.19-3.65-84.73.94-5.61.62-11.5.3-17.23-.52-9.41,2.34-17,10.59-22.05l53.9-36.89Z"/><path class="cls-5" d="M921.51,666.75l-53.9,36.89,41.09-36.53Z"/><path class="cls-17" d="M481.18,1096.55c-4.43-25-8.81-50-13.43-75-.2-1.09-2.5-1.79-3.83-2.67q4.47-15,8.95-30l3.29.44c.22,4.74.47,9.49.67,14.23q1.05,26,2.08,52.07,3.13,25,6.25,50Q483.18,1101.07,481.18,1096.55Z"/><path class="cls-16" d="M485.16,1105.62q-3.12-25-6.25-50v-10.55l3.43-.59,13.86,64.9-4.7.49Z"/><path class="cls-17" d="M491.5,1109.91l4.7-.49,26.26,2.53c-12.09,10.32-12.09,10.32-30.36-.41A6,6,0,0,1,491.5,1109.91Z"/><path class="cls-22" d="M947.44,621.57l6.27-6.59c-.35,13.93-4.22,25.65-19.15,30.39q5.38-10.8,10.79-21.59Z"/><path class="cls-37" d="M390.47,519.67c38.3,1.26,70.12,10.94,93.45,42.3-6.43,1.17-12.51,2.73-18.68,3.3-11.42,1.05-22.92,1.21-34.32,2.35-8.92.89-15-1.81-19.25-10.09C405.33,545.21,398.17,533.31,390.47,519.67Z"/><path class="cls-2" d="M500.5,564.46c10.79,11.79,20.87,24.35,32.57,35.15s10.6,21.94,5.58,34.92c-2.28,5.91-5.16,8.78-11.59,8.72-36.15-.37-30.29,3.88-30.77-28.64-.19-12.92-.09-25.85,0-38.77,0-3.4.59-6.8.9-10.2Z"/><path class="cls-37" d="M580.25,630.05c-2.9,14-5.9,28-8.69,42-2.53,12.73-.93,14.74,12.25,16.26,13.84,1.59,27.72,2.95,41.52,4.88,5.2.73,10.22,2.8,15.32,4.26L530.53,686.2C541.6,659.9,558.69,643,580.25,630.05Z"/><path class="cls-2" d="M323.15,320c3.29-20,6.2-40.15,10.13-60.06,1-5,6.19-5.5,8.59-.49,5.42,11.32,10.23,23,14.82,34.64.7,1.77-.33,5.46-1.84,6.64-9.25,7.22-18.87,14-28.37,20.89Z"/><path class="cls-37" d="M528.55,554.78C536,560.31,542.86,567,551,571.14c18.26,9.4,26.7,24.62,29.44,44-3.82-2.56-7.37-6.7-11.51-7.41-18.13-3.11-25.37-16.49-31.49-31.3Q533,565.63,528.55,554.78Z"/><path class="cls-15" d="M589.09,701.55c1.87,3,3.79,6,5.56,9.13.28.49-.07,1.34-.22,3.16-21.52,0-43.15.46-64.73-.41-4.1-.17-8-5.63-14.26-10.38l34.81-3.65Z"/><path class="cls-38" d="M425.28,1299.37q-5.68,27-11.35,53.91c.76-18.5-4.21-38,8.38-54.35Z"/><path class="cls-38" d="M383.69,1434a100.69,100.69,0,0,1-.05,10.57c-1.5,14-3.22,28-6.32,41.82C368.94,1468,380.9,1451.46,383.69,1434Z"/><path class="cls-17" d="M511.86,1081.51c4-15.43,7.24-29.22,23.95-35.17,13-4.64,25.34-11.33,38.68-17.43C569.09,1053.36,537.75,1079.8,511.86,1081.51Z"/><path class="cls-33" d="M657,830.59l-59.77-7.54-.36-2.89c10.55-3.92,21-8.09,31.71-11.55,2.2-.72,5.77.48,7.82,2,7.38,5.49,14.39,11.48,21.54,17.29C657.62,828.79,657.3,829.69,657,830.59Z"/><path class="cls-36" d="M856.84,684.23l-18.05,15.53c-2.28-17-4.25-31.74-6.23-46.47L836,652c7,10.71,20.78,16.58,20.85,32.26Z"/><path class="cls-4" d="M804.28,488.63c-9.1,15.34-17.64,31-27.61,45.79-3.09,4.56-9.9,6.8-15.27,9.59C749.28,550.3,737,556.2,724.79,562.4c-6.5,3.31-9.56,2.18-10.68-5.71-2.54-17.85,6.83-37.47,24.88-47.52,15.06-8.38,30.55-16.1,46.33-23,5-2.2,11.63-.88,17.52-1.17Z"/><path class="cls-17" d="M415.42,389.23c16.76,3.22,33.73,5.65,50.16,10.09,5.42,1.47,9.78,7.84,14,12.51a189.26,189.26,0,0,1,19.59,25.26C468.6,425.82,438.15,415,415.42,389.23Z"/><path class="cls-5" d="M725.15,442.38l17.79,18.14c-.61,1.31-1.22,2.61-1.82,3.92-13.08,3.22-26,7-39.26,9.5-13.84,2.59-26.73,5.46-32.8,20.56-.83,2.07-7.6,4.27-9.23,3.1-19.67-14.18-42-25.5-54.54-47.82a19.13,19.13,0,0,1-1.09-3c17,6.69,33.83,13.73,51.07,19.65,2.24.76,8-3.54,9.51-6.74,8.19-17.13,7.91-17.27,26.87-14.61l38,5.32C727.62,446.76,726.38,444.57,725.15,442.38Z"/><path class="cls-3" d="M921.57,878.49s-31.57-15.2-46.28-26.07c-18.68,24.5-45.65,39.13-69.35,57.56C779.57,930.48,752,949.42,725,969l-6,.33,19-15.49c1.95-.86,4.18-1.36,5.81-2.63,20.67-16.14,41.19-32.46,61.89-48.55,7.55-5.87,8.83-12.75,4.17-20.74-5.79-9.92-4.29-18.78,2.1-28C819.5,843,826,831.4,833.19,820.18c1.55-2.43,3.8-4.41,5.73-6.6l3,.91v40.89l15-9.09c12.88-5.39,18.91-15.31,16.86-28.87-2.76-18.16,3.19-31.87,18.19-42,1.44-1,2.29-2.91,3.78-3.75,4.47-2.53,9.23-6.88,13.7-6.67,14.45.68,22-8,29-18.27l8.92-8.8c8-4.36,11.09-10.8,11.26-20.1.11-5.8,3.8-11.56,6-17.28,1.51-3.88,3.47-7.58,4.91-11.48,7.43-20.19,13.34-41.15,29.54-56.77q1.26-16.12,2.51-32.23l4.42.05c0,5,.06,10.06.13,15.09.14,10.11.73,19.94-9.5,26.91-3.71,2.53-5.62,8.28-7.44,12.92-5.2,13.27-9.83,26.76-14.91,40.08-1.12,2.92-3.43,5.38-4.72,8.26-2.37,5.33-6,10.76-6.18,16.26-.32,8.61-2.43,15-9.67,20.21-5.45,4-9.87,9.39-14.49,14.41-8.18,8.92-16.57,15.51-30.23,15.54-6.36,0-13,7.65-19,12.53-9.2,7.55-15.21,16.26-12.18,29.61,2.45,10.81-5.36,22.41,1.56,33.51,26.8,26.24,46.4,26.26,46.4,26.26s25.68-3.76,38,12.11c-12.45-9.84-28-12.79-42.23-5.28"/></svg>