<svg id="Layer_1" data-name="Layer 1" xmlns="http://www.w3.org/2000/svg" viewBox="0 0 1500 1781.39"><path d="M1498.11,1278.36c-6-10.7-11.33-21.83-17.37-32.54-6.89-12.23-10.67-26.24-20.84-36.59a4,4,0,0,0-.48-1.65c-4.76-9.83-12.26-16.95-21.81-22l2.32,4.51c3.92,5.19,7.8,10.41,11.79,15.54-4-5.13-7.87-10.35-11.79-15.54l-2.32-4.51,0,0c-1.58-1.49-3-3.31-4.77-4.44-12.43-7.77-23-16.87-24.65-32.76-.15-1.37-1.15-2.66-1.8-4-10-19.85-23.2-36.93-42.42-48.86-9.23-5.74-18.17-11.94-27.25-17.93,4,3.51,7.93,7,12.68,11.25-4.75-4.22-8.71-7.74-12.68-11.25l-17.8-17c-12.77-10.69-28.62-15.47-43.31-22.47-9.48-1.82-17.22-7-24.64-12.76-9.88-8-19.35-16.62-29.8-23.8-6.08-4.19-13.72-6.11-20.66-9-10.57-.09-21.17-.63-31.72-.16a111.14,111.14,0,0,1-42.86-6.77,45.7,45.7,0,0,1-20.42-13.93c-8-9.45-15.68-19.1-23.63-28.56-9.38-11.14-18.12-23-28.59-33-9-8.56-15.23-17.4-15.3-30a14,14,0,0,0-1.28-5.28q-11.46-25.92-23.08-51.77h0a77.26,77.26,0,0,0-13-32.67c-1.76-5.11-2.43-11-5.52-15.14-5.47-7.29-7.61-15.67-9.29-24-1.34-6.67-3.2-12.71-7.53-17.74-6-6.93-6.9-14.86-6.16-23.51,1.07-12.63,1.8-25.3,2.68-38l-.9-.61h0l.9.61c.66-3.56,1.86-7.12,1.88-10.68q.27-35.11,0-70.22c0-3.87-1.56-7.73-2.39-11.59v0c-.37-7.92,2.45-16.16-2.47-23.6-1.28-5.6-4.5-11.62-3.38-16.69,1.78-8.07-.54-15.07-1.84-22.47-1.87-10.68-3.71-21.37-5.76-32-1.85-9.59-4-19.12-6-28.68-.23-6.15-.33-12.31-.74-18.45-.32-4.66-.94-9.31-1.6-13.93-.82-5.67-1.9-11.31-2.71-17-.55-3.89-.84-7.81-1.25-11.72h0c-3.07-17.18-5.41-34.51-11.91-50.9a27.72,27.72,0,0,1-2.07-10.63c.25-8.69-2.39-16.49-6-24.12L922,294l-7.45-19.56a14.43,14.43,0,0,1-.64,1.43,14.43,14.43,0,0,0,.64-1.43l-15.18-28.52h0c-2.61-10.85-9.72-19.4-14.84-29q-2.32-4.28-4.63-8.55c-1-1.89-1.71-4-3-5.64Q855.49,176.9,834,151.16l-2.41,2.48,2.41-2.48c-3.36-4.55-6.42-9.36-10.14-13.58-4.48-5.09-9.53-9.67-14.33-14.48L784.92,99c-.37-.09-.76-.18-1.15-.25.39.07.78.16,1.15.25-4.64-4-9.21-8-13.92-11.89-11.91-9.82-23.87-19.58-38.1-26-9-7.68-20-11.27-30.86-15.18-13-7.24-27.24-11.38-41.52-15.27-3.27-1.51-6.45-3.26-9.82-4.48-8.47-3.08-17-5.88-25.53-8.87-3.74-1.31-7.42-2.8-11.12-4.21-.16.09-.33.19-.49.3.16-.11.33-.21.49-.3-10.39-5-20.27-11.54-32.54-11L570.3,0h0C558,1,545.43.75,533.48,3.34c-24.54,5.3-48.68,12.41-73.11,18.24-15.2,3.62-30.63,6.25-46,9.32-9-1.61-16.67,1.76-24.05,6.3L359.77,52.59q-25.33,17.13-50.66,34.27c-16.18,11-32.29,22.12-48.42,33.19-5.89,3.6-11.72,7.31-17.67,10.8C216.82,146.19,203.65,171,195,198.54c-5.35,16.91-8.71,34.45-13,51.71q-2.26,15.3-4.52,30.6.09,4.54.16,9.09c.92-2.86,2-5.67,2.83-8.54-.86,2.87-1.91,5.69-2.83,8.54-1.79,10.78-3.39,21.61-5.12,32.41-.87,5.4-1.76,10.79-2.72,16.17s-2,10.74-3.13,16.08c1.14-5.34,2.17-10.7,3.13-16.08s1.85-10.77,2.72-16.17c1.73-10.8,3.33-21.63,5.12-32.41q-.08-4.54-.16-9.09,2.26-15.3,4.52-30.6c-1.21,2.22-2.77,4.31-3.57,6.67-7.33,21.62-15.15,43.1-21.53,65-3.83,13.16-5.37,27-7.94,40.51l-4.71,17.13q-2,20-4.06,39.93l4.11,17h0l-4.11-17c-.1.6-.19,1.19-.27,1.79q-2.13,20.93-4.27,41.85c-1.55,30.91-3,61.83-4.71,92.73-.53,9.8-1.63,19.57-2.35,29.36-.67,9.06-1.19,18.13-1.78,27.19-3.67,11.24-4.89,22.76-4.77,34.56.25,25.21-.11,50.42.29,75.63.41,25.51,1.42,51,2.19,76.54,0,1.45.26,2.9.39,4.36,1.34,15.23,2,30.55,4.18,45.67,3,20.86,7.1,41.56,10.73,62.33q3.36,12.93,6.73,25.86,2.16,8.89,4.31,17.81c.84-4.45,1.31-7,2.36-8.57-1,1.54-1.52,4.12-2.36,8.57.68,3,1.37,6,2,9h0c1.94,20.1,7.28,39.12,18,56.41l2.29.06c4.59-2.32,9.33-4.39,13.85-6.81-4.52,2.42-9.26,4.49-13.85,6.81h0l-2.29-.06c2.78,10.15,4.54,20.72,8.57,30.34,6.58,15.73,14.61,30.87,22.1,46.22,1.91,3.92,4.4,7.58,6.11,11.58,7.4,17.2,5.09,35,2.68,52.67-.22,12.65-.35,25.3-.7,38-.38,13.71-1,27.41-1.46,41.12q-1.12,6.55-2.24,13.1c-.74,3.84-2.11,7.68-2.07,11.51a25.22,25.22,0,0,1-8.81,20.16c-3.5,3.14-6.39,7.1-10.23,9.69-8.6,5.8-15.2,13.3-20.89,21.78h0L153,1332.48c.29.23.66.55,1,.85-.36-.3-.73-.62-1-.85,0,4.26-.21,8.53,0,12.78.45,10.28-1.38,12.65-11.22,15.41-3.69,1-7.12,3-10.68,4.54C118.51,1372,114,1385,107,1396.2q1.11,2.21,2.24,4.4h0q-1.12-2.19-2.24-4.4c-5.4,7.36-11,14.55-16.09,22.14-3.19,4.79-5.47,10.17-8.16,15.28-4.78,5.93-9.48,11.92-14.37,17.75-3,3.61-6.43,6.93-9.59,10.45-9.16,10.19-16.39,22.38-29.65,28.3-1.26.57-2.19,1.9-3.27,2.87C10.1,1498.76,4,1511.61,0,1527.31l6,1,22,10.76,6.43,2.29c1.38-.42,2.74-1,4.11-1.43.68-.24,1.37-.45,2.06-.63-.69.18-1.38.39-2.06.63-1.37.47-2.73,1-4.11,1.43,8.24,4.13,14.38,12.14,24.3,13.17L76.36,1563a64.49,64.49,0,0,0,26.58,5.23,70.45,70.45,0,0,1,19.22,3.06c14.33,4.1,28.34,9.36,42.75,13.15,9.16,2.41,17.32,6.24,23.5,13.08,8.31,9.19,18.45,15.25,29.51,20.24,26.41,11.9,53,17,81.29,5.63,12.75-5.11,26.75-4.45,39.79-.73,11.89,3.4,22.79,3.93,33.57-2.55,7.61.15,15.22.46,22.83.39a35.73,35.73,0,0,1,24.9,9l.06,0-.05,0,.54,19.13c-11.06,9.8-16.84,24.66-31.13,31.34,4.59,12.18,11.77,20.41,23.21,25.7,16.81,7.76,33.72,13.73,52.62,11.7,2.48-.27,5.1.79,7.6.57,7.84-.7,15.11-3,19.23-10.4,5.3-9.52,13.33-15.81,22-22.19,8.1-6,17.28-7.35,26.09-10.24,13.8-4.52,27.65-9.46,42.6-8.34l4.64,4.14,6.43,4.57c4.45.18,9,.83,13.34.42,5.24-.5,10.4-1.9,15.59-2.91,11.15.61,22.32,1.14,33.47,1.87,10.09.67,20.15,1.57,30.23,2.36l13,2.43,11.08,4.27,4.44,2.12a6.58,6.58,0,0,0,1.75.37q6.66,6.61,13.3,13.25c3.44,3,6.62,6.45,10.38,9,4.79,3.29,10.45,5.38,15,8.92a37.75,37.75,0,0,0,27.58,8l22.06,8.55c8.66,4.19,15.63,9.85,17.44,20-.39,5.36-.64,10.74-1.21,16.09-.46,4.31,1,7.46,5.44,7.58,8.85.24,17.93,2.62,26.47-1.85,32,1.59,63.71,7.1,95.87,4.87,1.07-.08,2.17.37,3.26.33,5-.18,10.06-.44,15.09-.68l2.22.07,11-6.61a12.31,12.31,0,0,0-5,1,12.31,12.31,0,0,1,5-1l8.8-2.36q5.43-13.12,10.84-26.25h0q-5.42,13.13-10.84,26.25l6.5.16,15.57-2.06,67.87-.07c12.21,4.91,24.89,1.93,37.36,2,1.46,0,2.93-2.77,4.39-4.25,4.77-3.77,11.8-6.62,13.8-11.52,3.48-8.55,4.53-18.31,5.39-27.67,1.44-15.72,3.34-31.18,10.69-45.46.8-1.57,1-3.47,1.42-5.21l-2.9-.28h0l2.9.28c14.53-17.26,29-34.58,43.6-51.75,13.28-15.6,25-32.19,33-51.15h0c1.94-2.94,3.82-5.93,5.82-8.83,5.22-7.56,10.5-15.09,15.75-22.63a150.29,150.29,0,0,1,9-20.92,150.29,150.29,0,0,0-9,20.92l13.26-4.13a30.82,30.82,0,0,0,7.22-7.29,30.82,30.82,0,0,1-7.22,7.29c8.23.44,11.58-6.15,16.16-11.09,6.58-7.1,13.32-14,20.06-21,2.49-2.57,5.14-5,7.72-7.48,1.9-2.14,4.47-4,5.56-6.49,3.58-8.27,9.69-14.21,16.55-19.61.63-.34,1.27-.69,1.9-1.05,12.83-7.37,24.76-15.67,30.84-30l17.55-4.4,15.17-2.28c2.89-1.43,6.13-2.43,8.57-4.42s5.81-4.91,6.31-7.84c1.59-9.2,6.46-15.73,13.8-20.87h0c3.41-3.62,7.19-6.94,10.14-10.9,6.49-8.71,11.79-18.43,19-26.43,5.79-6.39,10.43-12.83,12.89-21a23.06,23.06,0,0,1,10.34-13.38,26.54,26.54,0,0,0,9.37-11.44c4.28-9.93,7.44-20.34,11-30.55C1501.16,1285.64,1500.4,1282.43,1498.11,1278.36Z"/></svg>