<svg id="Layer_1" data-name="Layer 1" xmlns="http://www.w3.org/2000/svg" viewBox="0 0 425.2 425.2"><title>R2R Logo</title><path d="M212.6,13.09c110,0,199.5,89.5,199.5,199.51S322.61,412.1,212.6,412.1,13.09,322.61,13.09,212.6,102.59,13.09,212.6,13.09M212.6,0C95.18,0,0,95.18,0,212.6S95.18,425.2,212.6,425.2,425.2,330,425.2,212.6,330,0,212.6,0Z"/><path d="M333.27,158.21a34.27,34.27,0,0,0-8.1-22.15,164.9,164.9,0,0,1-12.42-17.54c-2.7-4.4-4.43-9.38-6.85-14.67,9.46-2.52,15.15-6.88,15.88-15.64.83-10.08-6.8-17.46-18.18-17.53q-26.66-.15-53.31,0c-3.5,0-5.73-.78-8.06-3.81-14.17-18.44-45.72-18.08-59.47.6a6.75,6.75,0,0,1-6.25,3.19q-26.65-.14-53.31,0a34.68,34.68,0,0,0-7.61.78A15.9,15.9,0,0,0,103.33,86.1a16.1,16.1,0,0,0,10.48,16c1.53.59,3.09,1.14,5,1.85-1.29,3.14-2.08,6.19-3.67,8.74-5.79,9.25-12.32,18.08-17.61,27.59-2.89,5.18-5.41,11.41-5.44,17.18-.37,55.19-.3,110.38-.07,165.57.1,24.08,14.08,48.27,46.35,48.48q76.37.51,152.75.33a37.11,37.11,0,0,0,17.12-4.37c15.76-8.69,24.34-23.26,24.59-40.65C333.66,270.63,333.29,214.41,333.27,158.21ZM230.69,70.15H195.16C201.2,62.28,220.28,60.65,230.69,70.15Zm-117,16.68c.09-4.24,3.32-5.58,7.11-5.74,1,0,2,0,3.08,0q88.59,0,177.19,0c1.87,0,4.12-.41,5.52.45,1.93,1.19,4.55,3.49,4.46,5.17-.12,2.08-2.42,4.45-4.37,5.85-1.28.92-3.63.44-5.5.44q-44.55,0-89.11,0H125.05c-1.37,0-2.74,0-4.1,0C116.94,92.82,113.63,91.36,113.73,86.83ZM323,318.89c0,8.34-1.27,16.31-5.05,23.81-6.32,12.56-16.15,19.42-30.56,19.29-20.85-.19-41.69-.14-62.54-.27-28.19-.17-56.39-1-84.57-.45-27.35.52-38.1-19.4-38.14-39.07-.08-54.67-.17-109.35.08-164,0-4.3,1.92-9,4.15-12.81,5.77-9.84,12.43-19.17,18.29-29,2.24-3.75,3.28-8.21,5.07-12.87h166.1c2.47,16.77,14.25,28.49,23,42,2.52,3.9,3.74,9.23,3.89,13.95.5,15.54.26,31.1.26,46.64C323,243.71,323,281.3,323,318.89Z"/><path d="M305.58,236.39a5,5,0,0,0-5,5v4.49c0,19.11-.13,38.23,0,57.34.13,13.18-3.06,25.31-10.32,36.32-2,3-3,6.14.46,8.53,3.87,2.69,6.7.18,8.2-3.12,3.7-8.17,8.66-16.27,10-24.89,2.18-13.72.9-64.73,1.62-78.67A5,5,0,0,0,305.58,236.39Z"/></svg>