<svg id="Layer_1" data-name="Layer 1" xmlns="http://www.w3.org/2000/svg" viewBox="0 0 425.2 425.2"><title>Logo Mouseover</title><path d="M212.6,13.09c110,0,199.5,89.5,199.5,199.51S322.61,412.1,212.6,412.1,13.09,322.61,13.09,212.6,102.59,13.09,212.6,13.09M212.6,0C95.18,0,0,95.18,0,212.6S95.18,425.2,212.6,425.2,425.2,330,425.2,212.6,330,0,212.6,0Z"/><path d="M333.27,158.21a34.27,34.27,0,0,0-8.1-22.15,164.9,164.9,0,0,1-12.42-17.54c-2.7-4.4-4.43-9.38-6.85-14.67,9.46-2.52,15.15-6.88,15.88-15.64.83-10.08-6.8-17.46-18.18-17.53q-26.66-.15-53.31,0c-3.5,0-5.73-.78-8.06-3.81-14.17-18.44-45.72-18.08-59.47.6a6.75,6.75,0,0,1-6.25,3.19q-26.65-.14-53.31,0a34.68,34.68,0,0,0-7.61.78A15.9,15.9,0,0,0,103.33,86.1a16.1,16.1,0,0,0,10.48,16c1.53.59,3.09,1.14,5,1.85-1.29,3.14-2.08,6.19-3.67,8.74-5.79,9.25-12.32,18.08-17.61,27.59-2.89,5.18-5.41,11.41-5.44,17.18-.37,55.19-.3,110.38-.07,165.57.1,24.08,14.08,48.27,46.35,48.48q76.37.51,152.75.33a37.11,37.11,0,0,0,17.12-4.37c15.76-8.69,24.34-23.26,24.59-40.65C333.66,270.63,333.29,214.41,333.27,158.21ZM230.69,70.15H195.16C201.2,62.28,220.28,60.65,230.69,70.15Zm-117,16.68c.09-4.24,3.32-5.58,7.11-5.74,1,0,2,0,3.08,0q88.59,0,177.19,0c1.87,0,4.12-.41,5.52.45,1.93,1.19,4.55,3.49,4.46,5.17-.12,2.08-2.42,4.45-4.37,5.85-1.28.92-3.63.44-5.5.44q-44.55,0-89.11,0H125.05c-1.37,0-2.74,0-4.1,0C116.94,92.82,113.63,91.36,113.73,86.83ZM309,320.08c-1.37,8.62-6.33,16.72-10,24.89-1.5,3.3-4.33,5.81-8.2,3.12-3.45-2.39-2.45-5.52-.46-8.53,7.26-11,10.45-23.14,10.32-36.32-.17-19.11,0-38.23,0-57.34v-4.49a5,5,0,1,1,10,0C309.87,255.35,311.15,306.36,309,320.08Zm14-122h0a10.27,10.27,0,0,1-10.23,9.44H112.36a10.26,10.26,0,0,1-10.26-10.27c0-.28,0-.57,0-.85q0-19.1.12-38.18c0-4.3,1.92-9,4.15-12.81,5.77-9.84,12.43-19.17,18.29-29,2.24-3.75,3.28-8.21,5.07-12.87h166.1c2.47,16.77,14.25,28.49,23,42,2.52,3.9,3.74,9.23,3.89,13.95.4,12.33.33,24.67.28,37,0,.23,0,.47,0,.71S323,197.76,323,198Z"/><path d="M212.6,13.09c110,0,199.5,89.5,199.5,199.51S322.61,412.1,212.6,412.1,13.09,322.61,13.09,212.6,102.59,13.09,212.6,13.09M212.6,0C95.18,0,0,95.18,0,212.6S95.18,425.2,212.6,425.2,425.2,330,425.2,212.6,330,0,212.6,0Z"/></svg>