<svg id="Layer_1" data-name="Layer 1" xmlns="http://www.w3.org/2000/svg" viewBox="0 0 1500 3811.27"><path d="M0,3811.27a29,29,0,0,0,1.34-4.57q4.13-31.9,8.14-63.83c1.38-10.79,2.77-21.57,4.11-32.06,9.16-9.61,15.82-20.56,23.72-31-.61-5.08-1.74-10.42-.83-15.81s2-10.69,3-16c1-2.77,4.16-4,4.79-7.06a3.14,3.14,0,0,0-2.33-2.65c-4.49-1.72-8.92-3.56-13.38-5.34a32.34,32.34,0,0,1-10.68-6.5c1.22-5.55,5.11-9,9.11-12,5.73-4.23,10.28-9.62,15.54-14.29a16.24,16.24,0,0,0,4.93-9.16c.81-4,2.69-7.93,1.51-12l5.72-4.5c1.56-3.44,3-6.92,5.9-9.71,2.48-2.41,4.37-5.44,6.5-8.18-.16-5,1.35-9.66.31-15.21-.68-3-4.68-5.58-3.78-10.08,1-2,2-4,3.09-6.29,4.25-1.12,6.73-5.19,11.09-7.25a29.65,29.65,0,0,0,1-4.37c.83-9.23,1.5-18.47,2.37-27.69.89-9.55,1.92-19.09,2.92-28.63q2.1-20,4.22-40.07c1.15-10.82,2.33-21.63,3.46-32.44.83-8,1.57-15.94,2.4-23.9,1.32-12.73,2.57-25.47,4.1-38.17.49-4.07,3-8.19,2.47-12-.63-4.93.35-9.55.7-14.25.9-12.12,2.39-24.2,3.66-36.29.7-6.68,1.46-13.34,2.16-20,2-18.77,4.18-37.53,5.72-56.33.55-6.69,2.34-13.16,2.46-19.92s1.14-13.39,1.84-20.08c2-19.11,4-38.22,6.09-57.31.31-2.84,1.26-5.6,2.11-9.22-1.57-6.93,1.41-14.4,1.27-22.38,2.93-4.7,4-10.45,7.24-15.34,1.89-2.84,1.63-6.68,3-10,7.84-18.58,15.34-37.31,23.06-55.94a53.25,53.25,0,0,0,3.83-15.76c1.37-15,3.14-29.91,4.72-44.87.77-7.32,1.48-14.66,2.21-22,2.14-21.67,4.18-43.36,6.44-65,2.15-20.7,4.62-41.37,6.79-62.07,1.67-15.92,3.05-31.88,4.65-47.81.84-8.28,1.89-16.54,2.78-24.81.41-3.81.66-7.63,1-11.28a54.37,54.37,0,0,1-4-5.65,12.23,12.23,0,0,0-4.56-4.79c-1.88-1.13-4.54-.4-6.15-2.55a3.15,3.15,0,0,1,1-4.17c2.23-1.73,4.66-3.21,7.31-5-2.47-7.67-.7-15,2.67-22.07a23,23,0,0,0,1.91-7.39c1.11-9.52,2.35-19,3.6-28.95-2.86-6.37-.87-13.64-2.42-20.45-1-1.34-1.9-2.6-2.77-3.81.13-2.81,2-4.76,2.94-7.12,1-2.69,3.41-4.65,3.91-7.65.43-2.54,1.26-5,3.75-6.43,2.93-.67,5.86,3.62,8.86,0,2.13-2,1-4.83,1.62-7.37l3.09-3.5c-2.07-3.87-2.88-7.73.07-11.58,1.64-2.14,1.8-4.74,2.06-7.29.35-3.51.7-7,1-10.25-.37-3.25-2.62-5.33-3.76-8.14l-7.55-6.46c3.67-8.41,4-17.57,4.88-27,1.2-3.5,5.24-6.18,4.77-11.25-.74-1.26-1.69-2.9-2.8-4.81.56-1,.94-2.33,1.81-3.11,2.36-2.09,5.54-3.19,7.21-5.76,1.42-3.44-.9-6.58-.11-9.18.95-3.68,4.41-4.1,6.17-6.48,1.32-1.77,4.41-2.23,6.93-3.38,2-3.65,2-7.9,2.43-12,1.11-10.82,1.87-21.67,2.78-32.51.23-2.87.36-5.75.72-8.6q3.33-26.21,5-52.56c.36-5.75,1.06-11.47,1.63-17.21,1.64-16.56,3.3-33.13,4.94-49.61l-2.33-4.51c0-2.36.35-5-.1-7.41-.4-2.19-1.35-4.26-.75-6.56.3-2.06,2.16-3,3.33-4.37-.44-4.32-4.14-3.49-6.51-4.59-2-3-1.22-10,2.13-19.75l5.15-2.75,7-42c.21-4.63-2.89-4.61-3.39-6.66-.15-2.21-.29-4.42-.43-6.36-1.51-2.82-4.49-4.13-5.63-8.22-.28-1.26.39-3.25,2.63-5.13l4.26.51c2.13-.76,2.34-2.9,3.31-4.49,4.32-2.29,9.84-2.57,13-7.53-1.33-3.8-5.38-6.86-3.36-11,.7-4.09,6.11-2.86,6.52-6.31.3-4-3.79-4.49-4.67-6.91a5.83,5.83,0,0,1,.37-4.88c1.35-2.57,4.32-2.5,6.33-4,.32-4.42-5.18-7.68-2.65-12.29,2-2.76,5.48-2.31,7.67-4.19.21-2.67-2.77-3.39-3.21-5.83-.7-4.88,4.41-6.25,6.28-9,.7-3.59-2.47-3.94-3.48-5.86a8.61,8.61,0,0,1,.29-6.34c1.4-2.12,4.7-.64,5.64-3.33.93-2.34-2.19-2.85-2.25-4.79-1.18-2.91,2.06-5.18,1-8.32-1-3,4.27-5.11,1.83-8.72l2.63-8.66c-3-4.4-7.47-8.34-8.46-14.28a86,86,0,0,1-.76-16.17c-.23-2.46-2.16-3.91-3.4-5.73-.15-2.31-.3-4.53-.42-6.35-1.05-3-3.61-4.1-5.4-6.56-.29-1.72-.65-3.89-1.15-6.86,1.68-3.92,4.43-8.56,1.32-13.6.78-3.08,3.12-4.92,4.74-7.36.28-1.46.59-3,.91-4.67l3.91-3.74c1.56-18.6,3.11-37,4.67-55.48-1.14-3-5.72-1.35-6.74-5-.26-7.88,4-13.49,9.83-17.5,1.31-2.68-.11-4.26-.92-5.93a14,14,0,0,1-1.05-10.07c2.41-3.63,6.89-3.66,9-5.64,3-2.63,3.26-5.7,5-8.86q7.25-5.43,16.18-12.09a33.81,33.81,0,0,1,15.24-18,15,15,0,0,0,6.54-6.84,28.26,28.26,0,0,1,13.9-14.16c-.81-1.76-1.45-3.16-2.09-4.57,1.32-2.12,3.73-4.25,3.73-6.37,0-3,2.65-4.43,2.89-6.64.57-5.2,3.94-8.64,6.65-12.53,1.45-2.09,3.17-4,4.53-5.71,1-1.86.78-3.43.3-5.25.95-2.11,2.3-4.31,2.91-6.71a41,41,0,0,0,.74-7.63c1.29-19.49,2.66-39,3.78-58.47.49-8.64,1.15-17.21,3.51-26.08a74.5,74.5,0,0,1,.05-21.45c.81-5.68.46-11.52.86-17.27.9-13.07,1.95-26.14,3-39.69-.69-1.58-1.57-3.62-2.43-5.58,3.83-12.38,6.27-24.95,10.06-37.19,2-6.3,1.94-13.28,2.37-20,1.35-21.1,2.49-42.2,3.7-63.3.71-12.48,1.46-25,2.06-37.43.5-10.24.5-20.5,1.73-30.71a75.5,75.5,0,0,0,.05-8.79c-2.83-1.89-5.75-3.85-7-7.76a7.67,7.67,0,0,1,.58-2.38c6.44-10.86,9.73-22.85,12.57-35a24.58,24.58,0,0,0-.51-14.17c-1.4-3.89-2.27-8-3.39-12.05-1.77-2.88-5.53-4.48-5.82-9.14,2.36-2.65,5.34-5.61,4.78-9.17,4.23-3.53,8.57-1.13,12.5-3.42,2.86-12.39,2.33-25.49,3.61-38.39,1.26-12.7,1.74-25.47,2.51-37.42-1.92-3.21-4.91-.9-6.38-2.71-1.62-1.58-1.85-3.45-1.71-5.79,1.11-3.39,5.33-5.16,6.21-10.62V1157c1.06-1.71,2.07-3.33,3.23-5.18-.24-1.68-.52-3.55-.77-5.27.15-2.34,3.22-2.42,3.13-4.14.85-3.26-2.07-5.13-1.59-7.9.2-2.19,3.14-2.06,3.64-4.06,1.25-3-1-5.49-1.63-7.84,1.42-2.37,4.66-1.74,5.14-3.88,1-4-3.29-4.94-3.6-8.29.18-.51.24-1.65.83-2.2a14,14,0,0,1,3.27-1.8,4.37,4.37,0,0,0,2.4-4l-3.88-2.21a3.75,3.75,0,0,1-.3-3.67c.64-2.84,4.64-2.48,5-5.51-.7-1.81-3.41-1.81-3.67-4.22-.05-2.83,4.29-2.64,4.25-5.35.13-2.4-1.63-3.67-2.21-4.71-.37-3.52,2.45-4.15,3.69-6.13a11.32,11.32,0,0,0,1.08-6.42c-1.76-2.14-4.56-3.44-6-6.65a5.33,5.33,0,0,1,.48-5.1c1.84-1.91,4.8-1.34,8.21-3.64,1.84-1.75,4.13-5.57,9.15-5.92l2.66,1.29c2.36,2.48,1.14,5.36,2.81,9.15,1.17,2.47,5.57,5.26,4.91,8.91-1,4-3.63,4.45-5.46,6.69l-1.88,4.85c.28,3.69,4.27,3.88,4.3,6.76-.34,3.13-5.1,3.26-4.48,6.83.23,2.86,4,2.08,4.51,4.56.77,3.6-4.43,3.65-4.1,7,.19,2.67,3.46,2.59,4.7,5.66-.64,3.15.25,7.18.58,11.37l-3.54,5.43c.68,2.35,1.3,4.47,2,6.87-.86,2.58-1.75,5.29-2.73,8.24l2.12,4.47c1.38,3.76-3.16,6.15-1.25,9.47,2.86.59,3.36-2.75,5.75-3,1.76-.16,4,.48,5.15-1.7.69-2.17-1.44-3.4-1.76-5.23-.58-3.44,2.7-6.65.57-9.71.19-2.39,2.64-2.21,3.26-4.27-.19-.81-.47-2-.73-3.1,1.29-5.65,7.43-6.86,10.29-11.66-.42-3.72-.88-7.76-1.37-12.09.76-3.79,2.34-7.66,2.24-11.56l5.46-3.76c-.77-11.71,1.63-23.42,1.28-35.1-2.84-2.18-6.87-1.3-8.45-4.74a8.44,8.44,0,0,1-.27-6.29c1.18-2.75,4.27-3.09,6.07-5.75-1.3-4.8,1.05-9.48,2.73-14.35-1.32-3.35-2.59-6.6-3.78-9.61-.73-6.26,2.18-10,7.49-11.85.58-3.49-3.12-6.06-1.07-9.88L491.8,985c.75-3.17-3.21-4.78-2.64-7.8-.08-2.07,2-2.4,2.84-3.93.38-2.79-2.6-5.1-1.36-8.54l3-3.41-2.91-6.17c-.27-3.07,2.41-3.29,3.41-5.15-.64-1.92-1.33-4-2.14-6.46,2.44-4.9,3.23-10,.46-15.34-1.17-2.26-.8-5-.3-7.63s4.1-2.76,4.42-5.91c.27-2.67,2.43-4.4,5.8-4.82,4.11,1.34,6.7,5.11,10,8.11,1.17,6.35,2.33,12.6,3.45,18.68-1.57,3.39-5.29,5.49-4.63,9.71l3.32,7.23c.66,3.05-1.63,4.6-1.9,6.86,1.06,2.87,4,5.23,2.23,9.76l-2,1.64c.07,3.07,3.39,3.81,4.16,6.05.68,3.28-2.54,4.42-3.54,7.48,1.48,2.78,3.5,5.93,3.16,9.2,2.57.86,2.81-.44,2.73-1.16-.26-2.52-.79-5-1.3-8,.8-1.6,1.8-3.57,3.08-6.12,0-12.5-.23-25.65,4.35-38.24,1.47-3.61,5.24-5.36,7.22-8.16,1-3.25-1.81-5.05-1.83-8.58a48.53,48.53,0,0,0,3.1-11.34c2.73-1.61,4.82,1.27,7.55-.77,3-4.3-1.35-7.56-2.9-10.8-1.08-8.51.9-16.53-1-24.53,1.39-1.78,2.74-3.51,4-5.18l-2.59-4.5c-1.33-5.59,4.82-6.25,5.29-10.29.56-2.88-2.51-4.21-3.18-7.33,7.32-10.17,9.25-22.88,13.29-34.86-.77-2.54-1.51-5-1.93-6.37-.41-4.44,1.82-7.09,2.56-9.93-1.17-3-2.22-5.62-3.39-8.58.94-3.49,1.92-7.11,2.79-10.3a5.17,5.17,0,0,1,5.81,0c1.05-1.08.88.42.86-.85,0-2.51-1.76-4.92-.16-8.17,3.2-2.61,6.83-5.5,11.94-6.13a11.67,11.67,0,0,0,6.76-3.08,6.36,6.36,0,0,0,.71-1.87c0-14.74,0-29.48,0-44.94l-2.83-4c-1.49-5,1-9.42,1.82-14.29A80.24,80.24,0,0,1,589.78,684c1.18-6.88,1.57-39.9.55-48.26l-5.37-3c-1.06-8.88-.85-18.36.51-25,1.89-2.72,5.48-1.66,8.2-4,1.8-3.74.67-8.3.86-12.69.21-4.8.14-9.61.16-14.42,0-4.46.55-8.93-.25-13.33l-5.08-3c.07-1.07-.17-2.16.25-2.86,1.86-3.09,3.31-6.22,2.3-10-.57-2.48-3.39-3.9-3.27-6.14.11-3.07,2.25-4.42,3.05-6a25.79,25.79,0,0,0-1-14.12c.29-3.72,3.62-4.89,5-8.17-.52-14,2.87-28.39,2.63-42.61,2.08-1.88,4.05-1.38,5.92-1.39h4.56c1.71,3.18.11,6.11.75,8.85s-.87,4.93-1.36,7.38a50.34,50.34,0,0,0,.09,19c.69,3.76,1.52,7.5,2.31,11.32.68,1.33,2.42,2.1,2.2,5.6-.53,2.69-2.24,7-.31,11.45,3.65-4.23,4-5.3,5-15.23.39-.69,1-1.78,1.63-2.89s1.16-2.26,1.91-3.74c-1.43-4.46-1.11-9.23-.93-13.95,5.8-5.32,3.31-12.76,5.34-19.62l3.11-5.22c.38-6.72-1-13.72,3.86-19,.17-7.55-.48-14.74,4.19-20.62-.51-3.18-1-6-1.47-9.26.5-2.09,1.1-4.57,1.61-6.73-.47-4-4.75-5.67-4.91-9.79.26-2,.84-4.08,3.26-5.11s3.27-2.93,3.47-6.2l-10.94-21c.68-4.91,4.33-7.62,5.83-11.17.61-2.79-1.41-5.33-.4-8.39l6.45-5.22c2.59-8.3,6.32-15.92,4.8-24.72.77-1.35,1.49-2.78,2.37-4.1.32-.48,1-.7,1.7-1.14,2.55.53,1,4.32,3.56,4.84,2.2.78,3.61-.45,5.3-2.4,2.16-7.76,5.55-15.81,4.55-24.75a8.78,8.78,0,0,1,.89-3.65c.2-.54.82-.93,1.22-1.36,4,.14,2.38,5,5.77,6.24.91.32,1.82-.68,3.09-1.62,1.38-4.8.53-9.91.55-15.26l-3.62-4.41c3.2-4.84,4.24-10.59,5.46-16.12,1.17-5.35,4.52-9.88,5.11-14.45-.13-3.28-2.36-4.5-3.29-5.94.79-2.63,2.56-3.48,4.15-4.51,2,.24,3.29,1.62,4.87,3.26-3.35,7.06-5.15,14.34,1,21.15,2.24.61,3.51-.81,5.07-2.7,1.33-4.06-.05-9.36,3.84-13.14-.93-2.64-1.78-5-2.6-7.32.34-3.28,4.16-4.09,4.85-7.15.37-9.5.49-19,.11-27.86-3.09-3.34-7.54-2.64-9.29-5.72-.83-2,.09-3.45.46-5s.5-3.15.75-4.81a44.12,44.12,0,0,0,7.41-22.25c.28-5.26,2.31-9.94,3.25-14.95.89-4.76,1.68-9.32.84-14.24a34.49,34.49,0,0,1,.27-13.27c3.28-2.45,6.56-2.36,10.08-1.08,2.35,5.29.13,11,1.92,16.08a3.78,3.78,0,0,0,4.58-2.9c1.25-6.57,5.23-12.46,4.46-19,1.33-2.38,2.41-4.32,3.24-5.79.51-10.79,1-21,1.44-31.25,0-.58-.45-1.17-.88-2.2l-2.34-1.51a5.56,5.56,0,0,0-4.17.84,10.79,10.79,0,0,1-2.43.71c-3.39-1.7-3.67-4.55-3.37-7.5.32-3.17.9-6.32,1.48-10.29l3.64-4c.71-3,.28-5.41-1.31-7.07-2.19-1.85-4.08-.37-5.88-.54-1.49-.13-2.9-1.06-4-1.5-3,.58-2.11,3.29-4.13,5.25-2.85,1.73-6.47,1-10.08-.5-1.66-.88-1.72-2.77-2.45-3.65-3.26-2.87-8.1-1.32-10.91-5.58-.21-5.34-1.7-11.35.85-16.19,2.68-3.05,5.52-2.18,7.9-2.85,2.24-1.27,3.58-3.76,5.79-4.26,4.28-1.19,7.35.29,10,2.87,1.84,1.77,3.52,3.7,6,4.68,2.2.87,4.27,1.21,6.39-.39,1.87-5.79.49-12.22,3.35-17.43,2.16-1.92,4.6-1,6.69-1.65,2.17-.41,2.55-2.74,4.48-4.08L737,0c3.19.79,3.87,1.52,6.79,6.88l6.06,2.19a10.56,10.56,0,0,1,1,2.93c0,4.16-.19,8.31-.35,12.47-.08,1.92-.25,3.84,1.14,5.49,2.61,1.69,4.82.63,7.15-1.25l4.51.61c1.9.05,2.25-2.17,2.81-2.34a16.32,16.32,0,0,1,11.55.12L781,31.64c3.52,1.1,7.62,1,10.8,4.68.09,4.86.94,10.21-.19,16-4.07,1.86-8.24,3-12.91,2.54l-4.48,3.76A23.32,23.32,0,0,1,765,55.92c-2.25-1.66-1.29-4.31-3.73-5.39a17,17,0,0,1-7.48-.46c-2.13,2.24-2.07,4.77-1.91,7.21.64,2.16,3.62,1.75,4.14,4.1-.33,5.5.89,11.31-2.52,17-3.47-1.07-6.52-3.72-10.23-1.55a5.19,5.19,0,0,0-1.88,4.95c1.22,11.12,1.65,22.36,5.38,33.09,1.14,3.3,1.76,6.78,2.84,10.1,1,3,4.19,4.73,4.78,8.17.47,2.78,1.72,5.43,2.58,8,2.93.38,2.93.38,5.29-1.09,2.54-3.56.46-8.31,2.91-11.84,5.22-1.13,5.22-1.13,10.52.08-.18,4.76-3.48,8.78-3.76,14.25,1.4,15.53,4.54,31.48,8.32,47.84l4,2.39a27.51,27.51,0,0,1-.61,11c-2.23,2.92-5.47,1.22-7.42,3.06-.36.54-1,1-1,1.57-.14,2.54-.65,5.22-.06,7.61,1.41,5.66,1.64,11.4,1.79,17.09l3.38,8.46c.6,3-1.59,4.66-1.73,7,1.21,5.85,5,10.59,7,15.9a3.23,3.23,0,0,0,4-2.38c1.32-3.83,2.38-7.76,3.53-11.6,1.94-.82,3,.47,4.55,1.95,1,4.48.56,9.65,2.4,14.51.77,2,.91,4.31,2,6.33,2.55,4.88,2.72,10,2.66,15.52-.07,5.88.28,12.11,3.75,16.86,2.84,1.64,3.68-1.6,6.07-1.21l2.5,2.81c-.92,6.93,1.83,13.56,2.84,20.65l4.05,5.82c3.95.31,2.95-4.29,5.93-4.78q1,3.09,2,6.24c-2.66,8.95,1.72,16.92,3.15,25.12l5.09,5.34c1.36,6.59,2.51,13.55,6.47,19.4A80,80,0,0,1,834.46,403a21.82,21.82,0,0,0-3,3.71,3.16,3.16,0,0,0,.22,3.63c2.75-1.12,4.55-4.86,8.37-3.08,2,.74,2.5,2.78,3.66,4.26s2.59,2.74,4.26,4.47c.15,1.49.34,3.37.54,5.44l-4,5.52c2.25,5.23-1.51,10.53.63,17.43,3.53,4.08,3,10.6,3,17.48,4.1,5.85,3.27,13.08,3.94,20.58,2.77,4.3,3.85,9.6,3.88,15.11a35.2,35.2,0,0,0,2.14,11.22c2.15,6.33,3.55,12.92,5.3,19.39a28,28,0,0,0,1.29,3c2.29-4.88.2-10.15,3.29-14-.6-1.92-1.08-3.43-1.59-5,.39-2.75.79-5.58,1.2-8.42.06-2.1-1.42-3.59-2.21-5.74V485.59l5.92-3.1,5.81,3.7a5.4,5.4,0,0,1,.45,1.85c-1.45,9.57,0,19.09.61,28.6.16,2.29-.64,4.4-.32,6.84q3.25,5.47,6.81,11.48c-.31,6.6-.73,13.34,2.19,19.57l-3,6.15c-.83,4.42,1,7.28,1.68,10.06.32,3.1-1.94,4.94-2.77,7.72a167,167,0,0,0,.64,18.81c.74,6.32.84,12.71,1.19,18.61,2.74,3.08,6.65,1.66,9.43,4.1,1.54,1.49,1.65,3.63,1.21,5.95-1.21,6.28-2.35,12.57-3.61,19.37l-3,4c-1.27,15.63,1.89,30.85,1.83,46.22,4.5,5.22,8.88,10.29,13.17,15.28a32,32,0,0,1-1.46,14.4,14.68,14.68,0,0,0-.92,4.66,239.74,239.74,0,0,0,1.57,34.51c.36,2.85.64,5.71,1,9,.87,1.26,1.94,2.83,2.45,3.56,2.83,2.36,6,1,7.68,3,1.31,2.38.38,4.62.46,7.22,1,2.26,2.14,4.85,3.56,8.07,2.33-3,.47-5.94,1.77-8.75a9,9,0,0,1,1.49-1.87c6.07-4.74,11.81-3.33,16.68.22,2.45,3.15-.36,5.81,1.35,8.38l5.33,1.16c.76,3-.2,6.54,2.71,8.22-.78,6.41-4.88,10.07-8.58,13.63.28,3.82,4.76,2.29,5.4,5.28.26,2.84-2.84,3.9-4,7.13a44,44,0,0,0,.47,15.41c3.2,2.23,5.76-.33,8.77,1.13A44.16,44.16,0,0,0,952,855.69c-.05,5.18-4,7.29-5.61,11V871c2,2.82,5.08.9,7,2.19,2.27,1.56.6,3.75,1.25,5.48s2.52,3,2.38,3.87c-.2,6.49-6.61,9.54-4.82,15.55,1.68,2.84,5.53.55,8.25,3.69.9,2.62,1.07,6.55,2.93,9.15,0,4.91-3.51,7.45-4.7,11a8.8,8.8,0,0,0,2.15,5.64l5.57,1.74c.51,3.93,1.2,8,3.24,11.67-2.1,6.43-6.19,13.24,3.08,16.94,1.42,3.64,0,7.7,3.22,9.68-.32,3.76-.58,6.91-.9,10.65l-3.33,4.92c.13,2.68,1.73,4.23,3.31,5.58,1.58,1.19,3.19-1.12,4.65.45,1.39,1.84,1.11,4.14,1.45,6.34a35.93,35.93,0,0,0,1.85,5.69c-1.26,2.66-2.61,5.52-4.07,8.64.76,2.31,1.51,4.73,2.38,7.11.18.48.77.82,1.46,1.5l4.88-4.76c1.48-2.63-1.39-3.85-.87-5.39-.34-2.73,2.16-3.44,2.74-5.44-.69-1.23-1.45-2.55-2.18-3.83-.19-3.11,2.34-5.25,2.68-8-.27-2.73-3.6-2.66-4.23-4.78-.2-3.22,2.86-4.15,4.3-6.88-1.5-1.78-4.77-2.77-4.47-6.13a13.72,13.72,0,0,1,4.52-5.76c.83-2.74-3.39-4-2.2-6.85-1.72-2.23-5.08-.78-6.93-3.22-1.77-3.1.61-5.09,2.34-7.37s3.26-4.71,4-5.79c1.27-3.46.37-5.28,0-7.15a6.59,6.59,0,0,1,2.76-4.14,7.26,7.26,0,0,1,2.39.56c2.9,1.77,3.31,5.4,5.42,7.59,2.32,1.59,4.91,1.7,7.48,1.87.9,2,1.67,3.74,2.41,5.39-.87,3.4-3.73,5.29-5.5,8.13.11,1.8.22,3.67.33,5.57l4.39,2.29c.08.86.51,1.91.2,2.67-.81,2-1.93,4-2.84,5.77.87,2.52,3.77.92,4.74,2.82,1.74,3.08-1.38,5.37-1.34,8.07.53,1.54,2.12,1.27,3.16,2.1,2,4.09-1.1,7.2-2.34,10.65.92,2.11,3.67.72,4.73,2.61.37,3.11-3.35,4.62-3.11,8,.27,2.3,3,1.52,4.48,3,1.51,2.88-1.74,5.13-1.5,7.77,0,2.69,2.68,2.61,3.19,3.34,2.67,4.87.37,9.57,2.27,13.71-2.09,4.13.21,7.37,2.23,10.72.5,3.34-1.29,7.09,1.43,9.86,1.64,2.62,5.12,1.62,7.32,5.26,1.17,2.1.11,4.85-2.49,7.61l-6.34-.68c-.39.73-.88,1.24-.93,1.8a87.45,87.45,0,0,0,.62,20.93c1.52,10.09,1.57,20.42,1.94,30.66.27,7.38.57,14.72,2,22,.24,1.24.35,2.52,1.49,3.39,3.89-3.5,1.78-8.53,3.23-12.65,1.38-3.91-2.3-8.29,1.49-11.79l-3.16-5.15c-.82-2.12,1-3.58,1.43-5.89l-2-5c.5-3.52,3.78-6.82,1.21-11.2l-4.57-4.9c-1.22-3.67-1.32-7.17,1.08-9.48,2.65-2.54,2.56-5.7,3.33-8.39,1.91-2.59,4.33-3,6.87-2.87,3,1.63,2.34,5.3,4.83,7.74l7.27,4.11a5.16,5.16,0,0,1,.59,5l-4.24,4.65c.32,2.17.68,4.62,1,7l5,2.76c1.57,3.72-3,4.89-2.73,8,1.19,1.67,4.43,1.25,4.59,3.64.29,3.37-3,4.6-3,7.35.85,2.21,4.19,1.71,4.64,4,.69,2.86-1.71,4.21-2.4,6.22-.1,2.49,2.94,2.32,3.5,4.27,1,4.08-4.16,6.46-2.89,10.77,1.08,1.53,3.72.42,4.78,2.42.5,3-3.17,5-2,7.79.31,3.11,4.28,2.08,4.53,4.88.21,2.57-2.65,4.29-2.12,7,.27,2.54,3.21,1.79,4.46,3.81-.53,2.09-1.13,4.48-1.5,6,.06,3.19,2.31,3.9,3.4,6-.2,1.48-.44,3.34-.68,5.16,1,4.07,4.53,6,7.08,8.34,1,3.35,1.14,6.09-2.21,8.38h-4.74c-1.91,1.83-1.77,3.8-1.65,5.7,1,15.33,2,30.66,2.94,46,.27,4.47.13,9,.44,13.44.33,4.79.65,9.66,5.13,13.56,3.14,1.64,7.93.37,11.56,4.36l2.34,9.2c-1,3.06-3.8,4.49-5.62,7.34-.77,1.31-.55,3.26-.5,5.22l-4.08,6.58c1.2,5.64,1.73,11.24,3.81,16.69,1.65,4.34,1.44,9.34,3.56,13.68.19,8.28,3.63,15.4,8.15,21.87-2.23,3.49-2.23,3.49-6.56,5.49a12.85,12.85,0,0,0-.68,2.6c-.46,9.63,1.06,19.15,1.57,28.73.71,13.44,2.07,26.83,2.1,40.31,0,4.45,1,8.89,1.5,13.33.16,1.27.5,2.53.56,3.8.87,19.82,4.07,39.48,4.16,59.36,0,6.77,2.16,13.33,4.28,19.61a122,122,0,0,1,4.73,21.48c.38,2.53.89,5,1.5,8.43-1.76,3.71-2,8.51-1.53,13.3.71,8-.08,16,2,23.89a10.52,10.52,0,0,1,.27,2.86c-.26,10.92,1.41,21.72,2.12,32.58.81,12.43,2,24.85,3,37.28.25,3.19.33,6.4.33,9.6a112.54,112.54,0,0,0,1,11.46c.84,8.28,1.12,16.61,1.57,24.92.11,1.91,0,3.82,0,4.06,1.4,5.9,5.28,8.39,7,12.77-.35,1.36-.8,3.16-1.24,4.89.41.59.65,1.33,1.15,1.6,2.23,1.22,4.53,2.31,6.94,3.53,2.56,3.55,5.17,7.18,7.91,11q-.11,2.1-.24,4.71c1.81,4,6.78,4.31,9.51,7.53a51.72,51.72,0,0,1,6.91,9.76c.32,2.45-1.93,3.83-1,6.48,7,2.29,11.58,7.94,15.23,14.5.7,1.92-1.68,3.54-.14,6.18,6,3.19,11.57,7.82,14.46,15-.39,1.49-.79,3-1.18,4.48,1.69,3.24,5.63,3,9.19,6.8l5.81,7.88v6c2,3.16,5.73,2.14,6.55,3.11,3.25,3.38,4.47,5.94,5.09,8.63,0,3.36-3.87,4.48-3.88,8.16l9.26,15.18c-1.56,4.37-6.28,6-8.84,9.91,2.34,12.75,1.95,26,5.53,38.77,12.79,11,20.36,26,29.88,39.79-.49,6.35-6,11.39-5.71,18.08l-6.78,7.59c-7.28,1.47-12.12,5.37-11.52,13.41-2,3.29-4.3,6-5.56,10.4a49.83,49.83,0,0,1-.06,6.75,60,60,0,0,1-1.81,7.31l6.93,9c-1.71,3.29-5.5,5-5,9.36l4.43.37c1.28,2.19.49,4.42.37,6.74l-2.46,3.73c-.09,3.17,3,4,4.33,6.68,1.27,3,1,6.44-.59,9.84l4.47,2.28c.44.73,1,1.52,1.4,2.36,1.77,3.56-.94,7.25.77,11.18,1.42,3.28.4,7.55.89,11.32.4,3.12-2.72,5.17-2.08,8.05,1,2.64,3.32,1.37,4.9,1.64.78,1.44,1.38,2.55,1.71,3.14.6,3.66-2.19,5.82-2.24,8,.61,3.16,3,4.07,4.4,5.91,1.18,3.14,1.27,6.81,3.69,9.64,2.08,2.42,4,5,5.8,7.37-.16,1.5-.31,2.75-.42,3.81,1.74,2.41,4.53.44,6.88,2.52,3,4,2,8.9-1.07,12.68-2.6,3.22-2.94,7-4.51,9.72,1.88,16.17,5.85,31.31,8.77,45.65,1.63,3,4.12,3.38,6.26,5.35.11,5.17,2.34,10.73.4,16.13-1.24,2-3,1.51-4.5,1.82-1.29.26-2.44.77-3.61,3a100,100,0,0,0,.76,19.88c1.84,14.9,3.78,29.8,7.81,44.33a54,54,0,0,1,1.69,20c-1,9.92-.37,19.86-.55,29.79-.07,4,1.75,7.43,2.6,11.15-1.15,13.17,2.64,26,2.79,39,1.4,1.9,2.71,3.69,3.72,5.08,1.09,3-1.42,4.55-1.57,7.92,1.75,5.31.77,12.24,3.3,18.65,3.61,2.66,8.91,2.22,11.52,6.32,1.67,3.29-2,6.17.3,11.17,1.3,2.77,6,4.62,9.29,7.41.62,3-1.86,4.41-2.22,8.34v4.68c1.39,2.22,3.79,1,5.45,2.4.88,1.72-.46,3.38-.81,5.12a26.45,26.45,0,0,1-1.33,4.08c-.93,4.4.66,7,1,10.27a27.47,27.47,0,0,1-8.28,13.33c1.45,3.11,1.35,6.16-.58,8.51,1.77,9.33-.35,18.76,5.46,26.51-.54,2.15-1,4-1.45,5.82a7.78,7.78,0,0,0,2.26,5c3.46,1.73,7,.58,10.34.6,5,3.11,1.07,8.68,4.36,13.34l2.95,2.38c.75,3.15,1.56,6.53,2.19,9.13-1,4.13-4.49,4.3-6.3,5.93a79.76,79.76,0,0,0,5.47,29.87,27.63,27.63,0,0,0,5.42,8.2c.64,2.56,1.34,5.34,2.05,8.16l6.82,7.6c.47,3.61,3,7,4.56,10.42a13.48,13.48,0,0,1-1,8.57c-2.65,2.36-5,.34-7.63-.09-.18.87-.72,1.88-.47,2.6.75,2.07,1.82,4,2.76,6-.62,5.66-5.13,8.6-9,12.45a53.13,53.13,0,0,0,0,5.49c.91,9.24,1.94,18.46,2.87,27.69.87,8.6,1.64,17.22,2.51,25.82,1.8,17.83,3.69,35.65,5.45,53.48,1,9.55,1.66,19.13,2.59,28.69s2,19.09,3,28.64c.8,8,1.48,15.93,2.2,23.9,1.51,16.58,3,33.16,4.53,49.73,1.15,12.12,2.55,24.21,3.68,36.32a25.47,25.47,0,0,0,2.49,8.22q12.45,27.57,25,55.13c3.43,7.58,6.89,15.15,10.32,22.74a74.05,74.05,0,0,1,5.38,15.44l-3.23,4c.14,3.11.16,6.62.49,10.1,1.07,11.45,1.43,23,2.87,34.36s2.33,22.9,3.89,34.31c1,7.6,1.6,15.28,2.35,22.93,1.28,13.07,3.05,26.11,3.67,39.21.81,17,3.84,33.71,4.77,50.67.31,5.71,2.07,11.34,2.78,17,1.24,9.81,2.47,19.7,2.15,29.67-.14,4.17.5,8.27.88,12.41.91,9.85,2.39,19.67,2.54,29.6a105.36,105.36,0,0,0,1.14,11.46c.91,7.31,2.08,14.59,2.75,21.92.26,2.77-.55,5.65-.93,8.94,4.1,9.88,3.67,20.95,5.13,31.7,1.28,9.5,2,19.08,3,28.63q1.63,15.75,3.31,31.52c.9,8.58,1.81,17.17,2.7,25.62,3.54,3.76,8.21,5.37,12.11,8.13,2.7,1.91,5.19,3.79,5.5,8.07-.51,2.17-1.16,5-1.8,7.66-1.68,2.49-3.28,4.87-4.76,7.05-.25,2.82,1.63,4.35,2.88,6.13,5.52,7.86,11.06,15.72,16.75,23.47,2.58,3.51,4,7.2,3.27,11.26a47.6,47.6,0,0,0,15.77,18.08c5.7,4.07,10.65,9.18,16.2,14.07.95,1.31-.25,2.75-.67,4.77.72,2,1.59,4.32,2.55,6.91-8.11,3.85-17.31,1.26-25,4.3-1.61,1.72-1.71,3.24-1,4.8.83,1.74,1.84,3.39,2.63,5.14,1,2.09,1.58,4.55.74,6.56-3.2,7.54-1.66,14.94,0,22.4.21.93.32,1.88.42,2.48,3.75,6.36,7.33,12.41,10.28,17.42,2.63,2.71,5.23,1.44,8,3.06,2.75,2.29,3.61,7.25,7.47,9.41.35,2,1,3.63.82,5.13-.94,6.53.85,12.78,2,19a100.18,100.18,0,0,1,1.87,15.2,19.48,19.48,0,0,0,.29,3.83c3.64,14.69,2.93,29.89,5.37,44.72.46,2.82.34,5.76,1.91,8.32Z"/></svg>