<svg id="Layer_1" data-name="Layer 1" xmlns="http://www.w3.org/2000/svg" viewBox="0 0 1500 1601.52"><defs><style>.cls-1{fill:#151515;}.cls-2{fill:#4b4b4b;}.cls-3{fill:#464646;}.cls-4{fill:#818181;}.cls-5{fill:#494949;}.cls-6{fill:#444;}.cls-7{fill:#5c5c5c;}.cls-8{fill:#888;}.cls-9{fill:#737373;}.cls-10{fill:#454545;}.cls-11{fill:#939393;}.cls-12{fill:#b7b7b7;}.cls-13{fill:#e5e5e5;}.cls-14{fill:#565656;}.cls-15{fill:#525252;}.cls-16{fill:#afafaf;}.cls-17{fill:#7c7c7c;}.cls-18{fill:#8f8f8f;}.cls-19{fill:#505050;}.cls-20{fill:#484848;}.cls-21{fill:#3f3f3f;}.cls-22{fill:#8a8a8a;}.cls-23{fill:#303030;}.cls-24{fill:#2c2c2c;}.cls-25{fill:#747474;}.cls-26{fill:#3e3e3e;}.cls-27{fill:#858585;}.cls-28{fill:#7d7d7d;}.cls-29{fill:#b8b8b8;}.cls-30{fill:#242424;}.cls-31{fill:#7a7a7a;}.cls-32{fill:#9f9f9f;}.cls-33{fill:#848484;}.cls-34{fill:#727272;}.cls-35{fill:#828282;}.cls-36{fill:#797979;}.cls-37{fill:#333;}.cls-38{fill:#1c1c1c;}.cls-39{fill:gray;}.cls-40{fill:#2b2b2b;}.cls-41{fill:#787878;}.cls-42{fill:#777;}.cls-43{fill:#282828;}.cls-44{fill:#b2b2b2;}.cls-45{fill:#929292;}.cls-46{fill:#8e8e8e;}.cls-47{fill:#4e4e4e;}.cls-48{fill:#1d1d1d;}.cls-49{fill:#c9c9c9;}.cls-50{fill:#c1c1c1;}.cls-51{fill:#2f2f2f;}.cls-52{fill:#6a6a6a;}.cls-53{fill:#cdcdcd;}.cls-54{fill:#aaa;}.cls-55{fill:#b6b6b6;}.cls-56{fill:#acacac;}.cls-57{fill:#949494;}.cls-58{fill:#575757;}.cls-59{fill:#868686;}.cls-60{fill:#313131;}.cls-61{fill:#f3f3f3;}.cls-62{fill:#7b7b7b;}.cls-63{fill:#adadad;}.cls-64{fill:#e4e4e4;}.cls-65{fill:#bababa;}.cls-66{fill:#c6c6c6;}.cls-67{fill:#363636;}.cls-68{fill:#6f6f6f;}.cls-69{fill:#656565;}.cls-70{fill:#212121;}.cls-71{fill:#6c6c6c;}.cls-72{fill:#6e6e6e;}.cls-73{fill:#5f5f5f;}.cls-74{fill:#4a4a4a;}.cls-75{fill:#5a5a5a;}.cls-76{fill:#373737;}.cls-77{fill:#383838;}.cls-78{fill:#414141;}.cls-79{fill:#919191;}.cls-80{fill:#d7d7d7;}.cls-81{fill:#b4b4b4;}.cls-82{fill:#202020;}.cls-83{fill:#646464;}.cls-84{fill:#6d6d6d;}.cls-85{fill:#a2a2a2;}.cls-86{fill:#9e9e9e;}.cls-87{fill:#535353;}</style></defs><path class="cls-1" d="M178.13,821.79l-1.3-.89-6.31-3.19c.66-2.37.6-5.55,2.14-7a80.3,80.3,0,0,1,12.78-9.3c6.89-4.19,14-8,22.71-12.83-5.25-2.52-8.59-4.21-12-5.76-12.81-5.83-14.19-5.48-23,5.57-11.77,14.79-11.88,15.06-29,8.09-6.52-2.64-12-4.7-15.65,3.45-10.75-3.67-21.53-7.27-32.25-11C89,786.39,81.77,783.64,74.55,781c-1.82-5.49.39-8.37,5.89-9.07,3.12-.4,6.24-.73,9.36-1.09l23.82-2.76c.17-.65.34-1.3.52-2-6.53-5.47-15.1-9.79-10.11-22.69-4.87,2.73-7.19,3.84-9.3,5.24q-18.95,12.55-37.8,25.23L46.5,771.07c-2.29-2.08-4.27-4.78-6.93-6.09-6.18-3.05-13.62-4.29-15.89-12.23-1.59-5.57-3-11.21-4.26-16.87-.63-2.79-2.17-6.44-1-8.39C25.17,715.78,31.1,703,40.24,693.36c11.1-11.73,25.05-20.77,42.58-21.19,3.11-.08,6.17-1.38,9.29-1.72,6.11-.66,7.1-3.54,5-9-2.74-7-6.53-4.37-10.85-2-2.16,1.18-4.78,1.55-7.19,2.29-.5-2.51-1.47-5-1.42-7.54a73,73,0,0,1,11.67-38.87c9.61-15,10.49-15.89,24.38-4.12.15.13.14.44.4,1.35l-9.15,7.63c10.32-1.33,19.73-4.29,29.21-7,11-3.17,16.36-12.09,13.89-23.43-1.92-8.77-3.76-17.56-5.84-26.29-1.1-4.63.37-7.63,4.12-10.6,9.11-7.24,19.88-9.55,30.83-12.09,22-5.1,44-10,61.14-26.76,2.63-2.56,8.43-3.06,12.56-2.63,5.7.6,11.14,3.39,16.83,4.52,7.21,1.44,8.79,5.76,7.78,12.22-1,6.22-1.84,12.46-2.45,18.73-.58,6,1.28,7.35,6.57,4.85,5.69-2.7,11.06-6.11,16.78-8.73,7.42-3.4,14.82-7.75,22.66-9,7.14-1.19,14.86,1.24,22.34,1.84,2.13.18,4.32-.44,6.45-.68a12.51,12.51,0,0,0-.23-2.55,7.68,7.68,0,0,0-1.32-2.56c-8.29-8.58-5.89-17.3.28-25.43,1.72-2.27,6-4.21,8.75-3.79,6.91,1,13.65,3.37,20.38,5.43,7.32,2.24,7.58,3.2,3.33,9.36-5.1,7.38-12.3,14.1-14.82,22.27-4.31,14-5.47,29-8.45,43.41-.81,3.88-2.62,8.2-5.37,10.91-6.72,6.63-14.25,12.44-21.46,18.58l1.28,1.76L453,542.91a12.26,12.26,0,0,1-1.41,7.26c-3.08,6.33-6.52,12.51-9.27,19-.89,2.09-1.11,5.7.11,7.26,6.84,8.8,14.69,16.14,27.2,15.33,3.21-.21,6.52,1,9.78,1.52l.53,2.6c-23.32,7-38.62,23.33-52.46,42.79l21.85,12.61c-13.57,3.7-9.49,14.07-8.46,21.44,1.44,10.23,12.48,11.93,20.12,18.2L475.41,652c13.59,5.94,14.37,8.21,7.62,19.32-4.66,7.67-9.5,15.24-13.92,23.06-3.89,6.9-9.15,11.49-17,13.74a173,173,0,0,0-21.77,8.27c-4.21,1.85-8,4.68-11.94,7.07l.91,1.89c7.72-1.76,15.59-3,23.11-5.45a58.94,58.94,0,0,0,14.7-7.44c18.35-12.44,30.39-30.24,41.4-49,3.71-6.31,4.81-12.09,2.88-19.25-5.23-19.47-5-19.54,12.74-28.94,8.51-4.51,8.69-4.62,3.47-13.4-2.95-5-2.64-8.62,1.67-12.77,6.44-6.22,12.43-12.94,18.25-19.75a15.88,15.88,0,0,0,3.25-7.75c.88-6.22.86-12.58,1.81-18.79a14.07,14.07,0,0,1,3.68-7.4c3.6-3.56,7.92-6.39,11.82-9.66,4.06-3.4,6.56-2.12,8,2.46,1.84,5.78,4,11.51,5.29,17.41,1.8,8,5.75,12.83,14.55,13.37,5.28.33,10.48,1.95,15.7,3.07,8.39,1.8,8.92,3.36,4.1,10.37-6.45,9.39-12.62,19-19.16,28.3-3.84,5.46-2.19,7.93,3.75,9.69,8.19,2.44,16.21,5.48,23.71,8l15.09-7.28c-.72-1.65-1-3.47-2.11-4.59-4.45-4.7-4.55-9.43-1.84-15.22,7.28-15.6,14.1-31.42,21.09-47.15,1.13-2.56,2.17-5.17,3.37-8-2.12-.84-3.4-1.63-4.76-1.85-5.51-.87-11-1.74-16.56-2.29-12.89-1.3-13.22-2-6-12.92,2.83-4.27,5.52-8.63,8.27-13-19.16,6.2-33.54,18.84-48.74,30.67,2.14-11.28.22-23,7.55-32.28-4.09.34-8.88,1-13.68,1.09-12.94.23-12.52.12-13.09-12.55-.42-9.56.54-20.48-3.71-28.31-10.23-18.89-12.09-37.34-4.73-57.14.58-1.58.7-3.35,1.35-4.9.53-1.29,1.25-2.92,2.35-3.5,9.13-4.83,18.36-9.44,29-14.85.28,5.55,1,9.36.56,13-.76,7.05,2.26,10.7,8.81,12.82,8.54,2.76,16.94,6,25.2,9.53,2.39,1,5.3,3.4,5.87,5.68,2.77,11.06,9.55,19.36,16.79,27.67,3.4,3.9,6.19,4.47,10.62,2.31,6.54-3.19,13.54-5.47,20-8.85,10-5.25,19.63-11.1,29.42-16.7l3-2.84L736,404.53c-1.5-4.39-2.45-7.18-3.51-10.26L729,396.32l-2.91,1.5c0-2.72-.94-6.09.3-8.07C735,376,740.42,361,743.87,345.3c.72-3.25,1.4-6.91.64-10-3.49-14.13-7.5-28.14-11.32-42.19-1-3.65-2.58-6-7.18-5-4.82,1.09-6-2.25-5.65-6.1.59-7.23,1.4-14.46,2.25-21.67.41-3.46,1.1-6.88,1.68-10.4,1.66.27,2.47.2,3.05.53,4.47,2.6,9.1,7.67,13.28,7.31,4.85-.42,9.31-5.56,13.92-8.68a30.29,30.29,0,0,1,3.53-2.55c3.25-1.58,6.59-3,11.85-5.29-3.52,12.72-6.31,23-9.21,33.2-1.35,4.76-.34,6.94,5.18,6.09,4.4-.68,8.92-.57,14.12-.85,0,3.66.07,6.06,0,8.45-.47,14.29-.81,28.59-1.57,42.86a32.49,32.49,0,0,1-2.75,11.2c-10.77,24.38-19.77,49.08-16.07,76.48a1.24,1.24,0,0,1,0,.72c-1.92,3-3.18,7.16-5.93,8.83-7.66,4.64-16,8.12-24,12.32-4.17,2.21-7.42,2.1-9.69-2.36-2.47-4.83-5.63-4.84-10.13-2.47-11.6,6.12-23.69,11.35-35,17.87-6,3.45-10.84,8.86-16.64,13.76,1.85,1,2.08,1.24,2.26,1.21,9.09-1.53,18.17-3.1,27.26-4.62,7.52-1.26,9.29,0,9.16,7.71-.2,11.86-.79,23.72-1.21,35.58q-.21,54.4-.33,108.81c0,3.1.94,6.19,1.44,9.29l1.2,17.61-1.43.71q-6.88-8.68-13.79-17.36c.31-6.32-4.11-9.77-9-10.54-4.47-.7-9.09,1.56-11.17,6.91-6.63,17.07-14.09,33.84-20.05,51.13-3.83,11.09-5.58,22.9-8.25,34.39L629.56,737a29.79,29.79,0,0,0-1.14,4.93c-2,36.51-5.24,73-5.52,109.53-.41,52.35-2.33,104.76,2.47,157.08,1.81,19.75,1.3,39.74,3.47,59.44,1.32,12,5.73,23.69,9.18,37.16,2.83-3.23,4.33-4.72,5.59-6.4q12.07-16,24-32c6.11-8.18,6.35-8.59,14.88-2.78,13.23,9,25.79,19,39.13,27.83,8.11,5.38,17.16,9.35,27.16,14.68.2-4.46.63-6.83.35-9.11-1-8.42-2.56-16.78-3.37-25.21a107.47,107.47,0,0,1-.07-16.64c.26-4.2,2.22-6.31,7.25-5.35,11.19,2.13,22.56,3.28,33.74,5.49,5.31,1,8.3-.7,10.67-5,11.18-20.42,22.24-40.91,33.69-61.19C837,979,838.66,967.6,839.84,956c1.33-5.88,2.82-11.74,3.92-17.66.75-4.07,2.28-5.78,6.85-5,8.58,1.44,17.29,2.11,25.92,3.29,4.2.57,6.87-.64,8.51-4.8,3.21-8.11,7.27-15.9,10.07-24.14,2.7-8,7.07-12.85,15.86-12.79.09,6-.09,12,.32,18,.77,11.43,1.87,22.84,2.84,34.25,2,18.52,3.53,37-1.46,55.35-2.78,2.64-5.73,5.13-8.29,8-1.86,2.07-4.38,4.5-4.56,6.93a100,100,0,0,0,.23,21c2.06,14.78,2.87,28.65-14.06,35.82-.42.17-.71.65-1.06,1l-29.18,21.83c-4.39,2.81-10.24,4.62-12.93,8.58-15.39,22.69-33.43,44.21-36.62,73-5.87,9.43-12.46,18.5-17.45,28.37-7.42,14.68-17.46,23.85-34.94,24.75-5.47.28-12.46,5-15.51,9.74-4.14,6.46-8.57,9.89-15.81,12.06-4.68,1.41-9,5.85-12.18,10-5.94,7.78-10.89,16.3-16.26,24.51-16.18,5-22.7,2.94-33-9.79-7-8.66-14.49-16.93-21.71-25.41-17.07-20.09-34.61-39.8-51-60.46-8.2-10.35-14.79-22.12-21-33.81-6.58-12.3-11.89-25.28-17.76-38-5.05-8.28-10.29-16.44-15.09-24.86s-9.93-16.52-13.22-25.41c-3.37-9.08-9.24-13.69-18.17-15.49h0c-6.33-4.37-12.25-9.57-19.07-13-26.22-13-46.88-33.43-69.13-51.66-11.75-9.62-22.45-20.54-33.49-31q-12.9-12.24-25.48-24.82c-10.94-10.89-21.58-22.09-32.71-32.79-3.31-3.18-3.53-5.41-1.44-9.32,3.61-6.76,9.78-7.2,16.09-7.86,5.77-.61,11.73-.58,15.43-6.37,10.73-16.81,25.09-27.28,45.9-28.4,9.22-.5,10.27-2.62,8-11.28-2.89-11.22-1.6-21,6.7-29.48a17.43,17.43,0,0,0,3.81-5.28c.76-1.86,1.55-4.73.66-6-3.83-5.68-8.27-10.95-13.1-17.16-3,4.19-5,7.17-7.21,10-2.95,3.79-5.4,8.47-9.23,11-11.72,7.74-24,14.6-36.05,21.89-4.95,3-7.44,1.67-8.5-3.93-1-5.26-2.53-10.42-4.31-17.57L315.9,827.31c-2.84-12.53-5.18-22.87-7.83-34.59-1.89,2.54-2.84,3.6-3.55,4.81-10.45,18-21.46,35.74-25.52,56.71-.6,3.11-4.1,5.65-6.26,8.46l-9.93-4.77c-6.89-8-6.83-9.09.3-16.87,3.09-3.38,6.57-6.64,8.74-10.58s2.71-8.4,4-12.65l-2.6-1.08c-1.75,2.43-3.58,4.82-5.25,7.31-3.35,5-6.11,10.57-10.13,15-2.06,2.25-6.29,2.81-9.66,3.34-.73.12-3-3.22-2.85-4.85.51-7.65-3.71-9-10-8.46-3.37.31-6.77.2-10.12.64-9.92,1.3-19.53,1.62-29.07-2.88C190.63,824.19,184.18,823.4,178.13,821.79Zm563.71,355.75-4.33-5.93c-.39-3.11-1-6.22-1.13-9.34-.44-10.41-3.38-19.43-10.68-27.54-9.18-10.19-18.09-20.83-22.76-34.19-1.91-5.47-3.82-11.15-7-15.89-1.83-2.74-6.07-4.1-9.49-5.39-1-.39-3.88,1.31-4.25,2.54-4.81,16-14.55,30.66-10.18,48.84,3.9,16.22,2.4,34.1,16,47,1.42,2,2.88,3.87,4.24,5.86,11,16.14,11,16.15,29.65,11,2.09-.58,4.1-1.7,6.22-1.91C737.3,1191.63,740.24,1185.24,741.84,1177.54ZM459,731.69c-12.38,15.1-25.64,27.2-23.27,49.13,8.08-6.86,15.31-13,22.48-19.16a2.92,2.92,0,0,0,.76-2C459,751.06,459,742.46,459,731.69Zm-228-21.2.67,1.51c7.21-2.59,14.25-6,21.68-7.56,10.42-2.13,14.5-9.89,17.87-18.13.75-1.83-2.58-5.65-4.63-8-.36-.41-4.94,1.31-5.53,2.84-3.42,8.88-10.4,14.25-17.64,19.56C239.15,703.79,235.11,707.21,231,710.49Zm253.53,35.38c1.1-1.42,2.1-2.93,3.3-4.25,5-5.44,9.67-11.16,15.06-16.13,4.06-3.75,9-6.62,13.6-9.69,3.48-2.31,4.32-5,2.07-8.57-2.64-4.19-5.27-1.93-7.85,0-4.68,3.46-9,7.61-14,10.37C485.26,723.83,485,734.69,484.51,745.87ZM429.42,874.58c-.85-11.51-1.53-20.62-2.21-29.73a91.53,91.53,0,0,0-4.92,23.1C422.17,869.62,426.09,871.6,429.42,874.58Z"/><path class="cls-2" d="M695.67,507.22c.42-11.86,1-23.72,1.21-35.58.13-7.68-1.64-9-9.16-7.71-9.09,1.52-18.17,3.09-27.26,4.62-.18,0-.41-.21-2.26-1.21,5.8-4.9,10.65-10.31,16.64-13.76,11.35-6.52,23.44-11.75,35-17.87,4.5-2.37,7.66-2.36,10.13,2.47,2.27,4.46,5.52,4.57,9.69,2.36,7.94-4.2,16.3-7.68,24-12.32,2.75-1.67,4-5.81,5.93-8.83a1.24,1.24,0,0,0,0-.72c-3.7-27.4,5.3-52.1,16.07-76.48a32.49,32.49,0,0,0,2.75-11.2c.76-14.27,1.1-28.57,1.57-42.86.08-2.39,0-4.79,0-8.45-5.2.28-9.72.17-14.12.85-5.52.85-6.53-1.33-5.18-6.09,2.9-10.22,5.69-20.48,9.21-33.2-5.26,2.32-8.6,3.71-11.85,5.29a30.29,30.29,0,0,0-3.53,2.55c-4.61,3.12-9.07,8.26-13.92,8.68-4.18.36-8.81-4.71-13.28-7.31-.58-.33-1.39-.26-3.05-.53-.58,3.52-1.27,6.94-1.68,10.4-.85,7.21-1.66,14.44-2.25,21.67-.32,3.85.83,7.19,5.65,6.1,4.6-1,6.19,1.35,7.18,5,3.82,14.05,7.83,28.06,11.32,42.19.76,3.11.08,6.77-.64,10C740.42,361,735,376,726.39,389.75c-1.24,2-.26,5.35-.3,8.07-9.53,5.26-19.23,10.23-28.54,15.85-12.74,7.69-23.74-.58-35.61-2.7a14.8,14.8,0,0,1,6.2-4.19c18.34-6.23,37-11.83,49.43-28.4.83-1.11,2.44-1.61,3.45-2.62,7.65-7.72,18.13-13.9,15.22-27.47l4.23-6.06,3.63-4.62h-7l-2.29-8-14.69,9.91c2.35-11.74,6.34-22.29,9.74-33,.87-2.77-.14-6.14-.29-9.23-2.89,1-6.46,1.28-8.56,3.18-10.42,9.39-20.31,19.37-30.71,28.77-2.49,2.25-6.12,3.61-9.45,4.45-6.05,1.53-12.68,1.39-18.35,3.7-11.64,4.75-23,10.37-34.13,16.15-13.78,7.12-21.46,18.7-23.21,34.15-4.74,4.85.35,3.86,2.68,4.51,2.23,11.28,6.11,20.79,19.88,22.08,1.91.18,4.76,4.85,4.8,7.49.12,6.53,2.91,8.49,9,8.2,6.84-.32,13.7-.07,21.78-.07-2.66,5.55-4.39,9.16-6.93,14.44l47.86-14.47c-9.79,5.6-19.45,11.45-29.42,16.7-6.42,3.38-13.42,5.66-20,8.85-4.43,2.16-7.22,1.59-10.62-2.31-7.24-8.31-14-16.61-16.79-27.67-.57-2.28-3.48-4.66-5.87-5.68-8.26-3.52-16.66-6.77-25.2-9.53-6.55-2.12-9.57-5.77-8.81-12.82.4-3.68-.28-7.49-.56-13-10.64,5.41-19.87,10-29,14.85-1.1.58-1.82,2.21-2.35,3.5-.65,1.55-.77,3.32-1.35,4.9-7.36,19.8-5.5,38.25,4.73,57.14,4.25,7.83,3.29,18.75,3.71,28.31.57,12.67.15,12.78,13.09,12.55,4.8-.09,9.59-.75,13.68-1.09-7.33,9.26-5.41,21-7.55,32.28,15.2-11.83,29.58-24.47,48.74-30.67-2.75,4.32-5.44,8.68-8.27,13-7.23,10.95-6.9,11.62,6,12.92,5.54.55,11,1.42,16.56,2.29,1.36.22,2.64,1,4.76,1.85-1.2,2.87-2.24,5.48-3.37,8-7,15.73-13.81,31.55-21.09,47.15-2.71,5.79-2.61,10.52,1.84,15.22,1.07,1.12,1.39,2.94,2.11,4.59l-15.09,7.28c-7.5-2.57-15.52-5.61-23.71-8-5.94-1.76-7.59-4.23-3.75-9.69,6.54-9.33,12.71-18.91,19.16-28.3,4.82-7,4.29-8.57-4.1-10.37-5.22-1.12-10.42-2.74-15.7-3.07-8.8-.54-12.75-5.34-14.55-13.37-1.33-5.9-3.45-11.63-5.29-17.41-1.47-4.58-4-5.86-8-2.46-3.9,3.27-8.22,6.1-11.82,9.66a14.07,14.07,0,0,0-3.68,7.4c-1,6.21-.93,12.57-1.81,18.79a15.88,15.88,0,0,1-3.25,7.75c-5.82,6.81-11.81,13.53-18.25,19.75-4.31,4.15-4.62,7.81-1.67,12.77,5.22,8.78,5,8.89-3.47,13.4-17.72,9.4-18,9.47-12.74,28.94,1.93,7.16.83,12.94-2.88,19.25-11,18.77-23.05,36.57-41.4,49a58.94,58.94,0,0,1-14.7,7.44c-7.52,2.4-15.39,3.69-23.11,5.45l-.91-1.89c4-2.39,7.73-5.22,11.94-7.07a173,173,0,0,1,21.77-8.27c7.81-2.25,13.07-6.84,17-13.74,4.42-7.82,9.26-15.39,13.92-23.06,6.75-11.11,6-13.38-7.62-19.32L461,690.9c-7.64-6.27-18.68-8-20.12-18.2-1-7.37-5.11-17.74,8.46-21.44l-21.85-12.61c13.84-19.46,29.14-35.77,52.46-42.79l-.53-2.6c-3.26-.55-6.57-1.73-9.78-1.52-12.51.81-20.36-6.53-27.2-15.33-1.22-1.56-1-5.17-.11-7.26,2.75-6.47,6.19-12.65,9.27-19a12.26,12.26,0,0,0,1.41-7.26L330.15,612.49l-1.28-1.76c7.21-6.14,14.74-12,21.46-18.58,2.75-2.71,4.56-7,5.37-10.91,3-14.45,4.14-29.4,8.45-43.41,2.52-8.17,9.72-14.89,14.82-22.27,4.25-6.16,4-7.12-3.33-9.36-6.73-2.06-13.47-4.39-20.38-5.43-2.74-.42-7,1.52-8.75,3.79-6.17,8.13-8.57,16.85-.28,25.43a7.68,7.68,0,0,1,1.32,2.56,12.51,12.51,0,0,1,.23,2.55c-2.13.24-4.32.86-6.45.68-7.48-.6-15.2-3-22.34-1.84-7.84,1.3-15.24,5.65-22.66,9-5.72,2.62-11.09,6-16.78,8.73-5.29,2.5-7.15,1.1-6.57-4.85.61-6.27,1.48-12.51,2.45-18.73,1-6.46-.57-10.78-7.78-12.22-5.69-1.13-11.13-3.92-16.83-4.52-4.13-.43-9.93.07-12.56,2.63-17.11,16.73-39.17,21.66-61.14,26.76-11,2.54-21.72,4.85-30.83,12.09-3.75,3-5.22,6-4.12,10.6,2.08,8.73,3.92,17.52,5.84,26.29,2.47,11.34-2.91,20.26-13.89,23.43-9.48,2.74-18.89,5.7-29.21,7l9.15-7.63c-.26-.91-.25-1.22-.4-1.35-13.89-11.77-14.77-10.93-24.38,4.12a73,73,0,0,0-11.67,38.87c0,2.5.92,5,1.42,7.54,2.41-.74,5-1.11,7.19-2.29,4.32-2.37,8.11-5,10.85,2,2.14,5.42,1.15,8.3-5,9-3.12.34-6.18,1.64-9.29,1.72-17.53.42-31.48,9.46-42.58,21.19C31.1,703,25.17,715.78,18.39,727.49c-1.14,2,.4,5.6,1,8.39,1.29,5.66,2.67,11.3,4.26,16.87,2.27,7.94,9.71,9.18,15.89,12.23,2.66,1.31,4.64,4,6.93,6.08l-5.45-1.74c-7.49-4.43-14.74-9.34-22.51-13.18-14.11-7-18.72-22.48-10.23-36,8.06-12.88,14.29-26.39,14-42.07l17.13-35.5L40.81,641l21.9-21.84c17.59-8.52,20-12.09,17.8-25.92l7.12-8.9,22-20.27h0c1.93.21,3.86.35,5.77.65,11.42,1.83,11.94,1.35,17-9.33,1.46-3.11,3.83-6.48,6.7-8.11,16.43-9.36,33.24-18,49.69-27.35,8.4-4.75,16.33-10.34,24.47-15.55l8.66-5.91,5.63-3.12c1.44-.14,2.87-.4,4.31-.42,12.5-.18,25.36-9,37.43,1.56.46.4,1.4.29,2.12.34,8.68.52,17.36,1,26,1.56,19.21,1.34,36.28-7.28,54.29-11.52l4.16-.2c13.55,1.49,23.66-4.71,32.19-14.42l4.33-1.54,45.29-10,17.31-6.14,51.1.15h0L532.51,477c1.43-7.07,2.42-12,3.42-16.94,1.24-6.2.89-12-3.78-16.92-.32-1.48-.65-3-1-4.44a63.87,63.87,0,0,0,.92-7.73c0-10.63-8.39-16-14.57-22.8l-2.67-1.7,0,.07c0-3.39-.07-6.78-.1-10.16-.25-4.82-.7-9.65-.68-14.47,0-6.89-4.77-14.87,4.27-20,.67-.38.59-2.24.71-3.43.53-5.29,1.25-10.58,1.45-15.88.16-4.34,2-5.1,6-4.63a83.19,83.19,0,0,0,16.47.31c11.46-1,22.88-2.49,36.26-4-4.71,7.2-8.36,12.8-12,18.39l-1.46,1.46q-8.1,8.54-16.21,17.05a53.39,53.39,0,0,0,15.77.36c15-1.34,30-2.1,42.9-11.57,6.42-4.7,14-7.78,20.75-12.07,24.56-15.61,52-26.73,70.31-51.63,10-13.62,20.88-25.6,21.14-43.8.21-14.58,5.13-28,13.91-39.83,3-4.09,5.51-8.58,8.19-12.91,6.12-9.9,6.2-10.1,16.41-5.22,2.18,1.05,4.06,3.79,5,6.17,1.32,3.44,1.63,7.27,2.8,13.07,23.19-28.3,45-54.87,66.76-81.44-5.76-5.55-10.58-6-16.35-3-6.13,3.17-12.64,5.6-19,8.36a8.24,8.24,0,0,1,3.24-5.2c12.13-10,24.2-20.18,36.49-30,4.84-3.87,9.81-8,15.42-10.41a124.49,124.49,0,0,1,23.77-6.78,87.16,87.16,0,0,1,21.38-2c10.7.57,21.33,2.48,33.45,4-14.54-14-32.17-12.83-48.34-13.9-16.35-1.09-32.94,1.41-51.74,2.47,9.42-6.29,17-11.49,24.71-16.41,2.6-1.66,5.66-3.68,8.51-3.67,17.38,0,35-2.79,51.88,4.15,2.67,1.1,5.67,1.37,8.52,2a11.66,11.66,0,0,0-5.26-5.61c-9.31-5.22-18.72-10.25-28-15.58-1.91-1.1-4.31-3-4.67-4.85-.91-4.82,15.87-25.95,20.72-26.82A6.66,6.66,0,0,1,910.45,9c16.19,2.32,32.68,1.4,48.41,8.32,20.95,9.21,19.7,4.94,12.85,26.32-2.33,7.28-1.69,13.19,2.85,19.7C982,74,989.94,84.62,992.74,97.81c.51,2.4,1,4.81,1.54,7.21.41,6.65,2.71,11.12,10.62,10.38,2.81-.26,5.73,1,8.62,1.19,4.49.32,6.21,2.82,5.17,6.82-4.35,16.64-8.78,33.25-13.59,49.75-.54,1.84-3.78,4.22-5.66,4.13-16.26-.78-31.87-2.79-46.1-12.77-19.23-13.5-40.51-15.23-62.67-6.28-15.89,6.42-31.23,13-41.36,28.06-3.76,5.58-9.15,10.06-14.65,15.95-1.84-6.18-3.21-10.77-4.57-15.35-2.64,5.43-3.58,10.67-5,15.76-3.63,12.72-3.74,26.45-11.56,38-5.43,8-9.77,16.8-15.25,24.78-4.7,6.84-5.15,13.37-2.85,21.23a27,27,0,0,1-.51,15.32c-7.76,22.95-16.36,45.62-24.37,68.5-4.79,13.7-4.56,13.8,8.35,20.2,4.49,2.22,9,5.91,14.16,2,11.67-8.82,24.34-7.63,37.41-4.55,4.71,1.12,9.58,1.53,14.33,2.49a72.61,72.61,0,0,1,7.43,2.37c-3.14,8.31-6.74,14.39-16.11,14.21-5.55-.11-11.12.5-16.68.78-2.73-.76-5.48-1.46-8.19-2.31s-5.76-1.12-7.5-2.84c-3.73-3.68-6.36-3.19-9.63.39-10,10.89-20.06,21.62-30.11,32.41-10.93,7.47-21.68,15.22-32.86,22.3a52.44,52.44,0,0,0-18.57,20.6C707.37,488.36,701.33,497.69,695.67,507.22ZM981.49,145.13c3.29-18.11-.21-26.7-13.39-35.23-3.46-2.25-7.18-4.13-10.47-6.59-8.94-6.68-18-12.54-30-8.69-1.7.54-3.84-.17-5.75-.49-9.58-1.58-19.31-2.6-28.67-5-11-2.84-18.1,1.8-24.19,9.92-8.29,11.07-16.77,22-24.85,33.23-2.79,3.89-4.67,8.44-6.92,12.71-1.92,3.62-.52,6,2.94,7.55,6,2.72,11.73,6,17.92,8,3.5,1.13,8.3,1.48,11.44,0,12.66-6.13,24.78-13.35,37.32-19.72,8.23-4.19,17-7.49,19.34-17.89.06-.28.82-.41,2.72-1.29l18.82,19c-.32-5.53-.8-9.51-.7-13.48.11-4.12.8-8.21,1.23-12.32,4.7,1.6,9.85,2.48,14,5,3.08,1.91,4.84,6,7.16,9.06C973.17,133.91,976.9,138.94,981.49,145.13Zm-182.94,56-1.47-.52C790.4,214,783.3,227.23,777.3,240.94c-1.73,3.95-.26,9.3-.26,14l2.85.53q9.72-16.26,19.45-32.53c.07,20.37-14.17,34.73-20.37,52.6,10.71-12,20.72-24.58,30.69-37.15a4.05,4.05,0,0,0,.66-2c1.09-11.06,2.31-22.12,3.07-33.21.15-2.26-1.48-4.65-2.28-7l-2.57-.18c-2.56,10.19-4.88,20.57-17.45,24.71ZM531.64,527.7c-3.37,1.41-5.53,2.19-7.57,3.2q-14.7,7.26-29.33,14.64c-8.19,4.12-8.17,4.13-3.1,12.19,2.06,3.29,4.15,6.56,6.1,9.91,2.66,4.57,5.33,5.06,8.76.64,2.82-3.62,6-7,9.14-10.34A61.77,61.77,0,0,0,531.64,527.7Zm-7.76-142.48,2.63,2c1.69-2.32,3.14-4.87,5.11-6.91,6.38-6.63,13-13,19.41-19.63,3.31-3.46,3.36-12.57-.47-14.25-2.17-.95-6.82,1.05-8.88,3.17-3.06,3.15-5.12,7.43-7,11.49C530.84,369.06,527.44,377.18,523.88,385.22ZM889.34,62.29l79.07,32.24C945.82,76.9,921,63.42,889.34,62.29ZM521.29,401c9.09-.62,19.1,1.62,23.83-2.37,5.64-4.77,6.76-14.88,9.83-22.67l-2.76-1.71Zm-20.4,123.35c1.45-11.6,2.66-21.25,4.05-32.36C498.22,497,496.61,512.37,500.89,524.36Z"/><path class="cls-3" d="M1374.63,673.42l4.51,5.61c.7,1.53,1.29,3.12,2.12,4.57q26.27,45.28,52.57,90.55c7,12.15,14.26,24.22,20.86,36.61,10.81,20.29,22.79,40.35,19.16,65-3.63,5.9-6.46,12.54-11,17.56-13.86,15.12-28.57,29.44-42.56,44.44-4.17,4.46-7,10.13-10.51,15.24l-1.4.19-.09-1.72c2.51-4.47,4.25-9.68,7.67-13.29,14.49-15.3,29.92-29.73,44.1-45.3,6.5-7.14,10.93-15.26,5.17-26.53-11.57-22.65-21.36-46.21-32.26-69.22a43.94,43.94,0,0,0-9.27-12.81c-5.7-5.41-9.51-11.52-11-19.17-1.61-8.47-5.5-15.34-13-20.1-5.21-3.3-8.62-8.18-7.32-14.7,2.87-14.38-6.32-22.89-14.88-31.83-3.07-3.2-5.56-3.09-8.29.54-3.05,4.07-6.64,7.72-9.71,11.77s-6.12,4.82-10.4,1.55c-6.93-5.3-14.06-10.35-21.29-15.25-2.09-1.41-4.87-2.89-7.2-2.7-8.92.74-18,1.46-25,8.24-1.64,1.57-3.86,2.53-7.37,4.76-.36-5-1.22-8.58-.75-11.93,2-14.29-3.15-25.61-12.26-36.41-12.1-14.36-11.55-14.67,4.21-24.39,2.92-1.8,6.44-4.3,7.45-7.25,3-8.74.19-14.78-7.85-20-2.65-1.71-5.3-3.43-8-5-10.55-6.23-10.56-6.21-4.68-16.75.24-.42.49-.84.7-1.28,2.48-5,5.56-6.34,10.2-2.24,2,1.79,4.65,2.91,7.44,4.59a83.72,83.72,0,0,0,2.31-43.32,6.8,6.8,0,0,0-2.74-4c-14.2-8.82-28-18.72-45.37-20.25a9.51,9.51,0,0,0-5.11,1.3c-3.3,1.86-6.14,4.8-9.62,6-8.53,3-11.28,12.95-5.06,19.54,5.15,5.46,10.09,11.12,15.26,16.57,3.82,4,7.85,7.88,13.16,13.19.45-8.63.76-14.68,1.19-23,6.32,5.25,10.52,9.19,15.18,12.49,5,3.52,4,6.19,0,9.62-6.46,5.46-12.62,11.26-18.91,16.92-3.38-6.7-6.38-13.62-10.25-20A125.13,125.13,0,0,0,1221.32,553c-5.44-6.12-11.83-11.43-18-16.85-8-7-16-14.06-24.41-20.54-14.58-11.22-30.42-21-43.93-33.34-9.21-8.41-17.41-8.17-27.44-4.41a51.1,51.1,0,0,1-9.12,2.43c-2.35.42-5.27,1.15-7.14.2-11.56-5.92-22.9-12.28-34.31-18.49-3.66-4.7-2.09-12.91-9.93-14.82-3.55-11.47-13.47-14-23.36-16.72l27.27-3.36-.32-2.71c-12-.59-24.07-1-36.09-1.82-5.5-.36-9.14,1.66-11.9,6.42-3.47,6-7.44,11.62-12.46,19.36-2.61-7-4-12-6.32-16.67-3.22-6.5-1.86-9.45,5.26-12.2,20.34-7.84,40.3-16.67,60.37-25.2,3.39-1.44,7.07-3.16,5.15-8-4.43-11.26-9-22.46-13.52-33.69q-.78-3.58-1.55-7.17c8.73-3,9.87-9.11,7.42-17.09-.91-3-.84-6.21-1.26-9.33-1.62-12-3-23.26,4.36-34.85,11.55-18.19,21-37.71,39-50.85a69.76,69.76,0,0,0,5.79-5.46,63.37,63.37,0,0,0,4.33-6.43c1.26-1.09,2.92-1.94,3.72-3.31,7.67-13.1,15.35-26.2,22.63-39.52a12.37,12.37,0,0,0,.78-8.36c-2.87-10.7-6.27-21.25-9.47-31.85l-.21-2.71c.53-2.81.12-7,1.79-8.15,4.06-2.73,3.4-5.23,1.65-8.55-1.36-2.58-2.67-5.19-3.82-7.86s-2-5.37-3-8.06c11.78,12.94,21,27.89,39.75,35.48-6.13-11-11.34-20.32-16.56-29.65l1.16-.91,30.64,27.94c4.32-7.46,8.2-14,12-20.71,2-3.57,4.6-5.51,8-2,11.19,11.67,24.26,22.22,32.72,35.65,10.56,16.77,21.74,33.94,24.52,54.63,1,7.38,3.95,14.46,5.46,21.8,3.16,15.31,6.83,30.59,8.61,46.08,1.43,12.44,3.08,23.75,14,32,5.94,4.5,10.48,10.81,16.17,15.7,4.11,3.53,9.08,6.07,13.67,9.05a37.16,37.16,0,0,0,3.23,4.82q25.23,27.51,50.56,54.91l1.74,27.48c.94,12.55,10.19,22.58,10,35.84-.21,11.42,3.45,22.5-4,33.59-5.77,8.56-.46,17.37,9.61,19.54,2.23.47,4.25,1.87,6.37,2.85q-.17,7.83-.32,15.67c-1.88,2.79-3.89,5.5-5.63,8.37-7.48,12.34-14.88,24.73-22.31,37.1-2.4,3.34-5.22,6.47-7.1,10.08-4,7.84-10.37,15.78-10.85,24-1.22,21,6.62,39.09,24.15,52ZM1124.06,212.78c-1.84,1.12-4.08,1.88-5.46,3.42-10.75,12-22.75,22.89-31.1,37.15-5.58,9.52-8.86,18.48-6.08,29.47,1.29,5.11,1,10.59,1.73,15.87,1.1,8.35-1.75,15.32-7.38,21.19-1.7,1.77-5.26,4.28-6.29,3.67a17.65,17.65,0,0,1-6.21-7.35c-1-2-.49-4.79-.19-7.17,1.1-8.65,2.5-17.27,3.56-25.93.36-3,0-6,0-9.34-7,.39-9.72,3.42-9.69,9.3,0,9.22.37,18.46-.12,27.66-.48,9,1.07,17.1,6.58,24.61,4.86,6.63,8.13,14.45,13.19,20.9,5.47,7,5.44,12.91-.37,19.28-4,4.39-2.67,8.08,1.41,11.79,9.14,8.33,18,16.93,27.09,25.35.77.73,2,1,3.57,1.7.44-2.16,1.22-3.8,1-5.3-1-7.11,2.39-9.95,9.08-11.16,2.28-.41,5-3.52,5.8-6,2.15-6.26,3.37-12.84,5.29-20.64l35.69,19.2c-8.3,4.59-6.87,8.64-2.68,13.64,6.69,8,13.39,16.09,19,24.87,9,14.21,20.27,26.05,34.52,34.76,8.85,5.41,13.33,12.12,11.6,22.64-.75,4.55,1.12,7.89,5.72,9.72,8.79,3.49,17.23,8.29,26.31,10.48,4.51,1.09,10.12-2.4,15.24-3.83-1-3.37-2.06-6.74-3.14-10.1a4.1,4.1,0,0,0-.86-1.17c-3.39-4.16-2.5-7.05,2.59-8.63,4.18-1.29,8.41-2.4,12.56-3.75,9.72-3.16,10.55-5.41,4.85-13.93s-12.5-16.88-12.13-28.15c.17-5.14-2.57-7.87-7-9.86-9.07-4.08-18.17-8.17-26.9-12.9-2.51-1.36-5.37-4.94-5.38-7.5,0-12.88-5.2-22.73-15.21-30.5a35.76,35.76,0,0,1-7.65-7.74c-2.22-3.24-4.63-7-5-10.7-1.09-10.19-5-18.87-10.4-27.48-9.39-15-18.06-30.44-26.67-45.91-8.13-14.59-14.67-30.2-24-44-9.78-14.52-14.23-30.65-19.3-46.8-1-3.32-2.28-6.58-3.88-11.14-5.79,10.74-5,20.47-3.36,30.29Zm154,140.81,2.16-3.55c-6.7-11.94-13.08-24.07-20.18-35.76-7.3-12-15.3-23.61-23-35.38-3.19-4.86-5.33-11.77-9.83-14.1-6.87-3.56-7.06-9.05-8.42-14.68-3.7-15.25-5.5-31-14.51-44.64-5.36-8.11-9.63-16.94-14.4-25.44l-1.71.69c11.38,30.26,19.42,61.26,21.27,93.77-10.44-25.58-20.87-51.16-31.65-77.57-6.65,24.34,8.29,42.38,15.39,64.27l-19.75-14.71-1.48,1.38c2.94,4.56,6.07,9,8.78,13.7,2.54,4.37,5.46,8.77,6.78,13.55,4.5,16.22,10.29,31.14,22,44.22,13.29,14.77,25.3,30,46.76,32.51.47.06.91.41,1.38.44C1264.53,352.74,1271.32,353.16,1278.11,353.59ZM1168.69,494c4.48-7.82,4.06-13.51-.84-18.9-6-6.63-12.53-12.95-17.69-20.21-5.29-7.44-12.7-10.64-20.46-14.26-9.13-4.24-17.66-9.74-26.48-14.64-1-.55-2.22-.73-5.15-1.65,9.28,11.5,17.19,21.57,25.49,31.3,1.44,1.68,4.85,3.07,6.87,2.58,6.53-1.58,8.08,1.57,8.77,7,.57,4.45.47,10.71,3.24,12.85C1150.34,484.27,1159.56,488.69,1168.69,494Z"/><path class="cls-4" d="M806.23,1244.43l-26.33-13.1,4.6-.19c7.83,1.13,14.29,4.79,20.07,10.12,1.37,1.26,4,1.15,6.06,1.67,7.17,1.07,8.69-.16,7.47-6.6a66.13,66.13,0,0,0-2.8-8.91q-5.14-14.89-10.34-29.78c2,2.39,4.52,4.53,6.07,7.21,4.46,7.72,11,7.91,18.83,6.85,7.07-1,8.81-3.64,7.14-10.48-2.21-9-.79-10.11,8.68-8.57,1,.15,1.92.34,2.87.5,6.18,1,9.28-1.3,8.75-7.87-.58-7.23-1-14.49-1.43-21.74-.29-5.26,2.13-7,7.23-5.51,5.59,1.66,11.29,2.91,16.85,4.63,4.88,1.52,7.32.67,8.68-4.94a223.39,223.39,0,0,1,8.32-25.47c4-10.55,5.8-10.9,16.92-9.8,7.84.78,15.85-.13,23.78-.29,6.72-.53,13.44-1.45,20.17-1.53,20.42-.22,29.72-16.41,41.77-28.66.42-.43.29-1.39.42-2.1,3.89-6.27,8-12.41,11.6-18.86,3.72-6.69,6.91-13.67,10.33-20.52l5.94-2.78c-3.57,5.7-7.54,11.19-10.63,17.14-7.82,15-15.56,30.13-22.72,45.48-4.2,9-9.07,16.47-20.06,17.29-.26,0-.46.77-1.19,2.05l16.35,14c-5.06.17-9.43-1.12-13.88-1.9-8.51-1.5-17.15-4.18-25.59-3.7-13.42.77-26.76,3.56-40,5.93-2.22.4-5.41,2.72-5.83,4.65-2.12,9.78-2.79,19.65,1,29.35,1.28,3.26,1.82,6.81,2.71,10.22l-.84,1.58c-11-8.49-20.8-3-31,.77-22.85,8.41-22.86,8.26-29.52,32-2.35,8.4-5.14,16.49-2.74,25.6,4.23,16,3.93,16.25,20.22,14.36,5.4-.63,6.5,1.45,5.64,6.13-.83,4.51-1.42,9.07-2.12,13.61,0,.46-.09.91-.14,1.37-4.81,14.11-4.56,15.11,6.84,23.66,3.68,2.76,7.25,6,11.39,7.77,10.75,4.64,13.11,13.37,13.94,23.87,1.38,17.56,5.93,34,16.54,48.84,6.54,9.14,11.09,19.75,16.15,29.89,3.77,7.57,6.43,15.73,10.45,23.15,10.23,18.93,20.9,37.62,31.52,56.33a68.61,68.61,0,0,0,6.9,10.14c10.63,12.81,22.73,24.48,29.67,40.07,2.25,5.06,5.34,9.75,8.05,14.61l11.54,13.31,13.23,21.75c-5.5.58-11.84,1.27-14.1-4.9-5.35-14.64-17.6-23-28.15-33q-10.89-16.1-21.77-32.18A289.59,289.59,0,0,0,946,1463c-4-5.68-5.6-13.06-8.29-19.67-1.62-4-2.66-8.29-4.9-11.85-10.3-16.39-21-32.51-31.36-48.88a25.6,25.6,0,0,1-3.39-9.39c-2.78-16.87-4-34-16.2-48-4.17-4.76-8-8.14-14.4-8-6.15-.88-12.13-1.88-15.64-8.12-.47-.84-3.1-.46-4.73-.64a10.66,10.66,0,0,1-.21-1.36c4.08-8.79.27-18.68-8.5-22-1.37-2.54-2.59-5.17-4.14-7.6-2.57-4-7.08-7.71-7.71-12C824.74,1253.12,814.57,1249.88,806.23,1244.43Z"/><path class="cls-5" d="M272.74,862.7c2.16-2.81,5.66-5.35,6.26-8.46,4.06-21,15.07-38.69,25.52-56.71.71-1.21,1.66-2.27,3.55-4.81,2.65,11.72,5,22.06,7.83,34.59L340,801.87c1.78,7.15,3.31,12.31,4.31,17.57,1.06,5.6,3.55,6.93,8.5,3.93,12-7.29,24.33-14.15,36.05-21.89,3.83-2.53,6.28-7.21,9.23-11,2.2-2.82,4.2-5.8,7.21-10,4.83,6.21,9.27,11.48,13.1,17.16.89,1.31.1,4.18-.66,6A17.43,17.43,0,0,1,414,809c-8.3,8.49-9.59,18.26-6.7,29.48,2.23,8.66,1.18,10.78-8,11.28-20.81,1.12-35.17,11.59-45.9,28.4-3.7,5.79-9.66,5.76-15.43,6.37-6.31.66-12.48,1.1-16.09,7.86-2.09,3.91-1.87,6.14,1.44,9.32,11.13,10.7,21.77,21.9,32.71,32.79q12.6,12.56,25.48,24.82c11,10.46,21.74,21.38,33.49,31,22.25,18.23,42.91,38.61,69.13,51.66,6.82,3.39,12.74,8.59,19.07,13l-2.84-.12c-13.44-8.18-27.57-15.44-40.14-24.79-17.09-12.71-33.29-26.67-49.29-40.75-16.19-14.25-31.86-29.1-47.42-44-10.13-9.74-19.52-20.26-29.49-30.18-7.53-7.5-15.46-14.6-23.21-21.89,1.7-9.74,3.53-19.47,5-29.25.42-2.78-.23-5.71-.38-8.58l-2.5.06c-2.83,9.3-5.65,18.59-8.67,28.51ZM290.36,829c-2.87,12.14,6,24.43,19.4,27.83-.29-6,1.48-13.15-1.32-16.64C304.42,835.17,297.06,832.86,290.36,829Z"/><path class="cls-6" d="M1408.24,951.42l.09,1.71-6,12.78c-3,3.38-6.38,6.57-9.1,10.2-3.52,4.7-6.57,9.76-9.83,14.66l-11.82,24.78-12.76,17.61-17.58,21.68c-1.42,2-4,3.86-4,5.87-.39,9.19-.67,18.48.26,27.6.33,3.27,3.6,7,6.55,9.09,6.43,4.54,14.27,7.29,20.15,12.37,6.94,6,15.28,11.36,17.5,21.6.43,2,3.17,3.44,4.85,5.15h0c1.74,11,3.44,22,5.28,33,.13.75,1.3,1.33,2,2l.73.07.73-.07,1.48-.11,4.24,1.77,1.56,1.37c0,.48,0,1,0,1.44-2.81-.16-7.76-1.15-8.08-.33-1.67,4.25-2.17,9-3.38,15.06l-9.07-20.82c-4.76,8.78-8.64,15.94-12.51,23.11-2.21-15.71-4.47-31,7.83-43.41,2-2,4.42-5.12-.06-6.87-5.51-2.16-11.34-3.49-17.77-5.4-.52,5.94-.93,10.6-1.51,17.12-11-5.91-20.79-11-30.34-16.48-1-.58-1.64-3.81-1-5,3.38-6.14,2-10.33-6.37-13.07l25.87-11.52c-8.08-4-14.08-7.08-20.15-10-7-3.35-7.53-4.57-2.28-10.32,4.22-4.63,4.31-8.53.67-13.48a187.73,187.73,0,0,1-13.26-20c-4-7.21-7.06-15-11.2-23.93l19.42,1.49-7.5-19.14c11.34,6.82,22.23,13.53,19.49,28.74a3,3,0,0,0,.45,2.1c1.86,2.43,3.44,5.77,5.93,6.75,1.53.61,5.09-2,6.72-3.94,4.25-5.14,7-12.05,12.05-15.91,12.77-9.64,12.69-26.89,23.67-37.28a1,1,0,0,0,.18-.7c0-9,6.35-14.07,11.68-20.07,4.36-4.9,7.32-11,11.15-16.43C1404.42,954.37,1406.5,953,1408.24,951.42Z"/><path class="cls-5" d="M1459.37,1388.7l-41.87,42.15a16.11,16.11,0,0,0-1.59,1.5c-13.4,17.57-31.23,30.53-48.26,43.93-15.49,12.17-33.38,21.33-50.31,31.64-9.92,6-20,11.74-30.07,17.59L1259.4,1537l-14.34,9-42.27,16c5.87-3.22,11.61-6.7,17.63-9.6,11-5.33,22.49-9.9,33.36-15.56,15.81-8.22,33.26-12.89,47.81-24.06,7.88-6.06,18.91-7.95,27-13.81,18.56-13.44,39.64-23.4,55.84-40.11a36.64,36.64,0,0,1,6.25-5c11.39-7.42,19.21-16.77,17.79-31.45-.15-1.54.59-3.16,1-5.28l14.69,4.83c.51-.71,1-1.42,1.54-2.14-1.88-2.87-3.58-5.88-5.69-8.58-4.82-6.16-4.67-6.44,2.85-9,11.95-4.11,25.62-4.41,34.56-15.32l1.61.09C1459.16,1387.64,1459.26,1388.17,1459.37,1388.7Z"/><path class="cls-7" d="M805,1197.64q5.17,14.89,10.34,29.78a66.13,66.13,0,0,1,2.8,8.91c1.22,6.44-.3,7.67-7.47,6.6,4.08-2.35,2.82-5.17.33-7.6-3.77-3.68-7.79-7.1-11.77-10.56-8-7-7.92-6.83-15.59-.38-3.71,3.11-2.8,5,.9,6.75l-4.6.19c-15.73-2.89-28.2,3.07-39.1,14-3.51,3.5-7.87,6.16-11.84,9.2-5,3.51-10.8,6.25-14.66,10.71-6,7-10.72,15.12-16,22.77h0l-4.28.13c5.37-8.21,10.32-16.73,16.26-24.51,3.14-4.12,7.5-8.56,12.18-10,7.24-2.17,11.67-5.6,15.81-12.06,3.05-4.76,10-9.46,15.51-9.74,17.48-.9,27.52-10.07,34.94-24.75,5-9.87,11.58-18.94,17.45-28.37L805,1194.93C805,1195.84,805,1196.74,805,1197.64Z"/><path class="cls-8" d="M351.61,486.84c-18,4.24-35.08,12.86-54.29,11.52-8.67-.6-17.35-1-26-1.56-.72-.05-1.66.06-2.12-.34-12.07-10.59-24.93-1.74-37.43-1.56-1.44,0-2.87.28-4.31.42l22-5.71c4.58.22,9.59-.65,13.66.92,6.73,2.6,11.57.88,16.58-3.42,5.84-5,12.49-7.07,20.15-4.2,3.14,1.17,6.41,2.59,9.67,2.74C323.51,486.28,337.56,486.48,351.61,486.84Z"/><path class="cls-5" d="M178.13,821.79c6.05,1.61,12.5,2.4,18.07,5,9.54,4.5,19.15,4.18,29.07,2.88,3.35-.44,6.75-.33,10.12-.64,6.24-.57,10.46.81,10,8.46-.11,1.63,2.12,5,2.85,4.85,3.37-.53,7.6-1.09,9.66-3.34,4-4.4,6.78-9.95,10.13-15,1.67-2.49,3.5-4.88,5.25-7.31l2.6,1.08c-1.27,4.25-1.89,8.86-4,12.65s-5.65,7.2-8.74,10.58c-7.13,7.78-7.19,8.85-.3,16.88l-1.79.37c-16-7.61-32-15.5-48.21-22.73C201.46,830.51,189.7,826.35,178.13,821.79Z"/><path class="cls-9" d="M1459.37,1388.7c-.11-.53-.21-1.06-.31-1.59q8.45-14.25,16.91-28.48c1.59-2.67,3.55-5.16,4.89-8q6.42-13.38,12.45-27c.94-2.1,2.35-5,1.58-6.67-3.83-8.22-7.39-16.83-12.78-24-7.67-10.17-16.86-19.19-25.39-28.72-1.84-2-3.63-4.13-6.17-7,9-1.75,7.09-7.78,7.26-12.91l1.55-.1c2.91,6.58,5.33,13.45,8.83,19.7,8.8,15.72,18.33,31,27,46.83,1.86,3.39,1.34,8.08,1.91,12.17-3,5.25-7.16,10.15-8.79,15.79-5.11,17.69-17.37,31.22-26,46.84C1461.67,1386.83,1460.37,1387.68,1459.37,1388.7Z"/><path class="cls-10" d="M1043.74,1597.1q-6.62-10.87-13.22-21.75c10.32,3,20.08,7,27.09,15.69,3.61,4.49,7.91,5.41,13.54,4,7-1.81,14.23-2.57,21.34-3.93,8-1.52,16-3.24,24-4.79,11.8-2.27,23.62-4.47,35.44-6.69-9.85,2.39-19.63,5.07-29.55,7.12-20.32,4.21-40.71,8.08-61.07,12.09l-4.2,0Z"/><path class="cls-11" d="M1381.83,504.43c.15.87.29,1.74.44,2.62l-1.55.06c-2.12-1-4.14-2.38-6.37-2.85-10.07-2.17-15.38-11-9.61-19.54,7.46-11.09,3.8-22.17,4-33.59.24-13.26-9-23.29-10-35.84l1.36.06c2.37,5.38,4.62,10.82,7.17,16.11a22.13,22.13,0,0,0,4.14,5.87c8.55,8.75,9.94,18.95,4.13,29.88a92.24,92.24,0,0,0-3.77,9.3c-1.66,2.94-3.57,5.76-4.93,8.82-3.91,8.85,0,15.63,9.56,17.29A35.71,35.71,0,0,1,1381.83,504.43Z"/><path class="cls-9" d="M261,858.31l1.79-.37,9.93,4.76,31.43,21.17c3-9.92,5.84-19.21,8.67-28.51l2.5-.06c.15,2.87.8,5.8.38,8.58-1.47,9.78-3.3,19.51-5,29.25l-42.61-29.92C265.76,861.56,263.39,860,261,858.31Z"/><path class="cls-12" d="M1259.4,1537l27.87-11.48Z"/><path class="cls-13" d="M1021.94,1050.48c-3.42,6.86-6.61,13.84-10.33,20.53-3.58,6.45-7.71,12.59-11.6,18.86a75.29,75.29,0,0,0-6.47,4.5c-11.35,9.73-22,20.48-37.86,22.87-6.65,1-13.15,3-19.72,4.58-3.12-.52-6.25-1-9.34-1.57-19.11-3.87-15.39.32-18.38-19.41-.88-5.79-2.34-11.49-4-19.28-8.28,9.91-18.5,15.76-16.41,28.88,1.74,10.89-2.08,19.9-9.32,27.91a89.81,89.81,0,0,0-7.69,10.6c-2.2,3.29-4.36,3.18-7.1.64-4.26-4-8.72-7.7-13-11.62-10.67-9.72-10.67-9.76-.56-19.81,4.06-4,7.51-9.21,14.8-7,.72.22,3.71-3.49,3.84-5.49.68-11,2.78-21,13.46-27,1.15-.65,1.77-2.25,2.64-3.41.35-.34.64-.82,1.06-1,16.93-7.17,16.12-21,14.06-35.82a100,100,0,0,1-.23-21c.18-2.43,2.7-4.86,4.56-6.93,2.56-2.84,5.51-5.33,8.29-8,5.15-4.38,9.94-9.31,15.56-13,5.27-3.42,4.84-6.55,2.41-11.4-4.85-9.69-9.11-19.67-13.61-29.54-5.74-12.31-2.64-25.31-2.7-38-.05-13.78,4-26.09,15.25-35.17a10.81,10.81,0,0,0,2.19-2.88c3.09-5.12,7.63-6,13.2-5.21,7.66,1.11,15.38,1.8,23.08,2.51,5,.46,11.16,2.6,15,.56,12.87-6.95,28.53-10.85,34.66-26.69,7.9-22.08,19.34-42.24,32.93-61.3,3-4.26,6.15-6.79,11.46-4.85,12,4.39,22.17-2.21,32.82-5.68a5.81,5.81,0,0,0,3-3.58c2.31-8.4,4.86-16.8,6.21-25.37.47-3-2.19-6.57-3.42-9.88l-1.54-3c-8.43-11.52-16.78-23.09-25.37-34.49-1.49-2-3.87-4.24-6.08-4.53-9.55-1.26-18.74-1-26.19,6.95-4.63,4.91-10.27,8.84-15.37,13.31-1.13,1-1.89,2.39-3.37,4.31,3.64,1.14,6.3,2.42,9.09,2.77,8.32,1.07,9.92,6.24,9.05,13.46-1.11,9.13-2.09,18.28-2.84,27.45-.37,4.48-2.55,5.9-6.71,5.37-6.24-.81-12.49-2.13-18.74-2.14-8.37,0-18.13-5.4-24.36,5.11-4.13,5-8.61,9.68-12.32,15-4.92,7-9.24,14.42-13.82,21.67q-8.7,16-17.41,32c-1.37-.95-3.76-1.73-3.95-2.88-2.26-13.54-4.19-27.14-6.2-40.72,1.06-4.39,1.31-9.19,3.33-13.08,5.91-11.34,12.52-22.31,18.86-33.43l5.68-7.34,13-10.25c13.3-8.23,26.9-16.23,35.78-29.63,10.24-15.47,20-31.23,36.05-41.63q7.1-5.54,14.17-11.06c3.38-2.63,5.29-7.61,11.43-5.38,4.07,1.47,9.78-.1,12.91,2.2,9.42,6.9,17.94,15,26.81,22.68,10.31,16.41,20.33,33,31,49.17,11.85,17.94,24.28,35.5,36.52,53.19,2.26,3.27,4.83,6.33,8.47,11.08-4.4-.2-6.88-.41-9.36-.41-15.19,0-26.46,9.1-38.4,16.58-1,.64-1.39,2.52-1.81,3.9-5.06,16.4-11.32,32.55-14.75,49.28-3.46,16.91-8.67,32.59-18.47,46.8a116.75,116.75,0,0,0-8.6,15.17c-.91,1.87-1.42,5.16-.4,6.51,4.06,5.38,8.24,10.69,16.75,8.09,6.68-2,13.76-2.79,20.67-4.07,8.46-1.57,9.66-.27,8.44,8.57-1.39,10.07-2.36,20.2-4.1,30.21a21.93,21.93,0,0,1-4.68,10.07c-5.81,6.8-12.27,13-18.47,19.51-8.26,5.81-16.15,12.26-24.87,17.25-11.32,6.49-23.29,11.82-35,17.64l-14.37,8.87C1033.05,1037.11,1024.28,1040.24,1021.94,1050.48Z"/><path class="cls-14" d="M839.84,956c-1.18,11.6-2.83,23-8.75,33.46-11.45,20.28-22.51,40.77-33.69,61.19-2.37,4.33-5.36,6.08-10.67,5-11.18-2.21-22.55-3.36-33.74-5.49-5-1-7,1.15-7.25,5.35a107.47,107.47,0,0,0,.07,16.64c.81,8.43,2.34,16.79,3.37,25.21.28,2.28-.15,4.65-.35,9.11-10-5.33-19.05-9.3-27.16-14.68-13.34-8.83-25.9-18.82-39.13-27.83-8.53-5.81-8.77-5.4-14.88,2.78q-12,16-24,32c-1.26,1.68-2.76,3.17-5.59,6.4-3.45-13.47-7.86-25.14-9.18-37.16-2.17-19.7-1.66-39.69-3.47-59.44-4.8-52.32-2.88-104.73-2.47-157.08.28-36.52,3.54-73,5.52-109.53a29.79,29.79,0,0,1,1.14-4.93c0,3.63.23,7.27.06,10.9-1.81,39.41-3.92,78.82-5.42,118.24-.66,17.44.25,34.93-.23,52.38-.39,14.46.68,28.63,5.43,42.3,5.27,15.17,3.75,30.1,1.78,45.77-2.74,21.73-2.71,43.85,5.33,65.09,2.45,6.47,5.22,6.18,10.12,2.81,3.82-2.62,8.26-4.34,12.43-6.46,5.49-5.19,12.26-9.57,16.15-15.77,5.06-8.07,7.83-17.57,11.59-26.45,1.14-2.33,2.25-4.67,3.42-7,2.8-5.53,1.07-8.48-5.07-9l-2.68,0c-16.49-1.34-30.22-8.66-43.47-19.63,7.68-5.2,14.78-9.77,21.62-14.71,4-2.91,7.67-6.4,11.49-9.62l6-3.68c11.37,3.81,24.2,5.86,30.53,17.5,5.66,10.4,9.59,21.74,15,34.41-5.48-.58-8.51-.87-11.54-1.23-7.83-.92-9.94,1-9.05,8.67.92,7.94,1.78,15.9,3,23.8,1.07,6.82.92,13.91,6.31,19.62,8.31,8.81,16.09,18.12,24.11,27.21,2.75,3.11,5.55,6.18,8.32,9.27l1.63-.89c-.74-4.2-1.15-8.49-2.28-12.59-5.12-18.6-6.09-37.18-1.17-56,1.33-5.09,3-6.48,7.94-4.1q12.8,6.15,26,11.46c2.42,1,6.92,1.77,7.89.57,7.49-9.29,18.19-16.19,21.27-28.87,2.22-9.15,3.58-19.19,8.43-26.86,6.92-10.94,16.67-20.08,25.22-30C839.75,954.83,839.8,955.41,839.84,956Z"/><path class="cls-14" d="M839.84,956c0-.59-.09-1.17-.13-1.75q-.81-23.16-1.61-46.33l-2.35-.74-13.53,18,0,0q-4.38,5.89-8.74,11.8L798.9,909.4c12.62-2.91,25.6-3.42,37.43-10.58,13.36-8.09,28-14,42.26-20.63,5.52-2.57,11.37-4.44,17.07-6.62-.15-.61-.3-1.21-.44-1.81-7.65.53-15.29,1.32-22.94,1.47-2.67,0-6.62-.61-7.84-2.4-5.08-7.46-9.35-15.48-14.84-24.87,8.53.81,14.93,1.59,21.36,2,8.63.52,17.66,2.45,25.83.65,10-2.2,19.52-7.23,28.8-11.91,2.76-1.39,5.63-5.69,5.7-8.72a146.58,146.58,0,0,0-1.94-24.54c-2.67-17.82.24-35.51,6.69-51.36,5.53-13.57,17.07-24.59,31.91-30.27l1.58.05q-9.12,11.68-18.23,23.37c-3.06,3.92-6.37,7.79-4.41,13.58l9.83-10.61c-6.34,11.12-13,22.09-18.86,33.43-2,3.89-2.27,8.69-3.33,13.08-.32,4-1.29,8.12-.82,12,1.26,10.57,3,21.09,4.8,31.6.88,5.26-.22,9.19-4.91,12.54a150,150,0,0,0-17.81,14.9,16.18,16.18,0,0,0-4.34,9.31c-.72,7.21-.38,14.52-.48,21.79-8.79-.06-13.16,4.83-15.86,12.79-2.8,8.24-6.86,16-10.07,24.14-1.64,4.16-4.31,5.37-8.51,4.8-8.63-1.18-17.34-1.85-25.92-3.29-4.57-.76-6.1.95-6.85,5C842.66,944.26,841.17,950.12,839.84,956Z"/><path class="cls-15" d="M682.76,626.28q6.9,8.69,13.79,17.36l1.43-.71-1.2-17.61,1.51-.12q3.68,19.65,7.36,39.29c1.4,16,1.6,32.32,4.55,48.08,2.87,15.32,8.55,30.12,13,45.15,5.56,13.93,10.6,28.09,16.8,41.72,8.38,18.44,15.32,38,32.7,50.65,7.23,5.24,14.8,10,22.39,14.73,12.76,7.91,12.37,7.74,10.06,22.45-1.23,7.82-4.84,12.73-11.74,16-4.06,1.93-7.81,4.5-11.71,6.78l.93,1.69,12-2.46c-9,8-8.91,8-4.44,19.54,3.48,9,6.84,18,10.25,27.06-2.07-2.63-4.73-5-6.11-8-3.81-8.12-10.52-10.6-18.74-10.93-4.08-.16-8.16-.62-12.24-1-5.69-.48-7.09-3.74-6.32-9,1.07-7.37,1.7-14.82,2.51-22.23.7-2.57,2.21-5.23,1.92-7.68-.57-4.75-2.16-9.38-3.33-14.07l33.52,9.37c.32-.85.63-1.7.94-2.56-12.14-8.05-22.28-19.2-38.42-24.76,1.62,7.33,2.79,12.66,4,18l-1.32-.26C744.16,842.56,730.9,802.48,719.08,762c-8.62-29.51-14-60.08-34.52-84.73-1.88-2.26-2-6.4-2.08-9.69-.29-13.1-.22-26.21-.29-39.32Z"/><path class="cls-16" d="M884.93,1075.24c-.87,1.16-1.49,2.76-2.64,3.41-10.68,6-12.78,16-13.46,27-.13,2-3.12,5.71-3.84,5.49-7.29-2.22-10.74,2.95-14.8,7-10.11,10-10.11,10.09.56,19.81,4.3,3.92,8.76,7.66,13,11.62,2.74,2.54,4.9,2.65,7.1-.64a89.81,89.81,0,0,1,7.69-10.6c7.24-8,11.06-17,9.32-27.91-2.09-13.12,8.13-19,16.41-28.88,1.61,7.79,3.07,13.49,4,19.28,3,19.73-.73,15.54,18.38,19.41,3.09.62,6.22,1,9.34,1.57l1.69.34c-7.93.16-15.94,1.07-23.78.29-11.12-1.1-13-.75-16.92,9.8a223.39,223.39,0,0,0-8.32,25.47c-1.36,5.61-3.8,6.46-8.68,4.94-5.56-1.72-11.26-3-16.85-4.63-5.1-1.52-7.52.25-7.23,5.51.4,7.25.85,14.51,1.43,21.74.53,6.57-2.57,8.87-8.75,7.87-.95-.16-1.91-.35-2.87-.5-9.47-1.54-10.89-.47-8.68,8.57,1.67,6.84-.07,9.51-7.14,10.48-7.83,1.06-14.37.87-18.83-6.85-1.55-2.68-4-4.82-6.07-7.21,0-.9,0-1.8,0-2.71,8.11-7.94,16.42-15.69,24.17-24,2-2.18,3-6,3.31-9.11,2.37-21,5-41.75,20.1-58.39,1.54-1.7,2.15-4.24,3.2-6.39Zm10.2,41.91,12.1-17.7C894.76,1102.17,892.4,1105.63,895.13,1117.15Z"/><path class="cls-17" d="M672.11,966c-3.82,3.22-7.45,6.71-11.49,9.62-6.84,4.94-13.94,9.51-21.62,14.71,13.25,11,27,18.29,43.47,19.62-9,8.06-17.83,16.42-27.23,24-4.42,3.58-5.18,7-3.4,12,2.62,7.31,4.83,14.75,7.22,22.14-4.17,2.12-8.61,3.84-12.43,6.46-4.9,3.37-7.67,3.66-10.12-2.81-8-21.24-8.07-43.36-5.33-65.09,2-15.67,3.49-30.6-1.78-45.77-4.75-13.67-5.82-27.84-5.43-42.3.48-17.45-.43-34.94.23-52.38,1.5-39.42,3.61-78.83,5.42-118.24.17-3.63,0-7.27-.06-10.9l4.74-28.85c4-13.49,7.21-27.26,12.15-40.38,4.21-11.18,10.38-21.63,15.68-32.41a56.91,56.91,0,0,1-2,6.2c-12.17,26.61-21.8,54.13-25.21,83.23-3.54,30.28-6.61,60.7-7.76,91.14-1.33,35.15.16,70.41-.58,105.6-.35,16.44,2.15,31.77,9.37,46.47,2.39,4.87,4.21,10,6.64,15.87Z"/><path class="cls-18" d="M911,894.88c.1-7.27-.24-14.58.48-21.79a16.18,16.18,0,0,1,4.34-9.31,150,150,0,0,1,17.81-14.9c4.69-3.35,5.79-7.28,4.91-12.54-1.75-10.51-3.54-21-4.8-31.6-.47-3.93.5-8,.82-12,2,13.58,3.94,27.18,6.2,40.72.19,1.15,2.58,1.93,3.95,2.88,3.39,1.23,6.92,2.17,10.12,3.76,5.46,2.71,7.52,1,7.45-4.77-.13-10.34-.11-20.67-.16-31,4.58-7.25,8.9-14.67,13.82-21.67,3.71-5.27,8.19-10,12.33-15l3.28.39c1,9-1.58,16.75-8,23-11.75,11.35-14.83,24.63-10,40.12,1.89,6,3,12.33,4.48,18.5,4.15,1.93,8.16,4.32,12.5,5.63,2.69.81,6.52,1.05,8.71-.29,6.34-3.87,12.12-8.68,18.11-13.12.12.61.23,1.23.35,1.84-6.13,15.84-21.79,19.74-34.66,26.69-3.79,2-9.91-.1-15-.56-7.7-.71-15.42-1.4-23.08-2.51-5.57-.8-10.11.09-13.2,5.21a10.81,10.81,0,0,1-2.19,2.88c-11.23,9.08-15.3,21.39-15.25,35.17.06,12.7-3,25.7,2.7,38l-2.9-1.46c-1-11.41-2.07-22.82-2.84-34.25C910.88,906.91,911.06,900.89,911,894.88Z"/><path class="cls-17" d="M736.24,348.29c2.91,13.57-7.57,19.75-15.22,27.47-1,1-2.62,1.51-3.45,2.62-12.42,16.57-31.09,22.17-49.43,28.4a14.8,14.8,0,0,0-6.2,4.19c11.87,2.12,22.87,10.39,35.61,2.7,9.31-5.62,19-10.59,28.54-15.85l2.91-1.5c-1,2.67-1.29,5.8-2.94,7.92C720,412,713.5,419.46,707.18,427l-3,2.84-47.86,14.47c2.54-5.28,4.27-8.89,6.93-14.44-8.08,0-14.94-.25-21.78.07-6.05.29-8.84-1.67-9-8.2,0-2.64-2.89-7.31-4.8-7.49-13.77-1.29-17.65-10.8-19.88-22.08,2.88.43,5.95.37,8.58,1.42s5.85,2.73,6.82,5c1.86,4.33,4.24,4.87,8.49,4.36,25.42-3.09,50.36-7.9,72.87-20.84a67.24,67.24,0,0,0,16.28-12.65C726.7,363,731.18,355.41,736.24,348.29Z"/><path class="cls-19" d="M688,1177.62c-13.6-12.88-12.1-30.76-16-47-4.37-18.18,5.37-32.89,10.18-48.84.37-1.23,3.24-2.93,4.25-2.54,3.42,1.29,7.66,2.65,9.49,5.39,3.18,4.74,5.09,10.42,7,15.89,4.67,13.36,13.58,24,22.76,34.19,7.3,8.11,10.24,17.13,10.68,27.54.14,3.12.74,6.23,1.13,9.34l-35.7-46.47c-.21,1.78-.34,2.95-.48,4.11l-18.84-29.92-1.89.78,3.12,16.06c-1.58-3.36-3.17-6.71-5.25-11.1a68.53,68.53,0,0,0-.44,7c.4,8.66,1.42,17.31,1.27,26-.13,7.59,1.35,14.31,6.1,20.24l3.09,18.51Z"/><path class="cls-4" d="M855.75,1097.07c-1,2.15-1.66,4.69-3.2,6.39-15,16.64-17.73,37.41-20.1,58.39-.36,3.16-1.27,6.93-3.31,9.11-7.75,8.28-16.06,16-24.17,24l1.23-16.23c3.19-28.84,21.23-50.36,36.62-73C845.51,1101.69,851.36,1099.88,855.75,1097.07Z"/><path class="cls-20" d="M170.52,817.71,128.47,800c3.7-8.15,9.13-6.09,15.65-3.45,17.16,7,17.27,6.7,29-8.09,8.8-11,10.18-11.4,23-5.57,3.41,1.55,6.75,3.24,12,5.76-8.67,4.87-15.82,8.64-22.71,12.83a80.3,80.3,0,0,0-12.78,9.3C171.12,812.16,171.18,815.34,170.52,817.71Z"/><path class="cls-19" d="M741.84,1177.54c-1.6,7.7-4.54,14.09-13.71,15-2.12.21-4.13,1.33-6.22,1.91-18.66,5.2-18.66,5.19-29.65-11-1.36-2-2.82-3.91-4.24-5.85l.47-.82,1.32-9.52,10.15,9c-1.9-7.07-3.93-14.64-6-22.21q9.46,13.47,19,26.93l1.59-.85-3-11.61Z"/><path class="cls-8" d="M698.29,625.2l-1.51.12c-.5-3.1-1.44-6.19-1.44-9.29q0-54.4.33-108.81c5.66-9.53,11.7-18.86,16.87-28.65A52.44,52.44,0,0,1,731.11,458c11.18-7.08,21.93-14.83,32.86-22.3-9.7,9.73-18.68,20.32-29.26,29-15.44,12.63-27.64,26.88-32,46.82-1.91,6.88-5.4,13.74-5.45,20.63C697.1,563.13,697.87,594.17,698.29,625.2Z"/><path class="cls-21" d="M74.55,781l-17.62-7.1q18.9-12.63,37.8-25.23c2.11-1.4,4.43-2.51,9.3-5.24-5,12.9,3.58,17.22,10.11,22.69-.18.66-.35,1.31-.52,2L89.8,770.82c-3.12.36-6.24.69-9.36,1.09C74.94,772.61,72.73,775.49,74.55,781Z"/><path class="cls-22" d="M741.84,1177.54l-30.28-9-10.23-39.3c.14-1.16.27-2.33.48-4.11l35.7,46.47Z"/><path class="cls-23" d="M459,731.69c0,10.77,0,19.37,0,28a2.92,2.92,0,0,1-.76,2c-7.17,6.18-14.4,12.3-22.48,19.16C433.32,758.89,446.58,746.79,459,731.69Z"/><path class="cls-6" d="M914.13,947.14l2.9,1.46c4.5,9.87,8.76,19.85,13.61,29.54,2.43,4.85,2.86,8-2.41,11.4-5.62,3.64-10.41,8.57-15.56,13C917.66,984.16,916.08,965.66,914.13,947.14Z"/><path class="cls-6" d="M231,710.49c4.13-3.28,8.17-6.7,12.42-9.81,7.24-5.31,14.22-10.68,17.64-19.56.59-1.53,5.17-3.25,5.53-2.84,2.05,2.38,5.38,6.2,4.63,8-3.37,8.24-7.45,16-17.87,18.13-7.43,1.52-14.47,5-21.68,7.56Z"/><path class="cls-24" d="M484.51,745.87c.46-11.18.75-22,12.16-28.28,5.05-2.76,9.34-6.91,14-10.37,2.58-1.92,5.21-4.18,7.85,0,2.25,3.59,1.41,6.26-2.07,8.57-4.64,3.07-9.54,5.94-13.6,9.69-5.39,5-10.1,10.69-15.06,16.13C486.61,742.94,485.61,744.45,484.51,745.87Z"/><path class="cls-25" d="M662.13,635.38c-5.3,10.78-11.47,21.23-15.68,32.41-4.94,13.12-8.18,26.89-12.15,40.38,2.67-11.49,4.42-23.3,8.25-34.39,6-17.29,13.42-34.06,20.05-51.13,2.08-5.35,6.7-7.61,11.17-6.91,4.88.77,9.3,4.22,9,10.54l-.57,2-5.67-8.91c-4.27-2-6.82.12-8.59,3.76C665.94,627.16,664.06,631.28,662.13,635.38Z"/><path class="cls-5" d="M549.59,1120.67c-13.29-9.63-19.19-24.25-25.43-38.45-4.81-11-9.76-21.49-21-27.31,8.93,1.8,14.8,6.41,18.17,15.49,3.29,8.89,8.49,17.11,13.22,25.41S544.54,1112.39,549.59,1120.67Z"/><path class="cls-2" d="M707.18,427c6.32-7.56,12.82-15,18.88-22.78,1.65-2.12,2-5.25,2.94-7.92l3.48-2.05c1.06,3.08,2,5.87,3.51,10.26Z"/><path class="cls-26" d="M429.42,874.58c-3.33-3-7.25-5-7.13-6.63a91.53,91.53,0,0,1,4.92-23.1C427.89,854,428.57,863.07,429.42,874.58Z"/><path class="cls-27" d="M619.6,265.12l1.42-1.4c3.59-2.72,7.53-5.09,10.7-8.24,8.29-8.24,16.24-16.82,24.33-25.27-3.82,4.6-7.66,9.18-11.47,13.79-3.06,3.7-6,7.53-9.15,11.12-2.37,2.67-4.67,5.82-7.71,7.41-7.13,3.73-10.27,9.32-6.94,15.52a80.91,80.91,0,0,0,7.22-4.48c14.66-11.28,28.89-22.28,40.42-37.75C685,213.53,703.55,192.73,716,167.56c4.87,6.3,10,12.27,10.46,21,.23,4.77,4,3,6.57,1.77,9.14-4.46,18.23-9,27.31-13.61,4.19-2.11,8.3-4.37,12.78-6.73-7.42-6.36-6.93-6.14-3.13-14.61,7.38-16.48,22.07-25.9,34.78-37.26,4.33-3.87,8.7-7.7,14.17-12.54-10.92-1.52-17.23,4.63-24.59,7.78-8.6,3.68-17.35,7-26,10.49Q786,103.8,803.68,83.73L802.4,82.5C799.21,85,795.48,87,792.94,90c-9.3,11.06-18.21,22.45-27.26,33.72l-5.88.6c2.76-5,5.12-8.86,7.15-12.92,7.19-14.37,18.69-26.65,20.86-43.5.25-2,2.62-3.9,4.36-5.44C798.36,57,804.7,51.71,811,46.35l-.78-2.49H783.62l-.3-2.35c15.44-7.14,29.22-17.36,46.48-21.19s34-9.49,50.9-14.35A11.91,11.91,0,0,0,882,5.86c22.47,0,44.94,0,67.41.12a57.19,57.19,0,0,1,10,1.23c7.75,1.44,15.46,3.05,23.19,4.6h0c1.47,4.42,3.91,8.77,4.25,13.27,1.3,17.07,1.74,34.19,2.89,51.27.49,7.18,2,14.31,3,21.46C989.94,84.62,982,74,974.56,63.35c-4.54-6.51-5.18-12.42-2.85-19.7,6.85-21.38,8.1-17.11-12.85-26.32-15.73-6.92-32.22-6-48.41-8.32a6.66,6.66,0,0,0-2.18.08c-4.85.87-21.63,22-20.72,26.82.36,1.87,2.76,3.75,4.67,4.85,9.25,5.33,18.66,10.36,28,15.58A11.66,11.66,0,0,1,925.45,62c-2.85-.65-5.85-.92-8.52-2-16.86-6.94-34.5-4.1-51.88-4.15-2.85,0-5.91,2-8.51,3.67-7.73,4.92-15.29,10.12-24.71,16.41,18.8-1.06,35.39-3.56,51.74-2.47,16.17,1.07,33.8-.13,48.34,13.9-12.12-1.53-22.75-3.44-33.45-4a87.16,87.16,0,0,0-21.38,2A124.49,124.49,0,0,0,853.31,92c-5.61,2.36-10.58,6.54-15.42,10.41-12.29,9.85-24.36,20-36.49,30a8.24,8.24,0,0,0-3.24,5.2c6.35-2.76,12.86-5.19,19-8.36,5.77-3,10.59-2.51,16.35,3-21.78,26.57-43.57,53.14-66.76,81.44-1.17-5.8-1.48-9.63-2.8-13.07-.92-2.38-2.8-5.12-5-6.17-10.21-4.88-10.29-4.68-16.41,5.22-2.68,4.33-5.17,8.82-8.19,12.91-8.78,11.87-13.7,25.25-13.91,39.83-.26,18.2-11.16,30.18-21.14,43.8C681,321.22,653.56,332.34,629,348c-6.75,4.29-14.33,7.37-20.75,12.07-12.94,9.47-27.94,10.23-42.9,11.57a53.39,53.39,0,0,1-15.77-.36q8.11-8.52,16.21-17.05l-4.32,9a40.72,40.72,0,0,0,5.83-.35c21-4.87,41.94-9.73,61.81-18.79,9.5-4.33,16.41-9.26,19.59-19.54,1.36-4.37,4.6-8.61,8-11.8,14.44-13.46,31-24.5,42.44-41.34,7.41-10.93,15.65-29.34,15.19-41-4.51,7-8.49,13.31-12.66,19.52C693.54,262,687.5,276,672.45,282a67.53,67.53,0,0,0-13.25,7.56c-12.9,9-27.83,7.89-44.46,10.09l16.07-15.33c-19.8,7.6-37.44,23.18-61.32,12.29,3.16-3.73,6.25-7.37,9.35-11,7.18-.5,14.37-.92,21.55-1.54,1.6-.14,3.65-.53,4.61-1.6C610,276.8,614.76,270.92,619.6,265.12Z"/><path class="cls-28" d="M1217.36,138.46c17.77,23.25,28.73,49.44,34.2,78.1,1.17,6.14,3.38,12.07,5.11,18.1.7,5.74,1.28,11.5,2.13,17.21,1.08,7.36,1.88,14.81,3.74,22,1.59,6.13,3.14,13.09,7.08,17.62,10.58,12.2,22.43,23.29,33.77,34.83l-.12,1.78c-4.59-3-9.56-5.52-13.67-9.05-5.69-4.89-10.23-11.2-16.17-15.7-10.9-8.24-12.55-19.55-14-32-1.78-15.49-5.45-30.77-8.61-46.08-1.51-7.34-4.46-14.42-5.46-21.8-2.78-20.69-14-37.86-24.52-54.63-8.46-13.43-21.53-24-32.72-35.65-3.37-3.52-6-1.58-8,2-3.76,6.66-7.64,13.25-12,20.71l-30.64-27.94-1.16.91c5.22,9.33,10.43,18.67,16.56,29.65-18.79-7.59-28-22.54-39.75-35.48,1,2.69,1.92,5.42,3,8.06s2.46,5.28,3.82,7.86c1.75,3.32,2.41,5.82-1.65,8.55-1.67,1.13-1.26,5.34-1.79,8.15-2.16-2-4.42-3.8-6.45-5.88-3.9-4-7.5-4.58-11.74-.22A71.13,71.13,0,0,1,1086.4,140c-6,3.84-6.9,8.93-5.55,15.09,2.71,12.27,5.6,24.49,8.13,36.79.42,2-.14,6-1,6.27-10.34,2.78-20.54,9.32-31.55,5.32-21.73-7.89-43.66-14-66.82-16.47a304,304,0,0,1-82.25-21c-6.29-2.56-11.23-1.91-16.77,2.14-18.8,13.75-37.5,27.31-51,47-7.71,11.22-15.7,21.68-18.36,35.67-2,10.34-5,21.06-10.21,30.07-12.62,21.8-21.67,44.95-29.41,68.71-.7,2.15.72,6.73,2.49,7.65,11.74,6.14,23,13.87,36.88,14.58,16.69.85,31,6.05,40.74,20.8,3.53,5.34,8.31,9.87,13.21,15.57-7.11,4.48-13.17,8.9-19.79,12.2-3,1.51-7.75,2.13-10.7.84-8.61-3.78-16.71-8.71-25-13.19,5.56-.28,11.13-.89,16.68-.78,9.37.18,13-5.9,16.11-14.21a72.61,72.61,0,0,0-7.43-2.37c-4.75-1-9.62-1.37-14.33-2.49-13.07-3.08-25.74-4.27-37.41,4.55-5.12,3.87-9.67.18-14.16-2-12.91-6.4-13.14-6.5-8.35-20.2,8-22.88,16.61-45.55,24.37-68.5a27,27,0,0,0,.51-15.32c-2.3-7.86-1.85-14.39,2.85-21.23,5.48-8,9.82-16.75,15.25-24.78,7.82-11.54,7.93-25.27,11.56-38,1.46-5.09,2.4-10.33,5-15.76,1.36,4.58,2.73,9.17,4.57,15.35,5.5-5.89,10.89-10.37,14.65-15.95,10.13-15,25.47-21.64,41.36-28.06,22.16-9,43.44-7.22,62.67,6.28,14.23,10,29.84,12,46.1,12.77,1.88.09,5.12-2.29,5.66-4.13,4.81-16.5,9.24-33.11,13.59-49.75,1-4-.68-6.5-5.17-6.82-2.89-.21-5.81-1.45-8.62-1.19-7.91.74-10.21-3.73-10.62-10.38,2.18-1.8,4.72-3.3,6.48-5.44,7.22-8.78,7.62-8.58,18.36-5a93.38,93.38,0,0,0,21.1,4.25c8.11.75,16.36-.11,24.49.5a202.8,202.8,0,0,1,22.27,3.34c4.53.86,6.41-.74,6.41-5.15,0-5.09-.4-10.24.28-15.25.3-2.25,2.45-5.64,4.33-6.07,15.93-3.68,36.68,6.89,45,17.93,3.81,5,7.17,10.42,10.74,15.65l2.5-1c-.94-7.51-2.11-15-2.7-22.55-.2-2.64,1-5.39,1.58-8.1,2.47,1.11,5.51,1.65,7.32,3.43q21.32,20.86,42.18,42.18C1209.14,128.43,1213.13,133.56,1217.36,138.46Zm-167.69,55.09c9.12-6.59,17.6-12.44,25.67-18.81,1.36-1.07,1.73-4.52,1.26-6.58-1.69-7.3-3.79-14.53-6-21.69-1.61-5.13-6.12-6.21-8.87-1.65C1053.05,159.12,1044.28,173.61,1049.67,193.55Z"/><path class="cls-16" d="M819.4,408c8.3,4.48,16.4,9.41,25,13.19,3,1.29,7.67.67,10.7-.84,6.62-3.3,12.68-7.72,19.79-12.2-4.9-5.7-9.68-10.23-13.21-15.57-9.75-14.75-24.05-20-40.74-20.8-13.91-.71-25.14-8.44-36.88-14.58-1.77-.92-3.19-5.5-2.49-7.65,7.74-23.76,16.79-46.91,29.41-68.71,5.21-9,8.25-19.73,10.21-30.07,2.66-14,10.65-24.45,18.36-35.67,13.51-19.66,32.21-33.22,51-47,5.54-4.05,10.48-4.7,16.77-2.14a304,304,0,0,0,82.25,21c23.16,2.49,45.09,8.58,66.82,16.47,11,4,21.21-2.54,31.55-5.32.88-.24,1.44-4.25,1-6.27-2.53-12.3-5.42-24.52-8.13-36.79-1.35-6.16-.43-11.25,5.55-15.09a71.13,71.13,0,0,0,12.06-10.44c4.24-4.36,7.84-3.81,11.74.22,2,2.08,4.29,3.92,6.45,5.88l.21,2.71c-.52,9.64-1,19.28-1.58,28.91-.79,13.52-1.87,26.87-9.57,38.83-3,4.59-4.38,10.17-6.51,15.3a63.37,63.37,0,0,1-4.33,6.43,69.76,69.76,0,0,1-5.79,5.46c-6.4-1.13-11,1.17-14.81,6.53-4.3,6.11-9.37,11.68-14,17.59-7.93,10.19-17.74,19.26-18.92,33.39a65.26,65.26,0,0,1-3,13.44c-4.22,13.88-4.06,27.58,1.11,41.17q.77,3.59,1.55,7.17c2.41,10.12,4.51,20.2-3,29.29-1.8-16.84-3.52-33.69-5.39-50.52-1.46-13.1-5.32-25.78-.23-39.37,6.91-18.47,13.39-36.9,26.37-52.23,2.49-3,4.18-6.56,6.56-9.62,3.51-4.51,1.91-6.61-2.58-9.48-17-10.86-36.15-13.08-55.51-15.18-30.91-3.36-61.8-7.07-88.78-24.68a4.63,4.63,0,0,0-1.3-.64c-8.16-2.14-16.27-4.5-24.52-6.18-1.84-.37-5,1.07-6.13,2.68-10.62,15.52-23.06,29.72-28.69,48.53-4.17,14-7.59,28.6-17.71,40.31a243.06,243.06,0,0,0-44.08,73.9c-3.08,8.21-3.24,9.36,5,12.29,23.77,8.41,47.59,16.7,71.5,24.69,5.71,1.91,8.53,4.7,8.07,10.93a98.38,98.38,0,0,0,0,16.73c1.11,11.45-1.13,20.89-12,27.21-4.06,2.35-6.86,6.81-10.46,10-4.05,3.65-8.36,7-13.89,11.61,0-16.91-11.83-22.53-22.92-28.34-6.18-3.24-13.39-4.52-19.59-7.73-7.29-3.77-11.48-1.44-15.4,4.86a123.61,123.61,0,0,1-29.1,32.09c-15.75,12.39-31.82,24.65-42.67,42.17-3.42,5.52-7.9,10.37-11.89,15.53,4.31-19.94,16.51-34.19,32-46.82,10.58-8.66,19.56-19.25,29.26-29,10-10.79,20.16-21.52,30.11-32.41,3.27-3.58,5.9-4.07,9.63-.39,1.74,1.72,4.93,2,7.5,2.84S816.67,407.26,819.4,408Z"/><path class="cls-29" d="M1217.36,138.46c-4.23-4.9-8.22-10-12.74-14.64q-20.88-21.3-42.18-42.18c-1.81-1.78-4.85-2.32-7.32-3.43-.56,2.71-1.78,5.46-1.58,8.1.59,7.54,1.76,15,2.7,22.55l-2.5,1c-3.57-5.23-6.93-10.6-10.74-15.65-8.32-11-29.07-21.61-45-17.93-1.88.43-4,3.82-4.33,6.07-.68,5-.28,10.16-.28,15.25,0,4.41-1.88,6-6.41,5.15a202.8,202.8,0,0,0-22.27-3.34c-8.13-.61-16.38.25-24.49-.5a93.38,93.38,0,0,1-21.1-4.25c-10.74-3.62-11.14-3.82-18.36,5-1.76,2.14-4.3,3.64-6.48,5.44-.51-2.4-1-4.81-1.54-7.21-1-7.15-2.51-14.28-3-21.46-1.15-17.08-1.59-34.2-2.89-51.27-.34-4.5-2.78-8.85-4.25-13.27L987,13.18c6.2,1.39,12.4,3.95,18.57,3.85s12.43-3.1,18.74-4.32a26.19,26.19,0,0,1,10.68-.22c11.86,2.86,23.59,6.28,35.36,9.5,1.39.38,3.08.46,4.09,1.32,11.66,10,27.17,11.9,39.94,19.41a82.35,82.35,0,0,1,15.79,12.53c7.76,7.65,15.26,15.46,25.9,19.13,3,2,6.36,3.57,8.86,6.05C1183.53,98.77,1205,114.56,1217.36,138.46Z"/><path class="cls-30" d="M981.49,145.13c-4.59-6.19-8.32-11.22-12.07-16.24-2.32-3.11-4.08-7.15-7.16-9.06-4.12-2.55-9.27-3.43-14-5-.43,4.11-1.12,8.2-1.23,12.32-.1,4,.38,7.95.7,13.48l-18.82-19c-1.9.88-2.66,1-2.72,1.29-2.38,10.4-11.11,13.7-19.34,17.89-12.54,6.37-24.66,13.59-37.32,19.72-3.14,1.52-7.94,1.17-11.44,0-6.19-2-12-5.29-17.92-8-3.46-1.57-4.86-3.93-2.94-7.55,2.25-4.27,4.13-8.82,6.92-12.71C852.26,121,860.74,110.1,869,99c6.09-8.12,13.21-12.76,24.19-9.92,9.36,2.42,19.09,3.44,28.67,5,1.91.32,4.05,1,5.75.49,12-3.85,21.05,2,30,8.69,3.29,2.46,7,4.34,10.47,6.59C981.28,118.43,984.78,127,981.49,145.13Z"/><path class="cls-29" d="M578.84,285.57c-3.1,3.64-6.19,7.28-9.35,11,23.88,10.89,41.52-4.69,61.32-12.29l-16.07,15.33c16.63-2.2,31.56-1.1,44.46-10.09A67.53,67.53,0,0,1,672.45,282c15-6,21.09-20,29.24-32.13,4.17-6.21,8.15-12.54,12.66-19.52.46,11.67-7.78,30.08-15.19,41-11.4,16.84-28,27.88-42.44,41.34-3.42,3.19-6.66,7.43-8,11.8-3.18,10.28-10.09,15.21-19.59,19.54-19.87,9.06-40.79,13.92-61.81,18.79a40.72,40.72,0,0,1-5.83.35l4.32-9,1.46-1.46,40.63-19.47-.75-2.16c-2.82,0-5.74-.48-8.44.08-13.87,2.9-27.2,1.18-39.5-5.5-5.48-3-11.55-7.07-14.28-12.28-2.24-4.25-4.47-5.23-7.36-3.91-4.49,2.06-8.37,5.45-12.51,8.28l-1.6-.07c4.36-3.92,8.33-8.43,13.17-11.64,9.09-6,18.54-11.57,28.12-16.78,4.35-2.37,9.39-3.47,14.11-5.14Zm30.58,32c-.51-13.65-4.22-16.47-15-11.77-9,3.91-17.58,8.63-26.36,13l.5,1.84Z"/><path class="cls-31" d="M605.16,387.68c1.75-15.45,9.43-27,23.21-34.15,11.18-5.78,22.49-11.4,34.13-16.15,5.67-2.31,12.3-2.17,18.35-3.7,3.33-.84,7-2.2,9.45-4.45,10.4-9.4,20.29-19.38,30.71-28.77,2.1-1.9,5.67-2.16,8.56-3.18.15,3.09,1.16,6.46.29,9.23-3.4,10.73-7.39,21.28-9.74,33l14.69-9.91,2.29,8h7c-1.75,2.22-2.69,3.42-3.62,4.62-1.73.49-4.05.44-5.1,1.57-8.72,9.37-17,19.19-25.9,28.35-3.36,3.45-7.84,6.66-12.38,7.93-11.63,3.26-23.56,5.48-35.42,7.87a12.66,12.66,0,0,1-7-.49c-6-2.52-11.8-5.55-17.67-8.38,6.38,1.4,12.74,3,19.17,4.13,2.51.46,6,1.15,7.61-.11,10-8,19.57-16.48,30.29-25.67-20.18,5.68-38.32,10.7-56.39,16-1.88.55-3.3,2.69-4.93,4.09L628.55,374l41.5-11.86c-9.51-.36-18.67,1.3-27.89,2-8.52.59-15.17,4.16-21.2,9.82C615.87,378.7,610.44,383.11,605.16,387.68Zm67.87-35c.4.65.8,1.29,1.19,1.94,10.53-6.18,20.65-13.25,31.7-18.29,13-5.91,13-18.3,18.06-28.27l-1.74-1.43Z"/><path class="cls-32" d="M605.16,387.68c5.28-4.57,10.71-9,15.8-13.76,6-5.66,12.68-9.23,21.2-9.82,9.22-.65,18.38-2.31,27.89-2L628.55,374l4.22,3.49,4.25,1.58c5.87,2.83,11.66,5.86,17.67,8.38a12.66,12.66,0,0,0,7,.49c11.86-2.39,23.79-4.61,35.42-7.87,4.54-1.27,9-4.48,12.38-7.93,8.94-9.16,17.18-19,25.9-28.35,1-1.13,3.37-1.08,5.1-1.57l-4.24,6.06c-5.06,7.12-9.54,14.75-15.36,21.18a67.24,67.24,0,0,1-16.28,12.65c-22.51,12.94-47.45,17.75-72.87,20.84-4.25.51-6.63,0-8.49-4.36-1-2.26-4.23-4-6.82-5s-5.7-1-8.58-1.42C605.51,391.54,600.42,392.53,605.16,387.68Z"/><path class="cls-33" d="M525,317.76c4.14-2.83,8-6.22,12.51-8.28,2.89-1.32,5.12-.34,7.36,3.91,2.73,5.21,8.8,9.3,14.28,12.28,12.3,6.68,25.63,8.4,39.5,5.5,2.7-.56,5.62-.08,8.44-.08l.75,2.16-40.63,19.47c3.65-5.59,7.3-11.19,12-18.39-13.38,1.51-24.8,3-36.26,4a83.19,83.19,0,0,1-16.47-.31c-4.06-.47-5.85.29-6,4.63-.2,5.3-.92,10.59-1.45,15.88-.12,1.19,0,3.05-.71,3.43-9,5.08-4.25,13.06-4.27,20,0,4.82.43,9.65.68,14.47-1.48-8.7-3.21-17.36-4.36-26.1a112.18,112.18,0,0,1-1.09-18.75c.18-4.64.82-9.7,2.89-13.72C515.82,330.78,520.69,324.41,525,317.76Z"/><path class="cls-34" d="M798.55,201.11l-7.46,19.57c12.57-4.14,14.89-14.52,17.45-24.71l2.57.18c.8,2.33,2.43,4.72,2.28,7-.76,11.09-2,22.15-3.07,33.21a4.05,4.05,0,0,1-.66,2c-10,12.57-20,25.11-30.69,37.15,6.2-17.87,20.44-32.23,20.37-52.6q-9.72,16.27-19.45,32.53l-2.85-.53c0-4.7-1.47-10.05.26-14,6-13.71,13.1-26.94,19.78-40.35Z"/><path class="cls-35" d="M109.56,564c6.79-6.59,13.72-13,20.34-19.81,7.37-7.54,14.63-14.7,26.38-14.81,3.23,0,6.43-3,9.67-4.51,3.43-1.66,6.89-3.25,10.32-4.89,1.5-.72,4-1.24,4.27-2.32,2.17-8,9-7.49,15-8.82s11.75-3,17.63-4.53c-8.14,5.21-16.07,10.8-24.47,15.55-16.45,9.31-33.26,18-49.69,27.35-2.87,1.63-5.24,5-6.7,8.11-5,10.68-5.53,11.16-17,9.33C113.42,564.39,111.49,564.25,109.56,564Z"/><path class="cls-36" d="M531.64,527.7a61.77,61.77,0,0,1-16,30.24c-3.13,3.37-6.32,6.72-9.14,10.34-3.43,4.42-6.1,3.93-8.76-.64-1.95-3.35-4-6.62-6.1-9.91-5.07-8.06-5.09-8.07,3.1-12.19q14.64-7.37,29.33-14.64C526.11,529.89,528.27,529.11,531.64,527.7Z"/><path class="cls-37" d="M523.88,385.22c3.56-8,7-16.16,10.75-24.1,1.93-4.06,4-8.34,7-11.49,2.06-2.12,6.71-4.12,8.88-3.17,3.83,1.68,3.78,10.79.47,14.25-6.36,6.64-13,13-19.41,19.63-2,2-3.42,4.59-5.11,6.91Z"/><path class="cls-30" d="M889.34,62.29C921,63.42,945.82,76.9,968.41,94.53Z"/><path class="cls-22" d="M532.15,443.14c4.67,4.88,5,10.72,3.78,16.92-1,4.94-2,9.87-3.42,16.94L506,454.67c5,0,10.09.05,15.13-.15C529.94,454.15,531.66,452.29,532.15,443.14Z"/><path class="cls-38" d="M521.29,401l30.9-26.75L555,376c-3.07,7.79-4.19,17.9-9.83,22.67C540.39,402.63,530.38,400.39,521.29,401Z"/><path class="cls-39" d="M62.71,619.13c1.72-3.76,3-7.82,5.25-11.21,3.4-5.07,7.51-9.67,11.32-14.46a6.55,6.55,0,0,1,1.23-.25C82.75,607,80.3,610.61,62.71,619.13Z"/><path class="cls-4" d="M392.29,470.68c8.82-2.23,17.36-4.37,25.52-9.41,4.86-3,13.07-.59,19.77-.61Z"/><path class="cls-40" d="M500.89,524.36c-4.28-12-2.67-27.36,4.05-32.36C503.55,503.11,502.34,512.76,500.89,524.36Z"/><path class="cls-41" d="M356.05,485.47c9.64,0,16.75-6.16,24.79-10.07,2.33-1.13,4.74-2.12,7.12-3.18-8.53,9.71-18.64,15.91-32.19,14.42A6.65,6.65,0,0,1,356.05,485.47Z"/><path class="cls-42" d="M531.17,438.7c-.6-2-1.21-3.94-1.81-5.92-.13-.43-.25-.87-.35-1.32-2.07-4.41-4.08-8.84-6.23-13.21-1.67-3.4-3.5-6.72-5.26-10.08,6.18,6.77,14.54,12.17,14.57,22.8A63.87,63.87,0,0,1,531.17,438.7Z"/><path class="cls-35" d="M87.63,584.31c4.66-5.38,9.11-11,14.1-16,2-2,5.19-2.86,7.85-4.24Z"/><path class="cls-22" d="M455.07,453.31c14.9,0,29.8-.14,44.71-.06,2.07,0,4.14.93,6.21,1.42l-51.1-.15A12.16,12.16,0,0,1,455.07,453.31Z"/><path class="cls-1" d="M1202.79,1562.09a83.63,83.63,0,0,1-8.48,3.85c-14.11,4.64-28.27,9.11-42.41,13.65-11.82,2.22-23.64,4.42-35.44,6.69-8,1.55-16,3.27-24,4.79-7.11,1.36-14.36,2.12-21.34,3.93-5.63,1.45-9.93.53-13.54-4-7-8.71-16.77-12.7-27.09-15.69L1019,1562c-.6-2.32-.83-4.83-1.87-6.94-4.41-8.89-10.72-17.22-13.18-26.58-2.93-11.11-8.38-18.24-18.53-23-2.69-1.27-5.08-5.7-5.4-8.91a164.08,164.08,0,0,1-.19-23.26c.26-6.12-1.68-10.38-6.83-14.14-14.83-10.82-27.15-23.48-33.74-41.54a193.8,193.8,0,0,0-19.19-38.2c-6.27-9.72-7-19.56-5.36-29.84,2.13-13.48,1-25.81-6.62-37.57-1.93-3-2.14-7.89-1.44-11.58,1.68-8.9,1.32-9.57-7.86-11-10.46-1.62-20.83-3.8-31.24-5.74.05-.46.09-.91.14-1.37,9.89-16.63,19.88-33.21,29.62-49.93,4.41-7.57,10.36-11.75,19.4-11.49,6.65.2,11.35-2.66,14-9.32a56.07,56.07,0,0,1,8.58-15.13c3.05-3.67,7.43-7.19,11.89-8.51,7.12-2.11,14.82-2.21,22.23-3.43,2.24-.37,4.34-1.63,6.5-2.48-1-2.31-1.62-5-3.22-6.84-4.12-4.66-8.23-9.28-6.9-16,.37-1.87,2.62-4.76,4.07-4.8,11-.26,22.14-.39,33.15.39,6,.43,11.77,2.71,17.64,4.15.22-.61.43-1.22.64-1.83-9.23-7.75-18.53-15.41-27.62-23.33-1.82-1.59-4.41-4.68-3.91-6.14,2.76-8.06,6.37-15.82,9.69-23.69l2,.15,13.25,26.81c2.77-2.35,4.33-3.81,6-5.09,11-8.29,22.13-16.38,33-24.86,5.69-4.45,11.21-4.43,17.65-1.93,7.78,3,15.86,5.27,25.8,8.49-2.55-7.21-4.67-12.27-6-17.51-.66-2.52-1-6.52.38-7.94,5-5.07,10.91-9.32,16.47-13.88l.53.81-5.67,10.36c1.71.84,2.35,1.45,3,1.43,11.61-.39,23.24-.61,34.8-1.58,1.58-.13,3.91-4,4-6.25.26-5.19,2.49-8,7.26-9.54,3.73-1.25,7.24-3.17,12.43-5.5l-21.6-12,34.63-14.89V1029l-28.53-12.34c2.31-1.08,3.29-1.84,4.37-2,15.29-2.12,30.39-5,45.28,3.19,8.87,4.9,9.41,4,14.51-4.73,1-1.67,1.57-3.64,2.79-5.1,5.28-6.32,5.53-11.92-1.88-16.79-.21-.13,0-.88,0-2.34,6.43-1.23,13-2.8,19.59-3.67,6.39-.83,7.76-3.59,5.24-9.34-2.24-5.11-3.91-10.47-6-16.15,17-.4,17.1-.44,21.85-6.49l-29-14.78,11-9.21c-9.81-6.11-19.1-11.3-27.71-17.43-7.31-5.21-15.06-6.16-23.49-5.28-4.33.46-8.84.24-13,1.42-3.3.94-6.93,2.91-9,5.55-3.82,4.93-6.6,10.67-9.81,16.07l-7.06,1c2.49-15.1,4.81-29.15,7.13-43.2a572.89,572.89,0,0,0,36.67-107.84,204,204,0,0,1,13.4-38.27c7.8-17.2,17.07-33.74,25.71-50.55,5.94-13.7,11.36-27.65,18-41,5-10.16,3.7-19.49-.4-29.15.33-8.74-.1-17.31-5.82-24.64-.1-1.41-.21-2.81-.31-4.22,6.29-5.66,12.45-11.46,18.91-16.92,4-3.43,5-6.1,0-9.62-4.66-3.3-8.86-7.24-15.18-12.49-.43,8.37-.74,14.42-1.19,23-5.31-5.31-9.34-9.15-13.16-13.19-5.17-5.45-10.11-11.11-15.26-16.57-6.22-6.59-3.47-16.5,5.06-19.54,3.48-1.24,6.32-4.18,9.62-6a9.51,9.51,0,0,1,5.11-1.3c17.42,1.53,31.17,11.43,45.37,20.25a6.8,6.8,0,0,1,2.74,4,83.72,83.72,0,0,1-2.31,43.32c-2.79-1.68-5.41-2.8-7.44-4.59-4.64-4.1-7.72-2.71-10.2,2.24-.21.44-.46.86-.7,1.28-5.88,10.54-5.87,10.52,4.68,16.75,2.71,1.6,5.36,3.32,8,5,8,5.2,10.85,11.24,7.85,20-1,3-4.53,5.45-7.45,7.25-15.76,9.72-16.31,10-4.21,24.39,9.11,10.8,14.29,22.12,12.26,36.41-.47,3.35.39,6.89.75,11.93,3.51-2.23,5.73-3.19,7.37-4.76,7-6.78,16.1-7.5,25-8.24,2.33-.19,5.11,1.29,7.2,2.7,7.23,4.9,14.36,9.95,21.29,15.25,4.28,3.27,7.32,2.52,10.4-1.55s6.66-7.7,9.71-11.77c2.73-3.63,5.22-3.74,8.29-.54,8.56,8.94,17.75,17.45,14.88,31.83-1.3,6.52,2.11,11.4,7.32,14.7,7.54,4.76,11.43,11.63,13,20.1,1.46,7.65,5.27,13.76,11,19.17a43.94,43.94,0,0,1,9.27,12.81c10.9,23,20.69,46.57,32.26,69.22,5.76,11.27,1.33,19.39-5.17,26.53-14.18,15.57-29.61,30-44.1,45.3-3.42,3.61-5.16,8.82-7.67,13.29-1.74,1.59-3.82,3-5.16,4.83-3.83,5.4-6.79,11.53-11.15,16.43-5.33,6-11.72,11.06-11.68,20.07a1,1,0,0,1-.18.7c-11,10.39-10.9,27.64-23.67,37.28-5.1,3.86-7.8,10.77-12.05,15.91-1.63,2-5.19,4.55-6.72,3.94-2.49-1-4.07-4.32-5.93-6.75a3,3,0,0,1-.45-2.1c2.74-15.21-8.15-21.92-19.49-28.74l7.5,19.14-19.42-1.49c4.14,9,7.19,16.72,11.2,23.93a187.73,187.73,0,0,0,13.26,20c3.64,5,3.55,8.85-.67,13.48-5.25,5.75-4.7,7,2.28,10.32,6.07,2.91,12.07,6,20.15,10l-25.87,11.52c8.42,2.74,9.75,6.93,6.37,13.07-.66,1.19,0,4.42,1,5,9.55,5.47,19.32,10.57,30.34,16.48.58-6.52,1-11.18,1.51-17.12,6.43,1.91,12.26,3.24,17.77,5.4,4.48,1.75,2.08,4.83.06,6.87-12.3,12.4-10,27.7-7.83,43.41,3.87-7.17,7.75-14.33,12.51-23.11l9.07,20.82c1.21-6.1,1.71-10.81,3.38-15.06.32-.82,5.27.17,8.08.33,2.34,3.32,5.48,6.34,6.86,10,3.06,8.16,5.11,16.69,7.82,25,1.72,5.29,1.46,10.13-2.46,14.23-3.63,3.79-2,6.2,1.49,8.74,5,3.65,9.79,7.53,15.46,11.93l-34.87,19.39c.24.62.47,1.25.71,1.87l33.48,2.55c.67.89,1.33,1.79,2,2.69-1.77.75-3.52,1.53-5.3,2.25-9.63,3.92-18.95,9.64-29,11.34-19,3.23-29.07,17.47-41.64,28.89,2.48-.9,4.25-2.9,6.46-4.07,3.73-2,7.84-5.11,11.6-4.86,10.13.68,20.22,3.4,29.31-5.6a109.81,109.81,0,0,1,1,18.15c-.22,15.24,2.28,15.2-14.43,12.37-4.68-.79-11.07-2.72-14-.54-8.14,6.08-14.87,14-22.7,21.81,4.4,2.72,7.64,4.78,10.92,6.74,9.58,5.73,9.59,5.71,15.83-3.63,8.92-13.34,22.66-18.45,40.43-14.18-3.47,5.07-6.12,10.25-10,14.3-6.84,7.18-15,13.12-21.5,20.59-6.8,7.84-14.45,9.49-24,7.7-4.48-.83-9.24-.14-13.88-.14l-.6,2.64c3.8,1.18,7.57,3.21,11.4,3.33,5,.14,10.1-1.07,15.1-2,7.6-1.4,15.13-2,21.11,4,3.35,3.32,5.87,7.46,9.24,11.85,5.12-5.66,10.65-11.94,16.41-18,1.73-1.82,4.36-4.59,6.13-4.28,9,1.53,17.78,3.92,26.64,6-8.94,10.91-22.61,11.21-34.56,15.32-7.52,2.59-7.67,2.87-2.85,9,2.11,2.7,3.81,5.71,5.69,8.58-.51.72-1,1.43-1.54,2.14l-14.69-4.83c-.43,2.12-1.17,3.74-1,5.28,1.42,14.68-6.4,24-17.79,31.45a36.64,36.64,0,0,0-6.25,5c-16.2,16.71-37.28,26.67-55.84,40.11-8.1,5.86-19.13,7.75-27,13.81-14.55,11.17-32,15.84-47.81,24.06-10.87,5.66-22.31,10.23-33.36,15.56C1214.4,1555.39,1208.66,1558.87,1202.79,1562.09Zm-250.06-180c2.53-22.65,6.71-42.83,6.07-64.17-7.09,5.19-14.35,10.32-17.88,17.33-3.78,7.51-4.31,16.74-5.74,25.31-.43,2.58-.09,6.34,1.52,8C941,1373,946.12,1376.62,952.73,1382.07Zm-18.3-99.61c17.21-5.25,29.62-30.37,20.91-41.79Zm-29.3-11.83,2.12.37q6.3-15.75,12.61-31.49c1.46-3.64-.19-6.06-3.64-6-2.55,0-7.13,1.51-7.33,2.86C907.18,1247.69,906.27,1259.18,905.13,1270.63ZM1368,761.92l2.41,1.64,21.74-14.7-.87-2.57c-3.93-1.66-7.8-3.54-11.84-4.86-1.2-.39-3.84.37-4.22,1.28C1372.53,749,1370.31,755.49,1368,761.92ZM1002.27,1413l25-31.73C1015.19,1380.92,1000.13,1401.92,1002.27,1413Zm404.27-651.65c-5.47,10.89-10.3,20.48-15.13,30.08C1405.42,776.66,1409.79,768.34,1406.54,761.39Z"/><path class="cls-4" d="M1244.85,591.73c.1,1.41.21,2.81.31,4.22-4.08-6.57-8.05-13.21-12.25-19.71-5.24-8.08-9-18.34-16.31-23.63-25.31-18.32-54.11-30.28-83.8-41.07a28.2,28.2,0,0,0,1.48,2.86,497.87,497.87,0,0,1,49.34,91.23c2.56,6.27,3.28,11.44-.71,17.67-5.72,8.93-10.18,18.66-15.18,28.05l-4.29,7.38-1.61-.2c.9-2.22,1.69-4.51,2.74-6.66,5.83-12,10.92-24.1,9.11-38-1-7.86-.92-15.85-1.71-23.74-.25-2.49-1.77-4.85-2.7-7.26-8.69-20.84-19.17-40.63-33.67-58.1l-11.85-19.56-2.63,1.12c0,10.58-.07,21.15,0,31.72.15,16.69-.19,33.18-4.19,49.67-3.68,15.15-5,30.86-7.37,46.32,0,6.31-.27,12.62,0,18.91.1,2.22,1,5.8,2.37,6.34,10.73,4.07,21.68,7.52,32.56,11.17-2.18,1.42-4.59,2.58-6.5,4.3-6.38,5.78-11.49,3.19-16.65-1.9-2.67-2.64-5.89-4.72-8.86-7.06-8.87-7.65-17.39-15.78-26.81-22.68-3.13-2.3-8.84-.73-12.91-2.2-6.14-2.23-8,2.75-11.43,5.38q-7.09,5.52-14.17,11.06l-9.36,2.71q5.52-6,11-12l-1.52-1.54c-10.39,9.56-21,18.87-31.12,28.75-14.43,14.16-25.38,32-44.44,41.21-1.46.71-2.55,2.19-3.82,3.31-14.84,5.68-26.38,16.7-31.91,30.27-6.45,15.85-9.36,33.54-6.69,51.36A146.58,146.58,0,0,1,931.29,826c-.07,3-2.94,7.33-5.7,8.72-9.28,4.68-18.79,9.71-28.8,11.91-8.17,1.8-17.2-.13-25.83-.65-6.43-.39-12.83-1.17-21.36-2,5.49,9.39,9.76,17.41,14.84,24.87,1.22,1.79,5.17,2.45,7.84,2.4,7.65-.15,15.29-.94,22.94-1.47.14.6.29,1.2.44,1.81-5.7,2.18-11.55,4-17.07,6.62-14.22,6.61-28.9,12.54-42.26,20.63-11.83,7.16-24.81,7.67-37.43,10.58l-4.28-.12-12,2.46-.93-1.69c3.9-2.28,7.65-4.85,11.71-6.78,6.9-3.27,10.51-8.18,11.74-16,2.31-14.71,2.7-14.54-10.06-22.45-7.59-4.71-15.16-9.49-22.39-14.73-17.38-12.62-24.32-32.21-32.7-50.65-6.2-13.63-11.24-27.79-16.8-41.72,2,2.75,4.23,5.35,5.92,8.26,14.08,24.19,29.72,46.83,51.66,65.09,17.76,14.78,9.61,13.45,32.06,8.44,14.36-3.19,28.35-7.22,43.69-4.92,17,2.55,34.39,2.85,50.83-4,2.64-1.1,6-3.87,6.42-6.33,1.65-9,2.14-18.26,3.23-27.39.75-6.19-1.5-10.11-7.52-12.31-7.51-2.74-14.94-5.79-22.19-9.16-3.17-1.47-7.13-3.45-8.48-6.27-5.63-11.8-10.4-24-15.49-36l-.05,0c9.37-.59,18.75-1,28.11-1.81,15.08-1.24,15.69-2.05,18.72-15.45,1.11-4.92-.48-7.19-5-8.55-4.83-1.47-9.55-3.3-14.32-5,11.51-1.66,23-3.78,34.55-4.83a185.23,185.23,0,0,1,26.55-.16c6.93.37,13.81,1.85,20.71,2.84-6.43-4.59-13.25-7.73-19.78-11.39a24.7,24.7,0,0,0-17.38-2.76c-18.46,3.21-37,8.89-55.78,1.45-1.44-.57-3.35,0-5,.08,11.68-8.17,23.43-16.27,35-24.56,8-5.67,7.88-5.79,2.68-13.63-4.83-7.27-9.34-14.79-14.64-21.71-4.14-5.4-3.13-9.49,1-14.06,7-7.73,14.12-15.37,20.33-23.69,2.82-3.78,5-9.09,5.05-13.74.25-19.88.65-39.59,4.45-59.3,6.22-32.32,9.66-65.28,23.84-95.55a19.54,19.54,0,0,1,8.08-8.37c18.08-9.52,37.7-13.67,57.93-15.08,7.21-.5,12.54-3.23,15.39-10.07l4.31-6c7.52-9.09,5.42-19.17,3-29.29,4.52,11.23,9.09,22.43,13.52,33.69,1.92,4.85-1.76,6.57-5.15,8-20.07,8.53-40,17.36-60.37,25.2-7.12,2.75-8.48,5.7-5.26,12.2,2.29,4.63,3.71,9.68,6.32,16.67,5-7.74,9-13.4,12.46-19.36,2.76-4.76,6.4-6.78,11.9-6.42,12,.78,24.06,1.23,36.09,1.82l.32,2.71-27.27,3.36c9.89,2.69,19.81,5.25,23.36,16.72-10.94-4-22-7.76-32.77-12.14-4-1.63-6.08-.84-8.54,2.38-4,5.19-8.4,10-12.73,14.95-6.88,7.8-6.62,9,1.32,15.51,6.51,5.36,12.55,11.29,18.79,17a153.45,153.45,0,0,1-28.84-9c-7.64-3.27-13.6-3.24-20.35,2.75-11.21,9.94-22.63,19.3-21.34,36.24.42,5.6.72,11.59,2.9,16.6,5.21,12,11.65,23.39,17.34,35.16,8.11,16.8,14.59,33.91,9.8,53.18-1,4.15.53,10-1.82,12.6-9.25,10.31-16.36,23.29-31,27.77-2.06.63-3.86,2.13-7,3.91,2.79,1.26,4,2.11,5.3,2.34,20.75,3.72,41.49,7.56,62.32,10.77,2.57.39,6.34-2,8.38-4.23,6.27-6.73,11-15.31,18.1-20.78,14.79-11.3,30.08-22.34,46.48-31,10.81-5.72,16.15-11.66,14.24-23.89a33.12,33.12,0,0,1,7.77-27.75c8.28-9.72,11.23-21.15,9.71-33.86-.49-4.07,0-8.25-.15-12.37-.08-1.9-.09-4.28-1.17-5.58-8.26-9.86-14.8-21.88-30.85-21.07-6.91.35-14-2-22.93-3.38,8.24-10.58,11.85-20.25,6.89-31.23,11.41,6.21,22.75,12.57,34.31,18.49,1.87.95,4.79.22,7.14-.2a51.1,51.1,0,0,0,9.12-2.43c10-3.76,18.23-4,27.44,4.41,13.51,12.34,29.35,22.12,43.93,33.34,8.42,6.48,16.4,13.54,24.41,20.54,6.19,5.42,12.58,10.73,18,16.85a125.13,125.13,0,0,1,13.28,18.71C1238.47,578.11,1241.47,585,1244.85,591.73Z"/><path class="cls-43" d="M1124,212.81c-1.68-9.82-2.43-19.55,3.36-30.29,1.6,4.56,2.84,7.82,3.88,11.14,5.07,16.15,9.52,32.28,19.3,46.8,9.3,13.78,15.84,29.39,24,44,8.61,15.47,17.28,30.92,26.67,45.91,5.38,8.61,9.31,17.29,10.4,27.48.39,3.72,2.8,7.46,5,10.7a35.76,35.76,0,0,0,7.65,7.74c10,7.77,15.18,17.62,15.21,30.5,0,2.56,2.87,6.14,5.38,7.5,8.73,4.73,17.83,8.82,26.9,12.9,4.42,2,7.16,4.72,7,9.86-.37,11.27,6.34,19.5,12.13,28.15s4.87,10.77-4.85,13.93c-4.15,1.35-8.38,2.46-12.56,3.75-5.09,1.58-6,4.47-2.59,8.63a4.1,4.1,0,0,1,.86,1.17c1.08,3.36,2.1,6.73,3.14,10.1-5.12,1.43-10.73,4.92-15.24,3.83-9.08-2.19-17.52-7-26.31-10.48-4.6-1.83-6.47-5.17-5.72-9.72,1.73-10.52-2.75-17.23-11.6-22.64-14.25-8.71-25.5-20.55-34.52-34.76-5.56-8.78-12.26-16.88-19-24.87-4.19-5-5.62-9.05,2.68-13.64l-35.69-19.2c-1.92,7.8-3.14,14.38-5.29,20.64-.84,2.45-3.52,5.56-5.8,6-6.69,1.21-10,4.05-9.08,11.16.21,1.5-.57,3.14-1,5.3-1.58-.73-2.8-1-3.57-1.7-9.06-8.42-18-17-27.09-25.35-4.08-3.71-5.42-7.4-1.41-11.79,5.81-6.37,5.84-12.28.37-19.28-5.06-6.45-8.33-14.27-13.19-20.9-5.51-7.51-7.06-15.56-6.58-24.61.49-9.2.16-18.44.12-27.66,0-5.88,2.74-8.91,9.69-9.3,0,3.35.31,6.39,0,9.34-1.06,8.66-2.46,17.28-3.56,25.93-.3,2.38-.76,5.2.19,7.17a17.65,17.65,0,0,0,6.21,7.35c1,.61,4.59-1.9,6.29-3.67,5.63-5.87,8.48-12.84,7.38-21.19-.69-5.28-.44-10.76-1.73-15.87-2.78-11,.5-19.95,6.08-29.47,8.35-14.26,20.35-25.11,31.1-37.15,1.38-1.54,3.62-2.3,5.46-3.42,1,38.48,16,72.51,33.54,105.73,5.15,9.72,10.28,19.45,16.45,31.12l-28.36-6.86c12.52,22.05,27.62,32.18,43,29.36-.91-2.53-1.62-5.09-2.71-7.47-11.19-24.51-22.79-48.83-33.54-73.52-8.31-19.06-15.77-38.51-23.16-57.95C1126.81,226.67,1125.74,219.62,1124,212.81Zm-17.34,83.9c.58-2.26,1.34-3.63,1.21-4.92-1.36-14.08-2.85-28.14-4.31-42.21-2.33,13.88,2.63,29.17-11.8,40,4.07,2.2,6.34,3.53,8.7,4.67C1102.18,295.08,1104,295.66,1106.68,296.71Z"/><path class="cls-44" d="M1057,462c5,11,1.35,20.65-6.89,31.23,9,1.42,16,3.73,22.93,3.38,16-.81,22.59,11.21,30.85,21.07,1.08,1.3,1.09,3.68,1.17,5.58.17,4.12-.34,8.3.15,12.37,1.52,12.71-1.43,24.14-9.71,33.86a33.12,33.12,0,0,0-7.77,27.75c1.91,12.23-3.43,18.17-14.24,23.89-16.4,8.67-31.69,19.71-46.48,31-7.14,5.47-11.83,14-18.1,20.78-2,2.2-5.81,4.62-8.38,4.23-20.83-3.21-41.57-7-62.32-10.77-1.31-.23-2.51-1.08-5.3-2.34,3.1-1.78,4.9-3.28,7-3.91,14.6-4.48,21.71-17.46,31-27.77,2.35-2.62.79-8.45,1.82-12.6,4.79-19.27-1.69-36.38-9.8-53.18-5.69-11.77-12.13-23.19-17.34-35.16-2.18-5-2.48-11-2.9-16.6-1.29-16.94,10.13-26.3,21.34-36.24,6.75-6,12.71-6,20.35-2.75a153.45,153.45,0,0,0,28.84,9c-6.24-5.68-12.28-11.61-18.79-17-7.94-6.55-8.2-7.71-1.32-15.51,4.33-4.91,8.76-9.76,12.73-14.95,2.46-3.22,4.52-4,8.54-2.38,10.78,4.38,21.83,8.14,32.77,12.14C1054.86,449.08,1053.29,457.29,1057,462Zm-20.43,97.75c0-3.14.13-6.29,0-9.43-.21-4.35-9.71-17.59-13.15-16.76-4.15,1-7.63,4.93-11.28,7.74-11.23,8.67-10.57,18.71-4.49,30.36,3,5.74,5.27,8.58,12.36,7.1C1037.64,575.07,1036.56,578.42,1036.52,559.74Z"/><path class="cls-40" d="M1278.11,353.59c-6.79-.43-13.58-.85-20.36-1.3-.47,0-.91-.38-1.38-.44-21.46-2.49-33.47-17.74-46.76-32.51-11.76-13.08-17.55-28-22-44.22-1.32-4.78-4.24-9.18-6.78-13.55-2.71-4.69-5.84-9.14-8.78-13.7l1.48-1.38,19.75,14.71c-7.1-21.89-22-39.93-15.39-64.27,10.78,26.41,21.21,52,31.65,77.57-1.85-32.51-9.89-63.51-21.27-93.77l1.71-.69c4.77,8.5,9,17.33,14.4,25.44,9,13.64,10.81,29.39,14.51,44.64,1.36,5.63,1.55,11.12,8.42,14.68,4.5,2.33,6.64,9.24,9.83,14.1,7.7,11.77,15.7,23.36,23,35.38,7.1,11.69,13.48,23.82,20.18,35.76Z"/><path class="cls-9" d="M1168.69,494c-9.13-5.35-18.35-9.77-26.25-15.89-2.77-2.14-2.67-8.4-3.24-12.85-.69-5.47-2.24-8.62-8.77-7-2,.49-5.43-.9-6.87-2.58-8.3-9.73-16.21-19.8-25.49-31.3,2.93.92,4.14,1.1,5.15,1.65,8.82,4.9,17.35,10.4,26.48,14.64,7.76,3.62,15.17,6.82,20.46,14.26,5.16,7.26,11.66,13.58,17.69,20.21C1172.75,480.53,1173.17,486.22,1168.69,494Z"/><path class="cls-34" d="M1039.55,345.4c-5.17-13.59-5.33-27.29-1.11-41.17a65.26,65.26,0,0,0,3-13.44c1.18-14.13,11-23.2,18.92-33.39,4.59-5.91,9.66-11.48,14-17.59,3.78-5.36,8.41-7.66,14.81-6.53-18,13.14-27.46,32.66-39,50.85-7.37,11.59-6,22.87-4.36,34.85.42,3.12.35,6.37,1.26,9.33C1049.42,336.29,1048.28,342.42,1039.55,345.4Z"/><path class="cls-45" d="M1099.2,221.39c2.13-5.13,3.56-10.71,6.51-15.3,7.7-12,8.78-25.31,9.57-38.83.56-9.63,1.06-19.27,1.58-28.91,3.2,10.6,6.6,21.15,9.47,31.85a12.37,12.37,0,0,1-.78,8.36c-7.28,13.32-15,26.42-22.63,39.52C1102.12,219.45,1100.46,220.3,1099.2,221.39Z"/><path class="cls-39" d="M1303.27,328.08l.12-1.78c7.56,8.31,14.75,17,22.78,24.83,7.15,7,15.37,12.8,22.82,19.46,3.14,2.82,5.52,6.49,8.25,9.78l-.18,7.44q-25.29-27.43-50.56-54.91A37.16,37.16,0,0,1,1303.27,328.08Z"/><path class="cls-46" d="M1380.62,524.69c-.07-.64-.15-1.27-.22-1.9q.16-7.85.32-15.68l1.55-.06C1388.05,513.52,1383.11,519,1380.62,524.69Z"/><path class="cls-19" d="M1157.53,929.62c3.21-5.4,6-11.14,9.81-16.07,2-2.64,5.67-4.61,9-5.55,4.11-1.18,8.62-1,13-1.42,8.43-.88,16.18.07,23.49,5.28,8.61,6.13,17.9,11.32,27.71,17.43l-11,9.21,29,14.78c-4.75,6.05-4.87,6.09-21.85,6.49,2.08,5.68,3.75,11,6,16.15,2.52,5.75,1.15,8.51-5.24,9.34-6.62.87-13.16,2.44-19.59,3.67,0,1.46-.18,2.21,0,2.34,7.41,4.87,7.16,10.47,1.88,16.79-1.22,1.46-1.8,3.43-2.79,5.1-5.1,8.69-5.64,9.63-14.51,4.73-14.89-8.22-30-5.31-45.28-3.19-1.08.15-2.06.91-4.37,2l28.53,12.34v2.07L1146.68,1046l21.6,12c-5.19,2.33-8.7,4.25-12.43,5.5-4.77,1.59-7,4.35-7.26,9.54-.11,2.24-2.44,6.12-4,6.25-11.56,1-23.19,1.19-34.8,1.58-.62,0-1.26-.59-3-1.43l5.67-10.36-.53-.81c-5.56,4.56-11.43,8.81-16.47,13.88-1.42,1.42-1,5.42-.38,7.94,1.37,5.24,3.49,10.3,6,17.51-9.94-3.22-18-5.46-25.8-8.49-6.44-2.5-12-2.52-17.65,1.93-10.83,8.48-22,16.57-33,24.86-1.7,1.28-3.26,2.74-6,5.09l-13.25-26.81-2-.15c-3.32,7.87-6.93,15.63-9.69,23.69-.5,1.46,2.09,4.55,3.91,6.14,9.09,7.92,18.39,15.58,27.62,23.33-.21.61-.42,1.22-.64,1.83-5.87-1.44-11.69-3.72-17.64-4.15-11-.78-22.11-.65-33.15-.39-1.45,0-3.7,2.93-4.07,4.8-1.33,6.71,2.78,11.33,6.9,16,1.6,1.82,2.18,4.53,3.22,6.84-2.16.85-4.26,2.11-6.5,2.48-7.41,1.22-15.11,1.32-22.23,3.43-4.46,1.32-8.84,4.84-11.89,8.51a56.07,56.07,0,0,0-8.58,15.13c-2.66,6.66-7.36,9.52-14,9.32-9-.26-15,3.92-19.4,11.49-9.74,16.72-19.73,33.3-29.62,49.93.7-4.54,1.29-9.1,2.12-13.61.86-4.68-.24-6.76-5.64-6.13-16.29,1.89-16,1.64-20.22-14.36-2.4-9.11.39-17.2,2.74-25.6,6.66-23.77,6.67-23.62,29.52-32,10.2-3.76,20-9.26,31-.77l.84-1.58c-.89-3.41-1.43-7-2.71-10.22-3.82-9.7-3.15-19.57-1-29.35.42-1.93,3.61-4.25,5.83-4.65,13.29-2.37,26.63-5.16,40-5.93,8.44-.48,17.08,2.2,25.59,3.7,4.45.78,8.82,2.07,13.88,1.9l-16.35-14c.73-1.28.93-2,1.19-2.05,11-.82,15.86-8.26,20.06-17.29,7.16-15.35,14.9-30.44,22.72-45.48,3.09-5.95,7.06-11.44,10.63-17.14l13.22-14.53,14.37-8.87c13.37-4.23,27-7.83,40.06-12.83,25.72-9.85,47-26.72,67.72-44.4,11.58-9.86,24.74-18.14,16.27-36.55a2.71,2.71,0,0,1-.1-.71c-.49-5.32-3.52-6.47-8.14-4.92S1162.11,928,1157.53,929.62Zm-62.88,144.77c0-12,.12-23.35-.15-34.65,0-1.51-1.74-3.66-3.22-4.34a92.23,92.23,0,0,0-14.28-5.34c-1.43-.39-4.44.82-5,2.08C1063.73,1050.48,1073.15,1069,1094.65,1074.39Zm106.28-72.27c3.41-13.7,12.07-22.6,25.84-26.7-1.56-1.65-2-2.51-2.5-2.59-10.49-1.71-21-3.53-31.52-4.75-1.46-.17-4,2.3-4.8,4.1C1183.3,983.06,1186.88,991.56,1200.93,1002.12ZM887.62,1214.55l-1.81-1.7-27.74,11.23,18.63,14.65Zm322.17-272.2,22.53,8.57C1227,943.93,1220.64,939.41,1209.79,942.35Z"/><path class="cls-47" d="M867.52,1283.71c10.41,1.94,20.78,4.12,31.24,5.74,9.18,1.42,9.54,2.09,7.86,11-.7,3.69-.49,8.6,1.44,11.58,7.6,11.76,8.75,24.09,6.62,37.57-1.62,10.28-.91,20.12,5.36,29.84a193.8,193.8,0,0,1,19.19,38.2c6.59,18.06,18.91,30.72,33.74,41.54,5.15,3.76,7.09,8,6.83,14.14a164.08,164.08,0,0,0,.19,23.26c.32,3.21,2.71,7.64,5.4,8.91,10.15,4.8,15.6,11.93,18.53,23,2.46,9.36,8.77,17.69,13.18,26.58,1,2.11,1.27,4.62,1.87,6.94-2.71-4.86-5.8-9.55-8.05-14.61-6.94-15.59-19-27.26-29.67-40.07a68.61,68.61,0,0,1-6.9-10.14c-10.62-18.71-21.29-37.4-31.52-56.33-4-7.42-6.68-15.58-10.45-23.15-5.06-10.14-9.61-20.75-16.15-29.89-10.61-14.81-15.16-31.28-16.54-48.84-.83-10.5-3.19-19.23-13.94-23.87-4.14-1.79-7.71-5-11.39-7.77C863,1298.82,862.71,1297.82,867.52,1283.71Z"/><path class="cls-48" d="M784.5,1231.14c-3.7-1.79-4.61-3.64-.9-6.75,7.67-6.45,7.57-6.6,15.59.38,4,3.46,8,6.88,11.77,10.56,2.49,2.43,3.75,5.25-.33,7.6-2.06-.52-4.69-.41-6.06-1.67C798.79,1235.93,792.33,1232.27,784.5,1231.14Z"/><path class="cls-49" d="M937.65,1122.16l-1.69-.34c6.57-1.56,13.07-3.58,19.72-4.58,15.89-2.39,26.51-13.14,37.86-22.87a75.29,75.29,0,0,1,6.47-4.5c-.13.71,0,1.67-.42,2.1-12.05,12.25-21.35,28.44-41.77,28.66C951.09,1120.71,944.37,1121.63,937.65,1122.16Z"/><path class="cls-50" d="M1041.1,1033.18l-13.22,14.53-5.94,2.78C1024.28,1040.24,1033.05,1037.11,1041.1,1033.18Z"/><path class="cls-51" d="M290.36,829c6.7,3.89,14.06,6.2,18.08,11.19,2.8,3.49,1,10.67,1.32,16.64C296.35,853.4,287.49,841.11,290.36,829Z"/><path class="cls-6" d="M1457.45,1387c-8.86-2.1-17.68-4.49-26.64-6-1.77-.31-4.4,2.46-6.13,4.28-5.76,6.07-11.29,12.35-16.41,18-3.37-4.39-5.89-8.53-9.24-11.85-6-5.93-13.51-5.36-21.11-4-5,.91-10.09,2.12-15.1,2-3.83-.12-7.6-2.15-11.4-3.33l.6-2.64c4.64,0,9.4-.69,13.88.14,9.6,1.79,17.25.14,24-7.7,6.46-7.47,14.66-13.41,21.5-20.59,3.85-4,6.5-9.23,10-14.3-17.77-4.27-31.51.84-40.43,14.18-6.24,9.34-6.25,9.36-15.83,3.63-3.28-2-6.52-4-10.92-6.74,7.83-7.76,14.56-15.73,22.7-21.81,2.92-2.18,9.31-.25,14,.54,16.71,2.83,14.21,2.87,14.43-12.37a109.81,109.81,0,0,0-1-18.15c-9.09,9-19.18,6.28-29.31,5.6-3.76-.25-7.87,2.86-11.6,4.86-2.21,1.17-4,3.17-6.46,4.07,12.57-11.42,22.67-25.66,41.64-28.89,10-1.7,19.33-7.42,29-11.34,1.78-.72,3.53-1.5,5.3-2.25-.67-.9-1.33-1.8-2-2.69l-33.48-2.55c-.24-.62-.47-1.25-.71-1.87l34.87-19.39c-5.67-4.4-10.48-8.28-15.46-11.93-3.45-2.54-5.12-5-1.49-8.74,3.92-4.1,4.18-8.94,2.46-14.23-2.71-8.3-4.76-16.83-7.82-25-1.38-3.67-4.52-6.69-6.86-10,0-.48,0-1,0-1.44,18.26,6,29,20.79,40.21,34.91,2,2.48,2.56,6,3.87,9q5.61,13,11.28,25.93c-.17,5.13,1.72,11.16-7.26,12.91,2.54,2.9,4.33,5,6.17,7,8.53,9.53,17.72,18.55,25.39,28.72,5.39,7.16,9,15.77,12.78,24,.77,1.64-.64,4.57-1.58,6.67q-6,13.56-12.45,27c-1.34,2.79-3.3,5.28-4.89,8q-8.49,14.22-16.91,28.48Zm-36.52-16.68c-7-7.61-10.74-5.36-17.94,10Z"/><path class="cls-52" d="M1342.78,1094.24c18,10.56,37.92,19.1,43.68,42.28-1.68-1.71-4.42-3.18-4.85-5.15-2.22-10.24-10.56-15.59-17.5-21.6-5.88-5.08-13.72-7.83-20.15-12.37-3-2.08-6.22-5.82-6.55-9.09-.93-9.12-.65-18.41-.26-27.6.09-2,2.63-3.92,4-5.87-.42,11.82-.92,23.63-1.11,35.45C1340.07,1091.59,1341.84,1092.92,1342.78,1094.24Z"/><path class="cls-52" d="M1386.45,1136.52l7.26,35c-.68-.65-1.85-1.23-2-2C1389.89,1158.53,1388.19,1147.52,1386.45,1136.52Z"/><path class="cls-29" d="M880.7,6c-17,4.86-33.72,10.54-50.9,14.35s-31,14-46.48,21.19l.3,2.35H810.2l.78,2.49C804.7,51.71,798.36,57,792.17,62.48c-1.74,1.54-4.11,3.46-4.36,5.44-2.17,16.85-13.67,29.13-20.86,43.5-2,4.06-4.39,8-7.15,12.92l5.88-.6,2.65.11c8.68-3.48,17.43-6.81,26-10.49,7.36-3.15,13.67-9.3,24.59-7.78-5.47,4.84-9.84,8.67-14.17,12.54-12.71,11.36-27.4,20.78-34.78,37.26-3.8,8.47-4.29,8.25,3.13,14.61-4.48,2.36-8.59,4.62-12.78,6.73-9.08,4.59-18.17,9.15-27.31,13.61-2.6,1.27-6.34,3-6.57-1.77-.42-8.73-5.59-14.7-10.46-21l0,0c-5-6.29-13.92-6.07-18.78.47Q683.11,186.93,669,205.87c-3.87,5.2-7.7,10.42-11.54,15.63l-1.45,0q3-20.37,5.93-40.73c.49-5.5,1.87-11.08,1.29-16.46-1.26-11.65,2.33-20.51,11.49-27.93,4.83-3.92,8.29-9.53,12.38-14.38l1.09.63q-2.58,6.75-5.17,13.49a16.69,16.69,0,0,0,6.09-5.6c7.24-10.07,14.23-20.33,21.74-30.19,3-4,7.47-6.89,10.83-10.68,13.56-15.29,26.91-30.76,40.45-46.07a20.85,20.85,0,0,1,6.2-4.91c10.73-5.2,22.94-6.88,32.45-15.27,4.25-3.75,10.67-5.53,16.42-7,10.18-2.58,21.24-2.71,30.76-6.68C858.92,5.16,869.72,6.37,880.7,6Z"/><path class="cls-53" d="M880.7,6c-11,.4-21.78-.81-32.73,3.75-9.52,4-20.58,4.1-30.76,6.68-5.75,1.45-12.17,3.23-16.42,7-9.51,8.39-21.72,10.07-32.45,15.27a20.85,20.85,0,0,0-6.2,4.91c-13.54,15.31-26.89,30.78-40.45,46.07-3.36,3.79-7.78,6.69-10.83,10.68-7.51,9.86-14.5,20.12-21.74,30.19a16.69,16.69,0,0,1-6.09,5.6q2.58-6.75,5.17-13.49l-1.09-.63c-4.09,4.85-7.55,10.46-12.38,14.38-9.16,7.42-12.75,16.28-11.49,27.93.58,5.38-.8,11-1.29,16.46,0-8.5-.62-17.06.21-25.47.55-5.54,1.76-12.14,5.21-16,7.46-8.4,16.71-15.18,24.89-23,2.8-2.68,4.22-6.77,6.87-9.66,5.43-5.89,11.5-11.19,16.88-17.11,11.37-12.53,22.46-25.32,33.69-38A69.45,69.45,0,0,1,780.09,31.3c8.06-2.73,14.8-9.29,22.85-12.06,12-4.13,25-5.35,36.87-9.8,13.93-5.23,28-5.07,42.29-5q0,.69-.06,1.38A11.91,11.91,0,0,1,880.7,6Z"/><path class="cls-29" d="M882,5.86q0-.69.06-1.38l10-.1h51.38c13.8-1.48,26.18,4.54,39.15,7.42-7.73-1.54-15.44-3.15-23.19-4.59a57.19,57.19,0,0,0-10-1.23C927,5.85,904.51,5.88,882,5.86Z"/><path class="cls-54" d="M656,221.48l1.45,0c0,1.93,0,3.86,0,5.79l-1.46,2.92c-8.09,8.45-16,17-24.33,25.27-3.17,3.15-7.11,5.52-10.7,8.24,6.85-8,13.84-15.91,20.49-24.09,4.69-5.76,8.93-11.9,13.37-17.87Z"/><path class="cls-29" d="M943.47,4.38H892.09c8.32-.43,16.65-1.22,25-1.21C925.87,3.18,934.67,4,943.47,4.38Z"/><path class="cls-54" d="M578.84,285.57v-1.44c2.34-.47,4.68-1.33,7-1.33,11.85,0,21.19-4.84,28.65-13.89,1.3-1.58,3.37-2.54,5.09-3.78-4.84,5.79-9.58,11.67-14.6,17.3-1,1.07-3,1.46-4.61,1.6C593.21,284.65,586,285.07,578.84,285.57Z"/><path class="cls-55" d="M1161.83,658.53l1.61.2c-5,10.48-10.43,20.81-14.85,31.54-1.32,3.21-1.23,8.32.48,11.22,6.27,10.64,13.59,20.65,20.3,31,2.55,4,4.9,4.72,8.66,1.47,8.26-7.11,16.34-14.5,25.21-20.78,6.59-4.67,9.51-10.19,8.2-17.83-2.67-15.56,3.86-27,15.24-36.8,4-3.44,7.13-7.9,10.45-12.06,1-1.25,2-3.18,1.77-4.61-2.05-12.6-2.72-25.77-7.06-37.58-4.53-12.35-12.57-23.42-19.26-35-2.11-3.63-4.8-6.93-8-11.43-5.56,13.49-5,25.83-4.2,38.42.44,6.93,1,15.66-2.59,20.69-8.77,12.32-19.91,23-30.1,34.28,5-9.39,9.46-19.12,15.18-28.05,4-6.23,3.27-11.4.71-17.67a497.87,497.87,0,0,0-49.34-91.23,28.2,28.2,0,0,1-1.48-2.86c29.69,10.79,58.49,22.75,83.8,41.07,7.31,5.29,11.07,15.55,16.31,23.63,4.2,6.5,8.17,13.14,12.25,19.71,5.72,7.33,6.15,15.9,5.82,24.64-.52,4.31-1.58,8.62-1.46,12.9.27,9.59-1.07,18.55-5.19,27.45-4.42,9.57-7.36,19.83-10.95,29.8-8.64,16.81-17.91,33.35-25.71,50.55a204,204,0,0,0-13.4,38.27A572.89,572.89,0,0,1,1157.6,887.4c-2.58,6.5-4.89,13.12-7.81,19.45a38.11,38.11,0,0,0-2.38,25.41c2.06,9,3.8,18,5,27.09.36,2.84-.59,7.4-2.58,8.73-11.22,7.52-22.94,14.31-34.49,21.34,6.2-6.47,12.66-12.71,18.47-19.51a21.93,21.93,0,0,0,4.68-10.07c1.74-10,2.71-20.14,4.1-30.21,1.22-8.84,0-10.14-8.44-8.57-6.91,1.28-14,2-20.67,4.07-8.51,2.6-12.69-2.71-16.75-8.09-1-1.35-.51-4.64.4-6.51a116.75,116.75,0,0,1,8.6-15.17c9.8-14.21,15-29.89,18.47-46.8,3.43-16.73,9.69-32.88,14.75-49.28.42-1.38.78-3.26,1.81-3.9,11.94-7.48,23.21-16.62,38.4-16.58,2.48,0,5,.21,9.36.41-3.64-4.75-6.21-7.81-8.47-11.08-12.24-17.69-24.67-35.25-36.52-53.19-10.68-16.16-20.7-32.76-31-49.17,3,2.34,6.19,4.42,8.86,7.06,5.16,5.09,10.27,7.68,16.65,1.9,1.91-1.72,4.32-2.88,6.5-4.3l4.24-3.26Z"/><path class="cls-56" d="M991.52,768.05l-3.28-.39c6.22-10.51,16-5.13,24.35-5.11,6.25,0,12.5,1.33,18.74,2.14,4.16.53,6.34-.89,6.71-5.37.75-9.17,1.73-18.32,2.84-27.45.87-7.22-.73-12.39-9.05-13.46-2.79-.35-5.45-1.63-9.09-2.77,1.48-1.92,2.24-3.32,3.37-4.31,5.1-4.47,10.74-8.4,15.37-13.31,7.45-7.92,16.64-8.21,26.19-6.95,2.21.29,4.59,2.56,6.08,4.53,8.59,11.4,16.94,23,25.37,34.49-11.58-5.59-23.07-11.35-34.79-16.64-3.24-1.46-9.18-3.21-10.33-1.84-3.3,3.94-6.59,9.4-6.59,14.26,0,8.87,2.19,17.77,3.93,26.56.37,1.89,2.53,4.67,4.13,4.85,5.26.62,10.64.23,16,.23-2.71-2.18-5.64-2.68-8.16-4-1.69-.87-4.25-3.28-4-4.28,2.73-9.27,6-18.39,9.68-29.26l26.15,28.26c2.27-6.27,3.88-10.74,5.5-15.21,1.23,3.31,3.89,6.84,3.42,9.88-1.35,8.57-3.9,17-6.21,25.37a5.81,5.81,0,0,1-3,3.58c-10.65,3.47-20.8,10.07-32.82,5.68-5.31-1.94-8.42.59-11.46,4.85-13.59,19.06-25,39.22-32.93,61.3-.12-.61-.23-1.23-.35-1.84.9-5,1.86-10,2.69-15q3.19-19.26,6.31-38.53c-.25-4.32,1.88-9.7-4.31-11.59C1011.9,773.71,1001.69,771,991.52,768.05Z"/><path class="cls-31" d="M1115.33,989.42c11.55-7,23.27-13.82,34.49-21.34,2-1.33,2.94-5.89,2.58-8.73-1.19-9.09-2.93-18.14-5-27.09a38.11,38.11,0,0,1,2.38-25.41c2.92-6.33,5.23-13,7.81-19.45-2.32,14.05-4.64,28.1-7.13,43.2l7.06-1c4.58-1.58,9.16-3.18,13.75-4.72s7.65-.4,8.14,4.92a2.71,2.71,0,0,0,.1.71c8.47,18.41-4.69,26.69-16.27,36.55-20.76,17.68-42,34.55-67.72,44.4-13.07,5-26.69,8.6-40.06,12.83,11.7-5.82,23.67-11.15,35-17.64C1099.18,1001.68,1107.07,995.23,1115.33,989.42Z"/><path class="cls-57" d="M1100.66,733.05c-1.62,4.47-3.23,8.94-5.5,15.21L1069,720c-3.69,10.87-7,20-9.68,29.26-.29,1,2.27,3.41,4,4.28,2.52,1.29,5.45,1.79,8.16,4-5.34,0-10.72.39-16-.23-1.6-.18-3.76-3-4.13-4.85-1.74-8.79-3.92-17.69-3.93-26.56,0-4.86,3.29-10.32,6.59-14.26,1.15-1.37,7.09.38,10.33,1.84,11.72,5.29,23.21,11,34.79,16.64Z"/><path class="cls-58" d="M968,719.79c1.27-1.12,2.36-2.6,3.82-3.31,19.06-9.2,30-27.05,44.44-41.21,10.07-9.88,20.73-19.19,31.12-28.75l1.52,1.54-11,12c-6.48,6.83-13.1,13.53-19.42,20.5-14.43,16-28.72,32-43.06,48.05l-13,10.25c2.27-4.69,4.67-9.33,6.74-14.12.61-1.42.29-3.24.39-4.88Z"/><path class="cls-59" d="M975.36,728.59c14.34-16,28.63-32.1,43.06-48.05,6.32-7,12.94-13.67,19.42-20.5l9.35-2.71c-16,10.4-25.81,26.16-36.05,41.63C1002.26,712.36,988.66,720.36,975.36,728.59Z"/><path class="cls-29" d="M962.09,804.28c0,10.33,0,20.66.16,31,.07,5.76-2,7.48-7.45,4.77-3.2-1.59-6.73-2.53-10.12-3.76Q953.4,820.29,962.09,804.28Z"/><path class="cls-60" d="M969.53,719.84c-.1,1.64.22,3.46-.39,4.88-2.07,4.79-4.47,9.43-6.74,14.12l-5.68,7.34-9.83,10.61c-2-5.79,1.35-9.66,4.41-13.58Q960.39,731.51,969.53,719.84Z"/><path class="cls-61" d="M662.13,635.38c1.93-4.1,3.81-8.22,5.8-12.29,1.77-3.64,4.32-5.71,8.59-3.76-.44,9.18-1.28,18.36-1.2,27.54.07,7.64-.36,15.88,2.32,22.74,3.18,8.17,9.6,15,14.31,22.67,3.15,5.1,6.78,10.23,8.47,15.86,11.25,37.38,21.59,75,33.16,112.3,6.73,21.71,15.21,42.88,22.9,64.3-.94,2.15-1.48,4.63-2.9,6.4-18.89,23.5-40.57,44.19-64,63.13l-11.54,8-6,3.68-29.56,17.91c-2.43-5.85-4.25-11-6.64-15.87-7.22-14.7-9.72-30-9.37-46.47.74-35.19-.75-70.45.58-105.6,1.15-30.44,4.22-60.86,7.76-91.14,3.41-29.1,13-56.62,25.21-83.23A56.91,56.91,0,0,0,662.13,635.38Z"/><path class="cls-62" d="M678.07,962.3l11.54-8c8.59,5.31,19.77,6.94,24.9,20.08,1.41-4.83,2.2-7.24,2.82-9.69,2.73-10.77,5.24-21.59,8.22-32.28.78-2.81,2.38-6.06,4.63-7.68,9.57-6.93,19.53-13.32,29.35-19.91-.81,7.41-1.44,14.86-2.51,22.23-.77,5.27.63,8.53,6.32,9,4.08.34,8.16.8,12.24,1,8.22.33,14.93,2.81,18.74,10.93,1.38,3,4,5.33,6.11,8,.49,1,1,1.93,1.48,2.89q4.79,8,9.59,15.89l1.92-.93V950l0-13q4.37-5.9,8.74-11.8v41c11.84-20.3,11.46-29.87,0-41l13.53-18,2.35.74q.81,23.18,1.61,46.33c-8.55,9.9-18.3,19-25.22,30-4.85,7.67-6.21,17.71-8.43,26.86-3.08,12.68-13.78,19.58-21.27,28.87-1,1.2-5.47.41-7.89-.57q-13.15-5.31-26-11.46c-4.95-2.38-6.61-1-7.94,4.1-4.92,18.86-4,37.44,1.17,56,1.13,4.1,1.54,8.39,2.28,12.59l-1.63.89c-2.77-3.09-5.57-6.16-8.32-9.27-8-9.09-15.8-18.4-24.11-27.21-5.39-5.71-5.24-12.8-6.31-19.62-1.25-7.9-2.11-15.86-3-23.8-.89-7.63,1.22-9.59,9.05-8.67,3,.36,6.06.65,11.54,1.23-5.44-12.67-9.37-24-15-34.41C702.27,968.16,689.44,966.11,678.07,962.3ZM748,933c-10.7,28.17-17.71,57-18.92,87.09,3.8-10.07,7.59-20.14,11.77-31.23a37.09,37.09,0,0,1,3.28,4.26c6,11.56,15.4,19.66,26.14,26.57,3.73,2.4,6.24,3.35,8.33-1.79,5.95-14.57,12.31-29,18.12-43.6.86-2.15.25-7.14-.7-7.42-13.33-4-24.89-15.14-40.43-10.4-5.45,1.67-7.71-.65-7.61-6.1C748.06,944.59,748,938.8,748,933Z"/><path class="cls-63" d="M659.06,1068.05c-2.39-7.39-4.6-14.83-7.22-22.14-1.78-5-1-8.37,3.4-12,9.4-7.61,18.19-16,27.23-24l2.69,0q.81,8,1.64,15.94c-3.76,8.88-6.53,18.38-11.59,26.45C671.32,1058.48,664.55,1062.86,659.06,1068.05Z"/><path class="cls-17" d="M686.8,1025.83q-.82-8-1.64-15.94c6.13.48,7.86,3.43,5.06,9C689.05,1021.16,687.94,1023.5,686.8,1025.83Z"/><path class="cls-40" d="M813.46,937q0,6.5,0,13l-11.51,8.79c-.49-1-1-1.92-1.48-2.89-3.41-9-6.77-18.06-10.25-27.06-4.47-11.55-4.52-11.54,4.44-19.54l4.28.12Z"/><path class="cls-64" d="M1038.09,381.86l-4.31,6c-13.76-.87-27.58-3-41.26-2.24-12.73.66-25.29,4.41-38,6.61-4.69.82-7.08,3.35-8.28,7.9-2,7.74-4.51,15.36-6.81,23-9.9,33-22,65.39-25.85,99.87-1.12,10-1.47,20.49,0,30.42,2.46,16.57-.19,29.83-15.45,39.46-9.34,5.89-15.46,14.36-13.36,26.83a64.86,64.86,0,0,1,0,17.44c-.89,8.34,2.76,14.4,8.1,20.09,2.69,2.87,4.89,6.18,7.39,9.4-16.3,9.26-23.08,11-39,5.92-15-4.71-29.35-5-44.1,0-5,1.7-10.31,2.56-15.47,3.81,1.56,1.65,3,2.46,4.3,2.36,22.82-1.73,41.48,10.37,61.22,18.64,3,1.27,7.08,5.22,7,7.86-.24,10.39,2,22.35-11,27.87l.05,0-22.7,12.73c5.7,6.89,10.45,12.89,15.47,18.65,8.29,9.53,16.64,18.93,20.38,31.47,1.18,4,.65,6.53-3.13,8.36-4.59,2.22-9.43,4.1-13.62,6.94-14.23,9.61-28.48,10.11-45.36,6-21.71-5.32-40.62-15.77-60.21-25.26a13.07,13.07,0,0,1-4.67-4.45c-13.57-20.07-27.91-39.63-31.22-64.83-1.71-13-5.37-25.63-8.18-38.43-1.45-6.59-3-13.18-4.43-19.77q-3.67-19.65-7.36-39.29c-.42-31-1.19-62.07-1-93.1.05-6.89,3.54-13.75,5.45-20.63,4-5.16,8.47-10,11.89-15.53,10.85-17.52,26.92-29.78,42.67-42.17a123.61,123.61,0,0,0,29.1-32.09c3.92-6.3,8.11-8.63,15.4-4.86,6.2,3.21,13.41,4.49,19.59,7.73,11.09,5.81,22.89,11.43,22.92,28.34,5.53-4.59,9.84-8,13.89-11.61,3.6-3.24,6.4-7.7,10.46-10,10.9-6.32,13.14-15.76,12-27.21a98.38,98.38,0,0,1,0-16.73c.46-6.23-2.36-9-8.07-10.93-23.91-8-47.73-16.28-71.5-24.69-8.27-2.93-8.11-4.08-5-12.29a243.06,243.06,0,0,1,44.08-73.9c10.12-11.71,13.54-26.35,17.71-40.31,5.63-18.81,18.07-33,28.69-48.53,1.1-1.61,4.29-3,6.13-2.68,8.25,1.68,16.36,4,24.52,6.18a4.63,4.63,0,0,1,1.3.64c27,17.61,57.87,21.32,88.78,24.68,19.36,2.1,38.5,4.32,55.51,15.18,4.49,2.87,6.09,5,2.58,9.48-2.38,3.06-4.07,6.67-6.56,9.62-13,15.33-19.46,33.76-26.37,52.23-5.09,13.59-1.23,26.27.23,39.37C1034.57,348.17,1036.29,365,1038.09,381.86Z"/><path class="cls-12" d="M705.65,664.49c1.48,6.59,3,13.18,4.43,19.77,2.81,12.8,6.47,25.48,8.18,38.43,3.31,25.2,17.65,44.76,31.22,64.83a13.07,13.07,0,0,0,4.67,4.45c19.59,9.49,38.5,19.94,60.21,25.26,16.88,4.14,31.13,3.64,45.36-6,4.19-2.84,9-4.72,13.62-6.94,3.78-1.83,4.31-4.39,3.13-8.36-3.74-12.54-12.09-21.94-20.38-31.47-5-5.76-9.77-11.76-15.47-18.65l22.7-12.73c5.09,12,9.86,24.25,15.49,36,1.35,2.82,5.31,4.8,8.48,6.27,7.25,3.37,14.68,6.42,22.19,9.16,6,2.2,8.27,6.12,7.52,12.31-1.09,9.13-1.58,18.36-3.23,27.39-.45,2.46-3.78,5.23-6.42,6.33-16.44,6.82-33.86,6.52-50.83,4-15.34-2.3-29.33,1.73-43.69,4.92-22.45,5-14.3,6.34-32.06-8.44-21.94-18.26-37.58-40.9-51.66-65.09-1.69-2.91-3.93-5.51-5.92-8.26-4.44-15-10.12-29.83-13-45.15C707.25,696.81,707.05,680.54,705.65,664.49Z"/><path class="cls-65" d="M759.53,904.79c-9.82,6.59-19.78,13-29.35,19.91-2.25,1.62-3.85,4.87-4.63,7.68-3,10.69-5.49,21.51-8.22,32.28-.62,2.45-1.41,4.86-2.82,9.69-5.13-13.14-16.31-14.77-24.9-20.08,23.4-18.94,45.08-39.63,64-63.13,1.42-1.77,2-4.25,2.9-6.4l.33-1.92,1.32.26v0c1.17,4.69,2.76,9.32,3.33,14.07C761.74,899.56,760.23,902.22,759.53,904.79Z"/><path class="cls-66" d="M756.81,882.82l-.33,1.92c-7.69-21.42-16.17-42.59-22.9-64.3-11.57-37.27-21.91-74.92-33.16-112.3-1.69-5.63-5.32-10.76-8.47-15.86-4.71-7.62-11.13-14.5-14.31-22.67-2.68-6.86-2.25-15.1-2.32-22.74-.08-9.18.76-18.36,1.2-27.54l5.67,8.91c.07,13.11,0,26.22.29,39.32.07,3.29.2,7.43,2.08,9.69,20.55,24.65,25.9,55.22,34.52,84.73C730.9,802.48,744.16,842.56,756.81,882.82Z"/><path class="cls-67" d="M758.13,883.08c-1.18-5.33-2.35-10.66-4-18,16.14,5.56,26.28,16.71,38.42,24.76-.31.86-.62,1.71-.94,2.56L758.12,883Z"/><path class="cls-68" d="M895.13,1117.15c-2.73-11.52-.37-15,12.1-17.7Z"/><path class="cls-24" d="M1026.31,788.38q-3.15,19.26-6.31,38.53c-.83,5-1.79,10-2.69,15-6,4.44-11.77,9.25-18.11,13.12-2.19,1.34-6,1.1-8.71.29-4.34-1.31-8.35-3.7-12.5-5.63a294.92,294.92,0,0,1,18-73.81l15.33,31.46Z"/><path class="cls-69" d="M1026.31,788.38l-15,18.92L996,775.84a294.92,294.92,0,0,0-18,73.81c-1.47-6.17-2.59-12.46-4.48-18.5-4.87-15.49-1.79-28.77,10-40.12,6.47-6.23,9-14,8-23,10.17,2.9,20.38,5.66,30.48,8.74C1028.19,778.68,1026.06,784.06,1026.31,788.38Z"/><path class="cls-70" d="M701.33,1129.25l10.23,39.3q1.5,5.81,3,11.61L713,1181q-9.48-13.46-19-26.93l-7.2-20.5h0q-1.56-8.71-3.11-17.41l-3.12-16.06,1.89-.78Z"/><path class="cls-71" d="M683.72,1116.17q1.56,8.7,3.11,17.41c-5.12-2.75-4.55.85-4.18,3.86.84,7,1.83,13.9,2.75,20.85-4.75-5.93-6.23-12.65-6.1-20.24.15-8.64-.87-17.29-1.27-26a68.53,68.53,0,0,1,.44-7C680.55,1109.46,682.14,1112.81,683.72,1116.17Z"/><path class="cls-57" d="M685.4,1158.29c-.92-7-1.91-13.89-2.75-20.85-.37-3-.94-6.61,4.18-3.86h0q1.51,16.85,3,33.7l-1.32,9.52Z"/><path class="cls-72" d="M689.81,1167.28q-1.5-16.85-3-33.7l7.2,20.5c2,7.57,4.06,15.14,6,22.21Z"/><path class="cls-73" d="M656.05,230.21l1.46-2.91c2.19-1.42,4.81-2.46,6.52-4.33,11.79-12.84,23.28-26,35.09-38.77,5.35-5.81,11.22-11.13,16.86-16.67l0,0c-12.46,25.17-31,46-47.59,68.26-11.53,15.47-25.76,26.47-40.42,37.75a80.91,80.91,0,0,1-7.22,4.48c-3.33-6.2-.19-11.79,6.94-15.52,3-1.59,5.34-4.74,7.71-7.41,3.18-3.59,6.09-7.42,9.15-11.12C648.39,239.39,652.23,234.81,656.05,230.21Z"/><path class="cls-58" d="M768.33,123.85l-2.65-.11c9.05-11.27,18-22.66,27.26-33.72,2.54-3,6.27-5,9.46-7.52l1.28,1.23Q786,103.8,768.33,123.85Z"/><path class="cls-74" d="M1049.67,193.55c-5.39-19.94,3.38-34.43,12-48.73,2.75-4.56,7.26-3.48,8.87,1.65,2.25,7.16,4.35,14.39,6,21.69.47,2.06.1,5.51-1.26,6.58C1067.27,181.11,1058.79,187,1049.67,193.55Z"/><path class="cls-57" d="M609.42,317.56l-40.88,3.06-.5-1.84c8.78-4.36,17.39-9.08,26.36-13C605.2,301.09,608.91,303.91,609.42,317.56Z"/><path class="cls-73" d="M637,379.08l-4.25-1.58c1.63-1.4,3.05-3.54,4.93-4.09,18.07-5.28,36.21-10.3,56.39-16-10.72,9.19-20.3,17.69-30.29,25.67-1.58,1.26-5.1.57-7.61.11C649.76,382,643.4,380.48,637,379.08Z"/><path class="cls-75" d="M673,352.69l49.21-46.05,1.74,1.43c-5,10-5.09,22.36-18.06,28.27-11,5-21.17,12.11-31.7,18.29C673.83,354,673.43,353.34,673,352.69Z"/><path class="cls-2" d="M952.73,1382.07c-6.61-5.45-11.76-9.07-16-13.52-1.61-1.67-2-5.43-1.52-8,1.43-8.57,2-17.8,5.74-25.31,3.53-7,10.79-12.14,17.88-17.33C959.44,1339.24,955.26,1359.42,952.73,1382.07Z"/><path class="cls-76" d="M934.43,1282.46l20.91-41.79C964.05,1252.09,951.64,1277.21,934.43,1282.46Z"/><path class="cls-75" d="M905.13,1270.63c1.14-11.45,2-22.94,3.76-34.31.2-1.35,4.78-2.86,7.33-2.86,3.45,0,5.1,2.41,3.64,6q-6.3,15.73-12.61,31.49Z"/><path class="cls-77" d="M1368,761.92c2.36-6.43,4.58-12.91,7.22-19.21.38-.91,3-1.67,4.22-1.28,4,1.32,7.91,3.2,11.84,4.86l.87,2.57-21.74,14.7Z"/><path class="cls-78" d="M1002.27,1413c-2.14-11.12,12.92-32.12,25-31.73Z"/><path class="cls-79" d="M1233.38,690.74c3.59-10,6.53-20.23,10.95-29.8,4.12-8.9,5.46-17.86,5.19-27.45-.12-4.28.94-8.59,1.46-12.9,4.1,9.66,5.45,19,.4,29.15C1244.74,663.09,1239.32,677,1233.38,690.74Z"/><path class="cls-51" d="M1406.54,761.39c3.25,7-1.12,15.27-15.13,30.08C1396.24,781.87,1401.07,772.28,1406.54,761.39Z"/><path class="cls-80" d="M1167.73,651.35c10.19-11.32,21.33-22,30.1-34.28,3.58-5,3-13.76,2.59-20.69-.79-12.59-1.36-24.93,4.2-38.42,3.16,4.5,5.85,7.8,8,11.43,6.69,11.53,14.73,22.6,19.26,35,4.34,11.81,5,25,7.06,37.58.23,1.43-.78,3.36-1.77,4.61-3.32,4.16-6.46,8.62-10.45,12.06-11.38,9.8-17.91,21.24-15.24,36.8,1.31,7.64-1.61,13.16-8.2,17.83-8.87,6.28-17,13.67-25.21,20.78-3.76,3.25-6.11,2.48-8.66-1.47-6.71-10.39-14-20.4-20.3-31-1.71-2.9-1.8-8-.48-11.22,4.42-10.73,9.82-21.06,14.85-31.54Z"/><path class="cls-81" d="M863.27,733.14c13-5.52,10.8-17.48,11-27.87.06-2.64-4-6.59-7-7.86-19.74-8.27-38.4-20.37-61.22-18.64-1.34.1-2.74-.71-4.3-2.36,5.16-1.25,10.46-2.11,15.47-3.81,14.75-5,29.13-4.75,44.1,0,15.94,5,22.72,3.34,39-5.92-2.5-3.22-4.7-6.53-7.39-9.4-5.34-5.69-9-11.75-8.1-20.09a64.86,64.86,0,0,0,0-17.44c-2.1-12.47,4-20.94,13.36-26.83,15.26-9.63,17.91-22.89,15.45-39.46-1.48-9.93-1.13-20.38,0-30.42,3.83-34.48,16-66.91,25.85-99.87,2.3-7.67,4.79-15.29,6.81-23,1.2-4.55,3.59-7.08,8.28-7.9,12.67-2.2,25.23-5.95,38-6.61,13.68-.72,27.5,1.37,41.26,2.24-2.85,6.84-8.18,9.57-15.39,10.07-20.23,1.41-39.85,5.56-57.93,15.08a19.54,19.54,0,0,0-8.08,8.37c-14.18,30.27-17.62,63.23-23.84,95.55-3.8,19.71-4.2,39.42-4.45,59.3-.06,4.65-2.23,10-5.05,13.74-6.21,8.32-13.36,16-20.33,23.69-4.13,4.57-5.14,8.66-1,14.06,5.3,6.92,9.81,14.44,14.64,21.71,5.2,7.84,5.27,8-2.68,13.63-11.6,8.29-23.35,16.39-35,24.56l-6.35,6,22.52,8.81c4.77,1.67,9.49,3.5,14.32,5,4.49,1.36,6.08,3.63,5,8.55-3,13.4-3.64,14.21-18.72,15.45C882,732.1,872.64,732.55,863.27,733.14Z"/><path class="cls-82" d="M1148.76,667.17l-4.24,3.26c-10.88-3.65-21.83-7.1-32.56-11.17-1.42-.54-2.27-4.12-2.37-6.34-.28-6.29,0-12.6,0-18.91,5-19.12,11.58-38,14.47-57.43s2.06-39.48,2.89-60.09l8.66,8.25c14.5,17.47,25,37.26,33.67,58.1-.32,3.6-.12,7.34-1,10.79C1161.88,618.18,1155.28,642.66,1148.76,667.17Z"/><path class="cls-20" d="M890.81,702.36l-22.52-8.81,6.35-6c1.69-.05,3.6-.65,5-.08,18.82,7.44,37.32,1.76,55.78-1.45a24.7,24.7,0,0,1,17.38,2.76c6.53,3.66,13.35,6.8,19.78,11.39-6.9-1-13.78-2.47-20.71-2.84a185.23,185.23,0,0,0-26.55.16C913.79,698.58,902.32,700.7,890.81,702.36Z"/><path class="cls-21" d="M1148.76,667.17c6.52-24.51,13.12-49,19.49-73.54.9-3.45.7-7.19,1-10.79.93,2.41,2.45,4.77,2.7,7.26.79,7.89.68,15.88,1.71,23.74,1.81,13.93-3.28,26-9.11,38-1,2.15-1.84,4.44-2.74,6.66Z"/><path class="cls-83" d="M1135.6,524.74l-8.66-8.25c-.83,20.61,0,40.63-2.89,60.09s-9.5,38.31-14.47,57.43c2.36-15.46,3.69-31.17,7.37-46.32,4-16.49,4.34-33,4.19-49.67-.09-10.57,0-21.14,0-31.72l2.63-1.12Z"/><path class="cls-10" d="M1124,212.81c1.72,6.81,2.79,13.86,5.26,20.38,7.39,19.44,14.85,38.89,23.16,57.95,10.75,24.69,22.35,49,33.54,73.52,1.09,2.38,1.8,4.94,2.71,7.47-15.38,2.82-30.48-7.31-43-29.36l28.36,6.86c-6.17-11.67-11.3-21.4-16.45-31.12-17.58-33.22-32.57-67.25-33.54-105.73Z"/><path class="cls-6" d="M1106.68,296.71c-2.69-1-4.5-1.63-6.2-2.46-2.36-1.14-4.63-2.47-8.7-4.67,14.43-10.83,9.47-26.12,11.8-40,1.46,14.07,3,28.13,4.31,42.21C1108,293.08,1107.26,294.45,1106.68,296.71Z"/><path class="cls-53" d="M1036.52,559.74c0,18.68,1.12,15.33-16.59,19-7.09,1.48-9.37-1.36-12.36-7.1-6.08-11.65-6.74-21.69,4.49-30.36,3.65-2.81,7.13-6.74,11.28-7.74,3.44-.83,12.94,12.41,13.15,16.76C1036.65,553.45,1036.52,556.6,1036.52,559.74Z"/><path class="cls-62" d="M1094.65,1074.39c-21.5-5.35-30.92-23.91-22.66-42.25.57-1.26,3.58-2.47,5-2.08a92.23,92.23,0,0,1,14.28,5.34c1.48.68,3.18,2.83,3.22,4.34C1094.77,1051,1094.65,1062.35,1094.65,1074.39Z"/><path class="cls-22" d="M1200.93,1002.12c-14-10.56-17.63-19.06-13-29.94.77-1.8,3.34-4.27,4.8-4.1,10.55,1.22,21,3,31.52,4.75.53.08.94.94,2.5,2.59C1213,979.52,1204.34,988.42,1200.93,1002.12Z"/><path class="cls-38" d="M887.62,1214.55l-10.92,24.18-18.63-14.65,27.74-11.23Z"/><path class="cls-84" d="M1209.79,942.35c10.85-2.94,17.17,1.58,22.53,8.57Z"/><path class="cls-52" d="M1420.93,1370.34l-17.94,10C1410.19,1365,1413.93,1362.73,1420.93,1370.34Z"/><path class="cls-27" d="M716,167.53c-5.64,5.54-11.51,10.86-16.86,16.67C687.31,197,675.82,210.13,664,223c-1.71,1.87-4.33,2.91-6.52,4.33,0-1.94,0-3.87,0-5.8,3.84-5.21,7.67-10.43,11.54-15.63Q683.1,186.93,697.2,168C702.06,161.46,711,161.24,716,167.53Z"/><path class="cls-85" d="M748,933c0,5.8.08,11.59,0,17.38-.1,5.45,2.16,7.77,7.61,6.1,15.54-4.74,27.1,6.42,40.43,10.4,1,.28,1.56,5.27.7,7.42-5.81,14.63-12.17,29-18.12,43.6-2.09,5.14-4.6,4.19-8.33,1.79-10.74-6.91-20.16-15-26.14-26.57a37.09,37.09,0,0,0-3.28-4.26c-4.18,11.09-8,21.16-11.77,31.23C730.27,990,737.28,961.17,748,933Z"/><path class="cls-86" d="M822.22,925.15c11.44,11.16,11.82,20.73,0,41v-41Z"/><path class="cls-87" d="M801.91,958.77,813.42,950v23.75l-1.92.93Q806.7,966.73,801.91,958.77Z"/></svg>