<svg id="Layer_1" data-name="Layer 1" xmlns="http://www.w3.org/2000/svg" viewBox="0 0 1500 1601.52"><path d="M514.87,406.54v-.05l0,0Z"/><path d="M417.81,461.27c-8.16,5-16.7,7.18-25.52,9.41l45.29-10C430.88,460.68,422.67,458.27,417.81,461.27Z"/><path d="M1380.4,522.79c.07.63.15,1.26.22,1.9,2.49-5.7,7.43-11.17,1.65-17.64l-1.55.06Q1380.55,514.94,1380.4,522.79Z"/><path d="M1495.19,1310.83c-8.67-15.79-18.2-31.11-27-46.83-3.5-6.25-5.92-13.12-8.83-19.7l-1.55.1h0q-5.65-13-11.28-25.93c-1.31-3-1.91-6.55-3.87-9-11.2-14.12-22-28.88-40.21-34.91,0,.48,0,1,0,1.44h0c0-.48,0-1,0-1.44l-1.56-1.37-4.24-1.77-1.48.11-.73.07-.73-.07-7.26-35q1.3,8.25,2.6,16.5-1.3-8.25-2.6-16.5h0c-5.76-23.18-25.69-31.72-43.68-42.28-.94-1.32-2.71-2.65-2.69-4,.19-11.82.69-23.63,1.11-35.45-1.15,1.59-3,3.14-3.77,4.75.72-1.61,2.62-3.16,3.77-4.75l17.58-21.68,12.76-17.61,11.82-24.78c3.26-4.9,6.31-10,9.83-14.66,2.72-3.63,6-6.82,9.1-10.2l6-12.78h0l1.4-.19c3.47-5.11,6.34-10.78,10.51-15.24,14-15,28.7-29.32,42.56-44.44,4.59-5,7.42-11.66,11-17.56,3.63-24.6-8.35-44.66-19.16-65-6.6-12.39-13.82-24.46-20.86-36.61q-26.25-45.3-52.57-90.55c-.83-1.45-1.42-3-2.12-4.57l-4.51-5.61-16-19.09c-17.53-13-25.37-31.06-24.15-52,.48-8.18,6.8-16.12,10.85-24,1.88-3.61,4.7-6.74,7.1-10.08,7.43-12.37,14.83-24.76,22.31-37.1,1.74-2.87,3.75-5.58,5.63-8.37q.16-7.83.32-15.67c-1.59-.73-3.12-1.7-4.73-2.34,1.61.64,3.14,1.61,4.73,2.34l1.55-.06c-.15-.88-.29-1.75-.44-2.62a35.71,35.71,0,0,0-5.37-1.81c-9.6-1.66-13.47-8.44-9.56-17.29,1.36-3.06,3.27-5.88,4.93-8.82a92.24,92.24,0,0,1,3.77-9.3c5.81-10.93,4.42-21.13-4.13-29.88a22.13,22.13,0,0,1-4.14-5.87c-2.55-5.29-4.8-10.73-7.17-16.11l-1.36-.06h0l-1.74-27.48.18-7.44c-2.73-3.29-5.11-7-8.25-9.78-7.45-6.66-15.67-12.5-22.82-19.46-8-7.83-15.22-16.52-22.78-24.83l-.12,1.78h0c-.57-.38-1.15-.74-1.73-1.1-1.17-.73-2.35-1.43-3.53-2.14,1.18.71,2.36,1.41,3.53,2.14.58.36,1.16.72,1.73,1.1l.12-1.78c-11.34-11.54-23.19-22.63-33.77-34.83-3.94-4.53-5.49-11.49-7.08-17.62-1.86-7.17-2.66-14.62-3.74-22-.85-5.71-1.43-11.47-2.13-17.21-1.73-6-3.94-12-5.11-18.1-5.47-28.66-16.43-54.85-34.2-78.1-12.41-23.9-33.83-39.69-52.39-58-2.5-2.48-5.88-4.06-8.86-6.05-10.64-3.67-18.14-11.48-25.9-19.13a82.35,82.35,0,0,0-15.79-12.53c-12.77-7.51-28.28-9.46-39.94-19.41-1-.86-2.7-.94-4.09-1.32-11.77-3.22-23.5-6.64-35.36-9.5a26.19,26.19,0,0,0-10.68.22c-6.31,1.22-12.48,4.21-18.74,4.32S993.24,14.57,987,13.18l-4.44-1.37h0c-7.73-1.55-15.44-3.16-23.19-4.6,7.75,1.44,15.46,3.05,23.19,4.59-13-2.88-25.35-8.9-39.15-7.42-8.8-.43-17.6-1.2-26.41-1.21-8.32,0-16.65.78-25,1.21l-10,.1c-14.3-.11-28.36-.27-42.29,5-11.84,4.45-24.87,5.67-36.87,9.8-8.05,2.77-14.79,9.33-22.85,12.06A69.45,69.45,0,0,0,749.7,51.52C738.47,64.18,727.38,77,716,89.5c-5.38,5.92-11.45,11.22-16.88,17.11-2.65,2.89-4.07,7-6.87,9.66-8.18,7.81-17.43,14.59-24.89,23-3.45,3.88-4.66,10.48-5.21,16-.83,8.41-.21,17-.21,25.47q-3,20.35-5.93,40.73l1.45,0c3.84-5.21,7.67-10.43,11.54-15.63-3.87,5.2-7.7,10.42-11.54,15.63,0,1.93,0,3.86,0,5.8l-1.46,2.91,1.46-2.92c0-1.93,0-3.86,0-5.79l-1.45,0-1.14.28c-4.44,6-8.68,12.11-13.37,17.87-6.65,8.18-13.64,16.07-20.49,24.09.9-.68,1.82-1.34,2.74-2-.92.65-1.84,1.31-2.74,2l-1.42,1.4h0c-1.72,1.24-3.79,2.2-5.09,3.78-7.46,9-16.8,13.9-28.65,13.89-2.34,0-4.68.86-7,1.33-4.72,1.67-9.76,2.77-14.11,5.14-9.58,5.21-19,10.75-28.12,16.78-4.84,3.21-8.81,7.72-13.17,11.64l1.6.07c-4.35,6.65-9.22,13-12.83,20.05-2.07,4-2.71,9.08-2.89,13.72a112.18,112.18,0,0,0,1.09,18.75c1.15,8.74,2.88,17.4,4.36,26.1-.18-3.62-.49-7.24-.62-10.85.13,3.61.44,7.23.62,10.85,0,3.37.07,6.74.1,10.11l2.65,1.68c1.76,3.36,3.59,6.68,5.26,10.08,2.15,4.37,4.16,8.8,6.23,13.21.1.45.22.89.35,1.32.6,2,1.21,4,1.81,5.92l1,4.44c-.49,9.15-2.21,11-11,11.38-5,.2-10.09.11-15.13.15-2.07-.49-4.14-1.4-6.21-1.42-14.91-.08-29.81,0-44.71.06a12.16,12.16,0,0,0-.18,1.21l51.1.15h0l-51.1-.15-17.31,6.14-45.29,10L388,472.22a46.5,46.5,0,0,1-14.21,11.41,31.59,31.59,0,0,1-6.23,2.28,31.59,31.59,0,0,0,6.23-2.28A46.5,46.5,0,0,0,388,472.22c-2.38,1.06-4.79,2-7.12,3.18-8,3.91-15.15,10.09-24.79,10.07a6.65,6.65,0,0,0-.28,1.17l-4.16.19c-14.05-.35-28.1-.55-42.13-1.18-3.26-.15-6.53-1.57-9.67-2.74-7.66-2.87-14.31-.82-20.15,4.2-5,4.3-9.85,6-16.58,3.42-4.07-1.57-9.08-.7-13.66-.92l-22,5.71-5.63,3.12-8.66,5.91c-7.13,4.56-14.09,9.41-21.34,13.73,7.25-4.32,14.21-9.17,21.34-13.73-5.88,1.52-11.71,3.22-17.63,4.53s-12.8.8-15,8.82c-.29,1.08-2.77,1.6-4.27,2.32-3.43,1.64-6.89,3.23-10.32,4.89-3.24,1.55-6.44,4.47-9.67,4.51-11.75.11-19,7.27-26.38,14.81-6.62,6.76-13.55,13.22-20.34,19.81h0c-2.65,1.38-5.85,2.22-7.84,4.24-5,5.06-9.44,10.65-14.1,16h0l-7.12,8.9c1.47,9.08.92,13.73-4.6,18.27,5.52-4.54,6.07-9.19,4.6-18.27a6.39,6.39,0,0,0-1.23.25c-3.81,4.79-7.92,9.39-11.32,14.46-2.27,3.39-3.53,7.45-5.25,11.21L40.81,641l-1.42,1.56L22.26,678c.34,15.68-5.89,29.19-13.95,42.07-8.49,13.56-3.88,29.06,10.23,36,7.77,3.84,15,8.75,22.51,13.18l5.44,1.74h0l10.43,2.81h0L74.55,781a11.72,11.72,0,0,1-.6-2.82,11.72,11.72,0,0,0,.6,2.82c7.22,2.66,14.41,5.41,21.67,7.95,10.72,3.76,21.5,7.36,32.25,11a10.89,10.89,0,0,1,3.52-4.67,10.89,10.89,0,0,0-3.52,4.67l42.05,17.75,6.31,3.19,1.3.89c11.57,4.56,23.33,8.72,34.68,13.79C229,842.81,245,850.7,261,858.31c2.37,1.64,4.74,3.25,7.09,4.9l42.61,29.92c7.75,7.29,15.68,14.39,23.21,21.89,10,9.92,19.36,20.44,29.49,30.18,15.56,14.95,31.23,29.8,47.42,44,16,14.08,32.2,28,49.29,40.75,12.57,9.35,26.7,16.61,40.14,24.79l2.84.12c-2.38-1.64-4.69-3.39-7-5.13,2.33,1.74,4.64,3.49,7,5.13h0a25.45,25.45,0,0,1,10,4.11,25.45,25.45,0,0,0-10-4.11c11.29,5.82,16.24,16.33,21,27.31,6.24,14.2,12.14,28.82,25.43,38.45,5.87,12.68,11.18,25.66,17.76,38,6.26,11.69,12.85,23.46,21,33.81,16.35,20.66,33.89,40.37,51,60.46,7.22,8.48,14.71,16.75,21.71,25.41,10.28,12.73,16.8,14.83,33,9.79l4.28-.13h0c5.25-7.65,9.94-15.79,16-22.77,3.86-4.46,9.7-7.2,14.66-10.71,4-3,8.33-5.7,11.84-9.2,10.9-10.89,23.37-16.85,39.1-14l26.33,13.1c8.34,5.45,18.51,8.69,20.33,21.07.63,4.27,5.14,7.93,7.71,12,1.55,2.43,2.77,5.06,4.14,7.6,8.77,3.34,12.58,13.23,8.5,22a10.66,10.66,0,0,0,.21,1.36c1.63.18,4.26-.2,4.73.64,3.51,6.24,9.49,7.24,15.64,8.12,6.38-.14,10.23,3.24,14.4,8,12.2,13.92,13.42,31.08,16.2,48a25.6,25.6,0,0,0,3.39,9.39c10.34,16.37,21.06,32.49,31.36,48.88,2.24,3.56,3.28,7.88,4.9,11.85,2.69,6.61,4.29,14,8.29,19.67A289.74,289.74,0,0,1,979.72,1527l21.77,32.19c10.55,10,22.79,18.35,28.15,33,2.26,6.17,8.6,5.48,14.1,4.9l-13.23-21.75L1019,1562c-2-3.65-4.28-7.19-6.22-10.88,1.94,3.69,4.19,7.23,6.22,10.88l11.55,13.31q6.6,10.88,13.22,21.75l13.34,1.75,4.2,0c20.36-4,40.75-7.88,61.07-12.09,9.92-2,19.7-4.73,29.55-7.12-11.82,2.22-23.64,4.42-35.44,6.69,11.8-2.27,23.62-4.47,35.44-6.69,14.14-4.54,28.3-9,42.41-13.65a83.63,83.63,0,0,0,8.48-3.85l42.27-16,14.34-9,27.87-11.48c10-5.85,20.15-11.55,30.07-17.59,16.93-10.31,34.82-19.47,50.31-31.64,17-13.4,34.86-26.36,48.26-43.93a16.11,16.11,0,0,1,1.59-1.5l41.87-42.15c-.11-.53-.21-1.06-.31-1.59h0c.1.53.2,1.06.31,1.59,1-1,2.3-1.87,3-3.07,8.6-15.62,20.86-29.15,26-46.84,1.63-5.64,5.79-10.54,8.79-15.79C1496.53,1318.91,1497.05,1314.22,1495.19,1310.83Z"/></svg>