<svg id="Layer_1" data-name="Layer 1" xmlns="http://www.w3.org/2000/svg" viewBox="0 0 376.2 72.92"><path d="M374.7,3H1.5a1.5,1.5,0,0,1,0-3H374.7a1.5,1.5,0,0,1,0,3Z"/><path d="M374.7,72.92H1.5a1.5,1.5,0,0,1,0-3H374.7a1.5,1.5,0,0,1,0,3Z"/><path d="M18.24,17.43A11.55,11.55,0,0,1,24,18.85a9.56,9.56,0,0,1,3.78,3.91,12.71,12.71,0,0,1,1.39,6,11.3,11.3,0,0,1-1.28,5.49,9,9,0,0,1-3.52,3.57l-.11.06-.11.08a2.41,2.41,0,0,0-.94,2.47l0,.16.06.16,5.54,14.63H21.42L16.56,41a2.36,2.36,0,0,0-2.34-1.74H13.14a2.3,2.3,0,0,0-2.36,2.36V55.43H3.5v-38H18.24m0-2H2.4a.89.89,0,0,0-.66.24.89.89,0,0,0-.24.66v40.2a.89.89,0,0,0,.24.66.89.89,0,0,0,.66.24h9.48a.83.83,0,0,0,.9-.9V41.65a.32.32,0,0,1,.36-.36h1.08a.37.37,0,0,1,.42.3l5.1,15.12a1,1,0,0,0,1,.72h9.9q.78,0,.78-.6a1.33,1.33,0,0,0-.06-.42L25.2,40.09a.45.45,0,0,1,.18-.48,11,11,0,0,0,4.29-4.35,13.2,13.2,0,0,0,1.53-6.45,14.6,14.6,0,0,0-1.62-7A11.62,11.62,0,0,0,25,17.11a13.42,13.42,0,0,0-6.78-1.68Z"/><path d="M44,17.43v38H36.68v-38H44m1.1-2H35.58a.83.83,0,0,0-.9.9v40.2a.83.83,0,0,0,.9.9h9.48a.83.83,0,0,0,.9-.9V16.33a.83.83,0,0,0-.9-.9Z"/><path d="M64.26,17a14.94,14.94,0,0,1,6.83,1.49,10.86,10.86,0,0,1,4.43,4,10.52,10.52,0,0,1,1.56,5.65H69.8a5.67,5.67,0,0,0-1.49-3.76,5.61,5.61,0,0,0-8.17.13,6.37,6.37,0,0,0-1.48,4.31v15.3a6.19,6.19,0,0,0,1.66,4.41,5.64,5.64,0,0,0,4.18,1.79,5.31,5.31,0,0,0,3.87-1.55,5.48,5.48,0,0,0,1.55-4.05v-1.8a2.31,2.31,0,0,0-2.36-2.36H65.84V35.61H77.08v8.56a11.79,11.79,0,0,1-1.58,6.18,10.54,10.54,0,0,1-4.41,4.07,14.94,14.94,0,0,1-6.83,1.49,14.79,14.79,0,0,1-6.88-1.52A10.53,10.53,0,0,1,53,50.24a12.37,12.37,0,0,1-1.59-6.37V28.93A12.29,12.29,0,0,1,53,22.6a10.57,10.57,0,0,1,4.42-4.13A14.79,14.79,0,0,1,64.26,17m0-2a16.73,16.73,0,0,0-7.8,1.74,12.71,12.71,0,0,0-5.22,4.89,14.19,14.19,0,0,0-1.86,7.35V43.87a14.35,14.35,0,0,0,1.86,7.38,12.65,12.65,0,0,0,5.22,4.92,16.73,16.73,0,0,0,7.8,1.74A16.84,16.84,0,0,0,72,56.2a12.57,12.57,0,0,0,5.22-4.83,13.79,13.79,0,0,0,1.86-7.2V34.51a.83.83,0,0,0-.9-.9H64.74a.83.83,0,0,0-.9.9v7.08a.83.83,0,0,0,.9.9h2.82a.32.32,0,0,1,.36.36v1.8a3.57,3.57,0,0,1-1,2.64,3.33,3.33,0,0,1-2.46,1,3.62,3.62,0,0,1-2.73-1.17,4.22,4.22,0,0,1-1.11-3V28.75a4.41,4.41,0,0,1,1-3,3.29,3.29,0,0,1,2.61-1.14,3.32,3.32,0,0,1,2.58,1.05,3.72,3.72,0,0,1,1,2.61v.9a.83.83,0,0,0,.9.9h9.48a.83.83,0,0,0,.9-.9v-1a12.6,12.6,0,0,0-1.86-6.78A12.84,12.84,0,0,0,72,16.66,16.84,16.84,0,0,0,64.26,15Z"/><path d="M109.84,17.43v38h-7.28v-14a2.31,2.31,0,0,0-2.36-2.36h-6a2.3,2.3,0,0,0-2.36,2.36v14H84.56v-38h7.28V31.09a2.3,2.3,0,0,0,2.36,2.36h6a2.31,2.31,0,0,0,2.36-2.36V17.43h7.28m1.1-2h-9.48a.83.83,0,0,0-.9.9V31.09a.32.32,0,0,1-.36.36h-6a.32.32,0,0,1-.36-.36V16.33a.83.83,0,0,0-.9-.9H83.46a.83.83,0,0,0-.9.9v40.2a.83.83,0,0,0,.9.9h9.48a.83.83,0,0,0,.9-.9V41.47a.32.32,0,0,1,.36-.36h6a.32.32,0,0,1,.36.36V56.53a.83.83,0,0,0,.9.9h9.48a.83.83,0,0,0,.9-.9V16.33a.83.83,0,0,0-.9-.9Z"/><path d="M143.26,17.43v5.66h-7.42a2.3,2.3,0,0,0-2.36,2.36v30H126.2v-30a2.31,2.31,0,0,0-2.36-2.36H116.6V17.43h26.66m1.1-2H115.5a.83.83,0,0,0-.9.9v7.86a.83.83,0,0,0,.9.9h8.34a.32.32,0,0,1,.36.36V56.53a.83.83,0,0,0,.9.9h9.48a.83.83,0,0,0,.9-.9V25.45a.32.32,0,0,1,.36-.36h8.52a.83.83,0,0,0,.9-.9V16.33a.83.83,0,0,0-.9-.9Z"/><path d="M188.08,17.43v5.66h-7.42a2.3,2.3,0,0,0-2.36,2.36v30H171v-30a2.31,2.31,0,0,0-2.36-2.36h-7.24V17.43h26.66m1.1-2H160.32a.83.83,0,0,0-.9.9v7.86a.83.83,0,0,0,.9.9h8.34a.32.32,0,0,1,.36.36V56.53a.83.83,0,0,0,.9.9h9.48a.83.83,0,0,0,.9-.9V25.45a.32.32,0,0,1,.36-.36h8.52a.83.83,0,0,0,.9-.9V16.33a.83.83,0,0,0-.9-.9Z"/><path d="M206.94,17a15.24,15.24,0,0,1,7,1.55,10.5,10.5,0,0,1,4.49,4.23,13,13,0,0,1,1.6,6.56V43.57a13.06,13.06,0,0,1-1.62,6.59,10.94,10.94,0,0,1-4.51,4.3,16.35,16.35,0,0,1-14,0,10.7,10.7,0,0,1-4.47-4.29,13.16,13.16,0,0,1-1.6-6.6V29.29a13.09,13.09,0,0,1,1.59-6.56,10.62,10.62,0,0,1,4.47-4.23,15.05,15.05,0,0,1,7-1.55m0,33.42a5.51,5.51,0,0,0,4.29-1.88,6.6,6.6,0,0,0,1.55-4.5V29a6.62,6.62,0,0,0-1.55-4.5,5.53,5.53,0,0,0-4.29-1.88,5.47,5.47,0,0,0-4.24,1.88,6.66,6.66,0,0,0-1.54,4.5V44a6.64,6.64,0,0,0,1.54,4.5,5.47,5.47,0,0,0,4.24,1.88m0-35.42A17,17,0,0,0,199,16.72a12.64,12.64,0,0,0-5.28,5,14.92,14.92,0,0,0-1.86,7.56V43.57a15.09,15.09,0,0,0,1.86,7.59A12.78,12.78,0,0,0,199,56.23a18.32,18.32,0,0,0,15.84,0,13,13,0,0,0,5.31-5.07,14.9,14.9,0,0,0,1.89-7.59V29.29a14.92,14.92,0,0,0-1.86-7.56,12.6,12.6,0,0,0-5.31-5A17.18,17.18,0,0,0,206.94,15Zm0,33.42a3.46,3.46,0,0,1-2.73-1.2A4.66,4.66,0,0,1,203.16,44V29a4.66,4.66,0,0,1,1.05-3.18,3.46,3.46,0,0,1,2.73-1.2,3.52,3.52,0,0,1,2.79,1.2A4.66,4.66,0,0,1,210.78,29V44a4.66,4.66,0,0,1-1.05,3.18,3.52,3.52,0,0,1-2.79,1.2Z"/><path d="M285.3,17a15.24,15.24,0,0,1,7,1.55,10.5,10.5,0,0,1,4.49,4.23,13,13,0,0,1,1.6,6.56V43.57a13.06,13.06,0,0,1-1.62,6.59,11,11,0,0,1-4.51,4.3,16.35,16.35,0,0,1-14,0,10.64,10.64,0,0,1-4.47-4.29,13.06,13.06,0,0,1-1.6-6.6V29.29a13,13,0,0,1,1.59-6.56,10.51,10.51,0,0,1,4.47-4.23,15.05,15.05,0,0,1,7-1.55m0,33.42a5.53,5.53,0,0,0,4.29-1.88,6.6,6.6,0,0,0,1.55-4.5V29a6.62,6.62,0,0,0-1.55-4.5,5.53,5.53,0,0,0-4.29-1.88,5.47,5.47,0,0,0-4.24,1.88,6.66,6.66,0,0,0-1.54,4.5V44a6.64,6.64,0,0,0,1.54,4.5,5.47,5.47,0,0,0,4.24,1.88m0-35.42a17,17,0,0,0-7.92,1.77,12.64,12.64,0,0,0-5.28,5,14.92,14.92,0,0,0-1.86,7.56V43.57a15.09,15.09,0,0,0,1.86,7.59,12.78,12.78,0,0,0,5.28,5.07,18.32,18.32,0,0,0,15.84,0,13,13,0,0,0,5.31-5.07,14.9,14.9,0,0,0,1.89-7.59V29.29a14.92,14.92,0,0,0-1.86-7.56,12.6,12.6,0,0,0-5.31-5A17.18,17.18,0,0,0,285.3,15Zm0,33.42a3.46,3.46,0,0,1-2.73-1.2A4.66,4.66,0,0,1,281.52,44V29a4.66,4.66,0,0,1,1.05-3.18,3.46,3.46,0,0,1,2.73-1.2,3.52,3.52,0,0,1,2.79,1.2A4.66,4.66,0,0,1,289.14,29V44a4.66,4.66,0,0,1-1.05,3.18,3.52,3.52,0,0,1-2.79,1.2Z"/><path d="M324.59,17.43l10,38H327l-.85-3.83,0-.17-.06-.15a2.38,2.38,0,0,0-2.21-1.55h-9a2.37,2.37,0,0,0-2.22,1.56l-.07.16,0,.17-.79,3.81h-7.52l10.09-38h10.31m-7.85,27.66h5.1a2.31,2.31,0,0,0,2.34-2.7v-.07l0-.07-2.7-12.48v-.08a2.23,2.23,0,0,0-4.35,0v.08l-2.64,12.48,0,.2v.33a2.28,2.28,0,0,0,2.36,2.3m8.64-29.66H313.5a.9.9,0,0,0-1,.78l-10.68,40.2a.84.84,0,0,0,.09.75.82.82,0,0,0,.69.27h9.84a.94.94,0,0,0,1-.78l1-4.62q.12-.3.36-.3h9q.24,0,.36.3l1,4.62a.94.94,0,0,0,1,.78h10q.84,0,.84-.72a.67.67,0,0,0-.06-.3l-10.62-40.2a.9.9,0,0,0-1-.78Zm-8.64,27.66q-.36,0-.36-.3v-.12L319,30.19q.06-.24.24-.24t.24.24l2.7,12.48q.06.42-.36.42Z"/><path d="M372.7,17.43v38h-7.28V33.49A2.28,2.28,0,0,0,364,31.33a2.08,2.08,0,0,0-.78-.15,2.22,2.22,0,0,0-2,1.21l-3.59,5.94h-.73l-3.59-6a2.23,2.23,0,0,0-2-1.2,2.09,2.09,0,0,0-.79.15,2.27,2.27,0,0,0-1.41,2.16v22H341.9v-38h7.84L355.39,27l0,0,0,.05a2.32,2.32,0,0,0,1.94,1.07,2.2,2.2,0,0,0,2-1.28l5.47-9.46h7.84m1.1-2h-9.36a1.1,1.1,0,0,0-1.08.6L357.6,26q-.06.18-.21.18a.33.33,0,0,1-.27-.18l-5.88-10a1.18,1.18,0,0,0-1.08-.6H340.8a.83.83,0,0,0-.9.9v40.2a.83.83,0,0,0,.9.9h9.48a.83.83,0,0,0,.9-.9V33.43q0-.24.15-.3h.05c.08,0,.15.06.22.19l3.84,6.42a1.18,1.18,0,0,0,1.08.6h1.56a1.18,1.18,0,0,0,1.08-.6L363,33.37c.06-.13.13-.19.21-.19h.06q.15.06.15.3v23a.83.83,0,0,0,.9.9h9.48a.83.83,0,0,0,.9-.9V16.33a.83.83,0,0,0-.9-.9Z"/><path d="M10.54,27.1h2.79v7.12H6.48s-.1-4,0-5.56c.32-5.08,1.71-6.81,6.72-7.24l.68,2.21C9.92,23.93,10.54,27.1,10.54,27.1Z"/><path d="M19.66,27.27h2.78v7.11H15.59s-.1-4,0-5.55c.32-5.09,1.71-6.82,6.72-7.25.26.84.48,1.55.68,2.21C19,24.09,19.66,27.27,19.66,27.27Z"/><path d="M254.28,17.52a11.49,11.49,0,0,1,5.78,1.42,9.52,9.52,0,0,1,3.79,3.91,12.71,12.71,0,0,1,1.39,6A11.19,11.19,0,0,1,264,34.39,8.83,8.83,0,0,1,260.43,38l-.11.06-.1.08a2.41,2.41,0,0,0-.94,2.47l0,.16.06.16,5.54,14.63h-7.45l-4.86-14.4a2.36,2.36,0,0,0-2.34-1.74h-1.08a2.3,2.3,0,0,0-2.36,2.36V55.52h-7.28v-38h14.74m0-2H238.44a.83.83,0,0,0-.9.9v40.2a.83.83,0,0,0,.9.9h9.48a.83.83,0,0,0,.9-.9V41.74a.32.32,0,0,1,.36-.36h1.08a.37.37,0,0,1,.42.3l5.1,15.12a1,1,0,0,0,1,.72h9.9q.78,0,.78-.6a1.33,1.33,0,0,0-.06-.42l-6.18-16.32a.45.45,0,0,1,.18-.48,11,11,0,0,0,4.29-4.35,13.2,13.2,0,0,0,1.53-6.45,14.6,14.6,0,0,0-1.62-7,11.62,11.62,0,0,0-4.56-4.71,13.42,13.42,0,0,0-6.78-1.68Z"/><path d="M254.92,28.79h-2.79V21.67H259s.1,4,0,5.56c-.32,5.08-1.7,6.81-6.72,7.24-.25-.84-.47-1.55-.68-2.21C255.54,32,254.92,28.79,254.92,28.79Z"/><path d="M245.81,28.62H243V21.51h6.85s.1,4,0,5.55c-.32,5.09-1.7,6.82-6.72,7.25-.26-.84-.47-1.55-.68-2.21C246.43,31.8,245.81,28.62,245.81,28.62Z"/></svg>