<svg id="Layer_1" data-name="Layer 1" xmlns="http://www.w3.org/2000/svg" viewBox="0 0 425.2 425.2"><title>R2R Logo</title><path d="M212.6,13.09c110,0,199.5,89.5,199.5,199.51S322.61,412.1,212.6,412.1,13.09,322.61,13.09,212.6,102.59,13.09,212.6,13.09M212.6,0C95.18,0,0,95.18,0,212.6S95.18,425.2,212.6,425.2,425.2,330,425.2,212.6,330,0,212.6,0Z"/><path d="M272.46,160.69c15,17.08,26.54,35.54,34.13,56.34,6.14,16.83,9.46,34.05,6,52-2.38,12.22-8.17,22.56-16.64,31.62a13.38,13.38,0,0,0-3.3,7.64c-1.18,16.49-2.92,32.8-9.94,48.05-.8,1.75-1.89,3.36-2.7,5.09-3.49,7.5-9.1,10.81-17.58,11.49-28.66,2.31-57.29,4.76-86,1.17-6.75-.85-13.4-2.52-20.09-3.83a15.2,15.2,0,0,1-12.06-10.53c-2.11-6.27-4.44-12.69-5-19.19a148.49,148.49,0,0,0-18.85-60c-14-24.93-11-50.51,2.71-74.63,6.87-12.12,15.82-23.07,24.05-34.39,2.07-2.85,2.49-4.88.85-8.32-5-10.55-11-21-13.74-32.23-7.87-31.7,7-59.47,38.87-73.31,23.91-10.37,48.75-11.18,73.22-2C277.38,67.3,293,94.5,289,127.63a50.47,50.47,0,0,1-11.14,26.19C276.15,156,274.44,158.18,272.46,160.69ZM190.19,360.78c-8.32-8.83-12.35-19.58-13.93-31.13C173,306,168.45,282.8,160.64,260.16,152,235,157,212,173.44,191.11c6.58-8.37,12.19-17.5,18.4-26.17,2.19-3,1.84-4.83-1.13-7.3C178,147.06,171,133.41,171.89,116.76c1.05-18.78,9-34.29,24.83-45.22,2.88-2,5.51-4.33,8.25-6.51l-.86-2.27c-2.71.21-5.56,0-8.09.72-16.34,5-29.38,14.56-38.27,29.32-11.6,19.29-10.52,37.56,2.83,55.6a140.4,140.4,0,0,1,8,12.85c2.21,3.78,1.49,6.79-1.76,10.15C151,187.75,140.35,207,136.48,229.6c-3.15,18.41-3.83,36.74,8,52.93,8.29,11.34,10.57,24.46,12.55,37.91,1.47,10,3.21,20.11,6.51,29.59C167.59,361.56,177.92,365.24,190.19,360.78Z"/></svg>