<svg id="Layer_1" data-name="Layer 1" xmlns="http://www.w3.org/2000/svg" viewBox="0 0 425.2 425.2"><title>Logo Mouseover</title><path d="M212.6,13.09c110,0,199.5,89.5,199.5,199.51S322.61,412.1,212.6,412.1,13.09,322.61,13.09,212.6,102.59,13.09,212.6,13.09M212.6,0C95.18,0,0,95.18,0,212.6S95.18,425.2,212.6,425.2,425.2,330,425.2,212.6,330,0,212.6,0Z"/><path d="M306.59,217c-7.59-20.8-19.16-39.26-34.13-56.34,2-2.51,3.69-4.7,5.44-6.87A50.47,50.47,0,0,0,289,127.63c4-33.13-11.66-60.33-42.73-72a95.07,95.07,0,0,0-73.22,2C141.21,71.48,126.35,99.25,134.22,131c2.78,11.2,8.7,21.68,13.74,32.23,1.64,3.44,1.22,5.47-.85,8.32-8.23,11.32-17.18,22.27-24.05,34.39-13.69,24.12-16.69,49.7-2.71,74.63a148.49,148.49,0,0,1,18.85,60c.6,6.5,2.93,12.92,5,19.19a15.22,15.22,0,0,0,12.06,10.53c6.69,1.31,13.34,3,20.09,3.83a254,254,0,0,0,31.49,1.81c18.18,0,36.34-1.51,54.51-3,8.48-.68,14.09-4,17.58-11.49.81-1.73,1.9-3.34,2.7-5.09,7-15.25,8.76-31.56,9.94-48.05a13.38,13.38,0,0,1,3.3-7.64c8.47-9.06,14.26-19.4,16.64-31.62C316.05,251.08,312.73,233.86,306.59,217Zm-7.48,52.31a55.12,55.12,0,0,1-11.24,21.22c-5.75,7-7.87,12.6-8.63,21.72-1.19,14.25-5,34.71-14.47,46.37-3.55,4.34-8.64,4.08-13.85,4.49-9.23.74-18.46,1.46-27.7,1.93-10.31.53-20.57.21-30.88-.05-2.55-.06-5.42.22-7.48-1.46a18.46,18.46,0,0,1-3.77-4.53,82.27,82.27,0,0,1-5.35-10.76c-6.22-14-4.38-30.32-7.26-45.17-3.06-15.84-7.83-30.92-12.37-46.36-4.19-14.24-4.19-29.21.95-43.22,5.46-14.88,16.42-27,25.23-40,3.9-5.72,9.71-10,5-16.08-4.06-5.2-9.21-8.7-12.67-14.62-6.69-11.49-7.48-24.94-4.59-37.73,3.89-17.27,17.81-35.38,34.67-41.83C228,54.38,258.25,68.06,270,89.48a59,59,0,0,1,5.06,42c-1.93,7.26-6,12.9-10.59,18.72-1.64,2.09-6.38,6.29-7,8.87-1.19,4.84,12.27,16.95,15.39,21.22a160.44,160.44,0,0,1,21.4,39.64C299.93,235.53,303.35,252.89,299.11,269.34Z"/></svg>