<svg id="Layer_1" data-name="Layer 1" xmlns="http://www.w3.org/2000/svg" viewBox="0 0 1500 2067.75"><defs><style>.cls-1{fill:#1b1b1b;}.cls-2{fill:#313131;}.cls-3{fill:#b2b2b2;}.cls-4{fill:#363636;}.cls-5{fill:#6e6e6e;}.cls-6{fill:#515151;}.cls-7{fill:#585858;}.cls-8{fill:#3a3a3a;}.cls-9{fill:#929292;}.cls-10{fill:#3f3f3f;}.cls-11{fill:#565656;}.cls-12{fill:#606060;}.cls-13{fill:#8b8b8b;}.cls-14{fill:#7d7d7d;}.cls-15{fill:#252525;}.cls-16{fill:#2b2b2b;}.cls-17{fill:#383838;}.cls-18{fill:#525252;}.cls-19{fill:#353535;}.cls-20{fill:#373737;}.cls-21{fill:#8e8e8e;}.cls-22{fill:#9f9f9f;}.cls-23{fill:#393939;}.cls-24{fill:#434343;}.cls-25{fill:#272727;}.cls-26{fill:#474747;}.cls-27{fill:#424242;}.cls-28{fill:#494949;}.cls-29{fill:#989898;}.cls-30{fill:#666;}.cls-31{fill:#5b5b5b;}.cls-32{fill:#6d6d6d;}.cls-33{fill:#343434;}.cls-34{fill:#3b3b3b;}.cls-35{fill:#545454;}.cls-36{fill:#717171;}.cls-37{fill:#8f8f8f;}.cls-38{fill:#535353;}.cls-39{fill:#747474;}.cls-40{fill:#4c4c4c;}.cls-41{fill:#676767;}.cls-42{fill:#1a1a1a;}.cls-43{fill:#cecece;}.cls-44{fill:#919191;}.cls-45{fill:#d4d4d4;}.cls-46{fill:#c8c8c8;}.cls-47{fill:#d2d2d2;}.cls-48{fill:#8c8c8c;}.cls-49{fill:#909090;}.cls-50{fill:#727272;}.cls-51{fill:#c6c6c6;}.cls-52{fill:#c4c4c4;}.cls-53{fill:#d6d6d6;}.cls-54{fill:#4e4e4e;}.cls-55{fill:#1c1c1c;}.cls-56{fill:#b6b6b6;}.cls-57{fill:#2f2f2f;}.cls-58{fill:#888;}.cls-59{fill:#5f5f5f;}.cls-60{fill:#6c6c6c;}.cls-61{fill:#4d4d4d;}.cls-62{fill:#b1b1b1;}.cls-63{fill:#f0f0f0;}.cls-64{fill:#dedede;}.cls-65{fill:#757575;}.cls-66{fill:#eee;}.cls-67{fill:#aaa;}.cls-68{fill:#737373;}.cls-69{fill:#e2e2e2;}.cls-70{fill:#e7e7e7;}.cls-71{fill:#e3e3e3;}.cls-72{fill:#181818;}.cls-73{fill:#161616;}.cls-74{fill:#4b4b4b;}.cls-75{fill:#858585;}</style></defs><path class="cls-1" d="M204.66,1439.46c9.14.85,16.69-1.26,21.58-10.06,1.07-1.93,4.71-2.42,7.17-3.57,6-.38,12.13-.07,17.92-1.35,5.33-1.18,11.5-2.84,15.16-6.46,9.26-9.16,19-16.81,32.13-19.1,4.66-2.66,9.35-5.28,14-8,26.7-15.6,53.71-30.7,79.84-47.2,6.78-4.27,10.78-12.94,16.05-19.6l2.12-5.82,2-11.17c1.18-6.54,3.25-13.07,3.32-19.63.12-10.79-1.81-21.64-1.28-32.39.2-4,4-9.49,7.7-11.24,30.56-14.66,62.37-24,96.88-19.81,13.4,1.64,22.32-5.38,29.42-15.7l11.71-11.18,12-4.17c4.49,9.77,8.76,19,13,28.27,19.51,42.8,39.32,85.38,65.53,124.71,7.28,10.92,16.14,17.76,28.66,20.4l3.79,2.06c2.59,1.25,5.15,2.55,7.77,3.73,10.23,4.6,10.85,4.16,11.57-7.44.17-2.86.85-5.7,1-8.56.66-13,5.2-27.53,1-38.81-11.4-30.87-22.41-63.23-53.33-81.6-16.08-9.55-23.22-22.61-20-41.27,1.23-7.1-2-11.73-8.48-15.44-28-16.11-54.66-33.87-77.92-56.95-14.8-14.69-33.2-25.75-50-38.44-5.92-5.3-12.78-9.88-17.6-16-19.73-25.22-34.69-53-40.73-84.78A110.69,110.69,0,0,1,435,956.53c.66-12.09,2.75-24.1,4.22-36.15l9.21-37.1,4-15,.3.17c1.84-2.32,4.85-4.43,5.32-7a106,106,0,0,0,2.12-21.86c-1-35.07-2.82-70.11-3.42-105.18a59,59,0,0,1,5.4-24.8c8.15-17.72,12.92-35.53,11.9-55.38-1.17-22.94-.11-46-.22-69,0-4.41-1-8.81-1.52-13.22-.14-.55-.28-1.1-.43-1.65,2.44-34.45,4.94-68.94,26.84-98,6.11-8.11,5.85-15.28,0-23.39-3.26-4.5-7.68-10.56-6.91-15.14,2.39-14.31,7-28.26,10.75-42.35l0,0c11.7-3.14,23.51-5.91,35-9.66,3-1,6.66-4.71,7.15-7.66,3-17.86,5.19-35.87,7.65-53.83q-.06-4-.13-8,0-5.31,0-10.61c1.8-7.94-3.63-11-9.35-13.84-2.51-10.54-4.6-21.19-7.67-31.56-1.92-6.45-1.09-10.76,4.62-14.82,9.9-7,19.52-14.51,28.86-22.29a26.37,26.37,0,0,0,7.78-10.41c5.3-14.42,10.28-29,14.49-43.76a20.46,20.46,0,0,0-1.44-13.47c-4.61-9.41-4.85-10.5,5.44-12.71,23.77-5.12,47.67-9.6,71.43-14.7,3.7-.8,9.85-3.35,10-5.43,1-14.4,4.74-29.28-4.55-42.78-2.94-4.28-5.52-4.61-9.36-1.77q-13.11,9.7-26.34,19.29c-2.81,2-5.75,3.91-8.64,5.87-.38-.54-.76-1.07-1.15-1.6l15-40.37,20.74-17.85c11.06-4.09,22.24-7.9,33.15-12.36,7.63-3.11,13.82-2.59,20.23,3.14,16.76,15,34.3,28.86,56,36.24,4.83,1.64,10,3.23,13.94,6.28,4.12,3.24,8.44,7.71,10,12.5,3.54,11.26,5.59,23,8,34.6,1.3,6.24,4.19,8.58,10.8,7,12.75-3.11,25.59-6,38.51-8.24,18.72-3.31,37.55-6,56.33-9-20.13,14.38-33.54,33.58-47.16,53,9.93-.75,18.91-2.77,27.92-4.69,5.37-1.15,9.06-.17,8,6.63-2.68,16.74-4.74,33.46-16.19,47.44a202.82,202.82,0,0,0-19.1,28.8,22.44,22.44,0,0,0-2.36,14.3c2.18,10.62,5.88,20.94,8.91,31.39,3.86,13.32,13.24,18.83,28.88,16.15-1.47-4-2.31-8.12-4.39-11.51-8.28-13.44-9.76-26,3-37.75,2.75-2.55,4.38-6.29,6.68-9.36,15.84-21.07,15.78-20.87,40.58-12.12,18.47,6.52,19,4.51,10.88,24.8-13.28,33-7.49,65.17,2.61,97.17,3.19,10.11,8.92,19.42,14,30.16,6.89-5.77,12.25-10.69,18.06-15,7.88-5.87,10.75-12.72,7.36-22.46-6.1-17.53-7.16-35.7-4.85-54,2-16.08,2.13-31.7-5.25-46.9a235.11,235.11,0,0,1-12.38-32.26,33.31,33.31,0,0,1-.63-15.76c3-15.05,6.92-29.91,10.31-44.89.65-2.88.49-5.94.81-10.4l-23.35,8.52,29.27-29.87c8.14,12.5,17.17,25.66,25.41,39.28,4.57,7.55,10.51,11.27,19.18,12.32,21.58,2.62,43.1,5.69,64.61,8.81,16.57,2.4,19.36,1.14,27.28-13.85.75-1.42,1.43-2.87,2.17-4.29,6.55-12.64,6.79-12.7,17.47-4.22l3.81,3.87c5.59,8.48,12.42,16.4,16.5,25.55,8.07,18.1,14.64,36.88,21.81,55.38q7.77,20.1,15.49,40.21c.09.62.18,1.23.3,1.85,0,1.16,0,2.33,0,3.49,3.86,18.1,8.65,36.05,11.37,54.31,4.46,30,3.71,59.27-18.09,83.86-2.94,3.32-5.17,7.32-7.43,11.17-1.17,2-1.7,4.39-3,7.8,6.56,1.06,11.82,2.44,17.13,2.69,26.68,1.28,26.69,1.18,26.69,27.07l.39,2.32c0,3.56-.08,7.13-.11,10.69q1.85,6.93,3.7,13.84,5.63,22.17,11.23,44.33,3,8.6,6,17.2l9.54,67.32,0,0c2.94,15,4.49,30.52,9.15,45,6,18.59-4.84,31.46-11.78,46.15a32.91,32.91,0,0,1-3.18-11.06C1252,667.31,1237,626,1215.6,587.06c-14-25.39-26.73-50.84-27-80.73,0-4.69-1.73-9.37-2.66-14.05l-1.74.24c-1.84,11.07-3.68,22.13-5.88,35.39-3.5-4.09-5.19-6.33-7.14-8.32-8-8.14-16-16.21-24.06-24.31l-6.27-7.5c-5.2-11.29-10.43-14.39-21.39-13.28-13.31,1.36-26.65,2.42-40,3.61l-2-1.67c-2.41-3.78-5.2-7.37-7.18-11.36-5.42-10.91-13.92-16.55-26-18.55-25.84-4.25-51.38-10.72-77.33-13.76-22.79-2.68-46-2.17-69-2.45-4.49-.06-9.39,2.06-13.43,4.36-10.29,5.85-20.23,12.33-30.26,18.64-18.28,11.51-38.61,8.64-58.54,8.29-2.06,0-4.19-1.55-6.1-2.69-11.28-6.73-22.83-13.08-33.56-20.59-3.51-2.46-6.78-8-6.86-12.13-.28-14,1.22-28.1,1.46-42.15.13-7.84,2.92-10.57,10.6-8.14,12.51,4,25.19,7.44,37.62,11.64,6.4,2.16,9.53.34,11.32-5.91,2.82-9.85,5.55-19.78,9.24-29.31,3.22-8.32,1.58-13.85-7-16.36-19.93-5.84-30.26-19.91-34.71-39.33-.57-2.48-1.83-4.81-2.38-7.3-2.77-12.44-9.75-19-22.81-22.3-30.77-7.81-30.63-8.73-58.16,6.78a19.38,19.38,0,0,0-8,8.8c-4.59,11.26-8.12,22.94-12.41,34.33-2.47,6.53-.61,10.16,5.9,12.45,13,4.56,25.71,9.92,38.79,14.19,8.37,2.74,11.24,7.48,11.12,16.26-.38,26.81-2.53,53.85,7.86,79.69,2.61,6.51,4.18,13.45,6,20.27,3.81,14.69-2.71,27.14-7.86,40.51-2.59-1.22-4.26-1.6-5.37-2.61-7.28-6.58-14-5.38-21.35.33-8.85,6.85-18.53,12.62-27.47,19.37-3.13,2.37-6.2,5.9-7.44,9.54-8,23.58-21,43.59-40.25,59.55-6.14,5.09-12.77,10.41-16.82,17-13.89,22.82-27.78,45.76-39.55,69.7-6.1,12.4-7.32,27.13-11.54,40.57-2.52,8,.31,12,7.37,14.85,8,3.21,16.28,6.12,23.73,10.38,8.36,4.77,14.68,3.31,21.63-2.65,9.34-8,19.37-15.22,29.34-23,1.29,2,2.14,2.72,2.23,3.53,2.38,21.52,2.4,42.33-17.5,57.06a45.66,45.66,0,0,0-5.42,5.44c-7.8,8.14-12.51,17.08-11.45,29.15.73,8.41.56,17.7-2.29,25.46-5.28,14.37-13,27.84-19.36,41.81-2.61,5.7-6.52,7.89-12.76,8-12.13.24-24.27,1.09-36.38,2-2.29.17-6.07,1.42-6.46,2.89-2.88,10.86-5.08,21.91-7.49,32.9l2.69,1.46c8.11-3.47,16.41-6.55,24.28-10.51,15.51-7.82,15-7.1,24.65,7.6,10.68,16.32,20.29,33.6,38.69,42.93C638,971.62,648,986,654.91,1002.42c4.71,11.26,13,13.63,23.5,14.13,5.72.27,11.39,1.69,18.88,2.88-7.93,12-15.33,21.4-20.71,31.82-7.27,14.07-12.72,29.33-4.55,44.85,8.07,15.34,8,30.14,2.27,46.18-1.82,5.12-.84,13.2,2.16,17.73,12,18,23.53,36.59,42.36,49,17.91,11.76,31.06,27.13,34.18,49.45.79,5.65,3.54,11,4.72,16.61,1.93,9.2,7.31,11.92,16.09,10.07,20.77-4.38,39.91-3.22,57.15,12s38.8,21.68,61.7,23.34c14.1,1,26.61,6.31,38.28,14.13,8.24,5.52,16.5,11.26,25.43,15.42,7.27,3.39,15.46,6,23.4,6.55,44.41,3.13,87.85-7.64,131.87-9.87,20.53-1,41.74.08,58.19,16,1.22,1.49,2.18,3.31,3.68,4.41,27.35,20.07,39.69,48.35,44.09,80.85a133,133,0,0,1,1.45,24.71c-1.46,27.67-10.15,53.19-24.34,76.93-2,3.34-3,7.28-5.26,13.05,16.34-1.39,30.62-2,44.67-4.15,4.59-.69,9.89-4.35,12.6-8.23,7.3-10.49,13.21-21.94,20-32.81s22.64-13.68,32.44-5.54c16.93,14.09,33.59,28,43.62,48.84,19,39.48,39.8,78.09,59.36,117.3,8.55,17.15,15.58,35.06,23.9,52.34,7.5,15.54,16.77,30.28,23.48,46.13,5.72,13.49,8.4,28.23,13.35,42.09,7.09,19.87,15,39.43,22.57,59.13,1.68,3.39,2.86,7.17,5.13,10.11,7.47,9.71,10.67,22.08,4.57,31.17s-15.85,18.08-29.16,18.55c-1.1-21.95-5.34-42-20-60.4-17.64-22.22-31.68-47.27-47.52-70.94-12.61-18.85-20.56-38.82-17.23-62.09.4-2.8-.69-5.81-1.48-11.55-9.49,11.11-17.21,19.89-24.6,28.94-3.22,4-6.15,5-10.51,1.79q-12.75-9.4-25.84-18.34c-5.79-4-7.33-9-5.68-15.79,2.34-9.63,4.36-19.38,5.73-29.2.53-3.78.32-9.51-2-11.52-10.58-9.14-21.05-19.25-33.37-25.36-30.08-14.92-61.13-27.86-91.84-41.47-5.66-2.51-11.59-4.39-17.39-6.57-.5.7-1,1.39-1.51,2.08,2.34,4,4.81,8,7,12.15,7.41,14,19.08,25.7,20.48,42.79,1.06,13,4.3,25.91,5.38,39a27.2,27.2,0,0,1-3.88,16c-6.48,9.85-14.84,18.46-21.51,28.2-3.23,4.72-6,10.78-6.23,16.37-1.59,31.11-1.42,62.18,11.09,91.57a71.42,71.42,0,0,0,10.36,17.81c11.61,13.92,23.91,26.65,29.74,45,9.16,28.94,20.44,57.28,32.14,85.32,3.35,8,2.9,12.3-3.18,18-9.3,8.73-17.71,18.4-26.5,27.68-13.6.3-27.27-.11-40.77,1.2-6.46.63-12.6,4.53-18.88,6.94-23.13-1.68-46.28,4.47-69.58-5.19-15.9-6.59-34.4-6.91-51.74-10-2.57-6.66-7.75-8.86-14.48-8.75-7.36.12-14.76-.36-22.1.08-8.29.51-11.73-2.89-13.46-11.12-3.88-18.52,0-36.36,3.18-54.27,2.7-15.39,3.88-30.28-3.4-45-3.67-7.41-4.87-16.1-8.84-23.3-6.48-11.76-1.52-19.71,6.31-28s14.86-16.74,21.84-25.48c1.75-2.19,3.59-6.73,2.54-8.38-11.46-18-16.44-42-42.8-46.75-7.15-1.28-13.93-4.72-20.79-7.4-25.56-10-48.39-24.53-69.57-41.83-19.27-15.74-37.34-33.35-58.12-46.76-37.6-24.27-73.44-51.63-114.89-69.65-3.32-1.45-6.31-4.38-8.65-7.27-14.69-18.17-28.9-36.72-43.77-54.73-7.86-9.53-15.06-21.67-25.44-26.66-30.8-14.81-63-26.63-94.7-39.72-4.67-1.93-7.29-.91-8.25,4.21-1.24,6.61-3.07,13.13-3.91,19.79-2.49,19.75-19.06,26.92-33.45,39.81-.41-7,0-11.56-1.14-15.64-.9-3.23-3.2-7.85-5.77-8.55-17.59-4.77-35.24-9.85-53.22-12.54-21.13-3.16-42.58-4.63-63.95-5.63-15-.7-26.57-7-37.91-16.11-22.41-18.1-45.54-35.31-68.49-52.73-6.52-5-14.4-8.11-20.8-1.23-8,8.56-15.66,17.69-15.11,31,.38,9.45-1.84,10.45-11.11,7.06s-18.61-6.93-28-10.27c-2.16-.77-4.52-1-9.25-1.94,2.68,4.51,3.72,7.16,5.5,9.13,8.81,9.72,17.68,19.39,26.76,28.85,15.12,15.74,29.61,31.73,35.56,53.66,2.92,10.8,7.12,21.25,10.83,31.83,1.11,3.16,2.56,6.2,4.65,11.23,7.85-7.79,14.16-14.44,20.9-20.63,5.12-4.7,10.16-10.82,16.35-12.76,12.44-3.9,25.6-5.62,38.57-7.61,1.91-.29,6,2.59,6.28,4.46,1.84,11.35,3.1,22.81,4,34.28.23,2.91-.58,7.67-2.48,8.7-15.84,8.6-29.87,23.46-51,15.24-6.81-2.65-14.32-3.44-21.37-5.55-6.11-1.82-9.69.25-12.25,5.81-3.35,7.27-6.65,14.63-10.82,21.43-4.56,7.43-2.9,13.41,2.66,19,20.66,20.6,34.93,45.52,49.1,70.69,15,26.6,28.66,55.39,65.51,57.27a6.52,6.52,0,0,1,.91.31l6.25,1.39-3.41,1.8h-33.2c-4-.74-8-1.8-12.08-2.16-18.86-1.69-37.75-3.19-56.62-4.75-9.29-17.35-23.85-23.39-42.82-20-7.08-8-15.94-10.86-26.54-10.18-3.37.22-7.07-1.71-10.33-3.28-5.6-2.69-11-5.85-16.44-8.82-10.25-15.29-24.79-24-42.55-27.74-12.43.08-24.9.82-37.26-.08-5.43-.4-10.64-4.09-15.91-6.39s-10.47-4.73-15.71-7.1h0c-4.13-2.8-8.7-5.15-12.34-8.5C35.07,1698,20.43,1684,5.75,1670a4.28,4.28,0,0,1-1-2.65c-1.12-17.36-2.62-34.66,13-47.65,10.84-9,17-21,21.55-34.37,3.8-11,3-23.77,14.06-32.54,9.65-7.64,17.64-17.58,17-31.77-.13-2.74,3.49-5.66,5.38-8.5l42.4-32.35,7.72-4.07c10.11-4.77,20.32-9.35,30.31-14.35,10.5-5.27,20.8-10.94,31.19-16.44Zm717.05,184.71c2.48,1.9,4.72,4.29,7.46,5.65,26.85,13.27,54,25.53,84.88,25.67,7.19,4,9.37-1.74,10.83-6.39,2.88-9.17,7.27-16.22,17.69-17.51,2.69-15.8,6.83-31.52,7.78-47.43,1.72-28.94,1.65-58,2.14-87,.25-14.59,2-29.52-7.37-42.49q-3-8.54-6-17.08c-7.75-23.95-15.8-32.21-32.69-32v62.7L996.9,1503c-4.52,12.6-9.94,24.09-20.53,33.59-19.48,17.47-37.48,36.59-56.1,55l-18.88,19.5ZM1092.38,332.45c12-7.34,22.39-13.47,32.53-19.94,5-3.21,8.59-3.14,11.65,2.6,5.56,10.44,12,20.43,17,31.14a20.87,20.87,0,0,1,.64,14.5c-7.12,19.52-15.14,38.72-22.86,58-2.86,7.14-5.78,14.26-8.55,21.1,9.15-7.52,18-14.63,26.71-22,17.85-15.1,32-32.82,38.71-55.69,3.68-12.59,7.43-25.17,10.64-37.89,1.05-4.17,2.22-9.71.38-13-8.29-14.66-16-30.17-27-42.68-18.63-21.21-41.84-37.46-66.45-51.37a171.62,171.62,0,0,0-22.55-10.38c-1.84-.72-6.53.84-6.88,2.16-3,11.22-8.23,22.44,1.13,33.66,5.92,7.08,10.43,15.33,15.59,23.05,7.48,11.17,7.5,11.19,17.87,2.67,5.86-4.82,11.66-9.71,17.48-14.57l3.63,3C1119.27,281.26,1106.46,305.66,1092.38,332.45ZM831,1515.14c-6.5-19.81-9.79-39.24-18.94-55.35-11.08-19.52-27.06-36.26-41-54.13-4.5-5.75-7.87-4.42-9.88,2.12-2.06,6.72-3.34,13.78-6.2,20.13-9.15,20.37-9.35,38.59,10.57,53a8,8,0,0,1,1.68,2.32C781.2,1505.83,803.59,1511.89,831,1515.14ZM619,1073c1.84-16.07,3.75-29,4.52-42,.2-3.38-2.23-8.77-5-10.2-23.41-12-41.47-30.52-60.76-47.71-7-6.24-16.77-9.41-25.27-14l-1.79,2.29c1.74,2.87,3.54,5.7,5.2,8.61,8.71,15.2,18.66,29.86,25.74,45.79,8.14,18.32,17.83,34.21,36.48,43.44C604.72,1062.6,610.6,1067.47,619,1073ZM513,1045.13c0-3.29.23-4.57,0-5.75-9.08-40.48-26.75-77.22-49.17-111.83-1.42-2.2-4.94-3-7.49-4.51-1,3-3.14,6.17-2.84,9.07,3.63,35,14.77,68,28.47,100.22,1.34,3.16,4.45,6.76,7.52,7.78C496.64,1042.47,504.27,1043.38,513,1045.13ZM496,818.9v49.94l40.63-20.62c0-1.13-.09-2.26-.14-3.39Z"/><path class="cls-2" d="M1169.83,1362.71c-16.45-15.94-37.66-17.06-58.19-16-44,2.23-87.46,13-131.87,9.87-7.94-.56-16.13-3.16-23.4-6.55-8.93-4.16-17.19-9.9-25.43-15.42-11.67-7.82-24.18-13.1-38.28-14.13-22.9-1.66-44.4-8.06-61.7-23.34s-36.38-16.4-57.15-12c-8.78,1.85-14.16-.87-16.09-10.07-1.18-5.62-3.93-11-4.72-16.61-3.12-22.32-16.27-37.69-34.18-49.45-18.83-12.37-30.4-30.91-42.36-49-3-4.53-4-12.61-2.16-17.73,5.72-16,5.8-30.84-2.27-46.18-8.17-15.52-2.72-30.78,4.55-44.85,5.38-10.42,12.78-19.81,20.71-31.82-7.49-1.19-13.16-2.61-18.88-2.88-10.53-.5-18.79-2.87-23.5-14.13C648,986,638,971.62,621.42,963.18c-18.4-9.33-28-26.61-38.69-42.93-9.62-14.7-9.14-15.42-24.65-7.6-7.87,4-16.17,7-24.28,10.51l-2.69-1.46c2.41-11,4.61-22,7.49-32.9.39-1.47,4.17-2.72,6.46-2.89,12.11-.92,24.25-1.77,36.38-2,6.24-.12,10.15-2.31,12.76-8,6.4-14,14.08-27.44,19.36-41.81,2.85-7.76,3-17.05,2.29-25.46-1.06-12.07,3.65-21,11.45-29.15a45.66,45.66,0,0,1,5.42-5.44c19.9-14.73,19.88-35.54,17.5-57.06-.09-.81-.94-1.54-2.23-3.53-10,7.74-20,15-29.34,23-6.95,6-13.27,7.42-21.63,2.65-7.45-4.26-15.71-7.17-23.73-10.38-7.06-2.83-9.89-6.84-7.37-14.85,4.22-13.44,5.44-28.17,11.54-40.57,11.77-23.94,25.66-46.88,39.55-69.7,4-6.64,10.68-12,16.82-17,19.3-16,32.24-36,40.25-59.55,1.24-3.64,4.31-7.17,7.44-9.54,8.94-6.75,18.62-12.52,27.47-19.37,7.39-5.71,14.07-6.91,21.35-.33,1.11,1,2.78,1.39,5.37,2.61,5.15-13.37,11.67-25.82,7.86-40.51-1.77-6.82-3.34-13.76-6-20.27-10.39-25.84-8.24-52.88-7.86-79.69.12-8.78-2.75-13.52-11.12-16.26-13.08-4.27-25.8-9.63-38.79-14.19-6.51-2.29-8.37-5.92-5.9-12.45,4.29-11.39,7.82-23.07,12.41-34.33a19.38,19.38,0,0,1,8-8.8c27.53-15.51,27.39-14.59,58.16-6.78,13.06,3.32,20,9.86,22.81,22.3.55,2.49,1.81,4.82,2.38,7.3,4.45,19.42,14.78,33.49,34.71,39.33,8.56,2.51,10.2,8,7,16.36-3.69,9.53-6.42,19.46-9.24,29.31-1.79,6.25-4.92,8.07-11.32,5.91-12.43-4.2-25.11-7.67-37.62-11.64-7.68-2.43-10.47.3-10.6,8.14-.24,14.05-1.74,28.11-1.46,42.15.08,4.17,3.35,9.67,6.86,12.13,10.73,7.51,22.28,13.86,33.56,20.59,1.91,1.14,4,2.65,6.1,2.69,19.93.35,40.26,3.22,58.54-8.29,10-6.31,20-12.79,30.26-18.64,4-2.3,8.94-4.42,13.43-4.36,23,.28,46.21-.23,69,2.45,26,3,51.49,9.51,77.33,13.76,12.11,2,20.61,7.64,26,18.55,2,4,4.77,7.58,7.18,11.36l-28.72-13.68c-9.52-8.68-20.51-13.95-33.51-15-15-1.23-29.91-2.82-44.88-4.17-13.35-1.21-26.86-4.12-40-3-17.13,1.42-34.07,5.75-50.94,9.51-4.72,1.05-8.91,4.5-13.34,6.86l-2,1.85-2.43,2c-2.91,1.22-6.39,1.78-8.63,3.76-18.28,16.11-40.49,20.93-63.79,22.88-26,2.17-45.07,18.89-59.59,36.81-17.58,21.7-30.68,47.16-33.72,77.08-1.79,17.71-3.64,32.76,13.07,43.79a6.12,6.12,0,0,1,1.86,2.17c4.8,8.91,9.58,6.86,15.38.64,8.73-9.37,18-18.24,27.13-27.23,1.86-1.84,4.13-3.28,8.54-6.71-1.87,10.74-3.06,18.56-4.62,26.31-1.23,6.1.49,10,6.92,11.31,2.49.52,4.86,1.68,7.35,2.22,8,1.75,9,5.69,4.53,12.26-8.33,12.15-16.79,24.24-24.31,36.9-2.71,4.57-4.73,11-3.88,16,4.56,26.8,9.93,53.36,21,78.62,4.76,10.88,10.92,15.77,22.25,15,10,.36,21.43,4.07,29.53.36,14.87-6.8,27.75-18,41.46-27.31l3.78-2,4.18.33c2.89,8.08,9.34,11.28,17.19,11.21,10.15-.09,20.29-1.09,30.43-1.69,0-.49,0-1,0-1.48l-45.9-8.15a33,33,0,0,1,4.54-1.5c19.26-3.53,37.12,3.86,55.42,7.5,2.56.51,5,3.91,6.58,6.54,6.64,11.28,13,22.74,19.27,34.23,1,1.87,1.16,4.24,1.91,7.21-2.41-.61-3.49-.6-4.19-1.1-25.11-18-54.83-23.73-83.67-31.85-5.39-1.51-10.12-1.75-13.33,3.83-6,7.12-11.87,14.26-17.85,21.35-4.22,5-5.52,9.93-.34,15.23,6.26,6.41,3.73,11.36-2.92,15.44-21.87,11.28-44.35,15.79-68.26,6.6a42.85,42.85,0,0,0-12.21-2.48c-13.93-1-20.84-7.62-24.38-21.86-9.65-38.75-10.4-38.56-41.4-53.47-.57-.28-1.17-.53-1.72-.86-6.33-3.82-9.71-1.63-12.18,5-5.26,14.1-10.72,28.16-16.86,41.9-3.71,8.31-3.52,15.08,2.93,21.87,19.42,20.43,28,45,28.28,73.06.07,7.21.39,15.73,4.1,21.35,11.94,18.14,23.65,37.07,38.87,52.26,25.15,25.08,48.05,51.49,65.31,82.49,2.81,5,4.21,12.25,3.1,17.83-3.28,16.63-8.76,32.82-12.25,49.42-5.75,27.34-14.53,55.52,13,77.4a3.22,3.22,0,0,1,.59.76c12.45,19.4,30.57,30.76,51.87,38.75a218.84,218.84,0,0,1,41.12,20.57c25.93,16.67,52.12,32.65,81.07,43.56,10.07,3.79,20.2,8.75,30.66,9.89,15.52,1.68,31.38.94,47.05.18,6-.3,11.94-3.5,17.9-5.37l7.56-4c11.51-5.42,22.92-11.1,34.61-16.13,3.53-1.51,8.82-3,11.62-1.42,11.9,6.59,23.18,14.31,34.68,21.63l7.56,13.2ZM721.14,308l36,22.55c-.6-3.69-.5-4.45-.83-4.89-5.05-6.59-10-13.26-15.27-19.67C732.72,295.86,730.49,296,721.14,308Z"/><path class="cls-3" d="M1256.88,893.8q-6,30.57-11.92,61.14l-3.24-8.54c-2.68,12.66-4.85,24.57-7.74,36.3-10.68,43.37-23,86.38-31.92,130.1-6.14,30.19-7.56,61.34-11.09,92.06-1.23,5.58-1,12.13-3.93,16.55-13.06,19.57-22.27,42-41.65,57-4.28,3.3-8.1,7.19-12.13,10.8l-23.09,19.28-13.28,6.11c-7.69,2.2-15.71,3.6-23,6.74-20.6,8.87-40.56,8.72-60.9-1-10.91-5.21-24-6.86-33.49-13.78-16.13-11.84-30.15-26.55-45.07-40.06-4.09-3.7-4.89-6.9.32-10.73,13.13-9.67,25.85-19.88,39-29.5a22.31,22.31,0,0,1,10.55-3.85c17.15-1.63,34.52-1.69,51.48-4.4,16.65-2.66,32.9-7.83,49.32-11.9-.08-1-.17-1.91-.25-2.87-2.73-1.52-5.4-3.14-8.19-4.55-12-6-23.93-12.23-36.07-18-6.2-2.93-7.15-6.28-3.17-11.87s7.57-11.84,11.32-17.79h0l11.58,2L1045,1167.67a180.78,180.78,0,0,0,33-10.91c1.64-.69,2.29-3.73,3.4-5.68,3.21,2.48,6.1,6.37,9.68,7.18,13.6,3.08,27.43,5.17,41.17,7.64-10.32-14.87-21.62-27.73-33.35-40.19-1.92-2-5.66-3.08-8.64-3.29-13.38-1-26.89-2.8-40.15-1.76s-20.79-4.88-27.65-14.61c-4-5.61-3.52-9.48,1.49-14,7.86-7,15.29-14.47,22.91-21.74l13.15-2.13,40.75-9.57q5.7,6.79,11.39,13.58c12.06,30.9,31.18,57.08,54,83.56,4.47-10.91,8.72-19.21,11.13-28,1.28-4.66.86-11-1.37-15.22-15.88-30-32.59-59.47-48.62-89.35-3.31-6.16-7.2-8.77-14.22-8.82-14.36-.09-28.7-1-43.06-1.66,1-9.21,1.29-18.54,3-27.61,3.72-19.45,2.89-37.82-7-55.76-12.22-22.16-17.77-46.48-19.11-71.67-.75-14-3.55-26.8-14.5-37-9.09-8.5-17.14-18.1-25.66-27.22l-2.39,1.31c2.26,15.39,4.17,30.84,6.83,46.16,7.44,42.83,18.13,85.27,14.66,129.36-.23,2.93.59,7.18,2.58,8.86,13.58,11.49,27.61,22.45,41.49,33.58-2.9-.45-5.84-.72-8.68-1.39-11.83-2.77-23.64-5.66-35.45-8.5q-3-9.51-6-19c-1.53-15.27-2-30.73-4.8-45.76-7.31-39-15.51-77.89-23.77-116.73-.92-4.34-3.81-8.71-6.88-12.06-5-5.39-10.91-9.84-16.27-14.87-10.2-9.54-21.1-17.11-35.71-18.87-11.72-1.42-23.14-5.07-34.79-7.23-3.56-.66-7.83-.63-11.07.75-14.73,6.25-29.53,12.51-43.67,20-8,4.22-13.68,3.85-18.94-3.34,4.81-1.51,10.51-1.85,14.29-4.73,24.38-18.55,51.41-24.41,81.9-22.6,29.55,1.75,56.34-9.43,79.92-27.18,5.21-3.93,8.8-4.38,13.12,0,6.15,6.29,13.08,6.34,21.15,4,16.61-4.8,33.91-7.55,50-13.52,18.73-6.94,36.86-6,55.46-1.41,1.85.46,3.55,1.49,7.56,3.22l-44.56,18.13c11.15,7.17,19.58,12.25,27.64,17.87,7.74,5.4,15.54,7.94,25.22,5.69,8.35-1.94,17.19-1.71,25.68-3.18,5.61-1,8.39,1.21,10.36,6q4.6,11.09,9.52,22c3.88,8.57,7.93,17.06,11.94,25.65,12.44-7.15,13.56-10,9.91-21.45-2.23-7-4.62-14-6.4-21.14-7.76-31-26.26-56.75-41.62-84-1.34-2.38-4-4.07-6.17-5.92-11.7-9.91-25.3-18.29-34.7-30-11.69-14.58-19.93-31.93-29.66-48.09,31.58,30,61.23,61.57,84.1,99,2.78,4.55,6.77,8.35,10.2,12.49l7.66,11.58,3.82,13.46c1.92,6.41,3.67,12.87,5.79,19.22,15.35,46.06,32.27,91.76,30.82,141.49,0,1.78.85,3.59,1.44,5.95l7.83-15Zm-148.44,397.1c-1.48-16.36-2.32-31.06-4.5-45.55-.47-3.09-5.36-6.89-8.92-7.91-16-4.6-32.11-8.76-48.38-12.16-7.63-1.6-16.58-3.59-23.37-1.11-16.14,5.9-31.33,14.41-46.95,21.76-5.42,2.54-6.57,6.31-4.51,11.74,3.18,8.37,6.61,16.69,9,25.31,3.82,14,10.23,24.34,26.38,25.87,5.59.53,11.15,3,16.38,5.33,18,8,35.4,8.32,52.93-1.77,6.86-3.94,14.63-6.46,22.2-9C1105.86,1301.06,1109.32,1296.78,1108.44,1290.9Zm74.78-226.61c8.54-15.22,15.66-27.31,22.22-39.69,19.59-36.95,34.69-75.07,35.91-117.91.58-20.06-11.11-33.35-20.15-48.79a165.84,165.84,0,0,0-1.17,31.62c.7,10.09-2.09,17.9-10,24.48-8.82,7.36-17.92,14.73-25.22,23.5-10.79,13-24.49,18.66-40.45,21.34-9.59,1.61-19,4.53-29.11,7,5.9,7.81,11.46,13.86,15.48,20.8,7.38,12.72,12.8,26.67,21,38.8C1160.5,1038.5,1171.49,1050,1183.22,1064.29Zm-85-292.42c-21,1-36,1.79-51,2.33-5.64.21-8.4,2.81-8,8.33.42,5.73.71,11.55,2,17.13,3.82,17.08,5.78,35.08,12.78,50.8,7.45,16.75,19.68,31.41,30.23,46.69,1.66,2.4,6,5.17,8.28,4.58,15.64-4,34-4.42,38.29-25.74,1.18-5.85,5.45-7.13,11.1-5.52,7.7,2.21,15.64,3.58,23.27,6,6.78,2.15,10.95,0,14.18-6,6.3-11.52,12.44-23.15,19.43-34.24,3.8-6,3-10.57-1.12-15.57-9.32-11.39-18.24-23.14-28-34.16-3.11-3.52-8.05-6.84-12.55-7.49C1135.62,775.9,1114,773.72,1098.21,771.87Zm6.81,322.2.68-3.27-30.85-25.64c-4,13.95-7.19,24.88-11,38Zm84.47-196.69c-4.17-4.41-6.64-7.89-9.94-10.15-1.66-1.13-6.14-1.08-7.11.17-11.07,14.28-21.71,28.89-32.46,43.42l2.07,2.09Z"/><path class="cls-4" d="M1146.79,158.93c-10.68-8.48-10.92-8.42-17.47,4.22-.74,1.42-1.42,2.87-2.17,4.29-7.92,15-10.71,16.25-27.28,13.85-21.51-3.12-43-6.19-64.61-8.81-8.67-1-14.61-4.77-19.18-12.32-8.24-13.62-17.27-26.78-25.41-39.28L961.4,150.75l23.35-8.52c-.32,4.46-.16,7.52-.81,10.4-3.39,15-7.32,29.84-10.31,44.89a33.31,33.31,0,0,0,.63,15.76,235.11,235.11,0,0,0,12.38,32.26c7.38,15.2,7.27,30.82,5.25,46.9-2.31,18.34-1.25,36.51,4.85,54,3.39,9.74.52,16.59-7.36,22.46-5.81,4.33-11.17,9.25-18.06,15-5.08-10.74-10.81-20-14-30.16-10.1-32-15.89-64.14-2.61-97.17,8.16-20.29,7.59-18.28-10.88-24.8-24.8-8.75-24.74-9-40.58,12.12-2.3,3.07-3.93,6.81-6.68,9.36-12.76,11.79-11.28,24.31-3,37.75,2.08,3.39,2.92,7.54,4.39,11.51-15.64,2.68-25-2.83-28.88-16.15-3-10.45-6.73-20.77-8.91-31.39a22.44,22.44,0,0,1,2.36-14.3,202.82,202.82,0,0,1,19.1-28.8c11.45-14,13.51-30.7,16.19-47.44,1.08-6.8-2.61-7.78-8-6.63-9,1.92-18,3.94-27.92,4.69,13.62-19.38,27-38.58,47.16-53-18.78,3-37.61,5.69-56.33,9-12.92,2.29-25.76,5.13-38.51,8.24-6.61,1.62-9.5-.72-10.8-7-2.4-11.6-4.45-23.34-8-34.6-1.51-4.79-5.83-9.26-10-12.5-3.9-3-9.11-4.64-13.94-6.28-21.74-7.38-39.28-21.28-56-36.24-6.41-5.73-12.6-6.25-20.23-3.14-10.91,4.46-22.09,8.27-33.15,12.37,13.25-11.68,27.7-19.75,46.1-21.42C716.89,17.27,725,10.84,733.39,7l3.79-2.28c0,.78.06,1.55.08,2.33-4.52,5-.9,7.22,3.19,9.27,11.16,5.59,22,12,33.61,16.47,7.76,3,16.53,4,24.93,4.49,7.9.48,15.92-.74,23.87-1.43,6-.53,12-1.4,18-2.12-.06-.44-.13-.88-.19-1.32L796.87,18.53c27,1.26,54.07,1.92,81,4,11.23.89,22.11,6.23,33.35,7.15,26,2.13,52.11,2.79,78.18,4.05l15,6.11L1018,53.13c9.18,6.3,21.89,5.46,29.71-1.61,4.16-3.77,8.27-8.68,13.28-10.2,11.84-3.59,24.15-5.78,36.39-7.78,2.55-.42,7.3,1.7,8.21,3.84,11,26,25.57,51,22.16,81.1-.52,4.6,1.45,10,3.67,14.29C1136.05,141.74,1141.62,150.24,1146.79,158.93ZM907,202.67l3.19,2.8c12.58-7.88,25.24-15.67,37.64-23.84,1-.66,1.17-4.52.24-5.88-6.76-9.9-13.91-19.54-22.8-31.85C918.6,165.45,912.82,184.06,907,202.67ZM973,34.61l-1.59,3c8.05,6.62,15.8,13.65,24.21,19.76,17.12,12.43,31.79,26.5,38,47.69,1.47,5,4.88,9.51,7.39,14.23l2.24-1c-3.43-16.19-6.65-32.43-10.51-48.51-.61-2.57-3.77-5-6.35-6.56C1012.29,55,998.09,47,983.83,39.09,980.43,37.21,976.61,36.08,973,34.61Z"/><path class="cls-2" d="M1169.83,1362.71l.07-9.81,2,1.94c2,3.54,3.33,7.77,6.13,10.5a420.31,420.31,0,0,1,69,86.79c7.2,12.08,16.75,25.27,33.39,26.29,10.36.63,18.55,4.27,25.29,11.63,14.43,15.75,28.69,31.66,43,47.51,0,.58.12,1.16.19,1.73,2.05,4.09,3.82,8.34,6.19,12.23,4.1,6.72,9.4,12.83,12.7,19.89,6.85,14.67,11.67,30.37,19.39,44.52,5.06,9.28,11,17.52,11.23,28.68.05,3,2.6,6.6,5,8.92,6.32,6.14,8.81,13,9.46,22,1.26,17.54,4.94,34.66,17.73,48.37a18.26,18.26,0,0,1,4.67,11c.19,9.75,4.39,16.88,11.09,23.54,4.64,4.62,9.87,9.94,11.68,15.9,9.2,30.19,17.43,60.69,25.81,91.12,1.09,3.94,1.12,8.16,1.64,12.25-7.56-19.7-15.48-39.26-22.57-59.13-4.95-13.86-7.63-28.6-13.35-42.09-6.71-15.85-16-30.59-23.48-46.13-8.32-17.28-15.35-35.19-23.9-52.34-19.56-39.21-40.36-77.82-59.36-117.3-10-20.84-26.69-34.75-43.62-48.84-9.8-8.14-25.62-5.38-32.44,5.54s-12.69,22.32-20,32.81c-2.71,3.88-8,7.54-12.6,8.23-14,2.12-28.33,2.76-44.67,4.15,2.29-5.77,3.27-9.71,5.26-13.05,14.19-23.74,22.88-49.26,24.34-76.93a133,133,0,0,0-1.45-24.71c-4.4-32.5-16.74-60.78-44.09-80.85C1172,1366,1171.05,1364.2,1169.83,1362.71Z"/><path class="cls-5" d="M1210.26,741.51q-1.92-6.74-3.82-13.46l13.46,17.28,3.76,5.78,10.56,12.06,3.34-2c-1.78-14.49-3.38-29-5.43-43.46-.83-5.9-1.18-12.59-4.21-17.36-21.44-33.7-47.47-63.37-79.81-87.14-1.91-1.4-4.92-1.33-7.42-1.95-.51,2.93-2.07,6.19-1.27,8.7,1.11,3.52,4,6.47,6.1,9.67q10.27,15.57,20.52,31.16c-11.81-13.42-23.81-26.67-35.32-40.34-4-4.78-.58-15.74,6.32-22,5.83-5.31,9.5.68,13,3.5,8,6.44,15.91,13.05,22.75,20.6,13.56,15,31.36,13,51,14.83-5-13.31-9.38-24.79-13.72-36.27l-1.35-5.77c3.16,4.69,7.85,9,9.24,14.14,9.37,35,18,70.08,27,105.15l-5.87-8.32-2.31.37c1,18.19,2,36.38,3.2,54.55.08,1.21,2,2.29,3,3.43-9.92,19.17-7.14,37.45,3.58,55.35,2.28,3.8,3.58,8.2,5.36,12.31q7.1,16.32,14.2,32.63l2.62-.48a57.91,57.91,0,0,0,0-6.72c-.81-6.91-2.77-13.83-2.56-20.69.83-26.72,2.32-53.43,3.57-80.14,1.93-8,5.08-15.85,5.55-23.9,1.37-23.16,1-46.43,2.61-69.57,1-13.52-3.93-23.33-13.58-31.7,0-2.64.06-5.29.1-7.93,13.13,10.93,17,24.82,15.85,41.71-1.33,19.73-.5,39.62-.43,59.45,0,10.26-1.23,19.7-5.73,29.54-3.59,7.84-1.86,18.12-2.5,27.31-1.27,3.47-3.57,6.93-3.65,10.43q-.57,26.2,0,52.44c.08,3.5,2.38,7,3.65,10.43v11.3l-13.28,19.22c-.33-3.71-1.48-7.56-.85-11.1,1.94-10.82.07-20.65-4.49-30.64-8.88-19.44-17-39.21-25.27-58.94C1221.68,770.52,1216.05,756,1210.26,741.51Z"/><path class="cls-6" d="M1110.17,1308.49l23.09-19.27c3.12-1.54,6.37-2.87,9.35-4.67,11.79-7.1,23.52-14.32,35.23-21.56,3.24-2,6.33-4.16,7.68,1.75-2.22,10.79-4.25,21.63-6.71,32.36-2.12,9.28-4.13,18.66-7.32,27.59-1.93,5.4-6,10-9.15,15-11.5-7.32-22.78-15-34.68-21.63-2.8-1.55-8.09-.09-11.62,1.42-11.69,5-23.1,10.71-34.61,16.13,2.83-2.94,5.54-6,8.53-8.79C1096.62,1320.64,1103.42,1314.59,1110.17,1308.49Z"/><path class="cls-7" d="M1146.79,158.93c-5.17-8.69-10.74-17.19-15.36-26.16-2.22-4.31-4.19-9.69-3.67-14.29,3.41-30.08-11.18-55.1-22.16-81.1-.91-2.14-5.66-4.26-8.21-3.84-12.24,2-24.55,4.19-36.39,7.78-5,1.52-9.12,6.43-13.28,10.2-7.82,7.07-20.53,7.91-29.71,1.61l9.82,1.72c12.85-.27,21.53-7.11,24.81-19.52,3.19-12.12,11.28-17.22,23.35-19,18.38-2.72,31.12,8,44.07,17.17,5,3.53,8.21,12.33,8.71,19a386,386,0,0,1,.64,53.77c-1.27,19.16,9.32,32.61,19.46,46.2,6.84,9.17,15.3,17.34,24,24.89,9.69,8.44,14.6,18.73,17.49,31,2.31,9.84,7.79,19,9.89,28.83,3.09,14.57,4.42,29.5,6.5,44.29l-2,4.33c-.12-.62-.21-1.23-.3-1.85.75-19.28-7.37-36.64-11.45-54.9-6.17-27.62-22.12-48.08-42.35-66.24Z"/><path class="cls-7" d="M733.39,7c-8.37,3.87-16.5,10.3-25.15,11.09-18.4,1.67-32.85,9.74-46.1,21.42L641.4,57.32C630.66,71.54,620,85.85,609.13,99.93c-3.7,4.77-7.34,10.42-12.36,13.14-16.11,8.7-21.61,21.87-19,39.15,2.87,18.85-8.74,31.95-18.67,45.11C550.31,209,539,218.78,529.31,229.79c-3,3.43-7.28,8.83-6.42,12.15,3.67,14.15,8.88,27.93,14,41.67.7,1.9,4,2.84,6.08,4.22,5.72,2.85,11.15,5.9,9.35,13.84C544,291,532.93,285,520.05,281.89l-6.48-5.64c-9.75-8.46-9.84-10.57-2.59-21.15,1.84-2.7,2.2-6.42,3.24-9.66,4.64-6.81,8.66-14.15,14-20.3,9.89-11.29,20.74-21.74,30.84-32.86,2.47-2.72,3.59-6.66,5.33-10,8.51-8.22,12.84-17.84,11.64-30-.78-7.92-.13-16-.12-24l0,.08c4.47-4.53,9-9,13.39-13.6,7.4-7.78,15.14-15.3,21.93-23.59,9.87-12,18-25.69,28.78-36.78s24-19.89,36.07-29.69c10.82-7,22.34-10.85,35.58-10.4,4.5.15,9.14-3.66,13.72-5.65Z"/><path class="cls-8" d="M472.37,572c.53,4.41,1.5,8.81,1.52,13.22.11,23-.95,46,.22,69,1,19.85-3.75,37.66-11.9,55.38a59,59,0,0,0-5.4,24.8c.6,35.07,2.42,70.11,3.42,105.18a106,106,0,0,1-2.12,21.86c-.47,2.58-3.48,4.69-5.32,7,1.25-8.76,3.74-17.54,3.54-26.26-.77-34-2.22-68.07-3.8-102.09-.59-12.65-2.34-25.25-3.33-37.88-.22-2.8-.26-6.09,1-8.45,18.78-36.32,23-75.32,21.6-115.39C472,576.27,472.17,574.14,472.37,572Z"/><path class="cls-9" d="M1191,1204.86c3.53-30.72,5-61.87,11.09-92.06,8.87-43.72,21.24-86.73,31.92-130.1,2.89-11.73,5.06-23.64,7.74-36.3l3.24,8.54c-1,6.55-1.64,13.17-3,19.65-4,19.25-7.82,38.54-12.46,57.63-3,12.54-7.45,24.76-11.13,37.16-1.5,5-3.7,10.18-3.8,15.31-.2,9.68-.91,18.66-5.94,27.55-2.69,4.77-1.56,11.71-2.15,17.68-1.85,4.6-4.88,9.1-5.33,13.84-1.6,16.58,2.07,33.79-6.34,49.51l-2,11.63Z"/><path class="cls-10" d="M439.26,920.38c-1.47,12-3.56,24.06-4.22,36.15a110.69,110.69,0,0,0,1.67,26.34c6,31.79,21,59.56,40.73,84.78,4.82,6.16,11.68,10.74,17.6,16-.05.75-.09,1.5-.14,2.25L487,1086l-5.4-.36c-2.14-2.37-4.2-4.81-6.44-7.08-8.21-8.33-18.09-15.42-18.51-29-.07-2.27-3.51-5.3-6.08-6.46-7.51-3.38-10.82-8.42-11.72-16.9-1.54-14.54-4.5-29-7.36-43.34-4.39-22-9.71-44,5.23-64.49,1.26-1.73,1.55-4.17,2.29-6.28C439.07,914.86,439.16,917.62,439.26,920.38Z"/><path class="cls-11" d="M472.37,572c-.2,2.12-.41,4.25-.61,6.37-6.8-18.21-13-38.54-6.38-55.94,7.51-19.78,9.73-39.17,11.35-59.49,1.39-17.41,4.91-34.63,6.72-52,1.31-12.55,11.56-17.63,18.79-25.44,6.83-7.39,13-15.43,19.4-23.19.2-.25.48-.54.49-.81,1.24-21.83,17.73-34.29,30.19-49.22,0,2.68.09,5.36.14,8-11.47,11.49-26.69,20.56-25.57,40.13a7.18,7.18,0,0,1-1.86,4.32c-7.4,9-14.91,17.81-22.39,26.7l0,0c-2.29,2.83-5.73,5.31-6.7,8.53-9.27,30.77-19.34,61.4-18.33,94.22.15,4.58-1.43,9.36-2.93,13.82-2.49,7.44-7.92,14.71-7.87,22,.09,13.45,3.27,26.86,5.16,40.29C472.09,570.92,472.23,571.47,472.37,572Z"/><path class="cls-12" d="M989.41,33.77c-26.07-1.26-52.18-1.92-78.18-4.05-11.24-.92-22.12-6.26-33.35-7.15-26.94-2.12-54-2.78-81-4-.55-.09-1.1-.16-1.66-.22l-.39-1.73c.09-.67.18-1.35.26-2l9.79,1.75c15.37.07,30.83-.87,46.1.45,17.06,1.47,33.94,5,50.91,7.6,8.16,1.25,16.31,3,24.51,3.3a21.67,21.67,0,0,0,12.31-4c15.25-10.75,27.22-10.31,41.18,2.22C982.94,28.64,986.23,31.15,989.41,33.77Z"/><path class="cls-13" d="M1191,1204.86l1.85,0c-1.35,11.82-2.64,23.63-4.07,35.44-1,8.14-2.15,16.26-3.23,24.4-1.35-5.91-4.44-3.75-7.68-1.75-11.71,7.24-23.44,14.46-35.23,21.56-3,1.8-6.23,3.13-9.35,4.67,4-3.62,7.85-7.51,12.13-10.81,19.38-15,28.59-37.43,41.65-57C1190,1217,1189.74,1210.44,1191,1204.86Z"/><path class="cls-5" d="M1204.7,285.79l2-4.33c16.83,12.33,14.39,32.11,19.13,49.15,1.08,3.89,2.28,8.64,5.1,11,14,11.74,11.73,27.12,8.81,41.69-1.71,8.51.43,13.49,5.41,19.7,3.88,4.84,6.1,11.56,7.36,17.79s-.38,12.87.58,19.13c2.82,18.55-9.08,28.57-21.29,38.59l-.39-2.32c3-4.08,5.39-9,9.2-12.06,8.62-7,11.63-15.61,9.92-26.25,1-13.84,1.23-27.33-11.77-36.76-1.64-1.19-2.28-3.74-3.38-5.67q0-3.87,0-7.75c6.57-15.7,7-35.34-10-44.09-1.94-10.2-4.6-20.33-5.6-30.62-1.06-10.83-6.5-18.07-15.09-23.7C1204.7,288.12,1204.7,287,1204.7,285.79Z"/><path class="cls-6" d="M1264.38,623.76c0,2.64-.07,5.29-.1,7.93l-2,.15,0,0c-2-19.16-3.9-38.34-6.14-57.48-.39-3.37-2.23-6.57-3.4-9.84q-3-8.59-6-17.2c.32-15.81,2.86-32.17-11.23-44.33q-1.85-6.91-3.7-13.84c8.39,11.22,19.37,20.94,17.41,37.36-1.36,11.46-1.26,23.09,8.62,32,1.65,1.49,2.3,4.65,2.49,7.1C1261.73,585,1263,604.38,1264.38,623.76Z"/><path class="cls-14" d="M132,1735.22l-48.68.58-20.95-15.54c5.24,2.37,10.44,4.8,15.71,7.1s10.48,6,15.91,6.39c12.36.9,24.83.16,37.26.08C131.46,1734.29,131.71,1734.75,132,1735.22Z"/><path class="cls-3" d="M1258.29,885.59l13.28-19.22-14.69,27.43-.74-.63Q1257.22,889.38,1258.29,885.59Z"/><path class="cls-9" d="M1027.83,54.85,1018,53.13l-13.58-13.25C1015.82,39.26,1019.73,50.34,1027.83,54.85Z"/><path class="cls-15" d="M550.6,1864.67c-7.25-1-14.49-2.66-21.76-2.73q-48-.45-96,0c-7.68.07-13.55-2.27-18.68-7.78-5.45-5.84-11.46-11.17-16.88-17-14.86-16.14-32-27.18-55.06-25.41-1.2.09-2.45-.62-3.68-1h33.2l3.41-1.8-6.25-1.39a6.52,6.52,0,0,0-.91-.31c-36.85-1.88-50.54-30.67-65.51-57.27-14.17-25.17-28.44-50.09-49.1-70.69-5.56-5.54-7.22-11.52-2.66-19,4.17-6.8,7.47-14.16,10.82-21.43,2.56-5.56,6.14-7.63,12.25-5.81,7.05,2.11,14.56,2.9,21.37,5.55,21.1,8.22,35.13-6.64,51-15.24,1.9-1,2.71-5.79,2.48-8.7-.92-11.47-2.18-22.93-4-34.28-.3-1.87-4.37-4.75-6.28-4.46-13,2-26.13,3.71-38.57,7.61-6.19,1.94-11.23,8.06-16.35,12.76-6.74,6.19-13.05,12.84-20.9,20.63-2.09-5-3.54-8.07-4.65-11.23-3.71-10.58-7.91-21-10.83-31.83-6-21.93-20.44-37.92-35.56-53.66-9.08-9.46-18-19.13-26.76-28.85-1.78-2-2.82-4.62-5.5-9.13,4.73,1,7.09,1.17,9.25,1.94,9.35,3.34,18.63,6.86,28,10.27s11.49,2.39,11.11-7.06c-.55-13.33,7.15-22.46,15.11-31,6.4-6.88,14.28-3.73,20.8,1.23,23,17.42,46.08,34.63,68.49,52.73,11.34,9.16,22.91,15.41,37.91,16.11,21.37,1,42.82,2.47,63.95,5.63,18,2.69,35.63,7.77,53.22,12.54,2.57.7,4.87,5.32,5.77,8.55,1.14,4.08.73,8.6,1.14,15.64,14.39-12.89,31-20.06,33.45-39.81.84-6.66,2.67-13.18,3.91-19.79,1-5.12,3.58-6.14,8.25-4.21,31.65,13.09,63.9,24.91,94.7,39.72,10.38,5,17.58,17.13,25.44,26.66,14.87,18,29.08,36.56,43.77,54.73,2.34,2.89,5.33,5.82,8.65,7.27,41.45,18,77.29,45.38,114.89,69.65,20.78,13.41,38.85,31,58.12,46.76,21.18,17.3,44,31.85,69.57,41.83,6.86,2.68,13.64,6.12,20.79,7.4,26.36,4.71,31.34,28.7,42.8,46.75,1.05,1.65-.79,6.19-2.54,8.38-7,8.74-14.14,17.37-21.84,25.48s-12.79,16.2-6.31,28c4,7.2,5.17,15.89,8.84,23.3,7.28,14.71,6.1,29.6,3.4,45-3.14,17.91-7.06,35.75-3.18,54.27,1.73,8.23,5.17,11.63,13.46,11.12,7.34-.44,14.74,0,22.1-.08,6.73-.11,11.91,2.09,14.48,8.75-12.09-10.25-26.72-6.25-40.49-7.58-5.92-.57-13.86-2.16-17-6.26-13.81-18.24-33.86-18.92-53.3-20.23-19.12-1.28-38.39-.33-57.59-.26-18,.07-34.51-2.7-47.67-17.32-3.71-4.1-12.11-5.39-18.38-5.46-11.74-.13-22.82-.67-32.53-8.41-2.32-1.85-6.08-3.33-8.88-2.92-14.07,2-26.12-4.5-38.49-8.87-5.64-2-11.08-6.76-14.8-11.64-13.86-18.2-31.49-26.14-54.17-22.3-24.4,4.14-42.84-4.64-58.21-23.89-10.53-13.17-23.47-24.48-35.82-36.09-5.71-5.36-12.61-9.45-19-14.11,6-.52,7.66-4.46,8.33-9.82,3.24-26,6.72-51.92,10.07-77.88,2.11-16.33,3.33-32.39-7.23-47-4.28-5.91-7.13-12.85-10.77-19.23-10.14-17.78-20.38-35.51-30.54-53.27-2.94-5.14-6.95-7.51-12.74-4.93-4.76,2.11-11.8,3-9.74,10.62,5.93,21.86,9.12,45.3,19.46,64.92,14.31,27.17,19.75,52.72,12.5,83.17-4.64,19.48-2.92,41.47,20.27,52.63C550.29,1864,550.42,1864.41,550.6,1864.67Z"/><path class="cls-15" d="M1275.53,2016.21c-4.13,2.75-8.64,5.07-12.32,8.33-12,10.65-23.72,21.65-35.55,32.52,8.79-9.28,17.2-19,26.5-27.68,6.08-5.69,6.53-10,3.18-18-11.7-28-23-56.38-32.14-85.32-5.83-18.38-18.13-31.11-29.74-45a71.42,71.42,0,0,1-10.36-17.81c-12.51-29.39-12.68-60.46-11.09-91.57.28-5.59,3-11.65,6.23-16.37,6.67-9.74,15-18.35,21.51-28.2a27.2,27.2,0,0,0,3.88-16c-1.08-13-4.32-25.91-5.38-39-1.4-17.09-13.07-28.83-20.48-42.79-2.19-4.12-4.66-8.1-7-12.15.51-.69,1-1.38,1.51-2.08,5.8,2.18,11.73,4.06,17.39,6.57,30.71,13.61,61.76,26.55,91.84,41.47,12.32,6.11,22.79,16.22,33.37,25.36,2.33,2,2.54,7.74,2,11.52-1.37,9.82-3.39,19.57-5.73,29.2-1.65,6.81-.11,11.81,5.68,15.79q13.07,9,25.84,18.34c4.36,3.21,7.29,2.16,10.51-1.79,7.39-9,15.11-17.83,24.6-28.94.79,5.74,1.88,8.75,1.48,11.55-3.33,23.27,4.62,43.24,17.23,62.09,15.84,23.67,29.88,48.72,47.52,70.94,14.61,18.39,18.85,38.45,20,60.4-12.41-1.09-21.45,4.12-30.24,13q-28.62,28.77-59.48,55.29c-5.75,5-14.72,8.1-22.39,8.5-22,1.12-44,.32-66.09.46C1283.69,2014.83,1279.61,2015.72,1275.53,2016.21Z"/><path class="cls-16" d="M1092.38,332.45c14.08-26.79,26.89-51.19,39.7-75.59l-3.63-3c-5.82,4.86-11.62,9.75-17.48,14.57-10.37,8.52-10.39,8.5-17.87-2.67-5.16-7.72-9.67-16-15.59-23.05-9.36-11.22-4.13-22.44-1.13-33.66.35-1.32,5-2.88,6.88-2.16a171.62,171.62,0,0,1,22.55,10.38c24.61,13.91,47.82,30.16,66.45,51.37,11,12.51,18.68,28,27,42.68,1.84,3.25.67,8.79-.38,13-3.21,12.72-7,25.3-10.64,37.89-6.68,22.87-20.86,40.59-38.71,55.69-8.68,7.34-17.56,14.45-26.71,22,2.77-6.84,5.69-14,8.55-21.1,7.72-19.31,15.74-38.51,22.86-58a20.87,20.87,0,0,0-.64-14.5c-5-10.71-11.44-20.7-17-31.14-3.06-5.74-6.6-5.81-11.65-2.6C1114.77,319,1104.42,325.11,1092.38,332.45Z"/><path class="cls-17" d="M560.37,1197.2c1.86-9.27,4.38-18.47,5.4-27.84,1.2-11-6-17.86-13.51-24.95-17.31-16.33-33.86-33.46-50.63-50.35-2.47-2.48-4.5-5.4-6.73-8.12.05-.75.09-1.5.14-2.25,16.79,12.69,35.19,23.75,50,38.44,23.26,23.08,49.89,40.84,77.92,56.95,6.47,3.71,9.71,8.34,8.48,15.44-3.25,18.66,3.89,31.72,20,41.27,30.92,18.37,41.93,50.73,53.33,81.6,4.17,11.28-.37,25.78-1,38.81-.14,2.86-.82,5.7-1,8.56-.72,11.6-1.34,12-11.57,7.44-2.62-1.18-5.18-2.48-7.77-3.73l9.33-27.25c1.26-3.26-1.44-7.86-.58-11.65,2.2-9.67-1.54-16.8-7-23.86q-42.72-54.9-85.38-109.84c-.69-.89-1.85-1.4-3.17-2.36-.47,1.52-1.08,2.42-.95,3.19,5,28.63,8.11,57.78,24.32,83.22,9.75,15.31,18.19,31.5,28.45,46.45,9.55,13.93,20.74,26.74,31.22,40-12.52-2.64-21.38-9.48-28.66-20.4-26.21-39.33-46-81.91-65.53-124.71-4.22-9.26-8.49-18.5-13-28.27Z"/><path class="cls-17" d="M543,287.83c-2.09-1.38-5.38-2.32-6.08-4.22-5.11-13.74-10.32-27.52-14-41.67-.86-3.32,3.38-8.72,6.42-12.15,9.73-11,21-20.8,29.81-32.46,9.93-13.16,21.54-26.26,18.67-45.11-2.63-17.28,2.87-30.45,19-39.15,5-2.72,8.66-8.37,12.36-13.14C620,85.85,630.66,71.54,641.4,57.32l-15,40.37c.39.53.77,1.06,1.15,1.6,2.89-2,5.83-3.83,8.64-5.87q13.21-9.58,26.34-19.29c3.84-2.84,6.42-2.51,9.36,1.77,9.29,13.5,5.55,28.38,4.55,42.78-.15,2.08-6.3,4.63-10,5.43-23.76,5.1-47.66,9.58-71.43,14.7-10.29,2.21-10,3.3-5.44,12.71A20.46,20.46,0,0,1,591,165c-4.21,14.77-9.19,29.34-14.49,43.76a26.37,26.37,0,0,1-7.78,10.41c-9.34,7.78-19,15.26-28.86,22.29-5.71,4.06-6.54,8.37-4.62,14.82C538.36,266.64,540.45,277.29,543,287.83Z"/><path class="cls-18" d="M679.58,1366.41c-10.48-13.3-21.67-26.11-31.22-40-10.26-14.95-18.7-31.14-28.45-46.45-16.21-25.44-19.28-54.59-24.32-83.22-.13-.77.48-1.67.95-3.19,1.32,1,2.48,1.47,3.17,2.36q42.72,54.9,85.38,109.84c5.49,7.06,9.23,14.19,7,23.86-.86,3.79,1.84,8.39.58,11.65l-9.33,27.25Zm-42.07-98.55-3.58,1.93c6.35,14.51,13.48,28.73,18.83,43.6,6.55,18.19,24.35,18.73,36.52,28l3.29-3.34Z"/><path class="cls-19" d="M831,1515.14c-27.36-3.25-49.75-9.31-63.79-31.89a8,8,0,0,0-1.68-2.32c-19.92-14.43-19.72-32.65-10.57-53,2.86-6.35,4.14-13.41,6.2-20.13,2-6.54,5.38-7.87,9.88-2.12,14,17.87,29.94,34.61,41,54.13C821.16,1475.9,824.45,1495.33,831,1515.14Zm-41.76-33.26,4.48-.37c.49-8.22,4.2-18.34.73-24.2-5.25-8.87-15.51-14.77-23.64-21.93l-1.85,1.7Z"/><path class="cls-15" d="M619,1073c-8.36-5.56-14.24-10.43-20.89-13.72-18.65-9.23-28.34-25.12-36.48-43.44-7.08-15.93-17-30.59-25.74-45.79-1.66-2.91-3.46-5.74-5.2-8.61l1.79-2.29c8.5,4.57,18.26,7.74,25.27,14,19.29,17.19,37.35,35.7,60.76,47.71,2.78,1.43,5.21,6.82,5,10.2C622.71,1044.05,620.8,1057,619,1073Z"/><path class="cls-4" d="M1250.54,437.87c1.71,10.64-1.3,19.22-9.92,26.25-3.81,3.1-6.18,8-9.2,12.06,0-25.89,0-25.79-26.69-27.07-5.31-.25-10.57-1.63-17.13-2.69,1.26-3.41,1.79-5.8,3-7.8,2.26-3.85,4.49-7.85,7.43-11.17,21.8-24.59,22.55-53.88,18.09-83.86-2.72-18.26-7.51-36.21-11.37-54.31,8.59,5.63,14,12.87,15.09,23.7,1,10.29,3.66,20.42,5.6,30.62q5,22,10,44.09,0,3.88,0,7.75c0,8-.08,16-.05,24C1235.39,433.64,1236.21,434.61,1250.54,437.87Z"/><path class="cls-20" d="M1262.26,631.84l2-.15c9.65,8.37,14.54,18.18,13.58,31.7-1.63,23.14-1.24,46.41-2.61,69.57-.47,8-3.62,15.94-5.55,23.9q-2.31,7.29-4.61,14.6c-2.81-4-3.59-7.65-4.4-11.32-7.87-35.85-15.18-71.83-23.88-107.47-4.14-17-9.52-34-16.91-49.74-8.08-17.27-18.47-33.59-29.09-49.51-8.61-12.92-19-24.62-28.67-36.85q-7.5-10.65-15-21.29c8,8.1,16.08,16.17,24.06,24.31,2,2,3.64,4.23,7.14,8.32,2.2-13.26,4-24.32,5.88-35.39l1.74-.24c.93,4.68,2.62,9.36,2.66,14.05.24,29.89,13,55.34,27,80.73,21.42,39,36.38,80.25,40.85,124.87a32.91,32.91,0,0,0,3.18,11.06c6.94-14.69,17.76-27.56,11.78-46.15C1266.75,662.36,1265.2,646.88,1262.26,631.84Z"/><path class="cls-20" d="M513,1045.13c-8.75-1.75-16.38-2.66-23.54-5-3.07-1-6.18-4.62-7.52-7.78-13.7-32.2-24.84-65.18-28.47-100.22-.3-2.9,1.84-6,2.84-9.07,2.55,1.47,6.07,2.31,7.49,4.51,22.42,34.61,40.09,71.35,49.17,111.83C513.25,1040.56,513,1041.84,513,1045.13Zm-31.35-27.19C482,999,489,978.71,469.8,964.16Q475.74,991.06,481.67,1017.94Z"/><path class="cls-21" d="M1147.15,495.28q7.49,10.65,15,21.29c2.91,4.5,5.92,8.95,8.72,13.53q15.81,25.93,31.52,51.95l-9.6-12.8-20.9-27.8v0c-1.31-2.82-2-6.22-4-8.35-13.27-14-26.82-27.77-40.29-41.6-8.07.87-16.48.59-24.15,2.85-15.47,4.57-28.45,3.2-41.85-7.29-14-10.95-30.21-19-45.45-28.35-9.17-8.72-20.75-6.7-31-5.06-40.57,6.48-81.33,8.11-122.28,7.09h-1.16l2.43-2c21.9-.65,43.86-.55,65.68-2.19,17.34-1.31,34.51-4.75,51.75-7.25,12.65,1.05,25.48,1.12,37.88,3.46,10.05,1.91,19.59,6.55,29.35,10l28.72,13.68,2,1.67c3.13,1.49,6.18,4,9.4,4.26,12.23.92,24.54.76,36.77,1.68,5.13.38,10.14,2.44,15.2,3.73Z"/><path class="cls-8" d="M414.35,1233.85c9.41-.24,17.1-4.41,25.61-8.25,14.12-6.38,26.67-17,44.7-15.65,21.16,1.65,42.65-.86,64-1.56-7.1,10.31-16,17.33-29.42,15.69-34.51-4.2-66.32,5.15-96.88,19.81-3.65,1.75-7.5,7.28-7.7,11.24-.53,10.75,1.4,21.6,1.28,32.39-.07,6.56-2.14,13.09-3.32,19.63,1.27-18.12-13.09-25.35-24.24-34.81-2.24-6.7-.67-12.15,4.59-17.07C400.34,1248.39,407.25,1241,414.35,1233.85Z"/><path class="cls-22" d="M1042.57,1631.59c-10.42,1.29-14.81,8.34-17.69,17.51-1.46,4.65-3.64,10.39-10.83,6.39l-2.48-3q4.21-6.46,8.41-12.94c4.45-3.54,8.51-7.77,13.43-10.44,5.53-3,8.1-6.75,7.65-12.93-.7-9.53-1.63-19.08-1.71-28.62q-.39-46-.15-92c.06-10.11-4.47-17.37-12.59-24.92-9.5,19.13-18.54,37.31-27.58,55.49l-2.19-.11q1-8.61,2-17.22l0,0,11.73-38.47c2.52-8.84,4.78-17.77,7.68-26.49,2-6.09,4.94-11.89,7.46-17.83v0c1.63,5.12,3.19,10.26,4.91,15.35,4.14,12.22,8.36,24.43,12.54,36.64-.07,6.08-.19,12.16-.21,18.24Q1042.74,1563.9,1042.57,1631.59Z"/><path class="cls-23" d="M471.94,570.37c-1.89-13.43-5.07-26.84-5.16-40.29,0-7.31,5.38-14.58,7.87-22,1.5-4.46,3.08-9.24,2.93-13.82-1-32.82,9.06-63.45,18.33-94.22,1-3.22,4.41-5.7,6.7-8.53-3.75,14.09-8.36,28-10.75,42.35-.77,4.58,3.65,10.64,6.91,15.14,5.86,8.11,6.12,15.28,0,23.39C476.88,501.43,474.38,535.92,471.94,570.37Z"/><path class="cls-23" d="M502.64,391.47c7.48-8.89,15-17.74,22.39-26.7a7.18,7.18,0,0,0,1.86-4.32c-1.12-19.57,14.1-28.64,25.57-40.13-2.47,18-4.65,36-7.66,53.83-.49,3-4.17,6.69-7.15,7.66C526.15,385.56,514.34,388.33,502.64,391.47Z"/><path class="cls-24" d="M1042.57,1631.59q.18-67.68.38-135.38c0-6.08.14-12.16.21-18.24q1-11.64,2-23.29c9.35,13,7.61,27.9,7.36,42.49-.49,29-.42,58-2.14,87C1049.4,1600.07,1045.26,1615.79,1042.57,1631.59Z"/><path class="cls-25" d="M496,818.9l40.49,25.93c0,1.13.09,2.26.14,3.39L496,868.84Z"/><path class="cls-26" d="M920.27,1591.6c18.62-18.43,36.62-37.55,56.1-55,10.59-9.5,16-21,20.53-33.59,0,1.91,0,3.81,0,5.72-2.65,8.87-4.65,18-8.17,26.52a47.24,47.24,0,0,1-10.68,16c-13.89,13.11-28.47,25.47-42.78,38.13l-13.07,2.23Z"/><path class="cls-8" d="M1150.6,162.8C1170.83,181,1186.78,201.42,1193,229c4.08,18.26,12.2,35.62,11.45,54.9q-7.74-20.1-15.49-40.21c-7.17-18.5-13.74-37.28-21.81-55.38C1163,179.2,1156.19,171.28,1150.6,162.8Z"/><path class="cls-19" d="M1006.41,1468.25v-62.7c16.89-.16,24.94,8.1,32.69,32L1025.71,1426v0c-4.72-7.13-6.07-2.26-7.39,2.13Q1012.31,1448.16,1006.41,1468.25Z"/><path class="cls-27" d="M298.62,1398.92c10.73-14.67,27.05-21.22,42.36-29.31,7.46-3.95,15.25-7.71,21.73-13,7.14-5.8,13-12.55,23-14.31,4.4-.77,8.13-5.66,12-8.85,3.68-3,7.18-6.21,10.75-9.33-5.27,6.66-9.27,15.33-16.05,19.6-26.13,16.5-53.14,31.6-79.84,47.2C308,1393.64,303.28,1396.26,298.62,1398.92Z"/><path class="cls-28" d="M125.88,1476.06c8.46-8.7,16.31-18.14,25.66-25.76,4.39-3.58,11.57-4.31,17.65-5.11s12.11,0,18.18.08c-10.38,5.5-20.68,11.17-31.18,16.44C146.2,1466.71,136,1471.29,125.88,1476.06Z"/><path class="cls-29" d="M1011.57,1652.51l2.48,3c-30.84-.14-58-12.4-84.88-25.67-2.74-1.36-5-3.75-7.46-5.65l4.08-21.37,3.42,2.31c-.49,3.76-1.67,7.59-1.29,11.26.35,3.29,1.48,7.89,3.85,9.36,14.64,9.08,30.21,16.14,47.75,17.58Z"/><path class="cls-30" d="M925.79,1602.8l-4.08,21.37-20.32-13.08,18.88-19.5,1.94,0c.4,1.94.79,3.88,1.19,5.81Z"/><path class="cls-31" d="M1140.88,487.78c-5.06-1.29-10.07-3.35-15.2-3.73-12.23-.92-24.54-.76-36.77-1.68-3.22-.24-6.27-2.77-9.4-4.26,13.33-1.19,26.67-2.25,40-3.61C1130.45,473.39,1135.68,476.49,1140.88,487.78Z"/><path class="cls-32" d="M1025.71,1426l13.39,11.62,6,17.08q-1,11.64-2,23.29c-4.18-12.21-8.4-24.42-12.54-36.64C1028.9,1436.24,1027.34,1431.1,1025.71,1426Z"/><path class="cls-32" d="M1006.41,1468.25q5.94-20.09,11.9-40.16c1.32-4.39,2.67-9.26,7.39-2.13-2.52,5.94-5.43,11.74-7.46,17.83-2.9,8.72-5.16,17.65-7.69,26.49q-5.87,19.24-11.72,38.47l0,0-2-.06c0-1.91,0-3.81,0-5.72Z"/><path class="cls-17" d="M75.76,1512.48c6.32-7.88,12.78-15.66,18.93-23.67s13.83-10.69,23.47-8.68Z"/><path class="cls-33" d="M1252.68,564.56c1.17,3.27,3,6.47,3.4,9.84,2.24,19.14,4.13,38.32,6.14,57.48Z"/><path class="cls-4" d="M1235.4,503c14.09,12.16,11.55,28.52,11.23,44.33Q1241,525.19,1235.4,503Z"/><path class="cls-34" d="M439,912.1c.56-6.77.39-13.74,2-20.25.81-3.28,4.89-5.74,7.5-8.57q-4.62,18.56-9.22,37.1C439.16,917.62,439.07,914.86,439,912.1Z"/><path class="cls-15" d="M132,1735.22c-.24-.47-.49-.93-.75-1.39,17.76,3.76,32.3,12.45,42.55,27.74-10.19-7.06-20.3-14.26-30.64-21.09C139.71,1738.24,135.69,1736.94,132,1735.22Z"/><path class="cls-27" d="M388.38,1272.34c11.15,9.46,25.51,16.69,24.24,34.81l-2,11.17c2.48-14.71-2-26.51-14-35.75C393.26,1280,391.1,1275.79,388.38,1272.34Z"/><path class="cls-15" d="M269.88,1803.86c-1.36-.82-3.09-1.33-4-2.49-10-12.46-23-18.07-38.8-17.52C246,1780.47,260.59,1786.51,269.88,1803.86Z"/><path class="cls-35" d="M1073.87,1339.61c-6,1.87-11.86,5.07-17.9,5.37-15.67.76-31.53,1.5-47.05-.18-10.46-1.14-20.59-6.1-30.66-9.89-29-10.91-55.14-26.89-81.07-43.56a218.84,218.84,0,0,0-41.12-20.57c-21.3-8-39.42-19.35-51.87-38.75a3.22,3.22,0,0,0-.59-.76c-27.55-21.88-18.77-50.06-13-77.4,3.49-16.6,9-32.79,12.25-49.42,1.11-5.58-.29-12.79-3.1-17.83-17.26-31-40.16-57.41-65.31-82.49-15.22-15.19-26.93-34.12-38.87-52.26-3.71-5.62-4-14.14-4.1-21.35-.3-28-8.86-52.63-28.28-73.06-6.45-6.79-6.64-13.56-2.93-21.87,6.14-13.74,11.6-27.8,16.86-41.9,2.47-6.64,5.85-8.83,12.18-5,.55.33,1.15.58,1.72.86,31,14.91,31.75,14.72,41.4,53.47,3.54,14.24,10.45,20.87,24.38,21.86A42.85,42.85,0,0,1,769,867.35c23.91,9.19,46.39,4.68,68.26-6.6-5.33,5-5.69,10.88-3.4,17.54,1.89,5.49,3.07,11.23,5.27,19.52-10-4-17.13-6.64-24-9.74-33.5-15-33.48-15.07-67.13-1.22-4.74,1.95-9.81,3.27-14.21,5.8-3.7,2.13-7.48,5.05-9.74,8.57-4.84,7.51-8.31,15.9-13.1,23.44-5.23,8.27-3.41,13.44,4.43,19,12.24,8.67,25.28,17.09,35,28.2,24.45,27.83,47.54,56.87,70.57,85.9,10.35,13.06,20.19,25.68,39.38,23.16a10.33,10.33,0,0,1,2.83.49c11.6,1.92,21.53.73,26.34-12.36,2-5.35,5.18-10.27,8-15.31q15.06-27.29,30.21-54.52c-3.37,16.6-6.28,33.31-10.27,49.77-2.14,8.79.28,13.16,8.85,15.54,11.71,3.25,23.21,7.28,34.83,10.87,5.87,1.81,6.43,4.7,3.42,10-4.09,7.17-9.34,10.07-17.82,10.11-33.76.16-33.74.45-46.84,31.83-3.27,7.81-6.7,15.56-10.3,23.92a67.72,67.72,0,0,0,7.07,1.9,312.76,312.76,0,0,0,133.65-10.27c6.72-2,13.61-3.52,20.42-5.26-11.19,5.09-22,11.55-33.68,14.9-12.83,3.67-26.47,4.49-39.76,6.53-7,1.08-9.79,3.56-5.24,10.8,4.93,7.86,8.83,16.36,13.18,24.58l-2.28,2.27c-16.9-5.63-33.86-11.07-50.68-16.92-27.89-9.71-56.2-18.94-68.77-49.85a4.51,4.51,0,0,0-1.71-2.27c-1.56-.82-4.14-2.32-4.88-1.73-10.67,8.37-24.18,15.17-30.81,26.1-8.77,14.46-12,32.27-17.84,48.54-2.21,6.13-.57,10.09,4.59,13.94,21.55,16.08,42.8,32.32,67.37,44.09,13.58,6.5,25.65,16.53,37.54,26.05,17.18,13.76,32.33,30.07,53.54,38.36,11.31,4.42,21.94,10.54,33.15,15.26a38.31,38.31,0,0,0,14.81,3C1037.43,1341.05,1055.65,1340.21,1073.87,1339.61Z"/><path class="cls-36" d="M927.67,999.21q-15.1,27.25-30.21,54.52c-2.78,5-6,10-8,15.31-4.81,13.09-14.74,14.28-26.34,12.36a10.33,10.33,0,0,0-2.83-.49c-19.19,2.52-29-10.1-39.38-23.16-23-29-46.12-58.07-70.57-85.9-9.76-11.11-22.8-19.53-35-28.2-7.84-5.55-9.66-10.72-4.43-19,4.79-7.54,8.26-15.93,13.1-23.44,2.26-3.52,6-6.44,9.74-8.57,4.4-2.53,9.47-3.85,14.21-5.8,33.65-13.85,33.63-13.81,67.13,1.22,6.91,3.1,14,5.71,24,9.74-2.2-8.29-3.38-14-5.27-19.52-2.29-6.66-1.93-12.51,3.4-17.54,6.65-4.08,9.18-9,2.92-15.44-5.18-5.3-3.88-10.21.34-15.23,6-7.09,11.9-14.23,17.85-21.35l5.83.13c1.14,4.84,1.52,10,3.54,14.45,7.43,16.29,7.65,16.2-5.31,28.54-1.62,1.53-3.3,3-5.06,4.38-20,15.59-20,15.58-13.2,40,3.79,13.57,3,15.14-11.49,14.39-27.35-1.43-54.67-3.63-82-5.51L748.8,905c-5.91-5.37-11.66-2.69-17.9,0,.29,2,.25,3.6.79,5,9.23,24.18,17.43,48.85,36.86,67.57,10.28,9.91,18.23,23.17,30,30.4,23.67,14.54,49.39,25.69,73.94,38.85,8.43,4.51,13.25,3.83,16.84-5.49,13.75-35.66,35-66.6,59.68-95.57,4.29-5.05,7-13.09,7-19.78.13-13-2.45-26.06-3.31-39.12-.92-14.07-1.79-15.49-15.48-18.43l-2-1.82c8.93,0,17.87,0,26.8-.09,11-.13,12.64-2.27,11.24-13.23-1.81-14.2-3.4-28.44-5.08-42.66,14.39,14.43,25,29.38,19.74,52.22-4.91,21.24-4,42.74,6.44,63.34,9.45,18.72,17,38.41,25.4,57.67q3,9.49,6,19c0,.69,0,1.37-.07,2.06-1.5-1.18-3.46-2.08-4.42-3.6-11.52-18.25-27.93-24.82-49.48-26.37-30.51-2.21-30.39-4-44.19,24.29Z"/><path class="cls-37" d="M1019.77,983.82c-8.39-19.26-15.95-39-25.4-57.67-10.4-20.6-11.35-42.1-6.44-63.34,5.28-22.84-5.35-37.79-19.74-52.22-8.06-13.22-16.49-25.67-33.86-28a79.76,79.76,0,0,1-22.1-6.16c-17.31-7.93-32.12-3-46.33,7.23l-3.78,2c-8.19,3.48-16.26,7.3-24.63,10.28-3.59,1.27-8.71,2.43-11.58.83-12.28-6.8-24-14.6-35.86-22.17-1.54-1-3.34-2.6-3.69-4.21-3.66-16.52-7.32-33-10.26-49.7-.59-3.35,1.3-7.57,3.09-10.83q20-36.51,40.58-72.76C825.52,627,832,617.32,838.86,606.3c-4.33-.61-6.78-1.34-9.18-1.24-15,.64-30,1.28-44.93,2.34-3.71.27-7.31,2.1-11,3.21-8.33,1.47-16.74,2.6-25,4.53-6.5,1.52-7.2-1.11-5.73-6.29,12.18-30.49,24.58-60.91,36.41-91.54,3.22-8.35,7.7-13.52,16.59-16.55,10.95-3.72,21.09-9.8,31.58-14.86l28.83-19.2c-13.28,11.47-26.5,23-39.92,34.32a11.23,11.23,0,0,1-7.09,2.58C789.76,502.5,784,514.8,782,531.29c-.57,4.73-2.42,9.29-3.34,14-2.92,14.92-7.66,29-17.3,41.14-3.77,4.77-6.31,10.51-9.41,15.8l1.63,1.46L803,573.33c1.29,13.39,8.29,8.59,14.21,6.55,12.24-4.22,24.41-8.68,36.93-13.15.52,2.29,1.13,3.33.87,4-7.92,21.58-14.58,43.75-24.31,64.48-8.35,17.79-17.91,33.84-13.14,55.13,3.82,17,5.22,35.21-2.83,51.86-7.51,15.52-1.38,27,9,37.78l.19,5.63c5.26,7.19,10.93,7.56,18.94,3.34,14.14-7.44,28.94-13.7,43.67-20,3.24-1.38,7.51-1.41,11.07-.75,11.65,2.16,23.07,5.81,34.79,7.23,14.61,1.76,25.51,9.33,35.71,18.87,5.36,5,11.32,9.48,16.27,14.87,3.07,3.35,6,7.72,6.88,12.06,8.26,38.84,16.46,77.7,23.77,116.73C1017.79,953.09,1018.24,968.55,1019.77,983.82Z"/><path class="cls-36" d="M1073.87,1339.61c-18.22.6-36.44,1.44-54.66,1.64a38.31,38.31,0,0,1-14.81-3c-11.21-4.72-21.84-10.84-33.15-15.26-21.21-8.29-36.36-24.6-53.54-38.36-11.89-9.52-24-19.55-37.54-26.05-24.57-11.77-45.82-28-67.37-44.09-5.16-3.85-6.8-7.81-4.59-13.94,5.86-16.27,9.07-34.08,17.84-48.54,6.63-10.93,20.14-17.73,30.81-26.1.74-.59,3.32.91,4.88,1.73a4.51,4.51,0,0,1,1.71,2.27c12.57,30.91,40.88,40.14,68.77,49.85,16.82,5.85,33.78,11.29,50.68,16.92l2.28-2.27c-4.35-8.22-8.25-16.72-13.18-24.58-4.55-7.24-1.73-9.72,5.24-10.8,13.29-2,26.93-2.86,39.76-6.53,11.69-3.35,22.49-9.81,33.68-14.9l4.27-4-23.63-5.48c20-.79,40.12-5.24,60.26,1.69-3,9.4-8.47,14.41-17.8,15.78-8.43,1.24-16.69,3.61-25,5.48h0c-20.77-.7-36.31,8.91-50.37,25.36l45.38,23.49c-2.29,1.57-3,2.39-3.79,2.55-27,5.31-53.88,9.45-81.69,4.31-34.34-6.35-68.81-11.23-85.09-48.71-2.71-6.23-7-6.77-12.07-2.39-7.3,6.24-14.49,12.61-22.1,18.44-4.85,3.72-5.86,7.77-4.08,13.4,4.15,13.12,8.15,26.3,11.87,39.55,1.8,6.41,5.66,9.48,12.09,10.51,10.75,1.72,21.58,3.3,32,6.17a36.73,36.73,0,0,1,15.33,8.74c7.52,7.34,13.63,16.1,20.83,23.79,10.63,11.37,20.53,23.18,34.91,30.9,24.3,13,46.32,31.5,76.65,27.42a2.94,2.94,0,0,1,.94.18c23.27,5.13,41.91-2.87,57.28-20.17l13.28-6.11c-6.75,6.1-13.55,12.15-20.21,18.34-3,2.77-5.7,5.85-8.53,8.79Z"/><path class="cls-38" d="M743.1,608.85c-1.47,5.18-.77,7.81,5.73,6.29,8.22-1.93,16.63-3.06,25-4.52,8.9,6.19,17.71,12.54,26.76,18.51,5.29,3.49,5.62,7,1.68,11.72-5.5,6.62-10.64,13.54-16.11,20.19-25.75,31.34-25.77,31.32-25.77,72,0,5.11-.27,10.24.12,15.32.28,3.75.65,7.84,2.32,11.08,9.22,17.85,18.85,35.48,28.34,53.19-11.33.8-17.49-4.09-22.25-15-11.06-25.26-16.43-51.82-21-78.62-.85-5,1.17-11.46,3.88-16,7.52-12.66,16-24.75,24.31-36.9,4.5-6.57,3.48-10.51-4.53-12.26-2.49-.54-4.86-1.7-7.35-2.22-6.43-1.33-8.15-5.21-6.92-11.31,1.56-7.75,2.75-15.57,4.62-26.31-4.41,3.43-6.68,4.87-8.54,6.71-9.13,9-18.4,17.86-27.13,27.23-5.8,6.22-10.58,8.27-15.38-.64a6.12,6.12,0,0,0-1.86-2.17c-16.71-11-14.86-26.08-13.07-43.79,3-29.92,16.14-55.38,33.72-77.08,14.52-17.92,33.55-34.64,59.59-36.81,23.3-1.95,45.51-6.77,63.79-22.88,2.24-2,5.72-2.54,8.63-3.76h1.16l-6.3,5.91-28.83,19.2c-11.12,1.25-22.21,3-33.36,3.61s-17.26,5.2-21.5,16.25c-9.23,24.13-20.23,47.6-31,71.11-4.34,9.46-10,18.32-15.27,27.8Z"/><path class="cls-39" d="M791.13,812.6c-9.49-17.71-19.12-35.34-28.34-53.19-1.67-3.24-2-7.33-2.32-11.08-.39-5.08-.12-10.21-.12-15.32,0-40.65,0-40.63,25.77-72,5.47-6.65,10.61-13.57,16.11-20.19,3.94-4.72,3.61-8.23-1.68-11.72-9-6-17.86-12.32-26.76-18.51,3.65-1.12,7.25-3,11-3.22,15-1.06,29.94-1.7,44.93-2.34,2.4-.1,4.85.63,9.18,1.24-6.87,11-13.34,20.7-19.09,30.79q-20.61,36.2-40.58,72.76c-1.79,3.26-3.68,7.48-3.09,10.83,2.94,16.66,6.6,33.18,10.26,49.7.35,1.61,2.15,3.23,3.69,4.21,11.84,7.57,23.58,15.37,35.86,22.17,2.87,1.6,8,.44,11.58-.83,8.37-3,16.44-6.8,24.63-10.28C848.41,795,835.53,806.16,820.66,813,812.56,816.67,801.08,813,791.13,812.6Z"/><path class="cls-40" d="M865.9,783.65c14.21-10.28,29-15.16,46.33-7.23a79.76,79.76,0,0,0,22.1,6.16c17.37,2.34,25.8,14.79,33.86,28,1.68,14.22,3.27,28.46,5.08,42.66,1.4,11-.27,13.1-11.24,13.23-8.93.1-17.87.06-26.8.09q-.83-.14-1.65-.21l-12-7.38c-.54-4.1-1.48-8.18-1.56-12.29-.48-24.41-.41-24.41-24.92-28.28-.63-.1-1.27-.13-1.91-.19-2.85-1.73-5.5-4.18-8.6-5.05-6.67-1.87-13.56-2.92-20.37-4.31l-5.83-.13c3.21-5.58,7.94-5.34,13.33-3.83,28.84,8.12,58.56,13.9,83.67,31.85.7.5,1.78.49,4.19,1.1-.75-3-.89-5.34-1.91-7.21-6.28-11.49-12.63-22.95-19.27-34.23-1.55-2.63-4-6-6.58-6.54-18.3-3.64-36.16-11-55.42-7.5a33,33,0,0,0-4.54,1.5c-.59,0-1.18.06-1.76.11Z"/><path class="cls-38" d="M1048.74,462.76c-9.76-3.43-19.3-8.07-29.35-10-12.4-2.34-25.23-2.41-37.88-3.46-18.67-.74-37.46-3.05-56-1.78-19.94,1.37-39.66,6.1-59.47,9.37,4.43-2.36,8.62-5.81,13.34-6.86,16.87-3.76,33.81-8.09,50.94-9.51,13.17-1.1,26.68,1.81,40,3,15,1.35,29.91,2.94,44.88,4.17C1028.23,448.81,1039.22,454.08,1048.74,462.76Z"/><path class="cls-41" d="M866,456.91c19.81-3.27,39.53-8,59.47-9.37,18.54-1.27,37.33,1,56,1.78-17.24,2.5-34.41,5.94-51.75,7.25-21.82,1.64-43.78,1.54-65.68,2.19Z"/><path class="cls-42" d="M721.14,308c9.35-12,11.58-12.17,19.93-2,5.27,6.41,10.22,13.08,15.27,19.67.33.44.23,1.2.83,4.89Z"/><path class="cls-42" d="M870.08,784c.58-.05,1.17-.09,1.76-.11l45.9,8.15c0,.5,0,1,0,1.48-10.14.6-20.28,1.6-30.43,1.69C879.42,795.26,873,792.06,870.08,784Z"/><path class="cls-43" d="M823.87,785.66l-.18-5.63c0-9.28.39-18.57,0-27.83-.31-7.74,2.1-12.81,10-15.07,21.13-6,38-19,54.25-33.23,6.71-5.89,6.14-9.59,1.24-15.65-7.85-9.69-15.38-19.67-22.34-30-2.49-3.69-4.81-9.16-4-13.16,6-29.7,7.78-61.61,37.06-80.69a2.32,2.32,0,0,0,.68-.68c1.43-2.36,2.84-4.73,4.26-7.1-2.7-1.26-5.3-3.31-8.11-3.66-31.67-3.94-63.38-7.55-95-11.51-2.79-.35-7.49-2.33-7.59-3.8-.23-3.33.83-8,3.19-10,20.77-17.42,41.94-34.35,63-51.43q-14.37,18.52-28.73,37l1.83,3.56c18.63-2.47,37.52-3.79,55.78-7.92,8.25-1.86,8-15.72.49-20.74-7.12-4.78-14.45-9.26-21.69-13.87,3.17,0,6.73.93,9.44-.18,22.12-9.12,45-6.77,68-5.64,14.69.73,28,3,37.86,16.05,11.44,15.12,27.1,27.28,31.62,47,.24,1.06,1.24,2,3.06,4.71,3.07-13.87,5.46-26,8.51-38,1.87-7.34.09-12.76-5.22-18.1-6.32-6.35-11.79-13.55-18.5-21.41h13.37c15.24,9.33,31.47,17.4,45.45,28.35C1075,497.6,1088,499,1103.43,494.4c7.67-2.26,16.08-2,24.15-2.85,1.64,14.27,3.43,28.52,4.82,42.82.35,3.61-.53,7.35-.84,11-3.81-1-7.9-1.46-11.35-3.2-7.69-3.88-14.92-8.69-22.63-12.54-3.23-1.61-7.84-3.41-10.73-2.29-19.25,7.49-30.75,23.56-44,40.16l46.28,25.9L1104.48,605c9.73,16.16,18,33.51,29.66,48.09,9.4,11.73,23,20.11,34.7,30,2.18,1.85,4.83,3.54,6.17,5.92,15.36,27.25,33.86,53,41.62,84,1.78,7.13,4.17,14.12,6.4,21.14,3.65,11.49,2.53,14.3-9.91,21.45-4-8.59-8.06-17.08-11.94-25.65q-4.93-10.93-9.52-22c-2-4.74-4.75-6.91-10.36-6-8.49,1.47-17.33,1.24-25.68,3.18-9.68,2.25-17.48-.29-25.22-5.69-8.06-5.62-16.49-10.7-27.64-17.87l44.56-18.13c-4-1.73-5.71-2.76-7.56-3.22-18.6-4.62-36.73-5.53-55.46,1.41-16.14,6-33.44,8.72-50,13.52-8.07,2.33-15,2.28-21.15-4-4.32-4.42-7.91-4-13.12,0-23.58,17.75-50.37,28.93-79.92,27.18-30.49-1.81-57.52,4-81.9,22.6C834.38,783.81,828.68,784.15,823.87,785.66ZM955.81,641.29c13.68-1.19,27.36-2.45,41.05-3.53,5.71-.45,8-3.07,6.9-8.83-3.5-18.88-6.54-37.85-10.58-56.61-.74-3.45-4.85-7.89-8.2-8.75-11.75-3-23.82-4.84-35.83-6.76-9.26-1.47-10.55.2-9.49,9.58,2.51,22.21,5,44.42,7.13,66.67C947.37,639.12,949.79,641.88,955.81,641.29ZM923.7,478.17c9.22,25.46,29.38,46.25,49,50.48-8.82-8.09-17.61-15.44-25.54-23.61C939.06,496.7,931.82,487.55,923.7,478.17Z"/><path class="cls-44" d="M1096.89,1314.6c-15.37,17.3-34,25.3-57.28,20.17a2.94,2.94,0,0,0-.94-.18c-30.33,4.08-52.35-14.37-76.65-27.42-14.38-7.72-24.28-19.53-34.91-30.9-7.2-7.69-13.31-16.45-20.83-23.79a36.73,36.73,0,0,0-15.33-8.74c-10.46-2.87-21.29-4.45-32-6.17-6.43-1-10.29-4.1-12.09-10.51-3.72-13.25-7.72-26.43-11.87-39.55-1.78-5.63-.77-9.68,4.08-13.4,7.61-5.83,14.8-12.2,22.1-18.44,5.12-4.38,9.36-3.84,12.07,2.39,16.28,37.48,50.75,42.36,85.09,48.71,27.81,5.14,54.68,1,81.69-4.31.82-.16,1.5-1,3.79-2.55l-45.38-23.49c14.06-16.45,29.6-26.06,50.37-25.36-3.75,6-7.25,12.08-11.32,17.79s-3,8.94,3.17,11.87c12.14,5.74,24.08,11.92,36.07,18,2.79,1.41,5.46,3,8.19,4.55.08,1,.17,1.91.25,2.87-16.42,4.07-32.67,9.24-49.32,11.9-17,2.71-34.33,2.77-51.48,4.4a22.31,22.31,0,0,0-10.55,3.85c-13.16,9.62-25.88,19.83-39,29.5-5.21,3.83-4.41,7-.32,10.73,14.92,13.51,28.94,28.22,45.07,40.06,9.44,6.92,22.58,8.57,33.49,13.78,20.34,9.73,40.3,9.88,60.9,1C1081.18,1318.2,1089.2,1316.8,1096.89,1314.6Z"/><path class="cls-45" d="M1108.44,1290.9c.88,5.88-2.58,10.16-9.78,12.54-7.57,2.51-15.34,5-22.2,9-17.53,10.09-34.93,9.8-52.93,1.77-5.23-2.34-10.79-4.8-16.38-5.33-16.15-1.53-22.56-11.91-26.38-25.87-2.35-8.62-5.78-16.94-9-25.31-2.06-5.43-.91-9.2,4.51-11.74,15.62-7.35,30.81-15.86,46.95-21.76,6.79-2.48,15.74-.49,23.37,1.11,16.27,3.4,32.41,7.56,48.38,12.16,3.56,1,8.45,4.82,8.92,7.91C1106.12,1259.84,1107,1274.54,1108.44,1290.9Z"/><path class="cls-46" d="M1183.22,1064.29c-11.73-14.25-22.72-25.79-31.49-38.82-8.17-12.13-13.59-26.08-21-38.8-4-6.94-9.58-13-15.48-20.8,10.14-2.5,19.52-5.42,29.11-7,16-2.68,29.66-8.38,40.45-21.34,7.3-8.77,16.4-16.14,25.22-23.5,7.88-6.58,10.67-14.39,10-24.48a165.84,165.84,0,0,1,1.17-31.62c9,15.44,20.73,28.73,20.15,48.79-1.22,42.84-16.32,81-35.91,117.91C1198.88,1037,1191.76,1049.07,1183.22,1064.29Z"/><path class="cls-47" d="M1069.94,1012.72c-13.88-11.14-27.91-22.1-41.49-33.59-2-1.68-2.81-5.93-2.58-8.86,3.47-44.09-7.22-86.53-14.66-129.36-2.66-15.32-4.57-30.77-6.83-46.16l2.39-1.31c8.52,9.12,16.57,18.72,25.66,27.22,11,10.23,13.75,23,14.5,37,1.34,25.19,6.89,49.51,19.11,71.67,9.88,17.94,10.71,36.31,7,55.76-1.73,9.07-2,18.4-3,27.61Z"/><path class="cls-48" d="M1098.21,771.87c15.78,1.85,37.41,4,58.91,7.17,4.5.65,9.44,4,12.55,7.49,9.73,11,18.65,22.77,28,34.16,4.09,5,4.92,9.54,1.12,15.57-7,11.09-13.13,22.72-19.43,34.24-3.23,5.93-7.4,8.1-14.18,6-7.63-2.4-15.57-3.77-23.27-6-5.65-1.61-9.92-.33-11.1,5.52-4.28,21.32-22.65,21.7-38.29,25.74-2.28.59-6.62-2.18-8.28-4.58-10.55-15.28-22.78-29.94-30.23-46.69-7-15.72-9-33.72-12.78-50.8-1.25-5.58-1.54-11.4-2-17.13-.4-5.52,2.36-8.12,8-8.33C1062.26,773.66,1077.26,772.85,1098.21,771.87Zm-3.3,90.75c4.73,1.76,9.84,5.68,14.13,4.93,27.87-4.91,56.48-8,79.76-26.93,4.78-3.88,5.69-6.91,2.13-11.87-9.49-13.25-18.53-26.84-28.28-39.88-2-2.65-6.18-4.61-9.59-5-17.08-2.24-34.25-5.35-51.35-5.15-10.72.12-21.44,5.38-32,8.77-1.65.53-3.15,3.23-3.7,5.21-3.69,13.24-7.58,26.46-10.28,39.91-.64,3.19,2,8.77,4.91,10.61,9.1,5.85,19,10.46,28.61,15.55Z"/><path class="cls-21" d="M1025.74,1004.88c0-.69,0-1.37.07-2.06,11.81,2.84,23.62,5.73,35.45,8.5,2.84.67,5.78.94,8.68,1.39l.07,0c14.36.61,28.7,1.57,43.06,1.66,7,.05,10.91,2.66,14.22,8.82,16,29.88,32.74,59.39,48.62,89.35,2.23,4.21,2.65,10.56,1.37,15.22-2.41,8.81-6.66,17.11-11.13,28-22.81-26.48-41.93-52.66-54-83.56l11.49,8.84c-1.05-12.19,3.93-23-4.76-31.72-7.63-7.68-16.36-14.26-23.9-22-9-9.22-19.47-12.21-32-11-7.91.75-16,.2-23.93.23Z"/><path class="cls-49" d="M1104.48,605l-15.33-11.57-20.22-20.94c11.07-.62,20.35-2.46,29.26-1.35,17.07,2.13,34,5.53,50.82,9.29a33,33,0,0,1,14.65,8.09c8.77,8.32,16.72,17.52,24.86,26.49,4.5,5,8.09,5.34,11.89-.88,2.82-4.61,6.41-8.74,9.65-13.09,4.34,11.48,8.69,23,13.72,36.27-19.65-1.88-37.45.14-51-14.83-6.84-7.55-14.8-14.16-22.75-20.6-3.48-2.82-7.15-8.81-13-3.5-6.9,6.28-10.34,17.24-6.32,22,11.51,13.67,23.51,26.92,35.32,40.34q16.38,27.86,32.74,55.72c-3.43-4.14-7.42-7.94-10.2-12.49C1165.71,666.58,1136.06,635,1104.48,605Z"/><path class="cls-50" d="M1039.08,1016.55c8,0,16,.52,23.93-.23,12.51-1.18,23,1.81,32,11,7.54,7.75,16.27,14.33,23.9,22,8.69,8.75,3.71,19.53,4.76,31.72l-11.49-8.84q-5.7-6.78-11.39-13.58c-4.82-5.05-9.61-10.12-14.45-15.16-3.35-3.49-6.36-3.56-9.3.7-5.58,8.07-11.33,16-17,24l-13.15,2.13c-2.42,1.46-5.58,2.37-7.13,4.47-7.63,10.34-18,12.34-29.74,10.62-.64-8.21,3.11-12.54,11.34-13.48a35.55,35.55,0,0,0,11.12-2.77c2.54-1.21,5.67-3.75,6.2-6.2,2.48-11.54,4.16-23.26,6.12-34.91Z"/><path class="cls-9" d="M1010,1085.45c11.79,1.72,22.11-.28,29.74-10.62,1.55-2.1,4.71-3,7.13-4.47-7.62,7.27-15,14.74-22.91,21.74-5,4.47-5.44,8.34-1.49,14,6.86,9.73,14.43,15.64,27.65,14.61s26.77.79,40.15,1.76c3,.21,6.72,1.25,8.64,3.29,11.73,12.46,23,25.32,33.35,40.19-13.74-2.47-27.57-4.56-41.17-7.64-3.58-.81-6.47-4.7-9.68-7.18l-21.07,2-11.58-2c8.33-1.87,16.59-4.24,25-5.48,9.33-1.37,14.78-6.38,17.8-15.78-20.14-6.93-40.27-2.48-60.26-1.69l-13.45-1.73c-4-2.59-9.58-3.1-9.58-10.19,0-10.14-1.13-20.29-1.78-30.43Z"/><path class="cls-38" d="M1198.78,716.47q-16.37-27.86-32.74-55.72-10.26-15.59-20.52-31.16c-2.11-3.2-5-6.15-6.1-9.67-.8-2.51.76-5.77,1.27-8.7,2.5.62,5.51.55,7.42,1.95,32.34,23.77,58.37,53.44,79.81,87.14,3,4.77,3.38,11.46,4.21,17.36,2,14.46,3.65,29,5.43,43.46l-3.34,2-10.56-12.06,7.44,4.34c-.64-4.88-1.15-8.28-1.51-11.68-2.6-25.16-4.56-50.57-28.55-66.62-1.5-1-2.16-3.17-3.48-4.53-7.1-7.3-14.28-14.52-21.44-21.77l-3.79,2.63c3.47,7.56,6.59,15.31,10.46,22.65,12.22,23.15,24.72,46.15,37.11,69.2l-13.46-17.28Z"/><path class="cls-48" d="M1258.29,885.59q-1.07,3.78-2.15,7.58l-7.83,15c-.59-2.36-1.49-4.17-1.44-5.95,1.45-49.73-15.47-95.43-30.82-141.49-2.12-6.35-3.87-12.81-5.79-19.22,5.79,14.47,11.42,29,17.42,43.4,8.22,19.73,16.39,39.5,25.27,58.94,4.56,10,6.43,19.82,4.49,30.64C1256.81,878,1258,881.88,1258.29,885.59Z"/><path class="cls-51" d="M1105,1094.07l-41.15,9.11c3.79-13.14,7-24.07,11-38l30.85,25.64Z"/><path class="cls-52" d="M1189.49,897.38l-47.44,35.53-2.07-2.09c10.75-14.53,21.39-29.14,32.46-43.42,1-1.25,5.45-1.3,7.11-.17C1182.85,889.49,1185.32,893,1189.49,897.38Z"/><path class="cls-22" d="M1060,1068.23c5.67-8,11.42-16,17-24,2.94-4.26,6-4.19,9.3-.7,4.84,5,9.63,10.11,14.45,15.16Z"/><path class="cls-53" d="M1060.34,1153.05l21.07-2c-1.11,2-1.76,5-3.4,5.68a180.78,180.78,0,0,1-33,10.91Z"/><path class="cls-1" d="M795.21,18.31c.56.06,1.11.13,1.66.22L840.7,32.38c.06.44.13.88.19,1.32-6,.72-12,1.59-18,2.12-8,.69-16,1.91-23.87,1.43-8.4-.5-17.17-1.49-24.93-4.49-11.59-4.47-22.45-10.88-33.61-16.47-4.09-2-7.71-4.26-3.19-9.27Z"/><path class="cls-54" d="M907,202.67c5.79-18.61,11.57-37.22,18.27-58.77,8.89,12.31,16,21.95,22.8,31.85.93,1.36.76,5.22-.24,5.88-12.4,8.17-25.06,16-37.64,23.84Z"/><path class="cls-55" d="M973,34.61c3.62,1.47,7.44,2.6,10.84,4.48,14.26,7.9,28.46,15.91,42.52,24.16,2.58,1.51,5.74,4,6.35,6.56,3.86,16.08,7.08,32.32,10.51,48.51l-2.24,1c-2.51-4.72-5.92-9.19-7.39-14.23-6.18-21.19-20.85-35.26-38-47.69-8.41-6.11-16.16-13.14-24.21-19.76Z"/><path class="cls-4" d="M795.21,18.31,737.26,7c0-.78,0-1.55-.08-2.33L758.33,3c7.28,3,14.49,6.21,21.85,9,4.77,1.82,9.75,3.07,14.64,4.58Z"/><path class="cls-56" d="M1210.06,601.05c-3.24,4.35-6.83,8.48-9.65,13.09-3.8,6.22-7.39,5.84-11.89.88-8.14-9-16.09-18.17-24.86-26.49a33,33,0,0,0-14.65-8.09c-16.8-3.76-33.75-7.16-50.82-9.29-8.91-1.11-18.19.73-29.26,1.35l20.22,20.94-46.28-25.9c13.23-16.6,24.73-32.67,44-40.16,2.89-1.12,7.5.68,10.73,2.29,7.71,3.85,14.94,8.66,22.63,12.54,3.45,1.74,7.54,2.17,11.35,3.2.31-3.69,1.19-7.43.84-11-1.39-14.3-3.18-28.55-4.82-42.82,13.47,13.83,27,27.58,40.29,41.6,2,2.13,2.71,5.53,4,8.35-7.41-6.12-11.47-16.94-23.63-17.46,9.81,36.44,30.52,61.82,53.06,64-3-4.63-5.62-8.54-8.12-12.51q-10.7-17-21.32-34.08l20.9,27.8,9.6,12.8,6.33,13.23Z"/><path class="cls-6" d="M1208.71,595.28l-6.33-13.23q-15.75-26-31.52-51.95c-2.8-4.58-5.81-9-8.72-13.53,9.62,12.23,20.06,23.93,28.67,36.85,10.62,15.92,21,32.24,29.09,49.51,7.39,15.78,12.77,32.77,16.91,49.74,8.7,35.64,16,71.62,23.88,107.47.81,3.67,1.59,7.35,4.4,11.32q2.29-7.31,4.61-14.6c-1.25,26.71-2.74,53.42-3.57,80.14-.21,6.86,1.75,13.78,2.56,20.69a57.91,57.91,0,0,1,0,6.72l-2.62.48q-7.09-16.32-14.2-32.63c-1.78-4.11-3.08-8.51-5.36-12.31-10.72-17.9-13.5-36.18-3.58-55.35,4.62-16.52,8-33.09,1.93-50-8.9-35.07-17.58-70.2-27-105.15C1216.56,604.26,1211.87,600,1208.71,595.28Z"/><path class="cls-57" d="M1219.9,745.33c-12.39-23.05-24.89-46.05-37.11-69.2-3.87-7.34-7-15.09-10.46-22.65l3.79-2.63c7.16,7.25,14.34,14.47,21.44,21.77,1.32,1.36,2,3.53,3.48,4.53,24,16.05,26,41.46,28.55,66.62.36,3.4.87,6.8,1.51,11.68l-7.44-4.34Z"/><path class="cls-58" d="M1244.9,714.57c6.1,16.94,2.69,33.51-1.93,50-1.06-1.14-3-2.22-3-3.43-1.21-18.17-2.18-36.36-3.2-54.55l2.31-.37Z"/><path class="cls-4" d="M794.82,16.58c-4.89-1.51-9.87-2.76-14.64-4.58-7.36-2.8-14.57-6-21.85-9C772,2.36,785.67,1.7,795.08,14.56,795,15.23,794.91,15.91,794.82,16.58Z"/><path class="cls-59" d="M1250.54,437.87c-14.33-3.26-15.15-4.23-15.2-18.41,0-8,0-16,.05-24,1.1,1.93,1.74,4.48,3.38,5.67C1251.77,410.54,1251.58,424,1250.54,437.87Z"/><path class="cls-59" d="M1235.37,387.69q-5-22-10-44.09C1242.33,352.35,1241.94,372,1235.37,387.69Z"/><path class="cls-1" d="M550.6,1864.67c-.18-.26-.31-.65-.57-.77-23.19-11.16-24.91-33.15-20.27-52.63,7.25-30.45,1.81-56-12.5-83.17-10.34-19.62-13.53-43.06-19.46-64.92-2.06-7.6,5-8.51,9.74-10.62,5.79-2.58,9.8-.21,12.74,4.93,10.16,17.76,20.4,35.49,30.54,53.27,3.64,6.38,6.49,13.32,10.77,19.23,10.56,14.56,9.34,30.62,7.23,47-3.35,26-6.83,51.91-10.07,77.88-.67,5.36-2.3,9.3-8.33,9.82Z"/><path class="cls-60" d="M637.51,1267.86,692.57,1338l-3.29,3.34c-12.17-9.25-30-9.79-36.52-28-5.35-14.87-12.48-29.09-18.83-43.6Z"/><path class="cls-38" d="M789.19,1481.88l-20.28-44.8,1.85-1.7c8.13,7.16,18.39,13.06,23.64,21.93,3.47,5.86-.24,16-.73,24.2Z"/><path class="cls-61" d="M481.67,1017.94q-5.94-26.9-11.87-53.78C489,978.71,482,999,481.67,1017.94Z"/><path class="cls-62" d="M860.33,476.18c-21.05,17.08-42.22,34-63,51.43-2.36,2-3.42,6.7-3.19,10,.1,1.47,4.8,3.45,7.59,3.8,31.66,4,63.37,7.57,95,11.51,2.81.35,5.41,2.4,8.11,3.66-1.42,2.37-2.83,4.74-4.26,7.1a2.32,2.32,0,0,1-.68.68c-29.28,19.08-31,51-37.06,80.69-.82,4,1.5,9.47,4,13.16,7,10.34,14.49,20.32,22.34,30,4.9,6.06,5.47,9.76-1.24,15.65-16.27,14.28-33.12,27.19-54.25,33.23-7.93,2.26-10.34,7.33-10,15.07.38,9.26,0,18.55,0,27.83-10.39-10.82-16.52-22.26-9-37.78,8.05-16.65,6.65-34.83,2.83-51.86-4.77-21.29,4.79-37.34,13.14-55.13,9.73-20.73,16.39-42.9,24.31-64.48.26-.72-.35-1.76-.87-4-12.52,4.47-24.69,8.93-36.93,13.15-5.92,2-12.92,6.84-14.21-6.55L753.6,603.69,752,602.23c3.1-5.29,5.64-11,9.41-15.8,9.64-12.18,14.38-26.22,17.3-41.14.92-4.71,2.77-9.27,3.34-14,2-16.49,7.74-28.79,27.48-27.69a11.23,11.23,0,0,0,7.09-2.58c13.42-11.3,26.64-22.85,39.92-34.32l6.3-5.91c41,1,81.71-.61,122.28-7.09,10.29-1.64,21.87-3.66,31,5.06h-13.37c6.71,7.86,12.18,15.06,18.5,21.41,5.31,5.34,7.09,10.76,5.22,18.1-3.05,12-5.44,24.1-8.51,38-1.82-2.75-2.82-3.65-3.06-4.71-4.52-19.77-20.18-31.93-31.62-47-9.85-13-23.17-15.32-37.86-16.05-22.93-1.13-45.86-3.48-68,5.64-2.71,1.11-6.27.17-9.44.18Z"/><path class="cls-63" d="M1011.57,1652.51l-32.05-9.21c-5-2-9.84-4.46-15-5.91-18.77-5.31-23.59-13.41-18.4-31.73,1-3.37,2-6.72,2.82-10.12,1.51-6.24,4.76-8.18,11.17-6,9,3.11,18.32,5.39,27.47,8.1,5.91,1.75,9.47.45,9-6.52q.95-10.53,1.91-21.06c.72-4.65,1.69-9.27,2.11-13.95.59-6.65-1.1-14.2,1.49-19.84,7.82-17,17.24-33.36,26.1-49.92.13-.25,1.15,0,2.07,0a533.29,533.29,0,0,1,6.71,109.36,13.82,13.82,0,0,1-1.11,4.62c-4.8,11.57-9.71,23.1-14.54,34.66a43.89,43.89,0,0,0-1.35,4.58Q1015.78,1646.05,1011.57,1652.51Z"/><path class="cls-64" d="M1020,1639.57a43.89,43.89,0,0,1,1.35-4.58c4.83-11.56,9.74-23.09,14.54-34.66a13.82,13.82,0,0,0,1.11-4.62,533.29,533.29,0,0,0-6.71-109.36c-.92,0-1.94-.22-2.07,0-8.86,16.56-18.28,32.87-26.1,49.92-2.59,5.64-.9,13.19-1.49,19.84-.42,4.68-1.39,9.3-2.11,13.95q.27-22,.53-44c9-18.18,18.08-36.36,27.58-55.49,8.12,7.55,12.65,14.81,12.59,24.92q-.29,46,.15,92c.08,9.54,1,19.09,1.71,28.62.45,6.18-2.12,9.94-7.65,12.93C1028.49,1631.8,1024.43,1636,1020,1639.57Z"/><path class="cls-65" d="M996.91,1508.71l2,.06q-1,8.61-2,17.22c-5.44,15.25-11.12,30.43-16.22,45.79-2.8,8.43-6.86,14.84-16.57,15.64-5.26,0-10.54-.3-15.78,0-4.36.28-8.67,1.27-13,1.94,14.31-12.66,28.89-25,42.78-38.13a47.24,47.24,0,0,0,10.68-16C992.26,1526.72,994.26,1517.58,996.91,1508.71Z"/><path class="cls-22" d="M964.05,1587.42c9.71-.8,13.77-7.21,16.57-15.64,5.1-15.36,10.78-30.54,16.22-45.79l2.19.11q-.25,22-.53,44-1,10.53-1.91,21.06Z"/><path class="cls-65" d="M998.83,1508.75q5.86-19.23,11.72-38.47Q1004.7,1489.53,998.83,1508.75Z"/><path class="cls-51" d="M964.05,1587.42l32.54,3.73c.48,7-3.08,8.27-9,6.52-9.15-2.71-18.46-5-27.47-8.1-6.41-2.21-9.66-.27-11.17,6-.82,3.4-1.87,6.75-2.82,10.12-5.19,18.32-.37,26.42,18.4,31.73,5.14,1.45,10,3.92,15,5.91-17.54-1.43-33.11-8.49-47.75-17.57-2.37-1.47-3.5-6.07-3.85-9.36-.38-3.67.8-7.5,1.29-11.26L935,1613l2.71,0q1.79-7.79,3.58-15.57c-5.13-.41-10.26-.9-15.4-1.18-.82,0-1.69.79-2.53,1.21-.4-1.93-.79-3.87-1.19-5.81l13.07-2.23c4.32-.67,8.63-1.66,13-1.94C953.51,1587.12,958.79,1587.4,964.05,1587.42Z"/><path class="cls-66" d="M923.4,1597.43c.84-.42,1.71-1.26,2.53-1.21,5.14.28,10.27.77,15.4,1.18q-1.79,7.78-3.58,15.57l-2.71,0-5.83-7.89-3.42-2.31Z"/><path class="cls-2" d="M1010,1085.45l-3.49.32c-1.81,11.51-3.86,23-5.1,34.58-.16,1.43,3.7,4.05,6.12,4.84,3.23,1,6.87.86,10.34,1.2l13.45,1.73,23.63,5.48-4.27,4c-6.81,1.74-13.7,3.24-20.42,5.26a312.76,312.76,0,0,1-133.65,10.27,67.72,67.72,0,0,1-7.07-1.9c3.6-8.36,7-16.11,10.3-23.92,13.1-31.38,13.08-31.67,46.84-31.83,8.48,0,13.73-2.94,17.82-10.11,3-5.28,2.45-8.17-3.42-10-11.62-3.59-23.12-7.62-34.83-10.87-8.57-2.38-11-6.75-8.85-15.54,4-16.46,6.9-33.17,10.27-49.77h0c5.24-1.09,10.68-3.7,15.67-3,35.58,4.88,70.61,11.85,101.46,31.91-2,11.65-3.64,23.37-6.12,34.91-.53,2.45-3.66,5-6.2,6.2a35.55,35.55,0,0,1-11.12,2.77C1013.11,1072.91,1009.36,1077.24,1010,1085.45Zm16.42-58.68c-13.14-1.67-23.47-3.07-33.82-4.25-7.28-.84-14.58-1.48-21.88-2-7-.5-17.41,7.84-16.68,15,.32,3.07,6.34,6.61,10.44,8,12,4.23,24.32,7.74,36.65,11,2.89.76,8,.56,9.25-1.21C1015.83,1045.69,1020.24,1037.27,1026.42,1026.77Zm-24,117.43,1-2.2c-7-5.83-13.85-11.77-21-17.38-1.24-1-4.09-1.42-5.32-.67-9.58,5.88-18.94,12.11-28.37,18.22.39.68.79,1.36,1.19,2Z"/><path class="cls-67" d="M933.58,866.36q.82.07,1.65.21l2,1.82c5,3.39,5.74,7.87,3.9,13.4-2.31,7-4.16,14.1-6.29,21.13-11.54,38-28.35,73.13-57.42,101.16-20.07,19.34-13.73,22.31-35.2-1.71-14.74-16.5-30.9-30.23-49.86-41.19-7.42-4.29-15.72-8.36-21-14.7-9.18-11-16.43-23.56-24.15-35.7-.73-1.14,1-3.85,1.6-5.83l1.88.13c1.16,1.09,2.15,2.5,3.51,3.23,31.3,16.75,62.6,33.49,94,50,2.58,1.36,6.24,1.51,9.23,1.09,13.93-2,27.81-4.32,41.68-6.74,1.87-.32,3.54-1.82,6.68-3.53l-34-23c6.84-5.05,11.78-9.09,17.1-12.54,4.87-3.15,5.48-6.72,4.06-12.21-3.34-12.93-6.05-26-8.53-39.17-.66-3.51.46-7.35.76-11,3.59.39,7.4.14,10.73,1.29C908.54,856.83,921,861.68,933.58,866.36Z"/><path class="cls-9" d="M748.8,905c-.59,2-2.33,4.69-1.6,5.83,7.72,12.14,15,24.73,24.15,35.7,5.3,6.34,13.6,10.41,21,14.7,19,11,35.12,24.69,49.86,41.19,21.47,24,15.13,21,35.2,1.71,29.07-28,45.88-63.13,57.42-101.16,2.13-7,4-14.16,6.29-21.13,1.84-5.53,1.1-10-3.9-13.4,13.69,2.94,14.56,4.36,15.48,18.43.86,13.06,3.44,26.09,3.31,39.12-.06,6.69-2.73,14.73-7,19.78-24.65,29-45.93,59.91-59.68,95.57-3.59,9.32-8.41,10-16.84,5.49-24.55-13.16-50.27-24.31-73.94-38.85-11.77-7.23-19.72-20.49-30-30.4-19.43-18.72-27.63-43.39-36.86-67.57-.54-1.42-.5-3.06-.79-5C737.14,902.26,742.89,899.58,748.8,905Z"/><path class="cls-9" d="M933.58,866.36c-12.55-4.68-25-9.53-37.68-13.92-3.33-1.15-7.14-.9-10.73-1.29-.3,3.69-1.42,7.53-.76,11,2.48,13.13,5.19,26.24,8.53,39.17,1.42,5.49.81,9.06-4.06,12.21-5.32,3.45-10.26,7.49-17.1,12.54l34,23c-3.14,1.71-4.81,3.21-6.68,3.53-13.87,2.42-27.75,4.74-41.68,6.74-3,.42-6.65.27-9.23-1.09-31.44-16.48-62.74-33.22-94-50-1.36-.73-2.35-2.14-3.51-3.23,27.33,1.88,54.65,4.08,82,5.51,14.48.75,15.28-.82,11.49-14.39-6.8-24.39-6.79-24.38,13.2-40,1.76-1.37,3.44-2.85,5.06-4.38,13-12.34,12.74-12.25,5.31-28.54-2-4.43-2.4-9.61-3.54-14.45,6.81,1.39,13.7,2.44,20.37,4.31,3.1.87,5.75,3.32,8.6,5.05,2.19,18.65,7,35.49,28.39,40.76Z"/><path class="cls-35" d="M1044.78,1028.09c-30.85-20.06-65.88-27-101.46-31.91-5-.68-10.43,1.93-15.67,3,13.8-28.25,13.68-26.5,44.19-24.29,21.55,1.55,38,8.12,49.48,26.37,1,1.52,2.92,2.42,4.42,3.6l13.34,11.67Z"/><path class="cls-68" d="M743.1,608.85l-16.57-4.18c5.26-9.48,10.93-18.34,15.27-27.8,10.79-23.51,21.79-47,31-71.11,4.24-11.05,10.3-15.63,21.5-16.25s22.24-2.36,33.36-3.61C817.19,491,807.05,497,796.1,500.76c-8.89,3-13.37,8.2-16.59,16.55C767.68,547.94,755.28,578.36,743.1,608.85Z"/><path class="cls-65" d="M921.56,859c-21.41-5.27-26.2-22.11-28.39-40.76.64.06,1.28.09,1.91.19,24.51,3.87,24.44,3.87,24.92,28.28C920.08,850.8,921,854.88,921.56,859Z"/><path class="cls-69" d="M955.81,641.29c-6,.59-8.44-2.17-9-8.23-2.12-22.25-4.62-44.46-7.13-66.67-1.06-9.38.23-11,9.49-9.58,12,1.92,24.08,3.75,35.83,6.76,3.35.86,7.46,5.3,8.2,8.75,4,18.76,7.08,37.73,10.58,56.61,1.06,5.76-1.19,8.38-6.9,8.83C983.17,638.84,969.49,640.1,955.81,641.29Z"/><path class="cls-70" d="M860.33,476.18l7.68-1.93c7.24,4.61,14.57,9.09,21.69,13.87,7.49,5,7.76,18.88-.49,20.74-18.26,4.13-37.15,5.45-55.78,7.92l-1.83-3.56Q846,494.71,860.33,476.18Z"/><path class="cls-71" d="M923.7,478.17c8.12,9.38,15.36,18.53,23.45,26.87,7.93,8.17,16.72,15.52,25.54,23.61C953.08,524.42,932.92,503.63,923.7,478.17Z"/><path class="cls-60" d="M1089.23,858.72c-9.6-5.09-19.51-9.7-28.61-15.55-2.86-1.84-5.55-7.42-4.91-10.61,2.7-13.45,6.59-26.67,10.28-39.91.55-2,2-4.68,3.7-5.21,10.58-3.39,21.3-8.65,32-8.77,17.1-.2,34.27,2.91,51.35,5.15,3.41.44,7.61,2.4,9.59,5,9.75,13,18.79,26.63,28.28,39.88,3.56,5,2.65,8-2.13,11.87-23.28,18.94-51.89,22-79.76,26.93-4.29.75-9.4-3.17-14.13-4.93L1145,848.2l.07-2.59c-13.77-5.69-27.38-11.86-41.41-16.8-5-1.77-11.13-1-16.66-.55-5.94.53-7.09,4.4-5.1,9.71C1084.45,844.84,1086.79,851.8,1089.23,858.72ZM1077.68,799l57.79,5.74c-9.14-7.15-19.18-11.71-28.71-17.13-6.85-3.9-12.51-3.46-18.14,1.76C1085.86,792,1083,794.38,1077.68,799Zm23.21,11.35c17.26,9.81,34.68,18.77,56.22,10.25Z"/><path class="cls-8" d="M1089.23,858.72c-2.44-6.92-4.78-13.88-7.36-20.75-2-5.31-.84-9.18,5.1-9.71,5.53-.49,11.64-1.22,16.66.55,14,4.94,27.64,11.11,41.41,16.8l-.07,2.59-50.06,14.42Z"/><path class="cls-36" d="M1017.87,1126.39c-3.47-.34-7.11-.15-10.34-1.2-2.42-.79-6.28-3.41-6.12-4.84,1.24-11.58,3.29-23.07,5.1-34.58.65,10.14,1.78,20.29,1.78,30.43C1008.29,1123.29,1013.85,1123.8,1017.87,1126.39Z"/><path class="cls-46" d="M1171.88,541.45q10.65,17,21.32,34.08c2.5,4,5.11,7.88,8.12,12.51-22.54-2.18-43.25-27.56-53.06-64,12.16.52,16.22,11.34,23.63,17.46Z"/><path class="cls-72" d="M1026.42,1026.77c-6.18,10.5-10.59,18.92-16,26.59-1.26,1.77-6.36,2-9.25,1.21-12.33-3.25-24.63-6.76-36.65-11-4.1-1.43-10.12-5-10.44-8-.73-7.17,9.71-15.51,16.68-15,7.3.51,14.6,1.15,21.88,2C1003,1023.7,1013.28,1025.1,1026.42,1026.77Z"/><path class="cls-73" d="M1002.4,1144.2H949.86c-.4-.67-.8-1.35-1.19-2,9.43-6.11,18.79-12.34,28.37-18.22,1.23-.75,4.08-.31,5.32.67,7.15,5.61,14,11.55,21,17.38Z"/><path class="cls-74" d="M1077.68,799c5.29-4.65,8.18-7.07,10.94-9.63,5.63-5.22,11.29-5.66,18.14-1.76,9.53,5.42,19.57,10,28.71,17.13Z"/><path class="cls-75" d="M1100.89,810.38l56.22,10.25C1135.57,829.15,1118.15,820.19,1100.89,810.38Z"/></svg>