<svg id="Layer_1" data-name="Layer 1" xmlns="http://www.w3.org/2000/svg" viewBox="0 0 1500 2067.75"><path d="M575.93,128.29l0,0v-.06Z"/><path d="M94.69,1488.81c-6.15,8-12.61,15.79-18.93,23.67l42.4-32.35C108.52,1478.12,100.76,1480.91,94.69,1488.81Z"/><path d="M1490.56,1887.87c-2.27-2.94-3.45-6.72-5.13-10.11-.52-4.09-.55-8.31-1.64-12.25-8.38-30.43-16.61-60.93-25.81-91.12-1.81-6-7-11.28-11.68-15.9-6.7-6.66-10.9-13.79-11.09-23.54a18.26,18.26,0,0,0-4.67-11c-12.79-13.71-16.47-30.83-17.73-48.37-.65-9-3.14-15.89-9.46-22-2.38-2.32-4.93-5.88-5-8.92-.19-11.16-6.17-19.4-11.23-28.68-7.72-14.15-12.54-29.85-19.39-44.52-3.3-7.06-8.6-13.17-12.7-19.89-2.37-3.89-4.14-8.14-6.19-12.23-.07-.57-.14-1.15-.19-1.73-14.33-15.85-28.59-31.76-43-47.51-6.74-7.36-14.93-11-25.29-11.63-16.64-1-26.19-14.21-33.39-26.29a420.31,420.31,0,0,0-69-86.79c-2.8-2.73-4.12-7-6.13-10.5l-2-1.94-7.56-13.2c3.12-5,7.22-9.61,9.15-15,3.19-8.93,5.2-18.31,7.33-27.59,2.45-10.73,4.48-21.57,6.7-32.36h0c1.08-8.14,2.25-16.26,3.23-24.4,1.43-11.81,2.72-23.62,4.07-35.44l2-11.63c8.41-15.72,4.74-32.93,6.34-49.51.45-4.74,3.48-9.24,5.33-13.84.59-6-.54-12.91,2.15-17.68,5-8.89,5.74-17.87,5.94-27.55.1-5.13,2.3-10.26,3.8-15.31,3.68-12.4,8.08-24.62,11.13-37.16,4.64-19.09,8.49-38.38,12.46-57.63,1.34-6.48,2-13.1,3-19.65q6-30.57,11.92-61.14l-.74-.63.74.63,14.69-27.43v-11.3c-1.27-3.47-3.57-6.93-3.65-10.43q-.54-25.21,0-50.44c0-1.1.11-2.21.16-3.32.51-3,2.41-6.07,3.52-9.11.64-9.19-1.09-19.47,2.5-27.31,4.5-9.84,5.77-19.28,5.73-29.54-.07-19.83-.9-39.72.43-59.45,1.14-16.89-2.72-30.78-15.85-41.71,0,2.64-.07,5.29-.1,7.93,7.35,6.37,11.94,13.58,13.29,22.63-1.35-9-5.94-16.25-13.29-22.63,0-2.64.07-5.29.1-7.93-1.36-19.38-2.65-38.76-4.16-58.13-.19-2.45-.84-5.61-2.49-7.1-9.88-8.89-10-20.52-8.62-32,2-16.42-9-26.14-17.41-37.36,0-3.56.07-7.13.11-10.69,12.21-10,24.11-20,21.29-38.59-1-6.26.67-13-.58-19.13s-3.48-12.95-7.36-17.79c-5-6.21-7.12-11.19-5.41-19.7,2.92-14.57,5.23-30-8.81-41.69-2.82-2.35-4-7.1-5.1-11-4.74-17-2.3-36.82-19.13-49.15-2.08-14.79-3.41-29.72-6.5-44.29-2.1-9.87-7.58-19-9.89-28.83-2.89-12.25-7.8-22.54-17.49-31-8.66-7.55-17.12-15.72-24-24.89-10.14-13.59-20.73-27-19.46-46.2a386,386,0,0,0-.64-53.77c-.5-6.67-3.71-15.47-8.71-19-13-9.13-25.69-19.89-44.07-17.17-12.07,1.78-20.16,6.88-23.35,19-3.28,12.41-12,19.25-24.8,19.52-8.11-4.51-12-15.59-23.41-15l-15-6.11c-3.18-2.62-6.47-5.13-9.53-7.88-14-12.53-25.93-13-41.18-2.22a21.67,21.67,0,0,1-12.31,4c-8.2-.29-16.35-2.05-24.51-3.3-17-2.59-33.85-6.13-50.91-7.6-15.27-1.32-30.73-.38-46.1-.45l-9.79-1.75c-.08.67-.17,1.35-.26,2l.39,1.73-.39-1.73c-1.22-.38-2.45-.74-3.68-1.1,1.23.36,2.46.72,3.68,1.1.09-.67.18-1.35.26-2C785.67,1.7,772,2.36,758.33,3l-21.15,1.7L733.39,7c-1.83.85-3.65,1.82-5.47,2.82,1.82-1,3.64-2,5.47-2.82l-8,1.61c-4.58,2-9.22,5.8-13.72,5.65-13.24-.45-24.76,3.38-35.58,10.4C664,34.43,650.82,43.23,640,54.32S621.12,79.05,611.25,91.1c-6.79,8.29-14.53,15.81-21.93,23.59-4.38,4.61-8.91,9.06-13.37,13.58,0,8-.66,16,.12,23.93,1.2,12.2-3.13,21.82-11.64,30-1.74,3.38-2.86,7.32-5.33,10-10.1,11.12-21,21.57-30.84,32.86-5.38,6.15-9.4,13.49-14,20.3-1,3.24-1.4,7-3.24,9.66-7.25,10.58-7.16,12.69,2.59,21.15l6.48,5.64c12.88,3.13,24,9.14,32.26,19.78q0,5.29,0,10.61c-12.46,14.93-29,27.39-30.19,49.21,0,.28-.29.57-.49.82-6.44,7.76-12.57,15.8-19.4,23.19-7.23,7.81-17.48,12.89-18.79,25.44-1.81,17.39-5.33,34.61-6.72,52-1.62,20.32-3.84,39.71-11.35,59.49-6.61,17.4-.42,37.73,6.38,55.94,1.38,40.07-2.82,79.07-21.6,115.39-1.22,2.36-1.18,5.65-1,8.45,1,12.63,2.74,25.23,3.33,37.88,1.58,34,3,68,3.8,102.09.2,8.72-2.29,17.5-3.55,26.26l-.29-.17-4,15h0c-2.6,2.83-6.68,5.29-7.49,8.57-1.62,6.51-1.45,13.48-2,20.25-.74,2.11-1,4.55-2.29,6.28-14.94,20.48-9.62,42.45-5.23,64.49,2.86,14.37,5.81,28.8,7.36,43.34.9,8.48,4.21,13.52,11.72,16.9,2.57,1.16,6,4.19,6.08,6.46.42,13.57,10.3,20.66,18.51,29,2.24,2.27,4.3,4.71,6.44,7.08l5.4.36,7.94-.06c.05-.75.09-1.5.14-2.25-3.89-3.48-8.18-6.65-12-10.15,3.85,3.5,8.14,6.67,12,10.15,11.54,8.72,23.84,16.68,35.22,25.57-11.38-8.89-23.68-16.85-35.22-25.57-.05.75-.09,1.5-.14,2.25,2.23,2.72,4.26,5.64,6.73,8.12,16.77,16.89,33.32,34,50.63,50.35,7.53,7.09,14.71,13.93,13.51,24.95-1,9.37-3.54,18.57-5.4,27.84l-11.71,11.18h0c-21.35.7-42.84,3.21-64,1.56-18-1.4-30.58,9.27-44.7,15.65-8.51,3.84-16.2,8-25.61,8.25-7.1,7.16-14,14.54-21.38,21.42-5.26,4.92-6.83,10.37-4.59,17.07,2.72,3.45,4.88,7.63,8.25,10.23,11.94,9.24,16.46,21,14,35.75l2-11.17c.88-4.91,2.27-9.81,2.94-14.72-.67,4.91-2.06,9.81-2.94,14.72l-2,11.17-2.12,5.82c-1.73,2.19-3.32,4.59-4.92,7,1.6-2.39,3.19-4.79,4.92-7-3.57,3.12-7.07,6.33-10.75,9.33-3.9,3.19-7.63,8.08-12,8.85-10,1.76-15.86,8.51-23,14.31-6.48,5.27-14.27,9-21.73,13-15.31,8.09-31.63,14.64-42.36,29.31-13.15,2.29-22.87,9.94-32.13,19.1-3.66,3.62-9.83,5.28-15.16,6.46-5.79,1.28-11.93,1-17.92,1.35-2.46,1.15-6.1,1.64-7.17,3.57-4.89,8.8-12.44,10.91-21.58,10.06l-17.28,5.81c-7.8,4.12-15.53,8.35-23.35,12.42,7.82-4.07,15.55-8.3,23.35-12.42-6.08-.09-12.24-.86-18.19-.08s-13.26,1.53-17.65,5.11c-9.35,7.62-17.2,17.06-25.66,25.76l-7.72,4.07-42.4,32.35c-1.89,2.84-5.51,5.76-5.38,8.5.66,14.19-7.33,24.13-17,31.77-11.08,8.77-10.26,21.51-14.06,32.54-4.6,13.36-10.71,25.37-21.55,34.37-15.64,13-14.14,30.29-13,47.65a4.28,4.28,0,0,0,1,2.65c14.68,14,29.32,28,44.23,41.8,3.64,3.35,8.21,5.7,12.34,8.5l20.95,15.54,48.68-.58c3.74,1.72,7.76,3,11.16,5.26,10.34,6.83,20.45,14,30.64,21.09h0c5.47,3,10.84,6.13,16.44,8.82,3.26,1.57,7,3.5,10.33,3.28,10.6-.68,19.46,2.17,26.54,10.18A59.23,59.23,0,0,1,234,1783a59.48,59.48,0,0,0-6.91.82c15.83-.55,28.83,5.06,38.8,17.52.93,1.16,2.66,1.67,4,2.49,18.87,1.56,37.76,3.06,56.62,4.75,4.06.36,8.06,1.42,12.08,2.16h0c1.23.34,2.48,1,3.68,1,23.1-1.77,40.2,9.27,55.07,25.41,5.41,5.87,11.42,11.2,16.87,17,5.13,5.51,11,7.85,18.68,7.78q48-.5,96,0c7.21.07,14.39,1.74,21.58,2.7,6.36,4.67,13.26,8.75,19,14.11,12.35,11.61,25.29,22.92,35.82,36.09,15.37,19.25,33.81,28,58.21,23.89,22.68-3.84,40.31,4.1,54.17,22.3,3.72,4.88,9.16,9.64,14.8,11.64,12.37,4.37,24.42,10.92,38.49,8.87,2.8-.41,6.56,1.07,8.88,2.92,9.71,7.74,20.79,8.28,32.53,8.41,6.27.07,14.67,1.36,18.38,5.46,13.16,14.62,29.66,17.39,47.67,17.32,19.2-.07,38.47-1,57.59.26,19.44,1.31,39.49,2,53.3,20.23,3.11,4.1,11,5.69,17,6.26,13.77,1.33,28.4-2.67,40.49,7.58,17.34,3.12,35.84,3.44,51.74,10,23.3,9.66,46.45,3.51,69.58,5.19,6.28-2.41,12.42-6.31,18.88-6.94,13.5-1.31,27.17-.9,40.77-1.2h0c11.83-10.86,23.54-21.86,35.55-32.51,3.68-3.26,8.19-5.58,12.32-8.33,4.08-.49,8.16-1.38,12.24-1.41,22-.14,44.11.66,66.09-.46,7.67-.4,16.64-3.55,22.39-8.5q30.76-26.47,59.48-55.29c8.79-8.84,17.83-14,30.24-13,13.31-.47,23-9.43,29.16-18.55S1498,1897.58,1490.56,1887.87Z"/></svg>