<?xml version="1.0" standalone="no"?>
<!DOCTYPE svg PUBLIC "-//W3C//DTD SVG 20010904//EN"
 "http://www.w3.org/TR/2001/REC-SVG-20010904/DTD/svg10.dtd">
<svg version="1.0" xmlns="http://www.w3.org/2000/svg"
 width="1280.000000pt" height="1279.000000pt" viewBox="0 0 1280.000000 1279.000000"
 preserveAspectRatio="xMidYMid meet">
<metadata>
Created by potrace 1.15, written by Peter Selinger 2001-2017
</metadata>
<g transform="translate(0.000000,1279.000000) scale(0.100000,-0.100000)"
fill="#FEF3C7" stroke="none">
<path d="M4886 11745 c-46 -16 -98 -52 -124 -85 -17 -22 -434 -756 -1258
-2211 -117 -207 -217 -394 -224 -415 -8 -29 -10 -1106 -8 -4044 l3 -4005 23
-44 c35 -64 104 -127 168 -150 l55 -21 2897 2 2897 3 51 27 c60 32 118 93 148
157 l21 46 3 3990 c2 3324 0 3997 -11 4035 -12 38 -264 488 -1344 2392 -98
174 -145 247 -175 272 -82 71 29 66 -1607 66 -1227 -1 -1483 -3 -1515 -15z
m1675 -1469 c93 -28 173 -78 244 -150 124 -125 170 -247 162 -426 -3 -82 -10
-120 -31 -174 -66 -173 -213 -304 -392 -351 -73 -19 -213 -19 -284 0 -204 54
-372 230 -416 434 -64 303 132 608 436 676 75 17 210 13 281 -9z"/>
</g>
</svg>
