<svg id="Layer_1" data-name="Layer 1" xmlns="http://www.w3.org/2000/svg" viewBox="0 0 425.2 425.2"><title>R2R Logo</title><path d="M212.6,13.09c110,0,199.5,89.5,199.5,199.51S322.61,412.1,212.6,412.1,13.09,322.61,13.09,212.6,102.59,13.09,212.6,13.09M212.6,0C95.18,0,0,95.18,0,212.6S95.18,425.2,212.6,425.2,425.2,330,425.2,212.6,330,0,212.6,0Z"/><path d="M150.26,51c1.16.12,2.33.27,3.49.34a8.62,8.62,0,0,1,3.78,1,85.4,85.4,0,0,1,11.32,6.88A47.4,47.4,0,0,1,185.6,82.36c.51,1.53.38,2-1.19,2.52-3.83,1.39-7.69,2.7-11.54,4-2.6.9-5.19,1.81-7.8,2.67-1.9.63-2.79.32-4-1.27-.84-1.07-1.7-2.12-2.51-3.21-3.18-4.3-7.54-6-12.75-5.92a18.78,18.78,0,0,0-13.47,5.47,38.93,38.93,0,0,0-3.5,4.09c-1.54,2.07-2.38,2.22-4.46.75q-7.57-5.34-15.14-10.73c-1.49-1.06-1.65-1.87-.77-3.46a44.16,44.16,0,0,1,15.44-16.47c4.89-3,9.71-6.16,15.28-7.87A80.84,80.84,0,0,1,148,51.19c.21,0,.41-.11.62-.17Z"/><path d="M194.08,127.53c-.12,1.29-.27,2.58-.35,3.87-.11,1.78-.09,1.77-1.8,2.36a22.83,22.83,0,0,1-8.26.84c-4.38-.14-8.77-.35-13.15-.55a2,2,0,0,1-2-2.11c-.14-3.46-.05-6.92.12-10.38,0-1,.8-1.17,1.57-1.29,4.39-.69,8.79-1.36,13.18-2.06,1.86-.29,3.71-.72,5.57-.93,2.23-.24,3.17.51,3.67,2.72.54,2.38.8,4.81,1.47,7.16Z"/><path d="M83.41,160.58c0-.3.13-.6.15-.9.12-1.94.34-2.2,2.25-2.57a3.1,3.1,0,0,1,2.09.15c1.55.86,3.24.72,4.89.82,4.84.3,9.69.54,14.54.8,1.48.08,2,.72,2,2.17-.1,2.35-.18,4.7-.26,7-.13,3.31-1.31,4.46-4.61,4.59q-8.85.34-17.69.78c-1,.05-1.4-.12-1.56-1.2-.45-3.12-1.06-6.21-1.61-9.31a3.16,3.16,0,0,0-.17-.52Z"/><path d="M131.09,318.66a64.88,64.88,0,0,1-14.42-2c-3.51-.86-6.37-3.1-9.25-5.18a32.62,32.62,0,0,1-8.24-8.73c-1-1.6-.94-2.12.72-3q8.79-4.59,17.62-9.12a3,3,0,0,1,3.25.16,19.55,19.55,0,0,1,1.74,1.24c3.71,3.17,8.07,3.78,12.72,3.25a12.88,12.88,0,0,0,4.31-1,7.67,7.67,0,0,0,3.11-2.7c1.41-2.07,2.93-2.54,5.26-1.58l13.55,5.54c1.6.65,3.21,1.29,4.8,2,1.41.59,1.67,1.21,1.13,2.61A14,14,0,0,1,162,307c-2.17,1.43-4.29,2.95-6.36,4.51-4.74,3.59-10.17,5.39-15.94,6.36A63.48,63.48,0,0,1,131.09,318.66Z"/><path d="M85.8,187.56c0-2.12.54-2.78,2.44-3.22,4.76-1.12,9.6-1.76,14.41-2.61,2-.35,4.08-.69,6.12-1,1.28-.2,2,.25,2.19,1.53q.77,5,1.4,10a2.1,2.1,0,0,1-1.36,2.22c-2.59,1.22-5.2,2.44-7.81,3.63-3.66,1.66-7.32,3.3-11,5a8.43,8.43,0,0,1-1.3.48c-1.74.51-3.08-.16-3.43-1.94-.4-2-.58-4.1-.84-6.15-.17-1.38-.31-2.77-.45-4.15S85.9,188.58,85.8,187.56Z"/><path d="M157.14,174.37c.1-.26.2-.62.35-1q2.14-4.53,4.31-9c.7-1.45,1.32-1.75,2.9-1.36,7.32,1.78,14.64,3.58,22,5.35.69.17.82.4.56,1.06q-3,7.73-6,15.48c-.23.59-.45.72-1.07.45-7.3-3.21-14.61-6.38-21.92-9.57A1.48,1.48,0,0,1,157.14,174.37Z"/><path d="M147.33,193.32a3.18,3.18,0,0,1,.44-1.32c1.88-3.27,3.76-6.54,5.61-9.83.31-.56.56-.64,1.13-.32q10.69,5.94,21.42,11.84c.51.28.65.51.34,1.06q-3.77,6.81-7.49,13.66c-.27.5-.49.59-1,.25q-9.74-6.78-19.5-13.55A2.23,2.23,0,0,1,147.33,193.32Z"/><path d="M188,160.24a77.5,77.5,0,0,1-19.1-3.43c-.89-.26-1.78-.52-2.65-.84a1.2,1.2,0,0,1-.87-1.67c1.45-3.76,1.82-7.75,2.47-11.68.11-.69.39-.82,1-.79q11.26.45,22.52.84c.89,0,1,.28.9,1.14q-1,7.44-1.91,14.9c-.24,1.94-.14,1.48-1.75,1.52Z"/><path d="M115.13,253.42v.47c0,2.28-.41,2.8-2.66,3q-9.31,1-18.63,1.89c-2.44.24-3.12-.43-3.17-2.87-.07-3.74-.17-7.48-.27-11.22-.05-1.67.6-2.4,2.28-2.46l19.83-.72c1.81-.07,2.43.53,2.44,2.33,0,3.19,0,6.37,0,9.55Z"/><path d="M187.71,108.84c-3.3,0-6.49.83-9.72,1.35-2.62.42-5.23.93-7.85,1.36-2.09.35-2.82-.2-3.19-2.29-.51-2.92-1-5.84-1.53-8.76-.22-1.28.08-1.82,1.36-2.25,3.71-1.25,7.45-2.45,11.17-3.68a46.62,46.62,0,0,1,7.84-2.21,2.49,2.49,0,0,1,3,2.07q1.16,6.15,2.21,12.32c.25,1.46-.29,2.06-1.8,2.09Z"/><path d="M146.53,242.29c-.29-2.61.43-3.36,3.11-3.58q8.18-.68,16.34-1.4c.48,0,.73.05.86.56,1.22,4.79,2.47,9.56,3.67,14.35.38,1.5-.27,2.15-2,2.1-2.81-.07-5.61-.18-8.42-.26-3.59-.11-7.17-.2-10.75-.29-2.24-.05-2.57-.37-2.63-2.59,0-1.48-.14-3-.17-4.44S146.53,243.78,146.53,242.29Z"/><path d="M93.81,111.8a10.71,10.71,0,0,1,4.94,1.44,12,12,0,0,0,4,1.43,25.17,25.17,0,0,1,10.16,4.75,2.06,2.06,0,0,1,.86,2.27c-.66,3.14-1.26,6.3-1.91,9.44-.32,1.57-1.3,2.07-2.81,1.5a1.28,1.28,0,0,1-.34-.14c-3-2.48-6.86-2.62-10.39-3.61-2.44-.69-4.92-1.2-7.35-1.9-2-.56-2.56-1.68-2.07-3.67.87-3.49,1.42-7.09,3-10.37A1.71,1.71,0,0,1,93.81,111.8Z"/><path d="M122.61,100a10.07,10.07,0,0,1-.42,1.17q-2.37,4.83-4.78,9.64c-.86,1.72-1.72,1.88-3.16.61a18.76,18.76,0,0,0-4.3-2.87c-3.29-1.58-6.55-3.22-9.82-4.83a9.69,9.69,0,0,1-1-.6C97,101.66,96.78,101,97.9,98.78c1.53-3,3.09-6,4.63-9.08.88-1.73,1.81-2,3.5-1q5.81,3.57,11.59,7.17c1.32.82,2.63,1.63,3.94,2.46A2,2,0,0,1,122.61,100Z"/><path d="M109.79,143.05c-.14,1.92-.3,4.35-.51,6.78-.13,1.39-.88,2.11-2.24,1.83-3.94-.8-8-.37-11.88-1-2.53-.41-5.08-.47-7.59-.93-2-.36-2.82-1.45-2.58-3.46.38-3,.76-6.06,1.21-9.09.39-2.57,2.12-3.69,4.55-2.77,5.44,2.08,11.12,3.3,16.69,4.91C109.51,139.93,109.88,140.39,109.79,143.05Z"/><path d="M116.14,267a20.59,20.59,0,0,1-.18,3c-.21,1.81-.74,2.53-2.48,2.85-3.59.66-7.18,1.27-10.77,1.9-2.49.43-5,.93-7.5,1.15-2.23.19-3.37-.6-3.91-2.78a31.16,31.16,0,0,1-.67-6.81c0-.95.74-1.15,1.45-1.26,1.8-.27,3.61-.49,5.42-.74,5.17-.71,10.34-1.4,15.51-2.14,2.24-.32,2.82.08,3,2.29C116,265.36,116.09,266.19,116.14,267Z"/><path d="M163.44,260.05c2.8,0,4.72.05,6.49.95a2.89,2.89,0,0,1,1.73,2.63c.09,2,.29,4,.46,6a1.85,1.85,0,0,1-2,2.18c-6.3-.2-12.59-.39-18.87-1-2.57-.24-3.71-1.46-3.93-4.06a17,17,0,0,1,.25-4.15,1.49,1.49,0,0,1,1.53-1.41c3.08-.25,6.15-.53,9.23-.75C160.32,260.34,162.31,260,163.44,260.05Z"/><path d="M171.58,281.21a96.25,96.25,0,0,1-.9,9.87c-.09.87-.59.57-1,.42l-18-6c-.93-.31-1.87-.62-2.79-1a2.19,2.19,0,0,1-1.64-2.47,15.93,15.93,0,0,1,.42-3.58c.37-1.47,1-2,2.52-1.84q9.48.73,18.93,1.54C171.15,278.31,171.59,278.9,171.58,281.21Z"/><path d="M114,162.69c0-.77,0-1.55,0-2.32-.1-2.65.7-4,3.13-5.09s4.66-2,7-2.94c2.88-1.2,5.77-2.37,8.63-3.61.77-.33,1-.11,1.16.62.54,2.22,0,4.43-.06,6.64a1.57,1.57,0,0,0-.05.37c.39,3.16-1.28,4.88-4,6.13s-5.07,2.7-7.59,4.07a15.47,15.47,0,0,1-5.67,1.9c-1.59.18-2.43-.47-2.5-2.06,0-1.24,0-2.47,0-3.71Z"/><path d="M117.4,282.43c0,2.21-.72,3.52-2.35,4.08-5.88,2-11.19,5.18-16.58,8.2-2,1.1-2,1.12-3.3-.78-1.43-2.05-1.83-4.5-2.46-6.84-.91-3.4-.49-4.06,3-4.78q9-1.89,18-3.69c2.25-.45,3.16.18,3.59,2.42C117.31,281.58,117.36,282.14,117.4,282.43Z"/><path d="M154.44,165.34a12.31,12.31,0,0,1-2.37,7.47c-.7,1-1.5,1-2.5.09-1.34-1.28-2.61-2.64-3.9-4q-2.94-3-5.87-6.06a4.72,4.72,0,0,1-1.48-3.94,34.53,34.53,0,0,1,1.34-7c.55-1.68,1.31-1.9,2.74-.82a35.56,35.56,0,0,1,2.87,2.89c2.09,2,4.21,3.92,6.31,5.88C153.4,161.6,154.49,163.64,154.44,165.34Z"/><path d="M115.83,182A3.71,3.71,0,0,1,118,178.1c3.55-2.13,7-4.37,10.55-6.55.69-.43,1.42-1.09,2.29-.58s.78,1.49.71,2.35c-.22,2.46-.26,4.93-.69,7.37a3,3,0,0,1-1.4,2.18c-3.38,2.17-6.74,4.37-10.13,6.53-1.68,1.07-2.66.56-2.85-1.44S116,184,115.83,182Z"/><path d="M135.43,181.56c.48-2.67.91-5.35,1.45-8,.22-1.09,1-1.31,2.07-.58,1.76,1.26,3.47,2.58,5.2,3.88,1,.75,2,1.48,2.95,2.25a1.84,1.84,0,0,1,.55,2.69c-1.55,2.59-3.17,5.15-4.75,7.73-.28.46-.46.33-.75,0l-6-6.2A2.61,2.61,0,0,1,135.43,181.56Z"/><path d="M160.29,106.28c0,.89-.47,1.23-1.33,1.08a2.94,2.94,0,0,1-2-1.5,29.86,29.86,0,0,0-7.16-8.31,6.53,6.53,0,0,1-1.71-2.62,1.17,1.17,0,0,1,0-.9c.42-1.16.8-2.34,1.28-3.47.7-1.65,1.67-1.88,3.14-.81a17.42,17.42,0,0,1,6.37,9.31A45.26,45.26,0,0,1,160.29,106.28Z"/><path d="M143.41,88.76c-.12,1.66-.25,3.32-.37,5a1.92,1.92,0,0,1-.95,1.62c-4.07,2.13-8,4.52-12.28,6.26-1.11.45-1.22.35-.95-.8A13.42,13.42,0,0,1,131,96.67,28.89,28.89,0,0,1,139.7,88a5.49,5.49,0,0,1,2.7-.84c.87-.06,1.32.14,1,1.1A3.57,3.57,0,0,0,143.41,88.76Z"/><path d="M142.53,251c0,4.42-1.72,7-5.27,8l-.35.09c-2.31.47-2.4.4-2.61-1.88a15.53,15.53,0,0,1-.28-3.86c.54-3.29,2.63-5.28,5.51-6.56,1.26-.55,2.36.13,2.72,1.54A9.65,9.65,0,0,1,142.53,251Z"/><path d="M128.05,254.86a20.51,20.51,0,0,1-.23,3.32,1.76,1.76,0,0,1-2.24,1.52c-2-.53-3.57-1.91-5.3-3-.25-.15-.27-.48-.25-.77.19-2.52.39-5.05.55-7.57.06-.81.35-.81,1-.47,1.65.89,3.32,1.78,5,2.57a2.33,2.33,0,0,1,1.47,2.5C128,253.62,128.05,254.24,128.05,254.86Z"/><path d="M135,270.63a4.47,4.47,0,0,1,1.43-3.58c.91-.88,1.83-1.75,2.8-2.56a1.93,1.93,0,0,1,3,.34,4.63,4.63,0,0,1-.19,5.88,9.35,9.35,0,0,1-5.11,2.79c-1.13.23-1.6-.14-1.76-1.3C135.09,271.68,135.05,271.15,135,270.63Z"/><path d="M129.31,286.23a9.58,9.58,0,0,1-1.08,3.7c-.14.31-.32.3-.6.2-2-.72-3.47-1.81-3.82-4.08-.23-1.46-.65-2.89-1-4.34a5.23,5.23,0,0,1-.12-1.19c.06-1.16.78-1.67,1.73-1,2.12,1.39,4.17,2.92,4.73,5.66,0,.18.08.36.1.54S129.3,286,129.31,286.23Z"/><path d="M135.74,285.3a6.32,6.32,0,0,1,5-5.9,1.26,1.26,0,0,1,1.54.83,3.57,3.57,0,0,1,.14,2.78,10.11,10.11,0,0,1-4.8,6c-.65.33-.92.23-1.06-.47C136.31,287.34,135.84,286.22,135.74,285.3Z"/><path d="M121.44,268.42c0-2.49.65-2.91,2.91-2a20.33,20.33,0,0,1,2.58,1.23,4.14,4.14,0,0,1,1.8,4.9,1.9,1.9,0,0,1-1.94,1.42C124.22,274,121.4,271,121.44,268.42Z"/><path d="M290,106c-1.17,0-2.35-.06-3.51-.15a8.69,8.69,0,0,0-3.87.45,84.94,84.94,0,0,0-12.15,5.27,47.48,47.48,0,0,0-19.75,20.66c-.71,1.45-.64,1.89.84,2.66,3.61,1.9,7.25,3.72,10.88,5.57,2.45,1.25,4.9,2.51,7.36,3.72,1.8.88,2.72.69,4.17-.71,1-1,2-1.88,2.92-2.85,3.73-3.82,8.3-4.94,13.44-4.13a18.74,18.74,0,0,1,12.6,7.26,38.22,38.22,0,0,1,2.91,4.52c1.25,2.26,2.06,2.53,4.31,1.36q8.24-4.28,16.46-8.58c1.62-.84,1.9-1.63,1.23-3.32a44.09,44.09,0,0,0-13.05-18.42c-4.43-3.66-8.78-7.42-14.07-9.88a81.81,81.81,0,0,0-8.48-3,5,5,0,0,1-.59-.25Z"/><path d="M236.21,175.85c-.06,1.29-.08,2.59-.18,3.88-.13,1.78-.15,1.77,1.46,2.59a22.58,22.58,0,0,0,8.07,2c4.36.46,8.74.85,13.11,1.25A2,2,0,0,0,261,183.7c.6-3.41,1-6.85,1.28-10.31.09-.94-.63-1.26-1.37-1.48l-12.78-3.83c-1.81-.55-3.57-1.23-5.4-1.69-2.17-.54-3.2.08-4,2.2-.86,2.28-1.44,4.66-2.43,6.89Z"/><path d="M341.36,223.65c0-.3-.05-.61,0-.92.15-1.93,0-2.22-1.88-2.84a3,3,0,0,0-2.09-.14c-1.65.64-3.31.28-5,.15-4.84-.36-9.67-.79-14.51-1.19-1.47-.12-2.12.44-2.26,1.89-.22,2.33-.46,4.67-.69,7-.33,3.3.68,4.6,3.93,5.18q8.72,1.54,17.43,3.18c.93.17,1.4.07,1.7-1,.88-3,1.9-6,2.86-9,.06-.17.16-.32.24-.49Z"/><path d="M272.61,373.77a64.45,64.45,0,0,0,14.56,0c3.6-.37,6.73-2.2,9.87-3.87a32.69,32.69,0,0,0,9.35-7.52c1.25-1.45,1.22-2-.31-3.07q-8.08-5.75-16.21-11.43a3,3,0,0,0-3.24-.28,17.82,17.82,0,0,0-1.89,1c-4.11,2.64-8.51,2.64-13.05,1.49a13.2,13.2,0,0,1-4.13-1.61,7.76,7.76,0,0,1-2.72-3.1c-1.1-2.24-2.55-2.91-5-2.28l-14.19,3.64c-1.67.44-3.35.85-5,1.29-1.48.4-1.82,1-1.47,2.44a13.92,13.92,0,0,0,4.37,7.58c1.95,1.71,3.84,3.5,5.68,5.34,4.21,4.19,9.35,6.71,14.93,8.46A62.35,62.35,0,0,0,272.61,373.77Z"/><path d="M335.32,250.06c.32-2.11-.15-2.83-2-3.53-4.56-1.75-9.27-3.05-13.92-4.54-2-.63-3.95-1.25-5.93-1.84a1.63,1.63,0,0,0-2.37,1.21q-1.44,4.84-2.76,9.72a2.1,2.1,0,0,0,1.05,2.39c2.41,1.56,4.82,3.12,7.25,4.66q5.08,3.21,10.21,6.4a11,11,0,0,0,1.22.66c1.66.74,3.08.25,3.66-1.47.67-2,1.14-4,1.67-6,.36-1.35.69-2.7,1-4.05Z"/><path d="M266.43,227.28c-.06-.27-.11-.64-.22-1-1-3.18-2-6.37-3-9.54-.5-1.54-1.08-1.91-2.69-1.75-7.5.77-15,1.56-22.49,2.32-.7.07-.86.29-.69,1q1.94,8.05,3.81,16.14c.14.62.35.78,1,.59q11.5-3.27,23-6.49C265.74,228.37,266.31,228.12,266.43,227.28Z"/><path d="M273.58,247.39a3.19,3.19,0,0,0-.26-1.37c-1.41-3.5-2.83-7-4.22-10.5-.23-.59-.46-.71-1.07-.47q-11.41,4.44-22.84,8.82c-.54.2-.71.41-.48,1q2.81,7.26,5.56,14.55c.2.53.41.65.94.38q10.57-5.4,21.17-10.77A2.27,2.27,0,0,0,273.58,247.39Z"/><path d="M237.76,209.08a77.8,77.8,0,0,0,19.4-.8c.91-.14,1.83-.27,2.74-.47a1.21,1.21,0,0,0,1.09-1.54c-.94-3.92-.75-7.92-.86-11.9,0-.7-.28-.87-.93-.93q-11.2-1.08-22.42-2.23c-.89-.09-1.05.14-1.05,1q0,7.5-.13,15c0,1.95-.07,1.48,1.52,1.75C237.33,209,237.55,209,237.76,209.08Z"/><path d="M297.29,311.32l-.06.46c-.31,2.26,0,2.82,2.23,3.36q9.09,2.24,18.2,4.41c2.38.57,3.14,0,3.52-2.42q.88-5.53,1.81-11.08c.27-1.64-.28-2.45-1.93-2.74q-9.76-1.72-19.55-3.41c-1.78-.31-2.48.2-2.73,2-.44,3.15-.87,6.31-1.3,9.46Z"/><path d="M245.07,158.2c3.26.47,6.31,1.71,9.44,2.66,2.54.77,5.06,1.63,7.59,2.42,2,.63,2.83.18,3.47-1.84.91-2.82,1.83-5.64,2.72-8.47a1.67,1.67,0,0,0-1-2.41c-3.52-1.75-7.05-3.45-10.58-5.17a47.08,47.08,0,0,0-7.46-3.26,2.49,2.49,0,0,0-3.24,1.65c-1.32,4-2.6,7.93-3.87,11.9-.45,1.42,0,2.08,1.5,2.32Z"/><path d="M267.7,296c.65-2.55,0-3.4-2.59-4q-8-1.77-16-3.61c-.46-.1-.73-.05-.93.44-1.85,4.58-3.75,9.14-5.59,13.72-.57,1.43,0,2.17,1.7,2.35,2.79.31,5.59.58,8.39.89q5.34.57,10.68,1.18c2.22.25,2.6,0,2.95-2.21.24-1.46.55-2.92.78-4.38S267.5,297.48,267.7,296Z"/><path d="M337.69,173.91a10.86,10.86,0,0,0-5.09.75,11.63,11.63,0,0,1-4.15.87,25.19,25.19,0,0,0-10.71,3.33,2,2,0,0,0-1.16,2.13c.22,3.2.39,6.41.61,9.62.1,1.6,1,2.22,2.57,1.86a1.36,1.36,0,0,0,.36-.09c3.33-2,7.15-1.66,10.79-2.16,2.51-.35,5-.52,7.54-.88,2-.29,2.77-1.32,2.55-3.35-.39-3.59-.44-7.23-1.6-10.7A1.71,1.71,0,0,0,337.69,173.91Z"/><path d="M310.77,158.25a11.34,11.34,0,0,0,.26,1.22c1.13,3.4,2.26,6.8,3.42,10.2.62,1.82,1.45,2.09,3.05,1a19.06,19.06,0,0,1,4.65-2.26c3.47-1.12,6.93-2.29,10.38-3.45a9,9,0,0,0,1.12-.45c2.29-1.1,2.57-1.74,1.76-4.08-1.11-3.22-2.24-6.42-3.35-9.63-.64-1.84-1.52-2.25-3.34-1.45-4.16,1.83-8.3,3.69-12.46,5.53l-4.23,1.9A2,2,0,0,0,310.77,158.25Z"/><path d="M317.61,202.7c-.12,1.91-.3,4.35-.42,6.78-.06,1.39.58,2.21,2,2.12,4-.26,8,.71,11.91.63,2.55-.06,5.09.22,7.64.12,2-.09,3-1,3-3.08,0-3.05.08-6.11,0-9.17,0-2.6-1.6-3.95-4.13-3.36-5.67,1.32-11.46,1.76-17.2,2.59C318.31,199.64,317.88,200.05,317.61,202.7Z"/><path d="M294.45,324.65a22.11,22.11,0,0,0-.24,3c0,1.82.4,2.6,2.08,3.15,3.46,1.14,6.93,2.24,10.4,3.35,2.41.77,4.81,1.6,7.28,2.16,2.18.5,3.41-.14,4.25-2.22a31.07,31.07,0,0,0,1.59-6.66c.15-.94-.57-1.23-1.26-1.44-1.75-.51-3.52-1-5.27-1.47-5-1.4-10.06-2.79-15.08-4.23-2.18-.62-2.8-.31-3.25,1.87C294.78,323,294.62,323.83,294.45,324.65Z"/><path d="M248.53,311.31c-2.77-.36-4.67-.59-6.55.06a2.87,2.87,0,0,0-2.07,2.37c-.36,2-.84,3.92-1.27,5.88a1.85,1.85,0,0,0,1.7,2.44c6.26.66,12.53,1.33,18.83,1.6,2.57.12,3.87-.94,4.44-3.48a17.37,17.37,0,0,0,.32-4.14,1.5,1.5,0,0,0-1.33-1.61c-3-.66-6-1.36-9-2C251.59,312,249.67,311.41,248.53,311.31Z"/><path d="M237.59,331.16a96.32,96.32,0,0,0-.45,9.9c0,.88.51.64,1,.56l18.64-3.53c1-.18,1.94-.36,2.9-.59a2.18,2.18,0,0,0,2-2.22,16.15,16.15,0,0,0,.07-3.61c-.17-1.51-.74-2.08-2.25-2.17-6.32-.36-12.64-.72-19-1C238.41,328.35,237.9,328.87,237.59,331.16Z"/><path d="M310.75,221.58c.11-.77.19-1.54.32-2.3.46-2.61-.15-4.09-2.41-5.47s-4.35-2.59-6.53-3.87c-2.69-1.58-5.39-3.13-8.06-4.74-.72-.44-1-.25-1.24.45-.83,2.13-.58,4.39-.84,6.59a2.29,2.29,0,0,1,0,.37c-.82,3.08.6,5,3.1,6.62s4.66,3.36,7,5.06a15.37,15.37,0,0,0,5.36,2.65c1.54.4,2.47-.13,2.75-1.7.22-1.22.34-2.45.51-3.67Z"/><path d="M291.1,339.75c-.3,2.18.24,3.58,1.77,4.36,5.55,2.81,10.39,6.65,15.32,10.37,1.8,1.36,1.81,1.38,3.38-.31,1.69-1.85,2.41-4.22,3.36-6.46,1.36-3.24,1-3.95-2.28-5.13q-8.62-3.09-17.29-6.1c-2.17-.75-3.15-.25-3.88,1.91C291.3,338.92,291.18,339.46,291.1,339.75Z"/><path d="M270.34,218.71a12.29,12.29,0,0,0,1.33,7.71c.56,1.1,1.35,1.24,2.47.43,1.5-1.08,2.94-2.25,4.4-3.39q3.33-2.6,6.64-5.21a4.77,4.77,0,0,0,2-3.71,35.27,35.27,0,0,0-.39-7.11c-.31-1.74-1-2.05-2.6-1.18a37,37,0,0,0-3.24,2.48c-2.34,1.67-4.7,3.3-7,5C271.88,215.14,270.52,217,270.34,218.71Z"/><path d="M306.33,240.43a3.71,3.71,0,0,0-1.59-4.12c-3.22-2.6-6.36-5.29-9.56-7.93-.62-.52-1.25-1.27-2.19-.88s-1,1.36-1,2.22c-.11,2.47-.41,4.93-.32,7.41a3.07,3.07,0,0,0,1.09,2.35c3.05,2.6,6.09,5.24,9.15,7.84,1.52,1.29,2.56.91,3-1S305.85,242.38,306.33,240.43Z"/><path d="M287,237.36c-.11-2.71-.18-5.43-.35-8.13-.07-1.12-.85-1.45-2-.86-1.92,1-3.79,2.09-5.68,3.14-1.08.6-2.17,1.19-3.23,1.82a1.83,1.83,0,0,0-.91,2.59c1.18,2.78,2.44,5.54,3.65,8.31.21.49.42.39.74.13L286,239A2.64,2.64,0,0,0,287,237.36Z"/><path d="M272.58,159.4c-.11.88.29,1.28,1.17,1.24a2.89,2.89,0,0,0,2.21-1.21,29.75,29.75,0,0,1,8.22-7.26,6.3,6.3,0,0,0,2.05-2.35,1.16,1.16,0,0,0,.14-.89c-.26-1.21-.47-2.43-.8-3.62-.47-1.72-1.39-2.09-3-1.23a17.5,17.5,0,0,0-7.58,8.36A45.19,45.19,0,0,0,272.58,159.4Z"/><path d="M291.68,144.33l-.3,5a1.87,1.87,0,0,0,.72,1.73c3.74,2.67,7.31,5.57,11.31,7.87,1,.6,1.16.52,1-.65a13.27,13.27,0,0,0-1.6-4.42,28.93,28.93,0,0,0-7.4-9.74,5.61,5.61,0,0,0-2.56-1.2c-.86-.17-1.33,0-1.19,1A2.37,2.37,0,0,1,291.68,144.33Z"/><path d="M270.48,305.16c-.59,4.38.77,7.15,4.14,8.59l.35.14c2.21.79,2.31.73,2.83-1.5a14.8,14.8,0,0,0,.8-3.79c-.08-3.33-1.88-5.59-4.56-7.25-1.17-.72-2.36-.19-2.91,1.16A10.14,10.14,0,0,0,270.48,305.16Z"/><path d="M284.31,311a20.44,20.44,0,0,0-.23,3.32,1.76,1.76,0,0,0,2,1.81c2.06-.25,3.8-1.4,5.66-2.21.26-.11.33-.44.34-.73.16-2.52.31-5.05.49-7.58.06-.8-.24-.84-.9-.59-1.76.65-3.53,1.31-5.33,1.86a2.33,2.33,0,0,0-1.8,2.28C284.5,309.75,284.39,310.36,284.31,311Z"/><path d="M275.27,325.66a4.48,4.48,0,0,0-.92-3.75c-.79-1-1.58-2-2.43-2.91a1.93,1.93,0,0,0-3-.07,4.63,4.63,0,0,0-.61,5.85,9.31,9.31,0,0,0,4.68,3.46c1.08.38,1.6.08,1.92-1.05C275,326.68,275.15,326.17,275.27,325.66Z"/><path d="M278.79,341.89a9.36,9.36,0,0,0,.57,3.81c.09.32.27.34.56.28,2-.44,3.68-1.32,4.34-3.53.43-1.41,1-2.77,1.55-4.16a4.68,4.68,0,0,0,.28-1.16c.1-1.16-.54-1.77-1.56-1.28-2.3,1.09-4.54,2.33-5.46,5-.06.18-.13.35-.18.53S278.82,341.7,278.79,341.89Z"/><path d="M272.54,340.09a6.3,6.3,0,0,0-4.13-6.52,1.25,1.25,0,0,0-1.64.61,3.55,3.55,0,0,0-.53,2.73,10.18,10.18,0,0,0,3.95,6.58c.6.41.88.36,1.11-.32C271.7,342,272.32,341,272.54,340.09Z"/><path d="M289,325.31c.3-2.47-.24-3-2.6-2.36a19.75,19.75,0,0,0-2.73.88,4.13,4.13,0,0,0-2.45,4.61A1.89,1.89,0,0,0,283,330.1C285.49,330.43,288.69,327.88,289,325.31Z"/><path d="M128.26,124.14h6.79v17.34H118.36s-.24-9.73,0-13.54c.79-12.38,4.16-16.59,16.37-17.65l1.65,5.39C126.74,116.41,128.26,124.14,128.26,124.14Z"/><path d="M150.45,124.54h6.79v17.33H140.55s-.24-9.73,0-13.53c.79-12.38,4.16-16.6,16.37-17.65.63,2,1.16,3.77,1.65,5.39C148.93,116.81,150.45,124.54,150.45,124.54Z"/><path d="M298.5,185.71h-6.79V168.37H308.4s.24,9.73,0,13.54c-.78,12.38-4.16,16.59-16.37,17.65l-1.65-5.39C300,193.44,298.5,185.71,298.5,185.71Z"/><path d="M276.31,185.31h-6.79V168h16.69s.24,9.73,0,13.53c-.79,12.38-4.16,16.6-16.37,17.65-.63-2-1.16-3.77-1.65-5.39C277.84,193,276.31,185.31,276.31,185.31Z"/></svg>